<svg version="1.2" baseProfile="tiny-ps" xmlns="http://www.w3.org/2000/svg" viewBox="0 0 1910 713" width="1910" height="713">
	<title>New Project</title>
	<style>
		tspan { white-space:pre }
		.shp0 { fill: #fcfbf7 } 
	</style>
	<path id="Layer" fill-rule="evenodd" class="shp0" d="M-9.94 0.33L1298.25 0.33L1298.25 1.09C1295.89 1.33 1293.04 1.54 1289.75 2.11C1286.44 2.67 1282.66 3.17 1278.53 4.01C1276.47 4.48 1274.32 4.97 1272.08 5.47L1268.66 6.25C1268.09 6.39 1267.49 6.53 1266.91 6.66C1266.33 6.82 1265.74 6.99 1265.14 7.17C1259.48 8.75 1253.89 10.54 1248.36 12.53C1242.84 14.52 1237.39 16.72 1232.03 19.12C1226.68 21.53 1221.41 24.13 1216.25 26.92C1211.08 29.72 1206.03 32.71 1201.09 35.88C1197.88 37.93 1194.71 40.03 1191.58 42.19C1188.44 44.34 1185.35 46.55 1182.3 48.82C1179.24 51.09 1176.23 53.41 1173.26 55.78C1170.29 58.15 1167.36 60.58 1164.47 63.06C1164.08 63.4 1163.72 63.73 1163.34 64.07C1163.2 61.89 1160.81 61.26 1158.15 62.94C1156.28 64.11 1152.56 66.5 1152.1 65.39C1150.24 66.58 1148.38 67.79 1148.85 68.89C1146.09 73.51 1140.56 77.22 1141.45 73.79C1140.9 73.88 1140.36 74.01 1139.83 74.16C1139.3 74.32 1138.77 74.51 1138.27 74.74C1137.76 74.96 1137.26 75.21 1136.79 75.5C1136.31 75.78 1135.85 76.1 1135.41 76.44C1134.87 76.99 1134.31 77.54 1133.74 78.08C1133.18 78.62 1132.61 79.15 1132.03 79.67C1131.44 80.19 1130.86 80.7 1130.26 81.21C1129.67 81.72 1129.06 82.21 1128.45 82.7C1128.96 83.78 1132.7 81.16 1134.54 79.9C1137.74 76.27 1137.74 76.27 1135.03 80.99C1134.56 81.44 1134.08 81.88 1133.59 82.31C1133.1 82.74 1132.61 83.17 1132.11 83.58C1131.61 84 1131.1 84.4 1130.58 84.8C1130.07 85.2 1129.55 85.58 1129.02 85.96C1125.93 88.32 1122.12 91.2 1118.32 94.08C1114.51 96.86 1110.8 99.84 1107.62 102.01C1104.49 104.24 1102.03 105.9 1100.81 106.18C1099.81 106.8 1098.82 107.44 1097.85 108.1C1096.87 108.77 1095.91 109.45 1094.97 110.15C1094.03 110.86 1093.1 111.59 1092.19 112.33C1091.28 113.08 1090.39 113.85 1089.51 114.64C1085.19 118.52 1081.22 122.43 1080.72 123.86C1080.56 124.5 1080.31 125.12 1079.95 125.67C1079.59 126.23 1079.14 126.73 1078.62 127.13C1078.1 127.54 1077.51 127.85 1076.88 128.06C1076.25 128.27 1075.59 128.37 1074.93 128.36C1072.53 129.21 1070.2 130.26 1067.51 134.96C1067.09 135.59 1066.68 136.22 1066.28 136.86C1065.88 137.49 1065.49 138.14 1065.11 138.79C1064.72 139.44 1064.35 140.09 1063.99 140.75C1063.63 141.41 1063.28 142.08 1062.93 142.75C1062.19 144.32 1062.36 144.54 1063.98 142.58C1065.61 140.62 1066.31 141.53 1067 142.43C1066.1 145.26 1066.11 145.25 1062.19 148.25C1060.58 150.2 1059.05 152.25 1057.48 154.26L1058.31 151.37C1060.71 146.48 1060.75 146.42 1052.97 152.86C1046.82 157.39 1046.83 157.52 1046.81 161.24C1046.03 164.15 1045.36 167.16 1043.11 168.51C1041.61 168.8 1039.73 170.57 1038.28 172.77C1037.94 173.27 1037.62 173.79 1037.35 174.32C1037.07 174.86 1036.84 175.42 1036.64 175.99C1036.44 176.56 1036.28 177.14 1036.16 177.74C1036.04 178.33 1035.97 178.93 1035.93 179.53C1035.86 179.89 1035.79 180.24 1035.7 180.59C1035.62 180.94 1035.53 181.29 1035.43 181.64C1035.33 181.99 1035.23 182.33 1035.12 182.67C1035 183.02 1034.88 183.36 1034.76 183.7C1034.65 184 1034.55 184.29 1034.43 184.59C1034.31 184.88 1034.19 185.18 1034.06 185.46C1033.93 185.75 1033.79 186.04 1033.65 186.32C1033.5 186.61 1033.35 186.88 1033.2 187.16C1032.99 187.59 1032.74 187.99 1032.45 188.37C1032.17 188.75 1031.85 189.1 1031.5 189.43C1031.15 189.75 1030.77 190.04 1030.37 190.29C1029.97 190.55 1029.55 190.76 1029.1 190.94C1028.3 190.24 1028.22 190.17 1025.65 194.91C1025.2 197.98 1023.08 199.65 1023.52 196.59C1023.75 195.06 1023.17 195 1022.1 196.01C1021.69 196.46 1021.29 196.91 1020.9 197.38C1020.51 197.85 1020.14 198.33 1019.78 198.83C1019.43 199.32 1019.09 199.82 1018.76 200.34C1018.44 200.85 1018.13 201.38 1017.84 201.91C1017.37 202.71 1016.92 203.51 1016.48 204.32C1016.03 205.13 1015.61 205.95 1015.2 206.78C1014.79 207.61 1014.39 208.44 1014.01 209.28C1013.63 210.12 1013.26 210.97 1012.91 211.83C1012.53 212.73 1012.18 213.64 1011.84 214.57C1011.51 215.49 1011.19 216.42 1010.9 217.35C1010.61 218.29 1010.34 219.23 1010.09 220.18C1009.84 221.13 1009.62 222.08 1009.41 223.04C1008.12 228.73 1007.05 231.27 1007.95 231.83C1008.95 230.86 1009 233.3 1008.58 236.61C1008.49 237.45 1008.36 238.29 1008.19 239.12C1008.02 239.95 1007.82 240.78 1007.57 241.59C1007.33 242.4 1007.06 243.2 1006.74 243.99C1006.43 244.78 1006.08 245.55 1005.7 246.31C1004.79 248.91 1002.94 254.14 1002.99 257.21C1002.52 258.7 1002.32 259.34 1002.23 259.63C1003.05 257.24 1003.96 257.69 1004.87 258.16C1004.03 260.77 1003.21 263.36 1000.49 265.13C997.73 266.87 997 269.61 996.24 272.29C997.21 272.72 997.33 275.77 995.96 281.16C994.33 283.49 993.66 286.22 991.71 285.52C989.76 284.82 988.8 284.47 988.12 287.24C988.43 290.34 986.3 295.61 984.71 298.14C983.11 300.66 982.01 305.59 981.34 310.64C981.2 311.74 981.09 312.84 981.02 313.95C980.96 315.06 980.92 316.16 980.93 317.27C980.93 318.38 980.98 319.49 981.05 320.6C981.13 321.71 981.24 322.81 981.39 323.91C981.36 325.14 981.31 326.37 981.23 327.59C981.15 328.82 981.06 330.05 980.94 331.27C980.82 332.5 980.68 333.72 980.51 334.94C980.35 336.16 980.17 337.37 979.96 338.58C979.24 343.91 978.37 348.16 977.99 346.67C977.5 346.61 977.08 348.04 976.83 350.18C976.58 352.33 976.42 355.22 976.26 358.12C976.19 359.56 976.13 360.87 976.06 362.06C976.04 363.25 976.02 364.3 976.01 365.25C975.98 366.73 976.02 368.2 976.13 369.68C976.32 371.85 976.82 372.58 977.83 372.59C977.83 372.59 977.95 372.94 978.13 373.53C978.32 374.12 978.55 374.93 978.8 375.82C978.94 376.25 979.07 376.68 979.18 377.12C979.29 377.56 979.39 378 979.48 378.45C979.57 378.89 979.64 379.34 979.7 379.78C979.76 380.23 979.81 380.68 979.85 381.13C980.09 381.81 980.29 382.51 980.42 383.22C980.55 383.93 980.62 384.65 980.63 385.38C980.64 386.1 980.59 386.82 980.48 387.54C980.37 388.25 980.2 388.96 979.97 389.64C979.74 390.33 978.93 389.7 977.86 386.88C976.82 386.93 976.9 389.79 977.36 401.21C978.28 415.42 978.3 415.39 979.93 409.49L980.57 403.75L981.95 409.26C982.38 411.98 982.73 414.19 983 415.93C983.06 416.25 983.1 416.57 983.14 416.89C983.18 417.2 983.22 417.52 983.24 417.84C983.27 418.16 983.28 418.48 983.29 418.81C983.3 419.13 983.31 419.45 983.3 419.77C983.2 421.48 982.45 421.6 980.82 420.47C979.82 420.62 978.79 420.78 979.06 423.49C980.07 430.9 981.43 438.23 983.14 445.46C985.04 454.01 987.09 461.77 987.32 463.09C988.32 462.84 988.73 465.49 989.2 468.13C989.44 469.44 990.26 472.68 991.31 476.88C992.38 481.07 993.63 486.24 994.78 491.46C995.57 494 996.42 496.86 997.28 499.9C998.13 502.93 999 506.14 999.87 509.35C1000.71 512.57 1001.63 515.76 1002.47 518.82C1003.27 521.88 1004.12 524.76 1004.86 527.33C1005.58 529.9 1006.39 532.8 1007.25 535.86C1007.67 537.4 1008.1 538.98 1008.53 540.58C1009 542.18 1009.47 543.79 1009.94 545.41C1010.41 547.03 1010.88 548.65 1011.34 550.25C1011.85 551.84 1012.35 553.4 1012.84 554.93C1013.33 556.45 1013.83 557.93 1014.3 559.35C1014.79 560.77 1015.29 562.11 1015.77 563.37C1019.57 573.41 1024.01 586.42 1028.84 596.17C1029.77 597.98 1030.99 600.41 1032.46 603.29C1033.97 606.15 1035.79 609.43 1037.77 612.99C1042.36 620.96 1047.26 628.63 1052.49 635.99C1057.33 642.63 1063.04 650.43 1068.98 657.18C1070.41 658.92 1071.96 660.49 1073.38 662.07C1074.85 663.62 1076.2 665.17 1077.61 666.49C1079.01 667.84 1080.33 669.1 1081.55 670.28C1082.17 670.85 1082.77 671.41 1083.33 671.93C1083.91 672.43 1084.47 672.89 1084.99 673.34C1086.45 674.89 1088.39 676.93 1090.75 679.1C1091.95 680.15 1093.23 681.24 1094.56 682.37C1095.89 683.5 1097.28 684.69 1098.72 685.71C1100.03 686.71 1101.36 687.69 1102.72 688.64C1104.07 689.58 1105.44 690.5 1106.83 691.38C1108.23 692.27 1109.64 693.12 1111.07 693.94C1112.5 694.77 1113.95 695.56 1115.42 696.31C1120.11 698.67 1126.55 701.94 1133.08 704.56L1137.96 706.5C1139.59 707.06 1141.16 707.61 1142.69 708.13C1144.22 708.62 1145.71 709.16 1147.11 709.52C1147.11 709.52 1149.91 710.56 1151.08 710.93C1167.23 715.99 1192 720 1192 720C1192 720 -1.89 713.97 -5.94 716.99C-10 720 -9.94 0.33 -9.94 0.33ZM1307.17 0.33C1309.22 0.22 1311.11 0.21 1312.85 0.14C1315.52 0.09 1317.85 0.04 1319.93 0C1322.91 0.06 1325.37 0.19 1327.61 0.33L1307.17 0.33ZM981.45 356.56C981.45 356.47 981.46 356.33 981.46 356.16C981.46 356.33 981.46 356.46 981.45 356.56L981.45 356.56ZM981.5 355.62C981.56 354.47 981.67 352.5 981.81 349.95C982.29 344.29 982.53 341.46 982.53 341.45C983.55 341.6 982.72 350.03 981.5 355.62L981.5 355.62ZM983.24 433.76C983.24 433.76 982.24 433.95 981.93 431.26C981.89 430.79 981.87 430.33 981.88 429.86C981.88 429.39 981.9 428.93 981.93 428.46C981.97 428 982.03 427.53 982.1 427.07C982.17 426.61 982.26 426.16 982.37 425.7C983.38 425.53 983.38 425.53 983.66 428.21C983.94 430.9 984.26 433.58 983.24 433.76L983.24 433.76ZM1011.21 224.22C1010.26 223.59 1013.73 216.09 1016.64 214.86C1015.49 217.34 1014.34 219.81 1014.34 219.81C1015.23 220.41 1015.23 220.41 1014.09 222.9C1014 222.97 1013.91 223.05 1013.82 223.12C1013.73 223.2 1013.64 223.27 1013.54 223.34C1013.45 223.41 1013.36 223.49 1013.26 223.55C1013.17 223.62 1013.07 223.69 1012.98 223.76C1012.38 224.17 1011.66 224.51 1011.21 224.22L1011.21 224.22ZM1016.64 214.86C1017.79 212.39 1017.51 215.49 1016.64 214.86L1016.64 214.86ZM1059.71 399.86C1059.69 399.49 1059.67 399.13 1059.65 398.77C1059.68 399.18 1059.71 399.65 1059.75 400.13C1059.78 400.56 1059.79 400.98 1059.79 401.41C1059.77 400.88 1059.74 400.36 1059.71 399.86L1059.71 399.86ZM1075.26 133C1073.61 134.88 1071.95 136.75 1071.27 135.83L1072.25 133.02C1072.44 132.81 1072.64 132.61 1072.84 132.42C1073.05 132.22 1073.26 132.04 1073.48 131.86C1073.7 131.69 1073.93 131.52 1074.16 131.36C1074.4 131.2 1074.64 131.06 1074.88 130.92C1075 130.85 1075.11 130.79 1075.22 130.73C1075.34 130.67 1075.45 130.61 1075.57 130.55C1075.69 130.5 1075.81 130.44 1075.92 130.39C1076.04 130.34 1076.16 130.29 1076.28 130.24C1076.95 131.19 1076.94 131.15 1075.26 133ZM1150.28 601.34C1149.51 600.96 1148.89 600.64 1148.89 600.64C1148.64 599.18 1149.76 599.05 1151.12 599.73C1151.55 599.93 1151.96 600.15 1152.36 600.41C1152.75 600.67 1153.13 600.96 1153.48 601.27C1153.83 601.59 1154.15 601.93 1154.45 602.29C1154.74 602.66 1155.01 603.05 1155.25 603.46L1150.28 601.34ZM1196.91 140.91C1196.68 141.05 1196.43 141.2 1196.17 141.37L1195.92 141.53C1196.37 141.24 1196.77 140.98 1197.14 140.76L1196.91 140.91Z" />
</svg>