<svg xmlns="http://www.w3.org/2000/svg" width="178" height="83.99" viewBox="0 0 178 83.99"><defs><style>.a{fill:#397674;}</style></defs><g transform="translate(-18.539 -24.143)"><path class="a" d="M64.66,107.65v66.8H93.289v-2.038H76.433V107.65Z" transform="translate(-46.121 -66.317)"/><rect class="a" width="11.773" height="66.776" transform="translate(119.843 41.34)"/><path class="a" d="M189.956,97.064a5.8,5.8,0,1,1,5.828-5.712,5.619,5.619,0,0,1-5.828,5.712" transform="translate(-73.012 -61.327)"/><path class="a" d="M212.586,97.064a5.8,5.8,0,1,1,5.828-5.712,5.611,5.611,0,0,1-5.828,5.712" transform="translate(-78.104 -61.327)"/><path class="a" d="M140.868,109.462l-.473-1.256a.969.969,0,0,0-1.79,0h0l-4.751,11.672-22.2,54.469h2.775l9.3-22.84a.976.976,0,0,1,.922-.674H144.8a.961.961,0,0,1,.876.573v.047l.124.349,8.525,22.545h10.959Zm-16.415,40.3,10.719-26.3,9.9,26.3Z" transform="translate(-56.693 -66.308)"/><path class="a" d="M254.346,109.462l-.473-1.256h0a.969.969,0,0,0-1.79,0h0l-4.759,11.672-22.2,54.469H227.9l9.3-22.84a.977.977,0,0,1,.922-.674h20.151a.953.953,0,0,1,.868.573v.047l.132.349,8.525,22.545H278.76Zm-16.407,40.3,10.711-26.289,9.9,26.289Z" transform="translate(-82.22 -66.308)"/></g></svg>