<svg xmlns="http://www.w3.org/2000/svg" width="229.424" height="58.578" viewBox="0 0 229.424 58.578"><defs><style>.a{fill:#fff;}</style></defs><g transform="translate(-114.732 -291.85)"><g transform="translate(114.732 291.85)"><path class="a" d="M831.086,125.74l.006-.051a4.956,4.956,0,0,1,.542-1.632,14.533,14.533,0,0,1,.888-1.45l.028-.055a13.117,13.117,0,0,0,.388-1.523c.075-.4.154-.863.241-1.379a.615.615,0,0,0,.218-.318.49.49,0,0,0-.109-.566l-.107.1a.731.731,0,0,1,0-.451l.213-.655.01-.077a1.075,1.075,0,0,0-.1-.36c-.051-.1-.1-.208-.136-.3a.728.728,0,0,1-.01-.425.4.4,0,0,0-.014-.348.378.378,0,0,0-.17-.152,11.957,11.957,0,0,0-1.405-4.281,11.241,11.241,0,0,0-2.993-3.278,9.156,9.156,0,0,0-3.159-1.209c-1.193-.239-2.5-.467-3.891-.679a1.677,1.677,0,0,0-.619,0c-.178.03-.307.049-.358.055a6.685,6.685,0,0,0-1.391-.01,7.755,7.755,0,0,1-1.175.045,5.824,5.824,0,0,0-1.193.075c-.425.071-.874.154-1.339.247s-.908.2-1.337.311a5.268,5.268,0,0,1-1.039.19l-.059.014c-.839.311-1.68.613-2.5.894a17.174,17.174,0,0,0-2.366,1.017,10.911,10.911,0,0,0-2,.94,17.757,17.757,0,0,0-1.729,1.086.823.823,0,0,0-.471.2.337.337,0,0,1-.216.1l-.083,0-.057.065a4.314,4.314,0,0,1-1.132.928,4.5,4.5,0,0,0-1.185.95.648.648,0,0,0-.176.354l-.052.044c-.356.4-.635.706-.829.91a2.129,2.129,0,0,0-.429,1.335l-.006.063.031.057a.5.5,0,0,0,.305.263.355.355,0,0,0,.233-.028l.038.061.012.214.026.089a.75.75,0,0,0,.368.293.278.278,0,0,1,.164.16l.033.057c.093.105.3.358.532.261a.576.576,0,0,0,.287-.342c.055-.129.127-.279.221-.451a.749.749,0,0,1,.356-.322,8.375,8.375,0,0,0,1.78-.938,3.216,3.216,0,0,0,.61-.574.292.292,0,0,0,.271-.115.307.307,0,0,0,.079-.3,10.008,10.008,0,0,1,1.816-1.058,10.087,10.087,0,0,0,1.327-.728c-.372,1.207-.744,2.479-1.108,3.79-.443,1.6-.9,3.191-1.361,4.73-.5,1.654-.967,3.171-1.434,4.637-.479,1.5-.961,2.874-1.436,4.089a6.85,6.85,0,0,0-.32,1.177,4.822,4.822,0,0,1-.291,1.011,3.6,3.6,0,0,0-.38.973,10,10,0,0,1-.342,1.1,8.277,8.277,0,0,1-.374.995c-.152.334-.283.659-.392.965-.33.88-.621,1.778-.864,2.669-.232.859-.489,1.743-.775,2.677a7.559,7.559,0,0,0-.544,1.812,4.307,4.307,0,0,1-.56,1.529,1.1,1.1,0,0,0-.449.057,1.449,1.449,0,0,1-.218.059l-.012-.192-.212.026a18.132,18.132,0,0,1-2.336.117,4.457,4.457,0,0,1-2.053-.491l.006-.014a.4.4,0,0,0-.132-.483l-.1-.085-.119.053c-.093.042-.148.044-.168.032s-.077-.1-.089-.307a.955.955,0,0,1,.2-.783l.166-.152-.17-.15a.143.143,0,0,1-.048-.14,1.584,1.584,0,0,1,.065-.313,1.855,1.855,0,0,0,.081-.362.387.387,0,0,0-.227-.433l-.083-.034-.083.036a5.243,5.243,0,0,0-1.377.892c-.346.324-.736.73-1.185,1.242l-.044.049,0,.065a.809.809,0,0,1-.139.443.758.758,0,0,0-.172.437.451.451,0,0,0-.075,0l-.281.018.107.261a.748.748,0,0,0,.505.4.245.245,0,0,1-.018.131l-.063.19.19.065a1.3,1.3,0,0,1,.463.247.919.919,0,0,0,.279.176c0,.051,0,.109,0,.174l.008.123.111.051a.309.309,0,0,0,.075.022c.01.024.022.047.034.071l.03.053.053.026a1.967,1.967,0,0,1,.55.431.69.69,0,0,0,.657.257,1.672,1.672,0,0,0,.491.388,1.629,1.629,0,0,0,.655.2l.02.307.235-.059a1.533,1.533,0,0,1,1.207.212,1.974,1.974,0,0,0,1.377.332l.085-.016.048-.071a.266.266,0,0,1,.3-.138.734.734,0,0,0,.346-.026.194.194,0,0,0,.03.071.263.263,0,0,0,.253.111h.018a.433.433,0,0,1,.048.156c.02.075.034.336-.269,1.108-.237.615-.447,1.163-.635,1.662q-.525,1.823-1.187,4.012a40.04,40.04,0,0,0-1.041,4.277l-.4,1.691a7.7,7.7,0,0,0-.228,1.6l0,.032.008.032a4.816,4.816,0,0,0,.239.588,1.534,1.534,0,0,1,.15.556l.1.21.045.055a.806.806,0,0,0,.477.121,5.694,5.694,0,0,0,1.379-.109,1.075,1.075,0,0,0,.505.146.78.78,0,0,1,.409.109l.18.16.125-.2a4.281,4.281,0,0,0,.619-1.925,3.869,3.869,0,0,1,.51-1.7.252.252,0,0,0-.026-.3,2.979,2.979,0,0,0,.576-1.42c.089-.631.2-1.223.332-1.765l.065-.265-.186.01a3.4,3.4,0,0,0,.1-.752,1.655,1.655,0,0,1,.028-.273l.3-.146c0-.04-.008-.079-.014-.117l.053-.142a2.436,2.436,0,0,1,.2-.54,1.026,1.026,0,0,0,.125-.55,2.466,2.466,0,0,0,.445-.91,5.507,5.507,0,0,1,.435-1.058,14.517,14.517,0,0,0,.875-2.558,18.861,18.861,0,0,1,.813-2.534,7.805,7.805,0,0,1,.795-.15,1.912,1.912,0,0,0,.934-.277q1.292-.589,2.431-1.139a13.878,13.878,0,0,0,2.224-1.345l-.028-.059a.3.3,0,0,0,.061-.075,17.34,17.34,0,0,0,2.75-1.26l.022.03.19-.012.045-.03c2.164-1.458,4.372-3.035,6.566-4.687a51.276,51.276,0,0,0,6.089-5.375l-.093-.2.024-.022.194.172.1-.291a2.29,2.29,0,0,1,.289-.578.526.526,0,0,1,.433-.237l.123-.008.05-.117a1.879,1.879,0,0,1,.556-.76,6.056,6.056,0,0,0,.655-.6.3.3,0,0,0,.271-.049l.065-.057a5.437,5.437,0,0,1,.546-.653,3.184,3.184,0,0,0,.394-.5.357.357,0,0,0,.245.057l.091-.006,3.007-4.046Zm1.937-6.724-.006-.024c.008-.032,0-.065.044-.089a.077.077,0,0,1,.045-.014.1.1,0,0,1,.044.006Zm-4.386,1.85a12.787,12.787,0,0,1-2.3,4.048c-1.092,1.288-2.067,2.419-2.979,3.456a41.014,41.014,0,0,1-3.87,3.818c-1.487,1.286-2.827,2.419-4.1,3.462l-.049.038-.018.059a1.413,1.413,0,0,1-.487.738,6.66,6.66,0,0,1-.8.548c-.291.172-.58.352-.871.542a2.285,2.285,0,0,0-.669.659,1.348,1.348,0,0,0-.886.415c-.164.142-.319.283-.463.423a2.3,2.3,0,0,1-.394.307.939.939,0,0,1-.281.071.871.871,0,0,0-.483.218.759.759,0,0,0-.19.358.328.328,0,0,1-.069.144,5.65,5.65,0,0,0-1.167.783,4.24,4.24,0,0,1-.977.52c-.437.176-.892.354-1.369.534s-.952.36-1.409.538c-.324.125-.6.241-.835.35a20.9,20.9,0,0,0,.483-2.4,15.919,15.919,0,0,1,.781-3.191l.315-1.041c.212-.647.461-1.3.736-1.955s.558-1.276.87-1.913a16.21,16.21,0,0,0,.867-2.683,12.753,12.753,0,0,1,.906-2.617,33.464,33.464,0,0,0,1.543-4.089,8.682,8.682,0,0,0,.386-1.666,3.1,3.1,0,0,1,.5-1.379,10.414,10.414,0,0,0,.726-1.941c.168-.637.416-1.662.76-3.124a.521.521,0,0,0-.095-.5.437.437,0,0,1-.071-.255l-.006-.077-.055-.055c-.408-.4-.762-.742-1.06-1.027a7.088,7.088,0,0,0-1.252-.874.994.994,0,0,1,.285-.214,5.113,5.113,0,0,1,.872-.362c.33-.105.661-.2.995-.287a2.13,2.13,0,0,0,.726-.283c.681-.332,1.359-.633,2.01-.892a12.428,12.428,0,0,1,2.107-.6,13.694,13.694,0,0,1,2.795-.212c1.1.016,2.467.121,4.073.311a8.462,8.462,0,0,0,.981.287,5.145,5.145,0,0,1,1.221.475c.447.433.872.876,1.26,1.316a5.414,5.414,0,0,1,.932,1.541,5.3,5.3,0,0,1,.287,1.12,8.436,8.436,0,0,0,.23,1.161,1.6,1.6,0,0,0,.049.647,2.645,2.645,0,0,1,.095.544,12.615,12.615,0,0,1-.168,1.808,11.333,11.333,0,0,1-.36,1.61,1.321,1.321,0,0,0-.091.421A.907.907,0,0,0,828.637,120.867ZM805.37,145.849a.392.392,0,0,0,.123-.01c-.126.067-.247.135-.37.2C805.21,145.98,805.291,145.916,805.37,145.849Zm3.084-1.953q1.347-.949,2.7-1.867l.19-.315a.6.6,0,0,0,.21-.1.172.172,0,0,1,.109-.036l.053,0,.047-.03a16.383,16.383,0,0,0,1.61-1.207,16.3,16.3,0,0,1,1.6-1.193,6.171,6.171,0,0,1,.588-.473,3.4,3.4,0,0,0,.505-.437l.073.063.168-.194c.441-.366,1-.809,1.672-1.32a11.475,11.475,0,0,1,.947-.651,5.4,5.4,0,0,0-.681.673c-.077.131-.17.283-.285.457-.1.156-.188.137-.231.133l-.121-.02-.075.1a3.014,3.014,0,0,1-1.116.849,3.858,3.858,0,0,0-1.262.894l.176.214a7.078,7.078,0,0,0-.669.623,9.815,9.815,0,0,0-1.323.855c-.423.324-.884.651-1.369.977l-.1.065.008.117a1.126,1.126,0,0,1-.016.247c-1.167.742-2.366,1.428-3.563,2.038-.744.38-1.492.774-2.23,1.177C806.88,144.985,807.683,144.439,808.453,143.9Z" transform="translate(-788.834 -106.622)"/><path class="a" d="M1005.145,126.1s-.042-.028-.081-.184a1.2,1.2,0,0,0-.354-.631l-.109-.1-.126.075c-.174.1-.43.279-.786.542s-.764.574-1.284.973l-.578.657c-.087.057-.22.156-.421.313s-.42.34-.643.524-.437.358-.637.52a3.769,3.769,0,0,0-.374.318c-.552.5-.977.853-1.262,1.064s-.623.479-1.072.855l-1.571.855c-.152-.1-.334.038-.421.105l-.817.443a14.381,14.381,0,0,1-1.774.936,9.138,9.138,0,0,1-1.375.528c-.4.111-.827.22-1.31.344a7.512,7.512,0,0,1-4.384.21A3.808,3.808,0,0,1,984.28,134a6.919,6.919,0,0,1-1.205-.829,1.087,1.087,0,0,0-.281-.364c-.034-.032,0-.144.05-.237l.012-.026a2.5,2.5,0,0,0,1.652-.53,4.914,4.914,0,0,1,1.761-.851l.061-.014.04-.047a6.321,6.321,0,0,1,1.088-.969,6.769,6.769,0,0,0,1.155-1.033l.055-.063-.006-.085a.235.235,0,0,1,.089-.22l.045-.042a1.73,1.73,0,0,1,.681-.56,1.984,1.984,0,0,0,.835-.752c.184-.255.395-.516.639-.8s.441-.5.6-.681l.034-.053c.075-.182.142-.364.2-.544a.894.894,0,0,1,.172-.342,3.246,3.246,0,0,1,.475-.542,1.494,1.494,0,0,0,.434-.643.761.761,0,0,0,.061-.348.2.2,0,0,1,.061-.117l.033-.044a3.505,3.505,0,0,0,.313-.906,2.051,2.051,0,0,0-.095-.989l-.02-.065-.057-.04a.782.782,0,0,1-.34-.433.77.77,0,0,0-.615-.542,3.022,3.022,0,0,0-.936-.8,2.527,2.527,0,0,1-.851-.746l-.065-.093-.113.008a.937.937,0,0,0-.407.111l-.263.156a.732.732,0,0,1-.4.121,1.12,1.12,0,0,0-.587.18,4.834,4.834,0,0,0-.942.487,10.742,10.742,0,0,0-.963.7,6.03,6.03,0,0,1-.845.758,2.734,2.734,0,0,1-.683.55,3.145,3.145,0,0,0-.789.643,6.086,6.086,0,0,1-.693.789c-.113.105-.3.261-.451.4-.263.053-.523.1-.762.152a4.628,4.628,0,0,1-1.043.071l0-.051-.063.049-.21-.006.01.158-.035.026c-.129.1-.234.178-.313.249-.012.012-.047.036-.135.012l-.109-.03-.081.079a1.8,1.8,0,0,1-.779.425c-.326.081-.641.174-.936.279a.942.942,0,0,0-.182.032l-.188-.334-.162.38-.006.02a5.82,5.82,0,0,0-1.288.378q-.91.349-1.941.766l-1.968.8a7.408,7.408,0,0,1-1.064.362,6.617,6.617,0,0,0-.142-.766l-.267-1.167c-.087-.4-.188-.775-.3-1.122a2.176,2.176,0,0,0-.382-.777,2.832,2.832,0,0,0-.864-1.047,2.247,2.247,0,0,0-1.381-.273,2.072,2.072,0,0,0-1.654-.182,2.326,2.326,0,0,0-1.63,1.63,8.427,8.427,0,0,1-.779,1.015,10.047,10.047,0,0,0-.973,1.312,2.213,2.213,0,0,1-.334.283c-.168.119-.336.251-.522.413a.767.767,0,0,0-.188.441.381.381,0,0,1-.089.218,1.128,1.128,0,0,1-.461.36,1.59,1.59,0,0,0-.471.279l-.453.028-.057.081a5.859,5.859,0,0,1-.864,1.015c-.279.251-.532.471-.75.653s-.443.374-.643.558a3.412,3.412,0,0,0-.584.714l-.144.028a.265.265,0,0,0-.111.01l-.21.071.036.142c-.034.034-.083.083-.152.148a14.677,14.677,0,0,1-3.06,2.534l-.063.061c-.083.127-.139.212-.166.251l-.073,0a.988.988,0,0,0-.433.178l-.073.042-.05.2a17.066,17.066,0,0,0-2.251,1.662,5.383,5.383,0,0,1-2.279,1.242,3.07,3.07,0,0,1-.289-1.325,12.318,12.318,0,0,1,.121-2.059c.1-.726.218-1.442.344-2.125s.235-1.242.328-1.711a3.606,3.606,0,0,0,.421-1.047,9.314,9.314,0,0,0,.263-1.521,10.344,10.344,0,0,0,.026-1.638c-.034-.528-.087-1.015-.156-1.45l-.016-.093-.083-.049a2.383,2.383,0,0,0-1.015-.386c-.217-.008-.619.006-1.234.047l-.117,0-.051.115a1.01,1.01,0,0,1-.382.186l-.142.051.008.154a.6.6,0,0,1-.075.406,1.461,1.461,0,0,0-.277.524,57.88,57.88,0,0,1-5.432,7.436,46.69,46.69,0,0,1-5.2,5.167c.038-.593.089-1.157.158-1.685.083-.659.208-1.361.364-2.055.152-.366.33-.835.521-1.391a12.46,12.46,0,0,1,.742-1.678,3.18,3.18,0,0,0,.263-.738c.083-.305.17-.627.265-.969l.02-.071c.107-.372.2-.734.287-1.084.042-.174.077-.311.105-.431.093-.166.2-.34.257-.471l.046.008.344-.8a1.17,1.17,0,0,0-.012-.774.79.79,0,0,1,.1-.615l.154-.313-.259.016a1.445,1.445,0,0,1-.032-.245l0-.061-.036-.049a6.6,6.6,0,0,0-.461-.532.846.846,0,0,0-.864-.259,1.614,1.614,0,0,0-1.132-.168c-.449.071-.823.14-1.12.2l-.067.014-.045.051a.341.341,0,0,0-.059.368.6.6,0,0,1-.016.229l-.52,1.893c-.2.768-.487,1.7-.843,2.764-.03.089-.055.184-.083.273l-.265.2a5.267,5.267,0,0,1-.983.619c-.39.2-.795.392-1.207.588l-2.249,1.043c-.366.192-.738.374-1.108.548a7.943,7.943,0,0,1-1.126.425l-.787.362a13.27,13.27,0,0,1-1.46.4,8.474,8.474,0,0,0,.493-2.392,19.95,19.95,0,0,0,.027-2.655,11.036,11.036,0,0,0-.251-1.879c-.1-.378-.168-.611-.384-.6a.209.209,0,0,0-.1.03.522.522,0,0,0-.429-.079,3.344,3.344,0,0,1-.651-.477,1.791,1.791,0,0,0-.93-.449l-.1-.018a.267.267,0,0,0-.1-.069,3.418,3.418,0,0,0-.42-.212.882.882,0,0,0-.682.087l-.176.012c-.089-.186-.285-.269-.587-.251l-.117.022a.227.227,0,0,0-.208-.006l0,0a.431.431,0,0,0-.358-.231.711.711,0,0,0-.3.1,2.478,2.478,0,0,1-.289.137.811.811,0,0,1-.453-.034l-.089-.024-1.161.813a3.662,3.662,0,0,0-1.084.738,13.931,13.931,0,0,0-1.25,1.316,14.916,14.916,0,0,0-1.223,1.7c-.283.453-.5.88-.712,1.306-.008,0-.012-.006-.022,0l-.174.1.043.17-.083.006-.049.113a.353.353,0,0,0-.032.119.45.45,0,0,0-.107.1l-.055.063,0,.051-.048.022a.236.236,0,0,0-.126.208c-.105.17-.21.267-.3.271a2.938,2.938,0,0,0-.75.182l-.142.053.008.152a.319.319,0,0,1-.077.2.911.911,0,0,0-.578.366.968.968,0,0,0-.449.257l-.239.271-.079.158-.023.026c-.291.265-.366.384-.386.471a1.757,1.757,0,0,1-.075.2l0,.012a.249.249,0,0,0-.057.1q-.625.579-1,.91l-.639.554-.36.307a2.251,2.251,0,0,0-.235.229,1.607,1.607,0,0,0-.414.3.546.546,0,0,1-.34.166l-.091.028c-.051.03-.063.024-.067.024a.393.393,0,0,0-.4.146.363.363,0,0,0-.19.21c-.012.014-.03.038-.063.077l-.4.394c-.491.376-1.157.835-1.98,1.371a6.476,6.476,0,0,1-2.243.983l-.414.026a.531.531,0,0,1-.309-.077l-.052-.028-.063,0a1.672,1.672,0,0,0-.5.107c-.077.03-.095.01-.115-.008l-.057-.034c-.067-.028-.2-.139-.346-.554-.131-.374-.224-.643-.279-.819a5.376,5.376,0,0,1-.322-1.678c-.018-.568-.01-1.246.024-2.077l0-.849a1.321,1.321,0,0,0,.049-.386c0-.016,0-.079.093-.237.039-.093.077-.2.115-.311a.348.348,0,0,0,.012-.224,2.517,2.517,0,0,0,.215-.89c.04-.457.089-.853.148-1.217a2.756,2.756,0,0,0,.012-.932.836.836,0,0,0-.137-.56.958.958,0,0,1-.15-.247.3.3,0,0,0-.275-.21.453.453,0,0,0-.049-.129l-.077-.135-.152.04a1.08,1.08,0,0,1-.485.034,2.238,2.238,0,0,1-.481-.148c-.174-.073-.328-.137-.461-.2a.756.756,0,0,0-.625.055,1.521,1.521,0,0,0-.787.386,1.649,1.649,0,0,1-.52.336l-.285.018a.506.506,0,0,0-.322.208.977.977,0,0,1-.229.19c-.518.455-1.047.886-1.569,1.276a18.007,18.007,0,0,0-1.531,1.29,17.454,17.454,0,0,0-1.436,1.389A18.577,18.577,0,0,1,888.5,135l-.449.449-.265.435-1.563,1.638c-.253.265-.5.532-.734.8a1.055,1.055,0,0,1,.063-.154c.079-.158.154-.326.231-.51l1.157-2.884q.452-.992.872-1.984a7.551,7.551,0,0,0,.528-2.133.316.316,0,0,0,.045-.022l.1-.107,0-.061.554-1.165.319-.977,2.186-5.9.012-.083a.1.1,0,0,1,0-.053.45.45,0,0,0,.1-.281l.221-.457a7.2,7.2,0,0,1,.232-.734,6.427,6.427,0,0,1,.3-.671l.018-.067a2.085,2.085,0,0,1,.142-.532l.222-.526.014-.093c-.012-.176,0-.243-.006-.243v0l.052-.059-.006-.087c0-.044-.01-.166.285-.273l.117-.042.014-.127a6.684,6.684,0,0,1,.342-1.515,15.066,15.066,0,0,1,.6-1.5,1.082,1.082,0,0,0,.075-.362l.025-.012a.435.435,0,0,0,.3-.073l.105-.063-.036-.556.487-.615.032-.059a8.85,8.85,0,0,1,.38-.9,6.082,6.082,0,0,1,.528-.878.115.115,0,0,1,.038-.061.5.5,0,0,0,.261-.279.706.706,0,0,0,.063-.309.267.267,0,0,1,.063-.093l.04-.045.008-.059a3.047,3.047,0,0,0,0-1.1,1.509,1.509,0,0,0-.473-.833.651.651,0,0,0-.372-.241.55.55,0,0,1-.249-.127l-.269-.233-.238.014a.578.578,0,0,1-.221-.117.691.691,0,0,0-.809-.053.079.079,0,0,1-.081.006l-.089-.014-.047,0a.389.389,0,0,0-.239-.046,1.179,1.179,0,0,0-.307-.014l-.239-.212-.065.35c-.1.514-.212,1.011-.346,1.476a7.305,7.305,0,0,1-.6,1.422,32.435,32.435,0,0,0-1.383,3.571q-.589,1.829-1.179,3.593l-.494,1.391c-.006.024-.024.091-.168.135l-.1.03-.032.1c-.04.119-.089.239-.129.36l-.063-.107a.251.251,0,0,1-.026-.154.416.416,0,0,0-.1-.392,2.193,2.193,0,0,0-1.448-.647,11.563,11.563,0,0,0-1.272-.018c-.538-.164-.6-.178-.692-.026l-.055.1-.02-.006-.042-.081a.788.788,0,0,0-.35.113l-.014-.02a.75.75,0,0,1-.374.024,1.751,1.751,0,0,0-.443-.042,2.074,2.074,0,0,0-1.278.093,1.807,1.807,0,0,1-1,.121l-.05-.008-.044.014a1.628,1.628,0,0,1-.265.075l-1.6.1a7.485,7.485,0,0,0-1.771.37c-.712.046-1.4.111-2.05.2-.562.073-1.149.166-1.755.271a1.123,1.123,0,0,1,.331-.617,2.763,2.763,0,0,0,.692-1.037,9.987,9.987,0,0,0,.429-1.009,5.948,5.948,0,0,1,.416-.912,4.541,4.541,0,0,1,.581-.987,3.252,3.252,0,0,0,.572-1.163l.006-.063a.327.327,0,0,1,.02-.129l.508-.449.052-.073a.954.954,0,0,0-.063-.924,2.642,2.642,0,0,0-.669-.688,3.6,3.6,0,0,0-.914-.483,4.351,4.351,0,0,0-.7-.2.4.4,0,0,0-.293-.17.131.131,0,0,1,.038.024l-.366-.172a.415.415,0,0,0-.528.1l-.057.065.022.344c-.8,1.448-1.618,2.952-2.5,4.594-.791,1.482-1.555,3.12-2.279,4.871a39.3,39.3,0,0,0-4.081.957c-1.076.334-1.961.643-2.71.948s-1.442.594-2.067.87a14.341,14.341,0,0,1-2.142.72l-.53-.346.026.4a1.216,1.216,0,0,0,.348.742.515.515,0,0,1,.125.508l-.024.091.053.077a1.5,1.5,0,0,0,.587.514,1.124,1.124,0,0,0,.932-.065h.016a1,1,0,0,0,.188.1l.065.014a2.067,2.067,0,0,0,1.149-.283,1.122,1.122,0,0,1,.771-.17l.056.016.057-.018c.514-.164.817-.269.934-.324a.984.984,0,0,0,.113-.057l.223-.014a7.963,7.963,0,0,0,.979-.194,4.849,4.849,0,0,0,.851-.255c.243-.1.534-.2.815-.3a2.562,2.562,0,0,0,.922-.233c.243-.111.506-.218.8-.326h0l.077.065a.443.443,0,0,0,.045.03,16.139,16.139,0,0,1-.791,2.281l-1.082,2.558-.372.768.131-.006a.985.985,0,0,1-.034.109c-.33.93-.635,1.891-.91,2.857-.14.487-.221.95-.33,1.428a2.4,2.4,0,0,1-.718.267l-.2.012.012.2a1.352,1.352,0,0,1-.014.222l0,.026a.8.8,0,0,0-.311.138.639.639,0,0,0-.582.291,3.134,3.134,0,0,1-.218.313,2.173,2.173,0,0,0-.57.408,4.231,4.231,0,0,1-.542.447,6.966,6.966,0,0,1-.74.607c-.261.184-.507.346-.754.489l-.048.04a1.008,1.008,0,0,0-.338.665v0l-.057-.051h0l-.152-.135a1.756,1.756,0,0,0-.131.168,2.282,2.282,0,0,0-.127.2.415.415,0,0,1-.251.186l-.152.049.01.158a.148.148,0,0,1-.093.172.21.21,0,0,1-.222,0l-.328-.194.018.277-.081-.034-.081.186a.677.677,0,0,0-.065.293.885.885,0,0,0-.948.3,1.726,1.726,0,0,1-.829.5.443.443,0,0,0-.514.069l-.176.208a9,9,0,0,1-1.143.732,4.785,4.785,0,0,1-.928.368,4.258,4.258,0,0,1-1,.123c-.366,0-.817-.018-1.343-.065a3.282,3.282,0,0,1-.829-1.721,13.936,13.936,0,0,1-.265-4.21l0-.1-.073-.065c-.044-.038-.046-.174.073-.439.109-.241.18-.419.121-.544a4.173,4.173,0,0,0,.223-1.452c0-.619.01-1.134.03-1.529l0-.069-.038-.057a1.766,1.766,0,0,1-.269-.558.479.479,0,0,0-.406-.394l-.008-.127-.2.012a1.907,1.907,0,0,1-1.058-.188,1.945,1.945,0,0,0-1.1-.247h-.01a1.8,1.8,0,0,0-.874.451,1.024,1.024,0,0,1-.653.285l-.073,0-.055.053a15.076,15.076,0,0,1-1.591,1.3A20.421,20.421,0,0,0,841.8,134a15.809,15.809,0,0,0-1.624,1.533,10.917,10.917,0,0,1-1.576,1.424l-.046.047c-.469.671-.971,1.4-1.5,2.18q-.452.667-.908,1.278.234-.795.524-1.731c.23-.74.435-1.393.609-1.953.305-.874.591-1.654.869-2.388a6.849,6.849,0,0,0,.433-2.57v-.091l-.069-.059a3.843,3.843,0,0,0-.321-.249.614.614,0,0,1-.18-.174l-.036-.069-.075-.024a7,7,0,0,0-1.146-.324,5.321,5.321,0,0,1-.815-.2l-.091-.026-.077.051c-.289.188-.514.229-.663.125l-.235-.162-.077.275c-.556,2-1.205,4.012-1.921,5.97-.123.342-.219.722-.334,1.076l-.283.322c-.087.057-.22.156-.421.313s-.421.34-.641.524-.439.358-.639.52a3.432,3.432,0,0,0-.372.317c-.552.5-.977.853-1.262,1.064s-.625.479-1.074.855l-1.571.855c-.152-.1-.334.038-.421.105l-.815.443a14.387,14.387,0,0,1-1.776.936,9.133,9.133,0,0,1-1.375.528c-.4.111-.827.22-1.31.344a7.505,7.505,0,0,1-4.382.21,3.814,3.814,0,0,1-1.488-.451,7.035,7.035,0,0,1-1.205-.827,1.067,1.067,0,0,0-.279-.366c-.036-.032,0-.144.051-.237l.012-.026a2.5,2.5,0,0,0,1.652-.53,4.892,4.892,0,0,1,1.759-.851l.061-.014.041-.047a6.308,6.308,0,0,1,1.088-.969,6.7,6.7,0,0,0,1.155-1.033l.055-.063,0-.085a.225.225,0,0,1,.089-.218l.043-.045a1.745,1.745,0,0,1,.681-.56,1.987,1.987,0,0,0,.835-.752c.186-.255.394-.516.639-.8s.441-.5.6-.682l.034-.053a5.536,5.536,0,0,0,.2-.544.917.917,0,0,1,.172-.34,3.025,3.025,0,0,1,.477-.542,1.507,1.507,0,0,0,.433-.645.762.762,0,0,0,.061-.348.2.2,0,0,1,.063-.117l.03-.044a3.506,3.506,0,0,0,.313-.906,2.059,2.059,0,0,0-.093-.987l-.02-.067-.059-.04a.763.763,0,0,1-.338-.433.777.777,0,0,0-.617-.542,3.052,3.052,0,0,0-.936-.8,2.548,2.548,0,0,1-.851-.746l-.065-.093-.113.008a.937.937,0,0,0-.407.111l-.263.156a.732.732,0,0,1-.4.121,1.135,1.135,0,0,0-.584.18,4.713,4.713,0,0,0-.942.487,10.477,10.477,0,0,0-.963.7,6.07,6.07,0,0,1-.847.758,2.738,2.738,0,0,1-.683.552,3.13,3.13,0,0,0-.789.641,6.111,6.111,0,0,1-.692.789c-.2.182-.465.413-.787.69l-.9,1.365L811.05,137.8a5.657,5.657,0,0,0-.888,2.249c-.138.819-.237,1.474-.289,1.939a4,4,0,0,0-.073.983,4.069,4.069,0,0,0,.2.979c.1.249.2.516.305.807a4.224,4.224,0,0,0,.473.93,13.165,13.165,0,0,0,1.187,1.256,4.118,4.118,0,0,0,1.466.884,8.621,8.621,0,0,0,1.371.4c.425.081.876.152,1.341.206l.127-.014.071-.081a2.3,2.3,0,0,0,.432.115l.041.008.038-.01a4.459,4.459,0,0,1,1.343.042l.152.02.048-.111c.192.046.322.032.386-.028a.3.3,0,0,1,.105.044l.111.065.105-.073a.712.712,0,0,1,.473-.162,1.634,1.634,0,0,0,.37-.024.4.4,0,0,0,.172.127l.137.059.1-.111a.262.262,0,0,1,.253-.091.529.529,0,0,0,.479-.117.493.493,0,0,0,.493-.158c.037-.042.049-.042.1-.012l.123.073.109-.1a.976.976,0,0,1,.344-.21c.067-.014.146-.032.235-.057l.049.075.135-.008a1.374,1.374,0,0,0,.591-.156.8.8,0,0,1,.354-.1l.063-.014c.119-.047.261-.1.439-.154.13-.055.247-.1.35-.156s.15-.057.15-.059l.069-.016a11.525,11.525,0,0,0,2.33-1.325c.609-.467,1.26-.954,1.952-1.468l1.361-.995,1.039-.906.052-.051c-.071.37-.168.716-.231,1.092-.083.026-.273.121-.247.473a.977.977,0,0,1,.008.506,2.069,2.069,0,0,0-.065.675c.016.261.067,1.054.613,1.151.216.04.522.115.922.231a.311.311,0,0,0,.1.259l.043.036.055.012a5.034,5.034,0,0,0,1.308.115,5.866,5.866,0,0,0,.957-.129l.067-.028a2.194,2.194,0,0,0,.53-.491.716.716,0,0,1,.384-.249l.079-.02.041-.067a33.457,33.457,0,0,1,3.911-5.122c1.45-1.559,2.857-3.161,4.19-4.762a2.3,2.3,0,0,0,.89-.774,1.956,1.956,0,0,1,.475-.489c-.022,1.381-.024,2.578,0,3.559a15.768,15.768,0,0,0,.552,3.6l.067.18.168-.01c.029.131.073.285.128.459l.028.091.087.034a1.006,1.006,0,0,1,.514.562,1.735,1.735,0,0,0,.7.819l.055-.081a.285.285,0,0,0-.012.105l.008.119.107.051a12.252,12.252,0,0,0,1.634.613,6.623,6.623,0,0,0,1.848.273,2.916,2.916,0,0,0,1.632.413,2.589,2.589,0,0,0,1.361-.437l.024-.018.212.028a.478.478,0,0,0,.6-.417l.008-.04a.246.246,0,0,0,.21.089.481.481,0,0,0,.461-.158l.02-.02a.436.436,0,0,0,.044-.057c.093-.127.18-.235.255-.324l.136-.15-.012-.01a.324.324,0,0,0,.216-.093l.142-.109-.031-.055.022,0,.125-.008.049-.115a.672.672,0,0,1,.057-.115l.079.19.123-.188.04.142a.627.627,0,0,0,.7-.307,3.318,3.318,0,0,0,.148-.35.309.309,0,0,0,.1.055l.113.065a.292.292,0,0,0,.3-.01l.01-.008.1.087.111-.253a.3.3,0,0,0,.012-.241,2.216,2.216,0,0,1,.413-.2,1.039,1.039,0,0,0,.625-.5.407.407,0,0,0,.156-.111l.061.032.1.036.087-.049a2.166,2.166,0,0,0,.6-.6c.2-.267.384-.526.56-.772a4.922,4.922,0,0,1,.352-.443l.016.249,1.713-1.66c-.069.408-.138.783-.2,1.211a9.908,9.908,0,0,0-.095,2.621.369.369,0,0,0-.105.317,5.794,5.794,0,0,0,.224,1.416,2.15,2.15,0,0,0,.55.882,2.827,2.827,0,0,0,1.005.6,13.9,13.9,0,0,1,1.379.613,9.8,9.8,0,0,0,2.263.607,3.653,3.653,0,0,0,.754.03,3.321,3.321,0,0,0,1.371-.39,7.835,7.835,0,0,0,1.134-.332c.425-.158.805-.313,1.161-.475l1.557-.973.2-.012.049-.117,0,0,0,.053.2-.014a.92.92,0,0,0,.665-.328.939.939,0,0,1,.283-.22.555.555,0,0,0,.206.022l.01,0a.692.692,0,0,0,.423-.269,1.629,1.629,0,0,0,.1-.186c.018-.04.042-.091.073-.146a.465.465,0,0,1,.087-.079.933.933,0,0,0,.663-.326,1.433,1.433,0,0,1,.457-.336l.352-.338.012.022.14.245.186-.212a1.364,1.364,0,0,1,.127-.127.409.409,0,0,0,.178-.245,1.842,1.842,0,0,0,1.084-.973,1.98,1.98,0,0,1,.9-.934l.058-.028.033-.059a1.482,1.482,0,0,1,.517-.592l0,.02a1.189,1.189,0,0,0-.417.481l.237.2c-.156.566-.332,1.136-.449,1.693l-.13.224,0,.057a.183.183,0,0,0-.049.152l-.091.5-.158.524.008.326a1.816,1.816,0,0,0,.372,1.128l.049.038a1.332,1.332,0,0,0,.617.154,2.124,2.124,0,0,1,.494.079l.1.3.158-.01.077,0a.734.734,0,0,0,.374.036l.166-.014a1.512,1.512,0,0,1,.509-.061,1.585,1.585,0,0,0,.625-.093.705.705,0,0,0,.253-.247,1.244,1.244,0,0,1,.133-.18l.653-.411.065-.067a30.055,30.055,0,0,1,3.879-5.021c1.472-1.535,2.906-3.118,4.279-4.732a1.524,1.524,0,0,1,.261-.326c.109-.1.2-.2.277-.281a1.332,1.332,0,0,0,.526-.392c.2-.227.384-.445.546-.651a1.01,1.01,0,0,1,.322-.261,26.51,26.51,0,0,0-.3,3.634,10.824,10.824,0,0,0,.455,3.531l.036.115.119.02c.1.018.117.222.124.309l.006.081.061.057a2.317,2.317,0,0,1,.514.671,1.943,1.943,0,0,0,.619.746l.055.028.016.158.129.042.03.008a8.321,8.321,0,0,0,1.246.562,6.364,6.364,0,0,0,1.606.328,2.55,2.55,0,0,1,.578.028c.029,0,.045,0,.047,0a.346.346,0,0,0,.17.053,2.236,2.236,0,0,0,.991,0,10.12,10.12,0,0,0,1.29-.309,8.331,8.331,0,0,0,1.217-.473,2.626,2.626,0,0,0,.829-.578l.057-.063,0-.061.026.049.158-.01a.757.757,0,0,0,.7-.477.311.311,0,0,1,.089-.131l.016.255.261-.107a.836.836,0,0,0,.319-.2l.2-.235a.8.8,0,0,0,.133-.443.313.313,0,0,0-.02-.105.746.746,0,0,0,.056.055l.063.055.36-.022.034-.144a.6.6,0,0,0,.02-.182l.115-.006.055-.063a1.4,1.4,0,0,0,.239-.39l.006-.01.044.018.089-.059c.3-.192.546-.374.75-.538a6.684,6.684,0,0,0,.592-.532c.18-.182.366-.362.566-.544s.459-.384.809-.643a2.155,2.155,0,0,0,.293-.483.359.359,0,0,1,.027-.051l.075.067.133-.133.057-.057a10.482,10.482,0,0,0-.216,1.717,2.362,2.362,0,0,0-.138,1.407,2.515,2.515,0,0,0,.364.94.52.52,0,0,0,.164.57.849.849,0,0,1,.192.241l.014.063a3.2,3.2,0,0,0,1.612,1.741l.061.018a.914.914,0,0,1,.4.125c.113.081.261.178.443.3l.055.034.067,0a1.1,1.1,0,0,0,.15-.016l-.032.034.443.01q.637.012,1.231-.024a10.586,10.586,0,0,0,2.894-.564.8.8,0,0,0,.393-.214.2.2,0,0,0,.105-.012.33.33,0,0,0,.079-.045l.073.065.134-.154c.3-.34.489-.421.6-.429.275-.016.542-.241.835-.7a1.067,1.067,0,0,0,.243-.224.7.7,0,0,1,.2-.18l.111-.006.052-.1a6.116,6.116,0,0,1,.594-.9,3.539,3.539,0,0,0,.574-1.126l.01-.075,0-.03.032-.059c.115-.229.194-.384.235-.479a.3.3,0,0,1,.081-.117.947.947,0,0,0,.227-.257,4.85,4.85,0,0,0,.251-.445,2.881,2.881,0,0,1,1.1-.427c.586-.142,1.216-.275,1.943-.417a1.928,1.928,0,0,0,.623-.358,2.632,2.632,0,0,1,.4-.279,1.958,1.958,0,0,1,.576-.069.543.543,0,0,0,.453-.152q.482-.218.813-.394c.227-.121.461-.243.71-.364a2.726,2.726,0,0,0,.623-.4l2.156-1.193c-.21.845-.421,1.695-.558,2.53a11.17,11.17,0,0,0-.131,3.013l.006.055.034.044a2.845,2.845,0,0,1,.3.635,1.372,1.372,0,0,0,.611.773,1.6,1.6,0,0,0,.781.144,1.219,1.219,0,0,1,.639.144l.063.026a7.925,7.925,0,0,0,1.658.224,2.774,2.774,0,0,0,1.638-.526c.641-.5,1.329-1.064,2.045-1.67a13.14,13.14,0,0,0,1.9-1.984,2.768,2.768,0,0,0,1.041-1.244c.113-.091.239-.2.366-.326a1.628,1.628,0,0,0,.346-.485,1.744,1.744,0,0,0,.653-.811.673.673,0,0,1,.34-.423l.063-.03.032-.063c.15-.3.279-.552.394-.75.075-.127.164-.271.273-.427,0,.1-.008.2-.01.311-.014.471-.034.971-.065,1.5s-.038,1.07-.028,1.555a5.37,5.37,0,0,0,.1,1.1l.016.059.047.04c.006.006.024.069-.03.235l.218.125v.127a.153.153,0,0,1-.1-.032.536.536,0,0,1,.091.146,6.525,6.525,0,0,0,.429,1.031,2.031,2.031,0,0,0,.886.874l.071.03.091.156a.346.346,0,0,0,.293.281c.075.016.1.034.1.036l.055.034a3.811,3.811,0,0,0,1.616.4c.089,0,.178-.006.267-.01a6.548,6.548,0,0,0,1.141-.178,4.717,4.717,0,0,0,1.08-.4,12.12,12.12,0,0,0,1.163-.659c.372-.239.716-.479,1.025-.714s.556-.417.758-.556l.061-.057a.184.184,0,0,1-.15.01.124.124,0,0,1-.073-.085l.026-.02.328.071a1.029,1.029,0,0,1,.259-.366.958.958,0,0,0,.325-.493c.025-.028.043-.044.051-.055a.846.846,0,0,0,.18-.087l.051-.042c.083-.093.127-.111.121-.115a.944.944,0,0,0,.243.022.367.367,0,0,0,.259-.138,1.556,1.556,0,0,0,.184-.293.485.485,0,0,0,.192-.081l.061-.107c.1-.008.263-.067.271-.38.051-.044.142-.127.319-.273a1.468,1.468,0,0,0,.447-.485l.049-.111-.071-.091a.552.552,0,0,0,.133-.3,1.023,1.023,0,0,1,.047-.168l.186,0a3.514,3.514,0,0,1,.158-.342l.012-.022a.461.461,0,0,0,.144-.115l.1-.111.1-.057a1.807,1.807,0,0,0,.768-1.177,2.09,2.09,0,0,1,.186-.1l.226.1.049-.239c.069-.307.208-.315.267-.32a.972.972,0,0,0,.542-.164l.192-.012-.016-.283a1.331,1.331,0,0,0,.356-.4.442.442,0,0,0,.067.024.694.694,0,0,0,.487-.178,4.866,4.866,0,0,0,.778-.91,3.729,3.729,0,0,0,.732-.536,10.477,10.477,0,0,0,.853-.863l2.661-2.752a8.777,8.777,0,0,1,.669-.795c.139-.144.267-.279.382-.4a6.046,6.046,0,0,1,.57,2.061,9.32,9.32,0,0,1-.014,2.348,8.231,8.231,0,0,0-1.484.973,6.379,6.379,0,0,1-1.436.9l-.051.024-.032.049a1.75,1.75,0,0,1-.819.69,2.791,2.791,0,0,0-1.058.754,1.185,1.185,0,0,1-.14.144l-.071,0-.053.091a.594.594,0,0,1-.279.231.858.858,0,0,0-.421.449.318.318,0,0,0-.166.121l-.053,0-.054.093a1.008,1.008,0,0,0-.142.516l-.085.079a1.243,1.243,0,0,0-.536.552c-.051.1-.085.107-.085.107h0s-.026,0-.061-.026l-.257-.168-.053.3a1.448,1.448,0,0,1-.362.716l-.277-.168c-.061.1-.121.188-.184.273l0,0a.334.334,0,0,0-.049.067,3.252,3.252,0,0,1-.356.394,1.587,1.587,0,0,0-.451.772.589.589,0,0,0-.417.376.308.308,0,0,1-.142-.044l-.251-.129-.042.277a6.492,6.492,0,0,1-.245,1.041,1.338,1.338,0,0,1-.05.133l-.016-.259-.311.293a1.638,1.638,0,0,0-.374,1.276.526.526,0,0,0-.374.267,2.113,2.113,0,0,0-.154.4l-.006.067a.541.541,0,0,0,.073.291.291.291,0,0,0-.061.127.379.379,0,0,0,.162.354l.186.164.121-.214a.277.277,0,0,1,.032-.045l.034.008a.385.385,0,0,0,.15.245l.121.089.06-.032a.235.235,0,0,0,.091.055.281.281,0,0,0,.109.016,4.133,4.133,0,0,0,1.438,1.1,4.011,4.011,0,0,0,2.265.3.331.331,0,0,0,.257-.113,1.3,1.3,0,0,0,.617-.014,1.892,1.892,0,0,1,.257-.063l.008.117.2-.012a.247.247,0,0,0,.23-.226c.04-.014.083-.026.127-.044a.361.361,0,0,0,0,.044l.018.121.083.055a.32.32,0,0,0,.251.03l-.006.048.273-.089.047.049a6.86,6.86,0,0,0,2.251-1.432,24.036,24.036,0,0,0,1.723-1.889l.03-.051a.327.327,0,0,0,.02-.243c.16-.229.311-.461.449-.692a5.637,5.637,0,0,1,.6-.809l.117-.168-.079-.071a.327.327,0,0,0,.055-.121v-.01a.292.292,0,0,0,.119-.285.09.09,0,0,1-.071.063L969.7,137a.077.077,0,0,1,.012.063s.006-.018.042-.051a1.552,1.552,0,0,1,.269-.216l.212-.131-.212-.184a.258.258,0,0,1,.055-.051c.061-.042.239-.17.2-.36a.225.225,0,0,0-.018-.059,2.182,2.182,0,0,0,.406-.667c.111-.287.2-.542.275-.762l.043-.127-.077-.067c.008-.026.016-.053.022-.077.014-.051.093-.1.222-.133l.136-.034L971.3,134a2.5,2.5,0,0,1,.307-1.084,3.094,3.094,0,0,0,.36-1.411,2.185,2.185,0,0,1,.75-.684l1.031-.6,4.888-2.289a3.975,3.975,0,0,0,1.054-.473,2.5,2.5,0,0,1,.831-.315,5.67,5.67,0,0,0-.8,2.077c-.138.817-.237,1.474-.289,1.939a3.581,3.581,0,0,0,.129,1.962c.1.249.2.516.3.807a4.266,4.266,0,0,0,.475.93,13.182,13.182,0,0,0,1.187,1.256A4.116,4.116,0,0,0,983,137a8.713,8.713,0,0,0,1.373.4c.425.081.876.152,1.341.206l.127-.014.071-.081a2.306,2.306,0,0,0,.433.115l.038.006.041-.008a4.377,4.377,0,0,1,1.341.042l.154.02.047-.111c.2.047.324.032.386-.028a.3.3,0,0,1,.107.044l.109.065.107-.073a.716.716,0,0,1,.473-.162,1.633,1.633,0,0,0,.37-.024.414.414,0,0,0,.172.127l.135.059.1-.111a.253.253,0,0,1,.253-.091.53.53,0,0,0,.479-.117.493.493,0,0,0,.493-.16c.037-.04.049-.04.1-.012l.123.075.111-.1a.959.959,0,0,1,.344-.21c.065-.014.146-.032.235-.057l.049.075.133-.008a1.39,1.39,0,0,0,.593-.156.8.8,0,0,1,.354-.1l.063-.014c.119-.047.261-.1.439-.154.13-.055.247-.1.35-.156a1.494,1.494,0,0,1,.15-.059l.067-.016a11.522,11.522,0,0,0,2.33-1.325c.611-.467,1.262-.954,1.954-1.468l1.361-.995,1.039-.906.362-.344.045-.067a2.566,2.566,0,0,1,.435-.477,3.853,3.853,0,0,1,.5-.451l.054-.044a11.623,11.623,0,0,1,1.066-1.074c.164-.148.509-.453.5-.742.184-.137.318-.239.406-.3a1.077,1.077,0,0,0,.291-.293,3.945,3.945,0,0,0,.245-.459c.089-.188.251-.483.479-.878l.2-.326Zm-22.236,2.807c.352-.465.748-.95,1.2-1.47a3.851,3.851,0,0,1,1.025-1.1l.051-.053a4.369,4.369,0,0,1,.651-.807,4.728,4.728,0,0,0,.7-.859,3.352,3.352,0,0,1,.556-.415,2.479,2.479,0,0,0,.637-.54l.455-.394a1.962,1.962,0,0,0,.239-.156,2.078,2.078,0,0,1,.192-.127l.054-.024.029-.065a.288.288,0,0,1,.141-.032l.06,0,.049-.036c.125-.1.269-.212.437-.356s.3-.251.417-.34l.028-.028a.41.41,0,0,1,.231-.117c.065-.014.123-.024.176-.032a.309.309,0,0,1-.047.2,3.2,3.2,0,0,0-.241.58,12.1,12.1,0,0,1-1.134,1.49,6.111,6.111,0,0,1-1.2,1.1l-.063.063a3.793,3.793,0,0,1-.621.772l-.714.679q-1.159.971-2.19,1.871a7.5,7.5,0,0,1-1.7,1.122A6.307,6.307,0,0,1,982.909,128.906Zm-15.555,4.576a19.135,19.135,0,0,1-1.345,2.7,13.237,13.237,0,0,1-2.1,2.657l-.071.093.006.077a.34.34,0,0,0-.069.322c-.407.216-.8.423-1.187.619s-.782.376-1.2.552a.34.34,0,0,0-.1-.142,1.118,1.118,0,0,1,.388-.7,2.509,2.509,0,0,0,.7-.874l.135-.01.043-.129a.574.574,0,0,1,.366-.354l.135-.055-.01-.133a.307.307,0,0,0,.107-.245,9.621,9.621,0,0,0,.974-1.185,4.752,4.752,0,0,1,.977-1.045l.083-.071,0-.085a.269.269,0,0,0,.04-.087,10.153,10.153,0,0,0,1.355-1.153C966.818,133.976,967.081,133.727,967.354,133.482Zm-52.614,5.359a6.712,6.712,0,0,1,.083-1.2,1.663,1.663,0,0,1,.083-.546c.069-.239.14-.491.212-.76a2.17,2.17,0,0,1,.463-.969l-.049-.1.1-.051,0-.065a.622.622,0,0,1,.018-.2l.02-.024a4.945,4.945,0,0,0,.564-.6,1.734,1.734,0,0,1,.261-.279c.311.526.669,1.106,1.074,1.727a3.066,3.066,0,0,0,2.137,1.363,1.19,1.19,0,0,0,.629.1,3.122,3.122,0,0,1,.413,0l-.133.556a3.336,3.336,0,0,0-.68.754q-.2.334-.435.7a3.407,3.407,0,0,1-.681.736,11.128,11.128,0,0,1-1.569,1.045,1.717,1.717,0,0,1-.36.133,4.567,4.567,0,0,1-.576.127l-.6.1c-.176.034-.285.051-.287.053-.05-.006-.208-.026-.352-.358a3.5,3.5,0,0,1-.243-.983A11.688,11.688,0,0,1,914.74,138.841Zm4.249-7.3c.036-.206.034-.334-.071-.443l-.038-.024.012-.028a.2.2,0,0,1,.142-.075.429.429,0,0,0,.39-.267l.107-.287-.1,0c.127-.2.277-.406.447-.631q.385-.5.8-1.005c.285-.346.544-.643.795-.906a3.768,3.768,0,0,1,.507-.461c.087.075.212.287.271.876a12.132,12.132,0,0,1-.018,2.176c-.077.8-.184,1.612-.326,2.408-.125.714-.239,1.268-.332,1.65a1.031,1.031,0,0,1-.849-.208,3.968,3.968,0,0,1-.849-.892,5.373,5.373,0,0,1-.594-1.072C919.147,132.02,919.047,131.747,918.989,131.545Zm-36.367-9.638-.006.014,0-.014Zm-.016.04-.006.014.168.085a.519.519,0,0,0,.479.057.292.292,0,0,0,.111-.109h0a.672.672,0,0,0,.255-.087c.168-.091.194-.042.216-.01l.226-.071a.31.31,0,0,0,.275.085l.143-.01.192-.16a.886.886,0,0,0,.208.144.263.263,0,0,0,.21.008.27.27,0,0,0,.144-.131l.052.014a.48.48,0,0,0,.395-.022,1.271,1.271,0,0,1,.212.093l.1.053.1-.057a1.2,1.2,0,0,1,.724-.22,2.721,2.721,0,0,0,.8-.042.749.749,0,0,0,.287.04l.018,0c-.429,1.23-.847,2.461-1.312,3.676-.694,1.808-1.393,3.676-2.081,5.547-.309.821-.631,1.642-.948,2.463-.024.02-.034.032-.069.059-.079.032-.16.115-.162.322-.067.1-.115.172-.14.208a.27.27,0,0,0-.168.17.661.661,0,0,0-.049.21l-.121.14c-.079.093-.3.354-.655.783-.342.409-.74.861-1.219,1.385-.455.493-.906.948-1.343,1.355a2.681,2.681,0,0,1-.894.657l-.073.036c-.43.34-.867.667-1.31.973-.425.3-.811.582-1.155.841a.3.3,0,0,0-.125-.016l-.091.006-.055.071c-.293.368-.441.408-.473.386l-.338-.224.032.518a4.193,4.193,0,0,0-.451.218,1.855,1.855,0,0,0-.37.269,1.605,1.605,0,0,1-.326.218c-.141.071-.332.156-.574.255l-.105.04-.018.109c-.026.129-.069.14-.085.144a2.676,2.676,0,0,0-.4.129l-.136.091,0,.048a.753.753,0,0,0-.087.079c-.409.152-.849.338-1.314.556a14.626,14.626,0,0,1-1.412.574,6.479,6.479,0,0,1-1.274.485,8.756,8.756,0,0,1-1.359.245,1.714,1.714,0,0,1-.247-1.414,6.576,6.576,0,0,0,.247-1.828,5.394,5.394,0,0,1,.172-1.183q.149-.561.253-1.2c.135-1.132.3-2.293.481-3.45a9.289,9.289,0,0,1,.884-2.845l.018-.051c.1-.427.174-.728.225-.9a2.608,2.608,0,0,1,.15-.392,2.563,2.563,0,0,0,.182-.463c.052-.176.133-.461.232-.849a25.828,25.828,0,0,1,1.141-3.06,28.532,28.532,0,0,0,1.1-2.829c.075-.182.131-.328.17-.445.006-.018.038-.089.188-.18.2-.053.431-.107.688-.164a4.554,4.554,0,0,1,.7-.107l.061,0,.051-.036a.191.191,0,0,1,.081-.047.71.71,0,0,0,.451.109l.083-.006.055-.063a.728.728,0,0,1,.079-.073.29.29,0,0,0,.275-.3.392.392,0,0,0,.265-.026.488.488,0,0,0,.225-.239l.02,0a.344.344,0,0,0,.152.107l.02.083.156-.01.123.051,0-.059a4.677,4.677,0,0,0,.625-.073,3.712,3.712,0,0,1,.51-.063l.083-.006.055-.063a.636.636,0,0,0,.156-.419.257.257,0,0,0,.178.073l.069.063a.651.651,0,0,0,.777.121c.024-.012.047-.022.067-.034.1.127.242.079.445.014l-.024-.133.014-.018a2.294,2.294,0,0,1,.6-.17c.14-.02.17,0,.168.012l0,.063.036.049c.073.1.178.247.356.184l.15-.085-.006-.105v0a.375.375,0,0,0,.154.077l.176.032.022-.03a.7.7,0,0,0,.291-.026,3.577,3.577,0,0,0,.364-.125,1.022,1.022,0,0,0,.283-.156l.176.1.056-.129.039.034.063.057L881.9,122a.677.677,0,0,0,.307-.079l0,.049Zm-4.942,0-.014.006-.079.047a1.079,1.079,0,0,0,.1-.075Zm-19.532,20.7,0,0,.018,0,.04.01v.006A.421.421,0,0,0,858.131,142.647Zm-41.474-4.989q-1.159.971-2.19,1.871a7.462,7.462,0,0,1-1.7,1.122,6.149,6.149,0,0,1,.576-.918c.35-.465.746-.95,1.2-1.47a3.858,3.858,0,0,1,1.027-1.1l.049-.053a4.455,4.455,0,0,1,.651-.807,4.731,4.731,0,0,0,.7-.859,3.156,3.156,0,0,1,.558-.413,2.557,2.557,0,0,0,.635-.542l.457-.394a2.068,2.068,0,0,0,.237-.156,1.923,1.923,0,0,1,.194-.125l.053-.026.028-.065a.308.308,0,0,1,.141-.032l.063,0,.046-.036c.125-.1.269-.212.439-.356s.3-.251.415-.34l.028-.026a.418.418,0,0,1,.233-.119c.065-.014.123-.024.176-.032a.32.32,0,0,1-.047.2,3.062,3.062,0,0,0-.243.58,11.889,11.889,0,0,1-1.134,1.49,6.063,6.063,0,0,1-1.2,1.1l-.063.063a3.733,3.733,0,0,1-.621.773Zm82.276-4.414.014-.04.049.051C898.987,133.258,898.953,133.244,898.933,133.244Zm-10.586-12.926.065-.071-.036.105-.051-.014ZM849.4,135.367l.018-.051.075.059C849.482,135.383,849.435,135.369,849.4,135.367Zm-1.589,8.481.012-.018,0,0Zm.05-.073.067-.1a.117.117,0,0,1-.067.109Zm27.087.779,0-.075.069-.006A.1.1,0,0,1,874.949,144.554Z" transform="translate(-776.099 -101.117)"/></g></g></svg>