<svg id="Riveira-Fuga-Logo" xmlns="http://www.w3.org/2000/svg" width="213.553" height="69.307" viewBox="0 0 213.553 69.307">
  <path id="Path_1" data-name="Path 1" d="M0,0V26.429H5.578V14.017H17.189V11.436H5.578V2.58H18.619V0Z" transform="translate(45.051 42.515)" fill="#215584"/>
  <g id="Group_2" data-name="Group 2" transform="translate(77.739 42.288)">
    <path id="Path_2" data-name="Path 2" d="M0-18.078v-16.7H5.579v16.353c0,6.1,2.44,7.81,7.008,7.81,5.474,0,7.322-3,7.322-8.507V-34.78h2.824v16.213C22.733-11.279,19-7.9,11.122-7.9,4.045-7.9,0-10.966,0-18.078" transform="translate(0 34.78)" fill="#215584"/>
  </g>
  <path id="Path_4" data-name="Path 4" d="M-11.7,0-22.509,26.429h3.033l3.7-9.1h9.972l3.73,9.1H3.851L-6.993,0Zm.871,5.09,3.976,9.658h-7.88Z" transform="translate(172.654 42.515)" fill="#215584"/>
  <g id="Group_5" data-name="Group 5" transform="translate(113.867 42.152)">
    <path id="Path_5" data-name="Path 5" d="M-21.152-16.559H-15.6V-6.347A34.286,34.286,0,0,1-25.573-4.7c-9.086,0-15.12-5.451-15.12-13.577s6.1-13.578,15.326-13.578a27.238,27.238,0,0,1,8.126,1.2l.509,7.289h-1.542l-1.846-3.894c-1.567-2.481-3.566-2.366-5.52-2.366-4.457,0-8.879,2.159-8.879,10.217,0,6.961,2.742,12.378,9.428,12.378a20.588,20.588,0,0,0,4.012-.377Z" transform="translate(40.693 31.856)" fill="#215584"/>
  </g>
  <g id="Group_6" data-name="Group 6" transform="translate(0 0.001)">
    <path id="Path_6" data-name="Path 6" d="M-5.825-2.567h2.59c3.766,0,5.414,1.779,5.414,4.673S.531,6.78-3.235,6.78h-2.59Zm0,11.754h1.514L5.543,21.5h6.795L1.641,8.281c4.81-.908,6.492-3.836,6.492-6.627C8.133-2.915,4-4.938-2.731-4.938h-8.476V15.5a32.993,32.993,0,0,1,5.382,2.524Z" transform="translate(11.207 4.938)" fill="#215584"/>
  </g>
  <path id="Path_8" data-name="Path 8" d="M86.766-117.89h5.382v-26.437H86.766Z" transform="translate(-45.1 144.327)" fill="#215584"/>
  <g id="Group_8" data-name="Group 8" transform="translate(61.647 0)">
    <path id="Path_9" data-name="Path 9" d="M-27.307,0H-30.3l-8.174,19.217L-46.648,0h-5.887l9.781,22.878a32.593,32.593,0,0,1,6.983-3.02Z" transform="translate(52.535)" fill="#215584"/>
  </g>
  <g id="Group_9" data-name="Group 9" transform="translate(101.475 0)">
    <path id="Path_10" data-name="Path 10" d="M-5.826,0h-5.382V20.366a32.808,32.808,0,0,1,5.382,2.48Z" transform="translate(11.208)" fill="#215584"/>
  </g>
  <path id="Path_12" data-name="Path 12" d="M0,0V26.437H17.491v-2.58H5.382V14.021H15.439V11.44H5.382V2.582H17.491V0Z" transform="translate(124.687 0)" fill="#215584"/>
  <g id="Group_12" data-name="Group 12" transform="translate(158.46 0.001)">
    <path id="Path_13" data-name="Path 13" d="M-5.826-2.567h2.59c3.767,0,5.415,1.779,5.415,4.673S.531,6.78-3.236,6.78h-2.59Zm0,11.754h1.514L1.67,16.661a32.194,32.194,0,0,1,5.195-1.925L1.641,8.281c4.81-.908,6.491-3.836,6.491-6.627C8.132-2.915,4-4.938-2.731-4.938h-8.477V21.5h5.245l.137-.109Z" transform="translate(11.208 4.938)" fill="#215584"/>
  </g>
  <g id="Group_13" data-name="Group 13" transform="translate(190.915 0.001)">
    <path id="Path_14" data-name="Path 14" d="M-9.176-5.512l3.834,9.661h-7.6ZM-13.953,6.729h9.62l3.6,9.1H4.984L-5.477-10.6h-4.541L-17.654,8.758q1.361.323,2.618.737Z" transform="translate(17.654 10.604)" fill="#215584"/>
  </g>
</svg>
