<svg xmlns="http://www.w3.org/2000/svg" width="6.907" height="17.168" viewBox="0 0 6.907 17.168"><defs><style>.a{fill:#397674;}</style></defs><path class="a" d="M-19.366,12.014A4.542,4.542,0,0,0-16.784,8.6c.307-2.04-.668-5.163-.957-6.048a.1.1,0,0,0-.09-.054h-4.694c-.036,0-.09.036-.09.072-.307.867-1.264,3.99-.957,6.03a4.491,4.491,0,0,0,2.563,3.412.662.662,0,0,1,.415.56l-.108,5.759a.333.333,0,0,1-.09.217,3.458,3.458,0,0,1-2.04.812.231.231,0,0,0-.2.217h0a.083.083,0,0,0,.072.09h5.452a.083.083,0,0,0,.072-.09h0a.231.231,0,0,0-.2-.217,3.458,3.458,0,0,1-2.04-.812.3.3,0,0,1-.09-.217l-.108-5.759A1.1,1.1,0,0,1-19.366,12.014Z" transform="translate(23.632 -2.5)"/></svg>