<svg xmlns="http://www.w3.org/2000/svg" width="8.233" height="31.421" viewBox="0 0 8.233 31.421"><defs><style>.a{fill:#397674;}</style></defs><path class="a" d="M7,31.421l-5.843-.007a1,1,0,0,1-1-.991L0,11.987c.057-2.057,2.714-3,2.716-4.272L2.719,6l.007-4.235H2.65a.191.191,0,0,1-.191-.192V.882A.192.192,0,0,1,2.652.691h.076V.163l0-.005,0-.005V.147l0,0h0l0-.006,0,0h0l0-.005h0l.011-.02A.238.238,0,0,1,2.881.015l.005,0h0l.006,0,.005,0h.011l.006,0h.046L5.2,0h.035l.009,0,.017,0a.349.349,0,0,1,.264.222l0,.008A.374.374,0,0,1,5.54.307V.7h.077A.191.191,0,0,1,5.81.887v.689a.192.192,0,0,1-.191.192H5.54L5.533,6l0,1.716c0,1.315,2.732,2.156,2.7,4.278L8,30.433a1,1,0,0,1-1,.988Z"/></svg>