<svg xmlns="http://www.w3.org/2000/svg" width="36" height="36" viewBox="0 0 36 36"><defs><style>.a,.d{fill:none;}.a{stroke:#254f5a;}.b{fill:#13505c;}.c{stroke:none;}</style></defs><g transform="translate(-26 -29)"><g class="a" transform="translate(26 29)"><circle class="c" cx="18" cy="18" r="18"/><circle class="d" cx="18" cy="18" r="17.5"/></g><path class="b" d="M7.667,11.315a13.252,13.252,0,0,0,5.765,5.765l1.925-1.925a.87.87,0,0,1,.892-.21,9.979,9.979,0,0,0,3.123.5.877.877,0,0,1,.875.875v3.053a.877.877,0,0,1-.875.875A14.87,14.87,0,0,1,4.5,5.375.877.877,0,0,1,5.375,4.5H8.437a.877.877,0,0,1,.875.875A9.938,9.938,0,0,0,9.81,8.5a.878.878,0,0,1-.219.892L7.667,11.315Z" transform="translate(31.627 34.627)"/></g></svg>