<svg xmlns="http://www.w3.org/2000/svg" width="36" height="37" viewBox="0 0 36 37"><defs><style>.a{fill:#13505c;fill-rule:evenodd;}.b,.d{fill:none;}.b{stroke:#12505b;}.c{stroke:none;}</style></defs><g transform="translate(-12 -7.117)"><g transform="translate(12 7)"><path class="a" d="M7.45,1.324a22.842,22.842,0,0,1,2.98.083,3.839,3.839,0,0,1,1.407.248,2.907,2.907,0,0,1,1.407,1.407,3.839,3.839,0,0,1,.248,1.407c0,.745.083.993.083,2.98a22.842,22.842,0,0,1-.083,2.98,3.839,3.839,0,0,1-.248,1.407,2.907,2.907,0,0,1-1.407,1.407,3.839,3.839,0,0,1-1.407.248c-.745,0-.993.083-2.98.083a22.842,22.842,0,0,1-2.98-.083,3.839,3.839,0,0,1-1.407-.248,2.907,2.907,0,0,1-1.407-1.407,3.839,3.839,0,0,1-.248-1.407c0-.745-.083-.993-.083-2.98a22.842,22.842,0,0,1,.083-2.98,3.839,3.839,0,0,1,.248-1.407,2.973,2.973,0,0,1,.579-.828,1.4,1.4,0,0,1,.828-.579A3.839,3.839,0,0,1,4.47,1.407a22.842,22.842,0,0,1,2.98-.083M7.45,0A24.457,24.457,0,0,0,4.387.083,5.11,5.11,0,0,0,2.566.414a3.24,3.24,0,0,0-1.324.828A3.24,3.24,0,0,0,.414,2.566,3.771,3.771,0,0,0,.083,4.387,24.457,24.457,0,0,0,0,7.45a24.457,24.457,0,0,0,.083,3.063,5.11,5.11,0,0,0,.331,1.821,3.24,3.24,0,0,0,.828,1.324,3.24,3.24,0,0,0,1.324.828,5.11,5.11,0,0,0,1.821.331A24.457,24.457,0,0,0,7.45,14.9a24.457,24.457,0,0,0,3.063-.083,5.11,5.11,0,0,0,1.821-.331,3.473,3.473,0,0,0,2.152-2.152,5.11,5.11,0,0,0,.331-1.821c0-.828.083-1.076.083-3.063a24.457,24.457,0,0,0-.083-3.063,5.11,5.11,0,0,0-.331-1.821,3.24,3.24,0,0,0-.828-1.324A3.24,3.24,0,0,0,12.333.414,5.11,5.11,0,0,0,10.512.083,24.457,24.457,0,0,0,7.45,0m0,3.642A3.746,3.746,0,0,0,3.642,7.45,3.808,3.808,0,1,0,7.45,3.642m0,6.291A2.439,2.439,0,0,1,4.966,7.45,2.439,2.439,0,0,1,7.45,4.966,2.439,2.439,0,0,1,9.933,7.45,2.439,2.439,0,0,1,7.45,9.933m3.973-7.367a.91.91,0,1,0,.91.91.919.919,0,0,0-.91-.91" transform="translate(10.547 11.671)"/><g class="b" transform="translate(0 0.117)"><ellipse class="c" cx="18" cy="18.5" rx="18" ry="18.5"/><ellipse class="d" cx="18" cy="18.5" rx="17.5" ry="18"/></g></g></g></svg>