<svg xmlns="http://www.w3.org/2000/svg" width="13.621" height="13.618" viewBox="0 0 13.621 13.618">
  <g id="Group_277" data-name="Group 277" transform="translate(0 0)">
    <g id="Group_246" data-name="Group 246" transform="translate(0 0)">
      <path id="Path_10327" data-name="Path 10327" d="M2.25-3.692A6.813,6.813,0,0,1,9.06-10.5a6.813,6.813,0,0,1,6.81,6.809A6.813,6.813,0,0,1,9.06,3.117,6.813,6.813,0,0,1,2.25-3.692ZM7.3-.023a3.475,3.475,0,0,1,.4-1.616c.017-.033.033-.066.051-.1a1.7,1.7,0,0,0,2.131,1.3c3-.358,2.629-4.592,2.421-6.825C9.275-7.873,4.688-6.18,5.564-3.322A2.941,2.941,0,0,0,6.964-2.1c-.013.026-.026.053-.04.078A4.32,4.32,0,0,0,6.431.015.435.435,0,0,0,6.883.43.435.435,0,0,0,7.3-.023Zm.14-2.02a.309.309,0,0,1-.183-.395,8.287,8.287,0,0,1,3.683-3.891c.345-.215.733-.4,1.094-.584-.759.678-1.538,1.33-2.268,2.042A7.149,7.149,0,0,0,7.832-2.226.309.309,0,0,1,7.438-2.043Z" transform="translate(-2.25 10.501)" fill="#215584" fill-rule="evenodd"/>
    </g>
  </g>
</svg>
