<svg xmlns="http://www.w3.org/2000/svg" width="11.379" height="14.464" viewBox="0 0 11.379 14.464">
  <g id="Group_278" data-name="Group 278" transform="translate(0)">
    <g id="Group_244" data-name="Group 244" transform="translate(0)">
      <path id="Path_10326" data-name="Path 10326" d="M15.459,17.759a4.827,4.827,0,0,0,4.416,1.672,6.372,6.372,0,0,1-1.936-1.23,3.232,3.232,0,0,1-1.008-2.019,7.754,7.754,0,0,0,2.061.656c.449-.872-.068-1.939-.132-2.918a4.84,4.84,0,0,1,1.194-3.235,12.585,12.585,0,0,1,1.4,1.9,3.019,3.019,0,0,1,.338,1.893,8.983,8.983,0,0,1-.5,1.889,3.329,3.329,0,0,0,2.161-2.175,3.668,3.668,0,0,1-1.915,5.218,5.854,5.854,0,0,0,3.212-.834,3.005,3.005,0,0,0,1.175-2.656c-.078-.786-.468-1.515-.543-2.3a2.958,2.958,0,0,1,.29-1.572,2.878,2.878,0,0,1,.307-.494,3.019,3.019,0,0,0-2.168,1.3,4.471,4.471,0,0,0-1.134-4.184,2.214,2.214,0,0,1-.7,1.7,5.047,5.047,0,0,0-2.915-5.144A2.348,2.348,0,0,0,18.2,5a2.913,2.913,0,0,1,.86,2.238c-.092,1.44-1.211,2.565-1.979,3.787A5.163,5.163,0,0,1,16.555,9.8a4.094,4.094,0,0,0-.7,2.573,3.618,3.618,0,0,0,1.023,2.283,3.165,3.165,0,0,1-1.92-1.462c-.131-.189-.282-.452-.285-.238,0,.265-.041.533-.056.8a10.609,10.609,0,0,0,.013,1.633A4.811,4.811,0,0,0,15.459,17.759Z" transform="translate(-14.597 -4.999)" fill="#215584"/>
    </g>
  </g>
</svg>
