<svg xmlns="http://www.w3.org/2000/svg" width="301.999" height="149.616" viewBox="0 0 301.999 149.616"><defs><style>.a{fill:#f8eeec;opacity:0.904;}</style></defs><path class="a" d="M294.647,4.806c-1.341.009-3.353,0-5.029.027l-3.016.086c-1.074-.638-.483-1.376.139-2.085-17.431.042-34.862,1.1-52.2,2.818l-4.064.433c-1.354.136-2.7.326-4.049.485l-8.073.983c-2.683.341-5.354.724-8.024,1.075s-5.335.7-7.982,1.1l-7.937,1.137-7.883,1.19c-5.249.757-10.445,1.617-15.627,2.388,21.116-3.516,42.307-6.719,63.639-8.8,17.359-1.886,35-3.207,52.74-3.483.574-.821.411-1.537-3.493-1.913a42.1,42.1,0,0,0-6.28-.246c-2.708.088-5.921.278-9.3.5l-2.561.171L263.06.909l-5.142.45-4.89.4c-1.558.143-3.032.263-4.383.349-14.876.71-30.35,2.481-45.719,4.763s-30.65,5.049-45.26,7.666q-15.914,2.935-31.612,6.818c-5.239,1.257-10.441,2.631-15.653,3.981L94.857,29.481c-14.223,3.938-29.251,7.646-43.563,11.633-7.156,1.991-14.132,4.049-20.732,6.2-1.652.529-3.275,1.089-4.877,1.634l-2.3.791c-.645.228-1.372.454-2.09.683-2.939.911-6.109,1.846-9.21,3.02a35.228,35.228,0,0,0-7.026,3.559A16.544,16.544,0,0,0,.944,60.827a8.46,8.46,0,0,0-.863,1.551l-.056.151a1.146,1.146,0,0,0-.015.116A1.79,1.79,0,0,0,0,62.856a1.1,1.1,0,0,0,.057.348c.141.4.541.539,1.169.433a10.213,10.213,0,0,0,1.333-.479l.392-.17.425-.15q.437-.158.916-.347a42.892,42.892,0,0,1,4.591-1.356c1.768-.423,3.768-.815,5.989-1.2s4.664-.773,7.309-1.268l.355,1.307c-2.62.618-4.7,1.16-6.344,1.692a23.082,23.082,0,0,0-3.719,1.506,7.49,7.49,0,0,0-1.069.658,4.437,4.437,0,0,0-.657.567,1.154,1.154,0,0,0-.356.9c.078.5.654.85,1.1,1.241s.77.821.474,1.433l.356-.17.385-.158.769-.319c.546-.2,1.074-.4,1.643-.591s1.13-.375,1.73-.546l.887-.261.912-.249c2.444-.664,5.025-1.228,7.831-1.935l4.049-1.084c1.284-.337,2.565-.678,3.858-.987,2.582-.626,5.174-1.215,7.787-1.735,1.266-.389,3.172-.959,5.081-1.52s3.818-1.12,5.092-1.487c8.361-2.412,16.7-4.693,25.016-6.9-.321.148-.642.3-.95.449l-.233.08c-2.713.907-5.382,1.864-8.06,2.8s-5.326,1.892-7.945,2.854C54.93,58.132,49.834,60.1,45.034,62.142c-2.4,1.019-4.727,2.053-6.959,3.108-1.117.524-2.209,1.058-3.277,1.591l-.888.448c-.331.166-.617.326-.915.488s-.558.316-.836.474l-.766.454c-1.713,1.066-2.718,1.769-3.408,2.272a7.421,7.421,0,0,0-1.35,1.221,3.577,3.577,0,0,0-.369.533l-.037.069-.07.067a1.583,1.583,0,0,0-.122.135,1.115,1.115,0,0,0-.167.275,1.061,1.061,0,0,0,.339,1.158,2.454,2.454,0,0,0,.521.573,3.408,3.408,0,0,0,.9.473,6.916,6.916,0,0,0,3.017.259A23.674,23.674,0,0,0,35,74.75c.813-.243,1.665-.509,2.556-.758s1.826-.524,2.788-.821l.031.073c-4.181,1.4-8.247,2.813-12.137,4.244q-3.9,1.429-7.542,2.88L17.257,81.73c-1.172.463-2.374.944-3.585,1.476A32.293,32.293,0,0,0,8.251,86.2,14.435,14.435,0,0,0,5.176,89a5.3,5.3,0,0,0-.652,1.088,1.232,1.232,0,0,0-.064.726c.094.4.433.628.99.7a11.163,11.163,0,0,0,2.52-.282c1.058-.188,2.314-.453,3.753-.725l4.844-.886c1.786-.328,3.743-.681,5.852-1.194l.447,1.278c-2.092.638-3.745,1.15-5.049,1.643a18.461,18.461,0,0,0-2.941,1.35c-1.368.827-1.684,1.454-1.59,1.941s.609.868,1.024,1.283.728.85.5,1.418a46.479,46.479,0,0,1,5.423-2.016l6.248-1.915c4.106-1.24,8.253-2.347,12.45-3.266,1.439-.5,3.906-1.349,5.933-2.039-1.742,1.769-2.261,3.359.337,3.816l-.692.255-1.14.423-1.124.447-4.428,1.784c-2.914,1.187-5.747,2.367-8.477,3.543l-2.028.881-1.97.924q-1.949.924-3.81,1.844c-4.4,2.215-7.146,3.968-8.505,5.258s-1.319,2.126-.175,2.478,3.439.264,6.589-.3c1.575-.281,3.368-.677,5.345-1.189q1.484-.384,3.1-.855c1.081-.308,2.192-.675,3.366-1.009l.509,1.255c-1.149.393-2.163.817-3.087,1.185s-1.742.722-2.472,1.046a34.01,34.01,0,0,0-3.36,1.672c-1.614.948-2.081,1.592-2.03,2.1.1,1.012,2.268,1.48,1.489,2.726.181-.076.363-.15.545-.226a1.19,1.19,0,0,0,.834.482A7.9,7.9,0,0,0,26.2,116.6c.539-.077,1.135-.188,1.782-.331s1.338-.337,2.1-.508c1.522-.359,3.227-.867,5.117-1.447q1.43-.41,2.982-.905l1.579-.518c.536-.178,1.093-.338,1.652-.519l.532,1.245a41.632,41.632,0,0,0-8.389,4.052c-1.476,1.015-1.865,1.67-1.768,2.166.2.988,2.3,1.359,1.681,2.614,2.017-.99,4-2.023,6.1-2.884,1.039-.443,2.07-.9,3.121-1.313l3.188-1.187,1.6-.575,1.627-.523q1.628-.517,3.262-1.008c1.1-.308,2.209-.6,3.315-.882s2.213-.564,3.343-.795l4.336-1.438,4.374-1.368c2.548-.775,5.1-1.516,7.663-2.241-8.866,3.746-17.652,7.614-26.517,11.253a74.981,74.981,0,0,0-11.978,6.662c8.9-3.005,17.913-6.594,27.072-10.389l13.861-5.753c2.347-.944,4.672-1.927,7.043-2.855l3.546-1.413L92,104.366l1.789-.688,1.805-.663,1.429-.524,2.7-.687-.277.089c-5.753,1.971-11.27,4.1-16.62,6.291s-10.516,4.454-15.6,6.673-10.078,4.4-15.057,6.486c-4.979,2.065-9.944,4.03-14.951,5.8-1.085.378-2.188.724-3.286,1.087-1.253.914-2.365,1.778-3.369,2.512-1.9,1.617-3.212,3.2-2.865,4.152.333.912,2.231,1.268,6.652.459-4.207,1.95-6.9,3.468-8.27,4.649-1.4,1.208-1.453,2.035-.327,2.473,1.111.433,3.369.467,6.54.076,1.579-.214,3.385-.537,5.386-.97s4.183-1.016,6.535-1.693l.493,1.261c-2.309.8-4.168,1.494-5.657,2.1A34.912,34.912,0,0,0,35.6,144.8c-1.667.887-2.17,1.518-2.148,2.023.046,1.024,2.215,1.574,1.355,2.8,9.254-3.4,18.489-6.746,27.916-9.493l9.015-3.682c13.189-5.394,26.078-10.59,39-14.972,1.617-.535,3.228-1.1,4.846-1.608l4.849-1.526,9.853-2.905c3.286-.942,6.583-1.829,9.867-2.744,1.64-.466,3.292-.882,4.941-1.307l4.945-1.274a558.232,558.232,0,0,1,80.4-14.37c-2.205.194-4.4.452-6.582.675-2.184.24-4.366.443-6.533.716l-6.483.822-3.229.413-3.214.469L198,99.783l-1.6.239-1.593.268-3.183.539-6.358,1.085-6.33,1.208c-16.871,3.263-33.614,7.295-50.655,12.367.2-.284.853-.763-.432-.578a353.156,353.156,0,0,1,51.483-12.772c2.152-.38,4.3-.78,6.457-1.143l6.479-1.043c4.316-.737,8.666-1.31,13.018-1.986l13.141-1.879q3.309-.429,6.636-.894c2.219-.309,4.443-.651,6.683-.929.036.334.109,1,.147,1.337q18.937-1.891,38.336-2.2c1.343-.057,2.636-.163,3.882-.278s2.445-.235,3.6-.392c2.3-.313,4.417-.723,6.347-1.169l-7.234-.239c-1.213-.03-2.43-.08-3.649-.086l-3.668-.009c-2.451,0-4.916,0-7.389.032l-7.448.221c-1.246.045-2.5.072-3.745.138l-3.753.212c-2.505.15-5.02.283-7.538.466-5.028.429-10.09.795-15.142,1.386C214.367,94.718,204.243,96.2,194.18,97.8l-7.527,1.28-1.879.321-1.871.352-3.739.7c-4.988.9-9.925,1.942-14.845,2.927l6.3-1.385,3.216-.713,3.262-.666,6.6-1.344c2.213-.448,4.449-.828,6.678-1.24l3.347-.6c1.115-.2,2.228-.4,3.345-.566l6.659-1.01,3.294-.474,3.27-.392q3.251-.38,6.412-.7c12.019-1.263,23.434-2.358,34.572-3.1,11.141-.661,22-1,32.845-.666,1.172.031,2.354.123,3.535.184,1.533-.391,2.912-.783,4.142-1.13,4.806-1.706,7.315-4.083-2.445-5.75l-4.571.012-2.741.065c-.974-.646-.435-1.379.132-2.084-15.835-.074-31.688.625-47.483,1.937-1.36.133-2.721.257-4.079.384l.638-.1c1.147-.1,2.294-.189,3.441-.289,15.814-1.476,31.862-2.436,47.976-2.6.524-.816.377-1.534-3.167-1.937a36.063,36.063,0,0,0-5.7-.3c-1.278.019-2.68.073-4.161.144l1.561-.2,1.207-.165c.422-.056.809-.121,1.2-.185,3.114-.52,5.718-1.105,8.068-1.518,4.152-.785,6.15-.968,7.367-1.337a3.276,3.276,0,0,0,.764-.308l.079-.047.1-.036a1.8,1.8,0,0,0,.181-.081,1.1,1.1,0,0,0,.276-.2c.292-.294.278-.711-.015-1.228A3.891,3.891,0,0,0,289,72.185a10.484,10.484,0,0,0-3.395-1.437,24.706,24.706,0,0,0-5.246-.667c-.368-.013-.752-.015-1.136-.017q2.09-.84,3.754-1.588a15.845,15.845,0,0,0,2.447-1.535,1.171,1.171,0,0,0,.666-.589c0-.009,0-.019.006-.028.887-.966.842-1.847-.8-2.452a.844.844,0,0,1,.506-.618l-.552-.012-.535.009-1.07.019c-.3.018-.608.032-.914.046-.814-.1-1.765-.181-2.877-.226l-4.359.562-2.619.314c-1-.554-.552-1.333-.085-2.085-15.049,1.437-30.2,2.369-45.4,3.724-4.753.461-9.5.99-14.22,1.532-2.362.3-4.721.561-7.074.888l-3.523.467-3.486.482Q185.158,70.891,171.5,72.71q13.916-2.052,27.835-3.947l3.48-.475,3.512-.453c2.341-.317,4.684-.559,7.025-.843,4.682-.5,9.362-.984,14.035-1.387,15.221-1.52,30.555-2.708,45.8-4.426.413-.86.192-1.557-3.183-1.646-2.374-.242-7.575.343-13.391,1s-12.224,1.448-16.93,1.742c-6.476.3-13.114.747-19.841,1.381-3.363.318-6.748.676-10.145,1.1-1.7.2-3.4.431-5.1.663s-3.389.472-5.064.718c-6.358.925-12.709,1.906-19,2.891,2.32-.466,4.649-.9,6.978-1.34l10.076-1.891c3.371-.587,6.755-1.132,10.142-1.7l5.087-.835,2.548-.413,2.558-.368c-1.1.155-2.2.289-3.293.46l-3.272.509-6.511,1.019-6.472,1.021-6.418,1.139-6.391,1.148c-2.125.391-4.254.746-6.363,1.19L173.5,70.132c-4.6.724-9.159,1.44-13.651,2.129q-2.423.382-4.84.8l5.49-1.188,3.21-.687,3.222-.627,12.9-2.482,12.983-2.333,3.257-.6c1.087-.2,2.174-.411,3.268-.59L205.9,63.4c4.391-.776,8.791-1.669,13.25-2.451.053.331.158.991.213,1.328,6.3-.883,12.62-1.845,19.008-2.55l9.6-1.125c1.6-.2,3.216-.33,4.828-.492l4.846-.46a67.8,67.8,0,0,0,7.432-1.3c2.276-.536,4.362-1.075,6.254-1.677A566.572,566.572,0,0,0,211.861,60.7c-20.149,3.019-40.338,7.024-59.927,11.353,16.448-3.983,35.38-8.117,52.173-10.393,23.925-3.51,45.461-6.768,67.2-8.034l3.548-.148c1.5-.54,2.834-1.065,4.028-1.531,4.635-2.169,6.868-4.777-2.979-5.485h-.011c-.025-.029-.049-.059-.076-.088-.738-.785-2.508-1.64-5.161-2.341-.464-.119-.964-.233-1.48-.343-.137-.5-.987-.874-3.458-.966a22.594,22.594,0,0,0-3.424.033c-.658-.046-1.327-.085-2.022-.109-.021-.338-.062-1.014-.084-1.351,2.1-.066,3.813-.089,5.2-.178s2.443-.185,3.249-.319c1.611-.269,2.207-.689,2.339-1.178.271-.977-1.35-2.227-.278-3.087l-3.243.025c-1.083-.005-2.156.045-3.236.055-2.161.015-4.3.1-6.46.127-4.295.119-8.6.178-12.9.214l-.813.1c1.911-1.879,1.385-3.525-5.391-3.581l-6.33,1.2c-.957-.5-.611-1.3-.241-2.072q-20.585,3.347-41.13,7.039c-17.11,3.251-33.982,6.457-50.517,9.241,16.846-3.115,33.676-6.242,50.517-9.241,13.7-2.607,27.538-5.247,41.444-7.76.25-.7.135-1.273-1.492-1.43a49.682,49.682,0,0,0,7.138-2.381c-14.1,1.11-28.673,2.974-43.339,5.341l.811-.166,2.64-.541,1.79-.344c6.12-1,12.1-1.969,18.012-2.837,4.117-.431,8.262-.755,12.363-1.046,9.864-.69,19.5-1.286,27.751-2.8a37.823,37.823,0,0,0,4.547-1.139,12.345,12.345,0,0,0,2.732-1.232c1.249-.815,1.354-1.614.584-2.3-.786-.7-2.48-1.278-4.884-1.72a63.3,63.3,0,0,0-9.178-.858c-.029-.337-.087-1.012-.116-1.349,6.7-.275,8.679-1.09,9.032-1.982q6.413-.354,12.87-.544,2.212-.116,4.264-.336c1.368-.135,2.684-.26,3.947-.431,2.528-.331,4.849-.757,6.968-1.217-5.264-.131-10.6-.3-15.989-.178l-4.052.053-2.033.032c-.678.013-1.357.049-2.037.074l-4.646.2a1.084,1.084,0,0,1,0-.544l1.867-.116,4.529-.269,4.513-.153,4.5-.135c1.5-.041,2.991-.09,4.484-.073q4.48.007,8.945.067c1.287.014,2.586.1,3.883.165,1.684-.392,3.2-.785,4.548-1.134C302.616,8.843,305.387,6.464,294.647,4.806ZM84.814,105.785l-.049-.116.768-.2C85.294,105.573,85.054,105.677,84.814,105.785Zm85.441-81.58q-3.468.8-6.916,1.576-3.125.618-6.238,1.24C161.36,26.085,165.768,25.137,170.255,24.206Zm24.82,10.448.243,1.322q8.687-1.462,17.509-2.745c-3.957.841-7.9,1.669-11.02,2.16-11.971,1.658-24.4,3.929-36.8,6.34q14.43-3.029,29.124-5.558c-14.491,2.342-28.455,4.941-42.309,8.009q-2.72.6-5.435,1.232c-5.624,1.117-11.193,2.216-16.655,3.248q-2,.383-3.991.792c8.767-2.448,17.545-4.43,26.35-6.239C166.235,40.311,180.459,37.851,195.075,34.653Z"/></svg>