<svg xmlns="http://www.w3.org/2000/svg" width="205.146" height="256.069" viewBox="0 0 205.146 256.069"><defs><style>.a{opacity:0.4;}.b{fill:#d5c067;}</style></defs><g class="a" transform="translate(173.262 -4) rotate(67)"><path class="b" d="M27.754,30.713s.27-.241.569-.456c.417-.35.565-.46.5-.513a1.078,1.078,0,0,1,.2-.3c.5-.512.8-.732.856-.682a1.027,1.027,0,0,0,.293-.221c.294-.219,1.653-1.648,1.767-1.787l.027.023.231-.273a5.032,5.032,0,0,1,.488-.525c.115-.137.115-.137.09-.159s.064-.18.039-.2a3.541,3.541,0,0,0,.223-.515c-.05-.042.067-.178.184-.313a2.067,2.067,0,0,0,.515-.736.566.566,0,0,0,.086-.6.805.805,0,0,0-.63-.354c-.123-.109-.428-.155-.53-.249-.077-.072-.33-.064-.382-.112s-.228.032-.255.005-.178.077-.231.025c-.179.076-.311-.053-.474-.461-.2-.19-.378-.378-.6-.563a9.458,9.458,0,0,0-.838-.63,6.4,6.4,0,0,1-.881-.462,1.624,1.624,0,0,1-.323-.274c-.649-.816-1.023-1.349-1.237-1.681s-.269-.456-.282-.471c.08-.176-.435-.738-.787-.858-.243,0-.325-.089-.217-.238a.492.492,0,0,0-.352-.12.822.822,0,0,1-.517-.3c-.082-.09-.111-.389-.193-.479s-.057-.329.023-.508.077-.449-.389-.964c-.329-.363-.879-.7-1.071-.917s-.745-.556-1.05-.893c-.8-.619-1.087-.929-1.382-.721-.162.088-.274-.035-.168-.185.24-.269-.538-.587-.805-.349-.162.088-.247,0-.113-.123s-.063-.335-.292-.583-.41-.708-.525-.832a11.19,11.19,0,0,0-1.7-2.173c-.65-.65-1.283-1.1-1.55-.995l-.246-.248c.037-.217-.338-.342-.492-.5a2.658,2.658,0,0,1-.628-.122c-.063-.062-.348-.091-.473-.214-.284-.028-.219-.216-.251-.247.1-.158.128-.377.033-.47-.128-.123-.1-.344-.133-.375a.98.98,0,0,0-.516-.243c-.481-.212-.479-.21-1-.927-.276-.5-.573-.751-.9-.8-.5-.205-.576-.265-.572-.493a4.989,4.989,0,0,0-.847-.441,3.934,3.934,0,0,0-.933-.307,2.25,2.25,0,0,1-.588.011,4.308,4.308,0,0,1-.7-.132A11.084,11.084,0,0,1,6.189.862,2.487,2.487,0,0,0,5.473.654c-.185.1-.231.074-.288-.163C5.1.436,4.922.357,4.819.3,4.629.409,4.364.28,4.15.179c-.117-.158-.235-.2-.336-.169a.887.887,0,0,0-.327.279C3.359.43,3.114.717,3.059.7c-.175-.066-.579.545-.864,1.389-.117.337-.335.825-.448,1.164a1.8,1.8,0,0,0-.19.689,1.221,1.221,0,0,1-.1.533c-.059.168-.086.348-.053.361a2.637,2.637,0,0,1-.155.513l-.063.167a1.313,1.313,0,0,1-.07.355,8.358,8.358,0,0,0-.221.846,4.028,4.028,0,0,0-.136.737,1.6,1.6,0,0,1-.209.892c-.079.16-.06.17,0,.2l.045.021,0,0-.141.131-.109.342a.94.94,0,0,0-.1.349c.021.013.062.037-.025.193a1.561,1.561,0,0,0-.062.689.207.207,0,0,0,.072.143c.087.059.033.237-.023.414a1.475,1.475,0,0,0-.2.512c.042.029.119.072.084.269-.014.211.094.29.337.244a4.832,4.832,0,0,1,1,.551c.658.543.715.6,1.111.473.345-.173.424-.106.691.131a1.66,1.66,0,0,1,.373.433,2.854,2.854,0,0,1,.273.9,11.913,11.913,0,0,0,1.573,2.3c1.392,1.166,1.638,1.44,1.958,1.513a7.982,7.982,0,0,1,2.03,2.176l.679.741a1.371,1.371,0,0,1,.785.328c.271.031.407.181.542.062l.136.15c-.16.355.662,1.263,1.1,1.478a2.1,2.1,0,0,1,.992,1.1l.861.951c.284.58.706,1.043.655,1.254a1.112,1.112,0,0,1,.1.64,5.879,5.879,0,0,0,.491.8,1.986,1.986,0,0,1,.327.618.9.9,0,0,0,.45.223l.641.688.381.407c.263-.242.781.044.65.166s.078.342.239.251l.09.094a1.311,1.311,0,0,0,0,.776.822.822,0,0,1,.177.44l.277.285c.122.127.531.289.724.48.254.255.35.351.669.163.191-.062.223-.03.223-.03-.1.156.068.57.595,1.083a8.154,8.154,0,0,0,1.008,1.105.7.7,0,0,0,.644.187s.23-.034.3.03a1.01,1.01,0,0,0,.71-.566c.085-.164.12-.133.156-.1.106.1.381-.14.74-.54a2.138,2.138,0,0,1,.431-.338,2.823,2.823,0,0,0,.512-.5,6.961,6.961,0,0,1,.56-.7,10.646,10.646,0,0,1,1.357-1.2S27.787,30.741,27.754,30.713ZM.96,8.356c-.16.114-.23.07-.143-.084.169-.315.281-.456.295-.241C1.073,8.216,1.1,8.229.96,8.356Zm.913-1.741c-.2.295-.259.261-.117-.067s.256-.473.231-.279C2.048,6.3,1.96,6.46,1.873,6.616Zm.318-.641-.118.138c-.031-.018.055-.174.055-.174.086-.157.086-.157.118-.138C2.246,5.8,2.278,5.819,2.191,5.975Zm.737-.605.027.016Zm.06.034h0ZM2.971,3.769c-.2.3-.237.282-.2-.1a.4.4,0,0,1,.235-.481C3.213,3.093,3.136,3.453,2.971,3.769ZM4.153,6.817c-.184.308-.307.22-.158-.113s.147-.335.318-.432S4.368,6.532,4.153,6.817Z" transform="translate(0 10.239)"/><path class="b" d="M23.562,15.586c-.063-.1-.307-.159-.358-.241-.038-.062-.256-.073-.281-.114s-.205.009-.218-.011-.18.051-.205.01c-.179.051-.243-.052-.228-.371a3.064,3.064,0,0,0-.776-.912c-.612-.3-.676-.406-.752-.527a9.338,9.338,0,0,1-.454-1.192,3.138,3.138,0,0,1-.075-.33c.128-.134-.112-.517-.367-.584-.2.013-.242-.047-.1-.161,0,0-.05-.081-.254-.067a.359.359,0,0,1-.329-.186c-.038-.06.04-.274,0-.334s.065-.234.193-.368.218-.328,0-.667c-.15-.239-.491-.444-.578-.583s-.429-.345-.565-.562c-.451-.381-.575-.58-.895-.412-.166.073-.215-.006-.074-.119.294-.207-.235-.376-.542-.189-.166.073-.2.014-.049-.079s.067-.231-.031-.389-.08-.468-.129-.547a3.64,3.64,0,0,0-.574-1.4c-.275-.407-.6-.681-.863-.593l-.1-.157c.119-.151-.132-.216-.19-.314a1.685,1.685,0,0,1-.452-.053c-.024-.039-.238-.046-.285-.125-.214-.007-.083-.137-.095-.157.143-.11.263-.26.227-.319-.047-.079.073-.228.061-.247s-.071-.117-.3-.144c-.283-.125-.283-.126-.348-.587.017-.324-.077-.48-.3-.508-.281-.126-.3-.166-.182-.313a2.174,2.174,0,0,0-.9-.479,1.94,1.94,0,0,1-1.56-.561c-.066-.119-.289-.152-.3-.172-.18.046-.191.026-.066-.119L10.2.264A.215.215,0,0,1,9.923.131c.093-.2-.077-.139-.416-.009A3.114,3.114,0,0,1,8.987.3a5.148,5.148,0,0,0-1.5.639L6.368,1.5a3.137,3.137,0,0,0-.624.358,2.087,2.087,0,0,1-.454.295c-.159.084-.306.19-.294.21a4.117,4.117,0,0,1-.465.274l-.159.085a1.833,1.833,0,0,1-.294.211,7.008,7.008,0,0,0-1.3,1,1.789,1.789,0,0,1-.7.6c-.158.085-.146.107-.111.172l.024.043L1.8,4.765,1.52,5c-.146.107-.28.236-.269.257s.036.065-.122.151-.488.6-.4.756c.049.086-.085.216-.217.345-.291.216-.424.346-.411.368.025.043.074.13-.047.282-.108.174-.046.283.185.326a5.314,5.314,0,0,1,.616.71c.324.557.349.6.736.55.362-.092.4-.029.524.182.138.232.225.379.009,1.072a4.831,4.831,0,0,0,.457,1.8c.751.885.865,1.07,1.108,1.121a3.115,3.115,0,0,1,.953,1.536l.317.51a.756.756,0,0,1,.548.2c.217.008.28.109.433.015l.063.1c-.256.268.124.875.416,1a.743.743,0,0,1,.455.723l.39.62c.035.393.224.693.108.846.038.06-.041.273-.144.446.038.059.009.352.121.53.1.159.033.391.046.411,0,0,.063.1.29.125l.272.434.16.256c.307-.186.622-.023.468.07s-.067.231.1.158l.037.059a1.254,1.254,0,0,0-.3.535c.061.1-.032.289-.032.289l.11.177c.049.079.313.162.386.28.1.157.133.215.466.07.178-.054.19-.034.19-.034-.142.112-.188.381,0,.694.22.7.311.853.68.768,0,0,.19-.033.214.006a2.014,2.014,0,0,0,.809-.4c.143-.111.155-.091.167-.072.035.059.357-.1.822-.378a4.172,4.172,0,0,1,.488-.234,5.858,5.858,0,0,0,.631-.346c.3-.2.607-.385.762-.477.464-.274,1.275-.671,1.609-.813,0,0,.167-.071.155-.091,0,0,.322-.162.656-.3.489-.233.657-.3.632-.345a1.862,1.862,0,0,1,.3-.2c.632-.345.966-.486.991-.446a1.618,1.618,0,0,0,.335-.142c.335-.142,2.077-1.082,2.232-1.173l.013.021.31-.182c.155-.091.465-.273.632-.343.155-.091.155-.091.143-.112s.13-.133.117-.153a4.185,4.185,0,0,0,.4-.377c-.025-.041.13-.133.285-.224a2.68,2.68,0,0,0,.737-.518C24.1,16.122,24.074,15.737,23.562,15.586ZM2.723,4.574c-.134.129-.122.15-.3.193-.194.021-.229-.043-.071-.129C2.664,4.467,2.834,4.4,2.723,4.574Zm1.412-.792c-.328.15-.351.108-.047-.084s.474-.257.34-.129C4.45,3.611,4.293,3.7,4.134,3.782Zm.621-.364-.17.065c-.011-.021.146-.106.146-.106.158-.086.158-.086.17-.065C4.9,3.312,4.913,3.333,4.755,3.418Zm.972.992c-.3.2-.35.112-.059-.1s.291-.215.472-.261S6.042,4.236,5.727,4.411Zm.611-.745.034.061-.023-.04Zm.37-1.545c-.328.15-.339.129-.057-.1a.718.718,0,0,1,.475-.256C7.319,1.739,7.025,1.95,6.709,2.121Z" transform="translate(27.181 64.93)"/><path class="b" d="M29.109,26.792l.025.026.255-.251a4.857,4.857,0,0,1,.536-.477c.128-.126.128-.126.1-.151s.078-.176.053-.2a3.264,3.264,0,0,0,.261-.5c-.049-.05.079-.175.207-.3a1.9,1.9,0,0,0,.569-.7c.336-.425.13-.888-.516-1.032-.121-.122-.421-.169-.515-.273-.071-.075-.321-.08-.369-.131s-.227.02-.251-.006-.179.071-.227.02c-.18.071-.3-.057-.43-.457A7.376,7.376,0,0,0,27.517,21.2c-.838-.391-.954-.529-1.092-.69A17.426,17.426,0,0,1,25.4,18.943c-.169-.31-.207-.426-.218-.44.094-.168-.335-.686-.657-.793-.231,0-.3-.08-.181-.219a.419.419,0,0,0-.32-.111.66.66,0,0,1-.453-.281c-.067-.084-.059-.362-.126-.446s-.014-.305.084-.47.127-.411-.244-.888c-.26-.339-.729-.655-.882-.853s-.624-.514-.857-.834c-.657-.585-.872-.874-1.185-.694-.168.075-.254-.04-.129-.173.269-.235-.4-.554-.7-.348-.168.074-.231-.014-.084-.117s0-.309-.169-.543a7.741,7.741,0,0,1-.336-.777A8.76,8.76,0,0,0,17.823,8.9c-.45-.628-.917-1.079-1.194-1.007l-.162-.241c.089-.187-.222-.331-.321-.483A2.127,2.127,0,0,1,15.6,7c-.04-.061-.291-.117-.371-.239-.251-.056-.14-.213-.16-.244.132-.127.224-.314.164-.405-.08-.122.013-.309-.007-.339a.709.709,0,0,0-.388-.272c-.367-.242-.368-.243-.586-.921-.081-.463-.239-.706-.506-.8-.365-.247-.4-.31-.307-.5a4.222,4.222,0,0,0-1.192-.9A3.128,3.128,0,0,1,10.279,1.2c-.112-.19-.379-.291-.4-.323C9.688.9,9.669.87,9.769.686L9.639.463C9.445.489,9.352.33,9.277.2c.045-.28-.13-.222-.481-.109a2.1,2.1,0,0,1-.544.138c-.056-.1-.739.162-1.522.6-.313.177-.8.409-1.115.586a1.978,1.978,0,0,0-.607.386,1.324,1.324,0,0,1-.432.33c-.157.089-.294.21-.274.242a2.6,2.6,0,0,1-.45.3l-.157.088c-.137.121-.118.154-.274.243A4.736,4.736,0,0,0,2.225,4.17a1.276,1.276,0,0,1-.625.711c-.156.089-.137.122-.078.223l.039.067L1.347,5.16l-.253.279c-.136.123-.253.279-.233.313s.059.1-.1.19a1.147,1.147,0,0,0-.247,1c.081.134-.034.291-.149.449C.1,7.635-.018,7.793,0,7.826A.374.374,0,0,1,.03,8.22c-.074.225.027.394.3.505a13.531,13.531,0,0,1,.913,1.149c.538.869.58.936,1.011.95.389-.053.452.046.663.376a2.105,2.105,0,0,1,.343,1.543,11.121,11.121,0,0,0,1.123,2.7c1.19,1.445,1.389,1.739,1.7,1.866A8.682,8.682,0,0,1,7.8,19.741l.579.807a1.388,1.388,0,0,1,.738.4c.264.055.383.214.528.11l.118.159c-.195.335.508,1.3.925,1.535a1.971,1.971,0,0,1,.873,1.136c.047.064.388.505.764.972.231.578.605,1.048.539,1.253a1.093,1.093,0,0,1,.047.628,5.4,5.4,0,0,0,.426.8,1.8,1.8,0,0,1,.273.611.828.828,0,0,0,.423.229c.128.156.4.462.58.678l.344.4c.275-.23.755.052.618.168s.048.331.211.245l.079.092a1.243,1.243,0,0,0-.056.745.735.735,0,0,1,.138.422l.246.274c.11.122.49.277.654.459.218.243.3.334.625.154.19-.06.218-.03.218-.03-.106.149.014.538.464,1.017.735,1.051.984,1.281,1.385,1.182,0,0,.216-.036.274.023a1.166,1.166,0,0,0,.733-.533c.1-.153.129-.124.158-.095.086.087.372-.133.759-.506a2.506,2.506,0,0,1,.444-.316,3.348,3.348,0,0,0,.543-.47,8.317,8.317,0,0,1,.616-.651,11.557,11.557,0,0,1,1.424-1.108s.155-.1.129-.125c0,0,.284-.222.595-.418.439-.32.593-.419.54-.473a1.155,1.155,0,0,1,.23-.277c.54-.473.849-.67.9-.617a1.079,1.079,0,0,0,.309-.2C27.5,28.221,28.982,26.918,29.109,26.792ZM2.342,5.079c-.117.156-.1.19-.292.213-.215-.01-.273-.111-.117-.2C2.245,4.913,2.42,4.857,2.342,5.079ZM3.726,4.24c-.331.146-.37.08-.078-.132S4.117,3.84,4,4C4.038,4.061,3.882,4.151,3.726,4.24Zm.6-.391-.175.057c-.02-.033.137-.122.137-.122.156-.09.156-.09.175-.057C4.467,3.727,4.486,3.76,4.33,3.849Zm.972-.12-.013-.022.032.054ZM5.283,3.7v0Zm.452,1.8c-.29.215-.369.085-.1-.163s.271-.247.465-.273S6.044,5.316,5.735,5.5Zm.481-.942h0C6.2,4.526,6.2,4.53,6.216,4.556Zm-.03-2.161c-.331.146-.35.113-.1-.162a.472.472,0,0,1,.469-.267C6.772,1.973,6.5,2.215,6.186,2.394Z" transform="translate(51.764 119.538)"/><path class="b" d="M24.913,15.765a14.137,14.137,0,0,1-.956-1.352c-.158-.265-.194-.368-.2-.379.089-.167-.314-.592-.616-.651-.217.031-.281-.036-.17-.179a.341.341,0,0,0-.3-.059.52.52,0,0,1-.423-.194c-.062-.068-.054-.322-.116-.39s-.012-.277.081-.441.119-.4-.224-.775c-.24-.268-.675-.485-.815-.641s-.581-.375-.789-.622c-.6-.423-.8-.648-1.092-.441-.158.092-.235,0-.117-.135.254-.25-.362-.429-.639-.2-.158.09-.214.022-.075-.091s.008-.272-.141-.454a5.3,5.3,0,0,1-.289-.633,5.811,5.811,0,0,0-.953-1.614c-.379-.471-.772-.791-1.036-.693l-.134-.183c.1-.171-.185-.251-.265-.366a1.716,1.716,0,0,1-.483-.075c-.031-.046-.258-.062-.321-.155-.228-.017-.109-.162-.125-.185.135-.121.239-.288.193-.357-.062-.092.043-.257.028-.28a.472.472,0,0,0-.337-.179c-.306-.158-.307-.161-.42-.689-.014-.367-.125-.547-.366-.6-.3-.164-.319-.211-.2-.366a2.645,2.645,0,0,0-.955-.625,2.079,2.079,0,0,1-1.6-.844C10.987.772,10.778.7,10.765.672c-.185.02-.2-.006-.056-.145L10.643.358c-.186.016-.234-.106-.272-.2.112-.208-.067-.169-.426-.1A2.665,2.665,0,0,1,9.4.136,4.474,4.474,0,0,0,7.8.506C7.46.623,6.937.768,6.6.884a2.346,2.346,0,0,0-.671.261,1.546,1.546,0,0,1-.488.235c-.17.058-.329.148-.317.179a2.927,2.927,0,0,1-.5.209l-.17.059a1.336,1.336,0,0,1-.315.183,4.663,4.663,0,0,0-1.383.915,1.332,1.332,0,0,1-.735.594c-.168.064-.154.1-.113.206l.028.071-.21-.042-.294.238c-.153.1-.293.241-.278.277s.043.11-.124.177a.887.887,0,0,0-.3.416,1.425,1.425,0,0,0-.1.311.439.439,0,0,0,.017.245c.066.143-.066.286-.2.43-.3.216-.426.363-.409.4a.39.39,0,0,1-.009.4c-.095.222-.007.408.26.55a5.373,5.373,0,0,0,.327.469,5.676,5.676,0,0,1,.508.751c.486.891.524.965.952.985.391-.048.449.047.644.367a1.992,1.992,0,0,1,.286,1.5,8.363,8.363,0,0,0,.4,1.2A6.42,6.42,0,0,0,4.085,13.8c.578.643.916,1.028,1.146,1.266a1.246,1.246,0,0,0,.506.359,4.321,4.321,0,0,1,.887.92A6.247,6.247,0,0,1,7.392,17.5l.558.677a1.174,1.174,0,0,1,.7.274c.251.016.363.146.5.031l.112.13c-.185.332.49,1.125.878,1.279a1.461,1.461,0,0,1,.817.912c.045.052.364.406.706.774.209.49.552.861.488,1.056a.891.891,0,0,1,.033.561,3.853,3.853,0,0,0,.373.655,1.312,1.312,0,0,1,.236.51.616.616,0,0,0,.384.145l.5.526.3.309c.262-.245.69-.059.559.064s.03.289.183.19l.069.071a1.219,1.219,0,0,0-.1.675.546.546,0,0,1,.1.357l.2.21c.091.094.425.18.562.321.182.186.249.257.555.057.175-.077.2-.054.2-.054-.108.146-.037.476.321.843.566.837.735,1.013,1.106.88,0,0,.2-.055.24-.01A1.484,1.484,0,0,0,18.7,28.4c.108-.146.13-.123.152-.1.066.068.349-.155.74-.524a3.149,3.149,0,0,1,.436-.323,4.185,4.185,0,0,0,.544-.469c.239-.269.5-.514.63-.637a13.516,13.516,0,0,1,1.416-1.114s.153-.1.13-.123c0,0,.283-.223.589-.422.436-.322.589-.422.544-.468a1.337,1.337,0,0,1,.239-.269c.544-.468.85-.667.9-.621a1.227,1.227,0,0,0,.306-.2c.306-.2,1.811-1.479,1.942-1.6l.023.023.261-.245a5.324,5.324,0,0,1,.546-.467c.13-.122.13-.122.108-.146s.085-.169.063-.193a3.346,3.346,0,0,0,.278-.485c-.046-.047.085-.17.216-.293a2,2,0,0,0,.584-.684c.346-.415.156-.869-.47-1-.115-.119-.4-.158-.493-.249-.067-.069-.31-.061-.355-.107s-.22.031-.242.008-.175.077-.22.031c-.175.077-.287-.038-.4-.415a5.361,5.361,0,0,0-1.217-.994C25.149,16.013,25.044,15.9,24.913,15.765ZM2.714,3.813c-.14.136-.126.172-.32.169-.209-.038-.251-.145-.083-.211C2.646,3.64,2.827,3.608,2.714,3.813Zm1.492-.636c-.348.1-.374.033-.051-.131s.5-.2.36-.067C4.54,3.044,4.373,3.111,4.206,3.178Zm.656-.3-.18.034c-.013-.032.155-.1.155-.1.168-.066.168-.066.18-.034C5.017,2.781,5.029,2.813,4.862,2.879Zm.957-.025L5.81,2.832l.021.053C5.843,2.916,5.831,2.885,5.819,2.854ZM5.966,4.46c-.31.185-.368.062-.071-.152s.3-.212.489-.229S6.291,4.3,5.966,4.46Zm.605-.828.04.085-.026-.055Zm.363-1.879c-.348.1-.359.069-.056-.145a.562.562,0,0,1,.505-.19C7.586,1.439,7.271,1.624,6.935,1.753Z" transform="translate(55.595 64.707)"/><path class="b" d="M7.173,18.178a12.517,12.517,0,0,1,2.106,2.777l.711.9a1.68,1.68,0,0,1,.825.456c.284.066.427.242.568.131l.143.175c-.168.364.695,1.416,1.152,1.68a2.522,2.522,0,0,1,1.041,1.237l.9,1.055c.3.624.736,1.128.686,1.344a1.178,1.178,0,0,1,.106.668,6.456,6.456,0,0,0,.506.852,2.128,2.128,0,0,1,.331.649.966.966,0,0,0,.458.248l.642.727.379.428c.272-.234.785.074.65.191s.067.346.232.261l.087.1a1.332,1.332,0,0,0-.03.775.8.8,0,0,1,.153.442l.259.291c.115.13.508.3.68.495.227.256.313.352.641.182.192-.054.221-.022.221-.022-.108.149.013.554.457,1.057.719,1.089.9,1.313,1.314,1.237,0,0,.213-.026.263.033a1.233,1.233,0,0,0,.768-.482c.113-.144.139-.114.164-.084.075.089.376-.11.793-.45a2.547,2.547,0,0,1,.467-.28,3.444,3.444,0,0,0,.582-.422,8.274,8.274,0,0,1,.67-.6,10.132,10.132,0,0,1,1.527-.971s.166-.08.139-.113a6.969,6.969,0,0,1,.64-.352c.474-.27.643-.348.588-.415a1.025,1.025,0,0,1,.253-.258c.588-.415.926-.568.983-.5a.937.937,0,0,0,.339-.151c.338-.153,1.987-1.251,2.13-1.359l.031.039.284-.219a3.367,3.367,0,0,1,.6-.4c.142-.11.142-.11.11-.15s.077-.191.044-.232a2.5,2.5,0,0,0,.259-.536c-.064-.078.076-.19.217-.3.173-.073.314-.183.6-.679.352-.422.033-1.085-.732-1.421-.153-.177-.5-.307-.622-.444-.09-.1-.377-.159-.436-.226s-.255-.018-.285-.052-.2.049-.255-.018c-.2.049-.343-.118-.53-.6a9.837,9.837,0,0,0-1.561-1.486,4.058,4.058,0,0,1-1.277-.895c-.69-.911-1.08-1.488-1.3-1.844s-.281-.489-.295-.5c.08-.18-.452-.786-.811-.926-.249-.011-.332-.107-.223-.255a.518.518,0,0,0-.359-.139.878.878,0,0,1-.525-.331c-.083-.1-.112-.4-.193-.5a.579.579,0,0,1,.029-.518c.082-.178.083-.453-.378-.994-.325-.382-.866-.746-1.053-.97s-.726-.59-1.015-.941c-.772-.656-1.028-.977-1.336-.788-.167.079-.271-.05-.156-.193.257-.253-.487-.61-.772-.392-.168.077-.244-.02-.1-.129s-.036-.335-.239-.593a8.942,8.942,0,0,1-.432-.85A12.181,12.181,0,0,0,18.631,9.4c-.514-.674-1.012-1.16-1.291-1.092l-.177-.258c.082-.2-.237-.354-.345-.515a2.177,2.177,0,0,1-.556-.193c-.041-.064-.3-.131-.382-.26-.255-.067-.143-.226-.163-.258.134-.126.224-.316.167-.411-.078-.128.018-.315,0-.346a.723.723,0,0,0-.383-.289c-.36-.257-.367-.264-.536-.939-.046-.456-.162-.69-.416-.792-.323-.249-.354-.311-.228-.471a2.548,2.548,0,0,0-.431-.47c-.105-.095-.2-.177-.292-.248a.909.909,0,0,0-.225-.138,2,2,0,0,1-1.4-1.011.227.227,0,0,0-.107-.135c-.053-.039-.1-.06-.1-.066-.181-.014-.181-.034-.005-.084a1.068,1.068,0,0,1,0-.122A.219.219,0,0,1,11.6,1.2a.251.251,0,0,1-.011-.125c.188-.106.019-.134-.333-.215a2.386,2.386,0,0,1-.517-.153A4.867,4.867,0,0,0,9.188.317C8.835.262,8.315.141,7.963.083A1.77,1.77,0,0,0,7.246.009a1.269,1.269,0,0,1-.559.005c-.178-.027-.369-.006-.381.041A2.159,2.159,0,0,1,5.759.032L5.58.008c-.191.028-.2.08-.383.058a2.909,2.909,0,0,0-.909.126,1.916,1.916,0,0,0-.794.36c-.2.235-.58.552-.935.481-.18,0-.182.065-.183.269,0,.071,0,.116,0,.144V1.439L2.2,1.234l-.362.212c-.18.074-.363.218-.356.3s.012.237-.168.246c-.089,0-.259.261-.387.586a2.8,2.8,0,0,0-.147.5,2,2,0,0,0-.032.251,1.02,1.02,0,0,0,.012.21A.767.767,0,0,1,.509,4.2c-.323.21-.466.393-.45.465a1.048,1.048,0,0,1-.02.676,1,1,0,0,0,.289.987c.078.273.607,1.236.977,2.089.149.354.268.609.367.809a2.819,2.819,0,0,0,.253.443A.81.81,0,0,0,2.439,10c.421.034.492.173.737.639A3.555,3.555,0,0,1,3.662,12.6c.038.154.113.39.214.665s.226.6.366.922a11.435,11.435,0,0,0,.9,1.743c.714.893,1.14,1.4,1.425,1.724A1.976,1.976,0,0,0,7.173,18.178ZM7.794,1.061a.467.467,0,0,1,.541.017c.171.113-.184.182-.546.182C7.43,1.22,7.424,1.171,7.794,1.061ZM7.045,3.628l0-.011Zm-.024-.087L7.007,3.49l0,.008Zm-3.9-1.573c-.171.148-.167.222-.356.092-.193-.2-.2-.423-.023-.426C3.1,1.627,3.281,1.686,3.116,1.969Zm1.971-.285c.006.112-.174.122-.354.131-.364-.039-.371-.166-.013-.234S5.261,1.566,5.088,1.684Zm.364.04-.184-.047c0-.055.177-.061.177-.061.18-.006.18-.006.183.047C5.629,1.663,5.632,1.715,5.451,1.724Zm.934.393v0ZM6.264,4.182c.32-.192.321-.189.519-.151s-.1.269-.447.377C6.006,4.56,5.947,4.373,6.264,4.182Z" transform="translate(46.61 0)"/><path class="b" d="M25.554,20.453a1.957,1.957,0,0,0,.765-.48c.456-.293.4-.8-.171-1.125-.079-.15-.344-.283-.41-.395-.048-.087-.288-.146-.32-.2s-.223-.03-.239-.058-.19.028-.222-.029c-.19.029-.269-.112-.288-.512a4.651,4.651,0,0,0-.955-1.264c-.7-.468-.785-.6-.886-.753a16.12,16.12,0,0,1-.667-1.491c-.107-.28-.124-.386-.132-.4.117-.147-.2-.624-.487-.726-.217,0-.268-.076-.135-.2,0,0-.067-.1-.283-.1a.491.491,0,0,1-.382-.238c-.05-.072,0-.317-.05-.389s.033-.269.149-.417.18-.373-.1-.779c-.2-.281-.59-.531-.7-.695s-.51-.417-.682-.663c-.529-.445-.687-.672-1-.494-.165.078-.229-.013-.1-.137.279-.226-.293-.425-.591-.225-.165.078-.21.01-.061-.089s.042-.256-.08-.434-.14-.522-.2-.611A4.7,4.7,0,0,0,16.6,6.007c-.308-.445-.661-.748-.926-.662l-.11-.172c.11-.158-.144-.234-.207-.341a1.7,1.7,0,0,1-.462-.073c-.025-.043-.245-.059-.3-.145-.22-.018-.09-.151-.1-.172.143-.111.261-.263.223-.327-.051-.086.067-.237.055-.258s-.069-.126-.3-.166c-.285-.145-.286-.148-.348-.632.018-.336-.072-.5-.291-.546-.275-.15-.3-.193-.166-.334a2.392,2.392,0,0,0-.882-.57A1.941,1.941,0,0,1,11.271.84C11.222.708,11,.639,11,.616c-.185.02-.194,0-.05-.134L10.887.327a.225.225,0,0,1-.262-.184c.119-.194-.059-.156-.417-.084a2.9,2.9,0,0,1-.546.084A4.861,4.861,0,0,0,8.073.52c-.341.115-.863.261-1.2.376a2.639,2.639,0,0,0-.674.255,1.754,1.754,0,0,1-.492.226c-.171.057-.331.142-.321.17a3.364,3.364,0,0,1-.5.2l-.17.058a1.507,1.507,0,0,1-.32.173,5.358,5.358,0,0,0-1.412.852,1.475,1.475,0,0,1-.757.544c-.169.062-.158.092-.123.184l.023.061-.2-.03-.3.217c-.157.094-.3.219-.29.25s.035.094-.133.158-.529.639-.441.864C.8,5.2.663,5.333.523,5.463c-.306.2-.445.33-.431.361A.316.316,0,0,1,.05,6.18c-.11.2-.039.358.21.477.058.126.453.6.7,1.077.391.787.423.848.834.867.382-.042.424.05.582.333.173.315.279.51.123,1.343a3.533,3.533,0,0,0,.077.464c.043.188.1.406.169.63a5.712,5.712,0,0,0,.487,1.2c.945,1.154,1.1,1.393,1.366,1.469A4.988,4.988,0,0,1,5.859,15.92l.418.61a.94.94,0,0,1,.612.253c.231.017.313.135.462.034l.082.118c-.233.293.265,1.008.584,1.152a1,1,0,0,1,.575.824l.482.7c.082.435.312.769.209.936.048.068-.016.3-.107.483.044.065.039.381.17.575a.876.876,0,0,1,.081.444.443.443,0,0,0,.311.141l.3.466.177.275c.3-.19.637-.007.484.087s-.058.242.11.17l.04.064a1.28,1.28,0,0,0-.3.549c.063.1-.029.3-.029.3l.112.185c.05.082.318.177.394.3.1.166.131.225.469.089.179-.047.191-.026.191-.026-.145.109-.2.381-.016.706a2.71,2.71,0,0,0,.253.7c.086.119.2.144.385.113,0,0,.192-.02.213.021a2.014,2.014,0,0,0,.837-.34c.151-.1.161-.08.172-.059.032.063.366-.075.85-.313a3.9,3.9,0,0,1,.507-.194,5.5,5.5,0,0,0,.657-.295c.312-.181.635-.339.8-.418a15.385,15.385,0,0,1,1.677-.671s.174-.055.162-.079c0,0,.336-.133.685-.241.512-.185.687-.237.661-.288a1.547,1.547,0,0,1,.311-.182c.661-.288,1.012-.391,1.039-.339a1.358,1.358,0,0,0,.352-.1c.351-.1,2.182-.868,2.345-.944l.014.028.326-.153a5.443,5.443,0,0,1,.666-.278c.163-.077.163-.077.148-.105s.133-.134.119-.163a3.178,3.178,0,0,0,.414-.377C25.229,20.608,25.391,20.531,25.554,20.453ZM2.886,3.61c-.146.123-.134.154-.326.158-.2-.027-.237-.119-.069-.182C2.83,3.46,3.009,3.426,2.886,3.61Zm1.821-.786c.021.056-.147.12-.316.183-.348.1-.37.04-.043-.114S4.855,2.7,4.707,2.824Zm.347-.1-.179.035c-.01-.028.158-.091.158-.091.169-.063.169-.063.179-.035C5.213,2.634,5.223,2.661,5.055,2.725Zm.957-.014L6,2.678l-.007-.019.017.046ZM5.99,2.653v0Zm.034,1.461c-.318.171-.366.062-.059-.134s.307-.195.5-.213S6.355,3.971,6.024,4.115Zm.665-.724-.011-.026.034.078Zm.47-1.722c-.348.1-.358.071-.049-.129a.626.626,0,0,1,.508-.184C7.816,1.37,7.5,1.544,7.159,1.669Z" transform="translate(101.083 75.979)"/><path class="b" d="M.032,7.5c-.076.247.031.458.32.627.043.084.2.282.38.543a8.848,8.848,0,0,1,.6.877c.592,1.034.64,1.115,1.087,1.171.4-.023.475.085.711.463a2.639,2.639,0,0,1,.448,1.72,10.2,10.2,0,0,0,.537,1.4,9.347,9.347,0,0,0,.836,1.562c.677.78,1.072,1.247,1.34,1.537a1.646,1.646,0,0,0,.574.46A6.174,6.174,0,0,1,7.9,18.991a9.068,9.068,0,0,1,.927,1.392l.658.825a1.511,1.511,0,0,1,.783.393c.273.049.4.21.545.1l.132.16c-.175.35.618,1.322,1.047,1.547a2.092,2.092,0,0,1,.949,1.131l.814.963c.255.577.648,1.04.589,1.247a1.036,1.036,0,0,1,.062.627,5.358,5.358,0,0,0,.431.783,1.755,1.755,0,0,1,.276.6.817.817,0,0,0,.423.221l.559.662.33.391c.277-.228.746.05.607.163s.039.324.2.241l.076.09a1.3,1.3,0,0,0-.095.727.679.679,0,0,1,.107.41l.222.267c.1.119.46.273.608.452.2.238.271.327.6.162.188-.053.212-.023.212-.023-.117.142-.043.518.337.99.6,1.025.765,1.254,1.168,1.184,0,0,.211-.021.257.038a1.276,1.276,0,0,0,.785-.452c.12-.138.143-.108.166-.078.069.089.379-.1.81-.42a2.632,2.632,0,0,1,.478-.263,3.513,3.513,0,0,0,.6-.4,8.452,8.452,0,0,1,.695-.569,10.916,10.916,0,0,1,1.557-.921s.168-.076.144-.107c0,0,.312-.184.649-.335.481-.258.649-.334.6-.4a1.085,1.085,0,0,1,.263-.246c.6-.4.938-.547.989-.482a1.02,1.02,0,0,0,.338-.15c.338-.15,2-1.224,2.148-1.33l.025.033.289-.213a4.109,4.109,0,0,1,.6-.393c.145-.106.145-.106.119-.14s.093-.173.066-.207a2.7,2.7,0,0,0,.3-.488c-.052-.067.092-.174.236-.281.17-.073.315-.179.641-.637.38-.389.15-.979-.56-1.308-.133-.172-.46-.3-.567-.43-.08-.1-.354-.153-.407-.219s-.248-.022-.274-.054-.194.045-.247-.021c-.194.045-.326-.119-.477-.591a8.4,8.4,0,0,0-1.438-1.464,3.871,3.871,0,0,1-1.2-.881c-.627-.882-.989-1.45-1.191-1.791s-.253-.47-.266-.486c.086-.176-.41-.759-.757-.89-.243-.008-.321-.1-.209-.246a.476.476,0,0,0-.345-.129.792.792,0,0,1-.5-.31c-.077-.091-.093-.387-.17-.478s-.041-.326.046-.5.095-.441-.337-.953c-.3-.359-.818-.7-.994-.905s-.7-.548-.962-.874c-.728-.6-.974-.9-1.28-.709-.165.082-.264-.038-.147-.18.253-.253-.459-.567-.74-.346-.165.081-.237-.009-.1-.12s-.025-.32-.216-.559a8.442,8.442,0,0,1-.406-.8A9.629,9.629,0,0,0,18.2,8.941c-.482-.624-.971-1.068-1.247-.989l-.174-.24c.083-.192-.243-.329-.342-.48a2.1,2.1,0,0,1-.544-.161c-.041-.061-.293-.112-.376-.233-.254-.053-.145-.213-.166-.242.129-.129.218-.318.156-.408-.082-.121.007-.309-.014-.338a.726.726,0,0,0-.39-.265c-.361-.237-.363-.24-.572-.909-.073-.457-.233-.7-.492-.787-.346-.245-.382-.307-.278-.487a4.031,4.031,0,0,0-1.14-.9,2.911,2.911,0,0,1-1.846-1.245c-.091-.191-.335-.311-.351-.343-.192.009-.207-.024-.085-.193l-.1-.226C10.05.5,9.979.336,9.921.207c.08-.263-.1-.226-.463-.155A2.133,2.133,0,0,1,8.9.124,3.429,3.429,0,0,0,7.3.522c-.335.133-.852.3-1.187.429a1.875,1.875,0,0,0-.654.3,1.249,1.249,0,0,1-.469.274c-.167.067-.318.171-.3.209a2.385,2.385,0,0,1-.485.239l-.167.068c-.15.105-.133.144-.3.211A4.146,4.146,0,0,0,2.434,3.3a1.2,1.2,0,0,1-.686.675c-.166.071-.147.112-.093.235l.036.082-.219-.052L1.2,4.512c-.146.113-.274.27-.256.312s.056.126-.109.2a1.268,1.268,0,0,0-.29,1.1C.626,6.284.5,6.443.384,6.6.1,6.841-.019,7,0,7.044A.482.482,0,0,1,.032,7.5ZM6.515,1.85a.459.459,0,0,1,.5-.212c.213.035-.087.248-.417.391C6.248,2.137,6.232,2.1,6.515,1.85Zm-.665,3.2c.284-.235.284-.234.482-.242s-.068.263-.389.426C5.642,5.431,5.566,5.283,5.85,5.048ZM5.593,3.326h0Zm-.022-.049v0Zm-1.006-.05c.165-.073.165-.073.182-.035,0,0,.017.038-.148.111l-.182.034C4.4,3.3,4.565,3.226,4.565,3.226Zm-.676.252c.313-.184.495-.217.364-.068.034.077-.13.15-.295.223C3.611,3.74,3.576,3.661,3.889,3.478Zm-1.812.8c.329-.144.512-.177.419.057-.128.154-.11.2-.311.188C1.966,4.47,1.911,4.347,2.076,4.274Z" transform="translate(98.964 28.885)"/><path class="b" d="M13.761,21.584c.075.057.216.387.443.557a1.185,1.185,0,0,1,.293.444.567.567,0,0,0,.386.066l.551.407.326.239c.216-.285.648-.19.541-.047s.067.271.2.147l.075.055a1.205,1.205,0,0,0,0,.665.506.506,0,0,1,.142.323l.224.161c.1.072.43.09.579.2.2.144.274.2.535-.055.155-.109.18-.091.18-.091-.082.161.033.463.426.744.658.69.846.824,1.179.622,0,0,.178-.093.226-.058a1.557,1.557,0,0,0,.6-.669c.082-.161.106-.144.13-.127.072.052.308-.219.625-.652a3.339,3.339,0,0,1,.366-.4,4.444,4.444,0,0,0,.447-.559c.187-.305.4-.594.5-.738a14.407,14.407,0,0,1,1.178-1.355s.13-.127.106-.144c0,0,.235-.271.5-.525.366-.4.5-.525.447-.559a1.448,1.448,0,0,1,.187-.306c.447-.559.708-.813.756-.779a1.309,1.309,0,0,0,.26-.254c.26-.254,1.5-1.787,1.6-1.931l.024.017.211-.288a5.721,5.721,0,0,1,.447-.559c.106-.144.106-.144.082-.161s.057-.179.033-.2a3.551,3.551,0,0,0,.2-.519c-.049-.035.057-.179.163-.323a2.169,2.169,0,0,0,.456-.773c.269-.467.034-.854-.567-.844-.122-.087-.4-.063-.492-.131-.072-.051-.3.008-.345-.026s-.2.076-.225.058-.154.11-.2.076c-.154.11-.273.024-.43-.308a4.563,4.563,0,0,0-1.263-.689c-.78-.12-.892-.205-1.031-.307a11.771,11.771,0,0,1-1.059-1.086c-.179-.219-.225-.309-.237-.318.064-.176-.363-.5-.654-.492-.2.073-.268.022-.181-.136,0,0-.088-.068-.287,0a.452.452,0,0,1-.42-.1c-.066-.051-.087-.294-.153-.345s-.042-.259.026-.433.067-.4-.3-.686c-.254-.2-.687-.323-.836-.443s-.587-.238-.809-.43c-.611-.28-.818-.454-1.075-.2-.139.117-.222.047-.125-.1.212-.285-.386-.333-.624-.067-.139.115-.2.062-.08-.071s-.02-.257-.181-.4-.259-.468-.338-.538a4.773,4.773,0,0,0-1.063-1.329c-.4-.369-.809-.591-1.05-.452l-.145-.145c.078-.178-.2-.2-.285-.292a1.649,1.649,0,0,1-.467.02c-.034-.037-.252-.01-.321-.085-.219.026-.12-.131-.137-.149.117-.138.2-.312.15-.367-.068-.074.016-.247,0-.265a.42.42,0,0,0-.336-.105c-.308-.09-.31-.093-.469-.561-.048-.337-.174-.482-.407-.485-.3-.1-.327-.138-.226-.3a2.366,2.366,0,0,0-.983-.406,1.939,1.939,0,0,1-1.632-.5C10.053.6,9.836.567,9.821.546,9.643.6,9.63.574,9.75.422L9.668.277A.226.226,0,0,1,9.379.136c.086-.211-.084-.145-.426-.018a2.867,2.867,0,0,1-.527.166A4.816,4.816,0,0,0,6.911.9c-.32.165-.813.388-1.133.552a2.512,2.512,0,0,0-.625.355,1.67,1.67,0,0,1-.449.3c-.16.083-.3.192-.289.219a3.18,3.18,0,0,1-.463.277l-.159.084c-.144.111-.128.139-.287.223A4.935,4.935,0,0,0,2.261,3.988a1.393,1.393,0,0,1-.649.676c-.157.088-.139.118-.086.211l.035.062-.21,0L1.093,5.2c-.138.12-.258.273-.239.3s.055.1-.1.185a.893.893,0,0,0-.24.437A.732.732,0,0,0,.5,6.666c.081.123-.031.279-.143.436-.264.252-.374.411-.353.443a.356.356,0,0,1,.037.381c-.067.224.04.385.317.474.042.063.191.2.371.39a5.206,5.206,0,0,1,.581.627c.575.764.623.822,1.039.777.374-.11.441-.03.667.241a1.807,1.807,0,0,1,.451,1.374,7.032,7.032,0,0,0,.528,1.081A5.882,5.882,0,0,0,4.8,14.045c.636.515,1.008.824,1.259,1.012a1.112,1.112,0,0,0,.531.257,3.876,3.876,0,0,1,.967.724,5.7,5.7,0,0,1,.882.973l.621.549a1.1,1.1,0,0,1,.71.135c.242-.03.366.074.483-.061l.124.1c-.135.351.612.989,1,1.064a1.3,1.3,0,0,1,.9.722c.05.042.4.321.774.609.263.431.64.722.6.92A.852.852,0,0,1,13.761,21.584ZM2.326,4.821c-.121.15-.1.181-.293.211-.208,0-.262-.094-.105-.183C2.239,4.671,2.412,4.611,2.326,4.821ZM3.987,3.744c.032.056-.123.146-.279.236-.327.152-.361.094-.065-.113S4.111,3.6,3.987,3.744Zm.327-.152-.171.062c-.016-.028.14-.118.14-.118.156-.089.156-.089.171-.062C4.455,3.475,4.47,3.5,4.315,3.592ZM5.566,4.881c-.281.226-.352.12-.086-.129s.266-.248.45-.3S5.865,4.681,5.566,4.881Zm.5-.874.048.072L6.08,4.032ZM6.209,2.2c-.327.152-.343.125-.072-.125a.6.6,0,0,1,.472-.262C6.808,1.8,6.522,2.02,6.209,2.2Z" transform="translate(105.95 133.632)"/><path class="b" d="M21.535,39.667c.245.316.336.434.683.3.2-.029.234.011.234.011-.113.147.014.609.5,1.239.795,1.328,1.022,1.639,1.461,1.624,0,0,.233.011.293.09a1,1,0,0,0,.813-.413c.115-.146.145-.106.175-.067.089.118.409-.054.843-.373a2.078,2.078,0,0,1,.494-.239,2.7,2.7,0,0,0,.609-.384,6.562,6.562,0,0,1,.694-.57,8.809,8.809,0,0,1,1.6-.86s.175-.066.145-.106a6.261,6.261,0,0,1,.671-.3c.5-.237.671-.3.61-.383a.882.882,0,0,1,.259-.252c.61-.383.961-.514,1.023-.433a.862.862,0,0,0,.351-.131c.351-.131,2.04-1.171,2.186-1.276l.031.041.29-.211a3.384,3.384,0,0,1,.612-.382c.145-.105.145-.105.114-.146s.083-.187.053-.229a2.507,2.507,0,0,0,.281-.522c-.062-.082.083-.188.228-.294.176-.065.321-.17.632-.653.373-.4.081-1.085-.706-1.532-.156-.206-.518-.388-.642-.55-.094-.122-.393-.218-.456-.3s-.269-.055-.3-.1-.206.026-.268-.055c-.206.026-.362-.177-.56-.731a13.035,13.035,0,0,0-1.667-1.868,5.52,5.52,0,0,1-1.373-1.186c-.748-1.11-1.181-1.813-1.427-2.24s-.31-.583-.325-.6c.082-.188-.5-.94-.891-1.15-.266-.05-.358-.169-.246-.317a.666.666,0,0,0-.388-.209,1.175,1.175,0,0,1-.569-.446c-.091-.119-.13-.463-.221-.582a.657.657,0,0,1,.014-.57c.084-.186.073-.491-.439-1.161-.359-.472-.952-.957-1.161-1.232s-.806-.76-1.126-1.194c-.85-.84-1.145-1.235-1.465-1.065-.175.065-.293-.093-.177-.237.259-.248-.551-.751-.843-.543-.175.065-.262-.055-.115-.159s-.055-.381-.286-.7-.4-.856-.515-1.014a15.835,15.835,0,0,0-1.609-2.7c-.6-.839-1.184-1.462-1.477-1.415l-.217-.319c.068-.218-.3-.439-.427-.641a2.806,2.806,0,0,1-.616-.289c-.053-.081-.335-.186-.44-.347-.283-.106-.184-.282-.21-.322.126-.136.2-.352.121-.473-.1-.161-.031-.376-.057-.416a1.148,1.148,0,0,0-.459-.39c-.429-.352-.429-.353-.751-1.216a1.487,1.487,0,0,0-.645-1.055c-.416-.359-.464-.442-.379-.653a6.577,6.577,0,0,0-1.374-1.292,4.419,4.419,0,0,1-2.2-1.788,1.988,1.988,0,0,0-.436-.47c-.2,0-.225-.048-.127-.255l-.148-.3c-.2-.006-.31-.219-.4-.389.035-.332-.148-.3-.516-.229A1.757,1.757,0,0,1,8.331.1c-.064-.128-.782.045-1.6.423-.327.151-.839.334-1.165.485a1.5,1.5,0,0,0-.631.347,1.017,1.017,0,0,1-.445.318c-.163.076-.3.2-.281.243a1.934,1.934,0,0,1-.466.274l-.163.076c-.14.122-.117.168-.28.245A3.712,3.712,0,0,0,2.092,3.718a1.091,1.091,0,0,1-.623.768c-.162.078-.138.126-.067.269l.048.1-.233-.064-.252.3c-.138.127-.251.3-.227.351s.072.144-.089.224A1.454,1.454,0,0,0,.469,6.9c.1.19-.006.367-.115.544-.269.26-.376.438-.351.486a.612.612,0,0,1,.074.514.683.683,0,0,0,.39.72c.052.1.228.327.443.629s.483.66.7,1.034c.705,1.214.76,1.307,1.233,1.406.418.007.5.139.783.593a3.588,3.588,0,0,1,.6,2,14.276,14.276,0,0,0,.668,1.66,14.122,14.122,0,0,0,.993,1.88C7.435,20.33,7.7,20.718,8.065,20.914a9.136,9.136,0,0,1,1.187,1.448A13.706,13.706,0,0,1,10.341,24.1l.765,1.052a2.089,2.089,0,0,1,.876.582c.3.1.454.309.6.2l.154.207c-.167.374.757,1.623,1.245,1.96a3.228,3.228,0,0,1,1.117,1.47l.963,1.257c.322.714.789,1.32.739,1.549a1.4,1.4,0,0,1,.117.739,8.4,8.4,0,0,0,.54.99,2.718,2.718,0,0,1,.354.75,1.223,1.223,0,0,0,.485.333l.68.876.4.517c.287-.216.832.193.688.3s.073.386.247.318l.093.119a1.463,1.463,0,0,0-.031.839,1,1,0,0,1,.162.5l.275.356C20.932,39.182,21.351,39.429,21.535,39.667ZM1.461,4.873Zm.824.041c-.114.174-.09.222-.3.207-.232-.063-.3-.206-.142-.285C2.168,4.678,2.353,4.645,2.286,4.914ZM3.714,4.15c-.346.113-.393.019-.093-.185s.485-.238.369-.066C4.037,3.991,3.876,4.071,3.714,4.15Zm.622-.365-.184.034c-.023-.046.139-.126.139-.126.161-.079.161-.079.184-.033C4.475,3.66,4.5,3.706,4.336,3.786ZM5.349,3.8l.037.075L5.37,3.843Zm.646,2.356c-.293.215-.391.034-.121-.224s.269-.258.477-.253S6.312,5.987,5.995,6.157ZM6.45,5.109l0,.008,0-.007ZM6.234,2.35c-.346.113-.368.067-.111-.223a.381.381,0,0,1,.486-.234C6.838,1.947,6.558,2.193,6.234,2.35Z" transform="translate(146.216 102.134)"/><path class="b" d="M38.189,22.325c-.189-.164-.572-.261-.722-.392-.112-.1-.421-.13-.493-.19s-.266.01-.3-.022-.191.072-.265.01c-.191.074-.375-.085-.661-.557-.272-.225-.518-.428-.809-.64a10.747,10.747,0,0,0-1.077-.674,4.57,4.57,0,0,1-1.476-.726c-.881-.816-1.394-1.335-1.693-1.657s-.384-.446-.4-.46c.043-.193-.618-.717-1.008-.8-.251.029-.354-.053-.275-.219a.549.549,0,0,0-.389-.08.947.947,0,0,1-.6-.245c-.1-.082-.194-.384-.3-.465a.592.592,0,0,1-.08-.522c.047-.192-.015-.467-.585-.928-.4-.326-1.022-.6-1.253-.785s-.849-.46-1.206-.76c-.906-.516-1.223-.79-1.491-.547-.15.108-.279,0-.194-.164.2-.3-.614-.519-.848-.252-.15.107-.246.024-.127-.11s-.1-.327-.358-.547a8.409,8.409,0,0,1-.6-.767,11.1,11.1,0,0,0-.818-1c-.311-.342-.653-.676-.969-.965-.649-.576-1.225-.973-1.493-.855l-.227-.225c.043-.208-.3-.31-.438-.451a2.263,2.263,0,0,1-.591-.1c-.056-.056-.324-.078-.427-.193-.264-.023-.183-.2-.209-.229.107-.148.163-.352.086-.437-.1-.114-.047-.316-.073-.344a.74.74,0,0,0-.431-.223,1.1,1.1,0,0,1-.4-.255,1.253,1.253,0,0,1-.142-.216c-.049-.095-.1-.217-.174-.379-.131-.449-.312-.67-.573-.73-.371-.2-.415-.26-.33-.446a3.071,3.071,0,0,0-.532-.421c-.122-.081-.25-.159-.363-.221a.965.965,0,0,0-.251-.112,1.653,1.653,0,0,1-.473-.07,2.012,2.012,0,0,1-.239-.087,1.691,1.691,0,0,1-.23-.117,2.793,2.793,0,0,1-.806-.734c-.068-.16-.314-.26-.321-.286-.185.011-.194-.019-.049-.156L10.451.4a.259.259,0,0,1-.267-.232c.144-.192-.037-.167-.4-.138a2.325,2.325,0,0,1-.554.01A4.437,4.437,0,0,0,7.592.167c-.354.067-.9.127-1.25.191a1.7,1.7,0,0,0-.7.173,1.149,1.149,0,0,1-.51.191C4.955.755,4.789.837,4.8.885a2.06,2.06,0,0,1-.518.158L4.1,1.079c-.165.087-.152.139-.329.177a2.941,2.941,0,0,0-.806.409,1.971,1.971,0,0,0-.624.581,1.629,1.629,0,0,1-.271.44.758.758,0,0,1-.456.269c-.173.052-.153.111-.095.287l.046.136L1.564,3.36l-.231-.122-.283.289c-.151.116-.28.3-.259.359a.164.164,0,0,1-.106.245c-.042.015-.09.085-.134.188a1.812,1.812,0,0,0-.11.382,1.585,1.585,0,0,0,.033.825.659.659,0,0,1-.12.623c-.276.274-.378.455-.35.514a.8.8,0,0,1,.1.59.726.726,0,0,0,.08.446,1.059,1.059,0,0,0,.368.393c.062.1.263.358.512.686l.4.533c.139.179.279.369.408.56.209.309.37.558.5.729a3.412,3.412,0,0,0,.331.383.82.82,0,0,0,.567.239.635.635,0,0,1,.457.088,2.046,2.046,0,0,1,.391.419,3.506,3.506,0,0,1,.466.687,5.465,5.465,0,0,1,.394,1.188,7.115,7.115,0,0,0,.342.634c.154.257.343.555.547.86s.424.607.639.883a8.814,8.814,0,0,0,.61.715l1.089.928c.287.24.507.414.682.551A2.139,2.139,0,0,0,9.6,18.6a7.947,7.947,0,0,1,1.356,1.059A11.2,11.2,0,0,1,12.268,21l.892.772a1.729,1.729,0,0,1,.913.3c.3.016.473.166.59.031l.178.15c-.092.387.979,1.282,1.485,1.459a2.631,2.631,0,0,1,1.279,1.039l1.1.883c.418.564.948.984.94,1.206a1.194,1.194,0,0,1,.232.641,6.638,6.638,0,0,0,.659.75,2.162,2.162,0,0,1,.447.582.966.966,0,0,0,.494.163l.762.6.445.353c.226-.277.785-.062.672.077s.125.328.271.217l.1.081a1.325,1.325,0,0,0,.1.765.789.789,0,0,1,.222.407l.3.24c.131.106.543.21.739.37.256.212.352.291.648.071.18-.083.213-.057.213-.057-.085.163.095.539.584.956.829.942,1.034,1.134,1.416,1,0,0,.2-.056.261-.005a1.265,1.265,0,0,0,.7-.577c.095-.156.123-.13.151-.1.085.077.361-.157.731-.546a2.51,2.51,0,0,1,.429-.336A3.467,3.467,0,0,0,30.733,32a8.531,8.531,0,0,1,.59-.675,9.835,9.835,0,0,1,1.39-1.149s.155-.1.124-.129a6.685,6.685,0,0,1,.593-.425c.438-.324.6-.421.532-.482a.994.994,0,0,1,.218-.287c.532-.482.85-.674.918-.609a.92.92,0,0,0,.319-.19c.318-.192,1.819-1.483,1.948-1.607l.036.034.254-.252a3.365,3.365,0,0,1,.546-.469c.127-.126.127-.126.09-.162s.052-.2.015-.234a2.385,2.385,0,0,0,.19-.562c-.076-.073.049-.2.175-.328.164-.091.291-.217.51-.751a.673.673,0,0,0-.065-.768A1.846,1.846,0,0,0,38.189,22.325ZM2.4,3.583c-.131.173-.11.231-.319.179-.229-.11-.289-.286-.118-.343C2.306,3.3,2.495,3.3,2.4,3.583Zm1.508-.6c-.357.071-.393-.035-.069-.2s.512-.174.375-.018C4.249,2.863,4.08,2.924,3.91,2.984ZM4.573,2.7l-.186.011C4.37,2.658,4.54,2.6,4.54,2.6c.17-.058.17-.058.186-.011C4.726,2.588,4.742,2.635,4.573,2.7Zm1,.1.037.086,0,.01-.023-.053Zm.473,2.227c-.292.216-.39.047-.114-.209s.275-.251.477-.253S6.356,4.846,6.043,5.019Zm.618-3.457c-.357.069-.372.024-.067-.2a.443.443,0,0,1,.518-.153C7.323,1.271,7,1.452,6.661,1.561Z" transform="translate(78.752 187.555)"/><path class="b" d="M38.241,28.672c-.175-.158-.542-.254-.681-.382-.1-.1-.4-.127-.472-.191s-.263,0-.3-.031-.193.065-.263,0c-.193.065-.368-.1-.627-.584A12.6,12.6,0,0,0,34.078,26a4.768,4.768,0,0,1-1.456-.906c-.845-.947-1.332-1.556-1.613-1.932s-.36-.516-.377-.533c.061-.192-.576-.834-.974-.981-.264-.011-.363-.114-.267-.272a.617.617,0,0,0-.4-.149,1.091,1.091,0,0,1-.6-.354c-.1-.1-.168-.431-.267-.534a.629.629,0,0,1-.036-.553c.066-.192.028-.482-.526-1.067-.392-.412-1.013-.807-1.237-1.05s-.845-.64-1.195-1.025c-.9-.715-1.215-1.07-1.517-.868-.167.083-.294-.058-.19-.211.237-.27-.6-.668-.87-.435-.167.082-.261-.025-.126-.142s-.083-.365-.334-.648-.451-.792-.574-.933a13.613,13.613,0,0,0-.794-1.234c-.31-.427-.643-.856-.969-1.232-.654-.752-1.26-1.3-1.549-1.228l-.23-.291c.057-.219-.314-.4-.457-.582a2.555,2.555,0,0,1-.628-.222c-.056-.073-.34-.15-.452-.3-.285-.077-.2-.257-.224-.294.117-.143.177-.359.094-.469-.109-.147-.045-.363-.072-.4a1.008,1.008,0,0,0-.471-.336c-.446-.3-.446-.3-.8-1.106-.172-.544-.363-.839-.668-.961-.429-.308-.48-.383-.4-.592a4.344,4.344,0,0,0-.641-.61,3.733,3.733,0,0,0-.724-.518,2.429,2.429,0,0,1-1.081-.48,5.106,5.106,0,0,1-.55-.468,6.65,6.65,0,0,1-.523-.6c-.128-.229-.412-.376-.429-.414-.2.005-.219-.034-.117-.23L9.705.588C9.507.591,9.4.4,9.333.245c.057-.305-.124-.266-.488-.2a1.831,1.831,0,0,1-.565.065C8.224,0,7.509.167,6.682.524c-.33.144-.846.316-1.176.458a1.541,1.541,0,0,0-.64.33,1.043,1.043,0,0,1-.453.306c-.165.072-.308.19-.287.236a1.939,1.939,0,0,1-.472.265l-.165.073c-.143.12-.12.167-.285.241A3.558,3.558,0,0,0,1.982,3.642a1.092,1.092,0,0,1-.619.783C1.2,4.5,1.226,4.552,1.3,4.7l.05.1L1.115,4.73l-.247.308c-.136.129-.245.31-.219.361s.078.151-.083.232a.9.9,0,0,0-.2.544,1.325,1.325,0,0,0,.071.737c.109.2.006.383-.1.569-.261.272-.362.46-.334.511a.661.661,0,0,1,.1.529.733.733,0,0,0,.432.733c.057.1.25.326.487.622s.516.668.758,1.031c.779,1.2.847,1.276,1.328,1.346.421-.021.511.113.816.554a3.67,3.67,0,0,1,.741,1.952,17.509,17.509,0,0,0,1.911,3.39c1.681,1.821,1.99,2.16,2.359,2.333a9.514,9.514,0,0,1,1.3,1.326,12.9,12.9,0,0,1,1.229,1.623l.853.965a2.029,2.029,0,0,1,.922.49c.306.072.478.262.612.144l.171.19c-.13.387.906,1.524,1.424,1.81A3.261,3.261,0,0,1,16.7,28.367L17.8,29.508c.4.674.934,1.219.91,1.452a1.4,1.4,0,0,1,.2.721,8.291,8.291,0,0,0,.661.921,2.832,2.832,0,0,1,.448.7,1.236,1.236,0,0,0,.527.271l.8.789.474.464c.254-.252.854.084.728.21s.13.375.293.283l.11.106c-.09.162,0,.5.1.842a1.038,1.038,0,0,1,.243.481l.333.318c.148.141.605.331.829.541.3.28.409.386.732.2.2-.059.236-.024.236-.024-.088.164.124.607.722,1.164,1.04,1.207,1.349,1.483,1.782,1.393,0,0,.236-.027.312.041a.969.969,0,0,0,.724-.552c.084-.165.122-.131.16-.1.113.1.394-.126.76-.52a2.048,2.048,0,0,1,.441-.326,2.657,2.657,0,0,0,.524-.492,6.483,6.483,0,0,1,.571-.69,8.973,8.973,0,0,1,1.4-1.148s.159-.1.121-.132a6.494,6.494,0,0,1,.6-.427c.438-.329.6-.428.522-.494a.892.892,0,0,1,.206-.3c.522-.494.838-.692.91-.626a.874.874,0,0,0,.315-.2c.315-.2,1.754-1.553,1.875-1.685l.036.032.242-.264a3.637,3.637,0,0,1,.519-.5c.121-.132.121-.132.086-.164s.05-.2.014-.228a2.643,2.643,0,0,0,.186-.554c-.071-.064.05-.2.172-.327.157-.1.278-.232.5-.753C39.412,29.492,39.045,28.92,38.241,28.672ZM2.2,4.869c-.111.178-.086.228-.3.212-.235-.065-.311-.214-.15-.294C2.072,4.627,2.258,4.595,2.2,4.869Zm1.421-.777c-.345.115-.393.02-.1-.186s.483-.241.369-.068C3.938,3.929,3.778,4.011,3.617,4.092Zm.619-.37-.184.035c-.023-.046.137-.126.137-.126.161-.08.161-.08.184-.035C4.373,3.6,4.4,3.641,4.236,3.722Zm1.021.017.025.046L5.27,3.764ZM5.246,3.72l.009.015Zm.7,2.314c-.285.225-.388.049-.128-.217s.261-.266.467-.27S6.251,5.852,5.941,6.034Zm.4-1.094.072.123-.047-.08ZM6.128,2.285c-.345.115-.368.07-.11-.215A.392.392,0,0,1,6.5,1.837C6.732,1.885,6.451,2.127,6.128,2.285Z" transform="translate(119.589 183.974)"/><path class="b" d="M30.9,17.5c-.126-.09-.41-.082-.512-.156-.075-.056-.311-.008-.362-.046s-.211.066-.236.047-.16.1-.211.064c-.16.1-.288.005-.457-.348a5.893,5.893,0,0,0-1.351-.831c-.833-.206-.958-.315-1.11-.436a13.858,13.858,0,0,1-1.147-1.278c-.2-.255-.247-.356-.259-.367.07-.177-.393-.578-.708-.615-.217.048-.29-.017-.194-.171a.366.366,0,0,0-.314-.04.571.571,0,0,1-.461-.169c-.073-.064-.095-.327-.167-.392s-.046-.283.029-.457.075-.41-.322-.782c-.282-.261-.757-.461-.918-.616s-.636-.358-.887-.6c-.679-.408-.9-.639-1.18-.411-.151.1-.242.011-.136-.136.233-.27-.425-.432-.686-.187-.152.1-.22.031-.089-.092s-.026-.283-.2-.467a6.016,6.016,0,0,1-.371-.653A7.352,7.352,0,0,0,17.46,6.691c-.455-.485-.91-.811-1.167-.7l-.158-.19c.08-.184-.217-.261-.316-.381a1.816,1.816,0,0,1-.513-.065c-.038-.048-.276-.058-.353-.155-.239-.011-.135-.169-.154-.193.122-.133.209-.314.155-.386-.074-.1.015-.276,0-.3a.524.524,0,0,0-.365-.182c-.347-.158-.342-.162-.533-.723-.062-.392-.187-.582-.439-.627-.337-.166-.361-.216-.259-.385a2.075,2.075,0,0,0-.479-.359,1.983,1.983,0,0,0-.566-.276,1.7,1.7,0,0,1-.461-.04,1.977,1.977,0,0,1-.442-.16,2.563,2.563,0,0,1-.427-.27,3.393,3.393,0,0,1-.385-.366c-.084-.15-.316-.221-.328-.246-.186.028-.2,0-.073-.151L10.107.361a.259.259,0,0,1-.293-.2c.1-.222-.075-.174-.43-.085a2.468,2.468,0,0,1-.544.1A4.268,4.268,0,0,0,7.268.627c-.334.135-.848.307-1.182.441a2.154,2.154,0,0,0-.655.3,1.438,1.438,0,0,1-.472.268c-.167.068-.319.169-.3.2a2.706,2.706,0,0,1-.485.239L4,2.147c-.151.1-.136.138-.3.207A4.3,4.3,0,0,0,2.387,3.39a1.262,1.262,0,0,1-.685.669c-.164.074-.145.112-.091.225l.037.075-.218-.038-.271.265c-.144.114-.27.268-.251.307S.964,5.01.8,5.088A1.2,1.2,0,0,0,.53,6.142c.081.153-.038.312-.155.473C.1,6.86-.019,7.023,0,7.063a.454.454,0,0,1,.034.432c-.071.238.04.43.327.568.086.159.62.685.981,1.257.595.91.644.977,1.083.978.392-.066.46.033.692.366a2.248,2.248,0,0,1,.463,1.544,10.1,10.1,0,0,0,1.377,2.6c1.327,1.3,1.566,1.541,1.88,1.63A8.488,8.488,0,0,1,8.8,18.549l.663.682a1.3,1.3,0,0,1,.765.263c.262.009.4.142.523.017l.133.133c-.15.357.659,1.151,1.085,1.3a1.792,1.792,0,0,1,.982.926c.056.05.437.41.854.785.292.51.712.882.676,1.089a.984.984,0,0,1,.124.589,4.6,4.6,0,0,0,.505.677,1.651,1.651,0,0,1,.338.528.747.747,0,0,0,.434.134l.634.534.377.313c.232-.272.723-.1.609.039s.089.3.234.19l.087.071a1.24,1.24,0,0,0,.037.722.669.669,0,0,1,.183.375l.268.213c.119.095.5.169.68.308.24.187.33.257.613.024.171-.094.2-.07.2-.07-.083.164.079.512.565.881.839.854,1.1,1.035,1.465.861,0,0,.2-.076.263-.031a1.232,1.232,0,0,0,.625-.651c.075-.166.106-.144.137-.121.092.067.335-.2.653-.631a2.7,2.7,0,0,1,.379-.388,3.548,3.548,0,0,0,.454-.555,8.831,8.831,0,0,1,.5-.742,12.422,12.422,0,0,1,1.2-1.338s.135-.124.105-.144c0,0,.24-.268.508-.517.373-.393.506-.518.449-.558a1.258,1.258,0,0,1,.182-.309c.449-.558.715-.808.771-.769a1.156,1.156,0,0,0,.265-.25c.266-.25,1.5-1.789,1.6-1.934l.026.019.208-.29a5.367,5.367,0,0,1,.443-.562c.1-.145.1-.145.078-.164s.052-.182.026-.2a3.46,3.46,0,0,0,.184-.527c-.051-.037.054-.181.158-.326a2.09,2.09,0,0,0,.449-.777C31.758,17.9,31.516,17.51,30.9,17.5ZM2.443,4.348c-.127.151-.108.189-.306.193-.216-.033-.271-.146-.109-.223C2.354,4.165,2.534,4.124,2.443,4.348Zm1.443-.735c-.342.121-.376.05-.067-.138s.488-.23.359-.086C4.21,3.458,4.048,3.536,3.886,3.613Zm.633-.344-.179.044c-.016-.034.146-.111.146-.111.163-.077.163-.077.179-.043C4.665,3.158,4.681,3.192,4.519,3.269Zm.954-.1.029.058-.013-.026Zm.035.072Zm.3,1.668c-.294.21-.368.082-.091-.157s.278-.238.471-.264S6.124,4.734,5.811,4.913Zm.517-.9L6.38,4.1l-.034-.059ZM6.5,1.99c-.342.12-.358.088-.074-.152a.525.525,0,0,1,.492-.222C7.123,1.63,6.824,1.839,6.5,1.99Z" transform="translate(167.633 166.034)"/></g></svg>