<svg xmlns="http://www.w3.org/2000/svg" width="211.157" height="166.096" viewBox="0 0 211.157 166.096"><defs><style>.a{fill:#d5c067;}</style></defs><g transform="translate(201.863 -0.915) rotate(81)"><path class="a" d="M.287.716C.43.655.455.3.455.3.287-.322-.047.166.012.488-.061.519.215.747.287.716Z" transform="translate(33.001 2.156)"/><path class="a" d="M.065.03,0,.05.132.009Z" transform="translate(34.895 1.55)"/><path class="a" d="M0,0H0Z" transform="translate(34.892 1.6)"/><path class="a" d="M.778.587A2.094,2.094,0,0,0,1.409.363,1.907,1.907,0,0,0,1.681.186c0-.155-.453-.221-.857-.168S.023.213.009.377C-.07.389.381.64.778.587Z" transform="translate(37.965 0.171)"/><path class="a" d="M0,0Z" transform="translate(37.981 23.672)"/><path class="a" d="M0,0Z" transform="translate(57.02 23.646)"/><path class="a" d="M1.259.03C.95-.047.927.043.916.088A1.124,1.124,0,0,1,.265.069C-.376,0,.231.2,1.18.346c.32.033.641.064.663-.026S1.877.184,1.568.107Z" transform="translate(30.748 24.469)"/><path class="a" d="M.471,19.473a1.706,1.706,0,0,0,.126.786c.308.079.581.3.557.392A3.633,3.633,0,0,0,2,21.2c-.022.091.264.258.253.3l-.045.18c.3.122.585.29.562.379s.242.347.529.511a8.327,8.327,0,0,0,.839.586c-.022.089-.022.089-.64-.065l-.917-.275.895.364c.905.32.894.365,1.225.353.32.033.64.065.331-.012s-.309-.077-.3-.121a8.371,8.371,0,0,1,1.546.385c.309.077.916.276,1.225.353.618.154.618.154.663-.026.023-.09.045-.18-.264-.257l.011-.045a1.422,1.422,0,0,0,1.336-.093c.374-.184.374-.184.672-.063s.277.207.255.294a1.16,1.16,0,0,0,.586.283c.309.075.6.239.574.332-.011.045.264.259.241.35-.011.046.286.168.286.168.32.032.113-.457-.185-.577s-.213-.465.416-.353c.011-.043.022-.086-.277-.206-.288-.162-.191-.553.118-.471s.607.2.6.24c-.021.086-.021.086.288.164,0,0,.3.12.288.163-.032.128.277.206.916.276.629.113.639.071.042-.17-.606-.207-.462-.758.453-.48l.031-.118a.513.513,0,0,1-.156-.5,5.69,5.69,0,0,1,.2-.88,1.111,1.111,0,0,0,.338-.829,1.549,1.549,0,0,0-.134-.84c-.255-.218-.211-.333.1-.246l.074-.192c-.265-.2-.243-.258-.212-.342.317.074.349.006.078-.169l.044-.1s.042-.1-.2-.329c.04-.111-.152-.413-.072-.569.05-.1.018-.213-.086-.361a5.15,5.15,0,0,0-.511-.529c-.47-.446-.669-.751-.584-.875l.158-.21.083-.117c.267.178.051-.084.1-.131s-.171-.282-.414-.487c-.472-.428-.465-.434-.127-.336.364.038.577-.126.6-.594.039-.409.064-.438-.1-.708l.039-.03.039-.031c-.179-.263-.158-.279-.117-.312s.091-.052.26.215c0,0,.189.26.109-.058.063-.034-.007-.361.04-.389s-.057-.336-.057-.336c-.271-.578-.237-.6.119-.07.054-.02.216.257.241.248,0,0-.058-.318.048-.362.076-.032.035-.361-.052-.671-.058-.148-.058-.235-.013-.3a.478.478,0,0,1,.277-.146l.456-.144a.537.537,0,0,1,.223-.518,1.817,1.817,0,0,1,.444-.253,3.117,3.117,0,0,1,.738-.178c.449-.036.783-.058.783-.366.037-.316.247.012.258.331.009.16.061.162.2.086.069-.039.153-.077.269-.133a1.982,1.982,0,0,1,.436-.158c.063.017.153.041.269-.258a.308.308,0,0,1,.352-.151.277.277,0,0,1,.168.32l.1.036c.031.011.19-.269.225-.257s.093.048.335-.186c.319-.195.393-.158-.011.352l.13.065c.093.047.479-.07.65.035.19.138.339.267.543.019l.032.026a.984.984,0,0,0,.3-.012,1.824,1.824,0,0,0,.512-.117.969.969,0,0,1,.577-.109,2.741,2.741,0,0,1,.907.3c.06.078.371-.04.371-.04l.094.122c-.217.235.1.665.623.311l.029.043c-.12.114-.063.464.067.833a2.476,2.476,0,0,0,.263.546,1.49,1.49,0,0,0,.373.428A5.7,5.7,0,0,1,27.086,15.3a2.581,2.581,0,0,0,1.122,1.321c.015.047.349.045.364.092.3-.095.361.094.417.282.041.14.436.335.5.569a5.889,5.889,0,0,1,.86,1.967c-.3.125-.26.264.094.368.046.182.091.365-.206.487.023.091.034.137.343.06.011.046.011.046.332.015.332.014,1.039.221,1.128.582a6.868,6.868,0,0,1,.6,1.1,1.512,1.512,0,0,0,.532.794c.011.041-.021-.082.255-.285l-.074-.286a3.915,3.915,0,0,0,.852-.527,8.171,8.171,0,0,1,.843-.569c.288-.159.555-.406.533-.5-.032-.131-.065-.262.223-.426a.961.961,0,0,0,.279-.616,3.521,3.521,0,0,0,.038-.533c0-.211-.015-.45-.041-.718A24.512,24.512,0,0,0,34.8,13.235a22.751,22.751,0,0,0-2.719-5.5c-1-1.449-1.948-2.3-2.079-2.225L29.9,5.377c.254-.2-.194-1.191-.558-1.109-.136.077-.571-.25-.955-.61a5.9,5.9,0,0,1-.5-.532c-.132-.162-.2-.294-.15-.355-.083-.068-.525-.014-.767-.2s-.6-.431-.864-.225l-.264-.173c.042-.161-.047-.32-.548-.626A12.453,12.453,0,0,0,22.064.39a8.3,8.3,0,0,0-.959-.207A7.812,7.812,0,0,0,20.031.071L18.979.033c-.336-.012-.623,0-.89-.012C17.707,0,17.383-.005,17.124,0A2.224,2.224,0,0,0,16.567.1c-.254.093-.262.253-.031.56A3.249,3.249,0,0,1,15.8.9c-.271.072-.543.193-.873.312s-.694.251-1.029.411a4.933,4.933,0,0,0-1.058.412,7.65,7.65,0,0,1-.778.394,2.583,2.583,0,0,0-.59.355,4.117,4.117,0,0,1-.629.409c-.752-.035-.9.032-1.307-.486-.206-.257-.282-.224-.356-.191l-.506.431A10.243,10.243,0,0,1,7.4,3.863,13.27,13.27,0,0,0,5.954,4.95a2.806,2.806,0,0,0-.489.531,1.106,1.106,0,0,0-.213.442c-.459.423-.569.534-.345.759.447.455.463.873-.087.542-.51-.386-.613-.272-.763-.1-.2.227-.253.771.135.81l.1-.109.1-.109c.048-.055.333.1.57.318l-.232.263c-.184.211-.229.264-.72-.142-.532-.351-.554-.35-.818-.006-.174.232-.088.653-.128.709s-.084.115.175.3c.513.377.541.882.241.756-.877-.431-1.177.031-1.826,1.129l-.623,1.2c.288.139.224.255.177.364A.819.819,0,0,0,1,13.83c.27.178.246.232.222.286s-.042.106.253.227.275.173.255.225-.02.052.275.171c.315.069.276.168-.356.037-.336-.013-.357.04-.357.04.277.169.236.272.176.428-.275.258-.531.513-.765.711a1.523,1.523,0,0,1-.631.373L0,16.537C.591,16.785.545,17.957.471,19.473ZM18.729.376c.094.007.2.022.161.338,0,0-.033.317-.126.306C18.491,1,18.515.682,18.729.376Zm-.487.291c-.022.317-.376.3-.551-.023l.092,0ZM17.627.641ZM11.076,23l.926.237c.308.08.277.2-.681.088l-.65-.028-.277-.206C10.128,22.843,10.469,22.8,11.076,23Z" transform="translate(23.287)"/><path class="a" d="M.737.543a.869.869,0,0,0,.382-.18A.37.37,0,0,0,1.224,0L1.082.046C.986.078.864.112.681.18L0,.455C.061.6.418.627.737.543Z" transform="translate(33.504 1.644)"/><path class="a" d="M.463,1C.532.978.671.929.867.879L1.515.723A1.515,1.515,0,0,1,2.249.231c-.06-.313-.359-.249-.805-.145C1.127.159.868.223.658.28A2.88,2.88,0,0,0,.211.45C0,.556-.043.654.038.8.132,1.1.264,1.058.463,1Z" transform="translate(35.145 0.721)"/><path class="a" d="M.318.1C.286-.02.275-.059,0,.142l.053.2L.075.417C.37.292.339.175.318.1Z" transform="translate(56.947 23.229)"/><path class="a" d="M0,0,0,0Z" transform="translate(9.739 52.939)"/><path class="a" d="M.847,0l-.4.425C.191.69,0,.917,0,.917.213,1.143,1.185.562.847,0Z" transform="translate(8.79 53.117)"/><path class="a" d="M.4.679C.493.571.372.221.372.221-.009-.318-.086.263.09.552.043.607.356.732.4.679Z" transform="translate(8.535 54.366)"/><path class="a" d="M.238.527c-.6.222.022.1.935-.2.3-.108.6-.213.592-.27s-.02-.087-.33-.015l-.31.072C.814.186.828.249.836.28A1.578,1.578,0,0,1,.238.527Z" transform="translate(13.839 78.093)"/><path class="a" d="M0,0V0Z" transform="translate(36.598 66.437)"/><path class="a" d="M.319.117C.274-.024.259-.07,0,.165L.074.4.1.491C.393.352.349.211.319.117Z" transform="translate(36.494 65.877)"/><path class="a" d="M0,0Z" transform="translate(36.599 66.441)"/><path class="a" d="M.05.021,0,.071.072,0Z" transform="translate(9.741 52.857)"/><path class="a" d="M.261,19.791a.74.74,0,0,0,.1,1.169c.306.108.3.162.288.217s-.018.11.3.159.306.1.3.155-.008.054.307.1c.323,0,.307.1-.34.114-.329.063-.336.119-.336.119.309.1.3.2.276.365-.4.606-.761,1.252-1.085,1.4-.006.113-.012.226-.012.226.636.091.873,1.269,1.307,2.87.025.381.39.725.393.777.317-.034.65.085.661.188a3.313,3.313,0,0,0,1,.227c.014.1.343.15.35.2l.029.194c.323,0,.654.037.672.13s.366.222.7.249a6.184,6.184,0,0,0,1.009.154c.019.085.019.085-.6.225l-.943.164.963-.076c.951-.129.96-.092,1.251-.247.3-.113.6-.223.292-.153s-.311.071-.32.03A9.555,9.555,0,0,1,8.367,28.4c.311-.07.94-.176,1.251-.247.621-.142.621-.142.591-.27-.015-.064-.03-.128-.341-.064l-.006-.033a1.915,1.915,0,0,0,1.2-.526.715.715,0,0,1,.6-.256c.32-.024.33.03.341.086a1.691,1.691,0,0,0,.642-.035c.313-.059.636-.068.644-.02,0,.025.328.034.341.079a1.458,1.458,0,0,0,.322-.022c.3-.089-.047-.223-.364-.191s-.356-.164.269-.289c0-.024-.006-.046-.324-.02-.32,0-.354-.227-.039-.265a2.633,2.633,0,0,1,.639-.037c.007.045.007.045.322,0a1.666,1.666,0,0,1,.322,0c.009.064.323.013.948-.119.628-.112.626-.125-.011-.074-.639.073-.668-.225.285-.3l-.006-.055a.3.3,0,0,1-.294-.187,1.3,1.3,0,0,1-.06-.467c.163-.112.156-.309.092-.514a1.105,1.105,0,0,0-.362-.518c-.306-.12-.293-.213.025-.194.005-.043.01-.086.017-.151-.3-.11-.3-.157-.286-.223.322.005.331-.057.024-.157,0-.022.013-.067.017-.089,0,0,.018-.087-.277-.243.013-.091-.248-.345-.212-.514.059-.211-.225-.409-.788-.741s-.83-.573-.77-.734l.1-.3.058-.15c.307.089.038-.1.066-.176s-.258-.2-.55-.335c-.58-.264-.576-.272-.24-.252.348-.019.447-.224.3-.646s-.125-.44-.374-.651l.023-.039.023-.039c-.256-.2-.244-.221-.219-.262s.049-.083.3.126c0,0,.26.191.06-.1.035-.055-.158-.354-.132-.4s-.184-.308-.184-.308c-.462-.478-.44-.509.072-.1.029-.042.275.175.288.156,0,0-.19-.3-.127-.383.044-.06-.131-.373-.333-.651-.221-.254-.15-.349,0-.531.127-.162.247-.292.247-.292a.754.754,0,0,1-.07-.61,2.029,2.029,0,0,1,.676-.95c.319-.271.579-.456.451-.8-.1-.366.2-.138.342.2s.156-.13.656-.812c.06-.032.147-.077.1-.462.01-.418.386-.582.513-.22l.1-.038c.032-.012.008-.409.044-.42s.1-.032.161-.451c.136-.446.213-.463.185.342-.034.011,0,0,.14-.036.1-.027.326-.478.516-.505.222-.044.41-.047.409-.447l.039,0a2.542,2.542,0,0,0,.5-.813.905.905,0,0,1,.33-.489,2.183,2.183,0,0,1,.789-.4c.088.016.221-.281.221-.281l.136.027c0,.314.474.442.6-.182l.046.012c-.005.157.239.406.553.606a2.277,2.277,0,0,0,.5.274,1.1,1.1,0,0,0,.5.117,2.4,2.4,0,0,1,.536.054,4.442,4.442,0,0,1,.66.209,4.238,4.238,0,0,1,1.241.813,2.318,2.318,0,0,0,.752.508,3.15,3.15,0,0,0,.714.167c.032.04.3-.138.329-.1.2-.256.339-.093.47.079.094.128.5.146.667.371a2.007,2.007,0,0,1,.5.413,4.369,4.369,0,0,1,.5.622c.151.217.284.425.382.582l.154.283c-.229.247-.155.391.213.408.108.2.214.41-.035.638.047.1.071.154.342-.018.025.053.024.052.321-.064.313-.066,1.092.05,1.286.529a4.356,4.356,0,0,0,.406.572,3.438,3.438,0,0,1,.509.875,2.8,2.8,0,0,0,.219.464,2.18,2.18,0,0,0,.23.332,1.746,1.746,0,0,0,.241.23.765.765,0,0,1,.227-.335c-.038-.125-.113-.333-.131-.385a2.873,2.873,0,0,0,.744-.76,9.912,9.912,0,0,1,.7-.869,1.633,1.633,0,0,0,.3-.438.574.574,0,0,0,.062-.369.616.616,0,0,1,.045-.722,1.9,1.9,0,0,0,0-1.051c-.054-.25-.134-.542-.242-.878a8.773,8.773,0,0,0-.43-1.128l-.3-.655-.168-.354L32.18,9a15.963,15.963,0,0,0-.958-1.564A17.753,17.753,0,0,0,28.185,3.98,14.645,14.645,0,0,0,22.2.749c-1.636-.419-2.671-.328-2.72-.2-.073-.013-.146-.02-.146-.02.045-.314-.751-.74-.929-.417-.05.16-.462.2-.859.2s-.784-.077-.785-.233c-.076,0-.3.331-.515.342s-.514.048-.57.373l-.217.023C15.418.669,15.3.6,14.905.665a4.894,4.894,0,0,0-.83.217c-.181.056-.385.125-.613.219s-.483.185-.759.323a4.568,4.568,0,0,0-.623.258c-.219.113-.446.243-.671.375-.447.276-.881.561-1.234.746C9.145,3.34,8.789,3.594,9.345,4c.124-.071-.741.8-1.656,1.953A12.031,12.031,0,0,0,6.422,7.518c-.254.24-.521,1-.744,1.255-.616.227-.709.338-1.242-.018-.267-.176-.314-.116-.359-.058a6.174,6.174,0,0,1-.245.572,9.123,9.123,0,0,1-.7,1.254A4.981,4.981,0,0,0,2.01,13.039c-.27.518-.325.655-.046.8.56.3.729.691.1.532-.6-.221-.665-.087-.752.114-.12.272.006.8.382.723l.055-.13.056-.13c.028-.065.345,0,.634.139l-.134.311c-.105.249-.131.312-.72.07a1.32,1.32,0,0,0-.56-.1c-.093.019-.125.1-.19.271-.087.226.128.56.108.614s-.038.109.261.217c.6.217.793.631.474.58-.938-.205-1.1.232-1.39,1.281-.083.3-.159.6-.206.813L0,19.5C.311,19.57.285,19.68.261,19.791Zm12.264,6.5.95-.109c.318-.034.319.031-.615.228l-.619.164-.328-.041C11.579,26.455,11.891,26.328,12.525,26.286Zm-1.8-23.4c.064-.03.129-.059.226.25,0,0,.1.309.034.338C10.8,3.561,10.7,3.257,10.727,2.885Zm-.525.626.312-.16c.1.307-.139.432-.374.193Zm-.072.038c-.147.079-.124.065,0,0Z" transform="translate(4.096 46.102)"/><path class="a" d="M.03.021,0,.051Z" transform="translate(9.813 52.795)"/><path class="a" d="M.533,1.634c.1-.1.47-.437.793-.715A1.5,1.5,0,0,1,1.769.143c-.157-.282-.39-.106-.728.176-.949.811-1.194,1.1-.956,1.3C.276,1.882.378,1.782.533,1.634Z" transform="translate(9.863 50.832)"/><path class="a" d="M.678.795A1.689,1.689,0,0,0,1.2.069C1.136-.08.811.03.513.226S-.041.717.005.882C-.052.924.389,1,.678.795Z" transform="translate(11.872 49.186)"/><path class="a" d="M1.5.432,1.215.291C.93.149.9.215.879.248A1.387,1.387,0,0,1,.255.068C-.353-.141.2.168,1.1.518c.3.106.606.214.638.151S1.786.574,1.5.432Z" transform="translate(70.584 66.45)"/><path class="a" d="M0,0Z" transform="translate(75.234 34.393)"/><path class="a" d="M36.478,17.434a8.937,8.937,0,0,1,.822-.655c.283-.186.519-.491.487-.6a.393.393,0,0,1,.172-.524,1.2,1.2,0,0,0,.2-.757,5.22,5.22,0,0,0-.21-1.522q-.127-.5-.319-1.1l-.1-.31-.054-.16c-.02-.057-.054-.132-.081-.2q-.173-.412-.377-.858t-.442-.925l-.247-.486c-.094-.169-.2-.344-.3-.519q-.318-.528-.683-1.085a11.9,11.9,0,0,0-.8-1.118,20.269,20.269,0,0,0-1.455-1.672C32.577,4.455,32.08,4,31.592,3.6c-.508-.378-1-.719-1.461-1.022a14.106,14.106,0,0,0-1.34-.728q-.312-.153-.594-.282c-.19-.082-.377-.142-.548-.2-.345-.119-.644-.21-.892-.275-.492-.14-.793-.133-.837-.067L25.768.971c.11-.3-.669-.871-.916-.607C24.694.6,23.04.314,23.091,0c-.083-.01-.375.248-.615.233s-.564-.049-.68.261L21.56.477c-.022-.161-.134-.25-.575-.277a5.283,5.283,0,0,0-.936.062c-.206.025-.44.058-.7.1l-.417.069c-.147.031-.3.07-.463.11a8.876,8.876,0,0,0-1.521.383c-.533.2-1.055.407-1.475.517a3.891,3.891,0,0,0-1.215.463c-.192.151-.159.308.116.55.147-.047-.943.631-2.139,1.568-.084.04-.168.084-.25.134a1.567,1.567,0,0,0-.224.152c-.125.1-.244.211-.355.317a3.74,3.74,0,0,1-.572.5c-.272.14-.574.718-.813.867-.6,0-.7.068-1.15-.4-.228-.233-.274-.2-.321-.166A4.2,4.2,0,0,1,7.482,6.577c-.65.513-1.395,1.1-1.377,1.526-.324.283-.4.355-.193.593.421.479.478.852-.027.448-.466-.438-.548-.366-.668-.26a.466.466,0,0,0,.165.721l.076-.072.075-.072c.038-.036.291.162.507.4l-.185.177c-.148.142-.185.177-.623-.285-.476-.426-.477-.426-.706-.205-.153.148-.082.522-.119.558s-.076.073.149.3c.446.451.46.89.2.7-.749-.6-1.046-.3-1.719.426l-.716.816c.241.208.174.285.107.362a.646.646,0,0,0-.4.99c.216.24.185.278.154.317s-.063.079.186.277.218.237.187.276-.031.039.219.236c.28.16.22.234-.343-.082-.313-.119-.344-.08-.344-.08.219.234.16.312.072.431a3.679,3.679,0,0,1-1.573.517l-.115.167c.5.418.135,1.441-.357,2.872-.186.291-.078.755-.1.8.275.161.479.446.432.529a3.585,3.585,0,0,0,.668.759c-.047.082.186.317.164.357l-.091.162c.257.192.492.423.452.5s.157.393.4.619a7.2,7.2,0,0,0,.691.75c-.039.077-.039.077-.609-.208l-.834-.468.794.547c.816.5.8.539,1.122.6.3.1.609.209.324.067s-.285-.142-.266-.18a9.27,9.27,0,0,1,1.425.712c.285.143.837.462,1.122.6.571.284.571.284.638.151.034-.067.068-.133-.215-.279l.017-.034a1.656,1.656,0,0,0,1.28.294c.377-.043.384-.038.644.143s.231.243.2.305a1.434,1.434,0,0,0,.517.389c.282.148.534.355.5.413-.015.03.224.262.195.32-.015.029.255.2.255.2.3.116.143-.281-.123-.46s-.151-.413.429-.136c.016-.028.032-.056-.231-.237-.247-.21-.1-.472.179-.314a1.882,1.882,0,0,1,.523.37c-.032.055-.032.055.246.211,0,0,.263.183.247.21-.047.082.233.234.82.491.572.283.585.26.059-.1-.541-.336-.328-.716.479-.2l.043-.077c-.226-.238-.035-.549.291-1.062a.854.854,0,0,0,.507-.6,1.514,1.514,0,0,0,.106-.816c-.181-.292-.1-.4.166-.226.036-.052.076-.1.135-.171-.192-.269-.151-.319-.092-.392.288.15.346.079.138-.172l.079-.1s.077-.1-.086-.4c.083-.094.011-.492.159-.662.188-.219.056-.551-.271-1.125s-.439-.924-.3-1.074c.093-.1.213-.222.263-.266l.147-.14c.247.205.1-.093.17-.164.1-.094-.1-.349-.315-.581-.412-.488-.41-.49-.042-.4.426.053.773-.266.938-.816.145-.521.176-.547.006-.818l.054-.044.055-.044c-.195-.252-.167-.274-.112-.319s.112-.088.3.168c0,0,.219.236.14-.1.083-.059.009-.4.066-.438s-.07-.342-.07-.342c-.338-.542-.3-.565.143-.1.058-.041.266.2.294.181,0,0-.092-.321.025-.395.087-.054,0-.378-.138-.666-.172-.269-.048-.347.2-.5.107-.073.21-.122.284-.164l.121-.066a.544.544,0,0,1,.094-.552,2.223,2.223,0,0,1,.945-.683c.4-.151.7-.264.619-.576-.05-.328.23-.078.329.231.052.152.1.138.215.022l.224-.241a2.086,2.086,0,0,1,.377-.325c.067-.012.165-.031.174-.362.076-.344.484-.423.558-.087l.105-.009c.035,0,.072-.335.11-.338s.107-.008.231-.347c.206-.345.285-.351.135.318.019,0,.064-.005.146-.008.107,0,.4-.318.594-.311a.727.727,0,0,0,.3-.029c.082-.029.145-.1.175-.268l.039.006a1.966,1.966,0,0,0,.622-.577,1.015,1.015,0,0,1,.421-.413,2.708,2.708,0,0,1,.871-.239c.088.026.285-.246.285-.246a.778.778,0,0,1,.133.051c-.066.318.389.523.647-.059l.045.02a.394.394,0,0,0,.106.3,1.86,1.86,0,0,0,.154.177,2.389,2.389,0,0,0,.188.2,2.294,2.294,0,0,0,.466.346,1.577,1.577,0,0,0,.258.115,1.084,1.084,0,0,0,.246.08,2.974,2.974,0,0,1,.559.151,2.828,2.828,0,0,1,.669.322,4.342,4.342,0,0,1,1.193,1.022,2.472,2.472,0,0,0,.741.641,3.529,3.529,0,0,0,.736.35c.028.044.346-.046.376,0,.263-.181.381.011.5.2.095.14.522.269.645.521a4.364,4.364,0,0,1,.89,1.191c.21.421.356.8.365.818-.278.164-.225.3.146.374.073.187.145.375-.138.527.037.093.05.138.351.034.015.047.015.046.331-.011.33-.012,1.056.171,1.177.562a3,3,0,0,0,.316.483,2.216,2.216,0,0,1,.373.74,2.005,2.005,0,0,0,.557.94c.012.048-.023-.1.251-.319l-.084-.343A3.484,3.484,0,0,0,36.478,17.434ZM9.537,25.229,8.932,25l-.226-.248c-.207-.281.121-.214.655.136l.827.479C10.463,25.532,10.418,25.613,9.537,25.229ZM15.3,2.145c-.173.054-.146.041,0,0Zm.011,0,.074-.02.369-.1C15.823,2.336,15.537,2.411,15.314,2.141Zm.946.085c-.217.054-.284-.258-.195-.608.075-.018.151-.037.209.277C16.275,1.9,16.333,2.209,16.261,2.227Z" transform="translate(65.386 37.305)"/><path class="a" d="M.012,0h0C0,0,0,0,.012,0Z" transform="translate(85.228 49.03)"/><path class="a" d="M0,0Z" transform="translate(101.028 59.701)"/><path class="a" d="M0,.146.058.388l.023.1C.381.369.346.223.322.125.287-.021.276-.069,0,.146Z" transform="translate(100.952 59.145)"/><path class="a" d="M.029.006,0,.022.04,0Z" transform="translate(75.193 34.397)"/><path class="a" d="M.765.692a1.681,1.681,0,0,0,.692-.6c-.048-.152-.427-.1-.788.034S-.02.512.007.674C-.063.705.414.84.765.692Z" transform="translate(77.589 32.209)"/><path class="a" d="M.025.014,0,.028.05,0Z" transform="translate(75.142 34.419)"/><path class="a" d="M.492,1.242l.8-.436a.886.886,0,0,1,.181-.3,1.606,1.606,0,0,1,.2-.2A1.057,1.057,0,0,1,1.882.168c-.126-.292-.43-.156-.827.041-.93.5-1.2.659-.986.9C.228,1.389.333,1.33.492,1.242Z" transform="translate(75.291 33.23)"/><path class="a" d="M0,0,0,0Z" transform="translate(75.112 34.461)"/><path class="a" d="M.015,0,0,.009Z" transform="translate(75.125 34.448)"/><path class="a" d="M.008,0,0,0Z" transform="translate(75.117 34.456)"/><path class="a" d="M.848,0l-.4.25L0,.534C.176.8,1.122.578.848,0Z" transform="translate(74.145 41.598)"/><path class="a" d="M.324.661C.42.6.345.269.345.269.048-.3-.079.161.05.457,0,.489.276.691.324.661Z" transform="translate(73.858 42.316)"/><path class="a" d="M.657.211c-.365.2-.7.476-.65.634C-.065.886.455.954.812.76A1.92,1.92,0,0,0,1.323.33,1.869,1.869,0,0,0,1.509.07C1.446-.074,1.028.019.657.211Z" transform="translate(42.713 79.066)"/><path class="a" d="M.915,0S.752.149.483.4L0,.867C.234,1.078,1.277.524.915,0Z" transform="translate(39.05 82.852)"/><path class="a" d="M.325.158C.278-.026.263-.084,0,.174l.075.3L.1.592C.4.463.355.279.325.158Z" transform="translate(68.756 98.176)"/><path class="a" d="M0,0Z" transform="translate(68.858 98.835)"/><path class="a" d="M1.21.317A6.1,6.1,0,0,0,.139,1.17c-.172.191-.18.3-.048.4.2.244.321.148.5.006.118-.1.521-.428.92-.69a1.634,1.634,0,0,1,.544-.75C1.884-.136,1.611.041,1.21.317Z" transform="translate(40.271 80.67)"/><path class="a" d="M0,.086.1,0,.059.037Z" transform="translate(40.105 82.563)"/><path class="a" d="M.015.02,0,.033Z" transform="translate(40.21 82.52)"/><path class="a" d="M9.388,27.283c.006-.087.012-.174-.306-.2l0-.044a1.478,1.478,0,0,0,1.3-.3c.336-.231.336-.231.651-.166s.308.15.3.234a1.214,1.214,0,0,0,.626.171c.318.024.629.127.623.215,0,.043.306.2.3.282,0,.043.312.109.312.109.321-.02.03-.435-.284-.5s-.291-.4.348-.394c0-.042.006-.083-.309-.148-.312-.108-.284-.483.034-.455a1.511,1.511,0,0,1,.629.129c-.007.08-.006.082.311.106,0,0,.315.066.312.107-.009.124.309.148.95.113.638.007.641-.034.012-.164-.632-.087-.587-.643.362-.524l.01-.118c-.309-.147-.269-.61-.193-1.344a1.728,1.728,0,0,0-.1-1.741c-.293-.178-.272-.312.047-.292l.036-.227c-.3-.154-.287-.216-.268-.307.326,0,.343-.093.042-.215l.024-.123s.024-.122-.265-.312c.025-.119-.227-.418-.18-.626.057-.273-.2-.463-.771-.815s-.83-.6-.768-.764l.1-.307.055-.168c.306.08.042-.1.073-.178.041-.1-.244-.245-.539-.364-.58-.266-.577-.27-.218-.312a.619.619,0,0,0,.4-.3.952.952,0,0,0,.033-.582c-.107-.442-.093-.477-.348-.67a.253.253,0,0,1,.029-.044l.03-.04c-.265-.176-.249-.2-.218-.24s.062-.086.322.1c0,0,.273.166.072-.1.043-.057-.156-.345-.12-.38s-.178-.276-.178-.276c-.474-.425-.448-.454.087-.1.035-.04.29.152.306.134,0,0-.187-.271-.119-.354a.059.059,0,0,0,.008-.044,1.452,1.452,0,0,0-.316-.545c-.225-.226-.131-.313.056-.5a2.46,2.46,0,0,1,.22-.186l.094-.076c-.177-.253-.165-.759.807-1.3.375-.179.663-.3.557-.593-.079-.309.225-.077.349.216s.175-.08.764-.518c.066-.01.161-.025.151-.346a.28.28,0,0,1,.553-.054l.1-.007c.034,0,.06-.324.1-.326s.107,0,.223-.313c.2-.315.28-.314.144.321l.147,0c.106,0,.4-.283.591-.267.23.02.419.071.476-.248l.04.007a1.952,1.952,0,0,0,.622-.521c.155-.279.54-.544,1.313-.607.089.03.29-.238.29-.238.047.014.091.034.136.053-.068.316.4.511.664-.07l.046.019c-.038.15.168.431.463.665a2,2,0,0,0,1.016.48,4,4,0,0,1,1.3.357,4.794,4.794,0,0,1,.714.378,3.611,3.611,0,0,1,.606.453,2.429,2.429,0,0,0,.412.3,2.266,2.266,0,0,0,.405.2,4.4,4.4,0,0,0,.8.2c.033.037.338-.1.373-.06.238-.212.377-.055.516.1.1.118.544.164.712.374a3.615,3.615,0,0,1,1.049.97,7.99,7.99,0,0,1,.553.8c-.245.212-.167.346.218.377.108.188.217.378-.042.578.049.1.074.143.356,0,.025.049.025.048.333-.049.328-.05,1.12.068,1.307.508a4.127,4.127,0,0,0,.405.524,3.574,3.574,0,0,1,.493.847,3.173,3.173,0,0,0,.435.822,3.305,3.305,0,0,0,.259.311.9.9,0,0,1,.217-.389L33.853,17a2.919,2.919,0,0,0,.767-.734,8.971,8.971,0,0,1,.712-.825c.25-.239.446-.617.4-.748a.507.507,0,0,1,.075-.638,1.526,1.526,0,0,0,.046-.919,7.936,7.936,0,0,0-.571-1.73,12.466,12.466,0,0,0-.586-1.171q-.177-.316-.382-.66t-.459-.7A20.71,20.71,0,0,0,31.178,5.7a19.268,19.268,0,0,0-5.555-3.817c-.412-.175-.786-.321-1.116-.44s-.641-.2-.888-.258c-.489-.124-.794-.137-.839-.069l-.155-.053c.109-.3-.665-.9-.93-.632-.086.141-.556.1-1-.011S19.815.161,19.846,0c-.088-.016-.4.252-.653.21s-.616-.075-.735.231L18.2.416c-.029-.161-.151-.259-.638-.293A12.236,12.236,0,0,0,14.727.43a8.915,8.915,0,0,0-1.72.441l-1.646.613a4.346,4.346,0,0,0-1.324.582c-.2.175-.149.327.17.534.078-.034-.165.156-.584.483-.215.159-.449.371-.714.6s-.564.483-.831.768a4.967,4.967,0,0,0-.881.8,6.128,6.128,0,0,1-.613.7c-.3.231-.58.942-.829,1.182-.213.066-.37.124-.5.157a.873.873,0,0,1-.849-.132c-.287-.157-.34-.1-.392-.038,0,0-.1.231-.284.571s-.425.794-.751,1.25c-.156.227-.339.468-.469.7s-.26.462-.364.678a3.743,3.743,0,0,0-.234.594.838.838,0,0,0-.014.431c-.236.476-.292.6-.005.733.574.277.755.634.12.485-.61-.2-.666-.083-.736.09-.1.236.055.7.421.651l.047-.114.047-.114c.024-.057.34.012.632.138l-.113.276c-.09.221-.112.277-.7.041-.615-.178-.616-.177-.756.175-.094.236.138.566.116.623s-.039.113.262.218c.6.212.793.636.473.59-.472-.1-.747-.03-.947.2a3.117,3.117,0,0,0-.44,1.116c-.087.306-.143.581-.2.791l-.081.343c.311.071.286.177.261.284a.683.683,0,0,0,.1,1.1c.3.111.293.162.283.213s-.02.1.294.159.3.107.294.157-.009.05.3.105c.321.007.306.1-.338.093-.33.045-.338.095-.338.095.306.1.29.2.266.35-.417.546-.8,1.088-1.141,1.2l-.027.2c.624.133.807,1.2,1,2.616-.028.324.265.668.261.714.318.026.624.188.616.278a3.776,3.776,0,0,0,.928.388c-.007.089.3.2.3.245l-.013.177c.314.068.626.179.619.267s.3.288.61.4a8.371,8.371,0,0,0,.929.416c-.006.087-.006.087-.642.043l-.95-.11.944.2c.947.154.944.2,1.268.133.321-.021.642-.043.324-.065s-.318-.022-.315-.066a8.836,8.836,0,0,1,1.589.111c.318.022.95.11,1.268.133C9.376,27.457,9.376,27.457,9.388,27.283Zm3.619-1.424c.318.026.308.145-.655.192l-.645.073-.308-.147c-.3-.19.024-.288.655-.2ZM12.043,1.6c.085-.023.17-.045.254.262,0,0,.084.307,0,.328C12.057,2.259,11.962,1.955,12.043,1.6Zm-.321.432c.094.3-.219.409-.486.165l.081-.028Zm-.532.181Z" transform="translate(34.547 78.553)"/><path class="a" d="M.425.643A.282.282,0,0,0,.456.419,1.112,1.112,0,0,0,.4.2C.232-.007.118-.033.055.03A.5.5,0,0,0,.09.539C.039.6.375.7.425.643Z" transform="translate(38.756 84.025)"/><path class="a" d="M1.858.178c.006-.087.009-.13-.309-.153L1.231,0C.914-.019.908.068.9.112A1.186,1.186,0,0,1,.26.2c-.642.043-.009.131.95.11C1.531.286,1.852.265,1.858.178Z" transform="translate(43.248 109.333)"/><path class="a" d="M.125.008.061.028,0,.048Z" transform="translate(9.663 125.516)"/><path class="a" d="M.672.012C.338.047.011.167.007.328-.059.337.333.609.662.574a1.328,1.328,0,0,0,.7-.369C1.342.049,1-.032.672.012Z" transform="translate(12.319 124.146)"/><path class="a" d="M1.317.064C.189.293-.123.432.041.707c.1.3.225.263.413.207C.577.873,1.025.778,1.408.7A1.383,1.383,0,0,1,1.843.322a.559.559,0,0,1,.2-.074C1.981-.069,1.714-.022,1.317.064Z" transform="translate(9.874 124.737)"/><path class="a" d="M0,0H0Z" transform="translate(9.661 125.568)"/><path class="a" d="M34.241,10.186a18.214,18.214,0,0,0-3.4-4.215c-.358-.358-.742-.684-1.111-.99s-.72-.6-1.089-.849-.7-.491-1.029-.7-.659-.386-.951-.546l-.42-.221-.194-.1-.226-.105c-.293-.133-.549-.238-.762-.315-.427-.155-.681-.2-.732-.138L24.2,1.939c.162-.287-.463-.939-.728-.71-.1.13-.5.031-.862-.129s-.7-.371-.648-.524c-.071-.027-.378.2-.584.124S20.9.528,20.743.812l-.2-.07c.006-.162-.075-.289-.46-.393a6.888,6.888,0,0,0-.826-.161,10.854,10.854,0,0,0-1.42-.126A6.363,6.363,0,0,0,16.455.018,11.723,11.723,0,0,1,15.1.08C13.984.067,13.577.1,13.98.723c.068,0-.162.083-.559.216-.4.158-.957.373-1.557.624a9.532,9.532,0,0,0-1.648.712c-.3.1-.793.571-1.071.7C8.506,2.894,8.388,2.948,8,2.422c-.2-.262-.257-.234-.318-.208l-.393.377a6.309,6.309,0,0,1-1.008.763,12.369,12.369,0,0,0-1.161.872,1.675,1.675,0,0,0-.554.843c-.385.341-.478.429-.269.669.415.484.466.894-.046.511-.471-.427-.562-.332-.693-.19-.178.191-.207.7.146.784l.083-.092.083-.092c.042-.046.3.139.525.37l-.2.221c-.16.178-.2.222-.657-.223-.5-.4-.507-.4-.741-.095-.158.206-.072.623-.109.673s-.076.1.168.309c.483.418.522.908.24.755-.822-.514-1.1-.076-1.706.976-.172.306-.3.618-.412.842l-.17.373c.281.152.229.267.178.382a1.1,1.1,0,0,0-.295.352.908.908,0,0,0-.084.377.8.8,0,0,0,.219.578c.274.184.255.241.235.3s-.039.116.257.235.277.175.259.231-.018.056.279.172c.314.063.281.166-.351.051-.334,0-.353.059-.353.059.282.166.244.276.2.445-.477.578-.947,1.221-1.3,1.336L0,15.622a.732.732,0,0,1,.368.331,2.143,2.143,0,0,1,.243.62,7.441,7.441,0,0,1,.153.871c.023.16.033.343.062.505l.082.511c-.024.325.272.667.269.712.318.019.627.172.621.261a3.63,3.63,0,0,0,.935.35c0,.085.316.181.316.223l0,.168c.318.051.636.141.635.223s.316.252.634.335a7.606,7.606,0,0,0,.953.32c0,.078,0,.078-.638.081L3.673,21.1l.954.117c.955.072.954.108,1.274.029.319-.041.638-.08.319-.078s-.319,0-.318-.036A10.362,10.362,0,0,1,7.5,21.122c.319,0,.955.031,1.274.029.637,0,.637,0,.639-.136,0-.067,0-.133-.317-.135v-.034a1.823,1.823,0,0,0,1.277-.279.693.693,0,0,1,.638-.143c.318.039.318.1.317.161a1.589,1.589,0,0,0,.636.1c.319.005.636.068.636.125,0,.029.317.117.316.174,0,.029.318.056.318.056.319-.028,0-.278-.315-.312s-.317-.266.32-.276c0-.028,0-.056-.318-.094-.159-.033-.238-.115-.238-.187s.09-.125.249-.117a2.294,2.294,0,0,1,.632.082c0,.051,0,.051.314.064a1.309,1.309,0,0,1,.317.065c0,.081.319.09.955.062.637,0,.635-.026,0-.1-.634-.048-.607-.391.344-.3,0,.011,0-.056.005-.067a.338.338,0,0,1-.261-.275,1.007,1.007,0,0,1-.02-.236l.031-.2a.21.21,0,0,0,.149-.141.243.243,0,0,0,0-.1.391.391,0,0,0-.013-.057c-.006-.018-.015-.011-.024-.018l-.375-.154c-.3-.108-.3-.132.006-.027L15,18.636c-.3-.124-.294-.135-.291-.147.3.115.3.111.009-.029l.005-.017s0-.014-.28-.179c.007-.017-.262-.218-.242-.266s-.241-.257-.756-.693-.744-.711-.7-.784l.086-.131.047-.072c.257.215.03-.046.055-.083s-.2-.293-.438-.533c-.472-.489-.467-.5-.161-.335.165.068.278.056.351-.021a.583.583,0,0,0,.1-.446c-.019-.429.011-.442-.167-.743l.033-.025.033-.025c-.186-.292-.169-.3-.134-.331s.069-.053.249.246c0,0,.195.289.09-.048.052-.028-.043-.374,0-.4s-.085-.352-.085-.352c-.3-.627-.272-.646.1-.058.044-.017.216.287.235.279,0,0-.088-.338,0-.374.062-.026-.011-.373-.12-.7-.134-.318-.039-.371.169-.424l.333-.1a.511.511,0,0,1,.125-.506,1,1,0,0,1,.338-.215,2.1,2.1,0,0,1,.6-.1c.379-.014.668.018.649-.324.01-.334.218.006.254.35s.183.012.8-.214c.06.013.147.033.207-.288.119-.306.484-.228.493.114l.091.028c.03.01.114-.3.146-.293s.092.029.251-.26c.229-.267.3-.246.063.359l.126.039c.093.023.391-.205.552-.139.19.076.347.14.45-.165l.033.013a.725.725,0,0,0,.241-.119,1.681,1.681,0,0,0,.379-.3,1.4,1.4,0,0,1,1.241-.449c.071.04.29-.2.29-.2l.111.063c-.111.3.276.526.6-.02l.038.022c-.1.294.521,1.089,1.137,1.132a3.925,3.925,0,0,1,1.126.31,4.914,4.914,0,0,1,1.125.7,2.034,2.034,0,0,0,1.44.509c.03.03.316-.128.346-.1.23-.221.348-.092.466.036.088.1.5.075.65.239a2.66,2.66,0,0,1,.956.7,6.022,6.022,0,0,1,.526.593c-.227.23-.151.333.208.285.1.142.208.286-.025.508.051.071.077.106.336-.079.026.036.025.035.311-.113.309-.113,1.055-.186,1.25.128.1.152.667.443.944.875a1.808,1.808,0,0,0,.761.682.745.745,0,0,1,.16-.362l-.164-.286a3.612,3.612,0,0,0,.652-.781,9.645,9.645,0,0,1,.6-.835c.216-.253.375-.6.319-.682-.083-.13-.167-.258.043-.52a1.11,1.11,0,0,0,.018-.737A5.844,5.844,0,0,0,34.241,10.186Zm-21.3,9.71c.318.02.312.093-.649.129l-.643.056-.311-.1c-.309-.134.016-.205.65-.139ZM14.8.711Zm.053,0h.067c.2,0,.335.016.335.016C15.26,1.048,15,1.023,14.85.711Zm.806.362c-.2-.014-.2-.334-.072-.644.068,0,.137.01.137.329C15.722.759,15.722,1.078,15.656,1.073Z" transform="translate(0 126.735)"/><path class="a" d="M34.241,10.186a18.214,18.214,0,0,0-3.4-4.215c-.358-.358-.742-.684-1.111-.99s-.72-.6-1.089-.849-.7-.491-1.029-.7-.659-.386-.951-.546l-.42-.221-.194-.1-.226-.105c-.293-.133-.549-.238-.762-.315-.427-.155-.681-.2-.732-.138L24.2,1.939c.162-.287-.463-.939-.728-.71-.1.13-.5.031-.862-.129s-.7-.371-.648-.524c-.071-.027-.378.2-.584.124S20.9.528,20.743.812l-.2-.07c.006-.162-.075-.289-.46-.393a6.888,6.888,0,0,0-.826-.161,10.854,10.854,0,0,0-1.42-.126A6.363,6.363,0,0,0,16.455.018,11.723,11.723,0,0,1,15.1.08C13.984.067,13.577.1,13.98.723c.068,0-.162.083-.559.216-.4.158-.957.373-1.557.624a9.532,9.532,0,0,0-1.648.712c-.3.1-.793.571-1.071.7C8.506,2.894,8.388,2.948,8,2.422c-.2-.262-.257-.234-.318-.208l-.393.377a6.309,6.309,0,0,1-1.008.763,12.369,12.369,0,0,0-1.161.872,1.675,1.675,0,0,0-.554.843c-.385.341-.478.429-.269.669.415.484.466.894-.046.511-.471-.427-.562-.332-.693-.19-.178.191-.207.7.146.784l.083-.092.083-.092c.042-.046.3.139.525.37l-.2.221c-.16.178-.2.222-.657-.223-.5-.4-.507-.4-.741-.095-.158.206-.072.623-.109.673s-.076.1.168.309c.483.418.522.908.24.755-.822-.514-1.1-.076-1.706.976-.172.306-.3.618-.412.842l-.17.373c.281.152.229.267.178.382a1.1,1.1,0,0,0-.295.352.908.908,0,0,0-.084.377.8.8,0,0,0,.219.578c.274.184.255.241.235.3s-.039.116.257.235.277.175.259.231-.018.056.279.172c.314.063.281.166-.351.051-.334,0-.353.059-.353.059.282.166.244.276.2.445-.477.578-.947,1.221-1.3,1.336L0,15.622a.732.732,0,0,1,.368.331,2.143,2.143,0,0,1,.243.62,7.441,7.441,0,0,1,.153.871c.023.16.033.343.062.505l.082.511c-.024.325.272.667.269.712.318.019.627.172.621.261a3.63,3.63,0,0,0,.935.35c0,.085.316.181.316.223l0,.168c.318.051.636.141.635.223s.316.252.634.335a7.606,7.606,0,0,0,.953.32c0,.078,0,.078-.638.081L3.673,21.1l.954.117c.955.072.954.108,1.274.029.319-.041.638-.08.319-.078s-.319,0-.318-.036A10.362,10.362,0,0,1,7.5,21.122c.319,0,.955.031,1.274.029.637,0,.637,0,.639-.136,0-.067,0-.133-.317-.135v-.034a1.823,1.823,0,0,0,1.277-.279.693.693,0,0,1,.638-.143c.318.039.318.1.317.161a1.589,1.589,0,0,0,.636.1c.319.005.636.068.636.125,0,.029.317.117.316.174,0,.029.318.056.318.056.319-.028,0-.278-.315-.312s-.317-.266.32-.276c0-.028,0-.056-.318-.094-.159-.033-.238-.115-.238-.187s.09-.125.249-.117a2.294,2.294,0,0,1,.632.082c0,.051,0,.051.314.064a1.309,1.309,0,0,1,.317.065c0,.081.319.09.955.062.637,0,.635-.026,0-.1-.634-.048-.607-.391.344-.3,0,.011,0-.056.005-.067a.338.338,0,0,1-.261-.275,1.007,1.007,0,0,1-.02-.236l.031-.2a.21.21,0,0,0,.149-.141.243.243,0,0,0,0-.1.391.391,0,0,0-.013-.057c-.006-.018-.015-.011-.024-.018l-.375-.154c-.3-.108-.3-.132.006-.027L15,18.636c-.3-.124-.294-.135-.291-.147.3.115.3.111.009-.029l.005-.017s0-.014-.28-.179c.007-.017-.262-.218-.242-.266s-.241-.257-.756-.693-.744-.711-.7-.784l.086-.131.047-.072c.257.215.03-.046.055-.083s-.2-.293-.438-.533c-.472-.489-.467-.5-.161-.335.165.068.278.056.351-.021a.583.583,0,0,0,.1-.446c-.019-.429.011-.442-.167-.743l.033-.025.033-.025c-.186-.292-.169-.3-.134-.331s.069-.053.249.246c0,0,.195.289.09-.048.052-.028-.043-.374,0-.4s-.085-.352-.085-.352c-.3-.627-.272-.646.1-.058.044-.017.216.287.235.279,0,0-.088-.338,0-.374.062-.026-.011-.373-.12-.7-.134-.318-.039-.371.169-.424l.333-.1a.511.511,0,0,1,.125-.506,1,1,0,0,1,.338-.215,2.1,2.1,0,0,1,.6-.1c.379-.014.668.018.649-.324.01-.334.218.006.254.35s.183.012.8-.214c.06.013.147.033.207-.288.119-.306.484-.228.493.114l.091.028c.03.01.114-.3.146-.293s.092.029.251-.26c.229-.267.3-.246.063.359l.126.039c.093.023.391-.205.552-.139.19.076.347.14.45-.165l.033.013a.725.725,0,0,0,.241-.119,1.681,1.681,0,0,0,.379-.3,1.4,1.4,0,0,1,1.241-.449c.071.04.29-.2.29-.2l.111.063c-.111.3.276.526.6-.02l.038.022c-.1.294.521,1.089,1.137,1.132a3.925,3.925,0,0,1,1.126.31,4.914,4.914,0,0,1,1.125.7,2.034,2.034,0,0,0,1.44.509c.03.03.316-.128.346-.1.23-.221.348-.092.466.036.088.1.5.075.65.239a2.66,2.66,0,0,1,.956.7,6.022,6.022,0,0,1,.526.593c-.227.23-.151.333.208.285.1.142.208.286-.025.508.051.071.077.106.336-.079.026.036.025.035.311-.113.309-.113,1.055-.186,1.25.128.1.152.667.443.944.875a1.808,1.808,0,0,0,.761.682.745.745,0,0,1,.16-.362l-.164-.286a3.612,3.612,0,0,0,.652-.781,9.645,9.645,0,0,1,.6-.835c.216-.253.375-.6.319-.682-.083-.13-.167-.258.043-.52a1.11,1.11,0,0,0,.018-.737A5.844,5.844,0,0,0,34.241,10.186Zm-21.3,9.71c.318.02.312.093-.649.129l-.643.056-.311-.1c-.309-.134.016-.205.65-.139ZM14.8.711Zm.053,0h.067c.2,0,.335.016.335.016C15.26,1.048,15,1.023,14.85.711Zm.806.362c-.2-.014-.2-.334-.072-.644.068,0,.137.01.137.329C15.722.759,15.722,1.078,15.656,1.073Z" transform="translate(-27.386 178.755)"/><path class="a" d="M0,.207l.114.2.046.08C.417.3.348.174.3.094.233-.028.21-.068,0,.207Z" transform="translate(34.012 143.12)"/><path class="a" d="M.01,0Z" transform="translate(17.52 136.463)"/><path class="a" d="M.265.7C.382.645.374.3.374.3.182-.308-.062.143.014.458-.045.483.207.721.265.7Z" transform="translate(8.105 126.215)"/><path class="a" d="M1.534,0,1.215,0C.9,0,.9.07.9.1A1.543,1.543,0,0,1,.257.211c-.638.079,0,.1.955.018.319-.038.638-.074.639-.136S1.853,0,1.534,0Z" transform="translate(8.828 149.364)"/><path class="a" d="M.632.517C.9.469,1.135.311,1.061,0l-.5.165C.4.214.261.276.161.317L0,.384C.064.533.364.568.632.517Z" transform="translate(8.474 125.683)"/><path class="a" d="M0,0V0H0Z" transform="translate(99.244 135.433)"/><path class="a" d="M0,.22.115.388.161.456C.4.242.332.141.286.074.217-.028.194-.061,0,.22Z" transform="translate(99.085 134.944)"/><path class="a" d="M0,.061.026.054C.227-.021.218-.017,0,.061Z" transform="translate(85.68 149.909)"/><path class="a" d="M0,0Z" transform="translate(99.245 135.436)"/><path class="a" d="M.082.006C.081,0,.079,0,.08,0h0L0,.03Z" transform="translate(85.626 149.967)"/><path class="a" d="M1.234.122l-.28.15C.675.421.7.464.713.484A1.993,1.993,0,0,1,.2.861c-.52.364.041.067.838-.451C1.3.232,1.567.059,1.546.024S1.514-.028,1.234.122Z" transform="translate(79.872 152.885)"/><path class="a" d="M29.39,6.783l-.46-.589c-.171-.209-.363-.433-.559-.659s-.443-.484-.682-.735c-.264-.265-.538-.536-.854-.824a16.164,16.164,0,0,0-3.887-2.642c-.414-.19-.791-.36-1.217-.514s-.851-.289-1.276-.4c-.445-.11-.878-.2-1.293-.269s-.854-.1-1.251-.129a12.452,12.452,0,0,0-2.16.069A11.707,11.707,0,0,0,14.2.4c-.791.24-1.2.448-1.212.53-.125.034-.233.072-.233.072-.046-.152-.411-.2-.785-.15a1.884,1.884,0,0,0-.521.143.394.394,0,0,0-.252.249c.012.169-.5.489-1.017.757-.457.256-.935.458-1.021.324a.927.927,0,0,0-.145.277.811.811,0,0,1-.226.345c-.214.149-.5.355-.377.661l-.207.152c-.136-.1-.275-.091-.607.183a6.417,6.417,0,0,0-.642.627c-.12.138-.253.3-.4.479s-.324.393-.47.609a5.939,5.939,0,0,0-.726,1.018,8.2,8.2,0,0,1-.624.984c-.554.7-.754.968-.078,1.134.017-.022.012.018-.012.1s-.07.232-.138.428c-.138.39-.318.929-.487,1.5a9.963,9.963,0,0,0-.52,1.5c-.137.24-.1.859-.219,1.091-.5.28-.54.377-1.162.2-.311-.089-.335-.039-.358.01a4.08,4.08,0,0,1-.295,1.451c-.306.734-.617,1.581-.4,1.935-.136.4-.17.5.133.6.6.2.845.491.208.395-.622-.145-.655-.043-.7.108a.461.461,0,0,0,.5.534l.029-.1.031-.1c.015-.05.335-.005.64.088l-.074.242c-.056.2-.07.244-.682.068-.627-.127-.627-.126-.714.18-.059.2.2.494.185.543s-.026.1.282.181c.617.16.851.531.529.5-.946-.122-1.062.285-1.254,1.3C.079,22.138,0,22.684,0,22.684c.315.045.3.154.286.263A.716.716,0,0,0,.48,24.078c.312.083.307.136.3.191s-.007.111.31.134.314.078.311.132,0,.054.314.076c.321-.03.315.072-.328.14-.325.089-.328.144-.328.144.316.072.306.176.3.342A5.075,5.075,0,0,1,.4,26.77l.012.24c.654.037.967,1.231,1.693,2.959a2.249,2.249,0,0,0,.552.812c.3-.091.664-.023.7.084a2.965,2.965,0,0,0,1.03.052c.034.1.375.086.394.134l.081.193c.315-.072.648-.1.687-.013s.422.137.75.084a5.552,5.552,0,0,0,1.024-.1c.045.073.045.073-.519.37l-.871.4q.462-.157.918-.324c.888-.376.906-.349,1.143-.568.258-.186.518-.367.238-.218s-.28.149-.3.115a10.073,10.073,0,0,1,1.4-.739c.281-.147.859-.417,1.138-.567.56-.3.56-.3.507-.386-.024-.046-.046-.092-.332.048l-.012-.025a2.529,2.529,0,0,0,1.054-.729.952.952,0,0,1,.547-.345c.3-.1.314-.073.327-.039a2.56,2.56,0,0,0,.6-.215,2.506,2.506,0,0,1,.6-.219c.006.012.308-.095.316-.075a2.86,2.86,0,0,0,.293-.126c.277-.152-.039-.084-.338.035s-.339.025.248-.223c0-.009-.008-.017-.308.09s-.344-.015-.043-.116l.416-.137a1.347,1.347,0,0,1,.192-.054c.005.016.005.017.3-.092l.151-.05c.075-.025.151-.047.151-.047a7.778,7.778,0,0,0,.9-.33l.221-.084-.065.02-.156.055c-.3.107-.454.145-.423.12a3.376,3.376,0,0,1,.476-.153.061.061,0,0,1-.021,0c-.019-.005-.035-.006-.043-.024l-.018-.081c.078-.035.116-.072.119-.11a.214.214,0,0,0-.06-.15,1.178,1.178,0,0,0-.4-.332c-.316-.074-.317-.149,0-.151,0-.037.005-.074.01-.129-.314-.075-.313-.116-.31-.174.322-.016.329-.072.016-.145l.008-.083s0-.079-.3-.21c.013-.088-.283-.313-.25-.487.032-.215-.251-.4-.846-.684s-.865-.509-.828-.681l.081-.319.044-.174c.314.054.033-.116.058-.2.033-.116-.264-.235-.57-.325-.6-.209-.6-.212-.242-.3.381-.154.511-.566.372-1.1-.154-.508-.131-.54-.418-.689l.025-.062.025-.062c-.3-.12-.283-.151-.258-.214s.053-.125.347,0c0,0,.306.094.065-.153.039-.09-.2-.343-.172-.4s-.234-.254-.234-.254c-.566-.294-.55-.33.071-.155.029-.062.33.042.345.012,0,0-.243-.227-.183-.349.044-.091-.2-.325-.465-.5-.285-.143-.219-.268-.089-.519l.219-.4a.537.537,0,0,1-.21-.512,2.329,2.329,0,0,1,.483-1.12c.247-.354.5-.654.242-.848-.227-.227.161-.207.43-.034s.152-.189.391-.942c.049-.052.121-.128-.086-.373-.16-.3.128-.6.4-.407l.076-.072c.025-.024-.166-.281-.14-.306s.076-.075-.054-.387c-.068-.357-.01-.406.32.149l.108-.09c.078-.067.073-.478.222-.577.172-.127.316-.224.148-.489l.031-.019a1.949,1.949,0,0,0,.078-.783c-.067-.307.015-.754.611-1.285.091-.026.11-.357.11-.357l.152-.036a.258.258,0,0,0,.359.127c.137-.057.262-.232.231-.549l.056-.006c.022.08.122.142.266.206a2.553,2.553,0,0,0,.533.171,3.856,3.856,0,0,0,.626.131,1.92,1.92,0,0,0,.6.017,2.725,2.725,0,0,1,.643-.012,3.977,3.977,0,0,1,.787.165,4.337,4.337,0,0,1,1.42.741,2.72,2.72,0,0,0,1.591.618c.032.034.329-.117.362-.082.229-.219.372-.076.5.065.092.1.528.109.68.29a3.143,3.143,0,0,1,.983.763c.294.312.508.6.523.616-.227.227-.151.331.21.284.1.142.209.284-.023.507.051.07.076.1.334-.082.025.035.025.035.309-.116.306-.118,1.037-.2,1.233.084.1.143.658.384.921.766a1.486,1.486,0,0,0,.757.542.742.742,0,0,1,.146-.351l-.165-.241a4.138,4.138,0,0,0,.623-.782,8.864,8.864,0,0,1,.591-.826c.213-.252.376-.577.326-.648-.074-.107-.154-.219.056-.475.168-.313.083-.863-.429-1.827A14.331,14.331,0,0,0,29.39,6.783Zm-24.33,1.5Zm.039-.05.034-.043.17-.215C5.548,8.175,5.416,8.343,5.1,8.231Zm.672-.32c-.111.131-.357-.071-.526-.364.038-.045.076-.09.32.116C5.565,7.662,5.808,7.868,5.771,7.911ZM13.01,27.58l.911-.288c.305-.092.313-.077-.578.27l-.587.254-.317.056C12.113,27.9,12.395,27.753,13.01,27.58Z" transform="translate(69.455 122.49)"/><path class="a" d="M.1.041.219,0,0,.064A.378.378,0,0,0,.1.041Z" transform="translate(85.456 149.983)"/><path class="a" d="M0,0H0L0,0Z" transform="translate(71.577 132.414)"/><path class="a" d="M.233.411C.21.46.544.5.567.454.613.358.375.121.375.121-.172-.211-.031.226.233.411Z" transform="translate(70.891 133.859)"/><path class="a" d="M.622.779A1.174,1.174,0,0,0,.775.025C.648-.072.4.129.218.386s-.282.555-.169.67C.016,1.106.446,1.031.622.779Z" transform="translate(72.498 128.683)"/><path class="a" d="M.491.395c-.51.849-.629,1.094-.327,1.2.279.154.333.057.413-.088.051-.1.255-.439.428-.73A1.03,1.03,0,0,1,1.076.064C.808-.109.68.092.491.395Z" transform="translate(71.481 130.593)"/><path class="a" d="M.431,0,.226.391,0,.831C.282.969.964.351.431,0Z" transform="translate(71.033 132.763)"/><path class="a" d="M0,.015Z" transform="translate(71.58 132.397)"/><path class="a" d="M.024.048,0,.092.051,0Z" transform="translate(71.526 132.43)"/><path class="a" d="M0,0,0,0Z" transform="translate(71.522 132.53)"/><path class="a" d="M.052.055,0,.1.111,0Z" transform="translate(107.043 81.938)"/><path class="a" d="M0,0H0Z" transform="translate(107.155 81.928)"/><path class="a" d="M.008,0,0,.007Z" transform="translate(107.033 82.056)"/><path class="a" d="M.1,1.816c.218.233.335.124.513-.039l.358-.322c.18-.15.416-.33.627-.491A2.01,2.01,0,0,1,2.205.119C2.029-.146,1.725.067,1.282.4.973.638.7.842.523,1a4.221,4.221,0,0,0-.387.4C-.036,1.613-.041,1.728.1,1.816Z" transform="translate(107.227 79.76)"/><path class="a" d="M.961.859C1.086.785,1.225.7,1.346.612a3.312,3.312,0,0,0,.312-.26A3,3,0,0,0,1.934.061C1.876-.087,1.33.051.829.3.38.539-.031.877.008,1.039-.078,1.091.523,1.1.961.859Z" transform="translate(109.931 77.808)"/><path class="a" d="M0,.021Z" transform="translate(107.157 81.905)"/><path class="a" d="M.307.1C.246-.027.226-.069,0,.2L.1.4l.04.083C.407.3.347.18.307.1Z" transform="translate(134.922 101.059)"/><path class="a" d="M4.668,27.678c.047.116.391.1.42.15l.109.215c.317-.083.651-.117.709-.02s.46.147.795.083a5.474,5.474,0,0,0,1.071-.142c.059.08.059.08-.485.415l-.849.456q.457-.178.916-.376c.879-.434.908-.408,1.112-.646.233-.2.471-.4.2-.235s-.269.168-.3.13a8.629,8.629,0,0,1,1.34-.826c.268-.164.825-.468,1.092-.636.534-.333.532-.332.461-.427-.036-.047-.071-.094-.346.062l-.019-.025a2.179,2.179,0,0,0,.979-.812.814.814,0,0,1,.512-.384c.3-.118.313-.082.337-.047a2.247,2.247,0,0,0,.593-.243,2.194,2.194,0,0,1,.592-.247c.008.014.309-.11.323-.09a2.532,2.532,0,0,0,.285-.142c.263-.17-.064-.085-.352.047s-.351.032.222-.248c-.005-.01-.01-.019-.305.1s-.352-.018-.058-.13l.41-.154a1.2,1.2,0,0,1,.191-.061c.008.018.008.018.3-.1l.148-.057a1.384,1.384,0,0,1,.15-.053,6.646,6.646,0,0,0,.878-.373c.584-.256.588-.248,0-.009-.523.218-.6.173.015-.04-.032-.006-.042-.046-.058-.152a.189.189,0,0,0,.11-.157.451.451,0,0,0-.067-.226,1.278,1.278,0,0,0-.41-.46c-.315-.095-.314-.2,0-.207,0-.045,0-.1.008-.168-.314-.09-.313-.141-.308-.217.323-.03.329-.1.016-.182l.008-.1s.011-.1-.293-.248c.009-.107-.273-.372-.245-.573.046-.255-.247-.45-.831-.759s-.858-.547-.814-.739c.03-.128.075-.283.091-.347s.032-.126.052-.187c.315.059.037-.121.064-.214.035-.122-.256-.247-.56-.346-.6-.225-.594-.23-.229-.32a.833.833,0,0,0,.42-1.058c-.123-.476-.11-.5-.379-.671l.025-.043.025-.044c-.278-.155-.265-.179-.239-.226s.052-.094.325.072c0,0,.285.148.067-.106.036-.064-.169-.327-.137-.372s-.2-.276-.2-.276c-.5-.4-.475-.431.086-.112.035-.045.3.13.319.11a.859.859,0,0,1-.12-.214.13.13,0,0,1,0-.132c.057-.061-.128-.332-.335-.578-.236-.212-.137-.327.059-.539l.325-.3a.541.541,0,0,1-.041-.552,1.567,1.567,0,0,1,.267-.382,1.5,1.5,0,0,1,.106-.11l.125-.09c.089-.062.19-.127.3-.2a1.38,1.38,0,0,0,.41-.222.256.256,0,0,0,.09-.312c-.058-.313.2-.056.284.249.046.148.083.139.166.057l.176-.194a1.385,1.385,0,0,1,.325-.226c.055,0,.133,0,.2-.306.126-.291.521-.249.5.1l.094.03c.03.009.157-.285.192-.274s.1.025.318-.234c.3-.214.377-.181.022.359l.136.06a.772.772,0,0,0,.3-.042.645.645,0,0,1,.363.024.829.829,0,0,0,.295.123c.09.014.177-.022.265-.155l.035.025a1.874,1.874,0,0,0,.811-.211.944.944,0,0,1,.557-.163,2.546,2.546,0,0,1,.942.183c.072.067.365-.1.365-.1l.112.1c-.175.26.192.65.656.21l.036.037c-.18.261.381,1.341,1.009,1.649a4.754,4.754,0,0,1,1.138.776A6.248,6.248,0,0,1,24.5,14.118a2.616,2.616,0,0,0,1.4,1.045c.025.042.349-.036.374.007.274-.162.376.01.478.182.078.128.5.229.622.446A6.083,6.083,0,0,1,28.7,17.56c-.259.192-.19.321.181.349.09.174.179.348-.082.537.045.087.067.13.351-.015.023.044.023.043.329-.057.328-.058,1.073.005,1.25.358.085.173.634.56.864,1.033a1.811,1.811,0,0,0,.723.759.738.738,0,0,1,.184-.352l-.144-.3a3.654,3.654,0,0,0,.712-.721,8.121,8.121,0,0,1,.688-.769c.244-.226.442-.545.4-.635-.066-.134-.132-.268.109-.5.206-.3.17-.92-.215-2.011a25.923,25.923,0,0,0-2.49-4.871A25.421,25.421,0,0,0,28,5.862a13.51,13.51,0,0,0-1.465-1.273c-.4-.285-.667-.418-.732-.372l-.116-.107c.108-.117.054-.384-.072-.606s-.364-.409-.529-.34c-.139.094-.544-.141-.92-.427-.408-.294-.772-.637-.684-.77a.893.893,0,0,0-.3-.012,1.294,1.294,0,0,1-.218-.013.629.629,0,0,1-.222-.075c-.264-.157-.625-.361-.866-.13l-.265-.146c.028-.164-.049-.313-.624-.57A9.509,9.509,0,0,0,19.745.57C19.441.488,19.095.4,18.7.32,18.5.28,18.3.234,18.067.2s-.492-.062-.758-.088A7.717,7.717,0,0,0,16.122,0c-.444,0-.915.024-1.378.064a12.1,12.1,0,0,0-1.35.2c-.425.085-.842.153-1.173.235-.489.114-.9.227-1.226.334q-.245.08-.426.155a1.945,1.945,0,0,0-.271.154c-.283.2-.243.355.129.548a5.892,5.892,0,0,1-.814.559c-.14.1-.31.2-.463.324l-.468.387L8.172,3.4a5.5,5.5,0,0,0-.5.471A6.256,6.256,0,0,0,6.7,4.81a8.689,8.689,0,0,1-.623.775,3.115,3.115,0,0,0-.448.644,3.132,3.132,0,0,1-.359.625c-.259.1-.465.212-.621.259a.747.747,0,0,1-.47.013A1.974,1.974,0,0,1,3.856,7c-.3-.134-.352-.068-.4,0,0,0-.1.247-.278.622-.086.19-.192.412-.32.651s-.261.5-.424.771-.314.553-.456.828-.241.511-.334.744a1.8,1.8,0,0,0-.169,1.067c-.21.508-.256.635.042.748.593.231.8.579.161.481-.62-.158-.671-.029-.733.157-.085.251.1.719.46.633l.04-.121.041-.121c.02-.061.342-.018.643.086l-.1.3c-.078.237-.1.3-.7.1-.626-.131-.627-.13-.738.241-.077.249.163.581.148.641s-.032.122.275.2c.614.168.83.6.506.577C.565,15.5.423,15.988.205,17.153.08,17.828,0,18.45,0,18.45c.315.042.3.165.284.289a.846.846,0,0,0,.193,1.267c.313.086.308.146.3.207s-.007.124.31.144.315.081.312.141,0,.06.315.078c.321-.04.315.074-.327.162-.324.105-.327.168-.327.168.314.074.309.194.306.377A6.073,6.073,0,0,1,.434,23l.014.264c.657.036.971,1.344,1.818,3.332a1.747,1.747,0,0,0,.353.628c.139.158.261.261.272.294.3-.1.666-.024.715.1A2.809,2.809,0,0,0,4.668,27.678ZM13.1,23.913l.9-.324c.3-.1.3-.083-.565.306q-.286.139-.569.285l-.32.064C12.213,24.283,12.5,24.107,13.1,23.913ZM13.158.669c.127-.017.255-.032.292.284,0,0,.037.316-.083.331C13.009,1.331,12.95,1.019,13.158.669Zm-.735.441c.1-.025.162-.034.162-.034.053.309-.39.414-.7.166L12,1.212Zm-.6.147Z" transform="translate(102.712 78.452)"/><path class="a" d="M.274,0s0,0,0,0C.171.033.08.063,0,.091A1.425,1.425,0,0,0,.274,0Z" transform="translate(118.833 103.281)"/><path class="a" d="M1.43.023C1.4-.012,1.382-.029,1.116.138L.85.306C.583.473.622.515.641.536A1.634,1.634,0,0,1,.179.946c-.473.4.061.067.8-.5C1.216.248,1.461.057,1.43.023Z" transform="translate(113.754 106.49)"/><path class="a" d="M.447.639C.555.518.426.185.426.185,0-.3-.1.295.094.559.039.621.394.7.447.639Z" transform="translate(105.693 83.573)"/><path class="a" d="M.894,0,.769.12C.681.2.585.306.458.443L0,.944C.264,1.129,1.235.523.894,0Z" transform="translate(106.013 82.278)"/><path class="a" d="M30.875,8.327c.07-.357-.217-.92-1.032-1.785L29.5,6.2l-.188-.181c-.073-.067-.109-.107-.234-.213-.441-.377-.892-.749-1.514-1.206A27.536,27.536,0,0,0,23.11,1.845a20.039,20.039,0,0,0-4.1-1.461A15.457,15.457,0,0,0,15.736,0c-.456.023-.865.029-1.22.075s-.657.1-.9.146c-.489.126-.751.235-.754.315L12.7.552C12.639.221,11.676.086,11.6.421c0,.151-.406.348-.824.453s-.842.181-.9.026c-.077.03-.2.394-.421.487s-.519.219-.467.544l-.217.095c-.1-.132-.24-.15-.631.049a4.923,4.923,0,0,0-.782.5L6.8,3c-.2.171-.413.382-.655.606A6.936,6.936,0,0,0,5.059,4.725c-.35.443-.669.908-.967,1.214-.8.976-1.088,1.338-.39,1.5.024-.029.008.022-.039.138l-.2.549-.317.849c-.117.323-.213.7-.332,1.081a5.888,5.888,0,0,0-.421,1.121,6.333,6.333,0,0,1-.225.959,13.647,13.647,0,0,0-.248,1.55c-.483.508-.528.659-1.164.557-.319-.049-.342.029-.366.105,0,0,0,.066,0,.181s-.024.276-.018.485a8.219,8.219,0,0,1-.153,1.552l-.09.446c-.03.149-.037.305-.054.456-.03.3-.054.6-.065.873a2.128,2.128,0,0,0,.156,1.191c-.03.589-.033.737.284.756.636.042.944.328.3.446-.639.049-.644.2-.648.42a.59.59,0,0,0,.05.236.528.528,0,0,0,.148.173.388.388,0,0,0,.439.047l0-.115v-.12c0-.072.321-.14.64-.137l0,.095c0,.067,0,.132,0,.217.005.225.007.281-.63.291-.636.067-.636.068-.627.419.006.235.332.456.333.513s0,.116.322.1c.633-.025.97.287.658.358-.942.16-.924.626-.823,1.677l.132,1.145c.317-.042.327.069.343.173a.688.688,0,0,0,.473,1c.322,0,.33.054.338.106s.016.1.33.052.322,0,.33.051.009.05.323,0c.305-.1.323,0-.287.2-.3.154-.287.2-.287.2.323,0,.341.1.368.246a3.733,3.733,0,0,1-.677,1.532l.041.2c.633-.077,1.158.895,1.816,2.224.082.328.472.578.483.624.308-.078.652-.019.677.072a3.78,3.78,0,0,0,1.008.079c.024.091.356.1.367.146l.047.181c.32-.036.651-.027.675.062s.379.186.711.192a8,8,0,0,0,1.018.106c.024.089.024.089-.592.254l-.935.2.959-.115c.946-.161.958-.117,1.242-.288.3-.127.592-.254.284-.171s-.307.083-.319.039a8.482,8.482,0,0,1,1.538-.414c.308-.083.935-.205,1.242-.288.615-.166.615-.166.568-.34-.023-.087-.047-.173-.354-.091l-.012-.044a1.432,1.432,0,0,0,1.127-.717c.241-.337.241-.336.561-.375s.341.045.363.13a1.176,1.176,0,0,0,.65-.036c.308-.082.639-.079.662.007.012.043.354.088.377.174.011.043.331,0,.331,0,.3-.125-.115-.426-.434-.386s-.408-.3.2-.5c-.011-.042-.022-.083-.341-.044-.33,0-.428-.378-.119-.458a1.436,1.436,0,0,1,.638-.076c.022.083.022.083.33,0,0,0,.319-.039.33,0,.032.124.34.043.936-.2.606-.2.6-.241-.043-.163-.629.117-.776-.454.164-.643.01.04,0,0-.029-.118-.334-.036-.467-.529-.637-1.289a1.411,1.411,0,0,0-.134-.984,1.96,1.96,0,0,0-.562-.783c-.339-.087-.366-.234-.059-.326l-.047-.254c-.335-.056-.347-.129-.362-.234.3-.122.289-.225-.037-.247-.005-.035-.016-.106-.021-.141,0,0-.021-.14-.359-.238-.027-.145-.37-.378-.4-.622-.033-.31-.381-.454-1.025-.6s-.981-.313-1-.53c-.014-.146-.023-.323-.021-.391L13.495,22c.318-.045,0-.138-.006-.243,0-.138-.324-.17-.643-.167-.637-.022-.641-.047-.324-.236a.466.466,0,0,0,.249-.386.6.6,0,0,0-.053-.248,1.044,1.044,0,0,0-.16-.246c-.291-.334-.288-.372-.6-.462l0-.049c0-.024.005-.048.005-.048-.314-.076-.31-.1-.3-.154s.016-.1.328-.016c0,0,.316.066.019-.121.011-.07-.283-.271-.275-.325s-.292-.216-.292-.216c-.613-.252-.607-.292.027-.134.013-.054.325.044.331.019,0,0-.287-.2-.262-.313.018-.078-.264-.3-.557-.479-.3-.144-.284-.274-.2-.515l.128-.395a.771.771,0,0,1-.295-.56,1.788,1.788,0,0,1,.052-.512,2.628,2.628,0,0,1,.262-.7c.2-.407.4-.693.149-.968-.228-.3.137-.221.395.035.13.126.166.08.191-.107a4.372,4.372,0,0,1,.176-.945c.049-.054.12-.134-.065-.483-.134-.4.2-.7.442-.413l.091-.068c.03-.022-.127-.385-.095-.409s.092-.069.011-.487c-.012-.472.071-.5.308.258l.136-.079c.1-.06.179-.559.375-.633.221-.107.417-.162.285-.53l.04-.012a2.16,2.16,0,0,0,.26-.876c-.015-.354.212-.721.876-1.073.1,0,.134-.315.134-.315h.15c.111.3.638.351.555-.288l.051,0a.546.546,0,0,0,.258.249,2.56,2.56,0,0,0,.509.25,4.333,4.333,0,0,0,.6.179A1.565,1.565,0,0,0,17.3,8.8a3.362,3.362,0,0,1,1.3,0,5.375,5.375,0,0,1,1.552.5,2.771,2.771,0,0,0,.963.3,3.893,3.893,0,0,0,.82-.019c.047.03.27-.206.32-.174.127-.3.331-.17.533-.041.147.1.594.016.852.188a2.7,2.7,0,0,1,.69.264,7.626,7.626,0,0,1,.759.441c.5.33.772.549.8.568-.159.281-.045.371.309.244.151.123.3.247.139.524.075.061.112.092.314-.155.038.031.038.031.278-.185.28-.185.984-.424,1.287-.171a6.974,6.974,0,0,1,1.2.608,1.836,1.836,0,0,0,.961.418.741.741,0,0,1,.032-.4l-.25-.219a3.6,3.6,0,0,0,.374-.942,8.235,8.235,0,0,1,.331-.978c.135-.3.191-.677.113-.743C30.86,8.733,30.746,8.636,30.875,8.327ZM4.322,6.668l.048-.059a3.171,3.171,0,0,1,.246-.288C4.819,6.564,4.629,6.789,4.322,6.668Zm.81-.423c-.153.161-.361-.087-.458-.448.053-.055.106-.111.308.142C4.981,5.939,5.183,6.192,5.132,6.245Zm9.71,23.787.926-.236c.309-.079.341.045-.552.408l-.584.285-.342-.047C13.938,30.353,14.213,30.148,14.842,30.032Z" transform="translate(44.601 176.704)"/><path class="a" d="M1.391.045,1.084.128C.776.211.8.3.811.341a1.161,1.161,0,0,1-.58.3c-.592.254.035.13.934-.207.3-.127.592-.253.569-.34S1.7-.038,1.391.045Z" transform="translate(57.025 209.011)"/><path class="a" d="M.246.062C.141-.03.106-.061,0,.27L.174.424l.07.062C.42.216.316.124.246.062Z" transform="translate(75.58 189.06)"/><path class="a" d="M0,0Z" transform="translate(75.825 189.545)"/><path class="a" d="M.011,0Z" transform="translate(57.117 188.609)"/><path class="a" d="M.6.562A5.141,5.141,0,0,0,.032,1.826c-.068.262-.029.377.125.424.277.166.336.023.427-.193l.18-.431c.079-.2.214-.409.319-.615A1.837,1.837,0,0,1,1.231.067C.979-.135.825.144.6.562Z" transform="translate(45.465 186.09)"/><path class="a" d="M.244.56C.221.635.561.612.583.54.627.392.381.107.381.107-.179-.242-.029.36.244.56Z" transform="translate(44.816 190.234)"/><path class="a" d="M.461,0,.215.585C.088.964,0,1.274,0,1.274c.146.068.383-.166.512-.457C.668.539.726.2.461,0Z" transform="translate(44.957 188.777)"/><path class="a" d="M.249,1.287A.982.982,0,0,0,.658.958,1.873,1.873,0,0,0,.9.029C.675-.2-.193,1.045.039,1.337.02,1.372.119,1.353.249,1.287Z" transform="translate(46.702 184.131)"/><path class="a" d="M0,0,0,0Z" transform="translate(45.488 188.627)"/><path class="a" d="M.029.1,0,.173.06.03Z" transform="translate(45.49 188.455)"/><path class="a" d="M1.4.063,1.1.157C.791.25.807.3.814.332a1.79,1.79,0,0,1-.582.28C-.356.872.256.7,1.147.341c.3-.126.592-.249.578-.3S1.7-.03,1.4.063Z" transform="translate(117.039 190.939)"/><path class="a" d="M.736,0,.385.393.108.709,0,.844C.2,1.076,1.085.566.736,0Z" transform="translate(109.606 162.811)"/><path class="a" d="M31.893,12.448a.54.54,0,0,1-.029-.622,1.726,1.726,0,0,0-.171-.981,7.886,7.886,0,0,0-.362-.8c-.161-.3-.355-.63-.586-1s-.517-.766-.835-1.207c-.336-.418-.692-.9-1.129-1.376A21.111,21.111,0,0,0,25.5,3.417a17.417,17.417,0,0,0-3.156-1.885A13.654,13.654,0,0,0,20.939.987a11.5,11.5,0,0,0-1.234-.34A8.749,8.749,0,0,0,17.91.419c-.424-.014-.665.05-.684.126L17.092.529c0-.161-.178-.346-.384-.451s-.433-.112-.5.041c-.033.164-.405.2-.773.2S14.7.239,14.688.08c-.07,0-.248.336-.452.349s-.479.03-.506.355l-.2.024c-.055-.154-.168-.221-.541-.173a8.4,8.4,0,0,0-2.037.7,6.183,6.183,0,0,0-1.19.59c-.405.263-.81.508-1.128.691-.235.124-.435.228-.592.321a1.179,1.179,0,0,0-.329.278c-.129.174-.072.327.2.533.114-.063-.661.743-1.479,1.811A14.087,14.087,0,0,0,5.311,7a1.438,1.438,0,0,0-.113.138,11.018,11.018,0,0,1-.512,1.044c-.551.191-.628.294-1.144-.089-.259-.19-.3-.138-.341-.086a5.165,5.165,0,0,1-.207.523A9.109,9.109,0,0,1,2.424,9.7c-.128.212-.267.425-.382.649s-.21.457-.294.671a1.975,1.975,0,0,0-.2,1.044c-.2.493-.244.622.029.8.547.354.737.756.136.537-.579-.277-.628-.15-.7.037-.1.25.053.781.4.747l.046-.121.046-.12c.023-.061.328.04.61.2L2,14.43c-.078.238-.089.3-.665,0-.593-.238-.593-.236-.708.155-.078.263.14.657.122.719s-.037.128.258.258c.59.265.784.747.471.686C.561,16,.445,16.543.187,17.8.089,18.545,0,19.222,0,19.222c.313.061.3.193.278.326a.956.956,0,0,0,.2,1.368c.313.095.31.158.306.223s-.007.129.311.152.315.085.312.147,0,.062.315.081c.321-.039.315.075-.327.167-.324.11-.326.175-.326.175.316.075.317.183.316.355a9.321,9.321,0,0,1-.478.862,1.562,1.562,0,0,1-.464.529c0,.1.01.206.01.206.32.013.572.284.795.727.107.221.234.492.347.794s.22.636.366,1.007c.055.356.426.654.434.7.314-.054.651.035.667.131a3.4,3.4,0,0,0,1.01.152c.021.095.353.121.363.167l.041.185c.321-.025.651-.009.671.08s.37.19.706.193a6.314,6.314,0,0,0,1.018.075c.024.08.024.08-.586.264l-.929.23.953-.146c.938-.2.947-.165,1.229-.336.293-.133.587-.262.283-.169s-.3.092-.316.054a10.123,10.123,0,0,1,1.525-.458c.306-.091.924-.243,1.229-.337.61-.185.61-.185.577-.3-.016-.056-.033-.112-.34-.027l-.009-.029a2.075,2.075,0,0,0,1.166-.573.767.767,0,0,1,.591-.285c.316-.046.327,0,.337.056a1.768,1.768,0,0,0,.633-.079,1.677,1.677,0,0,1,.641-.082c.006.019.331-.011.341.024a1.822,1.822,0,0,0,.316-.054c.3-.105-.05-.162-.367-.1s-.351-.127.265-.287c0-.021-.009-.041-.325.006-.32.026-.368-.18-.055-.239a2.927,2.927,0,0,1,.636-.081c.01.04.01.04.322-.023a1.841,1.841,0,0,1,.321-.026c.013.057.324-.014.939-.179.619-.148.617-.159-.016-.065-.634.126-.678-.178.269-.313,0,.019,0,0-.009-.057a.323.323,0,0,1-.312-.174,1.714,1.714,0,0,1-.095-.512c.291-.262-.056-.935-.365-1.141a.415.415,0,0,1-.239-.127c0-.021.079-.037.238-.039v-.054c-.318-.026-.317-.039-.317-.052.318.016.319.012,0-.032v-.018a1.148,1.148,0,0,0-.315-.087c0-.019-.308-.132-.3-.186s-.3-.178-.913-.446-.906-.467-.892-.556c.009-.06.028-.133.033-.162l.019-.088c.306.131.012-.057.022-.1s-.283-.233-.582-.394c-.6-.336-.6-.345-.265-.288.343.021.389-.192.2-.651s-.186-.483-.455-.732l.018-.039L12,18.491c-.274-.237-.264-.258-.245-.3s.038-.084.308.162c0,0,.278.229.045-.1.026-.057-.2-.4-.182-.439s-.218-.348-.218-.348c-.509-.553-.491-.585.06-.105.024-.043.291.212.3.193,0,0-.219-.338-.17-.424.035-.062-.175-.416-.407-.733-.248-.293-.18-.385-.05-.568l.1-.141.112-.157a.879.879,0,0,1-.119-.653,1.486,1.486,0,0,1,.175-.449,2.389,2.389,0,0,1,.442-.5c.312-.249.557-.431.4-.805-.134-.4.192-.125.368.244s.151-.123.608-.794c.059-.025.146-.062.062-.479-.028-.453.348-.565.5-.174l.1-.03c.031-.011-.025-.429.01-.436s.1-.02.124-.456c.1-.451.174-.466.216.386.018,0,.059-.013.136-.023.1-.006.285-.459.468-.461.216,0,.395,0,.36-.417h.037a1.885,1.885,0,0,0,.408-.788.585.585,0,0,1,.088-.251.868.868,0,0,1,.18-.2,1.593,1.593,0,0,1,.694-.326c.082.022.179-.279.179-.279a1.1,1.1,0,0,1,.126.038c.026.337.464.493.525-.154a.177.177,0,0,1,.042.015c.006.171.246.437.543.653a1.6,1.6,0,0,0,.918.4,1.545,1.545,0,0,1,.485.03,3.25,3.25,0,0,1,.613.172,4.1,4.1,0,0,1,1.214.7,1.962,1.962,0,0,0,.756.412,2.766,2.766,0,0,0,.7.066c.034.034.27-.18.306-.144.164-.282.316-.141.459.01.105.112.5.068.687.263a3.516,3.516,0,0,1,1.1.845,8.432,8.432,0,0,1,.643.739c-.192.272-.1.394.271.35.131.178.264.359.055.613.064.087.1.131.339-.076.033.045.032.044.31-.116a1.333,1.333,0,0,1,1.362.28,1.259,1.259,0,0,0,.19.191c.085.073.207.186.306.264a2.115,2.115,0,0,1,.529.527,1.735,1.735,0,0,0,.771.636A.732.732,0,0,1,30.494,15l-.167-.27a3.657,3.657,0,0,0,.638-.781,8.968,8.968,0,0,1,.6-.831C31.786,12.866,31.948,12.53,31.893,12.448ZM8.643,3.336l.057-.03.285-.151C9.1,3.454,8.879,3.572,8.643,3.336Zm.8-.053c-.173.077-.289-.221-.283-.575.06-.026.12-.052.23.249C9.391,2.957,9.5,3.258,9.443,3.283Zm3.625,21.9.941-.169c.315-.056.32.016-.6.263l-.608.2-.33-.014C12.133,25.415,12.438,25.266,13.068,25.184Z" transform="translate(106.647 164.311)"/><path class="a" d="M0,.212.114.4.16.48C.412.279.342.164.3.087.227-.028.2-.066,0,.212Z" transform="translate(136.923 179.969)"/><path class="a" d="M.4.676C.476.577.343.23.343.23-.039-.315-.075.243.1.535.064.585.36.726.4.676Z" transform="translate(109.378 163.938)"/><path class="a" d="M.011,0h0C0,0,0,0,.011,0Z" transform="translate(121.176 175.705)"/><path class="a" d="M.038,0,0,.036Z" transform="translate(110.487 162.445)"/><path class="a" d="M0,.052.047,0,.041.007Z" transform="translate(110.439 162.491)"/><path class="a" d="M.508,1.516,1.232.883A1.751,1.751,0,0,1,1.461.314.554.554,0,0,1,1.606.148C1.44-.136,1.235.031.936.294A7.242,7.242,0,0,0,.1,1.075c-.13.179-.128.29-.01.4C.281,1.736.369,1.647.508,1.516Z" transform="translate(110.568 160.814)"/><path class="a" d="M.452.193C.186.381-.045.648.008.808-.045.847.376.934.637.747A1.227,1.227,0,0,0,.987.329,1.6,1.6,0,0,0,1.1.072C1.03-.073.726.018.452.193Z" transform="translate(113.105 159.227)"/><path class="a" d="M0,0,0,0Z" transform="translate(110.435 162.546)"/><path class="a" d="M0,.018c.03-.028.02-.019,0,0Z" transform="translate(110.526 162.419)"/></g></svg>