<svg xmlns="http://www.w3.org/2000/svg" width="165.361" height="139.354" viewBox="0 0 165.361 139.354"><defs><style>.a{fill:#d18c84;opacity:0.214;}</style></defs><path class="a" d="M106.615.013C100.372-.094,94.085.5,87.87.948c-4.618.336-9.2.819-13.782,1.308-1.838-.082-3.678-.12-5.527-.061-3.824.123-7.65.387-11.449.782A83.444,83.444,0,0,0,36.259,8.326,57.5,57.5,0,0,0,20.307,17.4c-5.074,4.21-8.4,9.416-11.391,14.864C5.554,38.392,2.463,44.772.972,51.456a43.97,43.97,0,0,0,.146,19.016A69.059,69.059,0,0,0,5.675,85.122c2,4.3,4.82,9.153,10.107,10.971,5.545,1.907,12.088.81,17.592-.616A119.514,119.514,0,0,0,49.092,90.01c13.7-5.678,22.221-16.7,32.074-26.172A75.682,75.682,0,0,1,98.139,51.012c3.427-1.808,7-3.423,10.48-5.155,3.272-1.628,6.495-3.34,9.793-4.928,5.623-2.706,11.387-5.5,16.021-9.422,3.9-3.3,7-7.969,6.011-12.826C137.744,5.369,120.362.249,106.615.013ZM134.724,25.85c-2.823,4.379-7.945,7.445-12.854,9.9-6.04,3.015-12.575,4.745-19.034,6.946-3.52,1.2-6.889,2.736-10.246,4.236a62.318,62.318,0,0,0-9.844,5.349C71.881,59.728,64.782,70.4,54.594,78.464a60.264,60.264,0,0,1-14.179,7.9,86.777,86.777,0,0,1-15.655,5.147,16.324,16.324,0,0,1-6.9.364,9.371,9.371,0,0,1-4.744-3.046c-3.46-3.761-5.278-8.739-6.743-13.3a45.655,45.655,0,0,1-2.45-14.922A42.656,42.656,0,0,1,9,42.165a63.753,63.753,0,0,1,5.566-8.626,66.74,66.74,0,0,1,5.706-7.058,51.256,51.256,0,0,1,12.12-9.233A77.674,77.674,0,0,1,49.227,10.62c3.6-.978,7.288-1.835,11.015-2.542A132.142,132.142,0,0,1,78.768,6.911c5.4-.071,10.849-.194,16.25-.03a139.224,139.224,0,0,1,18.818,1.962A41.656,41.656,0,0,1,130.723,15.1c2.143,1.387,4.316,2.923,4.938,5.259A6.439,6.439,0,0,1,134.724,25.85Z" transform="translate(33.215 0) rotate(20)"/></svg>