<svg xmlns="http://www.w3.org/2000/svg" width="211.628" height="186.99" viewBox="0 0 211.628 186.99"><defs><style>.a{fill:#c6d8dd;}</style></defs><g transform="translate(0)"><path class="a" d="M211.5,71.219a41.626,41.626,0,0,0-1.126-7.621,110.1,110.1,0,0,0-4.049-13.247,74.52,74.52,0,0,0-13.667-23.57c-6.47-7.4-15.385-12.619-24.249-16.616C156.966,5,144.237-.622,131.375.056,120.589.624,110.024,3.8,99.885,7.319c-1.57.544-3.113,1.174-4.646,1.826q-1.363.465-2.716.931c-11.116,3.82-22.5,6.856-33.463,11.113C47.966,25.5,37.083,31.585,28.845,40.312,20.8,48.84,14.516,59.231,9.817,69.937A117.139,117.139,0,0,0,.433,104.822,92.146,92.146,0,0,0,2.4,134.365c3.958,17.692,12.218,36.063,27.442,46.81A31.929,31.929,0,0,0,54.4,186.417c10.912-2,20.344-9.171,29.471-15.059,11.068-7.14,21.873-14.688,33.438-21.024a125.764,125.764,0,0,1,17.617-8.026c5.647-2.043,11.479-3.493,17.255-5.119,9.782-2.753,19.654-5.813,28.473-10.976a70.063,70.063,0,0,0,23.177-22.545c4.91-7.592,7.074-16.636,7.681-25.568A49.74,49.74,0,0,0,211.5,71.219Zm-9.387,7.3c-.078,1.045-.187,2.087-.311,3.128l0,.024c-.032.206-.061.412-.093.619q-.144.922-.318,1.838a53.259,53.259,0,0,1-1.467,5.918c-.3.948-.621,1.887-.963,2.818-.158.429-.33.853-.493,1.28l-.017.047c-.119.27-.238.539-.361.808a39.5,39.5,0,0,1-2.764,5,75.163,75.163,0,0,1-9.939,12.122c-6.245,6.293-14.229,10.829-22.634,14.223-10.243,4.135-21,6.867-31.138,11.267-11.553,5.014-22.259,11.784-32.793,18.627-10.485,6.811-20.716,14.071-31.764,19.965a34.217,34.217,0,0,1-12.69,3.9,27.932,27.932,0,0,1-5.8-.115c.481.044-1.745-.305-1.072-.17-.432-.087-.864-.165-1.294-.262q-1.374-.31-2.714-.751t-2.647-.953c-.2-.078-.3-.118-.355-.138a2.18,2.18,0,0,0-.227-.112c-.511-.238-1.017-.481-1.516-.741a45.113,45.113,0,0,1-4.9-2.92,48.6,48.6,0,0,1-8.386-7.847q-.47-.552-.927-1.115c-.08-.1-.548-.69-.593-.742-.668-.869-1.309-1.76-1.931-2.662-1.265-1.833-2.445-3.725-3.55-5.659a113.158,113.158,0,0,1-6.047-11.934A100.75,100.75,0,0,1,5.59,119.924a83.572,83.572,0,0,1,1.935-32.67,100.967,100.967,0,0,1,14.264-32.2,66.827,66.827,0,0,1,11-12.75A66.746,66.746,0,0,1,47.05,33.124c10.173-5.01,21.119-8.345,31.9-11.759,5.861-1.856,11.657-3.893,17.462-5.9,1.752-.317,3.5-.614,5.185-.993,5.2-1.168,10.406-2.274,15.671-3.1a104.276,104.276,0,0,1,13.686-1.628,49.354,49.354,0,0,1,15.211,1.928c6.413,1.739,12.682,4.111,18.891,6.463,4.825,1.828,10.222,2.508,14.822,4.88,7.331,3.78,12.738,10.352,16.474,17.576a54.894,54.894,0,0,1,6.017,24.973C202.4,69.875,202.439,74.211,202.117,78.523Z" transform="translate(0 0)"/><path class="a" d="M107.772.015A183.221,183.221,0,0,0,88.824,1.11c-4.668.394-9.3.958-13.932,1.531-1.858-.1-3.718-.14-5.587-.071-3.866.144-7.733.453-11.573.915a75.231,75.231,0,0,0-21.08,6.263A56.659,56.659,0,0,0,20.527,20.372C15.4,25.3,12.034,31.4,9.013,37.775,5.614,44.95,2.49,52.42.982,60.247A59.449,59.449,0,0,0,1.13,82.511,90.456,90.456,0,0,0,5.737,99.664c2.017,5.04,4.872,10.717,10.217,12.846,5.605,2.233,12.219.949,17.783-.722a110.159,110.159,0,0,0,15.888-6.4c13.848-6.648,22.462-19.547,32.422-30.643C87.132,69.077,92.674,63.717,99.2,59.726c3.464-2.117,7.075-4.008,10.593-6.035,3.307-1.906,6.565-3.911,9.9-5.769,5.684-3.168,11.511-6.434,16.195-11.031,3.94-3.867,7.072-9.33,6.076-15.017C139.239,6.287,121.668.292,107.772.015Zm28.413,30.251c-2.854,5.127-8.031,8.717-12.994,11.586-6.105,3.53-12.711,5.555-19.241,8.133a113.293,113.293,0,0,0-10.357,4.96,60.882,60.882,0,0,0-9.951,6.263C72.661,69.932,65.485,82.422,55.186,91.868a59.153,59.153,0,0,1-14.333,9.252,79.6,79.6,0,0,1-15.825,6.026,14.321,14.321,0,0,1-6.974.426,9.457,9.457,0,0,1-4.8-3.566c-3.5-4.4-5.335-10.232-6.816-15.573A61.192,61.192,0,0,1,3.965,70.962,56.137,56.137,0,0,1,9.1,49.368a76.923,76.923,0,0,1,5.626-10.1A77.19,77.19,0,0,1,20.494,31a53.43,53.43,0,0,1,12.252-10.81,72.562,72.562,0,0,1,17.016-7.76C53.4,11.289,57.129,10.285,60.9,9.458A115.606,115.606,0,0,1,79.622,8.091c5.461-.083,10.966-.227,16.426-.035a122.226,122.226,0,0,1,19.022,2.3,38.742,38.742,0,0,1,17.072,7.327c2.167,1.624,4.362,3.422,4.991,6.157A8.535,8.535,0,0,1,136.185,30.266Z" transform="translate(33.629 43.476)"/></g></svg>