<svg xmlns="http://www.w3.org/2000/svg" width="164.266" height="92.819" viewBox="0 0 164.266 92.819"><defs><style>.a{fill:#397674;}</style></defs><g transform="translate(10.853) rotate(9)"><path class="a" d="M.53.3C.44.051.3-.094.15.07a.391.391,0,0,0,0,.615L.156.677C.282.558.394.443.53.3Z" transform="translate(4.434 49.232)"/><path class="a" d="M15.063,69.33a14.5,14.5,0,0,0,1.888-.292c.827-.035,1.934-.334,2.582-.37.478-.033,1.255-.313,1.572-.336s.612-.271.769-.284.293-.248.6-.274a1.559,1.559,0,0,1,.862-.237,15.442,15.442,0,0,1,1.917.007c2.28-.2,4.084-.374,7.246-.869a27.367,27.367,0,0,1,4.91-.8c.466-.017.894-.017,1.305-.023s.821-.007,1.2-.01l2.147,0c1.272.012,2.234.027,2.955.049,1.444.039,1.927.083,2,.081a13.571,13.571,0,0,0,4.293-.111c.587-.238,1.031-.249,1.184-.027a3.815,3.815,0,0,0,1.181-.251,7.479,7.479,0,0,1,2.073-.268c.446-.008,1.339.2,1.785.192a2.568,2.568,0,0,1,1.342.428c.3.222,1.045.432,3.571.4,1.782-.025,4.014-.277,5.056-.288s3.275-.259,4.915-.274c3.581-.256,5.077-.264,5.226-.717a.682.682,0,0,1,.9-.007c.149.45,2.847-.019,2.846-.471.15-.227.6-.23.6,0s1.051.219,2.254.208,2.857.2,3.463.194c2.709.2,6.528.267,9.77.182s5.9-.324,6.272-.672l1.217-.033a8.551,8.551,0,0,0,2.436-.073,15.223,15.223,0,0,1,1.812-.511c.305-.009,1.06-.266,1.669-.289a1.965,1.965,0,0,1,1.22-.047,1.406,1.406,0,0,0,1.088.405,5.792,5.792,0,0,1,1.234.17,7.833,7.833,0,0,0,1.823-.31,15.6,15.6,0,0,1,4.592-.254,11.14,11.14,0,0,0,3.989-.261c1.669-.339,1.977-.375,2.456-.183.232-.019.66-.081,1.187-.168l.409-.071c.071-.012.144-.024.217-.038l.111-.018.055-.01.022-.007a5.692,5.692,0,0,1,.625-.138c.57-.1,1.135-.207,1.6-.294a9.635,9.635,0,0,0,1.062-.244,14.228,14.228,0,0,1,3.286-.987c1.429-.294,3.153-.55,5.119-.8a13.931,13.931,0,0,0,2.057-.4c.3-.255.458-.269.979-.1.33-.035.829-.09,1.172-.135a5.352,5.352,0,0,1,1.92-.509,2.339,2.339,0,0,0,1.208-.211,1.03,1.03,0,0,0,.3-.263,3.985,3.985,0,0,0,.24-.366c.193-.281.419-.829.624-.9a.962.962,0,0,0,.55-.88,2.949,2.949,0,0,0-.338-1.511c-.2-.414-.406-1.151-.627-1.571a1.425,1.425,0,0,0-.235-.526.574.574,0,0,0-.119-.111,1.175,1.175,0,0,0-.134-.074c-.3-.006-.412-.238-.5-.44s-.3-.343-.415-.291a1.24,1.24,0,0,1-.376-.581l-.085-.211c-.193-.167-.3-.132-.38-.345a1.866,1.866,0,0,0-.327-.467l.477-.008a2.744,2.744,0,0,1,1.443-.253c.791.212.923-.021,1.174-.477.127-.23.38-.687.51-.691.4-.01.764-.921.73-2.048-.013-.449.1-1.13.082-1.579a1,1,0,0,0-.155-.9.769.769,0,0,1-.276-.671c-.007-.225-.141-.447-.269-.443a1.279,1.279,0,0,1-.147-.673l0-.226c-.133-.222-.261-.218-.266-.443a3.835,3.835,0,0,0-1.441-1.995,2.6,2.6,0,0,1-.794-.509,2.684,2.684,0,0,0,.026-.656,3.319,3.319,0,0,1-.193-1.123,5.325,5.325,0,0,1,.707-2.275s.147-.232-.008-.225a4.471,4.471,0,0,1,.426-.922c.277-.689.417-.92.113-.908a.543.543,0,0,1-.169-.443c.113-.908.389-1.371.686-1.385,0,0,.285-.239.273-.465a14.008,14.008,0,0,0,.546-3.184l.142-.006-.028-.449a2.01,2.01,0,0,1,.084-.907c-.016-.225-.016-.225-.155-.219s-.294-.212-.434-.206a2.109,2.109,0,0,0-.407-.4c.059-.061.12-.133.193-.217.155-.187.493-.523.573-.479.114.068.324-.065.583-.315a5.4,5.4,0,0,0,.857-1.116c.224-.388.659-.878.895-1.257a1,1,0,0,0,.354-.874,1.122,1.122,0,0,1-.033-.48,1.058,1.058,0,0,1,.136-.329c.111-.2.091-.511-.058-.6a1.106,1.106,0,0,1,.158-.708l.1-.207c-.057-.3-.235-.385-.139-.593a2.058,2.058,0,0,0-.315-1.346,4.077,4.077,0,0,0-.285-.458c.381.005.543-.186.794-.477.182-.213.548-.637.709-.625.48.037,1.06-.824,1.181-1.946.049-.449.283-1.11.332-1.558a.812.812,0,0,0-.066-.911.663.663,0,0,1-.255-.7c.022-.225-.118-.461-.283-.474a1.026,1.026,0,0,1-.094-.686l.022-.225c-.141-.236-.308-.25-.283-.474a3.812,3.812,0,0,0-1.633-2.163c-.647-.279-1.444-.78-1.236-1.219.019-.225-.15-.235-.654-.266-.161-.012-.266-.017-.335-.021l.523-.193-.466-.482a1.163,1.163,0,0,0-.637-.492c-.168-.01-.506-.031-.487-.256.007-.113-.481-.369-1.121-.607a7.748,7.748,0,0,0-2.024-.472,2.105,2.105,0,0,1-1.323-.518c-.311-.467-.636-.708-.806-.718a3.975,3.975,0,0,1-1.51-.283,4.811,4.811,0,0,0-2.54-.1c-.339-.011-1.227.022-2.369.045-.57.012-1.2.021-1.863.025s-1.34.009-2.012-.006c-2.187-.047-3.356-.057-4.112-.011a4.028,4.028,0,0,0-1.6.375c-.678.44-1.176.44-2.842.427a26.027,26.027,0,0,1-6.309-.7c-1.991-.227-8.6-.661-12.034-.65C99.173.658,97.735.638,96.59.862c-.979.111-3.326.148-5.769.121S85.837.844,84.457.7L80.379.6a13.481,13.481,0,0,1-3.133.373c-.832.2-1.657.183-1.665.409l-.824-.02C74.12.9,69.147.778,67.3.975A28.26,28.26,0,0,1,61.264.9c-.17,0-.843,0-1.791-.011L56.026.893C53.479.684,50.913.743,50.395.53A9.561,9.561,0,0,1,48.146.146C47.635.156,45.9,0,44.336.075A24.388,24.388,0,0,1,41.572,0s-.216.01-.554.06A10.45,10.45,0,0,0,39.71.344c-.858.052-2.552.178-3.738.265L33.781.784c.037.445-2.116.855-2.137.632s-1.193-.123-1.337.115l-.5.045A6.589,6.589,0,0,0,27.577,1.1,7.3,7.3,0,0,1,25.9,1.03l-1.484.139c-.657.061-2.116.427-3.094.52-1.306.124-1.8.172-2.071.65a1.026,1.026,0,0,1-.464.271c-.186-.21-1.677-.295-4.256-.059-5.006.222-6.251.3-7.011.812a2.446,2.446,0,0,1-.776.285c-.6.493-.739.728-.384,1.155.177.214.018.225-.141.237-.478.033-.6.493-.55,1.168a1.294,1.294,0,0,1-.268.7,1.421,1.421,0,0,0-.093.911,3.314,3.314,0,0,1,.246,1.113,4.977,4.977,0,0,1-.642,2.3s-.147.237.016.225a4.006,4.006,0,0,1-.426.93c-.279.694-.429.929-.1.909.18.215.18.215.2.441-.1.909-.4,1.378-.732,1.4,0,0-.316.245-.3.47a13.675,13.675,0,0,0-.635,3.2l-.168.01s.014.225.028.451a1.728,1.728,0,0,1-.113.911c.012.224.012.224.182.214s.352.205.522.2a3.659,3.659,0,0,0,.893.624c.34-.02.355.2.371.43-.156.235-.142.459.589,1.093.216.363,1.057.546,2.216.522-.072.208-.052.289.137.283.166.221.166.221.173.446-.128.905-.432,1.367-.749,1.377,0,0-.311.237-.3.462A14.036,14.036,0,0,0,6,29l-.159,0s.007.226.014.451a1.82,1.82,0,0,1-.132.907c.007.224.007.224.166.219s.326.214.485.209a3.512,3.512,0,0,0,.821.649c.32-.01.328.216.335.441-.152.23-.145.456.516,1.11.118.232.477.4.993.5a3.8,3.8,0,0,0,.072.939c.088.442.069,1.131.159,1.575a.9.9,0,0,0,.326.861.736.736,0,0,1,.432.618c.043.221.236.418.383.4a1.136,1.136,0,0,1,.279.641l.043.221c.191.2.338.174.381.4a4.044,4.044,0,0,0,1.987,1.736c.581.115,1.324.427,1.366.843-.382.118-.522.089-.724-.048a13.85,13.85,0,0,0-2.978,1.062A8.473,8.473,0,0,1,6.624,44.58a3.882,3.882,0,0,0-.982.327c-.13.238-.206.245-.461.042L4.643,45c-.134.24-.515.268-.82.294-.259-.1-.394-.081-.48.031l2.2,3.586c-.189.215-.366.4-.539.579-.016.015-.028.029-.043.044a1.667,1.667,0,0,1,.089.409c-.036.457-.12.463-.405.034-.024-.019-.045-.038-.066-.058-.055.051-.11.1-.167.161s-.112.1-.169.15c-.011.01-.023.019-.034.029A1.013,1.013,0,0,1,4,49.7c-.038-.221-.143-.426-.214-.417a2.117,2.117,0,0,1-.155-.662L3.6,48.4a.323.323,0,0,0-.167-.207c-.078-.047-.173-.089-.2-.2a.2.2,0,0,0-.076-.109.581.581,0,0,0-.079-.059.716.716,0,0,0-.148-.047.719.719,0,0,0-.235-.025c-.057,0-.115.005-.177.01l-.093.009c-.053.011-.105.023-.158.038a3.309,3.309,0,0,0-.326.1l-.045.016-.069.032-.137.069c-.09.047-.182.1-.27.158l-.133.088-.064.047-.089.074a3.407,3.407,0,0,0-.359.351,3.287,3.287,0,0,0-.306.411,3.1,3.1,0,0,0-.42,1.108A2.936,2.936,0,0,0,0,50.749a3.023,3.023,0,0,0,.033.5l.023.162.03.152c.023.1.052.2.084.3l.088.246a3.577,3.577,0,0,0,.144.348l.045.087.024.054.047.106c.033.071.07.141.109.213.041.1.083.19.133.288a4.4,4.4,0,0,1,.226.719l3.142.893a1.931,1.931,0,0,0,.508.589c.364.2.843.61.8,1.066.021.225.109.219.37.195l.175-.015-.24.248.307.424c.111.217.309.426.4.418s.264-.025.289.2a2.492,2.492,0,0,0,1.767.732.88.88,0,0,1,.75.371c.232.429.436.634.523.623a1.182,1.182,0,0,1,.805.135,1.194,1.194,0,0,0,1.047-.03c-.159.861-.464,1.292-.766,1.286,0,0-.312.222-.318.446a15.357,15.357,0,0,0-.88,3.145l-.163,0s-.008.226-.016.45a1.758,1.758,0,0,1-.2.9c-.008.226-.008.226.159.228s.325.231.492.234a3.507,3.507,0,0,0,.824.687c.337,0,.332.229.33.455-.173.221-.175.455.5,1.129.165.335.849.557,1.83.63A11.78,11.78,0,0,0,15.063,69.33ZM148.984,5.841c-.317-.246-.485-.257-.133-.461.521-.193,1.025-.162,1.006.063C149.821,5.893,149.636,6.107,148.984,5.841Zm.3,2.505c-.33-.021-.313-.246-.294-.471.2-.439.534-.419.663.041S149.6,8.591,149.284,8.347Zm-.055.674s-.165-.01-.146-.234l.184-.215c.165.01.146.235.146.235C149.4,9.032,149.4,9.032,149.23,9.02Zm1.09,2.782c.2-.439.366-.429.817.05q.7.387-.062.676C150.566,12.721,150.28,12.252,150.319,11.8Zm-3.209,5.741c-.36,0-.361-.221-.364-.447.173-.457.562-.455.739,0S147.47,17.77,147.11,17.543Zm0,.676s-.174,0-.175-.224l.178-.228c.179,0,.177.227.177.227C147.283,18.22,147.283,18.22,147.107,18.219Zm1.189,2.742c.184-.44.362-.427.732.071.2.139.28.265.256.377s-.146.205-.364.293C148.494,21.876,148.264,21.412,148.3,20.961ZM13.031,35.4c-.491-.156-.533-.379-.119-.667s.8.112.873.558C13.711,35.761,13.561,35.783,13.031,35.4Zm2.294,2.631c-.038-.223-.038-.223.11-.244,0,0,.149-.021.187.2l-.112.246C15.363,38.258,15.325,38.035,15.325,38.035Zm0,.913c-.223-.425-.113-.669.219-.49.3-.042.333.181.371.4C15.843,39.328,15.55,39.371,15.327,38.947Zm1.067,1.9c.3.162.44.164.281.355a4.327,4.327,0,0,0-.951.062C15.695,40.9,15.839,40.721,16.393,40.844Zm130.65,4.62c.124-.454.252-.456.645-.013q.589.328.011.677C147.316,46.36,147.05,45.915,147.044,45.464ZM10.268,51.887c-.227-.426-.225-.426-.093-.671s.441.174.505.62C10.824,52.273,10.494,52.313,10.268,51.887Zm-4.34.919c-.023-.225-.023-.225.061-.232.007,0,.084,0,.107.218l-.059.231C5.953,53.031,5.928,52.806,5.928,52.806Zm.011.9c-.13-.441-.07-.672.121-.463.168-.015.193.208.216.433C6.24,54.135,6.069,54.151,5.938,53.71ZM143.218,51.97c.029.223.029.225-.115.239,0,0-.144.014-.171-.209l.117-.239C143.191,51.747,143.218,51.97,143.218,51.97Zm-.532-.852c.09-.462.366-.491.562-.058s.086.671-.225.478C142.737,51.567,142.71,51.343,142.685,51.118ZM6.2,56.178c-.046-.448.014-.681.384-.488.2.208.284.2.136.441C6.48,56.379,6.219,56.4,6.2,56.178Zm138.443-1.421c.086-.467.229-.483.759-.1.495.154.546.375.115.669S144.7,55.2,144.639,54.757Z" transform="translate(0 0)"/></g></svg>