<svg xmlns="http://www.w3.org/2000/svg" width="16.336" height="14.666" viewBox="0 0 16.336 14.666">
  <g id="Arrow-right" transform="translate(369.821 3614.139) rotate(180)">
    <path id="Path_10369" data-name="Path 10369" d="M8.306,6.241c-.109,0-.217-.009-.324-.016V6.208l-.128.007C4.144,5.923,1.6,3.473,1.475,0L.285.044A7.293,7.293,0,0,0,4.976,6.77,7.27,7.27,0,0,0,0,13.6l1.19.037C1.3,10.108,3.957,7.628,7.829,7.409q.218.015.44.022Z" transform="translate(362.306 3613.622) rotate(180)" fill="#215584" stroke="#215584" stroke-width="1"/>
    <path id="Path_10369-2" data-name="Path 10369" d="M8.306,6.241c-.109,0-.217-.009-.324-.016V6.208l-.128.007C4.144,5.923,1.6,3.473,1.475,0L.285.044A7.293,7.293,0,0,0,4.976,6.77,7.27,7.27,0,0,0,0,13.6l1.19.037C1.3,10.108,3.957,7.628,7.829,7.409q.218.015.44.022Z" transform="translate(369.306 3613.622) rotate(180)" fill="#215584" stroke="#215584" stroke-width="1"/>
  </g>
</svg>
