<svg xmlns="http://www.w3.org/2000/svg" width="16" height="15.955" viewBox="0 0 16 15.955">
  <g id="Riviera-icon-line" transform="translate(-736.5 -1915.785)">
    <path id="Path_10366" data-name="Path 10366" d="M1.149,15.953,0,14.873A9.862,9.862,0,0,0,.015,1.1L1.171.029A9.66,9.66,0,0,0,8,2.8,9.672,9.672,0,0,0,14.835,0L15.95,1.114A9.823,9.823,0,0,0,16,14.883l-1.16,1.071a9.62,9.62,0,0,0-6.808-2.811,9.6,9.6,0,0,0-6.884,2.809M12.375,12.36a11.94,11.94,0,0,1,.01-8.786,11.717,11.717,0,0,1-8.8,0,11.713,11.713,0,0,1,.015,8.8,11.9,11.9,0,0,1,8.78-.012" transform="translate(736.5 1915.785)" fill="#215584"/>
  </g>
</svg>
