<svg width="1317" height="244" viewBox="0 0 1317 244" fill="none" xmlns="http://www.w3.org/2000/svg">
<path d="M50 212C25.5 216 2.5 229.998 0 235.498V0H1317V243.998C1313 153.196 1246.67 84.4984 1214 61.5C1178.4 31.1 1102 22 1056.5 22C1011 22 938 20 938 20H895C895 20 873.5 20 856 17.5C838.5 15 796 7 783.5 5C771.01 3.0016 736.833 1.33138 719.5 1.99796C706 3 681 10.5 665 16.4979C648.167 23.8312 621.5 36.5 570 37.9979C535.212 39.0098 504 55.6643 492.5 64.4976C478 74.9976 447.4 97.6976 441 104.498C434.6 111.298 412 125.998 401.5 132.498L372.5 147.998C372.5 147.998 350.825 157.27 336.5 161.998C314.553 169.24 279 175.998 279 175.998L197 190.498C159.5 194.998 76.4262 207.685 50 212Z" fill="white"/>
</svg>
