<svg id="Close-icon" xmlns="http://www.w3.org/2000/svg" width="27.725" height="26.902" viewBox="0 0 27.725 26.902">
  <path id="Close-icon-2" data-name="Close-icon" d="M27.719.379,27.725.06,24.772,0l-.008.317c-.13,6-4.228,10.4-10.7,11.49C7.681,10.837,3.546,6.516,3.265.52L3.251.2.3.337.313.655A14.3,14.3,0,0,0,9.03,13.392,14.188,14.188,0,0,0,.006,26.524L0,26.842l2.952.06.008-.317c.131-6,4.229-10.4,10.7-11.491,6.382.972,10.517,5.293,10.8,11.287l.015.317,2.953-.134-.015-.318A14.3,14.3,0,0,0,18.692,13.51,14.192,14.192,0,0,0,27.719.379" fill="#215584"/>
</svg>
