<svg version="1.2" baseProfile="tiny-ps" xmlns="http://www.w3.org/2000/svg" viewBox="0 0 36 37" width="42" height="43">
	<title>instagram-svg</title>
	<style>
		tspan { white-space:pre }
		.shp0 { fill: #397674 } 
		.shp1 { fill: none } 
		.shp2 { fill: none;stroke: #12505b } 
	</style>
	<g id="Layer">
		<g id="Layer">
			<path id="Layer" fill-rule="evenodd" class="shp0" d="M18 11.55C18.25 11.54 18.51 11.54 18.76 11.54C19.02 11.54 19.27 11.54 19.53 11.55C19.78 11.55 20.04 11.57 20.29 11.58C20.55 11.6 20.8 11.61 21.06 11.64C21.21 11.64 21.37 11.64 21.52 11.66C21.68 11.67 21.83 11.69 21.98 11.72C22.14 11.75 22.29 11.78 22.44 11.82C22.59 11.86 22.73 11.91 22.88 11.97C23.01 12.01 23.13 12.06 23.25 12.11C23.37 12.17 23.48 12.23 23.59 12.3C23.7 12.37 23.81 12.45 23.91 12.53C24.02 12.61 24.11 12.7 24.21 12.8C24.3 12.89 24.39 12.98 24.47 13.09C24.55 13.19 24.63 13.3 24.7 13.41C24.77 13.52 24.83 13.63 24.89 13.75C24.94 13.87 24.99 14 25.03 14.12C25.09 14.27 25.14 14.41 25.18 14.56C25.22 14.71 25.25 14.86 25.28 15.02C25.31 15.17 25.33 15.32 25.34 15.48C25.36 15.63 25.36 15.79 25.36 15.94C25.39 16.2 25.41 16.45 25.42 16.71C25.44 16.96 25.45 17.22 25.45 17.47C25.46 17.73 25.46 17.98 25.46 18.24C25.46 18.49 25.46 18.75 25.45 19C25.45 20.99 25.36 21.24 25.36 22.07C25.36 22.22 25.36 22.38 25.34 22.53C25.33 22.69 25.31 22.84 25.28 22.99C25.25 23.15 25.22 23.3 25.18 23.45C25.14 23.6 25.09 23.74 25.03 23.89C24.95 24.14 24.83 24.37 24.69 24.6C24.56 24.82 24.39 25.03 24.21 25.21C24.02 25.4 23.81 25.56 23.59 25.7C23.37 25.84 23.13 25.95 22.88 26.04C22.74 26.09 22.59 26.14 22.44 26.18C22.29 26.23 22.14 26.26 21.99 26.29C21.83 26.32 21.68 26.34 21.52 26.35C21.37 26.36 21.22 26.37 21.06 26.37C20.81 26.39 20.55 26.41 20.3 26.43C20.04 26.44 19.79 26.45 19.53 26.46C19.27 26.47 19.02 26.47 18.76 26.47C18.51 26.47 18.25 26.46 18 26.45C17.74 26.46 17.49 26.47 17.23 26.47C16.98 26.47 16.72 26.47 16.46 26.46C16.21 26.45 15.95 26.44 15.7 26.43C15.44 26.41 15.19 26.39 14.93 26.37C14.78 26.37 14.62 26.36 14.47 26.35C14.31 26.34 14.16 26.32 14.01 26.29C13.86 26.26 13.7 26.23 13.56 26.18C13.41 26.14 13.26 26.09 13.11 26.04C12.99 26 12.87 25.95 12.75 25.9C12.63 25.84 12.51 25.78 12.4 25.71C12.29 25.64 12.18 25.56 12.08 25.48C11.98 25.4 11.88 25.31 11.79 25.21C11.69 25.12 11.61 25.02 11.52 24.92C11.44 24.82 11.36 24.71 11.29 24.6C11.22 24.49 11.16 24.37 11.11 24.25C11.05 24.14 11 24.01 10.96 23.89C10.91 23.74 10.86 23.6 10.82 23.45C10.77 23.3 10.74 23.15 10.71 22.99C10.68 22.84 10.66 22.69 10.65 22.53C10.64 22.38 10.63 22.22 10.63 22.07C10.61 21.81 10.59 21.56 10.57 21.3C10.56 21.05 10.55 20.79 10.54 20.54C10.53 20.28 10.53 20.03 10.53 19.77C10.53 19.51 10.54 19.26 10.55 19C10.54 18.75 10.53 18.49 10.53 18.24C10.53 17.98 10.53 17.73 10.54 17.47C10.55 17.22 10.56 16.96 10.57 16.71C10.59 16.45 10.61 16.2 10.63 15.94C10.62 15.79 10.62 15.63 10.63 15.47C10.64 15.32 10.65 15.16 10.68 15.01C10.71 14.86 10.75 14.71 10.79 14.56C10.84 14.41 10.9 14.26 10.96 14.12C11 14 11.05 13.87 11.11 13.75C11.16 13.63 11.22 13.52 11.29 13.41C11.36 13.3 11.44 13.19 11.52 13.09C11.61 12.98 11.69 12.89 11.79 12.8C11.88 12.7 11.98 12.61 12.08 12.53C12.18 12.45 12.29 12.37 12.4 12.3C12.51 12.23 12.63 12.17 12.75 12.11C12.87 12.06 12.99 12.01 13.11 11.97C13.26 11.91 13.41 11.86 13.56 11.82C13.7 11.78 13.86 11.75 14.01 11.72C14.16 11.69 14.31 11.67 14.47 11.66C14.62 11.64 14.78 11.64 14.93 11.64C15.19 11.61 15.44 11.6 15.7 11.58C15.95 11.57 16.21 11.55 16.46 11.55C16.72 11.54 16.98 11.54 17.23 11.54C17.49 11.54 17.74 11.54 18 11.55ZM18 12.88C17.75 12.87 17.5 12.86 17.25 12.86C17 12.86 16.75 12.86 16.51 12.87C16.26 12.88 16.01 12.89 15.76 12.9C15.51 12.92 15.26 12.94 15.02 12.96C14.9 12.96 14.78 12.96 14.66 12.97C14.54 12.98 14.42 13 14.3 13.02C14.18 13.04 14.07 13.07 13.95 13.1C13.84 13.13 13.72 13.17 13.61 13.21C13.53 13.23 13.44 13.26 13.37 13.29C13.29 13.33 13.21 13.37 13.14 13.42C13.07 13.47 13.01 13.53 12.94 13.59C12.88 13.65 12.83 13.72 12.78 13.79C12.72 13.85 12.67 13.91 12.61 13.98C12.56 14.04 12.51 14.11 12.46 14.18C12.41 14.25 12.36 14.32 12.32 14.39C12.28 14.46 12.24 14.54 12.2 14.62C12.16 14.73 12.12 14.84 12.09 14.96C12.06 15.07 12.03 15.19 12.01 15.31C11.99 15.43 11.98 15.54 11.97 15.66C11.96 15.78 11.95 15.9 11.96 16.02C11.93 16.27 11.91 16.52 11.9 16.77C11.88 17.01 11.87 17.26 11.86 17.51C11.86 17.76 11.86 18.01 11.86 18.26C11.86 18.51 11.86 18.75 11.87 19C11.87 20.99 11.96 21.24 11.96 21.98C11.95 22.1 11.96 22.22 11.97 22.34C11.98 22.46 11.99 22.58 12.01 22.7C12.03 22.82 12.06 22.93 12.09 23.05C12.12 23.16 12.16 23.28 12.2 23.39C12.27 23.54 12.36 23.69 12.46 23.83C12.55 23.97 12.66 24.1 12.78 24.22C12.9 24.34 13.03 24.45 13.17 24.54C13.31 24.64 13.46 24.73 13.61 24.8C13.72 24.84 13.84 24.88 13.95 24.91C14.07 24.94 14.18 24.97 14.3 24.99C14.42 25.01 14.54 25.02 14.66 25.03C14.78 25.04 14.9 25.05 15.02 25.04C15.26 25.07 15.51 25.09 15.76 25.1C16.01 25.12 16.26 25.13 16.51 25.14C16.75 25.14 17 25.14 17.25 25.14C17.5 25.14 17.75 25.14 18 25.13C19.98 25.13 20.23 25.04 20.98 25.04C21.1 25.05 21.22 25.04 21.34 25.03C21.46 25.02 21.57 25.01 21.69 24.99C21.81 24.97 21.93 24.94 22.04 24.91C22.16 24.88 22.27 24.84 22.38 24.8C22.54 24.73 22.68 24.64 22.82 24.54C22.96 24.45 23.09 24.34 23.21 24.22C23.33 24.1 23.44 23.97 23.54 23.83C23.63 23.69 23.72 23.54 23.79 23.39C23.83 23.28 23.87 23.16 23.9 23.05C23.93 22.93 23.96 22.82 23.98 22.7C24 22.58 24.02 22.46 24.03 22.34C24.04 22.22 24.04 22.1 24.04 21.98C24.06 21.74 24.08 21.49 24.1 21.24C24.11 20.99 24.12 20.74 24.13 20.49C24.14 20.25 24.14 20 24.14 19.75C24.14 19.5 24.13 19.25 24.12 19C24.12 17.02 24.04 16.77 24.04 16.02C24.04 15.9 24.04 15.78 24.03 15.66C24.02 15.54 24 15.43 23.98 15.31C23.96 15.19 23.93 15.07 23.9 14.96C23.87 14.84 23.83 14.73 23.79 14.62C23.72 14.46 23.63 14.32 23.54 14.18C23.44 14.04 23.33 13.91 23.21 13.79C23.09 13.67 22.96 13.56 22.82 13.46C22.68 13.37 22.54 13.28 22.38 13.21C22.27 13.17 22.16 13.13 22.04 13.1C21.93 13.07 21.81 13.04 21.69 13.02C21.57 13 21.46 12.98 21.34 12.97C21.22 12.96 21.1 12.96 20.98 12.96C20.73 12.94 20.48 12.92 20.23 12.9C19.99 12.89 19.74 12.88 19.49 12.87C19.24 12.86 18.99 12.86 18.74 12.86C18.49 12.86 18.25 12.87 18 12.88ZM18 15.2C19.54 15.2 20.93 16.12 21.52 17.55C22.1 18.97 21.78 20.61 20.69 21.7C19.6 22.79 17.96 23.11 16.54 22.52C15.12 21.93 14.19 20.54 14.19 19C14.18 18.5 14.27 18 14.46 17.54C14.65 17.07 14.93 16.65 15.29 16.29C15.64 15.94 16.06 15.66 16.53 15.47C17 15.28 17.49 15.19 18 15.2ZM18 21.49C18.32 21.49 18.65 21.43 18.95 21.31C19.26 21.19 19.53 21 19.77 20.77C20 20.54 20.18 20.27 20.3 19.96C20.43 19.66 20.49 19.33 20.48 19C20.49 18.68 20.43 18.35 20.3 18.05C20.18 17.74 20 17.47 19.77 17.23C19.53 17 19.26 16.82 18.95 16.7C18.65 16.57 18.32 16.51 18 16.52C17.67 16.51 17.34 16.57 17.04 16.7C16.74 16.82 16.46 17 16.23 17.23C16 17.47 15.81 17.74 15.69 18.05C15.57 18.35 15.51 18.68 15.51 19C15.51 19.33 15.57 19.66 15.69 19.96C15.81 20.27 16 20.54 16.23 20.77C16.46 21.01 16.74 21.19 17.04 21.31C17.34 21.43 17.67 21.49 18 21.49ZM21.97 14.12C22.09 14.12 22.21 14.15 22.32 14.19C22.43 14.24 22.53 14.3 22.61 14.39C22.7 14.47 22.76 14.57 22.81 14.68C22.85 14.79 22.88 14.91 22.88 15.03C22.88 15.4 22.66 15.73 22.32 15.87C21.98 16.01 21.59 15.93 21.33 15.67C21.07 15.41 20.99 15.02 21.13 14.68C21.27 14.34 21.6 14.12 21.97 14.12Z" />
			<g id="Layer">
				<path id="Layer" class="shp1" d="M18 37C8.05 37 0 28.73 0 18.5C0 8.27 8.05 0 18 0C27.95 0 36 8.27 36 18.5C36 28.73 27.95 37 18 37Z" />
				<path id="Layer" class="shp2" d="M18 36.5C8.32 36.5 0.5 28.45 0.5 18.5C0.5 8.55 8.32 0.5 18 0.5C27.68 0.5 35.5 8.55 35.5 18.5C35.5 28.45 27.68 36.5 18 36.5Z" />
			</g>
		</g>
	</g>
</svg>