<svg xmlns="http://www.w3.org/2000/svg" width="199" height="50.809" viewBox="0 0 199 50.809"><defs><style>.a{fill:#13505c;}</style></defs><g transform="translate(0 0)"><g transform="translate(0 0)"><path class="a" d="M825.483,123.2l.005-.044a4.3,4.3,0,0,1,.47-1.416,12.606,12.606,0,0,1,.77-1.258l.025-.047a11.39,11.39,0,0,0,.337-1.321c.065-.349.133-.749.209-1.2a.533.533,0,0,0,.189-.275.425.425,0,0,0-.095-.491l-.093.086a.633.633,0,0,1,0-.391l.184-.568.009-.067a.932.932,0,0,0-.088-.312c-.044-.084-.084-.181-.118-.263a.631.631,0,0,1-.009-.368.345.345,0,0,0-.012-.3.328.328,0,0,0-.147-.132,10.37,10.37,0,0,0-1.219-3.713,9.749,9.749,0,0,0-2.6-2.843,7.94,7.94,0,0,0-2.74-1.049c-1.035-.207-2.172-.405-3.375-.589a1.455,1.455,0,0,0-.537,0c-.154.026-.267.042-.31.047a5.8,5.8,0,0,0-1.207-.009,6.727,6.727,0,0,1-1.019.039,5.051,5.051,0,0,0-1.035.065c-.368.061-.758.133-1.161.214s-.788.17-1.159.27a4.568,4.568,0,0,1-.9.165l-.051.012c-.728.27-1.458.531-2.168.775a14.9,14.9,0,0,0-2.052.882,9.463,9.463,0,0,0-1.733.816,15.4,15.4,0,0,0-1.5.942.714.714,0,0,0-.409.175.293.293,0,0,1-.188.084l-.072,0-.049.056a3.743,3.743,0,0,1-.982.805,3.9,3.9,0,0,0-1.028.824.562.562,0,0,0-.153.307l-.046.039c-.309.351-.551.612-.719.789a1.847,1.847,0,0,0-.372,1.158l-.005.054.026.049a.436.436,0,0,0,.265.228.308.308,0,0,0,.2-.025l.033.053.01.186.023.077a.65.65,0,0,0,.319.254.241.241,0,0,1,.142.139l.028.049c.08.091.263.31.461.226a.5.5,0,0,0,.249-.3c.047-.112.111-.242.191-.391a.65.65,0,0,1,.309-.279,7.268,7.268,0,0,0,1.544-.814,2.787,2.787,0,0,0,.529-.5.253.253,0,0,0,.235-.1.267.267,0,0,0,.068-.26,8.68,8.68,0,0,1,1.575-.917,8.744,8.744,0,0,0,1.151-.631c-.323,1.047-.646,2.15-.961,3.287-.384,1.387-.782,2.768-1.181,4.1-.431,1.435-.839,2.75-1.244,4.022-.416,1.3-.833,2.492-1.245,3.547a5.937,5.937,0,0,0-.277,1.021,4.176,4.176,0,0,1-.253.877,3.119,3.119,0,0,0-.33.844,8.657,8.657,0,0,1-.3.954,7.171,7.171,0,0,1-.324.863c-.132.289-.245.572-.34.837-.286.763-.538,1.542-.749,2.315-.2.745-.425,1.512-.672,2.322a6.553,6.553,0,0,0-.472,1.572,3.737,3.737,0,0,1-.486,1.326.953.953,0,0,0-.389.049,1.257,1.257,0,0,1-.189.051l-.01-.167-.184.023a15.728,15.728,0,0,1-2.026.1,3.866,3.866,0,0,1-1.781-.426l.005-.012a.35.35,0,0,0-.114-.419l-.084-.074-.1.046c-.081.037-.128.039-.145.028s-.067-.084-.077-.267a.828.828,0,0,1,.17-.679l.144-.132-.147-.13a.124.124,0,0,1-.042-.121,1.372,1.372,0,0,1,.056-.272,1.6,1.6,0,0,0,.07-.314.335.335,0,0,0-.2-.375l-.072-.03-.072.032a4.548,4.548,0,0,0-1.194.774c-.3.281-.638.633-1.028,1.077l-.039.042,0,.056a.7.7,0,0,1-.121.384.657.657,0,0,0-.149.379.389.389,0,0,0-.065,0l-.244.016.093.226a.649.649,0,0,0,.438.349.212.212,0,0,1-.016.114l-.055.165.165.056a1.124,1.124,0,0,1,.4.214.8.8,0,0,0,.242.153,1.507,1.507,0,0,0,0,.151l.007.107.1.044a.269.269,0,0,0,.065.019c.009.021.019.04.03.061l.026.046.046.023a1.707,1.707,0,0,1,.477.374.6.6,0,0,0,.57.223,1.451,1.451,0,0,0,.426.337,1.413,1.413,0,0,0,.568.174l.018.267.2-.051a1.329,1.329,0,0,1,1.047.184,1.713,1.713,0,0,0,1.195.288l.074-.014.042-.061a.231.231,0,0,1,.261-.119.637.637,0,0,0,.3-.023.168.168,0,0,0,.026.061.228.228,0,0,0,.219.1h.016a.374.374,0,0,1,.042.135c.018.065.03.291-.233.961-.205.533-.388,1.009-.551,1.442q-.455,1.581-1.029,3.48a34.743,34.743,0,0,0-.9,3.71l-.351,1.466a6.673,6.673,0,0,0-.2,1.384l0,.028.007.028a4.174,4.174,0,0,0,.207.51,1.33,1.33,0,0,1,.13.482l.084.182.039.047a.7.7,0,0,0,.414.105,4.938,4.938,0,0,0,1.2-.095.932.932,0,0,0,.438.126.676.676,0,0,1,.354.095l.156.139.109-.177a3.713,3.713,0,0,0,.537-1.67,3.354,3.354,0,0,1,.442-1.472.219.219,0,0,0-.023-.26,2.585,2.585,0,0,0,.5-1.231c.077-.547.174-1.061.288-1.531l.056-.23-.161.009a2.948,2.948,0,0,0,.084-.653,1.443,1.443,0,0,1,.024-.237l.258-.126c0-.035-.007-.068-.012-.1l.046-.123a2.11,2.11,0,0,1,.17-.468.89.89,0,0,0,.109-.477,2.139,2.139,0,0,0,.386-.789,4.775,4.775,0,0,1,.378-.917,12.6,12.6,0,0,0,.759-2.219,16.358,16.358,0,0,1,.705-2.2,6.771,6.771,0,0,1,.689-.13,1.658,1.658,0,0,0,.81-.24q1.121-.51,2.108-.988a12.037,12.037,0,0,0,1.929-1.166l-.024-.051a.265.265,0,0,0,.052-.065,15.039,15.039,0,0,0,2.385-1.093l.019.026.165-.011.039-.026c1.877-1.265,3.792-2.633,5.7-4.066a44.471,44.471,0,0,0,5.281-4.662l-.081-.175.021-.019.168.149.084-.253a1.986,1.986,0,0,1,.251-.5.456.456,0,0,1,.375-.205l.107-.007.044-.1a1.631,1.631,0,0,1,.482-.66,5.25,5.25,0,0,0,.568-.523.26.26,0,0,0,.235-.042l.056-.049a4.716,4.716,0,0,1,.474-.567,2.765,2.765,0,0,0,.342-.43.31.31,0,0,0,.212.049l.079-.005,2.608-3.51Zm1.68-5.832-.005-.021c.007-.028,0-.056.039-.077a.067.067,0,0,1,.039-.012.089.089,0,0,1,.039.005Zm-3.8,1.6a11.093,11.093,0,0,1-1.993,3.512c-.947,1.117-1.793,2.1-2.584,3a35.569,35.569,0,0,1-3.357,3.312c-1.289,1.116-2.452,2.1-3.556,3l-.042.033-.016.051a1.226,1.226,0,0,1-.423.64,5.777,5.777,0,0,1-.7.475c-.253.149-.5.305-.756.47a1.982,1.982,0,0,0-.58.572,1.17,1.17,0,0,0-.769.36c-.142.123-.277.246-.4.367a1.994,1.994,0,0,1-.342.267.816.816,0,0,1-.244.061.756.756,0,0,0-.419.189.659.659,0,0,0-.165.31.283.283,0,0,1-.06.125,4.9,4.9,0,0,0-1.012.679,3.678,3.678,0,0,1-.847.451c-.379.153-.774.307-1.188.463s-.826.312-1.222.467c-.281.109-.519.209-.725.3a18.1,18.1,0,0,0,.419-2.08,13.808,13.808,0,0,1,.677-2.768l.274-.9c.184-.561.4-1.131.638-1.7s.484-1.107.754-1.659a14.058,14.058,0,0,0,.752-2.328,11.067,11.067,0,0,1,.786-2.27,29.021,29.021,0,0,0,1.338-3.547,7.528,7.528,0,0,0,.335-1.445,2.686,2.686,0,0,1,.43-1.2,9.036,9.036,0,0,0,.63-1.684c.146-.553.361-1.442.659-2.71a.452.452,0,0,0-.082-.435.378.378,0,0,1-.061-.221l-.005-.067-.047-.047c-.354-.349-.661-.644-.919-.891a6.15,6.15,0,0,0-1.086-.758.862.862,0,0,1,.247-.186,4.432,4.432,0,0,1,.756-.314c.286-.091.574-.175.863-.249a1.848,1.848,0,0,0,.63-.246c.591-.288,1.179-.549,1.744-.774a10.782,10.782,0,0,1,1.828-.524,11.878,11.878,0,0,1,2.424-.184c.951.014,2.14.105,3.533.27a7.336,7.336,0,0,0,.851.249,4.464,4.464,0,0,1,1.06.412c.388.375.756.76,1.093,1.142a4.7,4.7,0,0,1,.808,1.337,4.6,4.6,0,0,1,.249.972,7.311,7.311,0,0,0,.2,1.007,1.389,1.389,0,0,0,.042.561,2.293,2.293,0,0,1,.082.472,10.939,10.939,0,0,1-.145,1.568,9.827,9.827,0,0,1-.312,1.4,1.145,1.145,0,0,0-.079.365A.785.785,0,0,0,823.359,118.978Zm-20.182,21.669a.34.34,0,0,0,.107-.009c-.109.058-.214.118-.321.177C803.038,140.761,803.108,140.7,803.177,140.647Zm2.675-1.694q1.168-.824,2.338-1.619l.165-.274a.519.519,0,0,0,.182-.088.149.149,0,0,1,.095-.032l.046,0,.04-.026a14.218,14.218,0,0,0,1.4-1.047,14.141,14.141,0,0,1,1.384-1.035,5.358,5.358,0,0,1,.51-.41,2.949,2.949,0,0,0,.438-.379l.063.054.146-.168c.382-.317.872-.7,1.45-1.145.283-.214.556-.4.821-.565a4.689,4.689,0,0,0-.591.584c-.067.114-.147.246-.247.4-.088.135-.163.119-.2.116l-.105-.018-.065.084a2.614,2.614,0,0,1-.968.737,3.346,3.346,0,0,0-1.095.775l.153.186a6.13,6.13,0,0,0-.581.54,8.513,8.513,0,0,0-1.147.742c-.367.281-.766.565-1.187.847l-.082.056.007.1a.978.978,0,0,1-.014.214c-1.012.644-2.052,1.238-3.091,1.768-.645.33-1.294.672-1.935,1.021C804.487,139.9,805.183,139.424,805.852,138.952Z" transform="translate(-788.834 -106.622)"/><path class="a" d="M979.239,123.667s-.037-.025-.07-.16a1.039,1.039,0,0,0-.307-.547l-.095-.084-.109.065c-.151.088-.373.242-.682.47s-.663.5-1.114.844l-.5.57c-.075.049-.191.135-.365.272s-.365.295-.557.454-.379.31-.553.451a3.306,3.306,0,0,0-.325.275c-.479.43-.847.74-1.094.923s-.54.416-.93.742l-1.363.742c-.132-.086-.289.033-.365.091l-.708.384a12.476,12.476,0,0,1-1.539.812,7.923,7.923,0,0,1-1.193.458c-.346.1-.718.191-1.137.3a6.516,6.516,0,0,1-3.8.182,3.3,3.3,0,0,1-1.289-.391,6,6,0,0,1-1.045-.719.945.945,0,0,0-.244-.316c-.03-.028,0-.125.044-.205l.01-.023a2.165,2.165,0,0,0,1.433-.46,4.264,4.264,0,0,1,1.528-.738l.053-.012.035-.04a5.489,5.489,0,0,1,.944-.84,5.868,5.868,0,0,0,1-.9l.047-.054-.005-.074a.2.2,0,0,1,.077-.191l.039-.037a1.5,1.5,0,0,1,.591-.486,1.721,1.721,0,0,0,.724-.652c.16-.221.342-.447.554-.691s.383-.433.521-.591l.03-.046c.065-.158.123-.316.17-.472a.774.774,0,0,1,.149-.3,2.821,2.821,0,0,1,.412-.47,1.3,1.3,0,0,0,.377-.558.66.66,0,0,0,.053-.3.172.172,0,0,1,.052-.1l.028-.039a3.041,3.041,0,0,0,.272-.786,1.779,1.779,0,0,0-.082-.858l-.018-.056-.049-.035a.679.679,0,0,1-.295-.375.668.668,0,0,0-.533-.47,2.619,2.619,0,0,0-.812-.7,2.193,2.193,0,0,1-.739-.647l-.056-.081-.1.007a.813.813,0,0,0-.353.1l-.228.135a.635.635,0,0,1-.344.105.972.972,0,0,0-.509.156,4.2,4.2,0,0,0-.817.423,9.315,9.315,0,0,0-.835.61,5.233,5.233,0,0,1-.733.658,2.372,2.372,0,0,1-.593.477,2.728,2.728,0,0,0-.684.558,5.3,5.3,0,0,1-.6.684c-.1.091-.256.226-.391.344l-.661.132a4.015,4.015,0,0,1-.905.061l0-.044-.054.042-.182-.005.009.137-.03.023c-.112.082-.2.154-.272.216-.01.011-.04.032-.117.011L957.91,122l-.07.068a1.56,1.56,0,0,1-.675.368c-.282.07-.556.151-.812.242a.817.817,0,0,0-.158.028l-.163-.289-.14.33-.005.018a5.048,5.048,0,0,0-1.117.328q-.789.3-1.684.665l-1.707.693a6.421,6.421,0,0,1-.922.314,5.743,5.743,0,0,0-.123-.665l-.231-1.012c-.075-.344-.163-.672-.26-.973a1.887,1.887,0,0,0-.331-.674,2.456,2.456,0,0,0-.749-.909,1.948,1.948,0,0,0-1.2-.237,1.8,1.8,0,0,0-1.435-.158,2.017,2.017,0,0,0-1.414,1.414,7.307,7.307,0,0,1-.675.881,8.717,8.717,0,0,0-.844,1.138,1.923,1.923,0,0,1-.289.246,5.769,5.769,0,0,0-.453.358.665.665,0,0,0-.163.382.331.331,0,0,1-.077.189.978.978,0,0,1-.4.312,1.381,1.381,0,0,0-.409.242l-.393.025-.049.07a5.08,5.08,0,0,1-.749.881c-.242.218-.461.409-.651.567s-.384.325-.558.484a2.954,2.954,0,0,0-.507.619l-.125.025a.229.229,0,0,0-.1.009l-.182.061.031.123c-.03.03-.072.072-.132.128a12.737,12.737,0,0,1-2.654,2.2l-.055.053c-.072.111-.121.184-.144.217l-.063,0a.857.857,0,0,0-.375.154l-.063.037-.044.17a14.8,14.8,0,0,0-1.952,1.442,4.669,4.669,0,0,1-1.977,1.077,2.664,2.664,0,0,1-.251-1.149,10.687,10.687,0,0,1,.105-1.786c.089-.63.189-1.251.3-1.843s.2-1.077.284-1.484a3.123,3.123,0,0,0,.365-.909,8.073,8.073,0,0,0,.228-1.319,8.967,8.967,0,0,0,.023-1.421c-.03-.458-.075-.881-.135-1.258l-.014-.081-.072-.042a2.067,2.067,0,0,0-.88-.335c-.188-.007-.537.005-1.07.04l-.1,0-.044.1a.874.874,0,0,1-.331.161l-.123.044.007.133a.519.519,0,0,1-.065.353,1.271,1.271,0,0,0-.24.454,50.19,50.19,0,0,1-4.711,6.45,40.493,40.493,0,0,1-4.508,4.482c.033-.514.077-1,.137-1.461.072-.572.181-1.18.316-1.782.131-.317.286-.724.452-1.207a10.789,10.789,0,0,1,.644-1.456,2.757,2.757,0,0,0,.228-.64c.072-.265.147-.544.23-.84l.018-.061c.093-.323.173-.637.249-.94.037-.151.067-.27.091-.374.081-.144.17-.295.223-.409l.04.007.3-.7a1.015,1.015,0,0,0-.011-.672.686.686,0,0,1,.09-.533l.133-.272-.225.014a1.261,1.261,0,0,1-.028-.212l0-.053-.032-.042a5.737,5.737,0,0,0-.4-.461.734.734,0,0,0-.749-.224,1.4,1.4,0,0,0-.982-.146c-.39.061-.714.121-.972.174l-.058.012-.039.044a.3.3,0,0,0-.051.319.522.522,0,0,1-.014.2l-.451,1.642c-.177.667-.423,1.473-.731,2.4-.026.077-.047.16-.072.237l-.23.177a4.57,4.57,0,0,1-.852.537c-.339.17-.689.34-1.047.51l-1.951.905c-.318.167-.64.324-.961.475a6.89,6.89,0,0,1-.977.368l-.682.314a11.511,11.511,0,0,1-1.266.349,7.352,7.352,0,0,0,.428-2.075,17.3,17.3,0,0,0,.023-2.3,9.557,9.557,0,0,0-.218-1.63c-.086-.328-.146-.53-.333-.517a.181.181,0,0,0-.086.026.453.453,0,0,0-.372-.068,2.9,2.9,0,0,1-.565-.414,1.554,1.554,0,0,0-.807-.389l-.088-.016a.232.232,0,0,0-.086-.06,2.962,2.962,0,0,0-.365-.184.766.766,0,0,0-.591.075l-.152.011c-.077-.161-.247-.233-.509-.218l-.1.019a.2.2,0,0,0-.181-.005l0,0a.374.374,0,0,0-.311-.2.618.618,0,0,0-.263.089,2.13,2.13,0,0,1-.251.119.7.7,0,0,1-.393-.03l-.077-.021-1.007.705a3.176,3.176,0,0,0-.94.64,12.092,12.092,0,0,0-1.084,1.142A12.941,12.941,0,0,0,900.4,126.6c-.246.393-.43.763-.618,1.133-.007,0-.01-.005-.019,0l-.151.084.037.147-.072.005-.042.1a.305.305,0,0,0-.028.1.388.388,0,0,0-.093.082l-.048.054,0,.044-.042.019a.2.2,0,0,0-.109.181c-.091.147-.182.232-.258.235a2.549,2.549,0,0,0-.651.158l-.123.046.007.132a.276.276,0,0,1-.066.175.79.79,0,0,0-.5.317.84.84,0,0,0-.389.223l-.207.235-.068.137-.02.023c-.252.23-.317.333-.335.409a1.509,1.509,0,0,1-.065.177l0,.011a.214.214,0,0,0-.049.086q-.542.5-.866.789l-.554.481-.312.267a1.955,1.955,0,0,0-.2.2,1.4,1.4,0,0,0-.359.263.473.473,0,0,1-.3.144l-.079.025c-.044.026-.054.021-.058.021a.341.341,0,0,0-.344.126.315.315,0,0,0-.165.182l-.054.067-.351.342c-.426.326-1,.724-1.717,1.189a5.618,5.618,0,0,1-1.945.852l-.359.023a.46.46,0,0,1-.268-.067l-.046-.025-.054,0a1.45,1.45,0,0,0-.435.093c-.067.026-.082.009-.1-.007l-.049-.03c-.058-.025-.175-.121-.3-.481-.114-.324-.194-.558-.242-.71a4.66,4.66,0,0,1-.279-1.456c-.016-.493-.009-1.081.021-1.8l0-.737a1.144,1.144,0,0,0,.042-.335c0-.014,0-.068.081-.205.033-.081.067-.17.1-.27a.3.3,0,0,0,.01-.195,2.181,2.181,0,0,0,.186-.772c.035-.4.077-.74.128-1.056a2.391,2.391,0,0,0,.011-.809.725.725,0,0,0-.119-.486.836.836,0,0,1-.13-.214.258.258,0,0,0-.239-.182.393.393,0,0,0-.042-.112l-.067-.118-.132.035a.936.936,0,0,1-.421.03,1.943,1.943,0,0,1-.417-.128c-.151-.063-.284-.119-.4-.17a.656.656,0,0,0-.542.047,1.319,1.319,0,0,0-.682.335,1.432,1.432,0,0,1-.451.291l-.247.016a.439.439,0,0,0-.279.181.846.846,0,0,1-.2.165c-.449.395-.908.768-1.361,1.107a15.62,15.62,0,0,0-1.328,1.119,15.138,15.138,0,0,0-1.245,1.205,16.081,16.081,0,0,1-1.277,1.242l-.389.389-.23.377-1.356,1.421c-.219.23-.433.461-.637.693a.913.913,0,0,1,.054-.133c.068-.137.133-.282.2-.442l1-2.5q.392-.86.756-1.721a6.552,6.552,0,0,0,.458-1.85.273.273,0,0,0,.039-.019l.089-.093,0-.053.481-1.01.277-.847,1.9-5.122.011-.072a.085.085,0,0,1,0-.046.392.392,0,0,0,.086-.244l.191-.4a6.266,6.266,0,0,1,.2-.637,5.588,5.588,0,0,1,.261-.582l.016-.058a1.806,1.806,0,0,1,.123-.461l.193-.456.012-.081c-.011-.153,0-.21-.005-.21v0l.046-.051-.005-.075c0-.039-.009-.144.247-.237l.1-.037.012-.111a5.79,5.79,0,0,1,.3-1.314,13.065,13.065,0,0,1,.523-1.3.939.939,0,0,0,.065-.314l.021-.011a.377.377,0,0,0,.256-.063l.091-.054-.031-.482.423-.533.028-.051a7.69,7.69,0,0,1,.33-.781,5.27,5.27,0,0,1,.458-.761.1.1,0,0,1,.033-.053.429.429,0,0,0,.226-.242.612.612,0,0,0,.054-.268.233.233,0,0,1,.054-.081l.035-.039.007-.051a2.638,2.638,0,0,0,0-.951,1.309,1.309,0,0,0-.411-.723.564.564,0,0,0-.323-.209.478.478,0,0,1-.216-.111l-.233-.2-.207.012a.5.5,0,0,1-.191-.1.6.6,0,0,0-.7-.046.068.068,0,0,1-.07.005l-.077-.012-.04,0a.337.337,0,0,0-.207-.04,1.021,1.021,0,0,0-.267-.012l-.207-.184-.056.3c-.083.446-.184.877-.3,1.28a6.334,6.334,0,0,1-.524,1.233,28.155,28.155,0,0,0-1.2,3.1q-.51,1.587-1.022,3.117l-.428,1.207c-.005.021-.021.079-.145.118l-.086.026-.028.086c-.035.1-.077.207-.112.312l-.054-.093a.218.218,0,0,1-.023-.133.361.361,0,0,0-.088-.34,1.9,1.9,0,0,0-1.256-.561,10.03,10.03,0,0,0-1.1-.016c-.467-.142-.524-.154-.6-.023l-.047.089-.018-.005-.037-.07a.684.684,0,0,0-.3.1l-.012-.018a.65.65,0,0,1-.324.021,1.519,1.519,0,0,0-.384-.037,1.8,1.8,0,0,0-1.108.081,1.567,1.567,0,0,1-.868.105l-.044-.007-.039.012a1.413,1.413,0,0,1-.23.065l-1.384.088a6.49,6.49,0,0,0-1.536.321c-.617.04-1.217.1-1.779.17-.488.063-1,.144-1.523.235a.974.974,0,0,1,.288-.535,2.4,2.4,0,0,0,.6-.9,8.635,8.635,0,0,0,.372-.875,5.167,5.167,0,0,1,.361-.791,3.942,3.942,0,0,1,.5-.856,2.821,2.821,0,0,0,.5-1.009l.005-.054a.283.283,0,0,1,.018-.112l.44-.389.046-.063a.828.828,0,0,0-.055-.8,2.293,2.293,0,0,0-.581-.6,3.128,3.128,0,0,0-.793-.419,3.778,3.778,0,0,0-.609-.17.342.342,0,0,0-.254-.147.112.112,0,0,1,.033.021l-.317-.149a.36.36,0,0,0-.458.084l-.049.056.019.3c-.695,1.256-1.4,2.561-2.164,3.985-.686,1.286-1.349,2.706-1.977,4.225a34.082,34.082,0,0,0-3.54.83c-.933.289-1.7.558-2.35.823s-1.251.516-1.793.754a12.438,12.438,0,0,1-1.858.624l-.459-.3.023.349a1.054,1.054,0,0,0,.3.644.447.447,0,0,1,.109.44l-.021.079.046.067a1.3,1.3,0,0,0,.509.446.975.975,0,0,0,.809-.056h.014a.869.869,0,0,0,.163.082l.056.012a1.792,1.792,0,0,0,1-.246.973.973,0,0,1,.668-.147l.049.014.049-.016c.445-.142.709-.233.81-.281a.841.841,0,0,0,.1-.049l.193-.012a6.906,6.906,0,0,0,.849-.168,4.207,4.207,0,0,0,.738-.221c.21-.086.463-.175.707-.258a2.223,2.223,0,0,0,.8-.2c.21-.1.439-.189.693-.282h0l.067.056a.361.361,0,0,0,.039.026,14.02,14.02,0,0,1-.686,1.979l-.939,2.219-.323.667.114-.005a.867.867,0,0,1-.03.095c-.286.807-.551,1.64-.789,2.478-.121.423-.191.824-.286,1.238a2.077,2.077,0,0,1-.623.232l-.174.011.01.175a1.167,1.167,0,0,1-.012.193l0,.023a.7.7,0,0,0-.27.119.554.554,0,0,0-.505.253,2.694,2.694,0,0,1-.19.272,1.886,1.886,0,0,0-.495.354,3.667,3.667,0,0,1-.47.388,6.065,6.065,0,0,1-.642.526c-.226.16-.44.3-.654.424l-.042.035a.874.874,0,0,0-.293.577v0l-.049-.044h0l-.131-.118a1.531,1.531,0,0,0-.114.146,2,2,0,0,0-.11.175.361.361,0,0,1-.218.161l-.132.042.009.137a.128.128,0,0,1-.081.149.182.182,0,0,1-.193,0l-.284-.168.016.24-.07-.03-.07.161a.588.588,0,0,0-.056.254.768.768,0,0,0-.823.256,1.5,1.5,0,0,1-.719.432.385.385,0,0,0-.446.06l-.153.181a7.8,7.8,0,0,1-.991.635,4.149,4.149,0,0,1-.8.319,3.693,3.693,0,0,1-.865.107c-.318,0-.709-.016-1.165-.056a2.846,2.846,0,0,1-.719-1.493,12.087,12.087,0,0,1-.23-3.652l0-.084-.063-.056c-.039-.033-.04-.151.063-.381.095-.209.156-.363.105-.472a3.621,3.621,0,0,0,.193-1.259c0-.537.008-.984.026-1.326l0-.06-.033-.049a1.531,1.531,0,0,1-.233-.484.415.415,0,0,0-.353-.342l-.007-.11-.174.011a1.654,1.654,0,0,1-.917-.163,1.687,1.687,0,0,0-.956-.214h-.009a1.56,1.56,0,0,0-.758.391.888.888,0,0,1-.567.247l-.063,0-.047.046a13.078,13.078,0,0,1-1.38,1.128,17.722,17.722,0,0,0-1.515,1.214,13.712,13.712,0,0,0-1.409,1.33,9.462,9.462,0,0,1-1.367,1.235l-.04.04c-.407.582-.842,1.214-1.3,1.891q-.392.579-.787,1.109.2-.689.454-1.5c.2-.642.377-1.209.528-1.694.265-.758.512-1.435.754-2.071a5.941,5.941,0,0,0,.375-2.229v-.079l-.06-.051a3.357,3.357,0,0,0-.279-.216.533.533,0,0,1-.156-.151l-.032-.06-.065-.021a6.077,6.077,0,0,0-.994-.281,4.619,4.619,0,0,1-.707-.17l-.079-.023-.067.044c-.251.163-.446.2-.575.109l-.2-.14-.067.239c-.482,1.736-1.045,3.48-1.666,5.178-.107.3-.19.626-.29.933l-.245.279c-.076.049-.191.135-.365.272s-.365.295-.556.454-.381.31-.554.451a2.976,2.976,0,0,0-.323.275c-.479.43-.847.74-1.095.923s-.542.416-.931.742l-1.363.742c-.131-.086-.289.033-.365.091l-.707.384a12.468,12.468,0,0,1-1.54.812,7.919,7.919,0,0,1-1.193.458c-.346.1-.717.191-1.137.3a6.51,6.51,0,0,1-3.8.182,3.308,3.308,0,0,1-1.291-.391,6.1,6.1,0,0,1-1.046-.717.925.925,0,0,0-.242-.318c-.031-.028,0-.125.044-.205l.01-.023a2.172,2.172,0,0,0,1.433-.46,4.244,4.244,0,0,1,1.526-.738l.053-.012.035-.04a5.474,5.474,0,0,1,.943-.84,5.809,5.809,0,0,0,1-.9l.047-.054,0-.074a.2.2,0,0,1,.077-.189l.037-.039a1.513,1.513,0,0,1,.591-.486,1.723,1.723,0,0,0,.725-.652c.161-.221.342-.447.554-.691s.382-.431.521-.591l.03-.046a4.83,4.83,0,0,0,.17-.472.794.794,0,0,1,.149-.295,2.618,2.618,0,0,1,.414-.47,1.308,1.308,0,0,0,.375-.56.661.661,0,0,0,.052-.3.175.175,0,0,1,.054-.1l.026-.039a3.042,3.042,0,0,0,.272-.786,1.785,1.785,0,0,0-.081-.856l-.017-.058-.051-.035a.662.662,0,0,1-.293-.375.674.674,0,0,0-.535-.47,2.648,2.648,0,0,0-.812-.7,2.208,2.208,0,0,1-.738-.647l-.056-.081-.1.007a.813.813,0,0,0-.353.1l-.228.135a.634.634,0,0,1-.344.105.985.985,0,0,0-.507.156,4.094,4.094,0,0,0-.817.423,9.1,9.1,0,0,0-.835.61,5.254,5.254,0,0,1-.735.658,2.373,2.373,0,0,1-.593.479,2.714,2.714,0,0,0-.684.556,5.287,5.287,0,0,1-.6.684c-.174.158-.4.358-.682.6l-.784,1.184-1.187,1.53a4.907,4.907,0,0,0-.77,1.95c-.119.71-.205,1.279-.251,1.682a3.464,3.464,0,0,0-.063.852,3.524,3.524,0,0,0,.176.849c.086.216.174.447.265.7a3.661,3.661,0,0,0,.41.807,11.421,11.421,0,0,0,1.03,1.089,3.573,3.573,0,0,0,1.272.767,7.478,7.478,0,0,0,1.189.351c.368.07.76.132,1.163.179l.11-.012.062-.07a1.988,1.988,0,0,0,.375.1l.035.007.033-.009a3.868,3.868,0,0,1,1.165.037l.132.018.042-.1c.167.04.279.028.335-.025a.261.261,0,0,1,.091.039l.1.056.091-.063a.618.618,0,0,1,.411-.14,1.416,1.416,0,0,0,.321-.021.345.345,0,0,0,.149.11l.119.051.082-.1a.227.227,0,0,1,.219-.079.459.459,0,0,0,.416-.1.427.427,0,0,0,.428-.137c.032-.037.042-.037.086-.011l.107.063.095-.082a.847.847,0,0,1,.3-.182c.058-.012.126-.028.2-.049l.042.065.117-.007a1.191,1.191,0,0,0,.512-.135.7.7,0,0,1,.307-.086l.054-.012c.1-.04.226-.084.381-.133.112-.047.214-.089.3-.135s.13-.049.13-.051l.06-.014a10,10,0,0,0,2.021-1.149c.528-.405,1.093-.828,1.693-1.273l1.18-.863.9-.786.046-.044c-.061.321-.146.621-.2.947-.072.023-.237.105-.214.41a.846.846,0,0,1,.007.439,1.8,1.8,0,0,0-.056.586c.014.226.058.914.531,1,.188.035.453.1.8.2a.27.27,0,0,0,.086.225l.037.032.047.011a4.367,4.367,0,0,0,1.135.1,5.084,5.084,0,0,0,.83-.112l.058-.025a1.9,1.9,0,0,0,.46-.426.621.621,0,0,1,.333-.216l.068-.018.035-.058a29.024,29.024,0,0,1,3.392-4.443c1.258-1.352,2.478-2.742,3.634-4.131a1.991,1.991,0,0,0,.772-.672,1.7,1.7,0,0,1,.412-.425c-.019,1.2-.021,2.236,0,3.087a13.686,13.686,0,0,0,.479,3.124l.058.156.146-.009c.025.114.063.247.111.4l.024.079.075.03a.873.873,0,0,1,.445.488,1.505,1.505,0,0,0,.611.71l.047-.07a.245.245,0,0,0-.011.091l.007.1.093.044a10.621,10.621,0,0,0,1.417.531,5.744,5.744,0,0,0,1.6.237,2.53,2.53,0,0,0,1.415.358,2.245,2.245,0,0,0,1.18-.379l.021-.016.184.025a.414.414,0,0,0,.519-.361l.007-.035a.214.214,0,0,0,.182.077.417.417,0,0,0,.4-.137l.018-.018a.379.379,0,0,0,.039-.049c.081-.111.156-.2.221-.281l.118-.13-.011-.009a.281.281,0,0,0,.188-.081l.123-.095-.026-.047.019,0,.109-.007.042-.1a.577.577,0,0,1,.049-.1l.068.165.107-.163.035.123a.544.544,0,0,0,.609-.267,2.884,2.884,0,0,0,.128-.3.268.268,0,0,0,.084.047l.1.056a.253.253,0,0,0,.258-.009l.009-.007.084.075.1-.219a.258.258,0,0,0,.011-.209,1.921,1.921,0,0,1,.358-.172.9.9,0,0,0,.542-.433.353.353,0,0,0,.135-.1l.053.028.082.032.075-.042a1.881,1.881,0,0,0,.523-.524c.17-.232.333-.456.486-.67a4.279,4.279,0,0,1,.305-.384l.014.216,1.486-1.44c-.06.354-.119.679-.176,1.051a8.593,8.593,0,0,0-.082,2.273.32.32,0,0,0-.091.275,5.03,5.03,0,0,0,.195,1.228,1.865,1.865,0,0,0,.477.765,2.453,2.453,0,0,0,.872.517,12.053,12.053,0,0,1,1.2.531,8.5,8.5,0,0,0,1.963.526,3.171,3.171,0,0,0,.654.026,2.88,2.88,0,0,0,1.189-.339,6.8,6.8,0,0,0,.984-.288c.368-.137.7-.272,1.007-.412l1.351-.844.175-.01.042-.1,0,0,0,.046.173-.012a.8.8,0,0,0,.577-.284.813.813,0,0,1,.245-.191.482.482,0,0,0,.179.019l.009,0a.6.6,0,0,0,.367-.233,1.41,1.41,0,0,0,.086-.161c.016-.035.037-.079.063-.126a.406.406,0,0,1,.076-.068.809.809,0,0,0,.575-.282,1.242,1.242,0,0,1,.4-.291l.305-.293.011.019.121.212.161-.184a1.186,1.186,0,0,1,.11-.11.355.355,0,0,0,.154-.212,1.6,1.6,0,0,0,.94-.844,1.718,1.718,0,0,1,.779-.81l.051-.025.028-.051a1.286,1.286,0,0,1,.449-.514l0,.018a1.031,1.031,0,0,0-.361.417l.205.174c-.135.491-.288.986-.389,1.468l-.112.195,0,.049a.159.159,0,0,0-.042.132l-.079.43-.137.454.007.282a1.575,1.575,0,0,0,.323.979l.042.033a1.156,1.156,0,0,0,.535.133,1.84,1.84,0,0,1,.428.068l.082.261.137-.009.067,0a.637.637,0,0,0,.324.032l.144-.012a1.31,1.31,0,0,1,.442-.053,1.375,1.375,0,0,0,.542-.081.611.611,0,0,0,.219-.214,1.074,1.074,0,0,1,.116-.156l.567-.356.056-.058a26.072,26.072,0,0,1,3.364-4.355c1.277-1.331,2.521-2.7,3.711-4.1a1.321,1.321,0,0,1,.226-.282c.095-.089.176-.17.24-.244a1.155,1.155,0,0,0,.456-.34c.177-.2.333-.386.474-.565a.876.876,0,0,1,.279-.226,23.021,23.021,0,0,0-.26,3.152,9.391,9.391,0,0,0,.395,3.063l.031.1.1.018c.083.016.1.193.107.268l.005.07.053.049a2.008,2.008,0,0,1,.445.582,1.685,1.685,0,0,0,.537.647l.047.025.014.137.112.037.026.007a7.208,7.208,0,0,0,1.081.488,5.518,5.518,0,0,0,1.393.284,2.213,2.213,0,0,1,.5.025c.025,0,.039,0,.04,0a.3.3,0,0,0,.147.046,1.94,1.94,0,0,0,.86,0,8.772,8.772,0,0,0,1.119-.268,7.225,7.225,0,0,0,1.056-.41,2.277,2.277,0,0,0,.719-.5l.049-.054,0-.053.023.042.137-.009a.656.656,0,0,0,.605-.414.27.27,0,0,1,.077-.114l.014.221.226-.093a.726.726,0,0,0,.277-.172l.175-.2a.7.7,0,0,0,.116-.384.273.273,0,0,0-.017-.091.631.631,0,0,0,.049.047l.055.047.312-.019.03-.125a.523.523,0,0,0,.018-.158l.1-.005.047-.054a1.214,1.214,0,0,0,.207-.339l.005-.009.039.016.077-.051c.256-.167.474-.325.651-.467a5.8,5.8,0,0,0,.514-.461c.156-.158.318-.314.491-.472s.4-.333.7-.558a1.868,1.868,0,0,0,.254-.419.307.307,0,0,1,.023-.044l.065.058.116-.116.049-.049a9.1,9.1,0,0,0-.188,1.489,2.048,2.048,0,0,0-.119,1.221,2.18,2.18,0,0,0,.316.816.451.451,0,0,0,.142.495.739.739,0,0,1,.167.209l.012.054a2.773,2.773,0,0,0,1.4,1.51l.053.016a.792.792,0,0,1,.349.109c.1.07.226.154.384.258l.047.03.058,0a.955.955,0,0,0,.13-.014l-.028.03.384.009q.552.011,1.068-.021a9.184,9.184,0,0,0,2.51-.489.7.7,0,0,0,.34-.186.175.175,0,0,0,.091-.01.284.284,0,0,0,.068-.039l.063.056.116-.133c.258-.295.424-.365.517-.372.238-.014.47-.209.724-.609a.923.923,0,0,0,.21-.195.6.6,0,0,1,.172-.156l.1-.005.046-.086a5.306,5.306,0,0,1,.516-.784,3.068,3.068,0,0,0,.5-.977l.009-.065,0-.026.028-.051c.1-.2.168-.333.2-.416a.258.258,0,0,1,.07-.1.824.824,0,0,0,.2-.223,4.215,4.215,0,0,0,.218-.386,2.5,2.5,0,0,1,.956-.37c.509-.123,1.054-.239,1.686-.361a1.674,1.674,0,0,0,.54-.31,2.279,2.279,0,0,1,.351-.242,1.7,1.7,0,0,1,.5-.06.471.471,0,0,0,.393-.132q.418-.189.705-.342c.2-.105.4-.21.616-.316a2.363,2.363,0,0,0,.54-.344l1.87-1.035c-.182.733-.365,1.47-.484,2.194a9.688,9.688,0,0,0-.114,2.614l.005.047.03.039a2.468,2.468,0,0,1,.263.551,1.191,1.191,0,0,0,.53.67,1.391,1.391,0,0,0,.677.125,1.057,1.057,0,0,1,.554.125l.054.023a6.873,6.873,0,0,0,1.438.195,2.406,2.406,0,0,0,1.421-.456c.556-.435,1.152-.923,1.773-1.449a11.4,11.4,0,0,0,1.649-1.721,2.4,2.4,0,0,0,.9-1.079c.1-.079.207-.174.317-.282a1.414,1.414,0,0,0,.3-.421,1.512,1.512,0,0,0,.567-.7.584.584,0,0,1,.295-.367l.054-.026.028-.054c.13-.263.242-.479.342-.651.065-.111.142-.235.237-.37,0,.086-.007.175-.009.27-.012.409-.03.842-.056,1.305s-.033.928-.024,1.349a4.655,4.655,0,0,0,.089.952l.014.051.04.035c.005.005.021.06-.026.2l.19.109v.111a.133.133,0,0,1-.086-.028.461.461,0,0,1,.079.126,5.659,5.659,0,0,0,.372.895,1.762,1.762,0,0,0,.768.758l.061.026.079.135a.3.3,0,0,0,.254.244c.065.014.084.03.084.032l.047.03a3.305,3.305,0,0,0,1.4.347c.077,0,.154-.005.231-.009a5.679,5.679,0,0,0,.989-.154,4.091,4.091,0,0,0,.937-.351,10.516,10.516,0,0,0,1.009-.572c.323-.207.621-.416.889-.619s.482-.361.658-.482l.052-.049a.159.159,0,0,1-.13.009.108.108,0,0,1-.063-.074l.023-.018.284.061a.891.891,0,0,1,.225-.317.831.831,0,0,0,.282-.428c.021-.025.037-.039.044-.047a.732.732,0,0,0,.156-.075l.044-.037c.072-.081.11-.1.105-.1a.821.821,0,0,0,.211.019.318.318,0,0,0,.224-.119,1.349,1.349,0,0,0,.16-.254.421.421,0,0,0,.167-.07l.053-.093c.09-.007.228-.058.235-.33.044-.039.123-.11.277-.237a1.272,1.272,0,0,0,.388-.421l.042-.1-.061-.079a.479.479,0,0,0,.116-.258.894.894,0,0,1,.04-.146l.161,0a3.06,3.06,0,0,1,.137-.3l.01-.019a.4.4,0,0,0,.125-.1l.084-.1.084-.049a1.567,1.567,0,0,0,.667-1.021,1.811,1.811,0,0,1,.161-.088l.2.084.042-.207c.06-.267.181-.274.232-.277a.843.843,0,0,0,.47-.142l.166-.011-.014-.246a1.157,1.157,0,0,0,.309-.344.379.379,0,0,0,.058.021.6.6,0,0,0,.423-.154,4.225,4.225,0,0,0,.675-.789,3.235,3.235,0,0,0,.635-.465,9.07,9.07,0,0,0,.74-.749l2.308-2.387a7.6,7.6,0,0,1,.581-.689c.121-.125.232-.242.331-.351a5.246,5.246,0,0,1,.495,1.787,8.08,8.08,0,0,1-.012,2.036,7.147,7.147,0,0,0-1.287.844,5.532,5.532,0,0,1-1.245.779l-.044.021-.028.042a1.518,1.518,0,0,1-.71.6,2.42,2.42,0,0,0-.917.654,1.039,1.039,0,0,1-.121.125l-.061,0-.046.079a.516.516,0,0,1-.242.2.744.744,0,0,0-.365.389.276.276,0,0,0-.144.105l-.046,0-.047.081a.875.875,0,0,0-.123.447l-.074.068a1.077,1.077,0,0,0-.465.479c-.044.084-.074.093-.074.093h0s-.023,0-.053-.023l-.223-.146-.046.26a1.256,1.256,0,0,1-.314.621l-.24-.146c-.053.084-.105.163-.16.237l0,0a.286.286,0,0,0-.042.058,2.822,2.822,0,0,1-.309.342,1.378,1.378,0,0,0-.391.67.511.511,0,0,0-.361.326.267.267,0,0,1-.123-.039l-.218-.112-.037.24a5.63,5.63,0,0,1-.212.9,1.139,1.139,0,0,1-.044.116l-.014-.225-.27.254a1.42,1.42,0,0,0-.325,1.107.456.456,0,0,0-.324.232,1.834,1.834,0,0,0-.133.346l-.005.058a.469.469,0,0,0,.063.253.254.254,0,0,0-.053.11.329.329,0,0,0,.14.307l.161.142.105-.186a.229.229,0,0,1,.028-.039l.03.007a.334.334,0,0,0,.13.212l.105.077.052-.028a.2.2,0,0,0,.079.047.243.243,0,0,0,.095.014,3.585,3.585,0,0,0,1.247.958,3.48,3.48,0,0,0,1.965.26.287.287,0,0,0,.223-.1,1.129,1.129,0,0,0,.535-.012,1.647,1.647,0,0,1,.223-.054l.007.1.175-.01a.214.214,0,0,0,.2-.2c.035-.012.072-.023.111-.039a.291.291,0,0,0,0,.039l.016.105.072.047a.278.278,0,0,0,.218.026l-.005.042.237-.077.04.042a5.951,5.951,0,0,0,1.952-1.242,20.836,20.836,0,0,0,1.494-1.638l.026-.044a.283.283,0,0,0,.017-.21c.139-.2.27-.4.389-.6a4.9,4.9,0,0,1,.518-.7l.1-.146-.068-.061a.282.282,0,0,0,.047-.105v-.009a.253.253,0,0,0,.1-.247.078.078,0,0,1-.061.054l.1-.309a.067.067,0,0,1,.011.054s.005-.016.037-.044a1.347,1.347,0,0,1,.233-.188l.184-.114-.184-.16a.22.22,0,0,1,.047-.044c.052-.037.207-.147.17-.312a.192.192,0,0,0-.016-.051,1.893,1.893,0,0,0,.353-.579c.1-.249.177-.47.238-.661l.037-.11-.067-.058c.007-.023.014-.046.019-.067.012-.044.081-.086.193-.116l.118-.03.014-.123a2.168,2.168,0,0,1,.266-.94,2.683,2.683,0,0,0,.313-1.224,1.9,1.9,0,0,1,.651-.593l.895-.523,4.239-1.986a3.445,3.445,0,0,0,.914-.41,2.169,2.169,0,0,1,.721-.274,4.918,4.918,0,0,0-.691,1.8c-.119.709-.205,1.279-.251,1.682a3.107,3.107,0,0,0,.112,1.7c.086.216.174.447.263.7a3.7,3.7,0,0,0,.412.807,11.432,11.432,0,0,0,1.03,1.089,3.569,3.569,0,0,0,1.27.767,7.556,7.556,0,0,0,1.191.351c.368.07.76.132,1.163.179l.11-.012.061-.07a2,2,0,0,0,.375.1l.033.005.035-.007a3.8,3.8,0,0,1,1.163.037l.133.018.04-.1c.17.04.281.028.335-.025a.259.259,0,0,1,.093.039l.095.056.093-.063a.621.621,0,0,1,.41-.14,1.418,1.418,0,0,0,.321-.021.358.358,0,0,0,.149.11l.117.051.084-.1a.219.219,0,0,1,.219-.079.459.459,0,0,0,.416-.1.427.427,0,0,0,.428-.139c.032-.035.042-.035.084-.011l.107.065.1-.082a.832.832,0,0,1,.3-.182c.056-.012.126-.028.2-.049l.042.065.116-.007a1.207,1.207,0,0,0,.514-.135.7.7,0,0,1,.307-.086l.054-.012c.1-.04.226-.084.381-.133.112-.047.214-.089.3-.135a1.277,1.277,0,0,1,.13-.051l.058-.014a9.991,9.991,0,0,0,2.021-1.149c.53-.405,1.094-.828,1.694-1.273l1.18-.863.9-.786.314-.3.039-.058a2.22,2.22,0,0,1,.377-.414,3.311,3.311,0,0,1,.437-.391l.047-.039a10.087,10.087,0,0,1,.924-.931c.142-.128.442-.393.435-.644.16-.119.275-.207.352-.258a.933.933,0,0,0,.253-.254,3.381,3.381,0,0,0,.212-.4c.077-.163.218-.419.416-.761l.175-.282ZM959.952,126.1c.305-.4.649-.824,1.042-1.275a3.34,3.34,0,0,1,.889-.954l.044-.046a3.8,3.8,0,0,1,.565-.7,4.1,4.1,0,0,0,.609-.745,2.906,2.906,0,0,1,.482-.36,2.15,2.15,0,0,0,.553-.468l.395-.342a1.707,1.707,0,0,0,.207-.135,1.8,1.8,0,0,1,.167-.111l.047-.021.025-.056a.25.25,0,0,1,.123-.028l.052,0,.042-.032c.109-.082.233-.184.379-.309s.258-.218.361-.295l.024-.025a.355.355,0,0,1,.2-.1c.056-.012.107-.021.153-.028a.267.267,0,0,1-.04.17,2.774,2.774,0,0,0-.209.5,10.5,10.5,0,0,1-.984,1.293,5.3,5.3,0,0,1-1.04.954l-.054.054a3.291,3.291,0,0,1-.538.67l-.619.589q-1,.842-1.9,1.622a6.51,6.51,0,0,1-1.472.973A5.483,5.483,0,0,1,959.952,126.1Zm-13.492,3.969a16.582,16.582,0,0,1-1.166,2.34,11.486,11.486,0,0,1-1.821,2.3l-.061.081.005.067a.3.3,0,0,0-.06.279c-.353.188-.694.367-1.03.537s-.679.326-1.044.479a.3.3,0,0,0-.086-.123.969.969,0,0,1,.337-.61,2.176,2.176,0,0,0,.6-.758l.117-.009.037-.112a.5.5,0,0,1,.317-.307l.117-.047-.009-.116a.267.267,0,0,0,.093-.212,8.35,8.35,0,0,0,.845-1.028,4.12,4.12,0,0,1,.847-.907l.072-.061,0-.074a.232.232,0,0,0,.035-.075,8.8,8.8,0,0,0,1.175-1C945.995,130.5,946.223,130.283,946.46,130.071Zm-45.636,4.648a5.823,5.823,0,0,1,.072-1.042,1.442,1.442,0,0,1,.072-.474c.06-.207.121-.426.184-.66a1.882,1.882,0,0,1,.4-.84l-.042-.084.084-.044,0-.056a.538.538,0,0,1,.016-.177l.018-.021a4.288,4.288,0,0,0,.49-.523,1.5,1.5,0,0,1,.226-.242c.27.456.58.959.931,1.5a2.659,2.659,0,0,0,1.854,1.182,1.032,1.032,0,0,0,.546.088,2.7,2.7,0,0,1,.358,0l-.116.482a2.9,2.9,0,0,0-.589.654q-.174.289-.377.605a2.952,2.952,0,0,1-.591.638,9.652,9.652,0,0,1-1.361.907,1.491,1.491,0,0,1-.312.116,3.962,3.962,0,0,1-.5.11l-.525.089c-.153.03-.247.044-.249.046-.044-.005-.181-.023-.305-.31a3.034,3.034,0,0,1-.21-.852A10.161,10.161,0,0,1,900.823,134.719Zm3.685-6.328c.031-.179.03-.289-.061-.384l-.033-.021.011-.025a.176.176,0,0,1,.123-.065.372.372,0,0,0,.338-.232l.093-.249-.084,0c.11-.17.24-.353.388-.547q.334-.437.691-.872c.247-.3.472-.558.69-.786a3.275,3.275,0,0,1,.44-.4c.076.065.184.249.235.76a10.521,10.521,0,0,1-.016,1.887c-.067.7-.16,1.4-.283,2.089-.109.619-.207,1.1-.288,1.431a.894.894,0,0,1-.737-.181,3.444,3.444,0,0,1-.737-.774,4.667,4.667,0,0,1-.516-.93C904.645,128.8,904.559,128.566,904.509,128.39Zm-31.545-8.36-.005.012,0-.012Zm-.014.035-.005.012.146.074a.45.45,0,0,0,.416.049.253.253,0,0,0,.1-.095h0a.583.583,0,0,0,.221-.075c.146-.079.168-.037.188-.009l.2-.061a.269.269,0,0,0,.239.074l.124-.009.166-.139a.77.77,0,0,0,.181.125.229.229,0,0,0,.182.007.235.235,0,0,0,.125-.114l.045.012a.416.416,0,0,0,.342-.019,1.1,1.1,0,0,1,.184.081l.086.046.084-.049a1.037,1.037,0,0,1,.628-.191,2.36,2.36,0,0,0,.7-.037.65.65,0,0,0,.249.035l.016,0c-.372,1.066-.735,2.135-1.139,3.189-.6,1.568-1.208,3.189-1.8,4.811-.268.712-.547,1.424-.823,2.136-.021.018-.03.028-.06.051-.068.028-.139.1-.14.279-.058.088-.1.149-.121.181a.234.234,0,0,0-.146.147.576.576,0,0,0-.042.182l-.105.121c-.068.081-.26.307-.568.679-.3.354-.642.747-1.058,1.2-.395.428-.786.823-1.165,1.175a2.326,2.326,0,0,1-.775.57l-.063.032c-.373.295-.752.579-1.136.844q-.553.392-1,.73a.255.255,0,0,0-.109-.014l-.079.005-.047.061c-.254.319-.383.354-.41.335l-.293-.195.028.449a3.639,3.639,0,0,0-.391.189,1.61,1.61,0,0,0-.321.233,1.391,1.391,0,0,1-.283.189c-.123.061-.287.135-.5.221l-.091.035-.016.095c-.023.112-.06.121-.074.125a2.315,2.315,0,0,0-.351.112l-.118.079,0,.042a.644.644,0,0,0-.075.068c-.354.132-.737.293-1.14.482a12.7,12.7,0,0,1-1.224.5,5.621,5.621,0,0,1-1.105.421,7.6,7.6,0,0,1-1.179.212,1.486,1.486,0,0,1-.214-1.226,5.707,5.707,0,0,0,.214-1.586,4.681,4.681,0,0,1,.149-1.026q.129-.487.219-1.04c.118-.982.258-1.989.417-2.992a8.058,8.058,0,0,1,.767-2.468l.016-.044c.084-.37.151-.631.195-.779a2.271,2.271,0,0,1,.13-.34,2.228,2.228,0,0,0,.158-.4c.046-.153.116-.4.2-.737a22.415,22.415,0,0,1,.989-2.654,24.752,24.752,0,0,0,.958-2.454c.065-.158.114-.284.147-.386.005-.016.033-.077.163-.156.175-.046.374-.093.6-.142a3.947,3.947,0,0,1,.609-.093l.053,0,.044-.032a.165.165,0,0,1,.07-.04.616.616,0,0,0,.391.095l.072-.005.047-.054a.641.641,0,0,1,.069-.063.252.252,0,0,0,.238-.263.34.34,0,0,0,.23-.023.424.424,0,0,0,.195-.207l.018,0a.3.3,0,0,0,.132.093l.018.072.135-.009.107.044,0-.051a4.063,4.063,0,0,0,.542-.063,3.218,3.218,0,0,1,.442-.054l.072-.005.047-.054a.552.552,0,0,0,.135-.363.223.223,0,0,0,.154.063l.06.054a.564.564,0,0,0,.674.105c.021-.011.04-.019.058-.03.084.111.21.068.386.012l-.021-.116.012-.016a1.989,1.989,0,0,1,.518-.147c.121-.018.147,0,.145.011l0,.054.031.042c.063.084.154.214.309.16l.13-.074-.005-.091v0a.326.326,0,0,0,.133.067l.153.028.02-.026a.607.607,0,0,0,.253-.023,3.1,3.1,0,0,0,.316-.109.885.885,0,0,0,.245-.135l.153.088.049-.112.033.03.054.049.072-.005a.587.587,0,0,0,.267-.068l0,.042Zm-4.287,0-.012.005-.068.04a.914.914,0,0,0,.084-.065ZM851.721,138.02l0,0,.016,0,.035.009v.005A.366.366,0,0,0,851.721,138.02Zm-35.974-4.327q-1,.842-1.9,1.623a6.474,6.474,0,0,1-1.472.973,5.333,5.333,0,0,1,.5-.8c.3-.4.647-.824,1.04-1.275a3.348,3.348,0,0,1,.891-.954l.042-.046a3.874,3.874,0,0,1,.565-.7,4.1,4.1,0,0,0,.609-.745,2.738,2.738,0,0,1,.484-.358,2.219,2.219,0,0,0,.551-.47l.4-.342a1.8,1.8,0,0,0,.205-.135,1.675,1.675,0,0,1,.168-.109l.046-.023.024-.056a.266.266,0,0,1,.123-.028l.055,0,.04-.032c.109-.082.233-.184.381-.309s.256-.218.36-.295l.024-.023a.363.363,0,0,1,.2-.1c.056-.012.107-.021.153-.028a.277.277,0,0,1-.04.17,2.658,2.658,0,0,0-.211.5,10.314,10.314,0,0,1-.984,1.293,5.256,5.256,0,0,1-1.04.954l-.054.054a3.237,3.237,0,0,1-.539.67Zm71.365-3.829.012-.035.042.044C887.159,129.876,887.13,129.864,887.112,129.864Zm-9.182-11.212.056-.061-.032.091-.044-.012Zm-33.781,13.053.016-.044.065.051C844.219,131.72,844.178,131.707,844.149,131.706Zm-1.379,7.356.01-.016,0,0Zm.044-.063.058-.088a.1.1,0,0,1-.058.095Zm23.5.675,0-.065.06-.005A.087.087,0,0,1,866.309,139.674Z" transform="translate(-780.567 -101.998)"/></g></g></svg>