<svg xmlns="http://www.w3.org/2000/svg" width="242" height="51.26" viewBox="0 0 242 51.26"><defs><style>.a{fill:#13505c;}</style></defs><g transform="translate(-58.974 -78.861)"><g transform="translate(58.974 109.334)"><path class="a" d="M58.974,105.576V125.46h5.194v-9.775h5.565v-.758H64.168v-8.62h8.616v-.731Z" transform="translate(-58.974 -105.068)"/><g transform="translate(26.552 0.508)"><path class="a" d="M87.036,106.308H88.2a5.07,5.07,0,0,1,1.548.187,1.832,1.832,0,0,1,.917.632,3.54,3.54,0,0,1,.5,1.356,17.6,17.6,0,0,1,.139,2.347,13.2,13.2,0,0,1-.11,1.948,4.147,4.147,0,0,1-.406,1.353,1.738,1.738,0,0,1-.815.789,3.264,3.264,0,0,1-1.466.261h-1.47Zm10.855,17.654c-.25-.5-.479-1.043-.7-1.57s-.421-1.039-.589-1.515c-.119-.339-.211-.62-.284-.845l-.081-.25a6.623,6.623,0,0,0-.932-1.864,5.35,5.35,0,0,0-1.388-1.326,8.679,8.679,0,0,0-1.829-.783c-.306-.08-.631-.15-.987-.211q.579-.108,1.156-.257a7.671,7.671,0,0,0,2.116-.87,5.181,5.181,0,0,0,1.559-1.445,3.909,3.909,0,0,0,.6-2.169,4.944,4.944,0,0,0-.472-2.178,4.425,4.425,0,0,0-1.481-1.687A8.514,8.514,0,0,0,92,105.949h0a16.038,16.038,0,0,0-3.775-.373H81.87V125.46h5.166v-9.52h.877a4.5,4.5,0,0,1,1.455.184,1.736,1.736,0,0,1,.835.654,5.267,5.267,0,0,1,.571,1.445c.195.747.39,1.612.564,2.506a24.643,24.643,0,0,0,.655,2.506,7.056,7.056,0,0,0,1.162,2.149l.058.075h5.651l-.262-.32a6.263,6.263,0,0,1-.711-1.178" transform="translate(-81.87 -105.576)"/></g><path class="a" d="M112.335,112.384l2.178,5.776H110Zm2.076-7.246-8.266,20.392h.874l2.683-6.61h5.1l2.515,6.61h5.563L114.9,105.138Z" transform="translate(-51.442 -105.138)"/><path class="a" d="M145.577,105.576v12.938l-8.142-12.938H131.68V125.46h.815V107.446L143.4,125.46h2.991V105.576Z" transform="translate(-47.365 -105.068)"/><path class="a" d="M174.15,117.713a12.39,12.39,0,0,1-.917,2.976,9.01,9.01,0,0,1-1.546,2.375,6.873,6.873,0,0,1-2.147,1.541,6.2,6.2,0,0,1-2.711.574,4.425,4.425,0,0,1-2.572-.728,5.429,5.429,0,0,1-1.719-2.024,9.576,9.576,0,0,1-1-3.073,23.111,23.111,0,0,1-.309-3.782,27.422,27.422,0,0,1,.253-3.814,10.452,10.452,0,0,1,.861-3.055,4.908,4.908,0,0,1,1.574-2.011,4.2,4.2,0,0,1,2.513-.726c2.4,0,4.208.589,5.369,1.75a8.355,8.355,0,0,1,2.176,5.137l.02.175h.791l-.025-.219a8.785,8.785,0,0,0-2.491-5.687,8.6,8.6,0,0,0-5.98-1.888,10.52,10.52,0,0,0-3.887.749,10.837,10.837,0,0,0-3.335,2.127,9.933,9.933,0,0,0-2.334,3.255,9.747,9.747,0,0,0-.893,4.206,10.568,10.568,0,0,0,.806,4.2,9.416,9.416,0,0,0,2.28,3.259,10.428,10.428,0,0,0,3.508,2.1,12.134,12.134,0,0,0,4.421.776,6.843,6.843,0,0,0,2.873-.58,7.366,7.366,0,0,0,2.407-1.625,9.323,9.323,0,0,0,1.762-2.566,12.169,12.169,0,0,0,1.033-3.36l.037-.227h-.79Z" transform="translate(-43.507 -105.123)"/><path class="a" d="M184.071,105.576V125.46h14.771v-.732h-9.577V115.4H195.2v-.76h-5.933v-8.337h9.124v-.731Z" transform="translate(-38.999 -105.068)"/><path class="a" d="M205.845,105.576v.731h6.018V125.46h5.194V106.307h6.016v-.731Z" transform="translate(-35.523 -105.068)"/><path class="a" d="M230.128,105.576v.731h6.016V125.46h5.2V106.307h6.016v-.731Z" transform="translate(-31.645 -105.068)"/><path class="a" d="M254.916,105.619V125.5h14.771v-.732H260.11v-9.325h5.932v-.76H260.11V106.35h9.124v-.731Z" transform="translate(-27.687 -105.061)"/></g><g transform="translate(141.599 78.861)"><path class="a" d="M145.594,90.423l-1.112.391.067.386a8.684,8.684,0,0,1,.112,2.272,5.753,5.753,0,0,1-.5,1.964A4.7,4.7,0,0,1,143,97a5.429,5.429,0,0,1-1.895,1.065,3.667,3.667,0,0,1-2.062.143,4.213,4.213,0,0,1-1.853-.924,6.843,6.843,0,0,1-1.628-1.9,13.147,13.147,0,0,1-1.274-2.7,14.373,14.373,0,0,1-.71-2.92,7.257,7.257,0,0,1,.009-2.464,4.316,4.316,0,0,1,.816-1.855A3.82,3.82,0,0,1,136.14,84.3a4.939,4.939,0,0,1,6.828,2.8l.181.362,1.112-.384-.233-.472a6.623,6.623,0,0,0-3.5-3.542,7.134,7.134,0,0,0-4.825.167,8.2,8.2,0,0,0-2.731,1.6,8.619,8.619,0,0,0-1.9,2.5,8.2,8.2,0,0,0-.827,3.109v0a9.109,9.109,0,0,0,2.218,6.494,7.815,7.815,0,0,0,2.554,1.947,8,8,0,0,0,3.1.751c.162.01.326.015.491.015a8.792,8.792,0,0,0,2.878-.5,6.355,6.355,0,0,0,2.287-1.3,5.8,5.8,0,0,0,1.435-1.9,6.833,6.833,0,0,0,.626-2.366,9.482,9.482,0,0,0-.138-2.626Z" transform="translate(-130.223 -78.244)"/><path class="a" d="M155.208,79.28l-.615.079-4.65,16.93,1.256-.14,1.524-5.521,4.3-.477,2.566,5.068,3.8-.421-7.924-15.25Zm-2.165,10.155,1.269-4.617,2.155,4.237Z" transform="translate(-127.074 -78.794)"/><path class="a" d="M174.421,90.355l-3.039-11.131-3.83-.363,4.728,16.763.749.065L181,80.14l-1.278-.128Z" transform="translate(-124.262 -78.861)"/><path class="a" d="M198.136,86.277l.335-1.077-10.2-3.209-4.805,15.272,10.657,3.353.343-1.076-7.246-2.279,2.007-6.378,4.654,1.464.341-1.075-4.656-1.464,1.783-5.669Z" transform="translate(-121.721 -78.361)"/></g></g></svg>