<svg xmlns="http://www.w3.org/2000/svg" width="240.562" height="51.081" viewBox="0 0 240.562 51.081"><defs><style>.a{fill:#fff;}</style></defs><path class="a" d="M738.448,89.38v19.766h5.163V99.429h5.532v-.754h-5.532V90.106h8.565V89.38Z" transform="translate(-738.448 -88.874)"/><g transform="translate(26.394 0.505)"><path class="a" d="M766.48,90.106h1.153a5.04,5.04,0,0,1,1.539.186,1.821,1.821,0,0,1,.912.628,3.52,3.52,0,0,1,.5,1.348,17.486,17.486,0,0,1,.138,2.333,13.118,13.118,0,0,1-.11,1.937,4.123,4.123,0,0,1-.4,1.345,1.728,1.728,0,0,1-.81.784,3.244,3.244,0,0,1-1.457.259H766.48Zm10.79,17.549c-.249-.5-.476-1.036-.7-1.561s-.418-1.033-.586-1.506c-.119-.337-.21-.617-.282-.84l-.081-.249a6.581,6.581,0,0,0-.927-1.853,5.318,5.318,0,0,0-1.38-1.318,8.627,8.627,0,0,0-1.818-.778c-.3-.08-.627-.149-.981-.21q.576-.107,1.149-.256a7.625,7.625,0,0,0,2.1-.865,5.151,5.151,0,0,0,1.549-1.436,3.886,3.886,0,0,0,.593-2.156,4.914,4.914,0,0,0-.469-2.165,4.4,4.4,0,0,0-1.472-1.677,8.464,8.464,0,0,0-2.559-1.036h0a15.943,15.943,0,0,0-3.752-.371h-6.316v19.766h5.136V99.681h.871a4.47,4.47,0,0,1,1.447.183,1.726,1.726,0,0,1,.83.65,5.234,5.234,0,0,1,.567,1.436c.194.742.387,1.6.56,2.491a24.49,24.49,0,0,0,.651,2.491,7.012,7.012,0,0,0,1.155,2.136l.058.075h5.617l-.261-.318a6.229,6.229,0,0,1-.707-1.171" transform="translate(-761.344 -89.379)"/></g><path class="a" d="M791.773,96.144l2.165,5.742h-4.483Zm2.064-7.2-8.217,20.271h.869l2.668-6.571h5.07l2.5,6.571h5.53l-7.931-20.271Z" transform="translate(-731.241 -88.941)"/><path class="a" d="M824.969,89.38v12.862L816.875,89.38h-5.721v19.766h.81V91.238l10.843,17.907h2.973V89.38Z" transform="translate(-727.34 -88.874)"/><path class="a" d="M853.515,101.442a12.32,12.32,0,0,1-.912,2.958,8.956,8.956,0,0,1-1.537,2.361,6.833,6.833,0,0,1-2.134,1.532,6.159,6.159,0,0,1-2.7.571,4.4,4.4,0,0,1-2.557-.724,5.4,5.4,0,0,1-1.708-2.012,9.519,9.519,0,0,1-.99-3.055,22.978,22.978,0,0,1-.307-3.759,27.25,27.25,0,0,1,.251-3.792,10.391,10.391,0,0,1,.855-3.036,4.879,4.879,0,0,1,1.564-2,4.179,4.179,0,0,1,2.5-.722c2.388,0,4.184.586,5.337,1.74a8.3,8.3,0,0,1,2.163,5.107l.02.174h.786l-.025-.218a8.733,8.733,0,0,0-2.476-5.653,8.552,8.552,0,0,0-5.945-1.877,10.458,10.458,0,0,0-3.864.745,10.773,10.773,0,0,0-3.315,2.114,9.874,9.874,0,0,0-2.321,3.236,9.69,9.69,0,0,0-.888,4.181,10.505,10.505,0,0,0,.8,4.178,9.36,9.36,0,0,0,2.266,3.239,10.366,10.366,0,0,0,3.487,2.088,12.062,12.062,0,0,0,4.394.771,6.8,6.8,0,0,0,2.855-.576,7.322,7.322,0,0,0,2.393-1.615,9.268,9.268,0,0,0,1.751-2.551,12.1,12.1,0,0,0,1.027-3.34l.037-.226h-.785Z" transform="translate(-723.648 -88.926)"/><path class="a" d="M863.545,89.38v19.766h14.683v-.727h-9.52v-9.27h5.9v-.755h-5.9V90.106h9.07V89.38Z" transform="translate(-719.335 -88.874)"/><path class="a" d="M885.319,89.38v.726H891.3v19.039h5.163V90.106h5.981V89.38Z" transform="translate(-716.009 -88.874)"/><path class="a" d="M909.6,89.38v.726h5.981v19.039h5.164V90.106h5.981V89.38Z" transform="translate(-712.299 -88.874)"/><path class="a" d="M934.39,89.423v19.766h14.683v-.727h-9.52v-9.27h5.9v-.755h-5.9V90.149h9.07v-.726Z" transform="translate(-708.511 -88.867)"/><g transform="translate(-56.447 -274.398)"><g transform="translate(114.732 291.85)"><path class="a" d="M813.091,117.6l0-.029a2.843,2.843,0,0,1,.311-.937,8.357,8.357,0,0,1,.51-.832l.016-.031a7.521,7.521,0,0,0,.223-.874c.043-.231.088-.5.138-.792a.353.353,0,0,0,.125-.182.282.282,0,0,0-.063-.325l-.062.057a.42.42,0,0,1,0-.259l.122-.376.006-.044a.617.617,0,0,0-.058-.207c-.029-.056-.056-.12-.078-.174a.417.417,0,0,1-.006-.244.228.228,0,0,0-.008-.2.216.216,0,0,0-.1-.087,6.864,6.864,0,0,0-.807-2.458,6.453,6.453,0,0,0-1.718-1.882,5.256,5.256,0,0,0-1.813-.694c-.685-.137-1.437-.268-2.234-.39a.963.963,0,0,0-.355,0c-.1.017-.176.028-.205.031a3.839,3.839,0,0,0-.8-.006,4.452,4.452,0,0,1-.674.026,3.344,3.344,0,0,0-.685.043c-.244.041-.5.088-.769.142s-.521.113-.767.179a3.024,3.024,0,0,1-.6.109l-.034.008c-.482.179-.965.352-1.435.513a9.859,9.859,0,0,0-1.358.584,6.263,6.263,0,0,0-1.147.54,10.18,10.18,0,0,0-.993.623.472.472,0,0,0-.271.116.194.194,0,0,1-.124.056l-.047,0-.033.037a2.475,2.475,0,0,1-.65.533,2.585,2.585,0,0,0-.68.546.372.372,0,0,0-.1.2l-.03.026c-.2.232-.365.405-.476.522a1.222,1.222,0,0,0-.246.766l0,.036.018.032a.289.289,0,0,0,.175.151.2.2,0,0,0,.134-.016l.022.035.007.123.015.051a.43.43,0,0,0,.211.168.16.16,0,0,1,.094.092l.019.033c.053.06.174.205.305.15a.33.33,0,0,0,.165-.2c.031-.074.073-.16.127-.259a.43.43,0,0,1,.2-.185,4.806,4.806,0,0,0,1.022-.539,1.843,1.843,0,0,0,.35-.33.167.167,0,0,0,.156-.066.177.177,0,0,0,.045-.172,5.741,5.741,0,0,1,1.043-.607,5.793,5.793,0,0,0,.762-.418c-.214.693-.427,1.423-.636,2.176-.254.918-.518,1.832-.781,2.715-.286.95-.555,1.82-.823,2.662-.275.86-.552,1.65-.824,2.347a3.925,3.925,0,0,0-.184.676,2.767,2.767,0,0,1-.167.58,2.067,2.067,0,0,0-.218.558,5.74,5.74,0,0,1-.2.632,4.744,4.744,0,0,1-.215.571c-.087.192-.163.378-.225.554-.189.505-.356,1.02-.5,1.532-.133.493-.281,1-.445,1.537a4.337,4.337,0,0,0-.312,1.04,2.472,2.472,0,0,1-.322.878.631.631,0,0,0-.258.033.829.829,0,0,1-.125.034l-.007-.11-.122.015a10.411,10.411,0,0,1-1.341.067,2.558,2.558,0,0,1-1.178-.282l0-.008a.232.232,0,0,0-.076-.277l-.056-.049-.069.03c-.053.024-.085.026-.1.019s-.044-.056-.051-.176a.548.548,0,0,1,.113-.449l.1-.087-.1-.086a.082.082,0,0,1-.028-.08.9.9,0,0,1,.037-.18,1.067,1.067,0,0,0,.046-.208.222.222,0,0,0-.13-.248l-.048-.02-.048.021a3.01,3.01,0,0,0-.791.512c-.2.186-.423.419-.68.713l-.026.028,0,.037a.466.466,0,0,1-.08.254.435.435,0,0,0-.1.251.261.261,0,0,0-.043,0l-.161.01.062.15a.43.43,0,0,0,.29.231.139.139,0,0,1-.01.075l-.036.109.109.037a.743.743,0,0,1,.266.142.528.528,0,0,0,.16.1c0,.029,0,.063,0,.1l0,.071.064.029a.177.177,0,0,0,.043.013c.006.014.013.027.02.041l.017.03.03.015a1.129,1.129,0,0,1,.316.247.4.4,0,0,0,.377.147.959.959,0,0,0,.282.223.935.935,0,0,0,.376.115l.012.176.135-.034a.88.88,0,0,1,.693.122,1.133,1.133,0,0,0,.791.19l.049-.009.028-.041a.152.152,0,0,1,.173-.079.421.421,0,0,0,.2-.015.111.111,0,0,0,.017.041.151.151,0,0,0,.145.064h.01a.25.25,0,0,1,.028.089c.012.043.02.193-.154.636-.136.353-.257.668-.365.954q-.3,1.047-.681,2.3a23,23,0,0,0-.6,2.455l-.232.971a4.419,4.419,0,0,0-.131.916v.019l0,.019a2.769,2.769,0,0,0,.137.338.88.88,0,0,1,.086.319l.056.121.026.031a.463.463,0,0,0,.274.07,3.268,3.268,0,0,0,.792-.063.618.618,0,0,0,.29.084.447.447,0,0,1,.234.063l.1.092.072-.117a2.458,2.458,0,0,0,.355-1.105,2.22,2.22,0,0,1,.293-.974.145.145,0,0,0-.015-.172,1.71,1.71,0,0,0,.331-.815c.051-.362.115-.7.19-1.014l.037-.152-.107.006a1.953,1.953,0,0,0,.056-.432.961.961,0,0,1,.016-.157l.171-.084c0-.023,0-.045-.008-.067l.03-.081a1.405,1.405,0,0,1,.113-.31.588.588,0,0,0,.072-.316,1.415,1.415,0,0,0,.255-.522,3.166,3.166,0,0,1,.25-.607,8.333,8.333,0,0,0,.5-1.469,10.833,10.833,0,0,1,.467-1.455,4.47,4.47,0,0,1,.456-.086,1.1,1.1,0,0,0,.536-.159q.742-.338,1.4-.654a7.966,7.966,0,0,0,1.277-.772l-.016-.034a.177.177,0,0,0,.035-.043,9.957,9.957,0,0,0,1.579-.723l.013.017.109-.007.026-.017c1.242-.837,2.51-1.743,3.77-2.691a29.447,29.447,0,0,0,3.5-3.086l-.053-.116.014-.013.112.1.056-.167a1.313,1.313,0,0,1,.166-.332.3.3,0,0,1,.248-.136l.071,0,.029-.067a1.078,1.078,0,0,1,.319-.437,3.471,3.471,0,0,0,.376-.346.172.172,0,0,0,.156-.028l.037-.033a3.119,3.119,0,0,1,.313-.375,1.836,1.836,0,0,0,.226-.284.2.2,0,0,0,.141.033l.052,0,1.726-2.323Zm1.112-3.86,0-.014c0-.019,0-.037.025-.051a.044.044,0,0,1,.026-.008.059.059,0,0,1,.026,0Zm-2.518,1.062a7.341,7.341,0,0,1-1.319,2.324c-.627.74-1.187,1.388-1.71,1.984a23.544,23.544,0,0,1-2.222,2.192c-.853.738-1.623,1.388-2.353,1.988l-.028.022-.01.034a.811.811,0,0,1-.28.424,3.821,3.821,0,0,1-.462.315c-.167.1-.333.2-.5.311a1.311,1.311,0,0,0-.384.378.774.774,0,0,0-.509.238c-.094.081-.183.163-.266.243a1.322,1.322,0,0,1-.226.176.54.54,0,0,1-.161.041.5.5,0,0,0-.277.125.436.436,0,0,0-.109.205.188.188,0,0,1-.039.082,3.245,3.245,0,0,0-.67.449,2.434,2.434,0,0,1-.561.3c-.251.1-.512.2-.786.306s-.547.207-.809.309c-.186.072-.344.138-.479.2a12.016,12.016,0,0,0,.278-1.377,9.132,9.132,0,0,1,.448-1.832l.181-.6c.122-.371.265-.749.423-1.123s.32-.733.5-1.1a9.306,9.306,0,0,0,.5-1.541,7.323,7.323,0,0,1,.52-1.5,19.2,19.2,0,0,0,.886-2.347,4.98,4.98,0,0,0,.222-.957,1.777,1.777,0,0,1,.285-.792,5.977,5.977,0,0,0,.417-1.115c.1-.366.239-.954.437-1.794a.3.3,0,0,0-.055-.288.251.251,0,0,1-.041-.146l0-.044-.031-.031c-.234-.231-.438-.426-.608-.59a4.073,4.073,0,0,0-.719-.5.572.572,0,0,1,.164-.123,2.934,2.934,0,0,1,.5-.208c.189-.06.38-.116.571-.165a1.223,1.223,0,0,0,.417-.163c.391-.19.78-.363,1.154-.512a7.133,7.133,0,0,1,1.21-.347,7.861,7.861,0,0,1,1.6-.122c.629.009,1.416.07,2.338.179a4.859,4.859,0,0,0,.563.165,2.953,2.953,0,0,1,.7.273c.257.248.5.5.723.756a3.109,3.109,0,0,1,.535.885,3.043,3.043,0,0,1,.165.643,4.846,4.846,0,0,0,.132.666.919.919,0,0,0,.028.372,1.519,1.519,0,0,1,.055.312,7.255,7.255,0,0,1-.1,1.038,6.512,6.512,0,0,1-.207.924.758.758,0,0,0-.052.241A.521.521,0,0,0,811.685,114.8Zm-13.358,14.342a.225.225,0,0,0,.071-.006c-.072.038-.142.078-.212.117C798.235,129.218,798.282,129.18,798.327,129.142Zm1.771-1.121q.773-.545,1.547-1.072l.109-.181a.343.343,0,0,0,.121-.058.1.1,0,0,1,.063-.021l.03,0,.027-.017a9.4,9.4,0,0,0,.924-.693,9.36,9.36,0,0,1,.916-.685,3.546,3.546,0,0,1,.338-.272,1.954,1.954,0,0,0,.29-.251l.042.036.1-.111c.253-.21.577-.464.96-.758a6.581,6.581,0,0,1,.543-.374,3.109,3.109,0,0,0-.391.387c-.044.075-.1.163-.164.262s-.108.079-.132.077l-.07-.012-.043.056a1.731,1.731,0,0,1-.641.488,2.215,2.215,0,0,0-.725.513l.1.123a4.063,4.063,0,0,0-.384.358,5.635,5.635,0,0,0-.759.491c-.243.186-.507.374-.786.561l-.055.037,0,.067a.648.648,0,0,1-.009.142c-.67.426-1.358.82-2.046,1.17-.427.218-.857.445-1.28.676C799.194,128.646,799.655,128.333,800.1,128.021Z" transform="translate(-788.834 -106.622)"/><path class="a" d="M921.945,118.287s-.024-.016-.046-.106a.688.688,0,0,0-.2-.362l-.063-.056-.072.043c-.1.058-.247.16-.452.311s-.439.33-.737.558l-.332.377c-.05.033-.127.089-.242.18s-.241.2-.369.3-.251.205-.366.3a2.167,2.167,0,0,0-.215.182c-.317.284-.561.49-.724.611s-.358.275-.615.491l-.9.491c-.087-.057-.192.022-.242.06l-.469.254a8.259,8.259,0,0,1-1.018.538,5.246,5.246,0,0,1-.789.3c-.229.064-.475.127-.752.2a4.312,4.312,0,0,1-2.517.121,2.186,2.186,0,0,1-.853-.259,3.973,3.973,0,0,1-.692-.476.624.624,0,0,0-.161-.209c-.02-.019,0-.082.029-.136l.007-.015a1.433,1.433,0,0,0,.949-.3,2.821,2.821,0,0,1,1.011-.489l.035-.008.023-.027a3.628,3.628,0,0,1,.625-.556,3.883,3.883,0,0,0,.663-.593l.031-.036,0-.049a.135.135,0,0,1,.051-.127l.026-.024a.994.994,0,0,1,.391-.322,1.139,1.139,0,0,0,.479-.432c.106-.146.227-.3.367-.457s.253-.287.345-.391l.02-.03c.043-.1.081-.209.113-.312a.514.514,0,0,1,.1-.2,1.866,1.866,0,0,1,.273-.311.858.858,0,0,0,.249-.369.437.437,0,0,0,.035-.2.113.113,0,0,1,.035-.067l.019-.026a2.017,2.017,0,0,0,.18-.52,1.178,1.178,0,0,0-.055-.568l-.012-.037-.032-.023a.449.449,0,0,1-.2-.248.442.442,0,0,0-.353-.311,1.735,1.735,0,0,0-.537-.462,1.451,1.451,0,0,1-.489-.428l-.037-.053-.065,0a.538.538,0,0,0-.233.064l-.151.089a.42.42,0,0,1-.228.07.643.643,0,0,0-.337.1,2.777,2.777,0,0,0-.541.28,6.186,6.186,0,0,0-.553.4,3.46,3.46,0,0,1-.485.435,1.569,1.569,0,0,1-.392.316,1.806,1.806,0,0,0-.453.369,3.489,3.489,0,0,1-.4.453c-.065.06-.169.15-.259.228l-.438.087a2.657,2.657,0,0,1-.6.041l0-.029-.036.028-.121,0,.006.091-.02.015c-.074.055-.135.1-.18.143-.007.007-.027.021-.078.007l-.063-.017-.046.045a1.032,1.032,0,0,1-.447.244c-.187.046-.368.1-.537.16a.543.543,0,0,0-.1.019l-.108-.192-.093.218,0,.012a3.34,3.34,0,0,0-.74.217q-.522.2-1.115.44l-1.13.459a4.251,4.251,0,0,1-.611.208,3.79,3.79,0,0,0-.081-.44l-.153-.67c-.05-.228-.108-.445-.172-.644a1.248,1.248,0,0,0-.219-.446,1.625,1.625,0,0,0-.5-.6,1.289,1.289,0,0,0-.793-.157,1.189,1.189,0,0,0-.95-.1,1.335,1.335,0,0,0-.936.936,4.828,4.828,0,0,1-.447.583,5.765,5.765,0,0,0-.558.753,1.273,1.273,0,0,1-.192.163,3.816,3.816,0,0,0-.3.237.44.44,0,0,0-.108.253.218.218,0,0,1-.051.125.647.647,0,0,1-.265.207.914.914,0,0,0-.27.16l-.26.016-.033.046a3.365,3.365,0,0,1-.5.583c-.16.144-.305.27-.431.375s-.254.215-.369.32a1.961,1.961,0,0,0-.335.41l-.083.016a.152.152,0,0,0-.064.006l-.121.041.021.081c-.02.02-.048.048-.087.085a8.426,8.426,0,0,1-1.756,1.455l-.036.035c-.048.073-.08.122-.1.144l-.042,0a.567.567,0,0,0-.248.1l-.042.024-.029.113a9.8,9.8,0,0,0-1.292.954,3.09,3.09,0,0,1-1.308.713,1.763,1.763,0,0,1-.166-.76,7.062,7.062,0,0,1,.07-1.182c.059-.417.125-.828.2-1.22s.135-.713.188-.982a2.071,2.071,0,0,0,.241-.6,5.347,5.347,0,0,0,.151-.873,5.931,5.931,0,0,0,.015-.94c-.02-.3-.05-.583-.089-.832l-.009-.053-.048-.028a1.369,1.369,0,0,0-.583-.222c-.124,0-.355,0-.708.027l-.067,0-.029.066a.581.581,0,0,1-.219.107l-.081.029,0,.088a.345.345,0,0,1-.043.233.838.838,0,0,0-.159.3,33.224,33.224,0,0,1-3.118,4.269,26.8,26.8,0,0,1-2.983,2.966c.022-.34.051-.664.091-.967.048-.378.12-.781.209-1.18.087-.21.189-.479.3-.8a7.143,7.143,0,0,1,.426-.964,1.822,1.822,0,0,0,.151-.424c.048-.175.1-.36.152-.556l.012-.041c.062-.214.115-.421.165-.622.024-.1.044-.179.06-.247.053-.1.113-.2.147-.27l.027,0,.2-.462a.671.671,0,0,0-.007-.445.454.454,0,0,1,.059-.353l.088-.18-.149.009a.837.837,0,0,1-.019-.14l0-.035-.021-.028a3.788,3.788,0,0,0-.265-.305.486.486,0,0,0-.5-.149.926.926,0,0,0-.65-.1c-.258.041-.473.08-.643.115l-.038.008-.026.029a.2.2,0,0,0-.034.211.343.343,0,0,1-.009.131l-.3,1.087c-.117.441-.28.975-.484,1.587-.018.051-.031.106-.048.157l-.152.117a3.019,3.019,0,0,1-.564.355c-.224.113-.456.225-.693.338l-1.291.6c-.21.11-.424.215-.636.315a4.558,4.558,0,0,1-.647.244l-.452.208a7.625,7.625,0,0,1-.838.231,4.868,4.868,0,0,0,.283-1.373,11.456,11.456,0,0,0,.015-1.524,6.325,6.325,0,0,0-.144-1.079c-.057-.217-.1-.351-.221-.342a.12.12,0,0,0-.057.017.3.3,0,0,0-.246-.045,1.918,1.918,0,0,1-.374-.274,1.029,1.029,0,0,0-.534-.258l-.058-.01a.153.153,0,0,0-.057-.039,1.959,1.959,0,0,0-.241-.122.507.507,0,0,0-.391.05l-.1.007c-.051-.107-.164-.154-.337-.144l-.067.013a.131.131,0,0,0-.12,0h0a.248.248,0,0,0-.205-.132.409.409,0,0,0-.174.059,1.425,1.425,0,0,1-.166.079.466.466,0,0,1-.26-.02l-.051-.014-.666.467a2.1,2.1,0,0,0-.622.424,8.006,8.006,0,0,0-.717.756,8.562,8.562,0,0,0-.7.978c-.163.26-.285.505-.409.75,0,0-.007,0-.013,0l-.1.056.024.1-.048,0-.028.065a.2.2,0,0,0-.018.068.259.259,0,0,0-.062.055l-.031.036v.029l-.028.013a.136.136,0,0,0-.072.12c-.06.1-.121.153-.171.156a1.687,1.687,0,0,0-.431.1l-.081.03,0,.087a.183.183,0,0,1-.044.116.523.523,0,0,0-.332.21.555.555,0,0,0-.258.147l-.137.156-.045.091-.013.015c-.167.152-.21.221-.222.27a1,1,0,0,1-.043.117l0,.007a.144.144,0,0,0-.033.057q-.359.333-.573.522l-.367.318-.207.176a1.292,1.292,0,0,0-.135.131.923.923,0,0,0-.238.174.313.313,0,0,1-.2.1l-.052.016c-.029.017-.036.014-.038.014a.226.226,0,0,0-.228.084.209.209,0,0,0-.109.121l-.036.044-.232.226c-.282.216-.664.479-1.137.787a3.719,3.719,0,0,1-1.287.564l-.238.015a.3.3,0,0,1-.178-.044l-.03-.016h-.036a.96.96,0,0,0-.288.061c-.044.017-.055.006-.066,0l-.032-.02c-.038-.016-.116-.08-.2-.318-.076-.215-.129-.369-.16-.47a3.086,3.086,0,0,1-.185-.964c-.01-.326-.006-.715.014-1.192v-.488a.757.757,0,0,0,.028-.222c0-.009,0-.045.053-.136.022-.053.044-.113.066-.179a.2.2,0,0,0,.007-.129,1.444,1.444,0,0,0,.123-.511c.023-.262.051-.49.085-.7a1.583,1.583,0,0,0,.007-.535.48.48,0,0,0-.079-.322.55.55,0,0,1-.086-.142.171.171,0,0,0-.158-.121.262.262,0,0,0-.028-.074l-.044-.078-.087.023a.62.62,0,0,1-.279.02,1.286,1.286,0,0,1-.276-.085c-.1-.042-.188-.079-.265-.113a.434.434,0,0,0-.359.031.873.873,0,0,0-.452.222.946.946,0,0,1-.3.193l-.164.01a.29.29,0,0,0-.185.12.56.56,0,0,1-.131.109c-.3.261-.6.508-.9.733a10.344,10.344,0,0,0-.879.741,10.019,10.019,0,0,0-.824.8,10.651,10.651,0,0,1-.845.822l-.258.258-.152.25-.9.94c-.145.152-.287.305-.421.459a.609.609,0,0,1,.036-.088c.045-.091.088-.187.132-.293l.664-1.656q.259-.569.5-1.139a4.335,4.335,0,0,0,.3-1.225.177.177,0,0,0,.026-.013l.059-.062,0-.035.318-.669.183-.561,1.255-3.39.007-.048a.055.055,0,0,1,0-.03.259.259,0,0,0,.057-.161l.127-.262a4.139,4.139,0,0,1,.133-.421,3.7,3.7,0,0,1,.173-.385l.01-.038a1.2,1.2,0,0,1,.081-.305l.128-.3.008-.053c-.007-.1,0-.139,0-.139h0l.03-.034,0-.05c0-.026-.006-.1.164-.157l.067-.024.008-.073a3.834,3.834,0,0,1,.2-.87,8.653,8.653,0,0,1,.346-.861.622.622,0,0,0,.043-.208l.014-.007a.249.249,0,0,0,.169-.042l.06-.036-.021-.319.28-.353.019-.034a5.085,5.085,0,0,1,.218-.517,3.5,3.5,0,0,1,.3-.5.066.066,0,0,1,.022-.035.284.284,0,0,0,.15-.16.4.4,0,0,0,.036-.178.154.154,0,0,1,.036-.053l.023-.026,0-.034a1.75,1.75,0,0,0,0-.629.866.866,0,0,0-.272-.478.373.373,0,0,0-.214-.138.316.316,0,0,1-.143-.073l-.154-.134-.137.008a.332.332,0,0,1-.127-.067.4.4,0,0,0-.464-.03.045.045,0,0,1-.046,0L858,107.91l-.027,0a.223.223,0,0,0-.137-.027.677.677,0,0,0-.176-.008l-.137-.122-.037.2c-.055.295-.122.58-.2.847a4.185,4.185,0,0,1-.347.816,18.61,18.61,0,0,0-.794,2.05q-.338,1.05-.677,2.063l-.283.8c0,.014-.014.052-.1.078l-.057.017-.018.057c-.023.068-.051.137-.074.207l-.036-.062a.144.144,0,0,1-.015-.088.239.239,0,0,0-.058-.225,1.259,1.259,0,0,0-.831-.372,6.635,6.635,0,0,0-.73-.01c-.309-.094-.347-.1-.4-.015l-.031.059-.012,0-.024-.046a.453.453,0,0,0-.2.065l-.008-.012a.431.431,0,0,1-.215.014,1,1,0,0,0-.254-.024,1.19,1.19,0,0,0-.734.053,1.037,1.037,0,0,1-.575.07l-.029,0-.026.008a.932.932,0,0,1-.152.043l-.916.058a4.3,4.3,0,0,0-1.017.212c-.409.027-.806.064-1.177.113-.323.042-.659.1-1.008.156a.645.645,0,0,1,.19-.354,1.588,1.588,0,0,0,.4-.6,5.74,5.74,0,0,0,.246-.579,3.414,3.414,0,0,1,.239-.524,2.607,2.607,0,0,1,.333-.567,1.866,1.866,0,0,0,.329-.668l0-.036a.19.19,0,0,1,.012-.074l.291-.258.03-.042a.548.548,0,0,0-.036-.531,1.517,1.517,0,0,0-.384-.395,2.068,2.068,0,0,0-.525-.277,2.5,2.5,0,0,0-.4-.113.227.227,0,0,0-.168-.1.075.075,0,0,1,.022.014l-.21-.1a.238.238,0,0,0-.3.056l-.032.037.013.2c-.46.831-.929,1.695-1.433,2.638-.454.851-.893,1.791-1.308,2.8a22.559,22.559,0,0,0-2.343.549c-.618.192-1.126.369-1.556.544s-.828.341-1.187.5a8.236,8.236,0,0,1-1.229.413l-.3-.2.015.231a.7.7,0,0,0,.2.426.3.3,0,0,1,.072.291l-.014.052.03.044a.859.859,0,0,0,.337.295.646.646,0,0,0,.535-.037h.009a.574.574,0,0,0,.108.055l.037.008a1.187,1.187,0,0,0,.659-.163.644.644,0,0,1,.442-.1l.032.009.033-.01c.295-.094.469-.154.536-.186a.576.576,0,0,0,.065-.032l.128-.008a4.569,4.569,0,0,0,.562-.111,2.782,2.782,0,0,0,.489-.146c.139-.057.306-.116.468-.171a1.471,1.471,0,0,0,.529-.134c.139-.064.29-.125.459-.187h0l.044.037.026.017a9.262,9.262,0,0,1-.454,1.31l-.621,1.469-.214.441.075,0a.562.562,0,0,1-.02.063c-.189.534-.365,1.085-.522,1.64-.08.28-.127.546-.189.82a1.375,1.375,0,0,1-.412.153l-.115.007.007.116a.77.77,0,0,1-.008.128l0,.015a.461.461,0,0,0-.179.079.367.367,0,0,0-.334.167,1.789,1.789,0,0,1-.125.18,1.247,1.247,0,0,0-.327.235,2.435,2.435,0,0,1-.311.257,4,4,0,0,1-.425.348c-.15.106-.291.2-.433.281l-.028.023a.579.579,0,0,0-.194.382h0l-.033-.029h0l-.087-.078a1.014,1.014,0,0,0-.075.1,1.3,1.3,0,0,0-.073.116.238.238,0,0,1-.144.107l-.087.028.006.091a.085.085,0,0,1-.053.1.121.121,0,0,1-.128,0l-.188-.111.01.159-.046-.02-.046.107a.389.389,0,0,0-.037.168.508.508,0,0,0-.544.169.991.991,0,0,1-.476.286.255.255,0,0,0-.295.039l-.1.12a5.164,5.164,0,0,1-.656.42,2.747,2.747,0,0,1-.533.211,2.443,2.443,0,0,1-.572.071c-.21,0-.469-.01-.771-.037a1.884,1.884,0,0,1-.476-.988,8,8,0,0,1-.152-2.417v-.056l-.042-.037c-.025-.022-.027-.1.042-.252s.1-.24.07-.312a2.4,2.4,0,0,0,.128-.834c0-.355.006-.651.017-.878l0-.039-.022-.033a1.013,1.013,0,0,1-.154-.32.275.275,0,0,0-.233-.226l0-.073-.115.007a1.1,1.1,0,0,1-.607-.108,1.117,1.117,0,0,0-.633-.142h-.006a1.033,1.033,0,0,0-.5.259.587.587,0,0,1-.375.164l-.042,0-.031.03a8.652,8.652,0,0,1-.914.746,11.724,11.724,0,0,0-1,.8,9.08,9.08,0,0,0-.932.88,6.269,6.269,0,0,1-.9.817l-.027.027c-.269.385-.557.8-.859,1.251q-.259.383-.521.734.134-.456.3-.994c.132-.425.25-.8.349-1.121.175-.5.339-.95.5-1.371a3.934,3.934,0,0,0,.248-1.476v-.052l-.039-.034a2.2,2.2,0,0,0-.185-.143.352.352,0,0,1-.1-.1l-.021-.039-.043-.014a4.019,4.019,0,0,0-.658-.186,3.062,3.062,0,0,1-.468-.113l-.052-.015-.044.029c-.166.108-.295.131-.381.072l-.135-.093-.044.158c-.319,1.149-.692,2.3-1.1,3.427-.071.2-.125.414-.192.618l-.163.185c-.05.032-.127.089-.241.18s-.242.2-.368.3-.252.205-.367.3a1.977,1.977,0,0,0-.214.182c-.317.284-.561.49-.725.611s-.359.275-.616.491l-.9.491c-.087-.057-.192.022-.242.06l-.468.254a8.259,8.259,0,0,1-1.019.538,5.241,5.241,0,0,1-.789.3c-.229.064-.475.127-.752.2a4.309,4.309,0,0,1-2.516.121,2.19,2.19,0,0,1-.854-.259,4.045,4.045,0,0,1-.692-.475.611.611,0,0,0-.16-.21c-.021-.019,0-.082.029-.136l.007-.015a1.438,1.438,0,0,0,.948-.3,2.809,2.809,0,0,1,1.01-.489l.035-.008.023-.027a3.623,3.623,0,0,1,.624-.556,3.841,3.841,0,0,0,.663-.593l.031-.036,0-.049a.129.129,0,0,1,.051-.125l.024-.026a1,1,0,0,1,.391-.322,1.141,1.141,0,0,0,.48-.432c.107-.146.226-.3.367-.457s.253-.286.345-.391l.02-.03a3.185,3.185,0,0,0,.113-.312.527.527,0,0,1,.1-.2,1.737,1.737,0,0,1,.274-.311.865.865,0,0,0,.248-.37.437.437,0,0,0,.035-.2.116.116,0,0,1,.036-.067l.017-.026a2.015,2.015,0,0,0,.18-.52,1.182,1.182,0,0,0-.053-.567l-.012-.038-.034-.023a.438.438,0,0,1-.194-.248.446.446,0,0,0-.354-.311,1.752,1.752,0,0,0-.538-.462,1.462,1.462,0,0,1-.489-.428l-.037-.053-.065,0a.538.538,0,0,0-.233.064l-.151.089a.42.42,0,0,1-.228.07.652.652,0,0,0-.336.1,2.71,2.71,0,0,0-.541.28,6.019,6.019,0,0,0-.553.4,3.479,3.479,0,0,1-.487.435,1.572,1.572,0,0,1-.392.317,1.8,1.8,0,0,0-.453.368,3.5,3.5,0,0,1-.4.453c-.115.1-.267.237-.452.4l-.519.784L810.515,125a3.248,3.248,0,0,0-.51,1.291c-.079.47-.136.846-.166,1.113a2.3,2.3,0,0,0-.042.564,2.338,2.338,0,0,0,.116.562c.057.143.115.3.175.463a2.425,2.425,0,0,0,.272.534,7.553,7.553,0,0,0,.682.721,2.364,2.364,0,0,0,.841.507,4.952,4.952,0,0,0,.787.232c.244.046.5.087.77.118l.073-.008.041-.046a1.32,1.32,0,0,0,.248.066l.023,0,.022-.006a2.561,2.561,0,0,1,.771.024l.087.012.028-.064c.11.027.185.019.222-.016a.174.174,0,0,1,.06.026l.064.037.06-.042a.409.409,0,0,1,.272-.093.939.939,0,0,0,.212-.014.228.228,0,0,0,.1.073l.079.034.055-.064a.15.15,0,0,1,.145-.052.3.3,0,0,0,.275-.067.283.283,0,0,0,.283-.091c.021-.024.028-.024.057-.007l.071.042.063-.055a.561.561,0,0,1,.2-.121c.038-.008.084-.019.135-.033l.028.043.078,0a.788.788,0,0,0,.339-.089.462.462,0,0,1,.2-.057l.036-.008c.068-.027.15-.056.252-.088.074-.031.142-.059.2-.089s.086-.033.086-.034l.039-.009a6.619,6.619,0,0,0,1.337-.76c.349-.268.723-.548,1.12-.843l.781-.571.6-.52.03-.029c-.041.212-.1.411-.132.627-.048.015-.157.07-.142.272a.562.562,0,0,1,0,.29,1.19,1.19,0,0,0-.037.388c.009.15.038.6.352.661.124.023.3.066.529.132a.178.178,0,0,0,.057.149l.024.021.031.007a2.89,2.89,0,0,0,.751.066,3.369,3.369,0,0,0,.549-.074l.038-.016a1.258,1.258,0,0,0,.3-.282.411.411,0,0,1,.221-.143l.045-.012.023-.038a19.2,19.2,0,0,1,2.245-2.941c.832-.9,1.64-1.815,2.405-2.734a1.317,1.317,0,0,0,.511-.445,1.124,1.124,0,0,1,.273-.281c-.013.793-.014,1.48,0,2.043a9.053,9.053,0,0,0,.317,2.068l.038.1.1-.006c.016.075.042.164.073.264l.016.052.05.02a.578.578,0,0,1,.295.323,1,1,0,0,0,.4.47l.031-.046a.162.162,0,0,0-.007.06l0,.069.062.029a7.039,7.039,0,0,0,.938.352,3.8,3.8,0,0,0,1.061.157,1.674,1.674,0,0,0,.937.237,1.486,1.486,0,0,0,.781-.251l.014-.01.122.016a.274.274,0,0,0,.344-.239l0-.023a.141.141,0,0,0,.121.051.276.276,0,0,0,.265-.091l.012-.012a.246.246,0,0,0,.026-.033c.053-.073.1-.135.146-.186l.078-.086-.007-.006a.186.186,0,0,0,.124-.053l.081-.063-.018-.031h.013l.072,0,.028-.066a.381.381,0,0,1,.033-.066l.045.109.071-.108.023.081a.36.36,0,0,0,.4-.176,1.929,1.929,0,0,0,.085-.2.178.178,0,0,0,.056.031l.065.037a.167.167,0,0,0,.171-.006l.006,0,.056.05.064-.145a.171.171,0,0,0,.007-.138,1.271,1.271,0,0,1,.237-.114.6.6,0,0,0,.359-.287.233.233,0,0,0,.089-.064l.035.019.055.021.05-.028a1.244,1.244,0,0,0,.346-.347c.113-.153.221-.3.322-.443a2.827,2.827,0,0,1,.2-.254l.009.143.983-.953c-.039.234-.079.449-.116.7a5.688,5.688,0,0,0-.055,1.5.212.212,0,0,0-.06.182,3.322,3.322,0,0,0,.129.813,1.233,1.233,0,0,0,.316.506,1.623,1.623,0,0,0,.577.342,7.975,7.975,0,0,1,.792.352,5.625,5.625,0,0,0,1.3.348,2.1,2.1,0,0,0,.433.017,1.906,1.906,0,0,0,.787-.224,4.5,4.5,0,0,0,.651-.19c.244-.091.462-.18.667-.273l.894-.558.116-.007.028-.067h0l0,.03.115-.008a.528.528,0,0,0,.382-.188.538.538,0,0,1,.163-.127.317.317,0,0,0,.118.013h.006a.4.4,0,0,0,.243-.154.954.954,0,0,0,.057-.107c.01-.023.024-.052.042-.084a.266.266,0,0,1,.05-.045.535.535,0,0,0,.381-.187.823.823,0,0,1,.262-.193l.2-.194.007.013.08.14.107-.122a.784.784,0,0,1,.073-.073.235.235,0,0,0,.1-.14,1.057,1.057,0,0,0,.622-.558,1.137,1.137,0,0,1,.516-.536l.034-.016.019-.034a.851.851,0,0,1,.3-.34l0,.012a.683.683,0,0,0-.239.276l.136.115c-.089.325-.19.652-.258.972l-.074.129,0,.032a.105.105,0,0,0-.028.087l-.052.284-.091.3,0,.187a1.042,1.042,0,0,0,.214.648l.028.022a.764.764,0,0,0,.354.088,1.219,1.219,0,0,1,.283.045l.055.173.091-.006h.044a.422.422,0,0,0,.215.021l.1-.008a.868.868,0,0,1,.292-.035.91.91,0,0,0,.359-.053.405.405,0,0,0,.145-.142.705.705,0,0,1,.077-.1l.375-.236.037-.038a17.253,17.253,0,0,1,2.227-2.883c.845-.881,1.668-1.79,2.456-2.717a.873.873,0,0,1,.15-.187c.063-.059.116-.113.159-.161a.765.765,0,0,0,.3-.225c.117-.13.221-.255.313-.374a.58.58,0,0,1,.185-.15,15.212,15.212,0,0,0-.172,2.086,6.214,6.214,0,0,0,.261,2.027l.021.066.068.012c.055.01.067.128.071.178l0,.046.035.033a1.33,1.33,0,0,1,.295.385,1.116,1.116,0,0,0,.355.428l.031.016.009.091.074.024.017,0a4.776,4.776,0,0,0,.715.323,3.654,3.654,0,0,0,.922.188,1.462,1.462,0,0,1,.332.016c.016,0,.026,0,.027,0a.2.2,0,0,0,.1.03,1.284,1.284,0,0,0,.569,0,5.808,5.808,0,0,0,.741-.178,4.776,4.776,0,0,0,.7-.272,1.508,1.508,0,0,0,.476-.332l.033-.036,0-.035.015.028.091-.006a.434.434,0,0,0,.4-.274.178.178,0,0,1,.051-.075l.009.146.15-.062a.48.48,0,0,0,.183-.114l.116-.135a.461.461,0,0,0,.077-.254.179.179,0,0,0-.012-.06.435.435,0,0,0,.032.031l.036.031.207-.013.02-.082a.345.345,0,0,0,.012-.1l.066,0,.031-.036a.8.8,0,0,0,.137-.224l0-.006.026.01.051-.034c.169-.11.313-.215.431-.309a3.833,3.833,0,0,0,.34-.305c.1-.1.21-.208.325-.312s.264-.221.464-.369a1.238,1.238,0,0,0,.168-.277.208.208,0,0,1,.015-.029l.043.038.077-.077.033-.033a6.021,6.021,0,0,0-.124.986,1.357,1.357,0,0,0-.079.808,1.443,1.443,0,0,0,.209.54.3.3,0,0,0,.094.327.49.49,0,0,1,.11.138l.008.036a1.835,1.835,0,0,0,.925,1l.035.01a.525.525,0,0,1,.231.072c.065.046.15.1.254.171l.031.02.038,0a.632.632,0,0,0,.086-.009l-.018.02.254.006q.366.007.707-.014a6.077,6.077,0,0,0,1.661-.324.461.461,0,0,0,.225-.123.116.116,0,0,0,.06-.007.189.189,0,0,0,.045-.026l.042.037.077-.088c.171-.2.281-.242.342-.246.158-.009.311-.138.479-.4a.612.612,0,0,0,.139-.129.4.4,0,0,1,.114-.1l.064,0,.03-.057a3.507,3.507,0,0,1,.341-.519,2.033,2.033,0,0,0,.33-.647l.006-.043V125.7l.018-.034c.066-.131.112-.221.135-.275a.17.17,0,0,1,.046-.067.544.544,0,0,0,.13-.147,2.792,2.792,0,0,0,.144-.255,1.654,1.654,0,0,1,.633-.245c.337-.081.7-.158,1.116-.239a1.107,1.107,0,0,0,.358-.206,1.509,1.509,0,0,1,.232-.16,1.124,1.124,0,0,1,.331-.039.312.312,0,0,0,.26-.087q.277-.125.467-.226c.13-.07.265-.139.408-.209a1.565,1.565,0,0,0,.358-.228l1.238-.685c-.121.485-.242.973-.32,1.452a6.414,6.414,0,0,0-.075,1.73l0,.031.02.026a1.632,1.632,0,0,1,.174.365.788.788,0,0,0,.351.444.92.92,0,0,0,.448.082.7.7,0,0,1,.367.082l.036.015a4.552,4.552,0,0,0,.952.129,1.592,1.592,0,0,0,.94-.3c.368-.288.763-.611,1.174-.959a7.54,7.54,0,0,0,1.091-1.139,1.589,1.589,0,0,0,.6-.714c.065-.052.137-.115.21-.187a.935.935,0,0,0,.2-.279,1,1,0,0,0,.375-.466.387.387,0,0,1,.2-.243l.036-.017.018-.036c.086-.174.16-.317.226-.431.043-.073.094-.156.157-.245,0,.057,0,.116-.006.179-.008.271-.02.557-.037.864s-.022.614-.016.893a3.087,3.087,0,0,0,.059.63l.009.034.027.023s.014.039-.017.135l.125.072v.073a.087.087,0,0,1-.057-.019.311.311,0,0,1,.052.084,3.757,3.757,0,0,0,.246.592,1.166,1.166,0,0,0,.508.5l.041.017.052.089a.2.2,0,0,0,.168.161c.043.009.056.02.056.021l.031.02a2.188,2.188,0,0,0,.928.23l.153-.006a3.76,3.76,0,0,0,.655-.1,2.707,2.707,0,0,0,.62-.232,6.951,6.951,0,0,0,.668-.378c.214-.137.411-.275.589-.41s.319-.239.435-.319l.035-.033a.106.106,0,0,1-.086.006.071.071,0,0,1-.042-.049L893,125l.188.041a.59.59,0,0,1,.149-.21.551.551,0,0,0,.187-.283c.014-.016.024-.026.029-.031a.487.487,0,0,0,.1-.05l.029-.024c.048-.053.073-.064.07-.066a.542.542,0,0,0,.139.013.211.211,0,0,0,.148-.079.9.9,0,0,0,.106-.168.279.279,0,0,0,.11-.046l.035-.062c.059,0,.151-.038.156-.218.029-.026.081-.073.183-.157a.844.844,0,0,0,.257-.279l.028-.064-.041-.052a.317.317,0,0,0,.077-.171.592.592,0,0,1,.027-.1h.107a2.016,2.016,0,0,1,.091-.2l.007-.013a.264.264,0,0,0,.083-.066l.056-.064.056-.033a1.038,1.038,0,0,0,.441-.676,1.184,1.184,0,0,1,.107-.058l.13.056.028-.137c.039-.176.119-.181.153-.183a.558.558,0,0,0,.311-.094l.11-.007-.009-.163a.764.764,0,0,0,.2-.228.257.257,0,0,0,.038.014.4.4,0,0,0,.28-.1,2.791,2.791,0,0,0,.447-.522,2.141,2.141,0,0,0,.42-.308,6.009,6.009,0,0,0,.49-.5l1.528-1.58a5.036,5.036,0,0,1,.384-.456c.08-.082.153-.16.219-.232a3.472,3.472,0,0,1,.327,1.183,5.351,5.351,0,0,1-.008,1.348,4.725,4.725,0,0,0-.852.558,3.665,3.665,0,0,1-.824.515l-.029.014-.019.028a1,1,0,0,1-.47.4,1.6,1.6,0,0,0-.607.433.674.674,0,0,1-.08.082l-.041,0-.03.052a.341.341,0,0,1-.16.132.492.492,0,0,0-.242.258.182.182,0,0,0-.1.07l-.03,0-.031.053a.58.58,0,0,0-.081.3l-.049.045a.714.714,0,0,0-.308.317c-.029.056-.049.062-.049.062h0s-.015,0-.035-.015l-.147-.1-.03.172a.831.831,0,0,1-.208.411l-.159-.1c-.035.056-.07.108-.106.157v0a.193.193,0,0,0-.028.038,1.864,1.864,0,0,1-.2.226.911.911,0,0,0-.259.444.338.338,0,0,0-.239.216.177.177,0,0,1-.081-.026l-.144-.074-.024.159a3.731,3.731,0,0,1-.141.6.794.794,0,0,1-.029.077l-.009-.149-.179.168a.94.94,0,0,0-.215.733.3.3,0,0,0-.215.153,1.213,1.213,0,0,0-.088.229l0,.038a.312.312,0,0,0,.042.167.168.168,0,0,0-.035.073.218.218,0,0,0,.093.2l.107.094.07-.123a.158.158,0,0,1,.018-.026l.02,0a.221.221,0,0,0,.086.14l.07.051.035-.019a.135.135,0,0,0,.052.031.161.161,0,0,0,.063.009,2.372,2.372,0,0,0,.825.634,2.3,2.3,0,0,0,1.3.172.19.19,0,0,0,.147-.065.747.747,0,0,0,.354-.008,1.1,1.1,0,0,1,.147-.036l0,.067.116-.007a.142.142,0,0,0,.132-.13c.023-.008.048-.015.073-.026a.21.21,0,0,0,0,.026l.01.07.048.031a.184.184,0,0,0,.144.017l0,.028.157-.051.027.028a3.938,3.938,0,0,0,1.292-.822,13.791,13.791,0,0,0,.989-1.084l.017-.029a.188.188,0,0,0,.012-.139c.092-.131.179-.265.258-.4a3.243,3.243,0,0,1,.343-.464l.067-.1-.045-.041a.189.189,0,0,0,.031-.07v-.006a.168.168,0,0,0,.068-.164.051.051,0,0,1-.041.036l.067-.2a.044.044,0,0,1,.007.036s0-.01.024-.029a.9.9,0,0,1,.154-.124l.122-.075-.122-.106a.148.148,0,0,1,.031-.029c.035-.024.137-.1.113-.207a.13.13,0,0,0-.01-.034,1.252,1.252,0,0,0,.233-.383c.064-.165.117-.311.158-.438l.024-.073-.044-.038c0-.015.009-.03.013-.044.008-.029.053-.057.128-.077l.078-.02.009-.081a1.432,1.432,0,0,1,.176-.622,1.776,1.776,0,0,0,.207-.81,1.255,1.255,0,0,1,.431-.392l.592-.346,2.806-1.314a2.282,2.282,0,0,0,.6-.272,1.435,1.435,0,0,1,.477-.181,3.254,3.254,0,0,0-.457,1.192c-.079.469-.136.846-.166,1.113a2.055,2.055,0,0,0,.074,1.126c.057.143.115.3.174.463a2.452,2.452,0,0,0,.273.534,7.568,7.568,0,0,0,.681.721,2.363,2.363,0,0,0,.84.507,5,5,0,0,0,.788.232c.244.046.5.087.77.118l.073-.008.041-.046a1.325,1.325,0,0,0,.248.066l.022,0,.023,0a2.513,2.513,0,0,1,.77.024l.088.012.027-.064c.112.027.186.019.222-.016a.172.172,0,0,1,.061.026l.063.037.061-.042a.411.411,0,0,1,.272-.093.939.939,0,0,0,.212-.014.237.237,0,0,0,.1.073l.078.034.056-.064a.145.145,0,0,1,.145-.052.3.3,0,0,0,.275-.067.283.283,0,0,0,.283-.092c.021-.023.028-.023.056-.007l.071.043.064-.055a.55.55,0,0,1,.2-.121c.037-.008.084-.019.135-.033l.028.043.077,0a.8.8,0,0,0,.34-.089.461.461,0,0,1,.2-.057l.036-.008c.069-.027.15-.056.252-.088.074-.031.142-.059.2-.089a.851.851,0,0,1,.086-.034l.038-.009a6.614,6.614,0,0,0,1.337-.76c.351-.268.724-.548,1.122-.843l.781-.571.6-.52.208-.2.026-.038a1.472,1.472,0,0,1,.25-.274,2.213,2.213,0,0,1,.289-.259l.031-.026a6.684,6.684,0,0,1,.612-.616c.094-.085.292-.26.288-.426.106-.079.182-.137.233-.171a.619.619,0,0,0,.167-.168,2.24,2.24,0,0,0,.14-.264c.051-.108.144-.277.275-.5l.116-.187ZM909.179,119.9c.2-.267.43-.546.69-.844a2.209,2.209,0,0,1,.589-.632l.029-.03a2.507,2.507,0,0,1,.374-.463,2.715,2.715,0,0,0,.4-.493,1.924,1.924,0,0,1,.319-.238,1.421,1.421,0,0,0,.366-.31l.261-.226a1.132,1.132,0,0,0,.137-.089,1.2,1.2,0,0,1,.11-.073l.031-.014.016-.037a.166.166,0,0,1,.081-.019l.035,0,.028-.021c.072-.055.154-.122.251-.2s.171-.144.239-.2l.016-.016a.235.235,0,0,1,.132-.067c.037-.008.071-.014.1-.019a.177.177,0,0,1-.027.113,1.839,1.839,0,0,0-.138.333,6.944,6.944,0,0,1-.651.856,3.508,3.508,0,0,1-.689.632l-.036.036a2.177,2.177,0,0,1-.356.443l-.41.39q-.665.557-1.257,1.074a4.309,4.309,0,0,1-.974.644A3.636,3.636,0,0,1,909.179,119.9Zm-8.93,2.627a10.993,10.993,0,0,1-.772,1.549,7.6,7.6,0,0,1-1.205,1.525l-.041.053,0,.044a.2.2,0,0,0-.039.185c-.233.124-.46.243-.682.355s-.449.216-.691.317a.2.2,0,0,0-.057-.081.642.642,0,0,1,.223-.4,1.441,1.441,0,0,0,.4-.5l.078-.006.024-.074a.33.33,0,0,1,.21-.2l.078-.031-.006-.077a.176.176,0,0,0,.062-.14,5.521,5.521,0,0,0,.559-.68,2.728,2.728,0,0,1,.561-.6l.048-.041,0-.049a.154.154,0,0,0,.023-.05,5.831,5.831,0,0,0,.778-.662C899.941,122.809,900.093,122.666,900.249,122.526ZM870.044,125.6a3.854,3.854,0,0,1,.048-.69.956.956,0,0,1,.048-.313c.039-.137.08-.282.122-.437a1.245,1.245,0,0,1,.266-.556l-.028-.056.056-.029,0-.037a.356.356,0,0,1,.01-.117l.012-.014a2.832,2.832,0,0,0,.324-.346,1,1,0,0,1,.15-.16c.179.3.384.635.616.991a1.76,1.76,0,0,0,1.227.782.683.683,0,0,0,.361.058,1.789,1.789,0,0,1,.237,0l-.077.319a1.914,1.914,0,0,0-.39.433q-.115.192-.25.4a1.956,1.956,0,0,1-.391.423,6.392,6.392,0,0,1-.9.6.985.985,0,0,1-.207.077,2.617,2.617,0,0,1-.331.073l-.347.059c-.1.02-.164.029-.165.03-.029,0-.12-.015-.2-.205a2.008,2.008,0,0,1-.139-.564A6.7,6.7,0,0,1,870.044,125.6Zm2.439-4.189c.021-.118.02-.192-.041-.254l-.022-.014.007-.016a.117.117,0,0,1,.081-.043.246.246,0,0,0,.224-.153l.062-.165h-.056c.073-.113.159-.233.257-.362q.221-.289.457-.577c.164-.2.312-.369.456-.52a2.159,2.159,0,0,1,.291-.265c.05.043.122.165.156.5a6.959,6.959,0,0,1-.01,1.249c-.044.461-.106.925-.187,1.383-.072.41-.137.728-.19.947a.592.592,0,0,1-.487-.12,2.278,2.278,0,0,1-.488-.512,3.082,3.082,0,0,1-.341-.615C872.573,121.686,872.516,121.529,872.483,121.413ZM851.6,115.88l0,.008v-.008Zm-.009.023,0,.008.1.049a.3.3,0,0,0,.275.032.168.168,0,0,0,.064-.063h0a.386.386,0,0,0,.146-.05c.1-.052.111-.024.124-.006l.13-.041a.178.178,0,0,0,.158.049l.082-.006.11-.092a.51.51,0,0,0,.12.082.151.151,0,0,0,.121,0,.155.155,0,0,0,.082-.075l.03.008a.276.276,0,0,0,.226-.013.731.731,0,0,1,.122.053l.057.03.056-.032a.686.686,0,0,1,.416-.127,1.563,1.563,0,0,0,.462-.024.43.43,0,0,0,.165.023l.01,0c-.246.706-.487,1.413-.754,2.111-.4,1.038-.8,2.111-1.195,3.184-.177.471-.362.943-.544,1.414-.014.012-.02.019-.039.034-.045.019-.092.066-.093.185l-.08.12a.155.155,0,0,0-.1.1.38.38,0,0,0-.028.121l-.07.08c-.045.053-.172.2-.376.449s-.425.495-.7.8c-.261.283-.52.544-.771.778a1.539,1.539,0,0,1-.513.377l-.042.021c-.247.2-.5.383-.752.558s-.465.334-.663.483a.169.169,0,0,0-.072-.009l-.052,0-.031.041c-.168.211-.253.234-.272.222l-.194-.129.019.3a2.4,2.4,0,0,0-.259.125,1.066,1.066,0,0,0-.212.154.921.921,0,0,1-.187.125c-.081.041-.19.089-.33.146l-.06.023-.01.063c-.015.074-.039.08-.049.082a1.538,1.538,0,0,0-.232.074l-.078.052v.028a.441.441,0,0,0-.05.045c-.234.087-.487.194-.755.319a8.389,8.389,0,0,1-.81.33,3.719,3.719,0,0,1-.731.279,5.028,5.028,0,0,1-.78.14.984.984,0,0,1-.142-.811,3.777,3.777,0,0,0,.142-1.049,3.1,3.1,0,0,1,.1-.679q.085-.322.145-.688c.078-.65.171-1.317.276-1.981a5.333,5.333,0,0,1,.507-1.633l.01-.029c.056-.245.1-.418.129-.515a1.5,1.5,0,0,1,.086-.225,1.469,1.469,0,0,0,.1-.266c.03-.1.077-.265.133-.488a14.8,14.8,0,0,1,.655-1.757,16.361,16.361,0,0,0,.634-1.624c.043-.1.076-.188.1-.255,0-.01.022-.051.108-.1.116-.03.247-.062.395-.094a2.615,2.615,0,0,1,.4-.062l.035,0,.029-.021a.109.109,0,0,1,.046-.027.408.408,0,0,0,.259.063l.048,0,.031-.036a.425.425,0,0,1,.045-.042.167.167,0,0,0,.158-.174.225.225,0,0,0,.152-.015.28.28,0,0,0,.129-.137l.012,0a.2.2,0,0,0,.087.062l.012.048.089-.006.071.029,0-.034a2.69,2.69,0,0,0,.359-.042,2.128,2.128,0,0,1,.293-.036l.048,0,.031-.036a.366.366,0,0,0,.089-.24.148.148,0,0,0,.1.042l.039.036a.373.373,0,0,0,.446.07l.038-.02c.056.073.139.045.255.008l-.014-.077.008-.01a1.318,1.318,0,0,1,.343-.1c.08-.012.1,0,.1.007l0,.036.021.028c.042.056.1.142.2.106l.086-.049,0-.06h0a.216.216,0,0,0,.088.044l.1.019.013-.017a.4.4,0,0,0,.167-.015,2.045,2.045,0,0,0,.209-.072.585.585,0,0,0,.162-.089l.1.058.032-.074.022.02.036.033.048,0a.389.389,0,0,0,.177-.045v.028Zm-2.837,0-.008,0-.045.027a.613.613,0,0,0,.056-.043Zm-11.214,11.885v0h.01l.023.006v0A.241.241,0,0,0,837.544,127.787Zm-23.81-2.864q-.665.557-1.257,1.074a4.282,4.282,0,0,1-.974.644,3.526,3.526,0,0,1,.331-.527c.2-.267.428-.546.688-.844a2.215,2.215,0,0,1,.59-.632l.028-.03a2.557,2.557,0,0,1,.374-.463,2.716,2.716,0,0,0,.4-.493,1.811,1.811,0,0,1,.32-.237,1.467,1.467,0,0,0,.365-.311l.262-.226a1.187,1.187,0,0,0,.136-.089,1.1,1.1,0,0,1,.111-.072l.03-.015.016-.037a.176.176,0,0,1,.081-.019l.036,0,.027-.021c.072-.055.155-.122.252-.2s.17-.144.238-.2l.016-.015a.24.24,0,0,1,.134-.068c.037-.008.071-.014.1-.019a.184.184,0,0,1-.027.113,1.761,1.761,0,0,0-.139.333,6.821,6.821,0,0,1-.651.856,3.479,3.479,0,0,1-.688.632l-.036.036a2.143,2.143,0,0,1-.357.443Zm47.234-2.534.008-.023.028.029S860.98,122.389,860.969,122.389Zm-6.078-7.421.037-.041-.021.06-.029-.008Zm-22.359,8.64.01-.029.043.034C832.579,123.617,832.552,123.609,832.532,123.608Zm-.912,4.869.007-.01,0,0Zm.029-.042.038-.058a.068.068,0,0,1-.038.063Zm15.551.447v-.043l.039,0A.058.058,0,0,1,847.2,128.882Z" transform="translate(-790.45 -103.945)"/></g></g></svg>