<svg xmlns="http://www.w3.org/2000/svg" width="271.563" height="49.033" viewBox="0 0 271.563 49.033"><defs><style>.a{fill:#fff;}</style></defs><g transform="translate(-77.558 -294.642)"><g transform="translate(-80.442 -602.688)"><g transform="translate(158 923.036)"><path class="a" d="M59.434,106.456v22.313h5.829V117.8h6.245v-.851H65.263v-9.673h9.669v-.82Z" transform="translate(-59.434 -105.885)"/><g transform="translate(29.795 0.57)"><path class="a" d="M88.127,107.276h1.3a5.689,5.689,0,0,1,1.737.21,2.056,2.056,0,0,1,1.029.709,3.973,3.973,0,0,1,.565,1.521,19.751,19.751,0,0,1,.156,2.634,14.815,14.815,0,0,1-.124,2.186,4.654,4.654,0,0,1-.455,1.519,1.95,1.95,0,0,1-.915.885,3.663,3.663,0,0,1-1.645.293h-1.65Zm12.181,19.81c-.281-.562-.537-1.17-.786-1.762s-.472-1.166-.661-1.7c-.134-.38-.237-.7-.319-.949l-.091-.281A7.432,7.432,0,0,0,97.4,120.3a6,6,0,0,0-1.558-1.487,9.74,9.74,0,0,0-2.052-.878c-.344-.09-.708-.168-1.107-.237q.65-.121,1.3-.289a8.609,8.609,0,0,0,2.375-.976,5.814,5.814,0,0,0,1.749-1.621,4.387,4.387,0,0,0,.669-2.433,5.548,5.548,0,0,0-.53-2.444,4.966,4.966,0,0,0-1.662-1.893,9.554,9.554,0,0,0-2.889-1.17h0a18,18,0,0,0-4.236-.419H82.33v22.313h5.8V118.085h.984a5.045,5.045,0,0,1,1.633.207,1.948,1.948,0,0,1,.937.734,5.911,5.911,0,0,1,.64,1.621c.219.838.437,1.809.632,2.812a27.651,27.651,0,0,0,.735,2.812,7.918,7.918,0,0,0,1.3,2.411l.065.085H101.4l-.294-.359a7.027,7.027,0,0,1-.8-1.322" transform="translate(-82.33 -106.455)"/></g><path class="a" d="M113.552,114.148,116,120.63h-5.061Zm2.329-8.131L106.605,128.9h.981l3.011-7.418h5.723l2.823,7.418h6.243l-8.953-22.883Z" transform="translate(-45.22 -106.017)"/><path class="a" d="M147.735,106.456v14.519L138.6,106.456H132.14v22.313h.915V108.553l12.24,20.215h3.356V106.456Z" transform="translate(-37.525 -105.885)"/><path class="a" d="M176.846,120.116a13.906,13.906,0,0,1-1.029,3.339,10.112,10.112,0,0,1-1.735,2.665,7.713,7.713,0,0,1-2.409,1.729,6.952,6.952,0,0,1-3.043.644,4.966,4.966,0,0,1-2.886-.817,6.092,6.092,0,0,1-1.929-2.271,10.747,10.747,0,0,1-1.118-3.449,25.939,25.939,0,0,1-.346-4.244,30.766,30.766,0,0,1,.284-4.28,11.727,11.727,0,0,1,.966-3.428,5.507,5.507,0,0,1,1.766-2.257,4.717,4.717,0,0,1,2.82-.815c2.7,0,4.723.661,6.025,1.964a9.375,9.375,0,0,1,2.441,5.765l.022.2h.888l-.029-.246a9.859,9.859,0,0,0-2.8-6.382c-1.537-1.405-3.795-2.119-6.711-2.119a11.805,11.805,0,0,0-4.362.841,12.161,12.161,0,0,0-3.743,2.387,11.147,11.147,0,0,0-2.62,3.653,10.937,10.937,0,0,0-1,4.72,11.858,11.858,0,0,0,.9,4.716,10.567,10.567,0,0,0,2.558,3.657,11.7,11.7,0,0,0,3.937,2.357,13.617,13.617,0,0,0,4.961.871,7.679,7.679,0,0,0,3.223-.651,8.266,8.266,0,0,0,2.7-1.823,10.462,10.462,0,0,0,1.977-2.88,13.656,13.656,0,0,0,1.16-3.77l.042-.255h-.886Z" transform="translate(-30.244 -105.988)"/><path class="a" d="M184.531,106.456v22.313h16.575v-.821H190.36V117.483h6.658v-.852H190.36v-9.355H200.6v-.82Z" transform="translate(-21.737 -105.885)"/><path class="a" d="M206.3,106.456v.82h6.753v21.493h5.829V107.276h6.751v-.82Z" transform="translate(-15.176 -105.885)"/><path class="a" d="M230.588,106.456v.82h6.751v21.493h5.83V107.276h6.751v-.82Z" transform="translate(-7.859 -105.885)"/><path class="a" d="M255.376,106.5v22.313h16.575v-.821H261.205V117.526h6.656v-.852h-6.656v-9.355h10.239v-.82Z" transform="translate(-0.389 -105.872)"/></g><g transform="translate(260.771 897.329)"><path class="a" d="M148.741,93.979a6.378,6.378,0,0,1-.471,1.616,4.24,4.24,0,0,1-.824,1.253,3.492,3.492,0,0,1-1.188.812,4.041,4.041,0,0,1-1.582.285,2.7,2.7,0,0,1-1.477-.4,3.123,3.123,0,0,1-1.072-1.094,5.03,5.03,0,0,1-.681-1.722,9.731,9.731,0,0,1-.238-2.2,10.745,10.745,0,0,1,.208-2.214,5.4,5.4,0,0,1,.6-1.722,3.222,3.222,0,0,1,1.019-1.1,2.846,2.846,0,0,1,1.489-.377,3.657,3.657,0,0,1,4.1,3.611l.04.3h.871l-.048-.388a4.907,4.907,0,0,0-1.593-3.326,5.282,5.282,0,0,0-3.419-1.05,6.11,6.11,0,0,0-2.3.457,6.4,6.4,0,0,0-1.935,1.291,6.076,6.076,0,0,0-1.331,1.975v0a6.742,6.742,0,0,0-.018,5.082,5.781,5.781,0,0,0,1.316,1.981,5.9,5.9,0,0,0,1.988,1.275,6.371,6.371,0,0,0,2.476.474,4.688,4.688,0,0,0,1.914-.359,4.3,4.3,0,0,0,1.464-.981,5.088,5.088,0,0,0,1.01-1.5,7.059,7.059,0,0,0,.539-1.871l.061-.4h-.876Z" transform="translate(-138.407 -86.263)"/><path class="a" d="M161.305,91.754H156.63V86.441h-2.7V98.515h2.7v-5.89h4.675v5.89h2.7V86.441h-2.7Z" transform="translate(-133.73 -86.209)"/><path class="a" d="M171.581,92.625h3.68V91.77h-3.68V87.295h5.363v-.854h-8.063V98.515h8.426v-.854h-5.726Z" transform="translate(-129.224 -86.209)"/><path class="a" d="M181.987,86.441v.854h6.287l-6.7,10.592-.053.085v.543h9.417v-.854h-6.221l6.663-10.543.053-.085v-.592Z" transform="translate(-125.414 -86.209)"/></g></g></g></svg>