<svg version="1.2" baseProfile="tiny-ps" xmlns="http://www.w3.org/2000/svg" viewBox="0 0 1920 720" width="1920" height="720">
	<title>New Project</title>
	<style>
		tspan { white-space:pre }
		.shp0 { fill: #fcfbf7 } 
	</style>
	<path id="Layer" fill-rule="evenodd" class="shp0" d="M0.06 0.33L1308.25 0.33L1308.25 1.09C1305.89 1.33 1303.04 1.54 1299.75 2.11C1296.44 2.67 1292.66 3.17 1288.53 4.01C1286.47 4.48 1284.32 4.97 1282.08 5.47L1278.66 6.25C1278.09 6.39 1277.49 6.53 1276.91 6.66C1276.33 6.82 1275.74 6.99 1275.14 7.17C1269.48 8.75 1263.89 10.54 1258.36 12.53C1252.84 14.52 1247.39 16.72 1242.03 19.12C1236.68 21.53 1231.41 24.13 1226.25 26.92C1221.08 29.72 1216.03 32.71 1211.09 35.88C1207.88 37.93 1204.71 40.03 1201.58 42.19C1198.44 44.34 1195.35 46.55 1192.3 48.82C1189.24 51.09 1186.23 53.41 1183.26 55.78C1180.29 58.15 1177.36 60.58 1174.47 63.06C1174.08 63.4 1173.72 63.73 1173.34 64.07C1173.2 61.89 1170.81 61.26 1168.15 62.94C1166.28 64.11 1162.56 66.5 1162.1 65.39C1160.24 66.58 1158.38 67.79 1158.85 68.89C1156.09 73.51 1150.56 77.22 1151.45 73.79C1150.9 73.88 1150.36 74.01 1149.83 74.16C1149.3 74.32 1148.77 74.51 1148.27 74.74C1147.76 74.96 1147.26 75.21 1146.79 75.5C1146.31 75.78 1145.85 76.1 1145.41 76.44C1144.87 76.99 1144.31 77.54 1143.74 78.08C1143.18 78.62 1142.61 79.15 1142.03 79.67C1141.44 80.19 1140.86 80.7 1140.26 81.21C1139.67 81.72 1139.06 82.21 1138.45 82.7C1138.96 83.78 1142.7 81.16 1144.54 79.9C1147.74 76.27 1147.74 76.27 1145.03 80.99C1144.56 81.44 1144.08 81.88 1143.59 82.31C1143.1 82.74 1142.61 83.17 1142.11 83.58C1141.61 84 1141.1 84.4 1140.58 84.8C1140.07 85.2 1139.55 85.58 1139.02 85.96C1135.93 88.32 1132.12 91.2 1128.32 94.08C1124.51 96.86 1120.8 99.84 1117.62 102.01C1114.49 104.24 1112.03 105.9 1110.81 106.18C1109.81 106.8 1108.82 107.44 1107.85 108.1C1106.87 108.77 1105.91 109.45 1104.97 110.15C1104.03 110.86 1103.1 111.59 1102.19 112.33C1101.28 113.08 1100.39 113.85 1099.51 114.64C1095.19 118.52 1091.22 122.43 1090.72 123.86C1090.56 124.5 1090.31 125.12 1089.95 125.67C1089.59 126.23 1089.14 126.73 1088.62 127.13C1088.1 127.54 1087.51 127.85 1086.88 128.06C1086.25 128.27 1085.59 128.37 1084.93 128.36C1082.53 129.21 1080.2 130.26 1077.51 134.96C1077.09 135.59 1076.68 136.22 1076.28 136.86C1075.88 137.49 1075.49 138.14 1075.11 138.79C1074.72 139.44 1074.35 140.09 1073.99 140.75C1073.63 141.41 1073.28 142.08 1072.93 142.75C1072.19 144.32 1072.36 144.54 1073.98 142.58C1075.61 140.62 1076.31 141.53 1077 142.43C1076.1 145.26 1076.11 145.25 1072.19 148.25C1070.58 150.2 1069.05 152.25 1067.48 154.26L1068.31 151.37C1070.71 146.48 1070.75 146.42 1062.97 152.86C1056.82 157.39 1056.83 157.52 1056.81 161.24C1056.03 164.15 1055.36 167.16 1053.11 168.51C1051.61 168.8 1049.73 170.57 1048.28 172.77C1047.94 173.27 1047.62 173.79 1047.35 174.32C1047.07 174.86 1046.84 175.42 1046.64 175.99C1046.44 176.56 1046.28 177.14 1046.16 177.74C1046.04 178.33 1045.97 178.93 1045.93 179.53C1045.86 179.89 1045.79 180.24 1045.7 180.59C1045.62 180.94 1045.53 181.29 1045.43 181.64C1045.33 181.99 1045.23 182.33 1045.12 182.67C1045 183.02 1044.88 183.36 1044.76 183.7C1044.65 184 1044.55 184.29 1044.43 184.59C1044.31 184.88 1044.19 185.18 1044.06 185.46C1043.93 185.75 1043.79 186.04 1043.65 186.32C1043.5 186.61 1043.35 186.88 1043.2 187.16C1042.99 187.59 1042.74 187.99 1042.45 188.37C1042.17 188.75 1041.85 189.1 1041.5 189.43C1041.15 189.75 1040.77 190.04 1040.37 190.29C1039.97 190.55 1039.55 190.76 1039.1 190.94C1038.3 190.24 1038.22 190.17 1035.65 194.91C1035.2 197.98 1033.08 199.65 1033.52 196.59C1033.75 195.06 1033.17 195 1032.1 196.01C1031.69 196.46 1031.29 196.91 1030.9 197.38C1030.51 197.85 1030.14 198.33 1029.78 198.83C1029.43 199.32 1029.09 199.82 1028.76 200.34C1028.44 200.85 1028.13 201.38 1027.84 201.91C1027.37 202.71 1026.92 203.51 1026.48 204.32C1026.03 205.13 1025.61 205.95 1025.2 206.78C1024.79 207.61 1024.39 208.44 1024.01 209.28C1023.63 210.12 1023.26 210.97 1022.91 211.83C1022.53 212.73 1022.18 213.64 1021.84 214.57C1021.51 215.49 1021.19 216.42 1020.9 217.35C1020.61 218.29 1020.34 219.23 1020.09 220.18C1019.84 221.13 1019.62 222.08 1019.41 223.04C1018.12 228.73 1017.05 231.27 1017.95 231.83C1018.95 230.86 1019 233.3 1018.58 236.61C1018.49 237.45 1018.36 238.29 1018.19 239.12C1018.02 239.95 1017.82 240.78 1017.57 241.59C1017.33 242.4 1017.06 243.2 1016.74 243.99C1016.43 244.78 1016.08 245.55 1015.7 246.31C1014.79 248.91 1012.94 254.14 1012.99 257.21C1012.52 258.7 1012.32 259.34 1012.23 259.63C1013.05 257.24 1013.96 257.69 1014.87 258.16C1014.03 260.77 1013.21 263.36 1010.49 265.13C1007.73 266.87 1007 269.61 1006.24 272.29C1007.21 272.72 1007.33 275.77 1005.96 281.16C1004.33 283.49 1003.66 286.22 1001.71 285.52C999.76 284.82 998.8 284.47 998.12 287.24C998.43 290.34 996.3 295.61 994.71 298.14C993.11 300.66 992.01 305.59 991.34 310.64C991.2 311.74 991.09 312.84 991.02 313.95C990.96 315.06 990.92 316.16 990.93 317.27C990.93 318.38 990.98 319.49 991.05 320.6C991.13 321.71 991.24 322.81 991.39 323.91C991.36 325.14 991.31 326.37 991.23 327.59C991.15 328.82 991.06 330.05 990.94 331.27C990.82 332.5 990.68 333.72 990.51 334.94C990.35 336.16 990.17 337.37 989.96 338.58C989.24 343.91 988.37 348.16 987.99 346.67C987.5 346.61 987.08 348.04 986.83 350.18C986.58 352.33 986.42 355.22 986.26 358.12C986.19 359.56 986.13 360.87 986.06 362.06C986.04 363.25 986.02 364.3 986.01 365.25C985.98 366.73 986.02 368.2 986.13 369.68C986.32 371.85 986.82 372.58 987.83 372.59C987.83 372.59 987.95 372.94 988.13 373.53C988.32 374.12 988.55 374.93 988.8 375.82C988.94 376.25 989.07 376.68 989.18 377.12C989.29 377.56 989.39 378 989.48 378.45C989.57 378.89 989.64 379.34 989.7 379.78C989.76 380.23 989.81 380.68 989.85 381.13C990.09 381.81 990.29 382.51 990.42 383.22C990.55 383.93 990.62 384.65 990.63 385.38C990.64 386.1 990.59 386.82 990.48 387.54C990.37 388.25 990.2 388.96 989.97 389.64C989.74 390.33 988.93 389.7 987.86 386.88C986.82 386.93 986.9 389.79 987.36 401.21C988.28 415.42 988.3 415.39 989.93 409.49L990.57 403.75L991.95 409.26C992.38 411.98 992.73 414.19 993 415.93C993.06 416.25 993.1 416.57 993.14 416.89C993.18 417.2 993.22 417.52 993.24 417.84C993.27 418.16 993.28 418.48 993.29 418.81C993.3 419.13 993.31 419.45 993.3 419.77C993.2 421.48 992.45 421.6 990.82 420.47C989.82 420.62 988.79 420.78 989.06 423.49C990.07 430.9 991.43 438.23 993.14 445.46C995.04 454.01 997.09 461.77 997.32 463.09C998.32 462.84 998.73 465.49 999.2 468.13C999.44 469.44 1000.26 472.68 1001.31 476.88C1002.38 481.07 1003.63 486.24 1004.78 491.46C1005.57 494 1006.42 496.86 1007.28 499.9C1008.13 502.93 1009 506.14 1009.87 509.35C1010.71 512.57 1011.63 515.76 1012.47 518.82C1013.27 521.88 1014.12 524.76 1014.86 527.33C1015.58 529.9 1016.39 532.8 1017.25 535.86C1017.67 537.4 1018.1 538.98 1018.53 540.58C1019 542.18 1019.47 543.79 1019.94 545.41C1020.41 547.03 1020.88 548.65 1021.34 550.25C1021.85 551.84 1022.35 553.4 1022.84 554.93C1023.33 556.45 1023.83 557.93 1024.3 559.35C1024.79 560.77 1025.29 562.11 1025.77 563.37C1029.57 573.41 1034.01 586.42 1038.84 596.17C1039.77 597.98 1040.99 600.41 1042.46 603.29C1043.97 606.15 1045.79 609.43 1047.77 612.99C1052.36 620.96 1057.26 628.63 1062.49 635.99C1067.33 642.63 1073.04 650.43 1078.98 657.18C1080.41 658.92 1081.96 660.49 1083.38 662.07C1084.85 663.62 1086.2 665.17 1087.61 666.49C1089.01 667.84 1090.33 669.1 1091.55 670.28C1092.17 670.85 1092.77 671.41 1093.33 671.93C1093.91 672.43 1094.47 672.89 1094.99 673.34C1096.45 674.89 1098.39 676.93 1100.75 679.1C1101.95 680.15 1103.23 681.24 1104.56 682.37C1105.89 683.5 1107.28 684.69 1108.72 685.71C1110.03 686.71 1111.36 687.69 1112.72 688.64C1114.07 689.58 1115.44 690.5 1116.83 691.38C1118.23 692.27 1119.64 693.12 1121.07 693.94C1122.5 694.77 1123.95 695.56 1125.42 696.31C1130.11 698.67 1136.55 701.94 1143.08 704.56L1147.96 706.5C1149.59 707.06 1151.16 707.61 1152.69 708.13C1154.22 708.62 1155.71 709.16 1157.11 709.52C1158.51 709.89 1159.81 710.24 1161.02 710.53C1161.92 710.75 1163.08 711.06 1164.47 711.4C1165.85 711.72 1167.44 712.08 1169.21 712.47C1172.78 713.34 1177.01 714.04 1181.63 714.84C1184.02 715.21 1186.43 715.52 1188.84 715.79C1191.25 716.05 1193.66 716.27 1196.08 716.44C1198.5 716.6 1200.92 716.72 1203.34 716.79C1205.77 716.86 1208.19 716.89 1210.61 716.86C1226.84 716.82 1202 720 1202 720L4.06 716.99L0.06 0.33ZM1317.17 0.33C1319.22 0.22 1321.11 0.21 1322.85 0.14C1325.52 0.09 1327.85 0.04 1329.93 0C1332.91 0.06 1335.37 0.19 1337.61 0.33L1317.17 0.33ZM991.45 356.56C991.45 356.47 991.46 356.33 991.46 356.16C991.46 356.33 991.46 356.46 991.45 356.56L991.45 356.56ZM991.5 355.62C991.56 354.47 991.67 352.5 991.81 349.95C992.29 344.29 992.53 341.46 992.53 341.45C993.55 341.6 992.72 350.03 991.5 355.62L991.5 355.62ZM993.24 433.76C993.24 433.76 992.24 433.95 991.93 431.26C991.89 430.79 991.87 430.33 991.88 429.86C991.88 429.39 991.9 428.93 991.93 428.46C991.97 428 992.03 427.53 992.1 427.07C992.17 426.61 992.26 426.16 992.37 425.7C993.38 425.53 993.38 425.53 993.66 428.21C993.94 430.9 994.26 433.58 993.24 433.76L993.24 433.76ZM1021.21 224.22C1020.26 223.59 1023.73 216.09 1026.64 214.86C1025.49 217.34 1024.34 219.81 1024.34 219.81C1025.23 220.41 1025.23 220.41 1024.09 222.9C1024 222.97 1023.91 223.05 1023.82 223.12C1023.73 223.2 1023.64 223.27 1023.54 223.34C1023.45 223.41 1023.36 223.49 1023.26 223.55C1023.17 223.62 1023.07 223.69 1022.98 223.76C1022.38 224.17 1021.66 224.51 1021.21 224.22L1021.21 224.22ZM1026.64 214.86C1027.79 212.39 1027.51 215.49 1026.64 214.86L1026.64 214.86ZM1069.71 399.86C1069.69 399.49 1069.67 399.13 1069.65 398.77C1069.68 399.18 1069.71 399.65 1069.75 400.13C1069.78 400.56 1069.79 400.98 1069.79 401.41C1069.77 400.88 1069.74 400.36 1069.71 399.86L1069.71 399.86ZM1085.26 133C1083.61 134.88 1081.95 136.75 1081.27 135.83L1082.25 133.02C1082.44 132.81 1082.64 132.61 1082.84 132.42C1083.05 132.22 1083.26 132.04 1083.48 131.86C1083.7 131.69 1083.93 131.52 1084.16 131.36C1084.4 131.2 1084.64 131.06 1084.88 130.92C1085 130.85 1085.11 130.79 1085.22 130.73C1085.34 130.67 1085.45 130.61 1085.57 130.55C1085.69 130.5 1085.81 130.44 1085.92 130.39C1086.04 130.34 1086.16 130.29 1086.28 130.24C1086.95 131.19 1086.94 131.15 1085.26 133ZM1160.28 601.34C1159.51 600.96 1158.89 600.64 1158.89 600.64C1158.64 599.18 1159.76 599.05 1161.12 599.73C1161.55 599.93 1161.96 600.15 1162.36 600.41C1162.75 600.67 1163.13 600.96 1163.48 601.27C1163.83 601.59 1164.15 601.93 1164.45 602.29C1164.74 602.66 1165.01 603.05 1165.25 603.46L1160.28 601.34ZM1206.91 140.91C1206.68 141.05 1206.43 141.2 1206.17 141.37L1205.92 141.53C1206.37 141.24 1206.77 140.98 1207.14 140.76L1206.91 140.91Z" />
</svg>