<svg version="1.2" baseProfile="tiny-ps" xmlns="http://www.w3.org/2000/svg" viewBox="0 0 36 36" width="43" height="43">
	<title>3-svg</title>
	<style>
		tspan { white-space:pre }
		.shp0 { fill: none } 
		.shp1 { fill: none;stroke: #254f5a } 
		.shp2 { fill: #397674 } 
	</style>
	<g id="Layer">
		<g id="Layer">
			<path id="Layer" class="shp0" d="M18 36C8.05 36 0 27.95 0 18C0 8.05 8.05 0 18 0C27.95 0 36 8.05 36 18C36 27.95 27.95 36 18 36Z" />
			<path id="Layer" class="shp1" d="M18 35.5C8.32 35.5 0.5 27.68 0.5 18C0.5 8.32 8.32 0.5 18 0.5C27.68 0.5 35.5 8.32 35.5 18C35.5 27.68 27.68 35.5 18 35.5Z" />
		</g>
		<path id="Layer" class="shp2" d="M13.29 16.94C13.61 17.56 13.97 18.15 14.38 18.71C14.78 19.26 15.23 19.79 15.72 20.28C16.21 20.77 16.74 21.22 17.3 21.62C17.85 22.03 18.44 22.39 19.06 22.71L20.98 20.78C21.04 20.73 21.11 20.68 21.18 20.64C21.25 20.6 21.32 20.57 21.4 20.55C21.48 20.53 21.56 20.52 21.64 20.53C21.72 20.53 21.8 20.55 21.88 20.57C22.13 20.65 22.38 20.73 22.64 20.79C22.9 20.85 23.16 20.9 23.42 20.95C23.68 20.99 23.94 21.02 24.21 21.04C24.47 21.06 24.73 21.07 25 21.07C25.11 21.07 25.23 21.1 25.33 21.14C25.44 21.18 25.54 21.25 25.62 21.33C25.7 21.41 25.76 21.51 25.81 21.61C25.85 21.72 25.87 21.83 25.87 21.95L25.87 25C25.87 25.11 25.85 25.23 25.81 25.33C25.76 25.44 25.7 25.54 25.62 25.62C25.54 25.7 25.44 25.76 25.33 25.81C25.23 25.85 25.11 25.87 25 25.88C23.05 25.88 21.11 25.49 19.31 24.74C17.5 24 15.86 22.9 14.48 21.52C13.1 20.14 12.01 18.5 11.26 16.69C10.51 14.89 10.13 12.96 10.13 11C10.13 10.89 10.15 10.77 10.19 10.67C10.24 10.56 10.3 10.47 10.38 10.38C10.47 10.3 10.56 10.24 10.67 10.19C10.77 10.15 10.89 10.13 11 10.13L14.06 10.13C14.18 10.13 14.29 10.15 14.4 10.19C14.5 10.24 14.6 10.3 14.68 10.38C14.76 10.47 14.83 10.56 14.87 10.67C14.92 10.77 14.94 10.89 14.94 11C14.94 11.27 14.95 11.53 14.97 11.8C14.99 12.06 15.02 12.32 15.06 12.58C15.1 12.85 15.16 13.11 15.22 13.36C15.28 13.62 15.35 13.88 15.44 14.13C15.46 14.2 15.48 14.28 15.48 14.36C15.48 14.44 15.47 14.53 15.45 14.6C15.43 14.68 15.4 14.76 15.36 14.83C15.32 14.9 15.28 14.96 15.22 15.02L13.29 16.94Z" />
	</g>
</svg>