<svg xmlns="http://www.w3.org/2000/svg" width="17.496" height="12.772" viewBox="0 0 17.496 12.772"><defs><style>.a{fill:#397674;}</style></defs><g transform="translate(0 0)"><path class="a" d="M13.471,31.526s-.345-9.181-8.447-12.772C5.024,18.754,15.1,19.659,13.471,31.526Zm2.738-5.48a16.986,16.986,0,0,0,5.21-5.7h0l.166-.325a3.71,3.71,0,0,1,.936-1.266s-4.838.264-7.079,3.343c-.831,1.141-1.422,3.043-1.422,6.6.011-.048.022-.1.032-.151.048-.205.128-.431.2-.68.038-.123.078-.253.119-.387s.1-.266.159-.4a9.079,9.079,0,0,1,.371-.86c.146-.292.283-.6.464-.889q.129-.221.261-.445c.087-.149.191-.289.286-.435s.191-.291.294-.43l.314-.411c.2-.278.434-.525.641-.777.222-.24.434-.475.648-.686s.417-.409.614-.582c.388-.353.733-.623.978-.807s.394-.278.394-.278-.145.1-.381.293-.57.476-.941.842c-.19.179-.382.385-.586.6s-.4.458-.613.7-.415.511-.6.792l-.292.418c-.1.141-.181.29-.271.435s-.183.288-.263.438l-.236.447c-.166.291-.288.6-.418.888a8.813,8.813,0,0,0-.325.853c-.048.137-.1.268-.138.4-.021.08-.041.155-.061.231A7.779,7.779,0,0,1,16.208,26.046Z" transform="translate(-5.024 -18.754)"/></g></svg>