<svg xmlns="http://www.w3.org/2000/svg" width="10.846" height="15.443" viewBox="0 0 10.846 15.443"><defs><style>.a{fill:#397674;}</style></defs><path class="a" d="M48.936,76.907a.225.225,0,0,1-.2-.133,7.21,7.21,0,0,1-.518-2.253.225.225,0,0,1,.428-.029,6.775,6.775,0,0,0,.487,2.125.212.212,0,0,1-.119.277A.189.189,0,0,1,48.936,76.907Z" transform="translate(-42.844 -61.464)"/><g transform="translate(0 0)"><path class="a" d="M35.072,57.642l-2.348-1.183a.061.061,0,0,0-.079.07l.741,2.638a1.374,1.374,0,1,0,1.685-1.525Z" transform="translate(-30.778 -47.602)"/><path class="a" d="M50.346,35.648a1.469,1.469,0,0,0,2.449.05L54.147,33.6a.061.061,0,0,0-.045-.095l-2.327.151A1.483,1.483,0,0,0,50.346,35.648Z" transform="translate(-44.393 -29.825)"/><path class="a" d="M47.654,20.625h0a1.4,1.4,0,0,0,2.028-1.237V17.216a.061.061,0,0,0-.09-.052l-1.881,1.084A1.4,1.4,0,0,0,47.654,20.625Z" transform="translate(-41.918 -17.157)"/><path class="a" d="M59.716,56.77l-1.636.757L59.173,58.8l.617-1.958a.059.059,0,0,0-.074-.072Z" transform="translate(-50.482 -47.843)"/><path class="a" d="M53.814,45.229l-2.4.5a1.78,1.78,0,0,0-1.147.8l1.55,1.8a1.46,1.46,0,0,0,.9-.739L53.877,45.3a.059.059,0,0,0-.063-.072Z" transform="translate(-44.432 -38.904)"/><path class="a" d="M34.059,29.653l1.926,2.253a1.221,1.221,0,0,0,.9-.412,1.482,1.482,0,0,0-.9-2.278L33.757,28.5a.061.061,0,0,0-.068.079Z" transform="translate(-31.585 -25.942)"/><path class="a" d="M35.117,37.776,28.2,29.735h0L27.143,28.5v.014l-2.221-2.593a.32.32,0,1,0-.487.417L27.842,30.3l-1.735-.547a.061.061,0,0,0-.068.079l.928,2.393a1.469,1.469,0,0,0,2.39.532,1.212,1.212,0,0,0,.225-.426l1.428,1.661A1.42,1.42,0,0,0,30.5,36.2h0a1.46,1.46,0,0,0,2.14-.311l2,2.3a.32.32,0,0,0,.484-.419Z" transform="translate(-24.358 -23.863)"/></g></svg>