<svg xmlns="http://www.w3.org/2000/svg" width="12.776" height="12.773" viewBox="0 0 12.776 12.773"><defs><style>.a{fill:#397674;}</style></defs><g transform="translate(0)"><path class="a" d="M10,54.419h2.609V54.9H10v1.657h5.37v.479H10v1.676H22.776V57.034H20.168v-.479h2.609V54.9h-5.37v-.479h5.37V52.762H10Z" transform="translate(-10 -45.937)"/><path class="a" d="M57.854,12.334a1.161,1.161,0,0,0-.731-1.077,1.023,1.023,0,0,0,.015-.173,1.074,1.074,0,0,0-2.148,0,1.023,1.023,0,0,0,.015.173,1.155,1.155,0,0,0-.474,1.8.013.013,0,0,1,0,.016,1.157,1.157,0,0,0-.257.725,1.173,1.173,0,0,0,1.179,1.165c.03,0,.06,0,.09-.006v.422a.014.014,0,0,1-.014.014h-.6a1.47,1.47,0,0,0-1.385.975h5.032a1.471,1.471,0,0,0-1.385-.975h-.6a.014.014,0,0,1-.014-.014v-.422c.03,0,.06.006.09.006A1.173,1.173,0,0,0,57.854,13.8a1.157,1.157,0,0,0-.257-.725.013.013,0,0,1,0-.016A1.157,1.157,0,0,0,57.854,12.334Z" transform="translate(-46.593 -10.022)"/><path class="a" d="M16.927,15.394h-.6a1.47,1.47,0,0,0-1.385.975h5.032a1.471,1.471,0,0,0-1.385-.975H18a.014.014,0,0,1-.014-.014v-.422c.03,0,.06.006.09.006A1.173,1.173,0,0,0,19.252,13.8a1.157,1.157,0,0,0-.257-.725.013.013,0,0,1,0-.016,1.155,1.155,0,0,0-.474-1.8,1.023,1.023,0,0,0,.015-.173,1.074,1.074,0,0,0-2.148,0,1.023,1.023,0,0,0,.015.173,1.155,1.155,0,0,0-.474,1.8.013.013,0,0,1,0,.016,1.157,1.157,0,0,0-.257.725,1.173,1.173,0,0,0,1.179,1.165c.03,0,.06,0,.09-.006v.422A.014.014,0,0,1,16.927,15.394Z" transform="translate(-14.156 -10.022)"/></g></svg>