<svg xmlns="http://www.w3.org/2000/svg" width="130.819" height="23.428" viewBox="0 0 130.819 23.428"><defs><style>.a{fill:#c6d8dd;}</style></defs><g transform="translate(-84.709 -88.097)"><path class="a" d="M207.847,96.275c0,.028.164.178.186.2l.185.2a1.68,1.68,0,0,0,.186.2c.015.011.174-.185.2-.187s.163.174.185.2.148.194.187.2.173-.164.2-.187.165-.188.2-.187.16.171.186.2a1.7,1.7,0,0,0,.187.2c.054-.014.157-.148.2-.187l.2-.187.2-.187c.015-.064.2-.123.2-.187a1.472,1.472,0,0,0-.187-.2c-.063,0-.133.189-.2.187s-.123-.184-.187-.2-.122-.2-.186-.2-.133.184-.2.187-.125-.2-.186-.2-.145.166-.2.187-.143.14-.2.187c-.031.026-.163.188-.2.187s-.138-.173-.186-.2a.975.975,0,0,1-.185-.2c0-.04.211-.152.2-.187-.021-.062-.14-.151-.185-.2l-.184-.2-.2.186c-.017.07-.2.127-.2.191s.186.136.184.2S207.857,96.211,207.847,96.275Z"/><path class="a" d="M215.334,98.177c-.056-.009-.134.191-.194.191s-.128-.2-.193-.2-.129.192-.2.191-.127-.195-.192-.2-.13.191-.2.19-.127-.194-.191-.195-.131.19-.2.19-.142-.171-.191-.195c0,0,.2-.179.2-.191,0-.065-.192-.131-.19-.2s.194-.126.194-.191c0-.028-.166-.176-.191-.2s-.173.186-.2.19c-.052.01-.137-.195-.191-.2s-.157.2-.2.191-.146-.15-.189-.2l-.19-.195c-.039-.041-.137-.18-.189-.2s-.154.183-.2.19-.135-.194-.189-.2-.141.2-.2.191c.063,0,.128.178.189.2a.943.943,0,0,1,.189.2c.009.052-.2.136-.2.191s.188.13.19.2-.2.128-.2.19.192.132.19.2-.2.126-.2.19c0,.031.165.172.191.2.007.007.176-.187.2-.19.052-.01.136.194.19.2s.134-.193.2-.191.126.195.191.2c.041,0,.163-.2.2-.191.061.025.145.147.191.195.032.032.15.19.192.2s.174-.168.2-.19.162-.191.2-.19.166.168.192.2.163.2.193.2.166-.162.2-.191c.047-.046.134-.167.2-.191.035-.013.152.2.194.2.064,0,.129-.179.194-.191.018-.071.2-.134.2-.2A1.309,1.309,0,0,0,215.334,98.177Z"/><path class="a" d="M211.871,96.98c-.046-.047-.128-.172-.188-.2-.034-.014-.155.189-.2.188-.061,0-.127-.2-.188-.2-.039,0-.167.159-.2.188a1.045,1.045,0,0,0-.2.187c-.014.026.186.166.188.2s-.174.165-.2.187a1.606,1.606,0,0,1-.2.182.652.652,0,0,1-.078-.084c.055-.056.151-.153.178-.152a1.256,1.256,0,0,1-.246.074.165.165,0,0,0-.034-.032c-.018,0-.044.024-.07.057a.578.578,0,0,1-.341-.068c-.062.019-.163.144-.213.187l-.211.187c-.044.039-.156.174-.215.187a1.887,1.887,0,0,1-.2-.2c0-.03.227-.164.213-.187a.925.925,0,0,0-.2-.2c-.055-.012-.156.189-.213.187s-.136-.2-.2-.2c-.044,0-.18.157-.215.187l-.214.187c-.048.042-.153.17-.215.187a1.573,1.573,0,0,1-.2-.2c-.031-.03-.159-.194-.2-.2s-.188.161-.215.184l-.215.184c-.035.029-.171.182-.215.184s-.176-.178-.2-.2c-.049-.049-.134-.175-.2-.2-.036-.015-.172.186-.216.184-.071,0-.128-.19-.2-.2s-.154.187-.216.184-.134-.2-.2-.2-.141.174-.216.184c-.056.009-.14-.2-.2-.2s-.146.183-.217.184-.135-.187-.2-.2-.159.187-.217.184-.137-.207-.2-.2a.187.187,0,0,0-.072.045c-.035-.083-.069-.167-.1-.25a1.825,1.825,0,0,0-.114-.265,1.849,1.849,0,0,0,.293-.083c.014-.042-.1-.222-.117-.266l-.121-.268-.057-.122c.054-.055.112-.154.158-.148.075.009.122.184.2.2.054.012.159-.186.216-.184s.147.174.2.2c0,0-.216.171-.216.183a1.4,1.4,0,0,0,.2.2c.03.015.187-.185.216-.184.064,0,.133.2.2.2.044,0,.182-.155.216-.184a1.348,1.348,0,0,1,.215-.184c.047-.024.166-.186.216-.185s.161.214.2.2c.058-.02.156-.187.215-.185.043,0,.161.214.2.2.065-.021.162-.139.214-.184l.428-.369-.2-.2a1.716,1.716,0,0,0-.2-.2c-.054-.037-.133-.186-.2-.2s-.156.187-.214.184c-.035,0-.171-.175-.2-.2s-.2-.166-.2-.2.227-.149.214-.184c-.023-.062-.148-.153-.2-.2s-.131-.17-.2-.2a2.231,2.231,0,0,0-.216.184c-.05.044-.149.164-.214.185-.033.01-.157-.193-.2-.2s-.158.187-.215.184-.156-.174-.2-.2a1.668,1.668,0,0,1-.194-.2c-.035-.035-.147-.191-.195-.2s-.155.187-.215.184-.147-.213-.194-.2c-.063.014-.164.145-.214.184l-.01.009a.961.961,0,0,1-.219.075c-.042-.017-.124-.228-.148-.267s-.116-.257-.151-.263a.594.594,0,0,0-.209.066c-.027-.029-.05-.05-.061-.05-.033,0-.115.083-.17.138l-.152.054a1.088,1.088,0,0,1-.292.106,1.6,1.6,0,0,1-.154-.258c-.024-.037-.114-.244-.156-.259-.062-.02-.235.137-.29.11-.08-.041-.077-.21-.158-.251-.057-.027-.224.136-.287.117s-.109-.25-.16-.251a1.073,1.073,0,0,0-.284.118l-.138.059c-.027-.03-.159-.2-.19-.2s-.185.154-.218.181c-.053.045-.151.16-.217.182-.037.011-.148-.2-.192-.2a.143.143,0,0,0-.079.051.634.634,0,0,0-.131-.186c-.036-.024-.229.141-.274.129-.075-.019-.094-.215-.167-.244s-.206.147-.272.13-.1-.225-.169-.241-.2.154-.27.138-.106-.232-.171-.237a.115.115,0,0,0-.036.007.23.23,0,0,0-.041-.035,1.87,1.87,0,0,0-.218.179l-.008.007a.87.87,0,0,1-.23.119c-.049-.011-.126-.241-.172-.238-.076.006-.2.109-.264.139-.04.018-.221.154-.262.145-.073-.014-.1-.209-.173-.231a1.144,1.144,0,0,1-.176-.232c0-.053.25-.093.262-.146a1.423,1.423,0,0,0-.177-.232,1.133,1.133,0,0,0-.261.146c-.037.024-.253.111-.26.147,0,.02.189.225.177.232s-.092.062-.155.1a.39.39,0,0,0,.063-.059,1.375,1.375,0,0,0-.19-.206.453.453,0,0,0-.126.094.072.072,0,0,0-.026-.014c-.073-.014-.184.161-.256.148a1.121,1.121,0,0,1-.179-.226,1.575,1.575,0,0,1,.256-.153c.086-.052.172-.1.258-.148-.12-.157-.24-.308-.363-.459-.088.047-.168.107-.257.153-.039.02-.214.16-.255.153s-.149-.236-.184-.228a1.265,1.265,0,0,0-.254.154,1.383,1.383,0,0,1-.252.154c-.053.017-.2.162-.25.155-.074-.011-.111-.2-.185-.222-.046-.011-.155-.186-.185-.221-.045-.055-.122-.189-.187-.223-.038-.02-.2.166-.249.16s-.168-.194-.189-.223c-.009-.012.243-.139.25-.16a1.285,1.285,0,0,0-.19-.222c-.047-.055-.125-.188-.191-.223-.037-.02-.2.167-.249.162s-.141-.224-.191-.218c-.069.009-.189.13-.247.164-.038.023-.2.171-.245.165-.071-.008-.125-.194-.193-.218s-.149-.172-.194-.218-.153-.213-.195-.219c-.062-.008-.183.149-.244.167l.1.1a.982.982,0,0,1,.1.114c-.005.047-.208.126-.242.167a1.389,1.389,0,0,1-.24.17l-.24.17c-.013-.07-.194-.144-.194-.214,0-.028.211-.15.239-.169l.241-.17-.394-.429-.24.17-.239.17a1.25,1.25,0,0,1-.239.17c-.025.01-.164-.209-.2-.213s-.208.154-.236.174c-.049.035-.175.165-.235.174s-.143-.206-.2-.211-.167.185-.234.174-.122-.19-.2-.21c-.057-.016-.173.179-.233.174s-.132-.209-.2-.21-.158.183-.231.178c-.053,0-.151-.217-.2-.208-.066.013-.177.14-.231.178-.012.009-.042.037-.075.067-.043-.061-.083-.157-.134-.161a.725.725,0,0,0-.163.123.192.192,0,0,0-.059-.058,1.032,1.032,0,0,1-.2-.207c-.008-.052.226-.125.229-.178a1.4,1.4,0,0,0-.2-.207c-.074,0-.157.183-.229.177-.045,0-.164-.216-.2-.2-.069.02-.172.137-.228.181l-.227.182c-.053.043-.158.163-.226.181-.032.01-.139-.156-.189-.195a.5.5,0,0,0-.13-.134c-.029-.011-.2.16-.222.176l-.007,0c-.034-.045-.066-.084-.085-.078-.062.016-.156.121-.21.17-.035-.057-.069-.123-.108-.129-.069-.01-.118-.2-.188-.208-.043,0-.187.192-.223.176-.063-.029-.143-.158-.188-.209-.022-.024-.159-.209-.188-.208-.045,0-.186.147-.223.176l-.224.176-.076.06c-.036-.038-.07-.07-.088-.07-.073,0-.146.182-.22.188a.5.5,0,0,1,.083.07c-.055.05-.122.107-.145.1a1.438,1.438,0,0,1-.188-.209c0-.041.235-.14.224-.176-.021-.063-.143-.157-.188-.208s-.126-.178-.189-.209c-.03-.014-.186.172-.224.176-.056.006-.131-.2-.189-.209s-.177.153-.223.175a1.593,1.593,0,0,0-.224.176l-.447.352c-.067-.065-.121-.143-.188-.208a2.341,2.341,0,0,0,.223-.176,2,2,0,0,0-.189-.209c-.047-.051-.125-.177-.188-.208a2.094,2.094,0,0,0-.223.175c-.035.025-.185.179-.225.176-.059,0-.134-.182-.188-.208s-.142-.157-.189-.209l-.188-.208c-.035-.039-.138-.2-.189-.209-.025-.006-.2.158-.223.176s-.185.179-.224.176c-.057,0-.134-.214-.189-.208-.082.01-.143.168-.224.176-.056.006-.132-.2-.19-.208s-.166.19-.224.176-.156-.172-.189-.208-.126-.179-.189-.208c-.036-.017-.18.18-.224.176-.068,0-.121-.2-.189-.208-.037,0-.193.152-.224.176a1.035,1.035,0,0,1-.223.176c-.039.01-.146-.2-.19-.208-.069,0-.154.18-.224.176s-.122-.2-.189-.208c-.043,0-.187.193-.224.176-.062-.03-.144-.158-.189-.208-.031-.034-.146-.2-.19-.208-.062-.012-.159.18-.223.176s-.143-.218-.19-.208c-.064.012-.171.139-.224.177-.035.024-.184.18-.224.177-.065,0-.128-.184-.191-.208s-.148-.162-.19-.207l-.191-.208c-.031-.033-.147-.2-.191-.208s-.2.156-.224.177a1.362,1.362,0,0,1-.223.178c-.048.022-.173.181-.224.177-.07,0-.122-.2-.191-.207-.039,0-.163-.177-.19-.208s-.147-.2-.192-.206-.2.156-.223.177-.184.179-.223.176c-.07,0-.121-.2-.191-.207s-.118-.188-.191-.208c-.054-.014-.166.181-.223.178s-.122-.2-.191-.208-.155.182-.223.177c-.044,0-.154-.218-.193-.207-.067.02-.169.135-.223.178-.031.025-.187.181-.223.178s-.166-.178-.193-.207c-.046-.05-.128-.178-.192-.206-.036-.016-.179.181-.223.178-.064,0-.129-.209-.193-.207-.044,0-.187.15-.223.178-.054.044-.155.159-.223.179-.038.012-.149-.2-.193-.206-.071,0-.151.174-.222.178s-.13-.2-.194-.206-.153.183-.221.179-.125-.2-.194-.207-.169.158-.223.178a2.527,2.527,0,0,1,.193.207,1.731,1.731,0,0,1-.222.178c-.068,0-.125-.2-.193-.206a1.363,1.363,0,0,0,.221-.179c.006-.027-.17-.182-.193-.206s-.152-.2-.193-.207c-.065-.009-.155.183-.222.179s-.125-.2-.194-.207-.153.184-.222.179-.141-.212-.195-.2-.18.146-.223.181a1.167,1.167,0,0,1-.222.18c-.029.01-.159-.2-.2-.205s-.2.159-.222.181-.182.181-.222.18-.17-.178-.2-.2c-.047-.05-.131-.177-.2-.2-.037-.016-.177.182-.222.18-.07,0-.126-.189-.2-.2s-.163.184-.221.18-.126-.2-.2-.2-.151.177-.221.18c-.03,0-.173-.181-.2-.2s-.166-.207-.2-.2a1.638,1.638,0,0,0-.219.18c-.054.044-.191.12-.22.181-.018.034.2.164.2.2a1.515,1.515,0,0,1-.22.18c-.07,0-.127-.2-.2-.2-.033,0-.2.2-.22.18a.948.948,0,0,1-.2-.2c-.008-.053.217-.13.221-.182a1.114,1.114,0,0,0-.2-.2c-.032-.015-.181.185-.22.183-.071,0-.127-.2-.2-.2s-.15.18-.22.183c-.03,0-.175-.179-.2-.2s-.172-.205-.2-.2c-.05,0-.181.15-.219.183l-.22.183c-.026.022-.188.187-.22.183-.071-.009-.127-.2-.2-.2-.043,0-.182.2-.219.183-.065-.028-.151-.153-.2-.2s-.138-.18-.2-.2-.135-.2-.2-.2-.149.186-.219.183-.13-.2-.2-.2-.149.186-.219.184a1.3,1.3,0,0,1,.2.2,1.475,1.475,0,0,1-.219.183c-.065,0-.134-.2-.2-.2s-.134-.194-.2-.2a1.348,1.348,0,0,0-.218.183c-.025.022-.185.188-.219.185s-.167-.17-.2-.2-.162-.2-.2-.2-.18.2-.217.185c-.065-.026-.153-.152-.2-.2s-.137-.174-.2-.2c-.038-.016-.174.187-.218.186-.061,0-.143-.207-.2-.2s-.179.153-.218.185l-.217.186-.217.186c-.036.031-.169.182-.217.186-.028,0-.179-.177-.2-.2l-.2-.2c-.033-.033-.158-.195-.2-.2s-.19.164-.216.186l-.216.185c-.05.043-.151.167-.216.186-.035.01-.162-.191-.2-.2s-.157.189-.215.188-.163-.17-.2-.2c.006,0,.2-.176.216-.189s.215-.154.216-.188-.176-.171-.205-.2c-.046-.044-.185-.139-.2-.2.013.038-.212.145-.216.189-.07-.015-.135-.2-.206-.2-.055,0-.165.164-.215.188a1.209,1.209,0,0,0-.215.189l-.215.189c-.042.037-.16.178-.214.189a1.6,1.6,0,0,1-.206-.2c-.05-.048-.14-.172-.206-.2-.038-.015-.17.19-.214.189-.07,0-.136-.2-.207-.2-.038,0-.185.163-.215.189-.051.044-.147.168-.214.189-.033.011-.167-.189-.207-.2-.056-.011-.154.19-.213.188s-.135-.192-.207-.2c-.041,0-.177-.168-.208-.2s-.173-.2-.208-.2-.183.162-.212.19-.17.19-.208.19-.175-.168-.2-.2a1.257,1.257,0,0,0-.2-.2c-.049.007-.173.158-.208.191a1.1,1.1,0,0,1-.208.19c-.029.013-.167-.191-.2-.195s-.184.168-.208.19-.159.182-.208.19a1.219,1.219,0,0,1-.2-.2c-.02-.025-.164-.195-.2-.2-.068,0-.14.192-.209.19s-.14.192-.208.19-.134-.195-.2-.2-.14.191-.208.19-.134-.182-.2-.2-.165-.159-.2-.2-.174-.2-.2-.2c-.044,0-.176.159-.209.19-.051.046-.144.167-.21.19-.037.014-.16-.2-.2-.2-.065,0-.145.173-.209.19s-.145.191-.21.19-.139-.2-.2-.2-.135.177-.209.19c-.056.009-.146-.195-.2-.2s-.158.167-.21.191a1.985,1.985,0,0,1,.2.2,1.452,1.452,0,0,1-.209.19c-.068,0-.135-.2-.2-.2s-.135-.195-.2-.2c-.033,0-.186.2-.209.19a.948.948,0,0,1-.2-.2c-.01-.051.209-.136.209-.19a1.147,1.147,0,0,0-.2-.2c-.049-.01-.158.181-.21.189s-.145-.194-.2-.195-.138.18-.21.19-.143-.2-.2-.2-.142.178-.21.19-.142.191-.21.19-.139-.2-.2-.2-.149-.206-.2-.2-.167.154-.21.191-.171.189-.21.19c-.068,0-.137-.2-.2-.2s-.136-.194-.2-.2-.141.179-.21.19-.141.191-.21.19-.137-.2-.2-.2a1.4,1.4,0,0,0,.21-.19,1.55,1.55,0,0,0-.2-.2c-.044,0-.176.159-.209.19s-.173.191-.21.19-.176-.169-.2-.2a1.4,1.4,0,0,0-.2-.2c-.05.009-.171.156-.21.191l-.21.192c-.026.024-.178.193-.21.19s-.174-.165-.206-.194a1.717,1.717,0,0,0-.2-.2c-.062.018-.163.148-.21.191l-.21.191c-.031.029-.168.19-.209.191-.066,0-.138-.195-.205-.195-.044,0-.173.2-.209.191-.065-.025-.156-.148-.206-.2-.023-.022-.179-.2-.206-.2-.048.006-.174.159-.209.191l-.209.191c-.026.024-.177.193-.209.191s-.175-.166-.205-.195l-.207-.2c-.052-.049-.14-.168-.207-.195-.035-.013-.167.193-.209.193-.069,0-.137-.193-.207-.193s-.14.193-.209.192-.139-.194-.207-.194c-.038,0-.18.165-.209.192l-.209.192c-.045.043-.148.175-.208.193a1.737,1.737,0,0,1-.208-.194c-.028-.027-.17-.193-.208-.194s-.18.166-.208.192c-.066.067-.135.131-.208.192a.935.935,0,0,1-.208-.194c-.011-.051.208-.138.209-.192a1.582,1.582,0,0,0-.208-.193c-.074,0-.134.179-.208.193-.055.01-.149-.194-.208-.194s-.142.175-.208.192-.127.177-.208.192c-.055.01-.15-.193-.208-.193s-.141.176-.208.193c-.046.012-.157-.188-.208-.192-.031,0-.184.171-.208.194-.048.045-.145.173-.208.194-.039.013-.165-.188-.209-.192s-.183.171-.208.194-.165.191-.207.195-.184-.169-.209-.192a1.086,1.086,0,0,0-.209-.192c-.029-.012-.171.19-.207.194s-.185-.169-.21-.192-.17-.19-.209-.192-.181.17-.208.194c-.05.047-.141.169-.206.193-.038.014-.167-.192-.21-.192-.071,0-.135.186-.207.195s-.147-.192-.21-.192-.142.2-.206.194-.135-.177-.211-.19c-.056-.009-.147.2-.206.2s-.14-.185-.211-.189-.136-.177-.212-.19c-.056-.01-.147.2-.205.2s-.143-.177-.212-.19c-.052-.009-.15.19-.205.2-.03,0-.187-.167-.213-.189s-.167-.186-.212-.19-.179.173-.205.2-.166.2-.205.2-.178-.163-.212-.189-.172-.19-.213-.19c-.069,0-.135.2-.2.2-.044,0-.176-.2-.213-.19-.065.026-.155.148-.2.2s-.154.187-.2.2-.153-.19-.214-.189-.139.2-.2.2-.138-.175-.214-.186c-.057-.009-.145.2-.2.2s-.143-.18-.215-.187c-.047,0-.179-.155-.215-.186s-.18-.188-.215-.187-.175.171-.2.2a1.052,1.052,0,0,1-.2.2c-.028.013-.18-.184-.216-.185s-.178.174-.2.2-.152.19-.2.2-.162-.179-.217-.187-.144.2-.2.2-.146-.186-.217-.187-.133.2-.2.2-.147-.189-.217-.186-.131.2-.2.2-.146-.186-.217-.187-.136.187-.2.2-.16-.186-.219-.184-.132.2-.2.2-.147-.186-.218-.182c-.044,0-.163.214-.2.2-.067-.021-.166-.138-.219-.183-.032-.026-.18-.183-.22-.183s-.17.176-.2.2-.159.2-.2.2c-.071,0-.147-.177-.22-.183s-.141-.172-.22-.184c-.056-.007-.139.2-.2.2s-.149-.172-.22-.182c-.053-.008-.144.195-.2.2a1.458,1.458,0,0,1-.221-.183c-.026-.022-.185-.184-.222-.183s-.17.175-.2.2c-.048.05-.175.14-.2.2-.013.035.219.141.222.182a1.114,1.114,0,0,1-.2.2c-.009,0-.2-.165-.222-.178s-.183-.181-.223-.179c-.071,0-.125.194-.2.206s-.125.2-.2.207c-.04,0-.188-.154-.223-.179-.007,0,.194-.189.2-.207a1.668,1.668,0,0,0-.224-.178,1.486,1.486,0,0,0-.225-.179c-.018-.008-.169.2-.2.207-.069.018-.125.2-.2.206-.043,0-.188-.195-.224-.178-.064.029-.148.157-.194.206a2.386,2.386,0,0,1-.195.207,1.978,1.978,0,0,0-.193.206l-.194.206-.193.207-.383.412c-.071-.008-.155-.183-.225-.178-.044,0-.152.218-.191.208-.067-.018-.17-.131-.226-.174l-.226-.173c-.051-.04-.163-.159-.227-.173-.043-.01-.143.206-.19.211-.071.006-.157-.179-.228-.174s-.12.2-.189.211c-.03,0-.2-.153-.229-.173s-.189-.175-.229-.173-.165.184-.188.211a1.172,1.172,0,0,1-.188.21c-.027.015-.193-.173-.23-.173s-.166.186-.188.211c-.036.041-.134.2-.187.211s-.179-.169-.23-.173-.128.206-.186.21-.162-.179-.231-.173-.118.192-.186.211-.172-.174-.231-.168-.127.188-.185.216a2.006,2.006,0,0,1,.232.167,1.641,1.641,0,0,1-.184.216c-.07.009-.159-.167-.231-.167-.046,0-.193-.14-.232-.167a1.313,1.313,0,0,0-.232-.167c-.05-.02-.183-.173-.234-.167-.071.009-.114.2-.183.216.026-.007.208.148.233.167a1.359,1.359,0,0,1,.233.167c.033.039.226.12.231.167a1.1,1.1,0,0,1-.182.216,2.712,2.712,0,0,1-.231-.167,1.32,1.32,0,0,0-.233-.167c-.049-.02-.183-.173-.233-.167-.07.008-.111.206-.181.216a1.477,1.477,0,0,1,.233.167,1.039,1.039,0,0,1-.181.216c-.012.011-.207-.165-.232-.167-.057,0-.123.209-.18.216s-.185-.147-.233-.166a.969.969,0,0,1-.234-.167c-.019-.05.187-.162.18-.216a1.6,1.6,0,0,0-.236-.167c-.038,0-.155.186-.18.216l-.179.216c-.043.052-.118.185-.179.216-.035.018-.192-.172-.236-.167-.069.009-.108.211-.177.221s-.167-.17-.237-.16-.106.208-.176.222-.169-.17-.237-.159-.105.2-.175.221-.1.2-.176.222c-.028.007-.209-.14-.238-.159a1.419,1.419,0,0,0-.239-.159c-.054.022-.138.176-.173.221l-.173.221-.171.222c-.03.039-.125.207-.17.221a1.368,1.368,0,0,1-.24-.159,1.028,1.028,0,0,0-.241-.159c-.04-.008-.126.214-.169.221-.07.01-.17-.166-.242-.159-.032,0-.148.193-.168.223s-.13.221-.167.227-.208-.13-.242-.15-.213-.159-.243-.151a1.345,1.345,0,0,0-.166.228,1.092,1.092,0,0,1-.164.228c-.025.017-.208-.154-.244-.151s-.144.2-.163.228-.115.21-.162.228-.189-.151-.246-.151-.1.216-.16.227-.175-.15-.247-.151c-.053,0-.106.212-.159.227-.029.009-.218-.132-.248-.15s-.215-.157-.249-.15-.136.194-.157.227l-.158.227c-.038.053-.1.2-.155.234-.036.022-.2-.151-.248-.14s-.1.232-.153.235-.186-.118-.248-.14a1.981,1.981,0,0,1-.25-.141c-.042-.024-.2-.144-.25-.139-.03,0-.132.208-.151.235s-.113.225-.149.234c-.069.016-.182-.151-.252-.14s-.178-.143-.254-.139c-.056,0-.092.221-.148.235s-.188-.156-.254-.139c-.04.01-.124.2-.147.233s-.109.224-.146.234-.213-.162-.256-.139-.082.216-.144.236c-.041.013-.222-.152-.254-.128a.969.969,0,0,0-.141.243c-.021.038-.1.228-.139.243a1.242,1.242,0,0,1-.255-.128c-.035-.017-.223-.137-.258-.127s-.118.209-.137.242-.106.237-.135.241a1.684,1.684,0,0,1-.258-.126,1.059,1.059,0,0,0-.26-.126c-.036,0-.1.223-.134.241s-.206-.142-.262-.126-.1.2-.132.241l.128.058a.882.882,0,0,1,.134.067c.012.026-.115.212-.13.24-.031.057-.127.178-.129.24,0,.039.245.086.26.126s-.117.191-.128.239a1.214,1.214,0,0,1-.126.239c-.015.027-.138.214-.125.238a1.828,1.828,0,0,0,.258.127l.257.127a2.024,2.024,0,0,0,.255.128c.017.006.1-.229.125-.238a1.71,1.71,0,0,1,.253.127c.017.048-.152.2-.125.239a1.253,1.253,0,0,0-.253-.128,1.411,1.411,0,0,0-.123.238c.021.039.211.107.253.128L97.73,97l.25.129a1.177,1.177,0,0,1,.249.129c.018.018-.126.208-.122.239.007.051.23.078.247.129s-.146.2-.121.238a.95.95,0,0,0,.246.13l.244.131.242.131c.054.03.121.077.183.108l-.1.126c-.024.03-.14.213-.177.218a1.247,1.247,0,0,1-.23-.164c-.019-.05.184-.165.176-.219a1.126,1.126,0,0,0-.23-.165c-.019-.009-.149.214-.176.218-.069.009-.163-.173-.231-.167s-.109.2-.176.216c-.029.006-.2-.148-.23-.167s-.19-.17-.231-.168-.154.19-.176.216l-.177.216c-.037.045-.122.195-.177.215s-.179-.173-.23-.167-.139.226-.177.216c-.067-.016-.173-.127-.23-.168s-.177-.164-.229-.167-.121.209-.178.216-.161-.175-.229-.167-.11.208-.178.216-.166-.18-.229-.168c-.041.008-.15.183-.178.216l-.179.216c-.03.036-.134.2-.178.216-.028.006-.2-.148-.229-.168-.056-.041-.161-.151-.229-.167-.039-.009-.136.211-.178.216-.064.007-.167-.181-.229-.168-.045.01-.146.181-.178.216s-.141.21-.179.214c-.07.007-.159-.175-.229-.17S93.192,99,93.119,99c-.056,0-.123.207-.18.213s-.157-.174-.227-.171-.114.206-.18.213-.16-.178-.228-.17-.112.206-.18.213-.166-.183-.227-.171-.11.206-.18.214c-.051.005-.183-.188-.228-.17s-.137.167-.181.213c-.028.029-.142.209-.181.213.068-.007.158.165.228.171-.076.044-.1.177-.182.214s-.1.191-.181.213c-.053.016-.17-.176-.227-.17s-.114.2-.182.213-.16-.178-.226-.171-.114.206-.184.214-.157-.178-.226-.171-.116.194-.183.214l.227.171a1.4,1.4,0,0,1,.226.171c.032.039.222.124.228.17s-.159.181-.183.214-.149.21-.184.214c.047,0,.189.188.228.17.06-.027.141-.164.183-.214l.183-.213c.039-.044.128-.193.184-.214a1.884,1.884,0,0,1,.228.171c0,.03-.2.193-.183.214a.948.948,0,0,0,.228.17c.055,0,.125-.207.183-.213s.167.183.229.171c.043-.008.153-.179.182-.213l.181-.214c.041-.047.123-.188.182-.213a1.647,1.647,0,0,1,.228.17c.035.026.188.172.229.171s.159-.187.181-.214l.181-.213c.028-.034.138-.2.181-.213s.2.151.229.171c.056.041.162.153.229.17.039.01.137-.208.181-.213.07-.007.158.169.229.169s.118-.209.18-.216.167.18.23.168.107-.194.18-.216c.053-.018.172.174.229.167s.111-.2.18-.217.166.163.23.168.122-.21.179-.216.172.182.23.167.144-.179.179-.216.14-.212.179-.216c.068-.008.159.163.23.167a1.186,1.186,0,0,1,.231.168c.018.05-.187.162-.179.217a1.415,1.415,0,0,0,.231.167c.038,0,.154-.185.178-.216l.178-.216.179-.216c.038-.044.124-.194.178-.216a1.589,1.589,0,0,1,.23.167,1.054,1.054,0,0,0,.231.167c.039.01.135-.211.178-.216.068-.008.163.176.231.167s.109-.208.178-.216c.043,0,.2.185.232.167.06-.031.133-.164.177-.217l.176-.218.464.329-.177.219c-.043.053-.161.154-.177.218-.01.036.225.125.231.165.009.06-.167.156-.177.218s-.186.158-.177.219.229.1.232.164-.172.148-.177.218c0,.052.225.112.233.165a1.222,1.222,0,0,1-.178.219,2.4,2.4,0,0,1-.233-.165c0-.016.2-.2.178-.218a1,1,0,0,0-.232-.166c-.057,0-.121.209-.178.216s-.165-.175-.233-.167-.11.208-.178.216c-.043.006-.2-.185-.232-.167-.061.032-.135.164-.178.216s-.13.2-.178.216-.174-.174-.232-.167-.115.214-.18.216-.155-.162-.231-.168c-.057,0-.122.209-.18.216s-.161-.165-.232-.167-.162-.175-.232-.167-.115.213-.179.215-.155-.162-.231-.167c-.056,0-.123.209-.18.216s-.177-.149-.231-.168a2.349,2.349,0,0,0,.18-.215,1.053,1.053,0,0,0-.23-.168c-.021-.009-.15.212-.18.216-.064.007-.167-.18-.23-.168-.043.009-.151.182-.181.216a1.282,1.282,0,0,1-.18.216c-.042.031-.131.21-.181.217s-.2-.186-.23-.168c-.054.029-.122.21-.18.215-.043,0-.2-.188-.231-.17-.062.031-.137.162-.182.213l-.364.427.23.17a1.768,1.768,0,0,0,.231.171c.061.029.165.164.231.17s.124-.208.181-.214a1.267,1.267,0,0,1,.23.169c.03.023.227.132.231.167s-.2.184-.182.216c.034.058.176.127.231.167a1.119,1.119,0,0,0,.231.168,1.963,1.963,0,0,0,.182-.216c.043-.051.121-.186.182-.217.03-.015.191.165.231.168.057,0,.124-.209.181-.216s.188.146.232.167a1.827,1.827,0,0,1,.232.168c.042.029.183.165.233.167s.12-.209.181-.217.187.186.233.167.137-.169.18-.216c.028-.03.142-.211.179-.216.055-.006.18.149.233.167a1.211,1.211,0,0,1,.233.168c.026.019.205.173.233.167.045-.01.151-.181.18-.216l.18-.217.359-.432c.073.061.162.106.234.167.012.011-.183.194-.18.216.007.047.2.128.234.167a1.387,1.387,0,0,0,.234.168,1.158,1.158,0,0,0,.234.164c.03.01.142-.213.179-.218.069-.009.164.172.233.165s.111-.2.178-.218c.03-.006.206.145.234.164s.2.171.234.165.151-.185.179-.218c.043-.053.117-.185.178-.219.035-.018.191.17.235.165.06-.009.123-.19.177-.218s.118-.211.179-.218c.042-.006.2.183.234.164.062-.031.134-.164.178-.217l.177-.218c.081.015.154.161.235.165.056,0,.118-.21.177-.218a1.089,1.089,0,0,1,.235.164c.015.015-.181.193-.177.218.009.064.225.1.235.165s-.187.155-.177.218a1.228,1.228,0,0,0,.235.165,1.526,1.526,0,0,0,.177-.217,1.126,1.126,0,0,1,.177-.218c.026-.016.2.166.237.164s.156-.192.177-.218.126-.2.176-.218.178.172.235.164.112-.216.176-.22.159.159.236.163c.057,0,.118-.212.176-.219s.166.17.235.162a1.433,1.433,0,0,0-.175.22,1.368,1.368,0,0,0,.235.163c.03,0,.156-.193.176-.219.042-.052.116-.189.175-.219.031-.017.2.161.235.162.057,0,.118-.212.176-.219s.166.17.236.162.166.173.235.163.107-.21.175-.219.167.172.238.163.113-.218.175-.22.167.172.236.163c.044-.006.136-.228.176-.22a1.087,1.087,0,0,1,.236.162c.034.023.2.167.237.163s.148-.19.175-.22.136-.214.174-.219c.057-.008.184.18.236.163s.107-.21.175-.219.168.172.237.162.1-.21.174-.22.171.151.236.162c-.01.01-.021.021-.03.032l-.06.073a.957.957,0,0,0-.085.116c0,.028.208.142.237.162s.191.163.236.161c.063,0,.111-.212.174-.221s.192.181.238.162.132-.173.174-.221c.028-.03.135-.215.174-.221.056-.008.186.179.236.161.066-.023.105-.211.174-.221.05-.007.193.181.237.161s.131-.173.173-.22c.027-.031.134-.215.173-.221.07-.01.166.166.238.162.042,0,.2.136.236.161s.177.155.236.161c.043,0,.131-.205.173-.22s.18.17.238.162.1-.21.173-.221.167.159.238.161.116-.212.174-.221.195.14.237.161l-.085.106a.746.746,0,0,0-.088.115,1.327,1.327,0,0,0,.238.161c.031,0,.15-.194.173-.22s.134-.215.173-.221c.069-.01.166.164.236.161s.168.171.238.161c.035-.006.149-.191.172-.221.007-.01-.234-.142-.237-.161a1.755,1.755,0,0,1,.173-.221c.05,0,.192.134.237.161s.2.167.236.16c.057-.008.118-.224.174-.221.081,0,.155.158.237.161.056,0,.115-.212.172-.221s.183.144.237.162a1.147,1.147,0,0,1,.237.16c.047.032.181.156.237.161.024,0,.154-.2.172-.221s.135-.215.172-.221c.07-.01.167.167.238.161s.167.171.237.161c.042-.006.133-.229.172-.221a1.012,1.012,0,0,1,.237.161c.029.019.209.168.238.16s.145-.185.173-.221l.172-.221.172-.221c.024-.031.134-.215.172-.221a.559.559,0,0,1,.1.059c-.034.042-.076.1-.086.116l-.128.157c.051,0,.119.126.168.12.015,0,.028-.019.042-.041a2.224,2.224,0,0,0,.206.13c.034.023.085.067.136.1a.1.1,0,0,1-.047.047c-.039.013-.126-.125-.168-.12s-.078.149-.128.156-.12-.126-.167-.12-.079.151-.129.157-.118-.127-.167-.12-.081.141-.128.157l.168.12a1,1,0,0,1,.168.12c.024.028.163.086.167.12a.115.115,0,0,1-.03.049c-.072-.014-.133-.157-.206-.166-.054,0-.125.2-.18.2s-.147-.159-.214-.166c-.05-.006-.127.19-.179.2-.027,0-.189-.147-.214-.166s-.18-.169-.214-.166-.155.172-.179.2c-.044.049-.16.14-.18.2-.011.034.211.127.214.166a.972.972,0,0,1-.179.2,2.356,2.356,0,0,1-.214-.166l-.083-.073c.038-.032.081-.064.078-.089-.007-.046-.162-.075-.168-.121s.135-.111.128-.157c0-.023-.145-.106-.168-.121-.007,0-.114.152-.129.157-.039.013-.126-.125-.167-.12s-.081.153-.128.157-.119-.127-.168-.12c-.021,0-.061.079-.093.124a.692.692,0,0,0-.139-.1.239.239,0,0,0-.039.036l-.026-.021c-.027-.02-.135-.121-.167-.12s-.114.139-.129.157-.1.154-.128.157-.145-.1-.167-.12-.145-.124-.168-.12-.109.133-.129.157a.736.736,0,0,1-.128.157c-.025.013-.137-.124-.168-.12-.049.006-.08.142-.128.157,0,.047-.136.111-.129.157a.943.943,0,0,0,.167.12c.044,0,.084-.151.129-.157s.118.127.168.12.079-.151.129-.157c.034,0,.077.056.116.093a1.056,1.056,0,0,1-.127.14,1.871,1.871,0,0,0-.178.2l-.178.2-.178.2-.355.4c-.067-.006-.149-.171-.215-.165-.041,0-.14.21-.177.2-.064-.017-.162-.125-.215-.166l-.214-.165c-.05-.038-.156-.152-.216-.165-.041-.009-.132.2-.177.2-.065.006-.148-.17-.215-.165s-.112.189-.177.2c-.028.005-.19-.145-.215-.165s-.178-.167-.215-.165-.154.175-.177.2a.992.992,0,0,1-.177.2c-.025.014-.181-.165-.215-.164s-.156.177-.177.2c-.034.039-.127.185-.177.2s-.167-.159-.215-.164-.122.2-.176.2-.15-.172-.215-.164-.112.182-.176.2-.16-.17-.216-.165-.122.176-.176.2a.192.192,0,0,1,.035.023l.073.053a.806.806,0,0,1,.107.088,1.668,1.668,0,0,1-.176.2c-.066.007-.147-.163-.216-.164-.042,0-.179-.137-.215-.164a1.314,1.314,0,0,0-.215-.164c-.047-.02-.168-.169-.216-.165-.066.006-.111.186-.176.2.025-.006.191.146.216.164a1.314,1.314,0,0,1,.215.164c.03.038.211.12.215.164a1.079,1.079,0,0,1-.176.2,2.608,2.608,0,0,1-.215-.165,1.273,1.273,0,0,0-.215-.164c-.046-.02-.167-.169-.215-.164-.066.006-.11.193-.176.2a1.379,1.379,0,0,1,.215.165,1.048,1.048,0,0,1-.176.2c-.012.01-.191-.162-.215-.165-.053,0-.122.2-.176.2s-.17-.144-.216-.164a.908.908,0,0,1-.215-.164c-.016-.048.181-.15.176-.2a1.365,1.365,0,0,0-.216-.164c-.035,0-.151.173-.176.2l-.176.2c-.042.048-.117.173-.175.2-.034.017-.174-.168-.216-.164-.065.006-.11.195-.176.2s-.15-.17-.215-.164-.11.192-.176.2-.151-.17-.215-.164-.111.188-.177.2-.1.188-.176.2c-.027.005-.189-.144-.215-.164a1.38,1.38,0,0,0-.216-.164c-.052.018-.14.16-.175.2l-.176.2-.176.2c-.031.035-.13.19-.175.2-.024.007-.192-.146-.216-.164a.955.955,0,0,0-.216-.164c-.036-.01-.134.2-.176.2-.066.006-.148-.166-.215-.164-.03,0-.154.176-.175.2s-.141.2-.175.2-.187-.141-.216-.163-.187-.169-.215-.164a1.376,1.376,0,0,0-.176.2,1.048,1.048,0,0,1-.176.2c-.025.014-.181-.164-.216-.164s-.155.178-.175.2-.129.188-.176.2-.164-.16-.216-.164-.121.2-.175.2-.149-.158-.215-.165c-.05,0-.124.192-.176.2-.027.006-.189-.144-.215-.164s-.184-.168-.215-.164-.151.172-.176.2l-.176.2c-.041.046-.119.176-.175.2-.038.016-.172-.168-.216-.164s-.123.205-.176.2-.159-.135-.215-.164a1.636,1.636,0,0,1-.215-.165c-.037-.028-.17-.162-.215-.164-.028,0-.154.178-.176.2s-.139.2-.176.2c-.066.006-.148-.166-.216-.164s-.144-.158-.215-.165c-.053,0-.121.2-.176.2s-.151-.172-.215-.164c-.038,0-.148.172-.176.2s-.139.2-.176.2-.172-.181-.215-.165c-.06.023-.114.2-.176.2-.042,0-.182-.181-.215-.165-.059.029-.133.152-.176.2-.028.031-.136.194-.177.2s-.188-.144-.214-.165-.181-.168-.216-.165-.152.174-.176.2-.148.2-.176.2a1.43,1.43,0,0,1-.215-.164c-.051-.039-.153-.15-.215-.165-.032-.009-.142.19-.176.2-.051.015-.16-.169-.217-.165s-.142.172-.176.2l.1.078a.851.851,0,0,1,.111.087c0,.026-.156.177-.177.2-.042.047-.16.143-.177.2-.01.036.21.124.215.164s-.155.158-.177.2a1.248,1.248,0,0,1-.177.2c-.02.023-.183.176-.177.2.01.04.179.137.215.164l.215.165a1.829,1.829,0,0,0,.215.165c.015.008.152-.2.177-.2a1.547,1.547,0,0,1,.215.164c0,.048-.193.159-.176.2a1.234,1.234,0,0,0-.215-.164,1.593,1.593,0,0,0-.177.2c.01.04.179.137.215.165l.215.165.215.165a1.111,1.111,0,0,1,.215.164c.014.02-.173.172-.177.2,0,.049.21.113.215.164s-.195.164-.177.2c.025.052.167.128.215.165l.215.164.217.165a1.234,1.234,0,0,0,.215.164c.023.011.147-.2.177-.2a1.561,1.561,0,0,1,.216.164c.033.022.188.171.216.165s.147-.167.177-.2l.177-.2c.035-.04.125-.184.176-.2.021-.007.192.148.215.164s.179.168.216.164c.054,0,.125-.207.176-.2.078.008.139.157.216.164.053,0,.122-.2.176-.2s.176.181.216.164c.056-.023.137-.156.177-.2l.176-.2.176-.2c.03-.034.132-.191.176-.2.025,0,.192.146.216.165.053.04.152.147.216.164.037.01.134-.2.175-.2.066-.007.148.162.216.164s.117-.2.176-.2.15.17.217.164.11-.2.176-.2.16.178.215.163.14-.165.176-.2.138-.2.175-.2.179.181.216.164c.061-.027.13-.154.175-.2.027-.029.139-.2.176-.2.066-.006.148.163.216.164a1.043,1.043,0,0,1,.216.164c.016.048-.181.15-.176.2a1.428,1.428,0,0,0,.216.164c.035,0,.153-.173.175-.2s.18-.167.176-.2-.223-.155-.215-.164c.022-.027.142-.2.175-.2.065-.006.15.17.215.164s.11-.195.176-.2a1.138,1.138,0,0,1,.215.163c.007.018-.158.182-.175.2l-.175.2.431.328c.062-.065.113-.138.176-.2.026-.028.138-.2.175-.2s.189.18.215.164a1.043,1.043,0,0,0,.175-.2,1.293,1.293,0,0,1,.176-.2c.041-.028.127-.2.175-.2.067-.006.148.163.216.164.043,0,.18.137.216.163.052.041.15.148.215.165.037.01.135-.2.176-.2s.191.142.215.164-.175.181-.176.2a1.543,1.543,0,0,0,.215.163.961.961,0,0,0,.215.165c.036.01.135-.2.175-.2s.173.18.215.164c.058-.022.133-.157.176-.2.027-.029.138-.2.175-.2.063-.006.151.155.215.164s.167.13.215.164c.033.023.178.167.215.164.055-.005.126-.174.176-.2,0,0-.055-.038-.108-.078a.971.971,0,0,1-.106-.086c0-.045.154-.158.175-.2a1.19,1.19,0,0,1,.175-.2l.176-.2c.026.063.2.1.215.164.006.026-.154.178-.175.2l-.175.2.43.328.175-.2.175-.2a1.111,1.111,0,0,1,.175-.2c.02-.014.184.165.215.164s.154-.177.175-.2c.036-.041.124-.183.175-.2s.165.169.215.165.114-.2.176-.2.142.158.214.164c.053.005.121-.2.176-.2s.153.174.214.164.109-.195.175-.2c.048,0,.172.181.214.165.059-.022.134-.157.176-.2s.139-.2.175-.2c.057-.005.158.149.216.165a.917.917,0,0,1,.212.165c.017.047-.18.15-.175.2a1.437,1.437,0,0,0,.215.164c.065-.008.11-.194.176-.2.041,0,.179.181.214.164.059-.028.133-.151.176-.2l.175-.2c.042-.047.118-.174.176-.2.03-.015.176.161.214.165.054,0,.122-.2.176-.2s.177.181.214.165c.057-.025.135-.155.176-.2l.176-.2c.025-.029.14-.2.176-.2s.183.144.214.166.176.168.213.165.136-.209.176-.2c.065.015.159.127.213.165.033.023.177.169.214.166.066-.006.11-.187.176-.2a1.424,1.424,0,0,1-.213-.167,1.593,1.593,0,0,1,.177-.2c.025,0,.2.177.213.167a1.6,1.6,0,0,0,.176-.2l.177-.2c.027-.031.137-.193.177-.2s.184.146.213.165.176.169.213.166.152-.21.176-.2a1.323,1.323,0,0,1,.213.166l.212.166c.044.034.157.156.213.167s.128-.2.177-.2.17.182.212.166c.058-.021.135-.157.177-.2s.139-.2.177-.2.163.147.212.166a1.1,1.1,0,0,1,.211.167c.028.021.184.171.212.166s.149-.169.177-.2c.043-.048.158-.14.177-.2,0,.03.184.147.212.166.011.007.157-.195.178-.2a1.358,1.358,0,0,1,.211.168c.025.022.167.164.212.167.027,0,.155-.176.177-.2s.141-.2.178-.2c.065,0,.146.172.211.167s.112-.187.178-.2a1.434,1.434,0,0,1,.212.167c.026.02.183.172.21.168a1.288,1.288,0,0,0,.178-.2c.043-.049.119-.17.178-.2.034-.016.17.17.211.167.064,0,.116-.179.177-.2s.16.171.211.167.114-.18.178-.2.113-.193.179-.2.143.168.21.168c.04,0,.177.142.21.168s.173.17.21.168c.062,0,.115-.193.178-.2s.167.184.21.168.136-.155.179-.2c.028-.028.142-.195.179-.2s.16.149.209.169a1.107,1.107,0,0,1,.21.168c.032.026.171.169.209.169s.157-.173.179-.2l.18-.2c.042-.046.121-.171.18-.2.036-.016.167.173.208.17.065,0,.115-.192.18-.2s.145.174.209.17.119-.2.18-.2.14.156.209.17.147.174.208.17c.041,0,.145-.207.18-.2.063.019.158.129.208.17.033.027.167.169.208.169.057,0,.124-.181.18-.2s.153.174.208.17.116-.182.181-.2.15.175.208.171.117-.179.181-.2.116-.191.181-.2.141.17.207.171c.044,0,.172.145.208.171s.17.173.207.171c.063,0,.118-.193.181-.2a1.262,1.262,0,0,1-.208-.171,1.114,1.114,0,0,1,.181-.195,1.621,1.621,0,0,1,.207.171c.014.048-.185.144-.18.194a.72.72,0,0,0,.1.091l.1.081c.06-.027.137-.148.181-.2s.16-.135.181-.2c0,.034.178.147.206.171.008.007.163-.194.182-.2.047,0,.162.15.207.172a1.262,1.262,0,0,1,.206.172c.041.035.153.164.205.173a1.484,1.484,0,0,0,.182-.194,1.287,1.287,0,0,1,.182-.194c.041-.028.135-.192.182-.194.065,0,.141.176.206.173.035,0,.177.149.205.173s.168.173.205.172.159-.169.183-.194.149-.192.183-.194.176.149.2.173.175.176.2.173a1.449,1.449,0,0,0,.183-.194c.043-.045.125-.168.184-.193.031-.013.167.169.2.174s.128-.19.183-.192.147.184.2.175c.072-.013.112-.175.184-.192.051-.012.149.177.2.174s.121-.176.184-.192.152.172.2.175c.028,0,.163-.169.185-.192s.147-.189.184-.192.177.152.2.174c.049.042.14.154.2.174.035.011.144-.19.185-.192.065,0,.137.176.2.175s.122-.19.186-.192c.041,0,.168.191.2.177.06-.026.14-.145.186-.191.029-.029.147-.186.186-.19.061-.005.14.179.2.177.041,0,.15-.2.186-.19.062.02.152.133.2.176.023.02.176.181.2.177.043-.007.154-.158.186-.191a1.244,1.244,0,0,1,.187-.19c.042-.026.14-.188.188-.19.065,0,.135.177.2.177a1.394,1.394,0,0,1,.2.176c0,.039-.2.158-.187.191.025.057.15.133.2.176.028.025.165.177.2.177s.16-.165.188-.19.151-.188.188-.189c.065,0,.138.181.2.178s.123-.187.189-.189c.038,0,.169.193.2.178.063-.028.141-.141.189-.189l.189-.189c.028-.028.151-.186.189-.189s.175.155.2.178c.049.043.139.157.2.178.036.012.148-.188.19-.189s.16.154.2.178a1.464,1.464,0,0,1,.2.177c.04.036.149.168.2.178a1.856,1.856,0,0,0,.189-.188c.021-.018.153-.188.19-.188.06,0,.143.187.2.179s.141.18.2.179.125-.175.19-.188.125-.187.19-.188.149.157.2.179a1.028,1.028,0,0,1,.2.179c.031.027.164.178.2.178s.167-.164.19-.188a1.306,1.306,0,0,1,.191-.188c.042-.026.143-.187.19-.188s.154.156.2.179a1.214,1.214,0,0,1,.2.179c.023.021.172.183.2.18s.16-.157.19-.187a1.3,1.3,0,0,1,.191-.187c.043-.025.143-.186.191-.187s.163.193.2.18c.057-.021.132-.187.191-.187.041,0,.165.194.2.18.062-.024.145-.142.191-.188l.191-.187c.006.05.208.133.2.18s-.155.148-.19.187-.192.153-.192.188a1,1,0,0,0,.2.179c.016.011.166-.187.191-.187.064,0,.134.169.2.179l.384-.374.191-.187c.042-.041.136-.169.192-.186a1.557,1.557,0,0,1,.2.18c.036.032.152.174.2.18.026,0,.169-.167.191-.187s.155-.186.193-.186c.066,0,.132.172.2.18s.132.181.2.181.14-.2.192-.187.144.147.2.18a1.214,1.214,0,0,1,.192-.187c.053-.008.144.171.2.18s.138-.186.193-.187.142.189.2.18.16-.154.192-.186.132-.163.193-.187c.035-.013.157.181.2.181s.171-.161.193-.187c.008-.01-.2-.161-.2-.181a1.648,1.648,0,0,1,.193-.186l.193-.186c.074.023.123.168.2.181.053.009.139-.186.193-.186a1.079,1.079,0,0,1,.2.18c.02.023-.193.163-.193.186,0,.061.2.12.2.181s-.194.125-.192.187a1.226,1.226,0,0,0,.2.181c.047.01.143-.182.193-.186.065.011.133.182.2.181.048,0,.15-.162.193-.187a1.213,1.213,0,0,0,.193-.186c.041-.038.142-.172.2-.186s.147.182.2.181.133-.19.193-.185.127.169.2.182c.053.009.139-.186.194-.186.039,0,.165.194.2.181.063-.026.145-.139.193-.186l.388-.371c.013.06.2.123.2.183,0,.034-.166.159-.193.185l-.387.371.4.363.388-.371c.07.017.126.175.2.182.029,0,.171-.163.194-.186s.15-.179.195-.185.143.172.2.181.139-.185.194-.185c.038,0,.166.2.2.182.064-.027.145-.138.194-.185l.2-.185c.029-.027.156-.182.194-.185s.172.159.2.181l.2.183c.034.031.152.176.2.182s.141-.175.194-.185.143.182.2.182.128-.175.194-.185.139.183.2.182.129-.172.195-.185.129-.185.2-.185.13.178.2.182c.04,0,.167.155.2.183s.16.182.2.183c.064,0,.131-.184.2-.185.048,0,.153.2.2.182s.148-.145.2-.184c.03-.025.158-.184.195-.184s.149.159.2.183a1.05,1.05,0,0,1,.2.183c.027.025.163.182.2.182s.168-.159.2-.185c.047-.045.134-.161.2-.185.034-.013.155.183.2.183s.14-.164.2-.185.138-.185.195-.185.163.2.2.183c.062-.023.147-.139.2-.185.032-.029.153-.179.2-.184s.174.162.2.184a1.052,1.052,0,0,0,.2.183c.026.012.161-.181.2-.184s.174.161.2.183.176.187.2.183c.051-.012.157-.148.2-.184l.2-.184c.021-.019.174-.189.2-.185a1.279,1.279,0,0,1,.2.182c0,.03-.209.164-.2.185a.866.866,0,0,0,.2.182c.053.01.141-.184.2-.184s.131.182.2.183c.033,0,.17-.16.2-.184l.2-.184c.049-.046.133-.159.2-.184.033-.013.158.183.2.183.061,0,.134-.188.2-.184s.125.17.2.183c.052.01.141-.184.2-.184s.129.179.2.183a1.451,1.451,0,0,0-.2.184,1.384,1.384,0,0,0,.2.183,1.753,1.753,0,0,0,.2-.184c.025-.02.161-.184.2-.184s.169.158.2.183.157.181.2.184c.063,0,.133-.184.2-.184s.131.184.2.184.131-.184.2-.184.147.194.2.183.157-.147.2-.184l.2-.183.2-.184c.026-.025.163-.185.2-.185s.169.159.2.184l.2.184c.037.035.146.174.2.183a1.947,1.947,0,0,0,.2-.184c.026-.019.159-.183.2-.183.061,0,.137.165.2.184s.15.143.2.184.154.179.2.184.142-.173.2-.184.142.184.2.184.13-.174.2-.183.139.184.2.183.13-.171.2-.184.131-.183.2-.183.13.181.2.183c.038,0,.168.157.2.184s.163.185.2.183c.068,0,.129-.171.2-.184.052-.009.141.184.2.184s.133-.169.2-.183.132-.183.2-.183.131.184.2.184.13-.184.2-.183c.041,0,.163.2.2.183.063-.025.147-.138.2-.183l.2-.183c.029-.028.158-.182.2-.184.061,0,.135.172.2.184s.143-.184.2-.184.134.167.2.184.12.17.2.184c.052.01.142-.183.2-.183s.129.181.2.184.134-.172.2-.183.142.183.2.184.133-.169.2-.184.133-.183.2-.183.131.184.2.184.132-.183.2-.183.13.18.2.183c.038,0,.166.157.2.184s.159.182.2.184.168-.159.2-.183.159-.184.2-.183c.065,0,.131.183.2.184s.129-.177.2-.183c.028,0,.173.162.2.184s.167.186.2.185.167-.156.2-.185c.049-.044.135-.159.2-.182.036-.013.156.184.2.184.059,0,.14-.191.2-.184s.163.151.2.185.134.159.2.182c.036.014.156-.182.2-.182.067,0,.129.181.2.184.031,0,.171-.16.2-.183s.151-.175.2-.183c.026,0,.174.164.2.184s.159.184.2.184c.063,0,.132-.169.2-.184a1.659,1.659,0,0,1-.2-.183,1.292,1.292,0,0,1,.2-.184c.067,0,.129.171.2.184s.142-.184.2-.184.135.167.2.184c.044.012.149-.184.2-.183a1.027,1.027,0,0,1,.2.184c.012.017-.2.157-.2.183a1.127,1.127,0,0,0,.2.184c.049.011.146-.184.2-.184s.131.184.2.184.131-.184.2-.184.13.182.2.184.132-.184.2-.183.13.182.2.184.131-.177.2-.184c.029,0,.173.162.2.183s.169.183.2.182.173-.158.2-.185c.049-.045.137-.162.2-.185.036-.014.162.182.2.182.064,0,.138-.19.2-.185.042,0,.173.153.205.181.05.044.142.159.207.182.036.013.156-.185.2-.185.068,0,.136.173.205.179s.136-.187.2-.188.139.18.206.178.129-.187.2-.188.138.168.206.178.131.157.207.178c.019.009.2.183.208.179a2.309,2.309,0,0,0,.195-.188c.027-.029.2-.154.2-.189s-.219-.136-.208-.179.2-.129.2-.188c0-.038-.221-.145-.207-.179.023-.058.146-.143.193-.188l.192-.19c.066.01.139.179.205.176s.138-.2.192-.191a.942.942,0,0,1,.206.177,1.632,1.632,0,0,1-.191.19c-.027.03-.194.156-.192.191a1.637,1.637,0,0,0,.206.176c.041,0,.163-.161.191-.191l.382-.381.191-.191.19-.19a1.178,1.178,0,0,1,.189-.191c.023-.013.176.177.207.175s.16-.165.188-.192c.066-.061.123-.131.188-.192.065.061.141.113.206.175s.139.117.206.175c.038.031.2.132.206.175.007.024-.167.169-.187.192s-.19.158-.188.192c0,.058.208.118.207.175,0-.067.174-.127.188-.192.071.015.134.171.207.175.029,0,.166-.17.188-.192.043-.044.129-.17.188-.192.035-.013.166.173.207.175s.166-.169.187-.192.142-.184.187-.192a1.684,1.684,0,0,1,.206.174c.023.018.171.176.206.174s.161-.166.187-.192l.187-.192c.058.066.151.107.206.174.028.036.2.133.206.174s-.2.159-.187.192c.028.057.156.132.206.175a2.152,2.152,0,0,0,.206.174c.051.033.146.167.205.175s.131-.189.186-.192.14.163.2.175.134-.19.186-.192.16.152.205.174a1.236,1.236,0,0,1,.2.175c.03.026.167.174.2.175s.163-.168.187-.192c.044-.046.126-.168.186-.192.031-.013.166.169.2.175s.13-.188.186-.191.164.191.2.177c.057-.021.144-.148.186-.191a1.16,1.16,0,0,1,.186-.191c.042-.026.139-.189.186-.191.065,0,.137.177.2.176.036,0,.174.151.2.176a1.048,1.048,0,0,0,.2.176c.025.011.152-.187.186-.191s.176.156.2.177.153.172.2.178.136-.178.186-.189.145.179.2.178.121-.183.187-.189.119-.18.187-.189c.028,0,.175.156.2.177a1.884,1.884,0,0,0,.2.178c.06-.024.144-.145.188-.189l.188-.188.188-.187c.026-.026.154-.186.189-.187a1.214,1.214,0,0,1,.2.179c.012.049-.189.136-.187.188a1.042,1.042,0,0,0,.2.18c.017.01.163-.186.188-.187.065,0,.13.18.2.181s.125-.18.189-.187c.027,0,.171.159.194.18s.156.179.194.181.166-.164.189-.187l.189-.184c.039-.038.136-.17.19-.183s.144.184.192.183.156-.2.191-.183c.06.023.144.139.189.184s.144.174.189.183.139-.184.192-.184.125.183.189.183.129-.184.193-.184.128.187.188.185c.038,0,.162-.151.192-.18l.193-.18c.032-.03.152-.174.194-.179.026,0,.165.166.187.187.044.047.125.164.185.188.034.013.154-.18.2-.18s.125.19.184.187c.042,0,.161-.151.2-.179s.162-.182.2-.18c.064,0,.117.187.18.192s.115.176.18.193.144-.177.2-.174.114.185.178.192.138-.177.2-.174.115.189.177.192.137-.177.2-.174.118.2.175.192.137-.178.2-.175c.047,0,.13.205.173.2s.153-.132.2-.168c.03-.023.166-.171.2-.168-.062,0-.111-.182-.173-.2.076-.028.125-.148.2-.168s.132-.16.205-.168c.051-.006.121.193.173.2s.142-.171.207-.168.11.192.171.2.145-.173.209-.168.106.193.169.2.145-.16.209-.165c-.056-.069-.112-.136-.169-.2a1.212,1.212,0,0,1-.171-.2c-.021-.042-.178-.153-.174-.2s.182-.142.211-.168.181-.17.213-.167c-.044,0-.135-.208-.175-.2-.061.015-.164.129-.212.167l-.211.167c-.043.035-.155.158-.209.168a1.594,1.594,0,0,1-.176-.2c0-.029.221-.145.209-.168a.865.865,0,0,0-.177-.2c-.051-.014-.155.172-.209.168s-.12-.2-.18-.2c-.042,0-.175.141-.208.168l-.207.171c-.046.039-.147.159-.206.174a1.5,1.5,0,0,1-.181-.192c-.028-.029-.145-.188-.183-.193s-.18.153-.2.174l-.2.174c-.032.028-.161.172-.2.174s-.162-.17-.184-.193c-.045-.047-.125-.167-.186-.192-.034-.014-.16.175-.2.175-.066,0-.121-.178-.187-.188s-.142.18-.2.179-.128-.191-.188-.188-.129.168-.2.179c-.052.009-.135-.186-.189-.187s-.133.177-.2.18-.131-.175-.19-.188-.143.181-.2.179-.135-.194-.192-.188-.158.152-.2.183-.159.184-.2.184c-.064,0-.128-.172-.192-.183a.967.967,0,0,1-.194-.184c-.009-.049.2-.132.2-.184a1.475,1.475,0,0,0-.2-.183c-.037,0-.167.157-.2.184l-.195.185-.2.184c-.04.038-.138.169-.193.183a1.553,1.553,0,0,1-.194-.183c-.048-.045-.135-.162-.2-.183-.036-.013-.153.186-.193.186-.065,0-.132-.182-.2-.18s-.126.186-.192.187c-.041,0-.163-.194-.2-.18-.06.024-.144.141-.19.186l-.19.187-.4-.36.191-.187c.045-.045.168-.129.191-.187.013-.033-.2-.142-.2-.181,0-.058.175-.13.19-.186s.2-.13.194-.187-.2-.123-.2-.18.18-.121.193-.187c.01-.05-.2-.13-.2-.18,0-.028.168-.167.194-.187a2.181,2.181,0,0,1,.2.181c0,.015-.208.165-.194.187a.927.927,0,0,0,.2.18c.053.009.139-.186.194-.187s.134.181.2.18.129-.185.195-.187c.041,0,.164.193.2.18.062-.026.147-.141.2-.185s.148-.175.2-.185.143.183.2.185.135-.188.2-.185.126.172.2.185c.052.01.143-.185.2-.183s.13.174.2.184.13.184.2.183.137-.188.2-.183.125.17.2.184c.052.01.145-.181.2-.179s.146.163.2.188c0,0-.2.167-.2.179a1.017,1.017,0,0,0,.194.188c.018.012.171-.18.2-.179.061,0,.132.192.192.188.042,0,.169-.151.2-.18a1.312,1.312,0,0,1,.2-.179c.045-.023.156-.18.2-.18s.158.2.191.19c.056-.021.147-.182.205-.18.041,0,.155.2.19.19.063-.02.155-.132.206-.174l.415-.348-.19-.193a1.666,1.666,0,0,0-.192-.193c-.053-.037-.13-.178-.193-.193s-.152.177-.208.177c-.034,0-.169-.163-.193-.187s-.2-.154-.2-.188.22-.146.208-.18c-.023-.059-.148-.143-.2-.187s-.132-.16-.2-.188a1.855,1.855,0,0,0-.208.179c-.048.042-.144.159-.206.179-.031.01-.159-.181-.2-.188s-.15.18-.205.179-.16-.162-.2-.188a1.861,1.861,0,0,1-.2-.187c-.036-.032-.153-.176-.2-.184s-.145.184-.2.184-.155-.2-.2-.184c-.061.016-.154.144-.2.183s-.164.183-.2.184c-.054,0-.153-.16-.2-.184a1.292,1.292,0,0,1-.2-.184,1.409,1.409,0,0,0-.2-.185c-.044,0-.167.154-.2.183l-.2.186-.4.373c-.062-.065-.142-.116-.2-.18-.011-.012.2-.165.2-.187,0-.045-.176-.14-.2-.181a1.492,1.492,0,0,0-.2-.181,1.171,1.171,0,0,0-.205-.18c-.028-.012-.161.186-.2.187-.067,0-.137-.18-.2-.181s-.129.18-.2.187c-.029,0-.181-.159-.206-.18s-.175-.181-.205-.178-.166.161-.195.189c-.047.046-.132.164-.194.19-.035.014-.164-.179-.206-.178-.059,0-.138.168-.194.19s-.135.188-.194.189c-.041,0-.17-.19-.206-.177-.062.024-.146.143-.192.19l-.192.189c-.074-.022-.128-.166-.206-.177-.053-.007-.135.189-.19.191a1.054,1.054,0,0,1-.206-.177c-.013-.016.191-.167.19-.19,0-.061-.2-.115-.206-.177s.193-.13.19-.19a1.054,1.054,0,0,0-.206-.177,1.633,1.633,0,0,0-.191.19.982.982,0,0,1-.19.191c-.026.013-.172-.174-.208-.175s-.167.169-.19.191-.141.18-.19.191-.15-.178-.207-.176-.128.194-.189.191-.135-.165-.207-.175c-.054-.008-.133.19-.188.191s-.139-.175-.207-.174a1.313,1.313,0,0,0,.188-.192,1.287,1.287,0,0,0-.207-.175c-.028,0-.166.169-.188.192-.044.046-.128.168-.188.192-.031.013-.168-.169-.206-.174s-.133.19-.189.191-.14-.175-.207-.174-.14-.178-.206-.174-.123.189-.187.192-.141-.177-.206-.174-.129.2-.187.192-.139-.178-.206-.175c-.041,0-.15.2-.187.192-.062-.02-.156-.132-.205-.174-.03-.025-.169-.176-.207-.175s-.158.166-.187.192-.149.191-.187.192c-.055,0-.154-.187-.2-.175s-.121.189-.186.192-.139-.178-.2-.175-.121.189-.186.192-.145-.159-.2-.175a.386.386,0,0,0,.031-.026l.063-.063a.964.964,0,0,0,.092-.1c0-.027-.18-.154-.2-.175s-.161-.172-.2-.175c-.058,0-.126.189-.186.192s-.16-.19-.2-.175-.141.15-.186.192c-.029.026-.15.19-.187.192-.053,0-.152-.188-.2-.176-.064.015-.122.188-.185.19s-.159-.19-.2-.176-.14.15-.185.19c-.029.026-.149.19-.187.191-.065,0-.134-.173-.2-.177-.04,0-.168-.149-.2-.176s-.145-.164-.2-.176c-.039-.009-.145.181-.187.19s-.144-.18-.2-.179-.121.187-.185.189-.133-.168-.2-.179-.133.187-.186.188-.16-.154-.2-.178c.029-.032.059-.062.091-.091a.676.676,0,0,0,.094-.1,1.164,1.164,0,0,0-.2-.178c-.027,0-.162.166-.186.188s-.15.188-.187.189c-.064,0-.129-.173-.194-.178s-.13-.18-.194-.18c-.033,0-.16.161-.185.186-.007.008.192.164.192.182a1.556,1.556,0,0,1-.186.186c-.045,0-.156-.151-.192-.182s-.154-.182-.19-.181c-.053,0-.138.2-.187.185-.073-.015-.118-.169-.19-.182-.05-.01-.135.184-.188.185s-.143-.159-.188-.182a.981.981,0,0,1-.189-.181c-.035-.036-.141-.171-.193-.183a2.188,2.188,0,0,0-.2.183c-.024.017-.16.184-.2.184-.067,0-.13-.179-.2-.184s-.129-.184-.2-.184c-.041,0-.161.2-.2.184-.062-.023-.149-.14-.2-.185-.023-.021-.169-.186-.2-.183s-.164.153-.2.183l-.2.184-.2.183c-.028.026-.16.183-.2.184a1.293,1.293,0,0,1-.2-.184c0-.039.21-.15.2-.184-.025-.058-.148-.139-.2-.184s-.134-.159-.2-.184c-.029-.011-.161.177-.2.184s-.072-.052-.113-.1c.027.026.055.053.068.054.031,0,.128-.125.146-.142s.119-.141.147-.141.125.119.149.138.12.139.15.138c.049,0,.1-.141.146-.141s.123.148.149.138c.046-.018.111-.107.147-.141s.112-.135.147-.141.106.139.149.138.1-.145.147-.142.1.129.148.138.106-.141.148-.141.1.132.148.138.123.115.148.138.123.139.148.138.127-.122.148-.141a.734.734,0,0,1,.148-.141c.02-.009.122.139.146.142s.13-.121.148-.137.113-.133.148-.138.109.135.147.142.107-.138.149-.138.1.14.147.143.1-.139.149-.138.1.141.146.142.1-.138.149-.138.1.139.146.142.1-.129.15-.138.1.141.146.143.1-.14.15-.138.1.141.146.142.124-.148.15-.138c.046.019.111.108.146.142s.117.14.146.142.128-.12.15-.138.123-.138.151-.138c.051,0,.1.134.146.142s.089.131.145.143c.039.008.108-.138.149-.138s.1.131.146.143.112-.134.151-.138c.021,0,.127.125.145.142s.119.141.145.142.13-.119.151-.137c.037-.034.132-.094.151-.138.012-.025-.145-.112-.144-.142a.794.794,0,0,1,.152-.138c.007,0,.133.131.144.143s.116.142.144.142c.051,0,.1-.133.152-.138s.1-.138.153-.138c.029,0,.123.122.145.142a1.851,1.851,0,0,0-.153.138,1.141,1.141,0,0,0,.144.141,1.208,1.208,0,0,0,.144.142c.011.007.134-.135.153-.138.05-.009.1-.138.153-.137.031,0,.116.154.143.145.047-.016.116-.1.152-.133a1.385,1.385,0,0,1,.153-.134,1.619,1.619,0,0,0,.153-.133l.153-.133.154-.134.308-.266c.05.011.093.144.143.146.031,0,.128-.144.154-.133.046.02.107.111.142.147l.143.146c.032.033.1.13.142.146s.121-.134.154-.133c.051,0,.092.143.142.147s.1-.131.155-.133c.022,0,.125.129.142.146s.113.144.141.147.135-.116.155-.133a.786.786,0,0,1,.156-.132c.021-.008.115.143.141.146s.138-.117.156-.133.117-.126.156-.133.1.138.14.146.115-.135.157-.133.09.144.14.146.107-.126.157-.133.1.144.14.147.113-.12.157-.133c0,0-.037-.034-.071-.069a.715.715,0,0,1-.069-.077,1.053,1.053,0,0,1,.158-.132c.05,0,.089.138.139.146.032,0,.117.122.14.146a1.01,1.01,0,0,0,.139.146c.032.02.1.145.139.146s.107-.128.158-.133c-.02,0-.123-.13-.139-.146a1.075,1.075,0,0,1-.14-.146c-.017-.032-.142-.112-.139-.146a.8.8,0,0,1,.158-.133,1.479,1.479,0,0,1,.139.146,1.01,1.01,0,0,0,.139.146c.032.02.1.145.14.146s.107-.134.158-.132a1.2,1.2,0,0,1-.139-.146.776.776,0,0,1,.159-.133c.01-.008.121.142.138.148.039.011.117-.131.159-.128s.107.13.138.151a.679.679,0,0,1,.137.151c0,.038-.155.089-.158.128a1.027,1.027,0,0,0,.137.151c.027,0,.137-.11.159-.128l.159-.128c.039-.031.112-.115.159-.128.027-.008.1.149.138.151.049,0,.109-.132.159-.128s.086.147.136.151.108-.13.159-.128.088.147.137.151.109-.126.16-.127.106-.127.161-.128c.021,0,.12.133.136.151a1.145,1.145,0,0,0,.136.151c.042-.007.128-.1.161-.127l.161-.127.161-.128c.029-.022.127-.125.162-.127.019,0,.122.134.136.151.033.037.09.13.135.151.026.012.131-.13.163-.128.05,0,.084.144.134.151a.988.988,0,0,0,.162-.128c.019-.016.137-.13.163-.127s.117.13.135.151.112.151.134.151a1.021,1.021,0,0,0,.163-.127.779.779,0,0,1,.164-.128c.021-.007.108.147.135.151s.145-.112.164-.127.127-.124.164-.127.1.141.134.151.123-.13.165-.127.085.137.133.151.124-.125.164-.125c.022,0,.117.138.133.156s.108.156.132.157a.7.7,0,0,0,.164-.122l.165-.122c.038-.028.118-.112.165-.121.03-.006.1.153.131.156s.127-.133.166-.122.1.126.132.156a1.3,1.3,0,0,1,.131.157c.022.026.1.148.132.156s.146-.108.166-.122.137-.125.166-.121c.051.006.08.147.129.156s.08.141.13.157.125-.126.167-.123.081.151.13.156c.029,0,.141-.1.167-.12s.139-.124.167-.122.1.161.129.156.121-.127.167-.12.1.163.129.156a.77.77,0,0,0,.167-.122c.026-.019.138-.123.169-.121s.113.137.128.156.1.153.128.156.146-.1.169-.121.148-.126.169-.121a1.018,1.018,0,0,1,.128.156c.021.026.084.135.127.156.022.012.139-.119.168-.121s.086.151.128.156.139-.105.17-.121l-.063-.074a.572.572,0,0,1-.065-.082c0-.02.15-.107.17-.121a.772.772,0,0,0,.171-.121c.015-.025-.132-.125-.128-.156s.146-.093.17-.121a1.017,1.017,0,0,1,.171-.121c.02-.014.171-.1.172-.121s-.107-.13-.129-.156l-.128-.156a1.36,1.36,0,0,0-.128-.156,1.365,1.365,0,0,0,.172-.121c0-.031-.108-.13-.129-.156l-.129-.156-.131-.156a.776.776,0,0,1-.13-.156c-.007-.017.164-.1.172-.121s-.137-.117-.132-.156.179-.091.173-.121a.869.869,0,0,0-.131-.157l-.007-.009a.088.088,0,0,1,.054-.029c.03,0,.172.179.2.2a1.8,1.8,0,0,0,.2.2c.066-.02.168-.139.221-.181l.221-.181.22-.181c.031-.025.184-.183.221-.181a1.3,1.3,0,0,1,.2.2c.008.053-.218.128-.22.182a.9.9,0,0,0,.2.2c.032.016.192-.183.22-.181.071,0,.126.2.2.2s.15-.179.22-.181c.03,0,.173.18.2.2s.155.2.2.2.192-.16.219-.181l.219-.182c.045-.038.161-.17.219-.181s.145.2.2.2.182-.2.219-.182c.063.028.148.154.2.2s.146.191.2.2.162-.186.22-.184.128.2.2.2.149-.187.219-.184.132.2.2.2c.042,0,.185-.156.218-.184l.218-.184c.037-.03.172-.181.218-.184.029,0,.175.178.2.2.049.049.134.174.2.2.037.015.173-.186.217-.184.065,0,.135.2.2.2.047,0,.178-.155.216-.184s.178-.186.217-.184c.071,0,.129.2.2.2s.127.185.2.2c.056.013.158-.186.218-.184s.128.195.2.2.149-.187.216-.184.131.2.2.2.146-.189.216-.187.136.2.2.2.146-.189.216-.187c.052,0,.155.21.2.2a.306.306,0,0,0,.11-.081c.039.055.077.127.117.136.069.021.118.189.189.2.028,0,.177-.164.2-.187l.2-.187c-.065-.015-.125-.2-.189-.2s-.14.193-.2.187c-.04,0-.08-.083-.123-.141.05-.05.1-.1.127-.1-.07,0-.133-.184-.2-.2.082-.033.13-.161.215-.187s.135-.174.214-.187c.056-.009.144.2.2.2s.143-.186.214-.186.134.2.2.2.145-.189.214-.187.134.2.2.2.144-.176.213-.187l-.2-.2a1.454,1.454,0,0,1-.2-.2c-.025-.043-.2-.151-.2-.2,0-.014.016-.032.036-.052.033.052.065.106.1.108.063.005.13-.169.2-.183a1.375,1.375,0,0,1,.181.194,1.53,1.53,0,0,0,.188.2c.051-.01.16-.151.2-.187s.172-.127.2-.188c.015-.034-.189-.158-.188-.2s.172-.169.2-.187.164.2.188.2c.064,0,.133-.176.2-.188s.133-.191.2-.191C212.017,97.169,211.9,97.014,211.871,96.98Z"/><path class="a" d="M92.415,102.611c-.009-.064.171-.148.17-.213,0-.028-.189-.151-.215-.171l-.214-.171a1.755,1.755,0,0,0-.214-.17c-.016-.009-.145.208-.17.213s-.188-.15-.214-.171-.175-.172-.214-.171-.149.187-.171.214-.137.209-.171.213-.184-.147-.213-.17a1.6,1.6,0,0,0-.214-.171c-.052.022-.135.169-.171.214l-.171.214-.172.214c-.006.065-.179.151-.172.214a1.353,1.353,0,0,0,.213.171c.064-.008.107-.206.172-.214s.148.165.214.171.149.177.213.17.107-.2.172-.214.152.178.214.17.122-.185.172-.213.123-.159.171-.213c.027-.03.135-.21.171-.214s.163.151.214.17a1.072,1.072,0,0,1,.214.171c0,.04-.188.18-.171.213.031.058.164.13.216.171l.215.17.171-.214c0-.065.178-.149.17-.213S92.424,102.675,92.415,102.611Z"/><path class="a" d="M89.556,101.376c-.028,0-.188-.152-.213-.172a1.4,1.4,0,0,0-.211-.171c-.049.019-.138.17-.172.211s-.154.147-.172.211c-.01.036.207.133.211.174a.994.994,0,0,1-.172.21c-.013.012-.187-.176-.211-.174-.064.006-.11.192-.173.21s-.108.2-.172.21-.15-.163-.213-.173a1,1,0,0,1-.21-.174c-.015-.05.179-.156.173-.211s-.2-.109-.21-.174.179-.148.173-.21-.2-.111-.21-.175.178-.146.172-.21c0-.031-.182-.153-.21-.175-.009-.007-.153.2-.173.21-.05.016-.156-.179-.209-.174s-.111.207-.173.211-.145-.181-.209-.175c-.04,0-.137.221-.174.211-.062-.019-.158-.131-.208-.173-.035-.03-.167-.175-.21-.175-.027,0-.153.185-.173.21s-.14.207-.175.21-.178-.151-.208-.174-.178-.179-.208-.175-.147.178-.174.211c-.042.051-.116.18-.175.211-.033.017-.168-.179-.208-.175-.063.006-.112.192-.174.211-.008.065-.181.146-.176.21a1.281,1.281,0,0,0,.208.174c.056,0,.117-.2.175-.212s.144.182.208.176.111-.2.175-.21.145.18.208.174.111-.2.175-.21.145.18.209.174.111-.2.175-.21.157.155.208.173c0,0-.175.2-.174.212.006.064.2.11.209.174s-.18.146-.173.211a1.063,1.063,0,0,0,.21.174c.013.008.153-.2.174-.212.05-.015.156.179.21.176s.135-.221.174-.212c.06.015.161.134.21.175l.211.173c.044.036.157.166.211.174s.133-.2.174-.21.158.179.212.174.116-.207.172-.208.175.143.211.173c.052.042.149.156.212.175.036.01.132-.207.173-.211.061,0,.152.184.213.175.039-.007.146-.178.172-.212a1.112,1.112,0,0,0,.173-.213c.01-.028-.206-.138-.212-.171s.152-.188.172-.213A1.77,1.77,0,0,1,89.556,101.376Z"/><path class="a" d="M89.938,101.332c-.064.007-.147-.176-.212-.171s-.108.2-.171.214c.012-.01.188.169.212.171C89.819,101.546,89.885,101.338,89.938,101.332Z"/><path class="a" d="M90.368,99.924c.064-.007.111-.211.17-.213s.142.164.211.171c.052,0,.117-.208.169-.214-.063,0-.147-.167-.211-.172s-.142-.171-.212-.171c-.027,0-.149.188-.169.214l-.169.214C90.221,99.759,90.305,99.931,90.368,99.924Z"/><path class="a" d="M200.813,105.394c0,.027.154.17.175.193l.174.193a1.752,1.752,0,0,0,.173.192c.014.011.171-.172.2-.173s.151.169.171.2.134.193.17.2.172-.147.2-.168.166-.17.2-.167.146.171.168.2a1.4,1.4,0,0,0,.168.2c.052-.01.158-.132.2-.167l.2-.167.2-.167c.018-.059.2-.107.2-.165a1.187,1.187,0,0,0-.168-.2c-.062,0-.141.172-.2.167s-.108-.181-.169-.2-.108-.193-.17-.2-.139.168-.2.167-.113-.194-.172-.2-.149.15-.2.167c-.067.021-.145.125-.2.167-.031.023-.164.171-.2.168s-.127-.169-.173-.195a1.031,1.031,0,0,1-.174-.193c0-.038.209-.14.2-.173-.02-.059-.133-.146-.176-.193l-.176-.193-.2.174c-.016.06-.194.112-.2.173s.179.131.177.193S200.821,105.332,200.813,105.394Z"/><path class="a" d="M207.432,108.123c-.051-.011-.071-.2-.129-.218s-.159.153-.215.14-.074-.2-.132-.218-.156.153-.213.14-.077-.206-.135-.219-.153.153-.211.14-.1-.187-.138-.215l.1-.07a.871.871,0,0,0,.106-.074c.012-.063-.152-.157-.141-.216s.2-.086.213-.145a.8.8,0,0,0-.143-.216c-.01-.01-.193.149-.214.15-.05,0-.1-.2-.147-.212s-.179.169-.213.15c-.051-.029-.113-.163-.147-.212l-.151-.212c-.03-.044-.1-.19-.152-.212s-.168.149-.209.15-.1-.2-.155-.213-.157.172-.209.156c.055.01.1.182.156.209a.952.952,0,0,1,.151.212c0,.05-.2.1-.206.151s.158.15.15.212-.2.093-.2.151.157.152.147.212-.193.091-.2.152a1.176,1.176,0,0,0,.146.211c.006.008.184-.151.2-.152.048,0,.1.2.144.211s.149-.162.205-.151.083.2.142.21c.036.006.177-.169.207-.151.05.032.106.158.14.209.023.035.1.2.139.21a1.163,1.163,0,0,0,.207-.144c.027-.019.178-.148.208-.141s.115.188.131.218.1.213.13.218.179-.12.21-.141c.052-.034.153-.13.213-.14.034-.006.092.209.128.217.056.013.155-.141.214-.14.027-.057.2-.08.219-.139a.991.991,0,0,0-.128-.217C207.6,107.965,207.484,108.134,207.432,108.123Z"/><path class="a" d="M204.473,106.094c-.03-.017-.169.165-.208.16-.058-.008-.1-.2-.161-.206-.039,0-.174.135-.206.16a1.021,1.021,0,0,0-.2.159c-.015.023.162.173.161.205s-.179.141-.2.16a1.614,1.614,0,0,1-.194.156c-.014,0-.139-.2-.16-.206-.046-.016-.149.17-.2.166.057.006.1.19.162.2s.134-.151.195-.157h0c.026,0,.14.181.159.205a1.392,1.392,0,0,0,.157.2c.048-.006.162-.129.2-.16s.172-.105.2-.161c.017-.031-.162-.166-.157-.2a.966.966,0,0,1,.2-.159c.015-.009.134.2.157.2.06.007.144-.155.206-.16s.146-.167.208-.159c-.04-.011-.13-.169-.157-.2S204.533,106.125,204.473,106.094Z"/><path class="a" d="M145.927,108.888a1.368,1.368,0,0,0,.185.18c.061,0,.12-.174.181-.187a1.438,1.438,0,0,1-.186-.18C146.044,108.76,145.984,108.823,145.927,108.888Z"/><path class="a" d="M202.438,108.083c-.059-.007-.137.177-.191.168s-.1-.179-.16-.2-.142.173-.19.169c.062.006.106.182.161.2s.1.185.158.2a1.316,1.316,0,0,0,.19-.168l.191-.168C202.54,108.266,202.5,108.09,202.438,108.083Z"/></g></svg>