<svg version="1.2" baseProfile="tiny-ps" xmlns="http://www.w3.org/2000/svg" viewBox="0 0 413 315" width="413" height="315">
	<title>11-svg</title>
	<style>
		tspan { white-space:pre }
		.shp0 { fill: #eef4f6 } 
	</style>
	<g id="Layer">
		<path id="Layer" class="shp0" d="M151.87 55.92L151.74 55.94L152.12 55.87L151.87 55.92Z" />
		<path id="Layer" class="shp0" d="M151.08 56.09L150.52 56.2C150.72 56.16 150.91 56.12 151.08 56.09Z" />
		<path id="Layer" class="shp0" d="" />
		<path id="Layer" class="shp0" d="M138.99 62.85C139.98 62.63 139.97 62.63 138.99 62.85Z" />
		<path id="Layer" class="shp0" d="M148.9 56.6L148.66 56.65L148.66 56.65L148.9 56.6L148.9 56.6Z" />
		<path id="Layer" class="shp0" d="M32.16 84.21C32.36 84.04 32.54 83.86 32.7 83.66C32.86 83.46 33 83.24 33.12 83.01C33.23 82.78 33.33 82.54 33.39 82.29C33.46 82.04 33.5 81.79 33.52 81.53C33.94 80.62 34.08 80.09 33.87 80.1C33.77 80.1 33.59 80.23 33.32 80.52C33.18 80.66 33.02 80.84 32.85 81.05C32.67 81.27 32.48 81.54 32.27 81.85C31.12 83.49 30.57 84.63 30.6 85.09C30.63 85.56 31.13 85.3 32.16 84.21Z" />
		<path id="Layer" class="shp0" d="M42.4 141.46L42.39 141.48L42.4 141.48L42.4 141.46Z" />
		<path id="Layer" class="shp0" d="M135.73 -0.29C135.81 0.12 139.09 -1.41 139.02 -1.82L138.87 -2.66C137.13 -2.32 134.79 -0.53 135.73 -0.29Z" />
		<path id="Layer" class="shp0" d="M65.72 256.46L65.76 256.49L65.72 256.46Z" />
		<path id="Layer" class="shp0" d="" />
		<path id="Layer" class="shp0" d="" />
		<path id="Layer" class="shp0" d="M41.63 151.58C41.64 151.49 41.65 151.41 41.66 151.32C41.66 151.35 41.65 151.38 41.65 151.42C41.65 151.46 41.63 151.53 41.63 151.58Z" />
		<path id="Layer" class="shp0" d="M161.86 53.13L164.2 52.77L162.64 53.01L161.86 53.13Z" />
		<path id="Layer" class="shp0" d="M41.44 152.34L41.44 152.29L41.42 152.49C41.42 152.45 41.43 152.4 41.44 152.34Z" />
		<path id="Layer" fill-rule="evenodd" class="shp0" d="M397.87 256.49C397.41 257.72 396.92 258.95 396.41 260.16C395.9 261.38 395.37 262.58 394.81 263.78C394.25 264.97 393.67 266.15 393.07 267.32C392.46 268.49 391.84 269.65 391.19 270.8C390.51 271.99 389.8 273.17 389.07 274.34C388.33 275.5 387.57 276.64 386.78 277.77C385.99 278.89 385.17 279.99 384.33 281.08C383.48 282.16 382.61 283.23 381.72 284.27C380.78 285.35 379.82 286.41 378.82 287.44C377.83 288.48 376.81 289.48 375.76 290.46C374.71 291.43 373.64 292.38 372.54 293.3C371.44 294.22 370.32 295.1 369.17 295.96C368 296.82 366.81 297.66 365.6 298.45C364.39 299.25 363.16 300.02 361.91 300.75C360.66 301.48 359.39 302.18 358.1 302.84C356.81 303.51 355.5 304.14 354.18 304.73C352.86 305.31 351.52 305.87 350.18 306.4C348.83 306.92 347.48 307.42 346.11 307.88C344.74 308.34 343.36 308.78 341.98 309.17C340.59 309.57 339.19 309.94 337.79 310.28C334.98 310.94 332.14 311.51 329.25 311.98C326.38 312.43 323.45 312.82 320.49 313.1C319.75 313.19 319.01 313.23 318.26 313.3C317.89 313.33 317.52 313.36 317.14 313.39L316.11 313.46C314.75 313.54 313.36 313.63 311.95 313.71C309.13 313.89 306.21 314.09 303.2 314.2C297.16 314.49 290.73 314.68 283.81 314.79C280.56 314.84 277.03 314.8 273.94 314.68C270.85 314.56 268.16 314.44 266.54 314.44C263.35 313.89 262.26 314.41 261.14 314.95C260 316.04 258.91 316.04 254.71 314.88C254.55 314.8 254.38 314.72 254.21 314.65C254.05 314.58 253.87 314.52 253.7 314.47C253.52 314.42 253.34 314.38 253.16 314.35C252.98 314.32 252.8 314.3 252.62 314.29C252.6 314.55 249.1 314.65 243.12 314.55C237.13 314.44 228.64 314.16 218.66 313.68C218.48 313.67 218.3 313.64 218.12 313.6C217.95 313.57 217.77 313.52 217.6 313.47C217.43 313.41 217.26 313.35 217.09 313.28C216.93 313.2 216.77 313.12 216.61 313.03C217.77 311.99 214.62 311.85 211.37 312.78C209.22 313.22 208.17 313.17 208.23 312.63C207.73 312.33 203.56 311.98 195.24 311.48C186.93 310.99 174.48 310.28 157.55 309.6C150.85 309.36 144.27 309.12 138.13 308.9C131.83 308.66 125.85 308.34 120.59 307.96C110.07 307.21 102.45 306.1 100.76 305.87C98.94 305.58 97.14 305.27 95.33 304.93C93.52 304.59 91.72 304.23 89.93 303.84C88.13 303.46 86.34 303.05 84.56 302.62C82.77 302.19 80.99 301.73 79.22 301.25C78.01 300.94 76.82 300.6 75.62 300.25C74.43 299.89 73.25 299.51 72.07 299.12C70.89 298.72 69.72 298.3 68.55 297.86C67.39 297.42 66.23 296.97 65.09 296.49C62.89 295.52 60.89 294.65 59.23 293.81C58.39 293.4 57.65 293.05 57.01 292.71C56.36 292.38 55.82 292.09 55.4 291.87C54.84 291.59 54.24 291.26 53.59 290.92C52.94 290.57 52.28 290.16 51.58 289.73C50.88 289.3 50.17 288.86 49.44 288.4L47.26 286.92C44.36 284.92 41.57 282.67 39.55 281.03C38.92 280.52 38.31 280 37.71 279.46C37.11 278.92 36.52 278.37 35.94 277.8C35.36 277.24 34.79 276.66 34.24 276.08C33.69 275.49 33.14 274.89 32.62 274.28C32.03 273.65 31.49 272.96 30.98 272.3C30.46 271.64 29.96 271 29.5 270.39C28.61 269.15 27.9 268.03 27.38 267.17C27.18 266.91 26.95 266.64 26.73 266.35C26.52 266.05 26.3 265.73 26.06 265.41C25.61 264.75 25.12 264.02 24.59 263.27C24.06 262.52 23.59 261.67 23.06 260.82C22.55 259.95 21.98 259.08 21.5 258.15C19.41 254.48 17.58 250.4 16.02 246.93C15.6 245.96 15.2 245 14.81 244.03C14.43 243.06 14.05 242.08 13.69 241.1C13.32 240.12 12.97 239.14 12.63 238.15C12.29 237.16 11.97 236.17 11.66 235.17C11.13 233.38 10.65 231.74 10.27 230.32C9.9 228.9 9.61 227.71 9.38 226.81C8.22 222.02 7.68 215.89 7.09 211.12C7.01 210.52 6.92 209.88 6.87 209.21C6.81 208.54 6.76 207.85 6.71 207.14C6.66 206.42 6.61 205.69 6.56 204.95C6.54 204.21 6.51 203.45 6.49 202.7C6.46 201.95 6.43 201.2 6.41 200.46C6.39 199.73 6.38 198.99 6.37 198.28C6.33 196.87 6.32 195.52 6.28 194.34C6.24 193.15 6.18 191.81 6.17 190.4C6.15 188.99 6.12 187.51 6.1 186.03C6.07 184.55 6.05 183.07 6.02 181.66C5.98 180.26 5.92 178.93 5.86 177.75C5.95 175.38 5.98 173.01 5.99 171.09C6.01 169.16 6.02 167.68 6.07 167.09C6.17 165.9 6.31 164.72 5.78 164.69C5.83 164.1 5.81 160.53 5.96 156.64C5.98 155.81 6.01 154.99 6.05 154.16C6.09 153.34 6.15 152.51 6.21 151.69C6.28 150.86 6.35 150.04 6.44 149.22C6.53 148.4 6.63 147.58 6.74 146.76C6.95 145.57 7.49 145.65 8 145.72C8.67 146.41 9.06 146.47 9.33 145.75C9.37 145.62 9.41 145.48 9.44 145.34C9.48 145.2 9.51 145.07 9.54 144.93C9.57 144.79 9.59 144.65 9.61 144.51C9.64 144.36 9.65 144.22 9.67 144.08C9.75 143.31 9.86 142.32 10 141.11L10.02 138.58L8.96 140.93C7.4 143.22 7.38 143.23 8.74 137.07C9.98 132.16 10.31 130.93 10.83 131.05C11 132.4 11.32 132.76 11.52 132.51C11.72 132.26 11.89 131.98 12.04 131.7C12.19 131.41 12.31 131.11 12.39 130.8C12.48 130.49 12.54 130.17 12.57 129.85C12.59 129.52 12.59 129.2 12.55 128.88C12.59 128.68 12.62 128.49 12.65 128.29C12.68 128.09 12.7 127.89 12.71 127.69C12.72 127.49 12.73 127.29 12.73 127.08C12.73 126.88 12.72 126.68 12.71 126.48C12.7 126.07 12.69 125.69 12.67 125.42C12.65 125.15 12.64 124.98 12.64 124.98C12.14 124.84 11.99 124.46 12.17 123.51C12.2 123.35 12.24 123.19 12.28 123.03C12.31 122.87 12.35 122.72 12.4 122.56C12.44 122.4 12.48 122.24 12.53 122.08C12.58 121.93 12.63 121.77 12.68 121.61C12.8 121.21 12.95 120.77 13.11 120.27C13.3 119.77 13.49 119.22 13.71 118.62C14.16 117.41 14.61 116.2 15.01 115.33C15.41 114.45 15.8 113.9 16.03 113.99C16.03 114.68 17 112.99 18.05 110.82C18.3 110.34 18.55 109.85 18.78 109.35C19.02 108.86 19.25 108.36 19.46 107.86C19.68 107.35 19.88 106.84 20.08 106.33C20.27 105.82 20.46 105.3 20.63 104.78C20.7 104.3 20.79 103.81 20.89 103.33C20.99 102.85 21.11 102.37 21.25 101.9C21.39 101.42 21.55 100.96 21.73 100.5C21.9 100.04 22.1 99.58 22.31 99.14C22.49 98.68 22.7 98.24 22.93 97.81C23.16 97.37 23.42 96.95 23.69 96.54C23.96 96.14 24.26 95.74 24.57 95.37C24.89 94.99 25.22 94.63 25.57 94.29C26.68 93.43 28.41 91.48 28.66 90.12C29.35 89.03 29.78 89.32 30.66 89.87C31.54 90.43 32.23 89.36 33.34 88.59C34.71 86.49 35.04 85.18 34.61 84.87C34.76 84.57 34.95 84.29 35.16 84.03C35.37 83.77 35.61 83.53 35.87 83.32C36.13 83.11 36.41 82.92 36.7 82.77C37 82.61 37.31 82.49 37.63 82.4C37.95 82.3 38.26 82.18 38.56 82.03C38.86 81.88 39.14 81.71 39.4 81.5C39.66 81.3 39.9 81.07 40.12 80.82C40.34 80.57 40.54 80.3 40.7 80.02C40.31 79.69 39.92 79.38 39.21 80.28C39.29 80.18 39.47 79.93 39.89 79.36C40.06 78.97 40.25 78.59 40.45 78.22C40.65 77.84 40.87 77.48 41.09 77.12C41.32 76.76 41.57 76.42 41.82 76.08C42.08 75.74 42.35 75.41 42.63 75.1C42.91 74.83 43.18 74.56 43.44 74.27C43.69 73.98 43.93 73.68 44.15 73.36C44.38 73.05 44.59 72.73 44.78 72.39C44.97 72.06 45.15 71.72 45.3 71.37C45.93 70.02 46.22 68.97 45.6 69.25C45.23 68.89 46.08 67.96 47.45 65.72C47.68 65.33 47.91 64.96 48.16 64.58C48.4 64.21 48.66 63.85 48.92 63.49C49.19 63.13 49.46 62.78 49.75 62.44C50.03 62.09 50.32 61.76 50.62 61.43C50.91 61.11 51.2 60.79 51.5 60.49C51.8 60.18 52.1 59.88 52.41 59.58C52.72 59.29 53.03 59 53.36 58.71C53.68 58.43 54 58.15 54.34 57.88C54.55 57.69 54.78 57.51 55 57.33C55.23 57.15 55.47 56.98 55.71 56.82C55.95 56.66 56.19 56.51 56.44 56.36C56.69 56.22 56.95 56.08 57.21 55.95C57.87 55.66 58.15 55.77 57.84 56.39C57.22 57.63 58.49 57.21 59.11 55.96C60.99 54.3 61.02 54.33 61.33 54.74C61.56 54.73 61.79 54.7 62.02 54.65C62.24 54.6 62.47 54.53 62.68 54.44C62.89 54.35 63.1 54.24 63.3 54.12C63.49 53.99 63.67 53.85 63.85 53.69C63.96 53.6 64.07 53.5 64.17 53.4C64.28 53.3 64.38 53.2 64.49 53.09C64.59 52.99 64.69 52.88 64.78 52.77C64.88 52.66 64.97 52.55 65.06 52.43C65.17 52.31 65.27 52.18 65.37 52.05C65.47 51.92 65.57 51.79 65.66 51.65C65.75 51.52 65.84 51.38 65.93 51.24C66.02 51.1 66.1 50.96 66.18 50.82C66.28 50.56 66.4 50.31 66.53 50.07C66.67 49.83 66.83 49.6 67 49.39C67.17 49.17 67.36 48.97 67.56 48.78C67.77 48.59 67.98 48.42 68.21 48.27C68.42 48.09 68.64 47.94 68.87 47.8C69.1 47.66 69.34 47.54 69.59 47.45C69.84 47.35 70.09 47.27 70.36 47.21C70.62 47.16 70.89 47.12 71.15 47.11C72.44 46.84 73.16 45.65 73.92 44.52C74.41 42.94 74.41 42.89 78.05 41.79C82.73 40.11 82.71 40.13 80.89 41.88L80.1 42.99C81.14 42.35 82.16 41.69 83.21 41.08C85.54 40.33 85.53 40.33 86.34 39.25C86.11 38.77 85.87 38.29 84.82 38.91C83.77 39.52 83.71 39.4 84.29 38.84C84.54 38.6 84.8 38.36 85.07 38.13C85.34 37.9 85.6 37.67 85.88 37.44C86.15 37.22 86.43 37 86.71 36.78C86.99 36.57 87.27 36.36 87.55 36.15C87.85 35.86 88.18 35.6 88.53 35.37C88.88 35.15 89.25 34.95 89.64 34.8C90.03 34.64 90.43 34.53 90.84 34.45C91.25 34.38 91.66 34.34 92.08 34.35C92.39 34.45 92.71 34.5 93.03 34.5C93.36 34.5 93.68 34.45 93.99 34.35C94.3 34.25 94.59 34.1 94.85 33.91C95.11 33.71 95.34 33.48 95.53 33.22C95.96 32.68 98.43 31.56 101.07 30.49C101.61 30.27 102.16 30.07 102.71 29.87C103.26 29.68 103.82 29.49 104.38 29.32C104.93 29.15 105.5 28.99 106.06 28.84C106.63 28.69 107.19 28.55 107.77 28.43C108.1 28.39 108.43 28.35 108.76 28.3C109.09 28.25 109.42 28.19 109.75 28.12C110.07 28.05 110.4 27.97 110.72 27.88C111.04 27.78 111.36 27.68 111.68 27.57C113.53 27.08 115.76 26.32 118 25.65C120.26 24.94 122.52 24.23 124.35 23.65C124.66 23.56 124.97 23.46 125.27 23.37C125.58 23.27 125.88 23.16 126.18 23.05C126.48 22.95 126.78 22.83 127.08 22.71C127.38 22.59 127.67 22.47 127.97 22.34C129.92 20.7 129.92 20.7 127.87 21.81C126.79 22.1 124.6 22.71 124.49 22.18C124.85 22.06 125.21 21.93 125.57 21.8C125.93 21.66 126.28 21.52 126.64 21.38C126.99 21.24 127.35 21.09 127.7 20.93C128.05 20.78 128.4 20.62 128.74 20.46C129.01 20.37 129.28 20.3 129.56 20.25C129.83 20.19 130.11 20.15 130.39 20.12C130.67 20.1 130.95 20.09 131.24 20.09C131.52 20.1 131.8 20.12 132.08 20.15C131.2 21.49 134.42 20.66 136.38 19.07C136.29 18.54 137.37 18.28 138.44 18.02C138.53 18.55 140.68 18.04 141.76 17.8C143.3 17.44 144.4 18.03 144.19 18.97C144.43 18.88 144.65 18.79 144.89 18.7C146.65 18.03 148.43 17.39 150.22 16.78C152 16.17 153.8 15.59 155.61 15.04C157.41 14.49 159.23 13.97 161.05 13.48C162.87 12.98 164.7 12.52 166.54 12.09C169.44 11.41 172.36 10.82 175.3 10.32C178.24 9.83 181.19 9.44 184.16 9.14C187.12 8.84 190.1 8.65 193.07 8.55C196.05 8.45 199.03 8.45 202.01 8.54C202.33 8.55 202.65 8.56 202.96 8.56C203.26 8.58 203.58 8.6 203.88 8.62L205.67 8.75C206.85 8.84 207.98 8.93 209.06 9C211.22 9.21 213.16 9.51 214.87 9.71C216.59 9.91 218.06 10.2 219.25 10.43C220.45 10.66 221.38 10.84 222.02 10.95C223.78 11.25 225.26 11.68 226.6 11.99C227.93 12.33 229.09 12.62 230.13 12.89C232.18 13.49 233.73 14 235.16 14.48C235.88 14.72 236.56 14.96 237.26 15.2C237.88 15.45 238.5 15.71 239.18 15.98C240.52 16.55 242.09 17.18 244.15 18.1C248.17 20.15 256.51 23.51 262.63 26.35C263.91 26.93 265.06 27.46 266.08 27.97C267.1 28.48 268.01 28.95 268.81 29.38C269.14 29.55 269.46 29.72 269.78 29.9C270.09 30.07 270.41 30.25 270.72 30.44C271.04 30.62 271.35 30.81 271.66 31.01C271.96 31.2 272.27 31.4 272.57 31.6C272.9 31.81 273.22 32.03 273.53 32.27C273.84 32.5 274.14 32.75 274.42 33.02C274.71 33.28 274.98 33.56 275.23 33.85C275.49 34.15 275.74 34.45 275.96 34.76C276.69 35.79 277.39 36.81 281.57 38.46C284.36 39.75 287.02 41 289.4 42.32C290.6 42.97 291.76 43.58 292.83 44.22C293.89 44.86 294.9 45.48 295.84 46.08C296.25 46.34 296.66 46.6 297.06 46.87C297.46 47.13 297.86 47.41 298.25 47.69C298.64 47.96 299.03 48.25 299.42 48.54C299.8 48.83 300.18 49.13 300.56 49.43C300.81 49.62 301.06 49.81 301.29 50.01C301.53 50.21 301.77 50.42 301.99 50.64C302.22 50.86 302.44 51.08 302.65 51.31C302.86 51.54 303.07 51.78 303.26 52.02C304.92 53.53 306.91 55.05 310.13 57.44C311.74 58.63 313.67 60.04 316.03 61.77C317.22 62.62 318.47 63.6 319.87 64.64L322.06 66.29C322.83 66.89 323.63 67.52 324.47 68.17C325.1 68.64 325.73 69.09 326.34 69.54C326.94 70.01 327.55 70.48 328.14 70.93C329.33 71.85 330.5 72.74 331.62 73.65C333.85 75.48 336.02 77.22 337.98 78.97C338.98 79.85 339.96 80.69 340.88 81.53C341.8 82.39 342.7 83.22 343.57 84.03C345.33 85.63 346.89 87.24 348.37 88.71C349.87 90.17 351.17 91.62 352.39 92.92C352.99 93.57 353.57 94.19 354.1 94.8C354.63 95.42 355.13 96 355.6 96.55C356.54 97.66 357.35 98.65 358.03 99.51C358.69 100.38 359.22 101.12 359.61 101.73C362.08 105.63 363.41 107.48 365.93 109.86C367.18 111.2 368.4 112.58 369.57 113.99C370.75 115.4 371.89 116.84 372.99 118.32C374.09 119.79 375.14 121.29 376.16 122.83C377.17 124.36 378.14 125.92 379.07 127.5C381.5 131.55 383.63 135.08 385.15 137.62C386.63 140.2 387.4 141.48 387.56 141.73C387.73 141.98 387.89 142.23 388.04 142.48C388.2 142.74 388.35 143 388.5 143.26C388.64 143.52 388.79 143.78 388.92 144.05C389.06 144.31 389.19 144.58 389.32 144.85C390.23 146.65 391.5 149.07 392.82 152.08C394.19 155.03 395.61 158.57 397.07 162.36C397.75 164.29 398.46 166.28 399.17 168.3C399.83 170.36 400.46 172.47 401.1 174.57C401.71 176.69 402.23 178.87 402.77 180.98C403.06 182.03 403.28 183.12 403.49 184.18C403.71 185.25 403.93 186.3 404.14 187.34C404.25 187.85 404.36 188.36 404.45 188.88C404.55 189.39 404.63 189.91 404.71 190.42C404.87 191.44 405.03 192.44 405.17 193.41C405.32 194.39 405.46 195.34 405.6 196.25C405.7 197.19 405.79 198.1 405.89 198.97C406.06 200.72 406.23 202.32 406.33 203.76C406.39 205.22 406.45 206.51 406.49 207.57C406.52 207.87 406.53 208.18 406.55 208.48C406.56 208.78 406.56 209.08 406.56 209.38C406.56 209.69 406.56 209.99 406.55 210.29C406.54 210.59 406.52 210.89 406.5 211.19C406.5 211.19 406.37 212.58 406.24 214.64C406.18 215.67 406.11 216.88 406.03 218.17C405.92 219.47 405.81 220.85 405.73 222.23C405.69 222.92 405.63 223.78 405.55 224.79C405.49 225.79 405.3 226.96 405.14 228.22C404.96 229.49 404.77 230.87 404.56 232.34C404.32 233.8 403.98 235.35 403.66 236.94C403.08 240.14 402.11 243.52 401.19 246.86C400.97 247.7 400.68 248.52 400.4 249.34C400.13 250.15 399.86 250.97 399.58 251.77C399.3 252.57 399.02 253.36 398.75 254.14C398.61 254.54 398.5 254.91 398.34 255.3C398.18 255.7 398.03 256.1 397.87 256.49ZM18.95 112.38C18.95 112.38 18.47 113.55 17.51 115.9C17.11 116.96 16.8 117.78 16.63 118.26C17.95 116.05 19.44 112.58 18.95 112.38ZM16.54 118.49C16.51 118.56 16.49 118.62 16.48 118.65C16.5 118.61 16.52 118.56 16.54 118.49L16.54 118.49ZM52.07 63.22C52.07 63.22 52.07 63.22 52.07 63.22C52.07 63.22 52.07 63.22 52.07 63.22L52.07 63.22ZM52.07 63.22C50.47 63.35 47.79 66.07 48.18 66.46C48.36 66.65 48.76 66.6 49.11 66.5C49.17 66.49 49.23 66.47 49.28 66.46C49.34 66.44 49.39 66.42 49.45 66.41C49.5 66.39 49.56 66.37 49.61 66.35C49.67 66.33 49.72 66.31 49.78 66.29C50.66 65.39 50.66 65.39 50.3 65.01C50.3 65.01 51.19 64.12 52.07 63.22ZM52.07 63.22L52.07 63.22C52.42 63.61 52.95 62.33 52.07 63.22C52.07 63.22 52.07 63.22 52.07 63.22ZM7.5 151.68C8.02 151.74 8.21 150.56 8.41 149.38C8.62 148.21 8.62 148.21 8.1 148.14C7.99 148.32 7.88 148.5 7.79 148.69C7.69 148.87 7.61 149.06 7.53 149.25C7.45 149.44 7.38 149.64 7.32 149.84C7.26 150.04 7.21 150.24 7.17 150.44C6.98 151.63 7.5 151.68 7.5 151.68L7.5 151.68ZM92.5 35.33C92.43 35.33 92.37 35.34 92.3 35.34C92.24 35.35 92.17 35.36 92.11 35.36C92.04 35.37 91.98 35.38 91.91 35.39C91.85 35.4 91.78 35.41 91.72 35.42C91.58 35.45 91.45 35.48 91.31 35.51C91.18 35.55 91.04 35.59 90.91 35.63C90.78 35.68 90.65 35.73 90.52 35.78C90.39 35.84 90.26 35.9 90.14 35.96L89.29 37.02C89.52 37.51 90.58 36.93 91.64 36.36C92.71 35.81 92.71 35.82 92.5 35.33ZM49.64 148.28C49.69 148.1 49.74 147.92 49.78 147.73C49.83 147.52 49.87 147.32 49.91 147.14C49.87 147.29 49.83 147.45 49.8 147.61C49.74 147.82 49.7 148.04 49.64 148.28ZM151.16 56.11C150.95 56.15 150.71 56.2 150.45 56.27L151.16 56.11ZM71.19 246.96C71.12 246.75 71.03 246.54 70.93 246.34C70.82 246.14 70.7 245.95 70.57 245.77C70.44 245.59 70.29 245.42 70.13 245.26C69.97 245.1 69.8 244.96 69.62 244.83C69.03 244.35 68.46 244.26 68.39 244.91C68.39 244.91 68.66 245.13 69 245.4L71.19 246.96ZM217.1 33.1C217.1 33.1 217.1 33.1 217.09 33.1C217.09 33.09 217.09 33.09 217.09 33.09C217.09 33.09 217.09 33.09 217.08 33.09C217.08 33.09 217.08 33.09 217.08 33.08C217.06 33.08 217.05 33.07 217.03 33.07C217.02 33.06 217.01 33.05 216.99 33.05C216.98 33.04 216.96 33.04 216.95 33.03C216.93 33.03 216.92 33.02 216.9 33.02C216.97 33.04 217.03 33.07 217.1 33.1Z" />
		<path id="Layer" class="shp0" d="" />
		<path id="Layer" class="shp0" d="M65.79 256.51L65.87 256.56L65.78 256.5L65.79 256.51Z" />
		<path id="Layer" class="shp0" d="M54.39 114.25C54.27 114.47 54.18 114.65 54.1 114.78L54.39 114.25Z" />
		<path id="Layer" class="shp0" d="M53.76 115.4L54.02 114.93C53.82 115.3 53.77 115.38 53.76 115.4Z" />
		<path id="Layer" class="shp0" d="M53.72 115.47L53.72 115.47Z" />
		<path id="Layer" class="shp0" d="M55.03 113.09C55 113.14 54.96 113.21 54.93 113.28L54.98 113.17L55.03 113.09Z" />
		<path id="Layer" class="shp0" d="M55.08 113.01C55.31 112.59 55.27 112.65 55.08 113.01Z" />
		<path id="Layer" class="shp0" d="" />
		<path id="Layer" class="shp0" d="M53.72 115.47L53.72 115.47Z" />
	</g>
</svg>