<svg xmlns="http://www.w3.org/2000/svg" width="79.622" height="77.731" viewBox="0 0 79.622 77.731"><defs><style>.a{fill:#faf9f5;}</style></defs><path class="a" d="M60.142,20.251a11.835,11.835,0,0,0-.32-2.167,31.306,31.306,0,0,0-1.151-3.767,21.19,21.19,0,0,0-3.886-6.7,19.925,19.925,0,0,0-6.9-4.725C44.634,1.422,41.014-.177,37.357.016A32.986,32.986,0,0,0,28.4,2.081c-.447.155-.885.334-1.321.519l-.772.265c-3.161,1.086-6.4,1.95-9.515,3.16A23.311,23.311,0,0,0,8.2,11.463a29.617,29.617,0,0,0-5.411,8.424A33.309,33.309,0,0,0,.123,29.806a26.2,26.2,0,0,0,.56,8.4c1.126,5.031,3.474,10.255,7.8,13.311a9.079,9.079,0,0,0,6.983,1.49c3.1-.57,5.785-2.608,8.38-4.282,3.147-2.03,6.22-4.176,9.508-5.978a35.762,35.762,0,0,1,5.009-2.282c1.606-.581,3.264-.993,4.906-1.456a34.147,34.147,0,0,0,8.1-3.121,19.923,19.923,0,0,0,6.59-6.411,15.228,15.228,0,0,0,2.184-7.27A14.142,14.142,0,0,0,60.142,20.251Zm-2.669,2.077c-.022.3-.053.593-.088.889v.007c-.009.059-.017.117-.027.176q-.041.262-.09.523a15.147,15.147,0,0,1-.417,1.683c-.084.27-.176.536-.274.8-.045.122-.094.243-.14.364l0,.013c-.034.077-.068.153-.1.23a11.232,11.232,0,0,1-.786,1.422,21.373,21.373,0,0,1-2.826,3.447,18.984,18.984,0,0,1-6.436,4.044c-2.913,1.176-5.972,1.953-8.854,3.2a64.5,64.5,0,0,0-9.325,5.3c-2.981,1.937-5.891,4-9.032,5.677a9.73,9.73,0,0,1-3.608,1.109,7.943,7.943,0,0,1-1.648-.033c.137.013-.5-.087-.3-.048-.123-.025-.246-.047-.368-.075q-.391-.088-.772-.214t-.753-.271l-.1-.039a.619.619,0,0,0-.065-.032c-.145-.068-.289-.137-.431-.211a12.828,12.828,0,0,1-1.393-.83A13.819,13.819,0,0,1,7.24,47.23q-.134-.157-.264-.317c-.023-.028-.156-.2-.169-.211-.19-.247-.372-.5-.549-.757-.36-.521-.7-1.059-1.009-1.609A32.177,32.177,0,0,1,3.53,40.943,28.649,28.649,0,0,1,1.59,34.1a23.764,23.764,0,0,1,.55-9.29A28.71,28.71,0,0,1,6.2,15.654a19,19,0,0,1,3.129-3.625,18.979,18.979,0,0,1,4.054-2.61A64.256,64.256,0,0,1,22.45,6.075c1.667-.528,3.315-1.107,4.965-1.679.5-.09,1-.175,1.475-.282,1.478-.332,2.959-.647,4.456-.882a29.651,29.651,0,0,1,3.892-.463,14.034,14.034,0,0,1,4.325.548c1.823.495,3.606,1.169,5.372,1.838a39.341,39.341,0,0,1,4.215,1.388,11.315,11.315,0,0,1,4.685,5,15.609,15.609,0,0,1,1.711,7.1C57.554,19.869,57.564,21.1,57.473,22.328Z" transform="translate(29.733) rotate(34)"/></svg>