<svg xmlns="http://www.w3.org/2000/svg" width="224.076" height="112.846" viewBox="0 0 224.076 112.846"><defs><style>.a{fill:#d18c84;}</style></defs><g transform="matrix(0.995, 0.105, -0.105, 0.995, -1085.472, -3204.9)"><path class="a" d="M2039.135,3149.976l3.679-2.483a32.438,32.438,0,0,1-4.5,1.511l.026.061C2039.231,3149.191,2039.289,3149.548,2039.135,3149.976Z" transform="translate(-448.868 -57.605)"/><path class="a" d="M1634.482,3075.805c-.958.005-2.4,0-3.593.017l-2.155.052c-.767-.387-.345-.835.1-1.265-12.454.026-24.907.666-37.295,1.711l-2.9.263c-.968.083-1.929.2-2.893.295l-5.768.6c-1.917.207-3.825.439-5.733.653s-3.811.425-5.7.669l-5.67.69-5.633.722c-3.75.459-7.463.981-11.165,1.449,15.086-2.134,30.227-4.077,45.467-5.337,12.4-1.145,25.007-1.946,37.681-2.114.41-.5.293-.933-2.5-1.161a35.493,35.493,0,0,0-4.487-.149c-1.935.054-4.231.168-6.645.3l-1.83.1-1.848.14-3.674.272-3.494.24c-1.113.086-2.166.159-3.132.212-10.628.43-21.684,1.505-32.664,2.891s-21.9,3.064-32.337,4.652q-11.37,1.781-22.586,4.137c-3.743.763-7.46,1.6-11.183,2.416l-11.106,2.518c-10.162,2.39-20.9,4.64-31.125,7.059-5.113,1.208-10.1,2.458-14.812,3.765-1.181.321-2.34.661-3.484.991l-1.646.48c-.461.138-.981.276-1.493.414-2.1.553-4.365,1.12-6.58,1.833a27.092,27.092,0,0,0-5.02,2.16,11.266,11.266,0,0,0-2.937,2.319,4.951,4.951,0,0,0-.617.941l-.04.092a.612.612,0,0,0-.011.07.917.917,0,0,0-.006.128.577.577,0,0,0,.041.212c.1.242.386.327.835.262a8.1,8.1,0,0,0,.952-.29l.28-.1.3-.091c.208-.064.427-.134.654-.21.923-.27,2.014-.579,3.281-.823s2.692-.5,4.279-.73,3.332-.47,5.222-.77l.253.793c-1.872.375-3.356.7-4.532,1.027a18.206,18.206,0,0,0-2.657.914,5.549,5.549,0,0,0-.764.4,3.078,3.078,0,0,0-.469.344c-.217.219-.281.4-.255.549.056.3.467.516.784.753s.55.5.339.87l.255-.1.275-.1.549-.194c.39-.12.767-.245,1.173-.358s.807-.228,1.236-.331l.634-.158.652-.151c1.746-.4,3.59-.745,5.6-1.174l2.893-.658c.917-.2,1.833-.411,2.756-.6,1.845-.38,3.7-.737,5.563-1.053.9-.236,2.266-.582,3.63-.923s2.728-.68,3.638-.9q8.96-2.2,17.873-4.189c-.229.09-.458.179-.679.272l-.167.049c-1.939.551-3.846,1.131-5.758,1.7s-3.805,1.148-5.677,1.731c-3.743,1.166-7.384,2.362-10.814,3.6-1.715.619-3.377,1.246-4.972,1.886-.8.318-1.578.642-2.341.965l-.635.272c-.236.1-.441.2-.654.3s-.4.192-.6.288l-.547.275c-1.224.647-1.942,1.074-2.435,1.379a5.064,5.064,0,0,0-.964.741,2.2,2.2,0,0,0-.264.323l-.027.042-.05.04a1.124,1.124,0,0,0-.087.082.673.673,0,0,0-.119.167c-.11.226-.023.463.242.7a1.608,1.608,0,0,0,.372.348,2.609,2.609,0,0,0,.642.287,5.765,5.765,0,0,0,2.155.157,19.536,19.536,0,0,0,3.113-.6c.581-.147,1.189-.309,1.826-.46s1.3-.318,1.992-.5l.022.045c-2.987.848-5.892,1.707-8.672,2.575q-2.784.868-5.388,1.748l-2.458.826c-.838.281-1.7.573-2.561.9a24.536,24.536,0,0,0-3.873,1.815,9.869,9.869,0,0,0-2.2,1.7,3.165,3.165,0,0,0-.466.66.642.642,0,0,0-.046.44c.067.24.31.381.707.426a9.315,9.315,0,0,0,1.8-.171c.755-.114,1.653-.275,2.681-.44l3.461-.537c1.276-.2,2.675-.414,4.181-.725l.32.775c-1.495.387-2.676.7-3.608,1a14.369,14.369,0,0,0-2.1.819c-.977.5-1.2.882-1.136,1.178s.435.527.732.778.52.516.354.861a37.166,37.166,0,0,1,3.874-1.223l4.464-1.162c2.934-.753,5.9-1.424,8.9-1.982,1.028-.305,2.79-.819,4.239-1.237-1.244,1.073-1.615,2.038.241,2.315l-.494.155-.814.257-.8.271-3.164,1.083c-2.082.72-4.106,1.436-6.057,2.15l-1.449.535-1.408.561q-1.392.561-2.722,1.119a29.119,29.119,0,0,0-6.077,3.191c-.974.781-.942,1.29-.125,1.5a13.945,13.945,0,0,0,4.708-.18c1.125-.17,2.406-.411,3.819-.722q1.06-.233,2.217-.519c.772-.187,1.566-.409,2.4-.612l.363.762c-.821.239-1.545.5-2.205.719s-1.245.438-1.767.635c-1.042.393-1.824.727-2.4,1.014-1.153.576-1.486.966-1.45,1.274.074.614,1.621.9,1.064,1.654l.39-.137a.887.887,0,0,0,.6.292,6.641,6.641,0,0,0,1.8-.032c.385-.047.811-.114,1.273-.2s.956-.2,1.5-.308c1.088-.218,2.305-.526,3.656-.878q1.022-.249,2.13-.549l1.128-.314c.383-.108.781-.205,1.18-.315l.38.756a32.173,32.173,0,0,0-5.994,2.459c-1.055.616-1.332,1.013-1.263,1.314.143.6,1.645.824,1.2,1.586,1.441-.6,2.861-1.228,4.357-1.75.742-.269,1.479-.543,2.23-.8l2.278-.72,1.143-.349,1.162-.317q1.163-.314,2.331-.612c.786-.187,1.578-.362,2.369-.535s1.581-.342,2.388-.482l3.1-.873,3.125-.83q2.731-.706,5.475-1.36c-6.334,2.273-12.612,4.62-18.945,6.829a56.883,56.883,0,0,0-8.558,4.043c6.358-1.823,12.8-4,19.342-6.3l9.9-3.491c1.676-.573,3.338-1.169,5.032-1.732l2.533-.857,2.555-.834,1.278-.417,1.29-.4,1.021-.318,1.932-.417-.2.054c-4.11,1.2-8.052,2.49-11.875,3.818s-7.513,2.7-11.149,4.049-7.2,2.672-10.758,3.936-7.1,2.445-10.682,3.52c-.775.229-1.563.44-2.348.659-.9.555-1.69,1.079-2.407,1.525-1.355.981-2.295,1.94-2.047,2.519.238.553,1.594.77,4.753.279a30.064,30.064,0,0,0-5.908,2.821c-1,.733-1.038,1.235-.234,1.5a13.478,13.478,0,0,0,4.672.046c1.128-.13,2.418-.326,3.848-.589s2.989-.617,4.669-1.028l.352.765c-1.65.486-2.978.906-4.042,1.275s-1.872.668-2.467.938c-1.191.538-1.55.921-1.535,1.228.033.622,1.582.955.968,1.7,6.611-2.064,13.209-4.094,19.945-5.76l6.441-2.234c9.423-3.273,18.632-6.427,27.866-9.085,1.156-.324,2.306-.666,3.462-.976l3.464-.926,7.04-1.763c2.348-.572,4.7-1.11,7.05-1.665,1.172-.283,2.352-.535,3.53-.793l3.533-.773a463.445,463.445,0,0,1,57.446-8.72c-1.576.118-3.141.274-4.7.41s-3.119.269-4.668.434l-4.632.5-2.307.25-2.3.285-4.579.578-1.142.145-1.139.162-2.274.327-4.542.658-4.522.733c-12.054,1.98-24.016,4.427-36.191,7.505.14-.173.609-.463-.309-.351a289.838,289.838,0,0,1,36.783-7.75c1.538-.231,3.073-.474,4.613-.693l4.629-.633c3.084-.447,6.192-.795,9.3-1.205l9.389-1.141q2.364-.26,4.741-.542c1.585-.187,3.174-.395,4.775-.564.026.2.078.605.1.811q13.53-1.147,27.39-1.333c.959-.035,1.883-.1,2.773-.169s1.747-.142,2.57-.237c1.645-.191,3.156-.439,4.535-.709l-5.169-.145c-.867-.018-1.736-.049-2.607-.052l-2.62-.005c-1.752,0-3.513,0-5.28.019l-5.321.134c-.89.028-1.783.044-2.675.083l-2.681.129c-1.79.092-3.587.171-5.385.283-3.593.26-7.209.482-10.819.841-7.232.626-14.464,1.522-21.654,2.5l-5.378.777-1.342.195-1.337.214-2.671.426c-3.564.543-7.091,1.178-10.606,1.777l4.5-.84,2.3-.433,2.33-.4,4.716-.816c1.581-.272,3.178-.5,4.771-.752l2.391-.364c.8-.12,1.592-.243,2.39-.344l4.758-.613,2.354-.288,2.337-.238q2.323-.231,4.581-.427c8.588-.767,16.743-1.431,24.7-1.88,7.96-.4,15.718-.6,23.466-.4.837.019,1.682.075,2.526.112,1.1-.238,2.081-.475,2.959-.686,3.434-1.036,5.226-2.478-1.747-3.489l-3.266.007-1.959.04c-.7-.392-.311-.837.094-1.265-11.313-.045-22.64.38-33.925,1.176-.972.081-1.944.156-2.914.233l.456-.058c.82-.058,1.639-.115,2.458-.175,11.3-.9,22.765-1.478,34.277-1.576.375-.5.269-.931-2.262-1.176a30.381,30.381,0,0,0-4.074-.181c-.913.012-1.915.044-2.973.087l1.116-.122.862-.1c.3-.034.578-.073.858-.112,2.225-.315,4.085-.671,5.765-.921,2.966-.476,4.394-.588,5.264-.811a2.57,2.57,0,0,0,.546-.187l.057-.029.072-.022a1.36,1.36,0,0,0,.13-.049.806.806,0,0,0,.2-.119c.208-.179.2-.431-.011-.746a2.537,2.537,0,0,0-1.023-.96,8.256,8.256,0,0,0-2.426-.872,20.614,20.614,0,0,0-3.748-.4c-.263-.008-.538-.009-.812-.01q1.494-.509,2.682-.964a11.767,11.767,0,0,0,1.749-.931.8.8,0,0,0,.476-.358c0-.005,0-.011,0-.017.634-.586.6-1.12-.568-1.488.021-.136.123-.263.362-.375l-.395-.008-.382.005-.764.012c-.215.011-.435.019-.653.028-.582-.062-1.261-.11-2.056-.137l-3.114.341-1.871.19c-.712-.336-.394-.809-.061-1.265-5.452.442-10.923.805-16.407,1.164v-.177c5.568-.433,11.138-.881,16.694-1.413.3-.522.137-.945-2.274-1a75.691,75.691,0,0,0-9.567.608c-1.585.155-3.233.319-4.852.474v-1.771c.706-.06,1.414-.115,2.121-.174l3.462-.279c1.916-.194,3.683-.469,5.31-.792s3.117-.652,4.468-1.018c-5.049.188-10.179.482-15.362.871v-.389c5.143-.477,10.236-.862,15.344-1.114l2.535-.09c1.068-.328,2.025-.646,2.877-.929,3.312-1.316,4.907-2.9-2.128-3.328h-.008c-.018-.017-.035-.035-.054-.053a9.222,9.222,0,0,0-3.687-1.421c-.331-.072-.688-.141-1.057-.208-.1-.306-.7-.531-2.471-.586a18.994,18.994,0,0,0-2.447.021c-.47-.028-.948-.052-1.444-.067-.015-.2-.045-.615-.06-.82,1.5-.04,2.725-.054,3.713-.108s1.745-.112,2.321-.194c1.151-.163,1.577-.418,1.671-.714.193-.593-.964-1.351-.2-1.873l-2.317.015c-.774,0-1.541.027-2.312.033-1.544.009-3.076.062-4.616.077-3.068.072-6.144.108-9.215.13l-.581.06c1.365-1.14.99-2.139-3.852-2.173l-4.523.725c-.683-.3-.437-.787-.172-1.257l-.647-1.285c-.062-.008-.126-.014-.195-.02l.166-.037-.585-1.162c7.048-.419,13.929-.781,19.827-1.7a31.069,31.069,0,0,0,3.249-.691,9.655,9.655,0,0,0,1.952-.747c.892-.494.967-.98.417-1.4a8.86,8.86,0,0,0-3.49-1.044,53.134,53.134,0,0,0-6.557-.521l-.083-.818c4.79-.167,6.2-.662,6.453-1.2q4.582-.215,9.195-.33,1.581-.071,3.047-.2c.978-.082,1.917-.157,2.821-.261,1.806-.2,3.464-.459,4.978-.739-3.761-.079-7.573-.18-11.423-.108l-2.9.032-1.453.019c-.485.008-.969.03-1.455.045l-3.32.121a.563.563,0,0,1,0-.33l1.334-.07,3.236-.164,3.224-.093,3.212-.082c1.069-.025,2.137-.054,3.2-.044q3.2,0,6.391.041c.919.009,1.847.063,2.774.1,1.2-.239,2.284-.477,3.249-.688C1640.176,3078.255,1642.156,3076.811,1634.482,3075.805Zm-149.918,61.276-.035-.071.549-.124C1484.907,3136.953,1484.735,3137.016,1484.564,3137.082Z" transform="translate(0)"/></g></svg>