<svg xmlns="http://www.w3.org/2000/svg" width="270.29" height="200.098" viewBox="0 0 270.29 200.098"><defs><style>.a{fill:#d5c067;}</style></defs><g transform="translate(258.35 -14.463) rotate(81)"><path class="a" d="M.369.92C.553.841.585.385.585.385.369-.413-.061.213.016.626-.078.667.277.96.369.92Z" transform="translate(42.397 2.77)"/><path class="a" d="M.083.039,0,.065.17.011Z" transform="translate(44.83 1.991)"/><path class="a" d="M0,0H0Z" transform="translate(44.826 2.056)"/><path class="a" d="M1,.754A2.691,2.691,0,0,0,1.81.467,2.45,2.45,0,0,0,2.16.239c0-.2-.582-.284-1.1-.216S.03.273.012.484C-.09.5.49.823,1,.754Z" transform="translate(48.774 0.22)"/><path class="a" d="M0,0Z" transform="translate(48.794 30.411)"/><path class="a" d="M0,0H0C.007.027.006.023,0,0Z" transform="translate(73.255 30.378)"/><path class="a" d="M1.618.039c-.4-.1-.426.017-.44.075A1.444,1.444,0,0,1,.34.089C-.483.006.3.262,1.516.445c.412.042.823.083.852-.034S2.412.237,2.015.138Z" transform="translate(39.502 31.435)"/><path class="a" d="M.6,25.018a2.192,2.192,0,0,0,.162,1.009c.4.1.746.383.715.5a4.668,4.668,0,0,0,1.086.712c-.029.116.339.332.325.39l-.058.232c.383.157.751.372.722.487s.311.446.68.656a10.7,10.7,0,0,0,1.078.752c-.028.114-.028.114-.823-.084l-1.177-.354,1.149.468c1.163.411,1.148.469,1.574.453.411.042.823.084.426-.016s-.4-.1-.383-.156a10.754,10.754,0,0,1,1.986.494c.4.1,1.177.354,1.574.453.794.2.794.2.852-.034.029-.116.058-.232-.34-.33l.014-.058a1.827,1.827,0,0,0,1.717-.12c.481-.237.48-.237.864-.081s.355.266.327.377a1.49,1.49,0,0,0,.753.364c.4.1.767.307.737.426-.014.058.339.332.31.449-.015.059.368.216.368.216.412.041.146-.587-.237-.741s-.273-.6.535-.454c.014-.055.028-.11-.356-.265-.37-.208-.245-.711.151-.605s.78.252.766.308c-.027.11-.027.11.37.21,0,0,.383.155.37.21-.041.165.356.264,1.177.354.807.145.821.091.054-.219-.779-.266-.594-.974.582-.616l.039-.152a.659.659,0,0,1-.2-.648,7.31,7.31,0,0,1,.262-1.131,1.428,1.428,0,0,0,.434-1.065,1.989,1.989,0,0,0-.173-1.08c-.328-.28-.271-.428.125-.316l.095-.246c-.34-.257-.312-.332-.272-.439.408.095.448.007.1-.217l.056-.124s.054-.122-.262-.423c.051-.142-.195-.531-.093-.731.065-.126.023-.273-.111-.464A6.616,6.616,0,0,0,18,22.7c-.6-.573-.859-.965-.751-1.125l.2-.27.106-.15c.343.229.065-.108.124-.169.074-.077-.22-.362-.532-.626-.606-.55-.6-.557-.164-.431.467.048.741-.162.772-.764.05-.526.083-.562-.131-.91l.05-.038.05-.039c-.23-.338-.2-.359-.151-.4s.117-.066.334.276c0,0,.243.334.14-.074.081-.043-.009-.464.052-.5s-.074-.432-.074-.432c-.349-.743-.3-.772.153-.09.069-.026.278.33.309.318,0,0-.075-.409.062-.465.1-.041.045-.464-.067-.862-.075-.19-.075-.3-.017-.383a.614.614,0,0,1,.355-.188l.586-.185a.69.69,0,0,1,.287-.666,2.334,2.334,0,0,1,.571-.325,4,4,0,0,1,.948-.228c.576-.046,1.006-.075,1.006-.47.047-.406.317.015.332.425.011.205.079.208.257.11.089-.05.2-.1.346-.17a2.546,2.546,0,0,1,.561-.2c.081.022.2.052.346-.332a.4.4,0,0,1,.452-.194.356.356,0,0,1,.215.411l.123.046c.04.014.244-.346.289-.33s.119.062.431-.239c.41-.251.505-.2-.014.452l.167.083c.12.061.615-.09.835.045.244.177.435.343.7.024l.042.033a1.264,1.264,0,0,0,.386-.016,2.344,2.344,0,0,0,.657-.15,1.245,1.245,0,0,1,.741-.14,3.521,3.521,0,0,1,1.166.386c.077.1.477-.052.477-.052l.12.156c-.279.3.135.855.8.4l.037.055c-.154.147-.081.6.086,1.071a3.181,3.181,0,0,0,.338.7,1.914,1.914,0,0,0,.48.55A7.329,7.329,0,0,1,34.8,19.651a3.315,3.315,0,0,0,1.441,1.7c.019.06.449.058.468.118.39-.122.464.12.536.362.053.18.56.43.643.731a7.566,7.566,0,0,1,1.105,2.528c-.382.16-.334.339.121.473.059.234.117.469-.265.626.029.117.044.176.441.077.015.059.014.059.426.019.426.018,1.335.284,1.449.748a8.823,8.823,0,0,1,.772,1.413,1.942,1.942,0,0,0,.683,1.021c.014.053-.027-.106.328-.367l-.095-.367a5.03,5.03,0,0,0,1.095-.677,10.5,10.5,0,0,1,1.083-.731c.37-.2.713-.521.685-.637-.041-.168-.083-.337.287-.547a1.234,1.234,0,0,0,.358-.792,4.524,4.524,0,0,0,.048-.684c0-.271-.019-.577-.052-.922A31.491,31.491,0,0,0,44.714,17,29.228,29.228,0,0,0,41.22,9.942c-1.29-1.862-2.5-2.957-2.67-2.859l-.14-.174c.327-.255-.25-1.53-.717-1.425-.175.1-.734-.321-1.227-.783a7.58,7.58,0,0,1-.637-.683c-.169-.208-.258-.377-.193-.456-.106-.087-.674-.018-.985-.258s-.768-.554-1.11-.289L33.2,2.792c.054-.207-.061-.411-.7-.8A16,16,0,0,0,28.346.5,10.668,10.668,0,0,0,27.115.236,10.036,10.036,0,0,0,25.734.091L24.383.042c-.432-.016-.8.005-1.143-.015C22.749.005,22.332-.006,22,0a2.857,2.857,0,0,0-.716.12c-.326.119-.336.325-.039.719a4.174,4.174,0,0,1-.946.315c-.348.093-.7.248-1.121.4-.406.162-.892.323-1.322.528a6.338,6.338,0,0,0-1.36.529,9.829,9.829,0,0,1-1,.506,3.319,3.319,0,0,0-.758.456,5.289,5.289,0,0,1-.808.525c-.967-.045-1.153.041-1.679-.624-.265-.331-.363-.288-.458-.246l-.65.554A13.159,13.159,0,0,1,9.5,4.963a17.048,17.048,0,0,0-1.853,1.4,3.605,3.605,0,0,0-.628.682,1.421,1.421,0,0,0-.274.568c-.589.544-.731.686-.443.975.574.584.6,1.121-.112.7-.655-.5-.788-.35-.981-.134-.261.292-.325.99.174,1.041l.123-.14.124-.14c.062-.07.428.133.732.408l-.3.338c-.237.271-.295.339-.925-.183-.683-.451-.712-.45-1.051-.007-.223.3-.113.839-.165.911s-.108.147.224.387c.659.484.7,1.133.309.971-1.127-.553-1.512.04-2.346,1.45l-.8,1.539c.37.179.287.327.228.467a1.052,1.052,0,0,0-.257,1.581c.346.229.316.3.285.368s-.054.136.325.291.353.222.327.289-.026.067.354.22c.4.088.355.216-.458.047-.432-.017-.459.051-.459.051.355.217.3.349.227.55-.353.331-.683.659-.983.914a1.957,1.957,0,0,1-.811.48L0,21.245C.759,21.563.7,23.069.6,25.018ZM24.061.483c.121.009.251.029.207.434,0,0-.042.407-.162.392C23.756,1.279,23.787.877,24.061.483Zm-.626.373c-.028.408-.483.386-.708-.03l.118,0ZM22.646.823ZM14.229,29.545l1.189.3c.4.1.356.257-.875.113l-.835-.036-.355-.265C13.012,29.347,13.45,29.288,14.229,29.545Z" transform="translate(29.917 0)"/><path class="a" d="M.947.7a1.116,1.116,0,0,0,.49-.232A.475.475,0,0,0,1.572,0L1.39.059C1.267.1,1.11.144.875.232L0,.584C.078.774.537.805.947.7Z" transform="translate(43.043 2.111)"/><path class="a" d="M.594,1.281c.089-.025.268-.088.52-.152l.832-.2A1.947,1.947,0,0,1,2.889.3c-.077-.4-.461-.32-1.035-.187C1.448.2,1.115.286.846.36A3.7,3.7,0,0,0,.271.578C0,.715-.055.84.049,1.022.169,1.413.339,1.359.594,1.281Z" transform="translate(45.151 0.926)"/><path class="a" d="M.408.125C.368-.026.354-.076,0,.182L.068.434.1.535C.476.375.435.225.408.125Z" transform="translate(73.161 29.843)"/><path class="a" d="M0,0,0,0Z" transform="translate(12.512 68.011)"/><path class="a" d="M1.089,0,.57.546C.245.887,0,1.178,0,1.178.274,1.469,1.523.722,1.089,0Z" transform="translate(11.292 68.24)"/><path class="a" d="M.516.872C.633.733.478.284.478.284-.011-.408-.111.337.115.709.055.78.458.94.516.872Z" transform="translate(10.965 69.844)"/><path class="a" d="M.306.677C-.468.962.334.8,1.507.421c.388-.139.777-.273.76-.347S2.242-.038,1.843.054l-.4.093c-.4.092-.38.172-.371.213A2.028,2.028,0,0,1,.306.677Z" transform="translate(17.78 100.327)"/><path class="a" d="M0,0V0Z" transform="translate(47.018 85.352)"/><path class="a" d="M.41.15C.352-.031.333-.09,0,.212l.095.3.038.12C.505.452.448.271.41.15Z" transform="translate(46.885 84.633)"/><path class="a" d="M0,0Z" transform="translate(47.02 85.357)"/><path class="a" d="M.064.027,0,.091.092,0Z" transform="translate(12.515 67.906)"/><path class="a" d="M.336,25.426a.95.95,0,0,0,.135,1.5c.392.138.381.208.37.278s-.023.141.382.2.394.131.383.2-.011.069.394.129c.415-.006.394.124-.437.146-.423.081-.432.152-.432.152.4.125.379.262.354.469-.509.778-.977,1.608-1.394,1.8-.007.145-.015.291-.015.291.817.117,1.121,1.63,1.68,3.687.032.49.5.931.5,1,.407-.044.834.11.849.241a4.256,4.256,0,0,0,1.282.292c.018.128.441.193.45.255l.037.249c.415,0,.841.047.863.167s.47.286.893.32a7.945,7.945,0,0,0,1.3.2c.025.109.025.109-.774.289l-1.211.211,1.238-.1c1.222-.165,1.233-.119,1.607-.317.386-.146.774-.287.375-.2s-.4.091-.411.039a12.275,12.275,0,0,1,2-.451c.4-.09,1.208-.226,1.607-.318.8-.183.8-.183.76-.347-.02-.082-.039-.164-.438-.082l-.008-.043a2.46,2.46,0,0,0,1.539-.676.918.918,0,0,1,.77-.329c.41-.031.424.039.438.11a2.173,2.173,0,0,0,.824-.045c.4-.075.816-.088.828-.026.006.032.422.044.438.1a1.873,1.873,0,0,0,.414-.029c.388-.114-.061-.286-.467-.245s-.457-.211.345-.372c0-.03-.008-.059-.416-.026-.412,0-.455-.291-.05-.341a3.383,3.383,0,0,1,.821-.047c.009.058.009.058.414,0a2.14,2.14,0,0,1,.413,0c.012.083.415.016,1.218-.152.806-.144.8-.16-.014-.1-.821.094-.858-.289.367-.381l-.008-.07a.384.384,0,0,1-.378-.241,1.664,1.664,0,0,1-.077-.6c.21-.144.2-.4.119-.66a1.42,1.42,0,0,0-.465-.666c-.393-.154-.377-.273.032-.249.007-.055.013-.111.022-.194-.391-.141-.381-.2-.367-.287.414.007.426-.073.031-.2,0-.029.017-.086.022-.115,0,0,.023-.112-.356-.312.016-.117-.318-.444-.273-.661.075-.271-.289-.526-1.012-.952s-1.066-.737-.989-.943l.13-.381.075-.193c.395.114.049-.128.085-.226s-.332-.262-.706-.431c-.746-.339-.74-.349-.308-.324.447-.024.574-.287.391-.83-.183-.527-.16-.566-.48-.837l.029-.05.029-.05c-.329-.257-.313-.284-.282-.336s.063-.107.385.161c0,0,.334.246.077-.123.045-.071-.2-.455-.169-.509s-.237-.4-.237-.4c-.593-.613-.566-.654.092-.134.037-.054.353.225.37.2,0,0-.244-.386-.163-.491.057-.077-.169-.479-.428-.837-.284-.327-.192-.448,0-.683.164-.208.318-.375.318-.375a.969.969,0,0,1-.09-.784,2.607,2.607,0,0,1,.869-1.22c.409-.348.744-.585.579-1.028-.134-.471.252-.177.439.252s.2-.167.843-1.043c.077-.041.189-.1.125-.593.013-.537.5-.748.659-.283l.126-.048c.041-.015.01-.526.056-.539s.13-.041.207-.58c.175-.573.273-.595.238.439-.044.015,0,0,.18-.046.131-.035.418-.614.663-.649.285-.056.526-.061.526-.575l.05,0a3.266,3.266,0,0,0,.643-1.045,1.163,1.163,0,0,1,.424-.628,2.8,2.8,0,0,1,1.014-.518c.113.021.284-.361.284-.361l.175.034c0,.4.609.567.769-.233l.059.016c-.007.2.307.522.71.778a2.925,2.925,0,0,0,.641.352,1.417,1.417,0,0,0,.639.15,3.08,3.08,0,0,1,.688.069,5.707,5.707,0,0,1,.848.268,5.444,5.444,0,0,1,1.594,1.044,2.978,2.978,0,0,0,.967.652,4.047,4.047,0,0,0,.917.215c.041.051.38-.177.423-.124.256-.329.436-.119.6.1.121.165.645.187.857.476a2.578,2.578,0,0,1,.639.53,5.613,5.613,0,0,1,.645.8c.194.279.365.546.49.747l.2.363c-.295.317-.2.5.274.525.138.261.275.527-.045.82.061.132.091.2.439-.023.032.068.031.066.412-.083.4-.084,1.4.064,1.653.68a5.6,5.6,0,0,0,.521.735,4.417,4.417,0,0,1,.654,1.124,3.6,3.6,0,0,0,.281.6,2.8,2.8,0,0,0,.3.426,2.243,2.243,0,0,0,.31.3.983.983,0,0,1,.292-.43c-.049-.16-.146-.428-.169-.5a3.691,3.691,0,0,0,.955-.976,12.734,12.734,0,0,1,.9-1.116,2.1,2.1,0,0,0,.387-.563.738.738,0,0,0,.08-.474.791.791,0,0,1,.058-.927,2.445,2.445,0,0,0,.006-1.35c-.07-.322-.173-.7-.311-1.128a11.27,11.27,0,0,0-.553-1.45l-.386-.841-.216-.454-.255-.457a20.508,20.508,0,0,0-1.231-2.009,22.807,22.807,0,0,0-3.9-4.443A18.815,18.815,0,0,0,28.526.962C26.424.423,25.094.541,25.032.71c-.093-.017-.187-.026-.187-.026.057-.4-.965-.95-1.193-.535-.065.206-.593.261-1.1.262s-1.008-.1-1.009-.3c-.1,0-.38.425-.662.44s-.661.061-.732.48l-.278.03c-.059-.2-.205-.286-.718-.206a6.287,6.287,0,0,0-1.066.278c-.233.072-.5.16-.787.282s-.621.237-.975.415a5.868,5.868,0,0,0-.8.331c-.281.146-.573.313-.862.482-.574.354-1.132.72-1.585.958-1.324.69-1.781,1.016-1.067,1.535.16-.091-.952,1.024-2.127,2.51A15.457,15.457,0,0,0,8.251,9.658c-.326.308-.669,1.287-.956,1.612-.792.291-.911.434-1.6-.023-.343-.226-.4-.149-.462-.074a7.932,7.932,0,0,1-.315.735,11.721,11.721,0,0,1-.9,1.612c-.8,1.168-1.585,2.607-1.442,3.233-.347.665-.417.841-.059,1.031.72.391.936.888.129.683-.77-.284-.854-.111-.966.147-.154.349.007,1.023.491.929l.071-.167.072-.167c.036-.083.444.005.815.178l-.172.4c-.135.32-.168.4-.925.09a1.7,1.7,0,0,0-.719-.134c-.119.025-.161.133-.244.349-.111.29.165.719.138.789s-.049.14.335.278c.769.279,1.019.811.609.746-1.2-.264-1.415.3-1.786,1.646-.107.39-.2.765-.265,1.044S0,25.053,0,25.053C.4,25.142.366,25.283.336,25.426ZM16.092,33.77l1.22-.14c.409-.044.41.039-.79.293l-.8.21-.422-.053C14.875,33.987,15.277,33.825,16.092,33.77ZM13.781,3.706c.083-.038.166-.076.29.321,0,0,.124.4.044.434C13.877,4.575,13.745,4.185,13.781,3.706Zm-.675.8.4-.206c.132.394-.178.555-.48.248Zm-.092.048c-.188.1-.159.083,0,0Z" transform="translate(5.263 59.228)"/><path class="a" d="M.039.027,0,.065Z" transform="translate(12.607 67.827)"/><path class="a" d="M.685,2.1c.129-.132.6-.562,1.018-.919a1.933,1.933,0,0,1,.569-1c-.2-.363-.5-.136-.935.225C.118,1.451-.2,1.824.11,2.082.355,2.418.486,2.29.685,2.1Z" transform="translate(12.671 65.305)"/><path class="a" d="M.871,1.021A2.17,2.17,0,0,0,1.542.089c-.082-.192-.5-.05-.883.2s-.712.631-.652.842C-.067,1.187.5,1.283.871,1.021Z" transform="translate(15.252 63.19)"/><path class="a" d="M1.928.556,1.561.374c-.367-.183-.41-.1-.432-.056a1.782,1.782,0,0,1-.8-.231C-.453-.182.262.216,1.412.665c.39.137.779.275.82.194S2.294.738,1.928.556Z" transform="translate(90.681 85.369)"/><path class="a" d="M0,.006Z" transform="translate(96.654 44.185)"/><path class="a" d="M46.864,22.4a11.482,11.482,0,0,1,1.056-.841c.364-.239.666-.631.626-.769a.505.505,0,0,1,.221-.674,1.547,1.547,0,0,0,.259-.973,6.706,6.706,0,0,0-.269-1.955q-.163-.636-.41-1.413l-.13-.4-.069-.206c-.026-.073-.069-.17-.1-.255q-.222-.529-.484-1.1t-.568-1.189L46.674,12c-.12-.216-.256-.442-.391-.667q-.409-.678-.877-1.394A15.285,15.285,0,0,0,44.376,8.5a26.039,26.039,0,0,0-1.87-2.148c-.654-.628-1.292-1.215-1.919-1.733-.653-.486-1.283-.924-1.876-1.313a18.122,18.122,0,0,0-1.722-.935q-.4-.2-.763-.362c-.244-.105-.484-.183-.7-.262-.443-.153-.828-.27-1.146-.353-.631-.18-1.018-.171-1.075-.086l-.2-.062c.141-.388-.86-1.119-1.177-.78C31.725.775,29.6.4,29.666,0c-.106-.012-.482.319-.789.3S28.153.237,28,.636L27.7.613c-.029-.206-.172-.322-.739-.355a6.787,6.787,0,0,0-1.2.08c-.265.032-.565.075-.9.128l-.536.089c-.188.04-.386.09-.595.141a11.4,11.4,0,0,0-1.953.492c-.685.254-1.355.523-1.9.664a5,5,0,0,0-1.561.595c-.247.194-.2.4.149.706.189-.061-1.211.811-2.749,2.014-.108.051-.215.108-.321.172a2.013,2.013,0,0,0-.287.2c-.16.13-.313.271-.456.408a4.805,4.805,0,0,1-.734.639c-.35.18-.738.923-1.044,1.114-.771,0-.9.087-1.477-.513-.293-.3-.352-.256-.412-.214A5.39,5.39,0,0,1,9.612,8.449c-.834.659-1.792,1.415-1.768,1.96-.416.364-.52.456-.248.762.54.615.614,1.095-.034.576-.6-.563-.7-.471-.858-.334a.6.6,0,0,0,.212.926l.1-.092.1-.093c.049-.047.374.208.652.51l-.238.227c-.19.182-.237.228-.8-.367-.611-.548-.612-.547-.907-.264-.2.19-.1.67-.153.717s-.1.094.192.384c.573.579.591,1.144.257.905-.963-.766-1.344-.381-2.208.547l-.92,1.049c.31.267.224.366.137.465A.831.831,0,0,0,2.6,17.6c.278.308.238.357.2.408s-.081.1.239.356.28.3.241.354-.04.049.281.3c.36.205.283.3-.44-.105-.4-.153-.442-.1-.442-.1.282.3.205.4.092.554a4.727,4.727,0,0,1-2.021.664L.6,20.245c.642.537.174,1.851-.458,3.69-.239.374-.1.97-.132,1.024.354.206.616.573.555.68a4.605,4.605,0,0,0,.859.976c-.06.105.239.408.21.459l-.117.208c.33.247.633.543.581.649s.2.505.513.8a9.244,9.244,0,0,0,.887.963c-.05.1-.05.1-.783-.267l-1.071-.6,1.019.7c1.049.647,1.025.692,1.442.776.392.133.782.268.416.086s-.366-.182-.342-.231a11.909,11.909,0,0,1,1.831.915c.366.183,1.075.594,1.441.776.733.365.733.365.82.194.044-.086.087-.171-.277-.358l.022-.043a2.127,2.127,0,0,0,1.644.378c.484-.055.493-.049.828.184s.3.313.257.392a1.842,1.842,0,0,0,.664.5c.362.191.686.456.648.531-.019.038.288.337.25.411-.019.037.328.258.328.258.384.149.184-.361-.158-.591s-.194-.531.552-.174c.021-.036.041-.072-.3-.3-.317-.269-.126-.607.23-.4a2.418,2.418,0,0,1,.672.476c-.041.071-.041.071.316.271,0,0,.337.235.318.27-.06.1.3.3,1.054.63.735.364.751.334.076-.133-.7-.432-.422-.919.616-.26l.055-.1c-.291-.306-.045-.7.373-1.364a1.1,1.1,0,0,0,.651-.774,1.945,1.945,0,0,0,.137-1.048c-.232-.375-.134-.508.213-.29.046-.066.1-.126.174-.22-.246-.345-.194-.409-.118-.5.37.193.444.1.178-.221l.1-.126s.1-.126-.111-.516c.107-.12.014-.632.2-.851.242-.282.072-.708-.348-1.446s-.564-1.188-.382-1.38c.119-.131.274-.285.338-.342l.188-.18c.317.264.124-.12.219-.21.124-.12-.125-.449-.405-.747-.53-.627-.527-.629-.054-.518.548.068.993-.342,1.206-1.048.187-.67.225-.7.007-1.051l.07-.056.07-.056c-.25-.324-.215-.352-.144-.41s.143-.113.39.216c0,0,.281.3.179-.127.107-.076.011-.51.084-.563s-.09-.44-.09-.44c-.434-.7-.392-.726.184-.133.074-.053.341.258.377.232,0,0-.119-.412.033-.507.112-.07,0-.486-.177-.856-.221-.345-.061-.446.255-.648.138-.093.27-.157.365-.211l.155-.085a.7.7,0,0,1,.121-.709,2.856,2.856,0,0,1,1.214-.878c.507-.194.9-.339.8-.74-.064-.421.3-.1.423.3.066.2.133.177.277.029l.288-.31A2.679,2.679,0,0,1,24,14.764c.086-.016.212-.039.223-.465.1-.442.622-.544.717-.112l.135-.011c.045,0,.093-.43.141-.434s.137-.011.3-.446c.265-.443.367-.451.173.408.025,0,.082-.007.188-.01.138,0,.514-.408.764-.4a.934.934,0,0,0,.388-.038c.106-.037.186-.133.224-.344l.05.008a2.526,2.526,0,0,0,.8-.742,1.3,1.3,0,0,1,.54-.531,3.479,3.479,0,0,1,1.119-.307c.113.034.367-.316.367-.316a1,1,0,0,1,.171.066c-.085.409.5.672.832-.076l.057.026a.506.506,0,0,0,.136.384,2.39,2.39,0,0,0,.2.228,3.069,3.069,0,0,0,.242.258,2.948,2.948,0,0,0,.6.444,2.026,2.026,0,0,0,.332.148,1.392,1.392,0,0,0,.316.1,3.821,3.821,0,0,1,.719.194,3.633,3.633,0,0,1,.859.414,5.578,5.578,0,0,1,1.532,1.313,3.176,3.176,0,0,0,.952.823,4.534,4.534,0,0,0,.945.45c.036.057.445-.059.483,0,.337-.232.49.014.639.26.122.18.671.346.829.669A5.607,5.607,0,0,1,41.1,18.262c.27.54.458,1.022.469,1.051-.357.21-.289.384.187.48.093.24.186.482-.177.677.048.119.064.178.451.044.019.06.019.059.425-.014.424-.016,1.356.219,1.513.722a3.858,3.858,0,0,0,.406.621,2.846,2.846,0,0,1,.479.951A2.576,2.576,0,0,0,45.57,24c.015.062-.03-.124.322-.409l-.108-.441A4.476,4.476,0,0,0,46.864,22.4ZM12.253,32.412l-.778-.288-.29-.318c-.266-.361.155-.275.841.174l1.063.615C13.442,32.8,13.384,32.906,12.253,32.412ZM19.66,2.755c-.222.069-.188.052,0,0Zm.014,0,.095-.026.474-.124C20.328,3,19.961,3.1,19.675,2.751Zm1.216.11c-.279.069-.365-.331-.25-.781.1-.024.194-.048.268.356C20.909,2.435,20.983,2.838,20.891,2.861Z" transform="translate(84.003 47.926)"/><path class="a" d="M.015,0h0C0,0-.006,0,.015,0Z" transform="translate(109.494 62.989)"/><path class="a" d="M0,0Z" transform="translate(129.793 76.699)"/><path class="a" d="M0,.188.074.5.1.622C.489.474.444.286.414.161.369-.027.354-.088,0,.188Z" transform="translate(129.695 75.984)"/><path class="a" d="M.037.008,0,.029.052,0Z" transform="translate(96.602 44.191)"/><path class="a" d="M.982.889A2.16,2.16,0,0,0,1.871.12C1.81-.075,1.323-.012.859.164.4.356-.026.657.009.866-.081.906.532,1.079.982.889Z" transform="translate(99.679 41.379)"/><path class="a" d="M.033.018,0,.036.065,0Z" transform="translate(96.535 44.219)"/><path class="a" d="M.632,1.6l1.025-.56A1.138,1.138,0,0,1,1.891.654,2.063,2.063,0,0,1,2.148.4,1.358,1.358,0,0,1,2.417.216c-.162-.375-.552-.2-1.063.053C.16.915-.185,1.116.088,1.43.292,1.785.428,1.709.632,1.6Z" transform="translate(96.727 42.692)"/><path class="a" d="M.006,0,0,0Z" transform="translate(96.498 44.272)"/><path class="a" d="M.02,0,0,.011Z" transform="translate(96.515 44.256)"/><path class="a" d="M.011,0,0,.006Z" transform="translate(96.503 44.267)"/><path class="a" d="M1.089,0,.576.321,0,.686C.226,1.025,1.442.742,1.089,0Z" transform="translate(95.255 53.442)"/><path class="a" d="M.416.849c.124-.08.027-.5.027-.5C.062-.382-.1.207.065.588,0,.628.354.888.416.849Z" transform="translate(94.887 54.364)"/><path class="a" d="M.844.271C.375.522-.049.882.009,1.085c-.092.052.575.141,1.035-.108A2.467,2.467,0,0,0,1.7.424,2.4,2.4,0,0,0,1.938.09C1.858-.095,1.321.024.844.271Z" transform="translate(54.874 101.577)"/><path class="a" d="M1.176,0S.965.192.62.517l-.62.6C.3,1.385,1.641.673,1.176,0Z" transform="translate(50.168 106.441)"/><path class="a" d="M.417.2C.358-.033.338-.108,0,.223L.1.607.133.761C.514.6.456.359.417.2Z" transform="translate(88.332 126.128)"/><path class="a" d="M0,0Z" transform="translate(88.463 126.975)"/><path class="a" d="M1.554.407A7.833,7.833,0,0,0,.178,1.5c-.221.245-.231.387-.061.512.263.314.412.19.638.008.151-.122.67-.55,1.182-.887a2.1,2.1,0,0,1,.7-.964C2.421-.175,2.07.053,1.554.407Z" transform="translate(51.736 103.638)"/><path class="a" d="M0,.11.132,0,.076.047Z" transform="translate(51.523 106.07)"/><path class="a" d="M.02.026,0,.042Z" transform="translate(51.659 106.014)"/><path class="a" d="M12.061,35.051c.008-.112.016-.223-.393-.252l0-.056a1.9,1.9,0,0,0,1.669-.379c.432-.3.432-.3.836-.213s.4.192.388.3a1.56,1.56,0,0,0,.8.22c.408.03.808.163.8.276,0,.056.392.251.385.363,0,.056.4.14.4.14.412-.026.038-.559-.365-.638s-.373-.513.447-.506c0-.054.008-.107-.4-.191-.4-.139-.365-.621.044-.584a1.942,1.942,0,0,1,.808.166c-.009.1-.008.106.4.136,0,0,.4.084.4.138-.011.159.4.19,1.22.145.82.009.824-.043.016-.211-.812-.112-.754-.826.465-.673l.012-.151c-.4-.189-.345-.783-.248-1.726a2.22,2.22,0,0,0-.126-2.237c-.377-.229-.35-.4.061-.375l.047-.292c-.385-.2-.368-.278-.344-.395.418,0,.441-.119.054-.276l.031-.158s.03-.156-.34-.4c.033-.153-.292-.537-.232-.8.073-.351-.262-.595-.991-1.047s-1.066-.775-.986-.982l.134-.395.071-.216c.394.1.054-.129.093-.229.053-.128-.313-.314-.692-.468-.745-.341-.742-.347-.28-.4a.8.8,0,0,0,.516-.386,1.223,1.223,0,0,0,.043-.747c-.138-.568-.119-.613-.447-.86a.325.325,0,0,1,.037-.056l.039-.052c-.341-.227-.32-.254-.28-.309s.08-.11.414.126c0,0,.351.214.093-.131.055-.074-.2-.443-.154-.488s-.229-.355-.229-.355c-.609-.546-.575-.584.112-.126.045-.052.373.2.393.172,0,0-.24-.348-.152-.455a.076.076,0,0,0,.01-.057,1.866,1.866,0,0,0-.406-.7c-.289-.29-.168-.4.072-.636a3.16,3.16,0,0,1,.282-.239l.121-.1c-.227-.324-.212-.975,1.037-1.668.482-.23.851-.388.715-.762-.1-.4.289-.1.449.278s.224-.1.981-.665c.084-.012.207-.032.194-.444a.36.36,0,0,1,.711-.069l.134-.009c.044,0,.077-.417.125-.419s.137,0,.286-.4c.256-.4.359-.4.185.413l.189,0c.136,0,.507-.363.76-.343.3.025.538.091.612-.318l.051.009a2.508,2.508,0,0,0,.8-.67c.2-.359.693-.7,1.687-.779.114.038.372-.306.372-.306.06.018.117.044.174.068-.087.406.518.656.853-.09l.059.024c-.048.193.215.554.595.854A2.575,2.575,0,0,0,29,12.6a5.139,5.139,0,0,1,1.666.459,6.159,6.159,0,0,1,.917.486,4.638,4.638,0,0,1,.779.582,3.121,3.121,0,0,0,.529.392,2.911,2.911,0,0,0,.521.263,5.659,5.659,0,0,0,1.023.262c.043.048.435-.127.479-.077.305-.273.485-.07.663.132.13.151.7.211.915.48a4.644,4.644,0,0,1,1.348,1.246,10.264,10.264,0,0,1,.71,1.023c-.315.272-.215.445.28.484.139.242.279.485-.054.742.063.123.095.184.457-.006.032.063.032.062.427-.063.422-.064,1.439.088,1.68.653a5.3,5.3,0,0,0,.521.673,4.591,4.591,0,0,1,.634,1.088,4.076,4.076,0,0,0,.559,1.056,4.246,4.246,0,0,0,.333.4,1.156,1.156,0,0,1,.279-.5l-.17-.54a3.75,3.75,0,0,0,.986-.943,11.525,11.525,0,0,1,.915-1.06c.322-.307.573-.792.507-.961a.651.651,0,0,1,.1-.82,1.961,1.961,0,0,0,.059-1.181,10.2,10.2,0,0,0-.733-2.223,16.016,16.016,0,0,0-.752-1.5q-.228-.406-.49-.848t-.59-.9a26.606,26.606,0,0,0-3.435-4.077,24.754,24.754,0,0,0-7.136-4.9c-.529-.224-1.009-.412-1.433-.565s-.824-.253-1.14-.332c-.628-.16-1.02-.176-1.078-.089l-.2-.068c.14-.384-.855-1.158-1.2-.812-.111.182-.714.124-1.28-.015S25.456.207,25.5,0c-.113-.021-.513.324-.839.27s-.791-.1-.944.3L23.379.534c-.037-.207-.194-.332-.82-.377a15.72,15.72,0,0,0-3.639.4,11.453,11.453,0,0,0-2.209.566L14.6,1.906a5.583,5.583,0,0,0-1.7.748c-.255.224-.192.42.219.686.1-.043-.212.2-.75.621-.276.2-.577.477-.917.775s-.725.621-1.068.986A6.382,6.382,0,0,0,9.247,6.754a7.873,7.873,0,0,1-.787.9c-.388.3-.746,1.211-1.065,1.518-.274.085-.476.159-.642.2A1.121,1.121,0,0,1,5.661,9.2c-.368-.2-.437-.125-.5-.049,0,0-.126.3-.365.733-.257.435-.546,1.021-.964,1.606-.2.291-.435.6-.6.9s-.334.593-.467.871a4.809,4.809,0,0,0-.3.763,1.076,1.076,0,0,0-.018.554c-.3.611-.375.766-.007.941.737.356.97.814.154.623-.783-.263-.856-.107-.945.116-.126.3.071.9.541.837l.06-.146L2.3,16.8c.03-.074.436.016.812.178l-.146.355c-.116.284-.144.355-.905.052-.79-.229-.791-.228-.972.224-.121.3.177.727.149.8s-.05.145.337.28c.771.273,1.019.817.607.758-.607-.122-.959-.038-1.216.252A4,4,0,0,0,.4,21.133c-.112.393-.183.746-.251,1.017l-.1.441c.4.091.368.228.336.365a.877.877,0,0,0,.132,1.418c.389.142.377.207.364.273s-.025.132.377.2.39.138.378.2-.011.064.392.135c.413.009.393.133-.434.119-.424.057-.435.122-.435.122.393.133.372.259.342.449-.536.7-1.033,1.4-1.466,1.537L0,27.67c.8.171,1.037,1.539,1.287,3.361-.036.416.34.859.335.918.408.033.8.241.792.357a4.852,4.852,0,0,0,1.193.5c-.009.114.391.259.387.315l-.016.228c.4.087.8.23.8.343s.383.37.784.51a10.754,10.754,0,0,0,1.193.534c-.008.112-.008.112-.824.055L4.7,34.648l1.213.254c1.217.2,1.213.253,1.629.17.412-.027.824-.055.416-.084s-.408-.029-.4-.084a11.352,11.352,0,0,1,2.041.143c.408.029,1.221.142,1.629.17C12.046,35.274,12.046,35.274,12.061,35.051Zm4.65-1.829c.408.033.4.186-.841.247l-.829.094-.4-.189c-.391-.244.03-.37.842-.251ZM15.471,2.06c.109-.029.219-.058.327.337,0,0,.108.395,0,.422C15.489,2.9,15.368,2.511,15.471,2.06Zm-.413.555c.12.39-.282.525-.624.212l.1-.036Zm-.683.233Z" transform="translate(44.384 100.918)"/><path class="a" d="M.546.826A.362.362,0,0,0,.586.538,1.428,1.428,0,0,0,.517.262C.3-.01.151-.042.07.039A.64.64,0,0,0,.116.692C.05.766.481.9.546.826Z" transform="translate(49.79 107.948)"/><path class="a" d="M2.387.229c.008-.112.012-.167-.4-.2L1.582,0c-.408-.029-.416.083-.42.139a1.524,1.524,0,0,1-.828.11C-.49.308.322.421,1.555.4,1.967.368,2.379.34,2.387.229Z" transform="translate(55.562 140.462)"/><path class="a" d="M.16.011.079.036,0,.061Z" transform="translate(12.415 161.253)"/><path class="a" d="M.863.015C.434.06.014.215.009.422-.075.432.428.782.85.738A1.706,1.706,0,0,0,1.745.264C1.724.063,1.29-.041.863.015Z" transform="translate(15.826 159.492)"/><path class="a" d="M1.692.082C.242.376-.158.555.052.908c.13.388.289.338.53.266.16-.052.734-.174,1.227-.28a1.777,1.777,0,0,1,.559-.48.718.718,0,0,1,.262-.1C2.545-.089,2.2-.028,1.692.082Z" transform="translate(12.686 160.252)"/><path class="a" d="M0,0H0Z" transform="translate(12.412 161.319)"/><path class="a" d="M43.99,13.086a23.4,23.4,0,0,0-4.367-5.415c-.46-.46-.953-.879-1.428-1.272s-.925-.766-1.4-1.09-.906-.63-1.322-.9c-.434-.264-.846-.5-1.222-.7l-.539-.284L33.464,3.3l-.291-.135c-.377-.171-.705-.305-.979-.4-.548-.2-.875-.257-.941-.177l-.16-.086c.208-.368-.6-1.207-.935-.912-.126.167-.64.039-1.107-.166s-.9-.477-.833-.673c-.091-.034-.486.255-.75.159s-.623-.222-.819.143l-.262-.09c.007-.208-.1-.371-.591-.505A8.85,8.85,0,0,0,24.734.241,13.944,13.944,0,0,0,22.91.079,8.174,8.174,0,0,0,21.141.023,15.061,15.061,0,0,1,19.394.1c-1.428-.017-1.952.03-1.433.826.087,0-.207.106-.718.277-.507.2-1.23.479-2,.8a12.246,12.246,0,0,0-2.117.915c-.39.128-1.019.733-1.376.9-.821-.1-.973-.029-1.472-.7-.251-.336-.33-.3-.408-.267l-.5.484a8.105,8.105,0,0,1-1.3.98A15.891,15.891,0,0,0,6.578,5.43a2.152,2.152,0,0,0-.712,1.082c-.494.438-.615.551-.345.86.533.622.6,1.148-.059.656-.606-.549-.722-.426-.89-.245-.229.245-.266.9.188,1.007l.107-.118.107-.118c.054-.059.392.178.674.475l-.258.284c-.205.228-.255.286-.844-.286-.64-.511-.652-.518-.952-.122-.2.265-.092.8-.14.864s-.1.131.215.4c.62.537.671,1.167.309.97-1.056-.661-1.416-.1-2.191,1.254-.221.393-.39.794-.529,1.081l-.219.479c.361.2.295.343.229.491A1.411,1.411,0,0,0,.89,14.9a1.167,1.167,0,0,0-.108.484,1.029,1.029,0,0,0,.282.742c.352.236.327.309.3.384s-.05.149.33.3.356.225.333.3-.023.072.358.221c.4.081.361.214-.451.066-.43,0-.453.075-.453.075.363.214.314.354.252.572C1.12,18.781.517,19.607.067,19.755L0,20.07a.94.94,0,0,1,.473.426,2.753,2.753,0,0,1,.312.8,9.559,9.559,0,0,1,.2,1.119c.029.205.042.441.08.649l.105.656c-.031.417.349.857.345.915.408.025.805.221.8.335a4.663,4.663,0,0,0,1.2.45c0,.109.406.232.406.286l0,.216c.408.065.816.181.815.287s.406.324.814.431a9.772,9.772,0,0,0,1.224.412c0,.1,0,.1-.819.1L4.719,27.1l1.226.15c1.227.093,1.226.138,1.637.038.41-.052.819-.1.41-.1s-.409,0-.408-.047a13.312,13.312,0,0,1,2.046-.009c.409,0,1.227.04,1.636.037.819,0,.819,0,.821-.175,0-.086,0-.171-.407-.173v-.043a2.342,2.342,0,0,0,1.641-.358.891.891,0,0,1,.82-.184c.409.05.408.128.408.207a2.042,2.042,0,0,0,.818.131c.409.007.818.087.817.161,0,.037.408.151.406.223,0,.037.408.072.408.072.41-.036,0-.357-.4-.4s-.407-.342.411-.354c0-.036,0-.072-.409-.121-.2-.043-.306-.148-.306-.241s.116-.16.32-.15a2.947,2.947,0,0,1,.812.1c-.005.065-.005.065.4.083a1.682,1.682,0,0,1,.407.083c0,.1.409.115,1.227.08.819,0,.815-.034,0-.125-.814-.062-.779-.5.442-.387,0,.014.005-.072.007-.087a.434.434,0,0,1-.336-.353,1.294,1.294,0,0,1-.026-.3c.012-.074.025-.158.04-.251a.27.27,0,0,0,.192-.182.312.312,0,0,0,0-.131.5.5,0,0,0-.017-.073c-.008-.024-.019-.014-.031-.023l-.481-.2c-.389-.138-.383-.169.008-.035l.008-.027c-.383-.159-.378-.174-.374-.189.386.147.388.143.011-.037l.007-.021s0-.018-.359-.23c.009-.022-.336-.28-.311-.342s-.309-.331-.971-.891-.956-.913-.9-1.008l.111-.168.061-.092c.33.276.039-.059.07-.107s-.253-.377-.563-.684c-.607-.628-.6-.636-.207-.431.212.087.357.072.451-.027a.749.749,0,0,0,.124-.573c-.024-.551.014-.568-.214-.954l.042-.032.042-.031c-.239-.375-.217-.391-.172-.425s.089-.068.32.316c0,0,.25.372.116-.062.067-.036-.055-.48,0-.51s-.109-.452-.109-.452c-.386-.806-.349-.83.127-.075.056-.022.277.368.3.359,0,0-.113-.434,0-.481.08-.034-.014-.479-.155-.9-.172-.408-.05-.476.217-.544l.428-.124a.657.657,0,0,1,.16-.649,1.287,1.287,0,0,1,.434-.276,2.7,2.7,0,0,1,.771-.133c.487-.018.858.023.834-.416.013-.429.28.008.327.45s.235.016,1.028-.275c.077.017.189.043.266-.37.153-.394.621-.293.634.147l.117.036c.038.012.146-.389.187-.377s.118.037.322-.334c.294-.343.381-.316.081.461l.161.05c.12.03.5-.264.709-.178.244.1.446.179.579-.212l.042.017a.932.932,0,0,0,.309-.153,2.16,2.16,0,0,0,.487-.389,1.8,1.8,0,0,1,1.595-.576c.091.052.373-.258.373-.258l.142.081c-.143.389.354.676.775-.026l.049.028c-.123.377.67,1.4,1.461,1.455a5.042,5.042,0,0,1,1.447.4,6.313,6.313,0,0,1,1.445.906,2.614,2.614,0,0,0,1.85.654c.039.038.406-.164.444-.123.3-.284.447-.119.6.046.113.123.643.1.834.306a3.417,3.417,0,0,1,1.228.9,7.736,7.736,0,0,1,.676.762c-.291.3-.194.428.268.366.133.183.267.367-.032.652.066.091.1.136.432-.1.033.046.033.045.4-.145.4-.146,1.355-.239,1.606.165.127.2.857.569,1.212,1.124a2.323,2.323,0,0,0,.978.876.958.958,0,0,1,.206-.465l-.211-.368a4.64,4.64,0,0,0,.838-1A12.391,12.391,0,0,1,44.2,17.2c.278-.325.482-.765.41-.876-.107-.167-.214-.331.056-.668a1.426,1.426,0,0,0,.024-.946A7.507,7.507,0,0,0,43.99,13.086ZM16.626,25.561c.408.025.4.12-.834.166l-.826.072-.4-.13c-.4-.172.02-.264.834-.178ZM19.01.913Zm.068,0h.086c.258.005.431.021.431.021C19.6,1.347,19.271,1.315,19.078.913Zm1.035.466c-.252-.018-.263-.428-.092-.828.088.006.176.013.176.423C20.2.975,20.2,1.385,20.114,1.379Z" transform="translate(0 162.818)"/><path class="a" d="M0,.265.146.523.2.626C.536.381.447.224.388.12.3-.037.27-.087,0,.265Z" transform="translate(43.696 183.868)"/><path class="a" d="M.013,0Z" transform="translate(22.508 175.316)"/><path class="a" d="M.341.894c.15-.065.14-.5.14-.5C.233-.4-.079.183.018.588-.058.621.266.926.341.894Z" transform="translate(10.413 162.15)"/><path class="a" d="M1.971,0,1.561,0c-.409,0-.41.087-.411.129A1.983,1.983,0,0,1,.33.271c-.82.1,0,.129,1.227.023.41-.048.82-.095.821-.175S2.38,0,1.971,0Z" transform="translate(11.341 191.89)"/><path class="a" d="M.812.665C1.157.6,1.458.4,1.362,0L.714.212C.51.275.335.354.206.407L0,.493C.083.685.468.73.812.665Z" transform="translate(10.887 161.467)"/><path class="a" d="M0,0V0H0Z" transform="translate(127.501 173.993)"/><path class="a" d="M0,.282.148.5.207.585c.309-.274.22-.4.16-.491C.279-.036.249-.079,0,.282Z" transform="translate(127.296 173.364)"/><path class="a" d="M0,.079.033.069C.292-.028.28-.021,0,.079Z" transform="translate(110.074 192.59)"/><path class="a" d="M0,0Z" transform="translate(127.502 173.997)"/><path class="a" d="M.106.008C.1,0,.1,0,.1,0h0L0,.039C.032.029.066.018.106.008Z" transform="translate(110.005 192.665)"/><path class="a" d="M1.586.156,1.226.349C.867.541.9.6.917.622a2.561,2.561,0,0,1-.658.484c-.667.468.053.086,1.077-.579.337-.229.678-.451.651-.5S1.945-.036,1.586.156Z" transform="translate(102.613 196.414)"/><path class="a" d="M37.758,8.714l-.591-.757c-.22-.269-.467-.556-.718-.847s-.57-.621-.876-.944c-.339-.341-.692-.688-1.1-1.059a20.766,20.766,0,0,0-4.993-3.395c-.532-.244-1.016-.462-1.563-.66S26.825.68,26.28.536C25.708.395,25.151.281,24.618.191c-.548-.083-1.1-.131-1.608-.165a16,16,0,0,0-2.774.089,15.04,15.04,0,0,0-1.988.4c-1.016.308-1.547.575-1.558.681-.161.044-.3.093-.3.093-.059-.2-.528-.26-1.009-.193a2.421,2.421,0,0,0-.669.184.506.506,0,0,0-.323.32c.016.217-.646.628-1.306.972-.587.329-1.2.588-1.312.416a1.19,1.19,0,0,0-.186.356,1.042,1.042,0,0,1-.29.444c-.275.192-.641.456-.485.849l-.266.2c-.175-.127-.353-.117-.78.235a8.244,8.244,0,0,0-.825.805c-.154.178-.325.382-.516.616s-.416.5-.6.783A7.63,7.63,0,0,0,6.89,8.573a10.54,10.54,0,0,1-.8,1.265c-.711.9-.969,1.244-.1,1.457.022-.028.015.023-.015.134s-.09.3-.177.55c-.177.5-.408,1.194-.626,1.925A12.8,12.8,0,0,0,4.5,15.835c-.176.308-.127,1.1-.281,1.4-.636.36-.693.485-1.493.255-.4-.114-.431-.05-.46.013a5.242,5.242,0,0,1-.379,1.864c-.393.943-.793,2.031-.512,2.486-.175.51-.218.638.17.767.775.258,1.086.631.267.507-.8-.186-.841-.055-.9.138a.593.593,0,0,0,.647.686l.037-.128.039-.127c.02-.064.431-.007.822.113l-.1.311c-.072.251-.09.314-.877.087-.805-.163-.805-.161-.917.231-.075.263.256.634.238.7s-.034.132.363.233c.792.205,1.093.682.679.648-1.216-.157-1.365.367-1.61,1.665C.1,28.441,0,29.143,0,29.143c.405.058.386.2.368.337a.92.92,0,0,0,.249,1.453c.4.106.395.175.388.245s-.009.142.4.173.4.1.4.169,0,.069.4.1c.413-.038.4.092-.421.179-.417.114-.422.185-.422.185.406.093.393.226.388.439A6.52,6.52,0,0,1,.52,34.391l.015.309c.84.047,1.242,1.581,2.176,3.8a2.89,2.89,0,0,0,.709,1.043c.389-.117.853-.03.9.108a3.81,3.81,0,0,0,1.324.066c.044.133.481.111.506.172l.1.248c.405-.092.832-.133.882-.016s.542.176.963.108A7.133,7.133,0,0,0,9.415,40.1c.057.094.057.094-.667.476l-1.119.517q.593-.2,1.18-.417c1.141-.483,1.164-.448,1.469-.73.331-.239.666-.471.306-.28s-.36.192-.387.147a12.942,12.942,0,0,1,1.8-.95c.361-.189,1.1-.536,1.462-.728.72-.383.72-.383.651-.5-.03-.059-.059-.118-.426.061l-.016-.031a3.249,3.249,0,0,0,1.354-.936,1.223,1.223,0,0,1,.7-.443c.387-.134.4-.093.421-.05a3.288,3.288,0,0,0,.776-.277,3.22,3.22,0,0,1,.775-.281c.008.016.4-.122.406-.1a3.674,3.674,0,0,0,.377-.162c.356-.2-.05-.108-.434.045s-.435.032.319-.287c0-.012-.01-.022-.4.115s-.442-.02-.055-.149l.535-.176A1.731,1.731,0,0,1,18.7,34.9c.007.021.007.021.391-.118l.194-.064c.1-.032.194-.06.194-.06a9.993,9.993,0,0,0,1.15-.424l.284-.108-.083.026-.2.071c-.385.138-.583.186-.544.154a4.338,4.338,0,0,1,.612-.2.078.078,0,0,1-.027,0c-.025-.007-.045-.007-.055-.031l-.023-.1c.1-.045.149-.092.153-.142a.275.275,0,0,0-.077-.193,1.513,1.513,0,0,0-.514-.426c-.406-.095-.407-.191,0-.194,0-.047.007-.095.012-.166-.4-.1-.4-.149-.4-.223.414-.02.422-.093.02-.186l.01-.106s.006-.1-.381-.269c.017-.113-.364-.4-.321-.626.041-.276-.323-.509-1.087-.878s-1.111-.654-1.064-.875l.1-.409.057-.224c.4.07.043-.149.075-.262.043-.149-.34-.3-.733-.417-.773-.268-.777-.273-.311-.391.49-.2.656-.727.478-1.413-.2-.653-.168-.694-.537-.885l.032-.079.032-.08c-.379-.154-.363-.194-.331-.275s.068-.16.445,0c0,0,.394.121.084-.2.05-.116-.259-.441-.221-.519s-.3-.327-.3-.327c-.727-.378-.706-.424.091-.2.037-.08.424.054.443.016,0,0-.313-.291-.236-.449.057-.117-.253-.417-.6-.643-.366-.183-.281-.345-.114-.667l.281-.513a.69.69,0,0,1-.27-.657,2.993,2.993,0,0,1,.62-1.439c.317-.454.643-.841.311-1.09-.292-.291.207-.266.553-.044s.195-.243.5-1.21c.063-.066.155-.164-.11-.479-.205-.387.165-.767.516-.523l.1-.093c.032-.031-.214-.361-.18-.394s.1-.1-.069-.5c-.087-.459-.012-.521.411.191l.139-.115c.1-.087.093-.614.286-.741.221-.164.406-.287.19-.628l.04-.024a2.5,2.5,0,0,0,.1-1.006c-.086-.395.019-.968.785-1.651.117-.034.141-.458.141-.458l.2-.047a.331.331,0,0,0,.461.163c.176-.074.336-.3.3-.705l.072-.008c.028.1.157.183.342.265a3.28,3.28,0,0,0,.685.22,4.954,4.954,0,0,0,.8.168,2.467,2.467,0,0,0,.768.022,3.5,3.5,0,0,1,.825-.016,5.109,5.109,0,0,1,1.011.212,5.572,5.572,0,0,1,1.824.952,3.5,3.5,0,0,0,2.043.794c.041.043.422-.15.465-.105.295-.282.478-.1.636.084.118.135.678.14.873.372a4.038,4.038,0,0,1,1.263.981c.377.4.652.768.672.791-.292.292-.194.426.27.365.134.183.269.365-.029.651.065.09.1.135.429-.1.032.045.032.045.4-.149.393-.151,1.332-.254,1.584.108.13.183.846.493,1.183.984a1.909,1.909,0,0,0,.973.7.953.953,0,0,1,.188-.451l-.212-.31a5.316,5.316,0,0,0,.8-1.005,11.388,11.388,0,0,1,.759-1.061c.273-.324.483-.741.419-.833-.095-.138-.2-.282.072-.611.216-.4.106-1.109-.551-2.347A18.412,18.412,0,0,0,37.758,8.714ZM6.5,10.639Zm.051-.065.043-.055.219-.277C7.127,10.5,6.958,10.718,6.551,10.574Zm.864-.411c-.142.168-.459-.091-.676-.468.049-.058.1-.115.41.149C7.149,9.844,7.462,10.108,7.415,10.163Zm9.3,25.269,1.171-.37c.392-.119.4-.1-.742.347l-.754.326-.407.072C15.562,35.849,15.924,35.655,16.714,35.433Z" transform="translate(89.229 157.365)"/><path class="a" d="M.132.053.281,0,0,.082A.485.485,0,0,0,.132.053Z" transform="translate(109.786 192.685)"/><path class="a" d="M0,0v0L0,0Z" transform="translate(91.956 170.114)"/><path class="a" d="M.3.529C.269.59.7.644.728.583.788.46.482.155.482.155-.221-.271-.04.29.3.529Z" transform="translate(91.075 171.97)"/><path class="a" d="M.8,1A1.508,1.508,0,0,0,1,.032C.832-.093.516.166.28.5s-.363.713-.218.86C.02,1.421.573,1.324.8,1Z" transform="translate(93.139 165.321)"/><path class="a" d="M.631.507C-.025,1.6-.177,1.913.211,2.047c.359.2.427.074.531-.113.066-.123.328-.564.549-.937A1.324,1.324,0,0,1,1.382.082C1.038-.14.874.118.631.507Z" transform="translate(91.832 167.775)"/><path class="a" d="M.553,0,.29.5,0,1.068C.363,1.245,1.238.451.553,0Z" transform="translate(91.257 170.563)"/><path class="a" d="M0,.019Z" transform="translate(91.96 170.092)"/><path class="a" d="M.031.061,0,.118.065,0Z" transform="translate(91.89 170.135)"/><path class="a" d="M0,0,0,.006Z" transform="translate(91.886 170.263)"/><path class="a" d="M.067.071,0,.134.143,0Z" transform="translate(137.52 105.267)"/><path class="a" d="M0,0H0L0,0Z" transform="translate(137.664 105.254)"/><path class="a" d="M.01,0,0,.009Z" transform="translate(137.507 105.419)"/><path class="a" d="M.125,2.333c.28.3.43.159.659-.05l.46-.414c.231-.193.534-.424.805-.63A2.582,2.582,0,0,1,2.833.153c-.227-.34-.617-.067-1.187.363-.4.3-.746.566-.974.774a5.423,5.423,0,0,0-.5.51C-.046,2.072-.052,2.22.125,2.333Z" transform="translate(137.756 102.469)"/><path class="a" d="M1.235,1.1c.161-.095.339-.2.495-.317a4.255,4.255,0,0,0,.4-.334A3.857,3.857,0,0,0,2.484.078c-.073-.19-.776-.012-1.419.3C.488.693-.04,1.126.011,1.334-.1,1.4.672,1.413,1.235,1.1Z" transform="translate(141.229 99.962)"/><path class="a" d="M0,.027Z" transform="translate(137.667 105.224)"/><path class="a" d="M.394.125C.316-.034.291-.088,0,.251L.129.517.181.624C.523.391.446.232.394.125Z" transform="translate(173.337 129.832)"/><path class="a" d="M6,35.558c.061.149.5.126.539.192l.14.276c.407-.106.837-.151.911-.025s.591.189,1.021.107a7.032,7.032,0,0,0,1.376-.183c.076.1.076.1-.623.533l-1.091.586q.587-.229,1.177-.482c1.129-.557,1.166-.525,1.429-.83.3-.261.605-.515.262-.3s-.345.216-.381.167a11.086,11.086,0,0,1,1.721-1.061c.344-.211,1.06-.6,1.4-.817.686-.427.684-.426.593-.548-.046-.061-.092-.121-.444.079l-.025-.032a2.8,2.8,0,0,0,1.258-1.044,1.045,1.045,0,0,1,.657-.494c.381-.151.4-.105.433-.061a2.887,2.887,0,0,0,.762-.312,2.819,2.819,0,0,1,.76-.317c.01.018.4-.141.415-.116a3.253,3.253,0,0,0,.367-.183c.338-.219-.083-.109-.453.06s-.451.041.285-.318c-.007-.013-.013-.025-.392.13s-.453-.023-.074-.167l.527-.2a1.544,1.544,0,0,1,.245-.079c.01.024.01.024.388-.133l.191-.073a1.779,1.779,0,0,1,.193-.068,8.538,8.538,0,0,0,1.128-.479c.75-.329.756-.318,0-.011-.672.28-.777.223.019-.051-.041-.008-.054-.059-.074-.2a.243.243,0,0,0,.141-.2.58.58,0,0,0-.086-.291,1.642,1.642,0,0,0-.527-.591c-.405-.122-.4-.251.005-.266,0-.058.006-.123.01-.215-.4-.115-.4-.182-.4-.279.415-.038.423-.131.021-.234l.01-.133s.014-.133-.376-.319c.011-.137-.351-.478-.315-.737.059-.328-.318-.578-1.068-.975s-1.1-.7-1.046-.949c.038-.165.1-.364.117-.445s.041-.162.066-.24c.405.075.047-.156.083-.275.045-.157-.329-.318-.719-.444-.766-.289-.763-.3-.294-.411a1.07,1.07,0,0,0,.54-1.36c-.158-.612-.142-.644-.487-.862l.032-.056.032-.056c-.357-.2-.34-.23-.307-.29s.067-.121.418.092c0,0,.366.19.086-.137.046-.082-.218-.42-.176-.478s-.253-.354-.253-.354c-.645-.512-.61-.554.11-.144.045-.058.389.167.409.141a1.1,1.1,0,0,1-.154-.275.167.167,0,0,1,0-.169c.074-.079-.164-.427-.431-.742-.3-.273-.176-.42.075-.693l.417-.383a.7.7,0,0,1-.052-.709,2.013,2.013,0,0,1,.343-.49A1.924,1.924,0,0,1,17,15l.161-.116c.115-.079.244-.164.388-.254a1.772,1.772,0,0,0,.527-.285.329.329,0,0,0,.116-.4c-.074-.4.261-.072.365.321.059.19.106.179.213.073L19,14.089a1.779,1.779,0,0,1,.417-.29c.07,0,.171,0,.259-.394.161-.374.669-.32.636.128l.121.038c.039.012.2-.366.247-.352s.125.033.408-.3c.385-.275.484-.232.029.461l.174.077a.991.991,0,0,0,.388-.054.829.829,0,0,1,.466.031,1.064,1.064,0,0,0,.379.158c.115.018.228-.028.341-.2l.045.032a2.407,2.407,0,0,0,1.042-.271,1.212,1.212,0,0,1,.716-.21,3.271,3.271,0,0,1,1.21.235c.093.086.469-.123.469-.123l.144.134c-.224.334.247.835.842.27l.046.047c-.231.336.489,1.722,1.3,2.118a6.108,6.108,0,0,1,1.462,1,8.027,8.027,0,0,1,1.339,1.514,3.361,3.361,0,0,0,1.8,1.342c.032.054.449-.046.481.009.352-.209.483.012.614.233.1.165.64.294.8.573a7.815,7.815,0,0,1,1.7,2.263c-.333.246-.244.413.233.448.115.224.23.448-.105.69.057.111.086.167.451-.019.029.056.029.056.422-.074.421-.074,1.378.007,1.606.46.109.222.815.72,1.11,1.328a2.326,2.326,0,0,0,.929.975.948.948,0,0,1,.236-.452l-.185-.383a4.694,4.694,0,0,0,.914-.926,10.433,10.433,0,0,1,.884-.988c.314-.291.568-.7.511-.816-.085-.172-.17-.344.14-.641.265-.384.219-1.182-.276-2.584a33.3,33.3,0,0,0-3.2-6.258,32.658,32.658,0,0,0-4.564-5.788A17.356,17.356,0,0,0,34.094,5.9c-.511-.367-.857-.537-.94-.478l-.149-.137c.139-.151.07-.493-.092-.778s-.468-.526-.68-.436c-.178.12-.7-.181-1.182-.549-.524-.378-.991-.818-.879-.989a1.148,1.148,0,0,0-.39-.016,1.663,1.663,0,0,1-.28-.017.808.808,0,0,1-.285-.1c-.34-.2-.8-.464-1.112-.167l-.34-.187c.036-.21-.063-.4-.8-.732a12.216,12.216,0,0,0-1.6-.579c-.39-.105-.835-.214-1.341-.321-.257-.052-.512-.11-.814-.153S22.58.178,22.237.145A9.915,9.915,0,0,0,20.712,0c-.571,0-1.175.031-1.771.082a15.551,15.551,0,0,0-1.735.263c-.546.109-1.082.2-1.507.3-.629.146-1.156.291-1.576.429q-.314.1-.548.2a2.5,2.5,0,0,0-.348.2c-.363.255-.312.456.166.7a7.57,7.57,0,0,1-1.045.719c-.18.125-.4.263-.6.416l-.6.5-.654.559a7.07,7.07,0,0,0-.643.606A8.037,8.037,0,0,0,8.6,6.179a11.162,11.162,0,0,1-.8,1A4,4,0,0,0,7.226,8a4.024,4.024,0,0,1-.461.8c-.332.124-.6.272-.8.332a.959.959,0,0,1-.6.016A2.536,2.536,0,0,1,4.953,9c-.381-.172-.453-.087-.519,0,0,0-.127.317-.357.8-.11.244-.247.53-.41.837s-.336.648-.544.99-.4.71-.586,1.064c-.164.336-.31.656-.429.956a2.318,2.318,0,0,0-.216,1.37c-.27.653-.329.816.054.961.762.3,1.033.743.207.618-.8-.2-.862-.037-.942.2-.109.322.123.924.591.814l.052-.156.052-.156c.026-.079.439-.023.826.11l-.127.379c-.1.3-.126.38-.906.134-.8-.168-.805-.167-.948.31-.1.32.21.746.19.823s-.042.157.354.263c.789.216,1.067.767.65.742-1.219-.149-1.4.483-1.681,1.981C.1,22.9,0,23.7,0,23.7c.405.054.383.212.365.371A1.087,1.087,0,0,0,.614,25.7c.4.11.4.188.389.266s-.009.159.4.185.4.1.4.181,0,.077.4.1c.413-.052.4.1-.421.209-.417.135-.421.215-.421.215.4.095.4.249.394.485a7.8,7.8,0,0,1-1.2,2.21l.018.34c.844.047,1.247,1.727,2.336,4.281a2.245,2.245,0,0,0,.454.807c.179.2.335.336.35.378.388-.135.856-.03.918.126A3.608,3.608,0,0,0,6,35.558Zm10.836-4.836,1.155-.417c.389-.135.388-.107-.726.393q-.368.178-.731.367l-.41.083C15.69,31.2,16.057,30.97,16.833,30.722ZM16.9.859c.163-.022.327-.041.375.365,0,0,.048.406-.107.425C16.712,1.71,16.637,1.31,16.9.859Zm-.944.567c.13-.032.208-.044.208-.044.068.4-.5.532-.9.213l.149-.038Zm-.769.189c-.268.07-.231.06,0,0Z" transform="translate(131.956 100.789)"/><path class="a" d="M.352,0s0,0,0,0C.219.043.1.081,0,.117A1.83,1.83,0,0,0,.352,0Z" transform="translate(152.667 132.687)"/><path class="a" d="M1.837.03c-.041-.045-.061-.067-.4.148L1.092.393C.75.607.8.661.824.688a2.1,2.1,0,0,1-.594.528c-.608.513.079.086,1.024-.646C1.563.318,1.877.074,1.837.03Z" transform="translate(146.141 136.809)"/><path class="a" d="M.575.822C.713.665.547.237.547.237.006-.386-.128.379.12.718.05.8.506.9.575.822Z" transform="translate(135.786 107.368)"/><path class="a" d="M1.149,0,.988.154c-.113.1-.236.239-.4.415L0,1.213C.339,1.45,1.587.672,1.149,0Z" transform="translate(136.196 105.703)"/><path class="a" d="M39.665,10.7c.09-.459-.279-1.182-1.326-2.293L37.9,7.968l-.241-.232c-.094-.087-.14-.137-.3-.274-.566-.484-1.146-.962-1.945-1.549A35.376,35.376,0,0,0,29.689,2.37,25.745,25.745,0,0,0,24.421.493,19.857,19.857,0,0,0,20.216,0c-.586.029-1.111.037-1.567.1s-.844.126-1.159.187c-.628.162-.964.3-.969.405l-.2.021C16.237.284,15,.11,14.9.541c0,.194-.522.447-1.059.582s-1.082.232-1.154.033c-.1.038-.259.506-.541.626s-.667.282-.6.7l-.279.122c-.13-.17-.308-.193-.811.063a6.324,6.324,0,0,0-1.005.646l-.717.548c-.26.219-.531.49-.841.779A8.911,8.911,0,0,0,6.5,6.071C6.05,6.64,5.64,7.237,5.256,7.63c-1.024,1.254-1.4,1.719-.5,1.926.031-.038.01.028-.051.178l-.259.706L4.038,11.53c-.15.415-.273.9-.427,1.388a7.564,7.564,0,0,0-.54,1.44,8.136,8.136,0,0,1-.289,1.232,17.533,17.533,0,0,0-.319,1.991c-.62.652-.679.846-1.5.715-.409-.063-.44.037-.47.136,0,0,0,.085,0,.232s-.031.355-.023.623a10.559,10.559,0,0,1-.2,1.994c-.038.189-.077.381-.115.573s-.047.392-.07.586c-.038.39-.069.771-.083,1.121a2.734,2.734,0,0,0,.2,1.53c-.039.757-.043.947.365.971.816.054,1.213.422.39.573-.821.063-.827.256-.832.539a.758.758,0,0,0,.065.3.679.679,0,0,0,.189.223.5.5,0,0,0,.564.061l0-.147,0-.155c0-.093.413-.181.822-.176l0,.122c0,.085,0,.17,0,.279.007.289.009.361-.81.373-.816.086-.817.087-.805.538.008.3.426.585.428.659s0,.149.413.13c.814-.032,1.246.368.845.46C.627,30.049.65,30.648.78,32l.169,1.471c.407-.054.42.089.441.223A.884.884,0,0,0,2,34.98c.414,0,.424.069.435.136s.02.133.424.066.414,0,.424.065.011.064.415,0c.392-.131.415-.005-.368.261-.38.2-.368.263-.368.263.415-.006.438.122.473.316a4.8,4.8,0,0,1-.87,1.968l.053.255c.813-.1,1.488,1.15,2.333,2.857.1.422.606.742.621.8.4-.1.838-.025.869.092a4.857,4.857,0,0,0,1.3.1c.03.117.457.129.472.187l.061.232c.411-.046.837-.035.867.08s.487.239.913.247a10.274,10.274,0,0,0,1.308.137c.031.114.031.114-.76.327l-1.2.262,1.231-.148c1.216-.207,1.231-.151,1.6-.37.38-.163.76-.327.365-.22s-.395.106-.41.05a10.9,10.9,0,0,1,1.976-.532c.4-.107,1.2-.264,1.6-.37.79-.213.79-.213.73-.436-.03-.111-.06-.223-.455-.117l-.015-.056a1.84,1.84,0,0,0,1.448-.922c.31-.433.31-.432.72-.482s.438.058.467.167a1.511,1.511,0,0,0,.834-.046c.4-.105.821-.1.85.009.015.055.455.113.484.223.015.055.425,0,.425,0,.38-.161-.147-.547-.558-.5s-.524-.382.254-.643c-.014-.054-.028-.107-.437-.056-.424,0-.55-.486-.153-.588a1.845,1.845,0,0,1,.82-.1c.028.106.028.106.424,0,0,0,.41-.05.424,0,.041.159.437.055,1.2-.257.778-.259.765-.31-.055-.21-.809.15-1-.583.211-.826.012.051,0,0-.038-.152-.429-.046-.6-.679-.819-1.656a1.813,1.813,0,0,0-.172-1.264,2.519,2.519,0,0,0-.722-1.006c-.436-.111-.471-.3-.076-.419l-.06-.326c-.431-.072-.446-.165-.465-.3.39-.156.371-.289-.047-.317-.007-.045-.021-.136-.027-.181,0,0-.027-.18-.461-.305-.035-.187-.476-.485-.512-.8-.043-.4-.489-.584-1.316-.774s-1.26-.4-1.281-.681c-.018-.188-.029-.415-.027-.5l-.007-.268c.408-.057,0-.178-.008-.312-.005-.178-.416-.219-.826-.214-.818-.028-.823-.061-.416-.3a.6.6,0,0,0,.32-.5.77.77,0,0,0-.068-.319,1.341,1.341,0,0,0-.206-.316c-.374-.43-.37-.478-.772-.594l.005-.063c0-.031.007-.062.007-.062-.4-.1-.4-.131-.388-.2s.02-.133.422-.02c0,0,.406.085.025-.156.014-.09-.364-.349-.353-.417s-.375-.277-.375-.277c-.787-.323-.779-.376.035-.173.017-.07.417.056.425.025,0,0-.369-.262-.336-.4.024-.1-.339-.388-.715-.616-.38-.185-.364-.352-.255-.662l.165-.507a.991.991,0,0,1-.379-.719,2.3,2.3,0,0,1,.066-.658,3.376,3.376,0,0,1,.336-.9c.259-.523.51-.891.192-1.244-.293-.39.176-.284.507.045.167.161.213.1.245-.137a5.616,5.616,0,0,1,.225-1.214c.063-.07.154-.173-.084-.62-.172-.514.253-.9.568-.53l.117-.088c.038-.028-.163-.494-.122-.525s.119-.088.014-.626c-.015-.606.091-.643.4.331l.175-.1c.126-.077.23-.719.481-.813.284-.137.535-.208.366-.681l.052-.016a2.776,2.776,0,0,0,.334-1.125c-.019-.455.273-.926,1.125-1.378.124,0,.172-.4.172-.4H19c.142.387.819.451.713-.37l.065,0a.7.7,0,0,0,.332.32,3.289,3.289,0,0,0,.654.321,5.567,5.567,0,0,0,.765.23,2.01,2.01,0,0,0,.7.021,4.32,4.32,0,0,1,1.671,0,6.905,6.905,0,0,1,1.994.642,3.561,3.561,0,0,0,1.237.39,5,5,0,0,0,1.053-.024c.061.038.347-.264.412-.224.163-.379.426-.218.684-.053.188.127.764.02,1.1.242a3.466,3.466,0,0,1,.886.34,9.8,9.8,0,0,1,.976.566c.648.424.992.705,1.026.73-.2.361-.057.476.4.314.194.158.389.317.178.673.1.079.144.118.4-.2.049.039.049.039.357-.237.359-.238,1.264-.545,1.654-.22a8.959,8.959,0,0,1,1.54.781,2.359,2.359,0,0,0,1.234.537.953.953,0,0,1,.042-.508l-.321-.282a4.621,4.621,0,0,0,.481-1.21,10.58,10.58,0,0,1,.425-1.257c.174-.391.246-.869.146-.954C39.647,11.22,39.5,11.094,39.665,10.7ZM5.553,8.566c-.184.228-.123.152.061-.076a4.074,4.074,0,0,1,.316-.37C6.191,8.433,5.947,8.722,5.553,8.566Zm1.04-.543c-.2.207-.464-.112-.589-.576.068-.071.137-.142.4.183C6.4,7.63,6.658,7.955,6.593,8.023Zm12.475,30.56,1.189-.3c.4-.1.438.057-.709.525l-.75.367-.439-.06C17.906,39,18.26,38.731,19.068,38.583Z" transform="translate(57.3 227.014)"/><path class="a" d="M1.787.057,1.393.164c-.4.106-.365.218-.35.273A1.492,1.492,0,0,1,.3.819c-.76.327.045.167,1.2-.266.38-.163.76-.325.731-.436S2.182-.049,1.787.057Z" transform="translate(73.261 268.52)"/><path class="a" d="M.316.08C.181-.039.137-.078,0,.347l.223.2.09.079C.54.278.406.159.316.08Z" transform="translate(97.099 242.888)"/><path class="a" d="M0,0Z" transform="translate(97.414 243.512)"/><path class="a" d="M.014,0Z" transform="translate(73.378 242.309)"/><path class="a" d="M.766.722A6.605,6.605,0,0,0,.041,2.345c-.087.337-.037.484.16.544.356.213.432.029.548-.248l.232-.554c.1-.257.275-.525.409-.79A2.36,2.36,0,0,1,1.582.087C1.257-.173,1.06.185.766.722Z" transform="translate(58.409 239.072)"/><path class="a" d="M.313.72C.284.816.721.787.749.693.806.5.489.137.489.137-.23-.311-.038.462.313.72Z" transform="translate(57.576 244.396)"/><path class="a" d="M.592,0,.277.751C.113,1.238,0,1.637,0,1.637c.187.088.492-.213.658-.588C.859.692.933.254.592,0Z" transform="translate(57.757 242.525)"/><path class="a" d="M.32,1.654a1.262,1.262,0,0,0,.525-.423A2.407,2.407,0,0,0,1.16.037C.867-.263-.248,1.342.05,1.718.026,1.763.154,1.739.32,1.654Z" transform="translate(59.999 236.556)"/><path class="a" d="M0,0,0,0Z" transform="translate(58.439 242.332)"/><path class="a" d="M.037.133,0,.222.077.039C.116-.055.077.039.037.133Z" transform="translate(58.442 242.111)"/><path class="a" d="M1.8.082,1.408.2c-.391.12-.371.19-.361.225A2.3,2.3,0,0,1,.3.786C-.457,1.12.328.9,1.474.438c.379-.162.76-.32.743-.383S2.19-.038,1.8.082Z" transform="translate(150.362 245.303)"/><path class="a" d="M.945,0,.494.505.138.911,0,1.085C.261,1.383,1.394.728.945,0Z" transform="translate(140.812 209.165)"/><path class="a" d="M40.974,15.992a.693.693,0,0,1-.037-.8,2.218,2.218,0,0,0-.219-1.261,10.132,10.132,0,0,0-.465-1.023c-.206-.381-.456-.81-.753-1.289s-.664-.985-1.073-1.551c-.432-.537-.889-1.162-1.45-1.767a27.121,27.121,0,0,0-4.21-3.912,22.376,22.376,0,0,0-4.055-2.421,17.542,17.542,0,0,0-1.81-.7A14.776,14.776,0,0,0,25.316.832,11.24,11.24,0,0,0,23.01.539C22.465.52,22.156.6,22.131.7L21.958.68c.006-.207-.229-.444-.493-.58s-.557-.144-.641.052c-.043.211-.521.258-.993.259S18.888.306,18.87.1c-.09,0-.319.432-.581.448s-.616.038-.649.456l-.259.031c-.071-.2-.216-.284-.7-.222a10.8,10.8,0,0,0-2.617.9,7.943,7.943,0,0,0-1.529.758c-.521.338-1.041.653-1.449.888-.3.159-.558.293-.76.413a1.514,1.514,0,0,0-.422.357c-.166.223-.093.42.257.684.147-.081-.849.955-1.9,2.327A18.1,18.1,0,0,0,6.824,8.994a1.847,1.847,0,0,0-.146.177,14.154,14.154,0,0,1-.657,1.342c-.708.245-.807.378-1.47-.114-.332-.244-.386-.177-.438-.111a6.635,6.635,0,0,1-.266.672,11.7,11.7,0,0,1-.733,1.5c-.164.272-.343.546-.49.834s-.27.587-.378.862a2.537,2.537,0,0,0-.261,1.341c-.259.634-.313.8.037,1.023.7.455.947.971.175.69-.743-.356-.807-.193-.9.047-.132.321.068,1,.516.96l.059-.155.059-.155c.03-.078.422.052.783.26l-.14.374c-.1.305-.114.387-.855,0-.762-.306-.762-.3-.91.2-.1.338.18.843.156.924s-.048.165.332.332c.758.341,1.007.96.605.881-1.182-.314-1.331.38-1.662,2C.114,23.825,0,24.694,0,24.694c.4.078.38.248.358.419A1.228,1.228,0,0,0,.618,26.87c.4.122.4.2.393.287s-.009.166.4.2.4.109.4.189,0,.08.4.1c.412-.051.4.1-.42.215-.416.141-.418.225-.418.225.406.1.407.235.406.455a11.975,11.975,0,0,1-.614,1.108,2.007,2.007,0,0,1-.6.679c.006.133.013.265.013.265.41.016.734.364,1.021.934.137.284.3.633.445,1.021s.283.817.47,1.294c.071.457.548.84.558.9.4-.07.836.045.857.168a4.362,4.362,0,0,0,1.3.2c.027.122.453.156.466.214l.052.237c.412-.032.836-.011.862.1s.476.244.907.248a8.112,8.112,0,0,0,1.307.1c.03.1.03.1-.753.339l-1.193.3,1.225-.187c1.2-.254,1.217-.212,1.579-.431.377-.171.755-.336.363-.217s-.392.119-.406.07a13.005,13.005,0,0,1,1.96-.589c.392-.117,1.188-.313,1.579-.433.783-.238.783-.238.741-.382-.021-.072-.043-.144-.437-.035l-.011-.037a2.666,2.666,0,0,0,1.5-.736.985.985,0,0,1,.759-.366c.406-.059.419.006.433.072a2.271,2.271,0,0,0,.814-.1,2.154,2.154,0,0,1,.824-.1c.008.025.425-.014.438.03a2.342,2.342,0,0,0,.406-.07c.388-.135-.065-.208-.471-.134s-.451-.163.341-.369c-.006-.027-.011-.053-.417.008-.411.034-.473-.232-.071-.307a3.76,3.76,0,0,1,.816-.1c.012.052.012.052.413-.03a2.365,2.365,0,0,1,.412-.034c.017.073.416-.018,1.207-.23.8-.191.792-.2-.02-.083-.814.162-.871-.229.345-.4,0,.025,0,0-.011-.073a.415.415,0,0,1-.4-.223,2.2,2.2,0,0,1-.122-.658c.374-.337-.072-1.2-.469-1.466a.534.534,0,0,1-.307-.164c0-.027.1-.047.306-.05l0-.07c-.408-.033-.408-.05-.407-.066.409.021.409.016,0-.041V28.6a1.475,1.475,0,0,0-.4-.112c0-.025-.4-.169-.389-.239s-.389-.229-1.173-.573-1.164-.6-1.146-.714c.011-.077.036-.17.043-.208l.025-.113c.392.169.016-.073.029-.132s-.364-.3-.748-.506c-.765-.432-.765-.444-.341-.37.44.027.5-.246.262-.837s-.239-.621-.584-.94l.023-.051.023-.05c-.352-.3-.34-.332-.315-.385s.049-.108.4.208c0,0,.357.294.058-.126.033-.073-.259-.508-.234-.564s-.28-.446-.28-.446c-.654-.711-.631-.751.077-.135.031-.055.374.273.388.248,0,0-.282-.435-.219-.545.045-.079-.225-.534-.522-.942-.318-.376-.232-.494-.064-.73l.129-.181.144-.2a1.13,1.13,0,0,1-.152-.839,1.909,1.909,0,0,1,.225-.576,3.07,3.07,0,0,1,.568-.637c.4-.32.716-.554.516-1.035-.172-.51.247-.161.473.314s.194-.158.78-1.02c.076-.032.188-.079.08-.615-.036-.582.447-.726.647-.223l.123-.038c.04-.014-.032-.552.012-.56s.128-.026.16-.585c.129-.58.223-.6.277.5.023-.005.076-.016.175-.029.129-.008.366-.59.6-.592.277,0,.507,0,.463-.536l.048,0a2.421,2.421,0,0,0,.524-1.012.752.752,0,0,1,.113-.322,1.115,1.115,0,0,1,.231-.263,2.047,2.047,0,0,1,.892-.419c.106.028.23-.359.23-.359a1.408,1.408,0,0,1,.161.049c.034.433.6.634.675-.2a.227.227,0,0,1,.054.02c.008.22.316.561.7.839a2.05,2.05,0,0,0,1.179.518,1.984,1.984,0,0,1,.624.039,4.175,4.175,0,0,1,.787.221,5.266,5.266,0,0,1,1.56.9,2.52,2.52,0,0,0,.971.529,3.554,3.554,0,0,0,.9.085c.044.044.346-.231.393-.185.211-.362.406-.182.59.012.135.144.645.087.883.337a4.516,4.516,0,0,1,1.416,1.085,10.832,10.832,0,0,1,.826.95c-.247.35-.123.506.348.45.168.229.339.461.07.787.082.112.123.168.436-.1.042.058.041.056.4-.149a1.713,1.713,0,0,1,1.75.36,1.618,1.618,0,0,0,.244.246c.109.094.266.239.393.339a2.718,2.718,0,0,1,.68.677,2.229,2.229,0,0,0,.991.817.941.941,0,0,1,.2-.461l-.214-.347a4.7,4.7,0,0,0,.819-1,11.522,11.522,0,0,1,.775-1.068C40.836,16.529,41.044,16.1,40.974,15.992ZM11.1,4.286l.073-.039.366-.194C11.692,4.437,11.407,4.589,11.1,4.286Zm1.028-.068c-.223.1-.372-.284-.363-.739.077-.033.155-.067.3.32C12.064,3.8,12.206,4.185,12.131,4.218Zm4.657,28.137L18,32.138c.405-.072.41.02-.773.338l-.781.251-.424-.018C15.587,32.651,15.979,32.459,16.788,32.355Z" transform="translate(137.011 211.093)"/><path class="a" d="M0,.273.147.518l.059.1C.529.359.44.211.381.112.292-.037.263-.085,0,.273Z" transform="translate(175.907 231.208)"/><path class="a" d="M.513.869C.612.741.441.295.441.295-.05-.405-.1.312.133.687.082.752.463.933.513.869Z" transform="translate(140.519 210.614)"/><path class="a" d="M.014,0h0C0,0-.005.005.014,0Z" transform="translate(155.676 225.731)"/><path class="a" d="M.048,0,0,.047Z" transform="translate(141.945 208.696)"/><path class="a" d="M0,.067.061,0,.052.009Z" transform="translate(141.883 208.755)"/><path class="a" d="M.652,1.948l.931-.814A2.25,2.25,0,0,1,1.877.4.712.712,0,0,1,2.063.19C1.851-.175,1.586.04,1.2.378a9.3,9.3,0,0,0-1.077,1c-.167.23-.165.372-.012.512C.36,2.231.474,2.116.652,1.948Z" transform="translate(142.048 206.6)"/><path class="a" d="M.581.248C.239.489-.058.833.01,1.038c-.067.05.473.162.809-.079a1.577,1.577,0,0,0,.45-.536A2.059,2.059,0,0,0,1.411.092C1.323-.094.932.023.581.248Z" transform="translate(145.308 204.562)"/><path class="a" d="M0,0,0,0Z" transform="translate(141.877 208.826)"/><path class="a" d="M0,.023C.041-.014.028,0,0,.025Z" transform="translate(141.994 208.662)"/></g></svg>