<svg xmlns="http://www.w3.org/2000/svg" width="87.125" height="81.121" viewBox="0 0 87.125 81.121"><defs><style>.a{fill:#c6d8dd;opacity:0.796;mix-blend-mode:darken;isolation:isolate;}</style></defs><path class="a" d="M72.889,24.544a14.344,14.344,0,0,0-.388-2.626,37.941,37.941,0,0,0-1.4-4.565A25.681,25.681,0,0,0,66.4,9.229,24.148,24.148,0,0,0,58.039,3.5C54.094,1.724,49.707-.214,45.275.019a39.978,39.978,0,0,0-10.852,2.5c-.541.187-1.073.4-1.6.629l-.936.321C28.054,4.789,24.132,5.835,20.353,7.3a28.252,28.252,0,0,0-10.413,6.59A35.894,35.894,0,0,0,3.383,24.1,40.369,40.369,0,0,0,.149,36.124,31.756,31.756,0,0,0,.828,46.3c1.364,6.1,4.211,12.428,9.457,16.132a11,11,0,0,0,8.463,1.806c3.76-.691,7.011-3.16,10.156-5.19,3.814-2.461,7.538-5.062,11.523-7.245A43.341,43.341,0,0,1,46.5,49.042c1.946-.7,3.956-1.2,5.946-1.764A41.385,41.385,0,0,0,62.258,43.5a24.145,24.145,0,0,0,7.987-7.77,18.456,18.456,0,0,0,2.647-8.811A17.14,17.14,0,0,0,72.889,24.544Zm-3.235,2.517c-.027.36-.064.719-.107,1.078v.008c-.011.071-.021.142-.032.213q-.05.318-.11.634a18.357,18.357,0,0,1-.506,2.039c-.1.327-.214.65-.332.971-.054.148-.114.294-.17.441l-.006.016c-.041.093-.082.186-.124.278a13.613,13.613,0,0,1-.953,1.723,25.9,25.9,0,0,1-3.425,4.177,23.007,23.007,0,0,1-7.8,4.9c-3.53,1.425-7.238,2.367-10.731,3.883a78.177,78.177,0,0,0-11.3,6.419c-3.613,2.347-7.139,4.849-10.946,6.88a11.792,11.792,0,0,1-4.373,1.345,9.626,9.626,0,0,1-2-.04c.166.015-.6-.105-.369-.059-.149-.03-.3-.057-.446-.09q-.474-.107-.935-.259t-.912-.329l-.122-.047a.749.749,0,0,0-.078-.039c-.176-.082-.35-.166-.522-.255a15.546,15.546,0,0,1-1.688-1.006,16.749,16.749,0,0,1-2.89-2.7q-.162-.19-.319-.384c-.028-.034-.189-.238-.2-.256-.23-.3-.451-.606-.665-.917-.436-.632-.843-1.284-1.223-1.95a39,39,0,0,1-2.084-4.113,34.721,34.721,0,0,1-2.352-8.292A28.8,28.8,0,0,1,2.593,30.07a34.8,34.8,0,0,1,4.916-11.1A23.03,23.03,0,0,1,11.3,14.578a23,23,0,0,1,4.913-3.163A77.876,77.876,0,0,1,27.208,7.363c2.02-.64,4.017-1.341,6.018-2.035.6-.109,1.207-.212,1.787-.342,1.791-.4,3.586-.784,5.4-1.069a35.935,35.935,0,0,1,4.716-.561,17.008,17.008,0,0,1,5.242.664c2.21.6,4.371,1.417,6.51,2.227,1.663.63,3.523.864,5.108,1.682a13.713,13.713,0,0,1,5.677,6.057,18.918,18.918,0,0,1,2.074,8.606C69.752,24.08,69.765,25.575,69.654,27.061Z" transform="matrix(0.966, 0.259, -0.259, 0.966, 16.678, 0)"/></svg>