<svg xmlns="http://www.w3.org/2000/svg" width="98.547" height="27.16" viewBox="0 0 98.547 27.16"><defs><style>.a{fill:#d18c84;}</style></defs><g transform="translate(-1908.084 -3179.008)"><path class="a" d="M2006.427,3189.083c-.927-1.76-3-2.308-4.765-2.819-.382-.11-.756-.234-1.139-.35l-.1-.028a.47.47,0,0,0-.092-.042c-.321-.14-.637-.295-.953-.443-1.071-.5-2.135-1.023-3.2-1.542-3.647-1.777-7.308-3.631-11.323-4.4-6.854-1.316-13.638.364-19.652,3.732-3,1.68-5.844,3.592-8.966,5.053a24.112,24.112,0,0,1-8.759,2.384,18.45,18.45,0,0,1-4.694-.368,37.263,37.263,0,0,1-5.146-1.642,60.943,60.943,0,0,0-9.44-2.793,25.439,25.439,0,0,0-9.5-.215,17.124,17.124,0,0,0-8.556,4.372q-.993.933-1.9,1.951a.613.613,0,0,0,.867.866,21.2,21.2,0,0,1,8.524-4.369,20.84,20.84,0,0,1,8.416-.2,51.515,51.515,0,0,1,9.181,2.595c1.6.584,3.17,1.265,4.792,1.786a23.1,23.1,0,0,0,5.141,1.017c6.607.554,12.749-2.321,18.326-5.534,1.526-.879,3.015-1.817,4.58-2.623a28.541,28.541,0,0,1,4.326-1.845,22.721,22.721,0,0,1,8.938-1.235,27,27,0,0,1,9.366,2.594c2.11.978,4.188,2.023,6.282,3.029a24.209,24.209,0,0,0,2.929,1.266c.789.258,1.6.453,2.382.729a4.927,4.927,0,0,1,.864.378c.063.035.259.165.346.219.031.059.284.346.1.08a1.621,1.621,0,1,0,2.817-1.6Z"/><path class="a" d="M1996.811,3197.13a49.841,49.841,0,0,0-9.423-4.481,34.7,34.7,0,0,0-9.949-2.123,20.3,20.3,0,0,0-8.833,1.548,35.717,35.717,0,0,0-7.276,4.368,44.9,44.9,0,0,1-7.414,4.811,23.087,23.087,0,0,1-7.723,2.023,26.939,26.939,0,0,1-8.262-.649,83.233,83.233,0,0,1-8.3-2.76,37.471,37.471,0,0,0-9.393-2.121,19.258,19.258,0,0,0-4.776.266,18.19,18.19,0,0,0-2.3.55c-.876.277-1.679.706-2.531,1.045-.707.282-.421,1.437.3,1.161a17.185,17.185,0,0,1,4.379-.886,23.784,23.784,0,0,1,4.176.019,31.734,31.734,0,0,1,8.011,1.919c2.752.976,5.43,2.2,8.23,3.03a31.082,31.082,0,0,0,8.3,1.314,27.351,27.351,0,0,0,16.206-5.008,79.032,79.032,0,0,1,7.235-4.768,18.243,18.243,0,0,1,7.166-2.358,27.293,27.293,0,0,1,10.49,1.519c3.511,1.13,6.756,2.86,10.164,4.261a1.59,1.59,0,0,0,2.1-.579A1.565,1.565,0,0,0,1996.811,3197.13Z"/></g></svg>