<svg xmlns="http://www.w3.org/2000/svg" width="220.932" height="39.891" viewBox="0 0 220.932 39.891"><defs><style>.a{fill:#13505c;}</style></defs><g transform="translate(0)"><g transform="translate(0 20.914)"><path class="a" d="M59.434,106.456v18.153h4.742v-8.924h5.081v-.692H64.176v-7.869h7.866v-.667Z" transform="translate(-59.434 -105.991)"/><g transform="translate(24.24 0.464)"><path class="a" d="M87.047,107.123h1.059a4.628,4.628,0,0,1,1.413.17,1.673,1.673,0,0,1,.837.577,3.232,3.232,0,0,1,.459,1.238,16.068,16.068,0,0,1,.127,2.143,12.053,12.053,0,0,1-.1,1.779,3.786,3.786,0,0,1-.371,1.236,1.587,1.587,0,0,1-.744.72,2.98,2.98,0,0,1-1.338.238H87.047Zm9.91,16.117c-.229-.457-.437-.952-.639-1.433s-.384-.949-.538-1.383c-.109-.309-.193-.566-.259-.772l-.074-.229a6.046,6.046,0,0,0-.851-1.7,4.885,4.885,0,0,0-1.267-1.21,7.924,7.924,0,0,0-1.67-.715c-.279-.073-.576-.137-.9-.193q.529-.1,1.056-.235a7,7,0,0,0,1.932-.794,4.731,4.731,0,0,0,1.423-1.319,3.569,3.569,0,0,0,.544-1.98,4.513,4.513,0,0,0-.431-1.988,4.04,4.04,0,0,0-1.352-1.54,7.773,7.773,0,0,0-2.35-.952h0a14.642,14.642,0,0,0-3.446-.341h-5.8v18.153h4.717v-8.691h.8a4.1,4.1,0,0,1,1.329.168,1.585,1.585,0,0,1,.762.6A4.808,4.808,0,0,1,90.459,118c.178.682.356,1.472.515,2.288a22.5,22.5,0,0,0,.6,2.288,6.442,6.442,0,0,0,1.061,1.962l.053.069h5.159l-.239-.292a5.717,5.717,0,0,1-.649-1.076" transform="translate(-82.33 -106.455)"/></g><path class="a" d="M112.256,112.632l1.988,5.273h-4.117Zm1.9-6.615-7.547,18.616h.8l2.45-6.035h4.656l2.3,6.035h5.079L114.6,106.017Z" transform="translate(-56.664 -106.017)"/><path class="a" d="M144.828,106.456v11.812l-7.433-11.812H132.14v18.153h.744V108.162l9.958,16.446h2.73V106.456Z" transform="translate(-55.165 -105.991)"/><path class="a" d="M173.016,117.506a11.314,11.314,0,0,1-.837,2.717,8.226,8.226,0,0,1-1.411,2.168,6.275,6.275,0,0,1-1.96,1.407,5.656,5.656,0,0,1-2.475.524,4.04,4.04,0,0,1-2.348-.665,4.956,4.956,0,0,1-1.569-1.847,8.743,8.743,0,0,1-.909-2.806,21.1,21.1,0,0,1-.282-3.452,25.028,25.028,0,0,1,.231-3.482,9.541,9.541,0,0,1,.786-2.789,4.48,4.48,0,0,1,1.437-1.836,3.838,3.838,0,0,1,2.294-.663,6.7,6.7,0,0,1,4.9,1.6,7.627,7.627,0,0,1,1.986,4.69l.018.16h.722l-.023-.2a8.02,8.02,0,0,0-2.274-5.192,7.854,7.854,0,0,0-5.46-1.724,9.6,9.6,0,0,0-3.549.684,9.893,9.893,0,0,0-3.045,1.942,9.068,9.068,0,0,0-2.131,2.972,8.9,8.9,0,0,0-.815,3.84,9.647,9.647,0,0,0,.736,3.837,8.6,8.6,0,0,0,2.081,2.975,9.521,9.521,0,0,0,3.2,1.917,11.078,11.078,0,0,0,4.036.708,6.247,6.247,0,0,0,2.622-.529,6.725,6.725,0,0,0,2.2-1.483,8.512,8.512,0,0,0,1.608-2.343,11.11,11.11,0,0,0,.943-3.067l.034-.208h-.721Z" transform="translate(-53.747 -106.011)"/><path class="a" d="M184.531,106.456v18.153h13.485v-.668h-8.743v-8.513h5.416v-.693h-5.416v-7.611h8.33v-.667Z" transform="translate(-52.089 -105.991)"/><path class="a" d="M206.3,106.456v.667H211.8v17.486h4.742V107.123h5.493v-.667Z" transform="translate(-50.811 -105.991)"/><path class="a" d="M230.588,106.456v.667h5.493v17.486h4.743V107.123h5.493v-.667Z" transform="translate(-49.385 -105.991)"/><path class="a" d="M255.376,106.5v18.153h13.485v-.668h-8.743V115.47h5.415v-.693h-5.415v-7.611h8.33V106.5Z" transform="translate(-47.929 -105.989)"/></g><g transform="translate(83.61 0)"><path class="a" d="M146.814,92.54a5.188,5.188,0,0,1-.383,1.315,3.449,3.449,0,0,1-.67,1.02,2.841,2.841,0,0,1-.967.661,3.287,3.287,0,0,1-1.287.232,2.2,2.2,0,0,1-1.2-.324,2.541,2.541,0,0,1-.872-.89,4.093,4.093,0,0,1-.554-1.4,7.916,7.916,0,0,1-.194-1.79,8.741,8.741,0,0,1,.169-1.8,4.389,4.389,0,0,1,.49-1.4,2.621,2.621,0,0,1,.829-.9,2.316,2.316,0,0,1,1.211-.307A2.975,2.975,0,0,1,146.72,89.9l.033.243h.708l-.039-.316a3.992,3.992,0,0,0-1.3-2.706,4.3,4.3,0,0,0-2.781-.854,4.971,4.971,0,0,0-1.869.372,5.2,5.2,0,0,0-1.574,1.05,4.943,4.943,0,0,0-1.083,1.607v0a5.485,5.485,0,0,0-.015,4.134,4.7,4.7,0,0,0,1.07,1.611,4.8,4.8,0,0,0,1.618,1.038,5.183,5.183,0,0,0,2.015.385,3.813,3.813,0,0,0,1.557-.292,3.5,3.5,0,0,0,1.191-.8,4.14,4.14,0,0,0,.822-1.223,5.744,5.744,0,0,0,.438-1.522l.05-.323h-.712Z" transform="translate(-138.407 -86.263)"/><path class="a" d="M159.93,90.763h-3.8V86.441h-2.2v9.823h2.2V91.472h3.8v4.792h2.2V86.441h-2.2Z" transform="translate(-137.496 -86.253)"/><path class="a" d="M171.078,91.472h2.994v-.695h-2.994V87.135h4.363v-.695h-6.56v9.823h6.855v-.695h-4.658Z" transform="translate(-136.618 -86.253)"/><path class="a" d="M181.9,86.441v.695h5.115l-5.448,8.618-.043.069v.441h7.661v-.695h-5.061l5.421-8.577.043-.069v-.482Z" transform="translate(-135.875 -86.253)"/></g></g></svg>