<svg xmlns="http://www.w3.org/2000/svg" width="147.819" height="76.581" viewBox="0 0 147.819 76.581"><defs><style>.a{fill:#13505c;}</style></defs><g transform="translate(-31.341 -312.712)"><g transform="translate(31.341 312.712)"><path class="a" d="M50.64,77.926,48.5,78.69l.122.764a16.784,16.784,0,0,1,.222,4.372,11.177,11.177,0,0,1-.96,3.82,9.03,9.03,0,0,1-2.236,3.007A10.5,10.5,0,0,1,42,92.705a7.143,7.143,0,0,1-3.967.275A8.174,8.174,0,0,1,34.465,91.2a13.316,13.316,0,0,1-3.135-3.664,25.179,25.179,0,0,1-2.457-5.2,27.775,27.775,0,0,1-1.365-5.63,13.884,13.884,0,0,1,0-4.747,8.388,8.388,0,0,1,1.586-3.624,7.423,7.423,0,0,1,3.333-2.2c3.056-1.044,5.572-1.136,7.736-.267s3.929,2.717,5.419,5.669l.351.7,2.142-.764-.425-.853c-1.755-3.54-4.021-5.837-6.746-6.876s-5.829-.861-9.292.321a15.928,15.928,0,0,0-5.266,3.056,16.735,16.735,0,0,0-3.662,4.838,15.788,15.788,0,0,0-1.594,5.989h0a17.553,17.553,0,0,0,4.25,12.521,14.948,14.948,0,0,0,4.92,3.754,15.376,15.376,0,0,0,5.974,1.449h.94a16.873,16.873,0,0,0,5.546-.975,12.282,12.282,0,0,0,4.4-2.5,11.4,11.4,0,0,0,2.771-3.654,13.427,13.427,0,0,0,1.2-4.584,18.307,18.307,0,0,0-.26-5.065Z" transform="translate(-21.06 -54.465)"/><path class="a" d="M204.08,33l-1.184.153L193.94,65.761l2.419-.275L199.3,54.851l8.279-.917,4.945,9.758,7.316-.807L204.577,33.509Zm-4.166,19.555,2.442-8.913,4.151,8.149Z" transform="translate(-149.916 -32.06)"/><path class="a" d="M361.652,51.444,355.8,30.005l-7.38-.7,9.111,32.29,1.441.122,15.35-29.954-2.455-.244Z" transform="translate(-265.058 -29.31)"/><path class="a" d="M516.3,65.006l.649-2.075L497.3,56.75,488.05,86.172l20.522,6.46.665-2.075-13.962-4.385,3.868-12.292,8.964,2.822.657-2.068L499.8,71.813l3.433-10.919Z" transform="translate(-369.131 -49.762)"/><path class="a" d="M297.378,211.152v-5.068h.066a.163.163,0,0,0,.163-.163v-.6h0a.163.163,0,0,0-.163-.16h-.051v-.331a.474.474,0,0,0-.013-.059h0a.311.311,0,0,0-.232-.194h-2.037a.217.217,0,0,0-.1.079v.018h0v.471h-.066a.166.166,0,0,0-.178.148.086.086,0,0,0,0,.036v.588h0a.16.16,0,0,0,.16.163h.059v5.068c0,.787-1.189,1.423-1.864,2.378v-4.2a3.653,3.653,0,0,0-1.528-2.292c-.527-.41-.509-1.943-.509-1.943l-.092-5.376a.194.194,0,0,0,.092-.191v-.43c0-.234-.074-.255-.074-.255v-.2c-.028-.255-.336-.255-.336-.255h-2.037s-.3,0-.336.255v.2s-.074,0-.074.255v.43a.191.191,0,0,0,.094.191l-.089,5.373s.025,1.528-.509,1.943a4.412,4.412,0,0,0-1.314,1.513c-.176-.438-.3-.713-.3-.713a18.748,18.748,0,0,1-1.23-5.182v-.609l-.056-2.946.074-.423a.437.437,0,0,0,.025-.081v-.41h-.018v-.117a.425.425,0,0,0-.425-.42h-1.8a.425.425,0,0,0-.425.42h0v.117h0v.15a1.367,1.367,0,0,0,.036.339l.059.42v3.934a14.656,14.656,0,0,1-1.309,5.055,19.058,19.058,0,0,0-1.087,4.492v9.053h0v.107a2.735,2.735,0,0,0,.932,2.037,14.2,14.2,0,0,0,5.029.066l.451-14.456-.1,14.586v2.745a1.092,1.092,0,0,0,1.031,1.141,11.03,11.03,0,0,0,2.4.227h.14a11.034,11.034,0,0,0,2.259-.227h.094a1.162,1.162,0,0,0,.3-.089l.178-12.964.107,12.766h0l.025,2.951a.856.856,0,0,0,.851.845h4.981a.858.858,0,0,0,.853-.843l.2-15.714C299.708,212.985,297.378,212.272,297.378,211.152Z" transform="translate(-214.024 -154.775)"/></g></g></svg>