<svg xmlns="http://www.w3.org/2000/svg" width="181.467" height="94.013" viewBox="0 0 181.467 94.013"><defs><style>.a{fill:#fff;}</style></defs><g transform="translate(-31.341 -312.712)"><g transform="translate(31.341 312.712)"><path class="a" d="M57.374,81.31l-2.623.938.15.938a20.6,20.6,0,0,1,.272,5.368,13.721,13.721,0,0,1-1.179,4.689,11.086,11.086,0,0,1-2.745,3.692,12.892,12.892,0,0,1-4.486,2.52,8.769,8.769,0,0,1-4.871.338A10.035,10.035,0,0,1,37.516,97.6a16.347,16.347,0,0,1-3.848-4.5,30.911,30.911,0,0,1-3.017-6.387,34.1,34.1,0,0,1-1.676-6.912,17.044,17.044,0,0,1,0-5.827,10.3,10.3,0,0,1,1.948-4.449,9.113,9.113,0,0,1,4.092-2.7c3.751-1.282,6.84-1.394,9.5-.328s4.824,3.336,6.652,6.959l.431.863,2.629-.938L53.7,72.338c-2.154-4.345-4.936-7.165-8.281-8.441s-7.156-1.057-11.407.394a19.554,19.554,0,0,0-6.465,3.751,20.545,20.545,0,0,0-4.5,5.94A19.382,19.382,0,0,0,21.1,81.335h0a21.549,21.549,0,0,0,5.218,15.371,18.351,18.351,0,0,0,6.04,4.608,18.876,18.876,0,0,0,7.334,1.779h1.154a20.714,20.714,0,0,0,6.809-1.2,15.078,15.078,0,0,0,5.405-3.073,13.992,13.992,0,0,0,3.4-4.486,16.484,16.484,0,0,0,1.479-5.627,22.474,22.474,0,0,0-.319-6.218Z" transform="translate(-21.06 -52.508)"/><path class="a" d="M206.388,33l-1.454.188L193.94,73.218l2.97-.338,3.614-13.055L210.687,58.7l6.071,11.979,8.981-.991L207,33.625Zm-5.114,24.006,3-10.942,5.1,10Z" transform="translate(-139.895 -31.846)"/><path class="a" d="M364.663,56.483,357.48,30.163l-9.06-.853,11.185,39.64,1.769.15,18.844-36.773-3.014-.3Z" transform="translate(-246.082 -29.31)"/><path class="a" d="M522.731,66.885l.8-2.548L499.41,56.75,488.05,92.87l25.194,7.931.816-2.548L496.919,92.87l4.749-15.09,11,3.464.807-2.538-11-3.464,4.214-13.4Z" transform="translate(-342.062 -48.172)"/><path class="a" d="M301.345,214.227v-6.221h.081a.2.2,0,0,0,.2-.2v-.732h0a.2.2,0,0,0-.2-.2h-.062v-.406a.578.578,0,0,0-.016-.072h0a.381.381,0,0,0-.284-.238h-2.5a.266.266,0,0,0-.122.1v.022h0v.578h-.081a.2.2,0,0,0-.219.181.1.1,0,0,0,0,.044v.722h0a.2.2,0,0,0,.2.2h.072v6.221c0,.966-1.46,1.748-2.288,2.92v-5.161c-.072-1.563-1.876-2.814-1.876-2.814-.647-.5-.625-2.385-.625-2.385l-.113-6.6a.238.238,0,0,0,.113-.234v-.528c0-.288-.091-.313-.091-.313v-.244c-.034-.313-.413-.313-.413-.313h-2.5s-.369,0-.413.313v.241s-.091,0-.091.313v.528a.234.234,0,0,0,.116.234l-.109,6.6s.031,1.876-.625,2.385a5.417,5.417,0,0,0-1.613,1.857c-.216-.538-.369-.875-.369-.875a23.017,23.017,0,0,1-1.51-6.362v-.747l-.069-3.617.091-.519a.536.536,0,0,0,.031-.1v-.5h-.022v-.144a.522.522,0,0,0-.522-.516H283.3a.522.522,0,0,0-.522.516h0v.144h0v.184a1.677,1.677,0,0,0,.044.416l.072.516v4.83a17.992,17.992,0,0,1-1.607,6.205,23.4,23.4,0,0,0-1.335,5.515v11.113h0v.131a3.358,3.358,0,0,0,1.144,2.5,17.438,17.438,0,0,0,6.174.081l.553-17.747-.119,17.907v3.37a1.341,1.341,0,0,0,1.266,1.4,13.542,13.542,0,0,0,2.948.278h.172a13.546,13.546,0,0,0,2.773-.278h.116a1.426,1.426,0,0,0,.369-.109l.219-15.915.131,15.671h0l.031,3.623a1.05,1.05,0,0,0,1.044,1.038h6.115A1.054,1.054,0,0,0,303.934,238l.247-19.291C304.206,216.478,301.345,215.6,301.345,214.227Z" transform="translate(-199.017 -145.017)"/></g></g></svg>