<?xml version="1.0" standalone="no"?>
<!DOCTYPE svg PUBLIC "-//W3C//DTD SVG 1.1//EN" "http://www.w3.org/Graphics/SVG/1.1/DTD/svg11.dtd" >
<svg xmlns="http://www.w3.org/2000/svg" xmlns:xlink="http://www.w3.org/1999/xlink" version="1.1">
<metadata>
Created by FontForge 20191125 at Tue May  2 17:44:10 2017
 By convertio
Copyright \\\(C\\\)2016 Commercial Type.
</metadata>
<defs>
<font id="Canela-Light" horiz-adv-x="381" >
  <font-face 
    font-family="Canela Light"
    font-weight="300"
    font-stretch="normal"
    units-per-em="1000"
    panose-1="0 0 0 0 0 0 0 0 0 0"
    ascent="775"
    descent="-225"
    x-height="476"
    cap-height="732"
    bbox="-132 -260 1126 1150"
    underline-thickness="20"
    underline-position="-80"
    stemh="20"
    stemv="73"
    unicode-range="U+0020-FB04"
  />
<missing-glyph horiz-adv-x="161" 
 />
    <glyph glyph-name="f_b" unicode="fb" horiz-adv-x="827" 
d="M548 -15c-73 0 -123 25 -155 54l-37 -44h-7v624c0 84 -42 140 -92 140c-56 0 -89 -53 -89 -155v-128h118v-18h-118v-319c0 -75 8 -111 23 -137v-2h-120v2c17 26 24 61 24 137v319h-63v18h63v84c0 137 73 219 178 219c37 0 70 -10 94 -23l55 23v-373h2c35 51 96 85 166 85
c121 0 202 -99 202 -243c0 -139 -80 -263 -244 -263zM559 3c88 0 154 89 154 231c0 140 -70 209 -165 209c-56 -1 -104 -29 -126 -58v-209c0 -126 70 -173 137 -173z" />
    <glyph glyph-name="f_f" unicode="ff" horiz-adv-x="554" 
d="M71 0v2c17 26 24 61 24 137v319h-63v18h63v64c0 137 70 219 164 219c27 0 51 -7 60 -14l12 -92l-6 -2c-29 44 -60 88 -91 88c-36 0 -66 -53 -66 -155v-108h181v84c0 137 72 219 171 219c28 0 55 -7 67 -14l11 -92l-6 -2c-29 44 -58 88 -97 88c-40 0 -73 -53 -73 -155
v-128h118v-18h-118v-319c0 -75 8 -111 23 -137v-2h-120v2c17 26 24 61 24 137v319h-181v-319c0 -75 8 -111 23 -137v-2h-120z" />
    <glyph glyph-name="f_f_b" unicode="ffb" horiz-adv-x="1081" 
d="M801 -15c-73 0 -123 25 -154 54l-37 -44h-7v624c0 84 -43 140 -93 140c-55 0 -88 -53 -88 -155v-128h118v-18h-118v-319c0 -75 8 -111 23 -137v-2h-120v2c17 26 24 61 24 137v319h-181v-319c0 -75 8 -111 23 -137v-2h-120v2c17 26 24 61 24 137v319h-63v18h63v64
c0 137 70 219 164 219c27 0 51 -7 60 -14l12 -92l-6 -2c-29 44 -60 88 -91 88c-36 0 -66 -53 -66 -155v-108h181v84c0 137 73 219 178 219c37 0 70 -10 93 -23l56 23v-373h2c35 51 95 85 166 85c121 0 202 -99 202 -243c0 -139 -80 -263 -245 -263zM812 3
c89 0 155 89 155 231c0 140 -71 209 -165 209c-56 -1 -104 -29 -126 -58v-209c0 -126 70 -173 136 -173z" />
    <glyph glyph-name="f_f_h" unicode="ffh" horiz-adv-x="1059" 
d="M71 0v2c17 26 24 61 24 137v319h-63v18h63v64c0 137 70 219 164 219c27 0 51 -7 60 -14l12 -92l-6 -2c-29 44 -60 88 -91 88c-36 0 -66 -53 -66 -155v-108h181v84c0 137 73 219 178 219c37 0 70 -10 93 -23l56 23v-377c47 56 104 89 171 89c92 0 141 -56 141 -146v-191
c0 -71 1 -108 22 -152v-2h-118v2c19 44 23 86 23 152v175c0 62 -27 113 -103 113c-47 0 -97 -19 -136 -59v-254c0 -63 4 -96 22 -127v-2h-117v2c16 31 22 63 22 126v491c0 84 -43 140 -93 140c-55 0 -88 -53 -88 -155v-128h118v-18h-118v-319c0 -75 8 -111 23 -137v-2h-120
v2c17 26 24 61 24 137v319h-181v-319c0 -75 8 -111 23 -137v-2h-120z" />
    <glyph glyph-name="f_f_i" unicode="ffi" horiz-adv-x="746" 
d="M191 0h-120v2c17 26 24 61 24 137v319h-63v18h63v64c0 137 70 219 164 219c27 0 51 -7 60 -14l12 -92l-6 -2c-29 44 -60 88 -91 88c-36 0 -66 -53 -66 -155v-108h181v84c0 137 72 219 171 219c39 0 77 -13 92 -26l17 -129l-6 -2c-38 68 -81 137 -126 137
c-42 0 -75 -53 -75 -155v-128h142c57 0 85 8 112 20v-341c0 -69 1 -109 22 -153v-2h-118v2c16 44 23 83 23 152v204c0 50 -15 81 -40 100h-141v-319c0 -75 8 -111 23 -137v-2h-120v2c17 26 24 61 24 137v319h-181v-319c0 -75 8 -111 23 -137v-2z" />
    <glyph glyph-name="f_f_j" unicode="ffj" horiz-adv-x="742" 
d="M674 -29c0 -121 -53 -176 -134 -186l-2 5c44 26 65 61 65 141v427c0 50 -13 81 -36 100h-145v-319c0 -75 8 -111 23 -137v-2h-120v2c17 26 24 61 24 137v319h-181v-319c0 -75 8 -111 23 -137v-2h-120v2c17 26 24 61 24 137v319h-63v18h63v64c0 137 70 219 164 219
c27 0 51 -7 60 -14l12 -92l-6 -2c-29 44 -60 88 -91 88c-36 0 -66 -53 -66 -155v-108h181v84c0 137 72 219 171 219c39 0 77 -13 92 -26l17 -129l-6 -2c-38 68 -81 137 -126 137c-42 0 -75 -53 -75 -155v-128h142c57 0 85 8 112 20z" />
    <glyph glyph-name="f_f_k" unicode="ffk" horiz-adv-x="985" 
d="M985 0h-113l-179 249l129 144c25 28 35 60 8 81v2h123v-2c-54 -24 -79 -50 -115 -91l-85 -95l141 -196c34 -46 56 -71 91 -90v-2zM71 0v2c17 26 24 61 24 137v319h-63v18h63v64c0 137 70 219 164 219c27 0 51 -7 60 -14l12 -92l-6 -2c-29 44 -60 88 -91 88
c-36 0 -66 -53 -66 -155v-108h181v84c0 137 68 219 176 219c38 0 72 -10 95 -23l56 23v-650c0 -63 4 -96 22 -127v-2h-117v2c16 31 22 63 22 126v491c0 84 -43 140 -95 140c-53 0 -86 -53 -86 -155v-128h118v-18h-118v-319c0 -75 8 -111 23 -137v-2h-120v2
c17 26 24 61 24 137v319h-181v-319c0 -75 8 -111 23 -137v-2h-120z" />
    <glyph glyph-name="f_f_l" unicode="ffl" horiz-adv-x="746" 
d="M71 0v2c17 26 24 61 24 137v319h-63v18h63v64c0 137 70 219 164 219c27 0 51 -7 60 -14l12 -92l-6 -2c-29 44 -60 88 -91 88c-36 0 -66 -53 -66 -155v-108h181v84c0 137 73 219 178 219c36 0 69 -10 93 -23l56 23v-650c0 -63 4 -96 22 -127v-2h-117v2c16 31 22 63 22 126
v491c0 84 -43 140 -93 140c-55 0 -88 -53 -88 -155v-128h118v-18h-118v-319c0 -75 8 -111 23 -137v-2h-120v2c17 26 24 61 24 137v319h-181v-319c0 -75 8 -111 23 -137v-2h-120z" />
    <glyph glyph-name="f_f_t" unicode="fft" horiz-adv-x="843" 
d="M823 40c-20 -26 -62 -55 -117 -55c-53 0 -106 25 -106 115v358h-178v-319c0 -75 8 -111 23 -137v-2h-120v2c17 26 24 61 24 137v319h-181v-319c0 -75 8 -111 23 -137v-2h-120v2c17 26 24 61 24 137v319h-63v18h63v64c0 137 70 219 164 219c27 0 51 -7 60 -14l12 -92
l-6 -2c-29 44 -60 88 -91 88c-36 0 -66 -53 -66 -155v-108h181v84c0 137 72 219 171 219c28 0 55 -7 67 -14l11 -92l-6 -2c-29 44 -58 88 -97 88c-40 0 -73 -53 -73 -155v-128h134l112 91h5v-91h140v-18h-140v-358c0 -49 22 -75 73 -75c35 0 67 14 75 19z" />
    <glyph glyph-name="f_h" unicode="fh" horiz-adv-x="805" 
d="M191 0h-120v2c17 26 24 61 24 137v319h-63v18h63v84c0 137 73 219 178 219c36 0 69 -10 93 -23l56 23v-377c47 56 104 89 171 89c92 0 141 -56 141 -146v-191c0 -71 1 -108 22 -152v-2h-118v2c19 44 23 86 23 152v175c0 62 -27 113 -103 113c-47 0 -97 -19 -136 -59v-254
c0 -63 4 -96 22 -127v-2h-117v2c16 31 22 63 22 126v491c0 84 -42 140 -92 140c-56 0 -89 -53 -89 -155v-128h118v-18h-118v-319c0 -75 8 -111 23 -137v-2z" />
    <glyph glyph-name="f_i" unicode="fi" horiz-adv-x="492" 
d="M191 0h-120v2c17 26 24 61 24 137v319h-63v18h63v84c0 137 72 219 171 219c39 0 77 -13 93 -26l16 -129l-6 -2c-38 69 -81 137 -126 137c-42 0 -75 -53 -75 -155v-128h142c57 0 85 8 112 20v-341c0 -69 1 -109 22 -153v-2h-118v2c16 44 23 83 23 152v204
c0 50 -15 81 -40 100h-141v-319c0 -75 8 -111 23 -137v-2z" />
    <glyph glyph-name="f_j" unicode="fj" horiz-adv-x="487" 
d="M420 -29c0 -121 -53 -176 -134 -186l-2 5c44 26 65 61 65 141v427c0 50 -13 81 -36 100h-145v-319c0 -75 8 -111 23 -137v-2h-120v2c17 26 24 61 24 137v319h-63v18h63v84c0 137 72 219 171 219c39 0 77 -13 93 -26l16 -129l-6 -2c-38 68 -81 137 -126 137
c-42 0 -75 -53 -75 -155v-128h142c57 0 85 8 112 20z" />
    <glyph glyph-name="f_k" unicode="fk" horiz-adv-x="731" 
d="M191 0h-120v2c17 26 24 61 24 137v319h-63v18h63v84c0 137 68 219 177 219c37 0 70 -10 94 -23l56 23v-650c0 -63 4 -96 22 -127v-2h-117v2c16 31 22 63 22 126v491c0 84 -43 140 -95 140c-53 0 -86 -53 -86 -155v-128h118v-18h-118v-319c0 -75 8 -111 23 -137v-2zM731 0
h-113l-179 249l130 144c24 28 34 60 8 81v2h122v-2c-54 -24 -79 -50 -115 -91l-85 -95l141 -196c34 -46 56 -71 91 -90v-2z" />
    <glyph glyph-name="f_l" unicode="fl" horiz-adv-x="492" 
d="M191 2v-2h-120v2c17 26 24 61 24 137v319h-63v18h63v84c0 137 68 219 177 219c37 0 70 -10 94 -23l56 23v-650c0 -63 4 -96 22 -127v-2h-117v2c16 31 22 63 22 126v491c0 84 -43 140 -95 140c-53 0 -86 -53 -86 -155v-128h118v-18h-118v-319c0 -75 8 -111 23 -137z" />
    <glyph glyph-name="f_t" unicode="ft" horiz-adv-x="589" 
d="M569 40c-20 -26 -61 -55 -117 -55c-53 0 -106 25 -106 115v358h-178v-319c0 -75 8 -111 23 -137v-2h-120v2c17 26 24 61 24 137v319h-63v18h63v84c0 137 72 219 171 219c29 0 56 -7 67 -14l12 -92l-6 -2c-30 44 -59 88 -98 88c-40 0 -73 -53 -73 -155v-128h135l111 91h6
v-91h139v-18h-139v-358c0 -49 22 -75 72 -75c35 0 67 14 75 19z" />
    <glyph glyph-name=".notdef" horiz-adv-x="161" 
 />
    <glyph glyph-name="space" unicode=" " horiz-adv-x="159" 
 />
    <glyph glyph-name="exclam" unicode="!" horiz-adv-x="223" 
d="M152 732v-2l-33 -522h-15l-32 522v2h80zM112 -4c-31 0 -57 26 -57 56c0 32 26 57 57 57s56 -25 56 -57c0 -30 -25 -56 -56 -56z" />
    <glyph glyph-name="quotedbl" unicode="&#x22;" horiz-adv-x="304" 
d="M81 525l-37 207h84l-37 -207h-10zM213 525l-37 207h84l-37 -207h-10z" />
    <glyph glyph-name="numbersign" unicode="#" horiz-adv-x="585" 
d="M366 250l44 232h-190l-44 -232h190zM320 0l43 231h-190l-43 -231h-24l43 231h-133v19h136l44 232h-133v19h136l43 231h24l-43 -231h190l43 231h24l-43 -231h134v-19h-137l-44 -232h135v-19h-138l-43 -231h-24z" />
    <glyph glyph-name="dollar" unicode="$" horiz-adv-x="537" 
d="M278 -114h-24v99h-1c-68 0 -138 15 -198 38l-20 162l8 3c55 -118 119 -174 211 -182v343c-100 46 -199 92 -199 217c0 117 85 173 199 180v76h24v-75c60 0 118 -13 162 -30l20 -158l-8 -3c-48 118 -109 161 -174 169v-291l27 -12c101 -46 205 -96 205 -232
c0 -138 -106 -197 -232 -204v-100zM435 153c0 102 -73 146 -157 185v-333c105 0 157 63 157 148zM119 603c0 -83 61 -122 135 -158v282c-92 0 -135 -56 -135 -124z" />
    <glyph glyph-name="percent" unicode="%" horiz-adv-x="770" 
d="M189 346c-89 0 -160 87 -160 201s70 200 160 200s164 -86 164 -200s-75 -201 -164 -201zM189 361c67 0 90 79 90 186c0 106 -23 185 -90 185c-65 0 -86 -79 -86 -185c0 -107 21 -186 86 -186zM578 -8c-88 0 -160 87 -160 201s71 200 160 200c90 0 164 -86 164 -200
s-74 -201 -164 -201zM578 7c67 0 90 79 90 186c0 106 -23 185 -90 185c-65 0 -86 -79 -86 -185c0 -107 21 -186 86 -186zM140 1l-16 13l520 729l18 -11z" />
    <glyph glyph-name="ampersand" unicode="&#x26;" horiz-adv-x="763" 
d="M605 -15c-63 0 -112 32 -156 80c-49 -49 -109 -80 -191 -80c-146 0 -213 92 -213 195c0 101 63 176 161 215c-47 67 -73 118 -73 180c0 103 71 172 164 172c94 0 143 -67 143 -143c0 -84 -59 -149 -154 -188l74 -96c48 -64 89 -129 132 -179c57 83 84 184 84 236
c0 34 -11 54 -59 65v4h195v-4c-34 -9 -55 -21 -70 -39c-17 -19 -30 -46 -43 -79c-24 -59 -48 -132 -96 -195c42 -46 87 -77 142 -77c51 0 88 25 107 70l4 -2c-20 -77 -66 -135 -151 -135zM295 23c60 0 105 21 142 54c-52 59 -96 138 -146 205c-30 39 -55 72 -77 103
c-56 -33 -96 -89 -96 -174c0 -107 59 -188 177 -188zM191 610c0 -62 29 -108 89 -186c68 33 116 93 116 173c0 66 -32 131 -103 131c-55 0 -102 -39 -102 -118z" />
    <glyph glyph-name="quotesingle" unicode="'" horiz-adv-x="172" 
d="M81 525l-37 207h84l-37 -207h-10z" />
    <glyph glyph-name="parenleft" unicode="(" horiz-adv-x="308" 
d="M278 -120l-8 -10c-119 98 -193 252 -193 442s74 345 193 443l8 -10c-78 -99 -131 -250 -131 -433s53 -333 131 -432z" />
    <glyph glyph-name="parenright" unicode=")" horiz-adv-x="308" 
d="M38 -130l-8 10c78 99 131 249 131 432s-53 334 -131 433l8 10c119 -98 193 -253 193 -443s-74 -344 -193 -442z" />
    <glyph glyph-name="asterisk" unicode="*" horiz-adv-x="376" 
d="M246 456l-58 119l-58 -119l-52 37l95 92l-130 18l19 61l117 -62l-23 130h64l-24 -131l117 63l21 -61l-131 -18l94 -92z" />
    <glyph glyph-name="plus" unicode="+" horiz-adv-x="532" 
d="M487 298h-210v-210h-22v210h-210v20h210v210h22v-210h210v-20z" />
    <glyph glyph-name="comma" unicode="," horiz-adv-x="228" 
d="M48 -143l-7 8c37 33 62 79 62 116c0 22 -23 56 -45 79v2l75 56c26 -19 45 -50 45 -80c0 -77 -74 -145 -130 -181z" />
    <glyph glyph-name="hyphen" unicode="-" horiz-adv-x="281" 
d="M251 261h-221v44h221v-44z" />
    <glyph glyph-name="period" unicode="." horiz-adv-x="225" 
d="M112 -4c-30 0 -56 26 -56 56c0 32 26 57 56 57c31 0 57 -25 57 -57c0 -30 -26 -56 -57 -56z" />
    <glyph glyph-name="slash" unicode="/" horiz-adv-x="398" 
d="M-22 -130l382 911h26l-383 -911h-25z" />
    <glyph glyph-name="zero" unicode="0" horiz-adv-x="657" 
d="M327 -15c-160 0 -288 166 -288 381s127 381 288 381c162 0 290 -166 290 -381s-129 -381 -290 -381zM327 4c139 0 196 159 196 362s-56 362 -196 362c-138 0 -193 -159 -193 -362s55 -362 193 -362z" />
    <glyph glyph-name="one" unicode="1" horiz-adv-x="327" 
d="M267 0h-183v2c41 47 50 74 50 137v464h-88v6c61 34 115 80 163 136h8v-606c0 -64 9 -90 50 -137v-2z" />
    <glyph glyph-name="two" unicode="2" horiz-adv-x="518" 
d="M442 0h-434v12c291 244 378 384 378 532c0 115 -54 184 -149 184s-138 -70 -187 -166l-8 3l26 150c36 14 95 32 171 32c166 0 234 -86 234 -198c0 -155 -129 -291 -369 -475h228c78 0 109 31 150 85l8 -3z" />
    <glyph glyph-name="three" unicode="3" horiz-adv-x="543" 
d="M245 -15c-68 0 -144 19 -185 44l-22 140l8 2c65 -103 107 -167 203 -167c121 0 169 101 169 223c0 139 -62 208 -175 208c-59 0 -97 -19 -130 -44l-9 11l288 256h-322l32 74h393v-10l-316 -280c24 10 54 15 87 15c126 0 239 -76 239 -228c0 -146 -105 -244 -260 -244z
" />
    <glyph glyph-name="four" unicode="4" horiz-adv-x="556" 
d="M312 0v2c33 47 40 74 40 137v51h-344v12l339 530h96l-410 -519h319v259h82v-259h90l-8 -23h-82v-51c0 -64 7 -90 40 -137v-2h-162z" />
    <glyph glyph-name="five" unicode="5" horiz-adv-x="530" 
d="M234 -15c-76 0 -140 21 -177 44l-24 145l8 2c55 -102 107 -172 198 -172c110 0 169 92 169 225c0 136 -61 217 -185 217c-54 0 -99 -15 -139 -45l-9 6l53 325h352l-14 -74h-328l-39 -231c39 26 83 41 143 41c140 0 250 -81 250 -233c0 -151 -105 -250 -258 -250z" />
    <glyph glyph-name="six" unicode="6" horiz-adv-x="577" 
d="M293 -15c-150 0 -251 130 -251 288s100 378 386 474l4 -11c-161 -69 -248 -207 -283 -342c27 48 82 92 168 92c127 0 224 -92 224 -237c0 -154 -112 -264 -248 -264zM293 4c96 0 161 89 161 232c0 142 -62 213 -162 213c-63 0 -124 -29 -151 -88c-7 -36 -10 -72 -10 -105
c0 -125 45 -252 162 -252z" />
    <glyph glyph-name="seven" unicode="7" horiz-adv-x="489" 
d="M173 0h-90c74 266 213 487 343 658h-393l17 74h439v-10c-128 -187 -263 -429 -316 -722z" />
    <glyph glyph-name="eight" unicode="8" horiz-adv-x="544" 
d="M269 -15c-134 0 -236 73 -236 192c0 82 49 161 168 193c-100 53 -132 124 -132 190c0 108 85 187 205 187c111 0 198 -67 198 -170c0 -61 -31 -134 -143 -169c148 -67 182 -151 182 -219c0 -132 -109 -204 -242 -204zM270 4c105 0 173 60 173 153c0 92 -65 133 -222 203
l-3 2c-95 -45 -123 -114 -123 -185c0 -106 63 -173 175 -173zM134 593c0 -85 63 -128 177 -178c81 47 97 110 97 164c0 92 -48 149 -134 149c-88 0 -140 -59 -140 -135z" />
    <glyph glyph-name="nine" unicode="9" horiz-adv-x="577" 
d="M149 -15l-4 11c159 70 247 207 282 340c-27 -47 -83 -90 -170 -90c-124 0 -222 92 -222 237c0 154 112 264 249 264c149 0 251 -130 251 -288s-100 -378 -386 -474zM284 283c64 0 125 29 151 87c7 37 11 73 11 107c0 124 -46 251 -162 251c-96 0 -161 -89 -161 -231
c0 -143 62 -214 161 -214z" />
    <glyph glyph-name="colon" unicode=":" horiz-adv-x="225" 
d="M112 318c-30 0 -56 26 -56 56c0 32 26 57 56 57c31 0 57 -25 57 -57c0 -30 -26 -56 -57 -56zM112 -4c-30 0 -56 26 -56 56c0 32 26 57 56 57c31 0 57 -25 57 -57c0 -30 -26 -56 -57 -56z" />
    <glyph glyph-name="semicolon" unicode=";" horiz-adv-x="225" 
d="M42 -143l-7 8c37 33 62 79 62 116c0 22 -23 56 -45 79v2l75 56c26 -19 45 -50 45 -80c0 -77 -74 -145 -130 -181zM112 318c-30 0 -56 26 -56 56c0 32 26 57 56 57c31 0 57 -25 57 -57c0 -30 -26 -56 -57 -56z" />
    <glyph glyph-name="less" unicode="&#x3c;" horiz-adv-x="530" 
d="M475 85l-430 208v26l430 208v-25l-409 -196l409 -196v-25z" />
    <glyph glyph-name="equal" unicode="=" horiz-adv-x="532" 
d="M487 378h-442v21h442v-21zM487 237h-442v21h442v-21z" />
    <glyph glyph-name="greater" unicode="&#x3e;" horiz-adv-x="530" 
d="M485 293l-430 -208v25l409 196l-409 196v25l430 -208v-26z" />
    <glyph glyph-name="question" unicode="?" horiz-adv-x="430" 
d="M147 208h-16c25 167 182 181 182 377c0 91 -37 144 -113 144c-73 0 -113 -52 -153 -140l-7 2l20 127c29 11 82 29 145 29c123 0 192 -57 192 -164c0 -185 -204 -208 -250 -375zM145 -4c-31 0 -56 26 -56 56c0 32 25 57 56 57s57 -25 57 -57c0 -30 -26 -56 -57 -56z" />
    <glyph glyph-name="at" unicode="@" horiz-adv-x="853" 
d="M417 -161c-218 0 -382 135 -382 360c0 236 184 437 448 437c203 0 334 -115 334 -310c0 -160 -90 -294 -223 -294c-113 0 -124 98 -105 174l1 6c-43 -100 -105 -187 -173 -187c-47 0 -79 41 -79 115c0 150 117 315 265 315c30 0 56 -6 75 -16l32 16h6l-64 -241
c-24 -90 -26 -163 52 -163c104 0 172 131 172 275c0 188 -119 290 -297 290c-242 0 -392 -196 -392 -418c0 -212 137 -339 334 -339c78 0 158 21 214 60l8 -16c-60 -42 -139 -64 -226 -64zM350 77c60 0 117 120 154 209l32 121c-9 17 -26 29 -53 29
c-100 0 -176 -166 -176 -283c0 -60 19 -76 43 -76z" />
    <glyph glyph-name="B" unicode="B" horiz-adv-x="598" 
d="M298 0h-247v2c32 51 40 80 40 148v432c0 68 -8 97 -40 148v2c156 0 172 4 245 4c210 1 245 -96 245 -170c0 -82 -43 -152 -134 -179c124 -16 170 -98 170 -184c0 -117 -84 -203 -279 -203zM173 391h145c107 0 143 88 143 169c0 102 -61 156 -175 156
c-44 0 -82 -3 -113 -7v-318zM290 20c136 0 198 71 198 179c0 101 -52 172 -161 172h-154v-342c32 -5 73 -9 117 -9z" />
    <glyph glyph-name="C" unicode="C" horiz-adv-x="747" 
d="M698 227l-20 -167c-28 -21 -142 -75 -272 -75c-230 0 -371 168 -371 382c0 213 157 380 393 380c101 0 195 -28 246 -49l20 -152l-8 -2c-81 130 -152 183 -266 183c-201 0 -291 -154 -291 -360c0 -207 88 -362 279 -362c146 0 222 87 282 225z" />
    <glyph glyph-name="D" unicode="D" horiz-adv-x="734" 
d="M51 0v2c32 51 40 80 40 148v432c0 68 -8 97 -40 148v2c129 0 143 4 277 4c231 0 370 -130 370 -367s-137 -369 -380 -369h-267zM319 716l-146 1v-699l136 2c213 3 295 117 295 335c0 247 -96 360 -285 361z" />
    <glyph glyph-name="E" unicode="E" horiz-adv-x="601" 
d="M586 179l-44 -179h-491v2c26 50 39 83 39 138v452c0 56 -13 88 -39 138v2h441l39 -160l-8 -3c-50 59 -103 138 -140 140l-210 7v-338h126c37 0 69 60 96 95h8v-204h-8c-26 30 -59 89 -96 89h-126v-342l218 7c72 3 132 78 187 159z" />
    <glyph glyph-name="F" unicode="F" horiz-adv-x="558" 
d="M213 2v-2h-162v2c32 50 40 79 40 145v438c0 67 -8 95 -40 145v2h459l35 -160l-9 -3c-48 59 -102 140 -139 141l-224 6v-328h136c37 0 69 60 95 94h9v-204h-9c-25 31 -58 90 -95 90h-136v-221c0 -67 7 -95 40 -145z" />
    <glyph glyph-name="G" unicode="G" horiz-adv-x="793" 
d="M721 91c-48 -33 -138 -106 -300 -106c-237 0 -386 167 -386 381c0 213 153 381 404 381c115 0 204 -29 256 -48l20 -152l-8 -3c-73 128 -150 183 -277 183c-205 0 -301 -159 -301 -362c0 -202 83 -360 292 -360c130 0 223 54 223 159c0 88 -10 123 -46 166v2h163v-2
c-33 -46 -40 -78 -40 -157v-82z" />
    <glyph glyph-name="H" unicode="H" horiz-adv-x="733" 
d="M51 0v2c32 51 40 80 40 148v432c0 68 -8 97 -40 148v2h162v-2c-33 -51 -40 -79 -40 -148v-194h387v194c0 68 -7 97 -40 148v2h162v-2c-32 -51 -40 -79 -40 -148v-432c0 -69 8 -97 40 -148v-2h-162v2c33 51 40 80 40 148v218h-387v-218c0 -69 7 -97 40 -148v-2h-162z" />
    <glyph glyph-name="I" unicode="I" horiz-adv-x="263" 
d="M51 0v2c33 51 40 80 40 148v432c0 68 -7 97 -40 148v2h162v-2c-33 -51 -40 -79 -40 -148v-432c0 -69 7 -97 40 -148v-2h-162z" />
    <glyph glyph-name="J" unicode="J" horiz-adv-x="378" 
d="M296 127c0 -91 -54 -142 -146 -142c-35 0 -72 7 -107 22l-18 143l8 3c54 -96 91 -148 130 -148c31 0 52 30 52 88v489c0 69 -8 97 -40 148v2h161v-2c-32 -51 -40 -79 -40 -148v-455z" />
    <glyph glyph-name="K" unicode="K" horiz-adv-x="627" 
d="M51 0v2c33 51 40 80 40 148v432c0 68 -8 97 -40 148v2h162v-2c-33 -51 -40 -79 -40 -148v-432c0 -69 7 -97 40 -148v-2h-162zM627 0h-134l-294 372l210 230c54 60 53 99 27 128v2h162v-2c-80 -39 -113 -77 -158 -126l-172 -187l233 -296c52 -65 78 -91 125 -119z" />
    <glyph glyph-name="L" unicode="L" horiz-adv-x="563" 
d="M505 0h-454v2c32 51 40 80 40 148v432c0 68 -8 97 -40 148v2h162v-2c-33 -51 -40 -79 -40 -148v-567l181 7c74 4 133 69 188 160l8 -3z" />
    <glyph glyph-name="M" unicode="M" horiz-adv-x="869" 
d="M186 0h-153v2c47 59 58 90 58 165v448c-4 54 -20 78 -66 115v2h143l273 -605l267 605h136v-2c-53 -41 -66 -68 -66 -143v-435c0 -70 8 -98 40 -150v-2h-161v2c32 52 40 81 40 150v501l-280 -631h-18l-288 636l3 -491c0 -75 14 -106 72 -165v-2z" />
    <glyph glyph-name="N" unicode="N" horiz-adv-x="706" 
d="M597 -3l-487 634l4 -465c0 -75 13 -106 70 -164v-2h-148v2c45 58 55 89 55 164v455c-14 50 -37 80 -79 109v2h121l466 -606l-3 440c-1 75 -12 106 -61 164v2h138v-2c-45 -58 -55 -89 -55 -164v-566z" />
    <glyph glyph-name="O" unicode="O" horiz-adv-x="812" 
d="M405 -15c-198 0 -370 166 -370 380s172 382 370 382c199 0 372 -168 372 -382s-173 -380 -372 -380zM405 5c180 0 278 153 278 360c0 206 -98 362 -278 362c-179 0 -276 -156 -276 -362s97 -360 276 -360z" />
    <glyph glyph-name="P" unicode="P" horiz-adv-x="561" 
d="M51 0v2c32 51 40 80 40 148v432c0 68 -8 97 -40 148v2h239c197 0 256 -94 256 -200c0 -133 -95 -227 -270 -227h-103v-155c0 -69 7 -97 40 -148v-2h-162zM275 712c-22 0 -51 0 -102 -2v-385h101c134 0 188 93 188 206c0 146 -85 181 -187 181z" />
    <glyph glyph-name="Q" unicode="Q" horiz-adv-x="812" 
d="M679 -170c-178 0 -269 119 -294 156c-190 10 -350 172 -350 379c0 214 172 382 370 382c199 0 372 -168 372 -382c0 -213 -171 -378 -368 -380c160 -120 328 -89 412 -61l-34 -71c-23 -14 -60 -23 -108 -23zM405 5c180 0 278 153 278 360c0 206 -98 362 -278 362
c-179 0 -276 -156 -276 -362s97 -360 276 -360z" />
    <glyph glyph-name="R" unicode="R" horiz-adv-x="631" 
d="M291 712c-19 0 -61 0 -118 -1v-342h119c120 0 157 89 157 190c0 91 -36 153 -158 153zM51 0v2c32 51 40 80 40 148v432c0 68 -8 97 -40 148v2h256c161 0 227 -69 227 -173c0 -89 -45 -166 -142 -197l122 -232c39 -76 63 -103 112 -126v-4h-138l-181 349h-134v-199
c0 -69 7 -97 40 -148v-2h-162z" />
    <glyph glyph-name="S" unicode="S" horiz-adv-x="542" 
d="M440 717l20 -158l-8 -3c-54 132 -123 171 -198 171c-92 0 -135 -56 -135 -124c0 -101 91 -137 186 -181c101 -46 205 -96 205 -232c0 -147 -120 -205 -257 -205c-68 0 -138 15 -198 38l-20 162l8 3c60 -127 130 -183 234 -183c106 0 158 63 158 148
c0 109 -83 152 -174 193c-102 47 -206 92 -206 220c0 125 98 181 223 181c60 0 118 -13 162 -30z" />
    <glyph glyph-name="T" unicode="T" horiz-adv-x="671" 
d="M417 2v-2h-162v2c33 51 40 80 40 148v564l-133 -4c-37 -1 -96 -102 -139 -168l-8 3l38 187h565l39 -187l-8 -3c-44 66 -103 167 -140 168l-132 4v-564c0 -69 7 -97 40 -148z" />
    <glyph glyph-name="U" unicode="U" horiz-adv-x="690" 
d="M355 -15c-148 0 -273 73 -273 253v342c0 70 -7 98 -40 150v2h162v-2c-27 -43 -40 -80 -40 -150v-339c0 -172 90 -233 209 -233c161 0 212 115 212 242v315c0 75 -13 106 -72 165v2h159l2 -2c-54 -59 -67 -90 -67 -165v-314c0 -143 -62 -266 -252 -266z" />
    <glyph glyph-name="V" unicode="V" horiz-adv-x="631" 
d="M327 -8h-24l-224 603c-27 74 -45 105 -80 135v2h175v-2c-18 -24 -30 -78 -8 -138l179 -490l165 448c37 99 10 152 -11 180v2h133v-2c-46 -42 -62 -78 -90 -156z" />
    <glyph glyph-name="W" unicode="W" horiz-adv-x="970" 
d="M290 -9h-24l-188 606c-24 76 -37 103 -71 133v2h171v-2c-16 -24 -35 -66 -13 -137l146 -476l163 435l-16 45c-26 76 -40 103 -74 133v2h175v-2c-17 -23 -39 -64 -14 -137l165 -474l134 434c29 97 6 149 -13 177v2h132v-2c-47 -42 -65 -80 -91 -162l-179 -577h-24
l-184 529z" />
    <glyph glyph-name="X" unicode="X" horiz-adv-x="650" 
d="M158 2v-2h-152v2c56 37 89 74 135 144l148 226l-151 244c-35 57 -61 90 -102 114v2h189v-2c-26 -18 -23 -62 5 -109l117 -189l98 143c57 84 57 118 17 155v2h151v-2c-57 -37 -85 -75 -133 -144l-120 -175l182 -294c35 -58 60 -91 101 -115v-2h-188v2c26 18 23 62 -5 109
l-148 240l-126 -194c-57 -87 -55 -117 -18 -155z" />
    <glyph glyph-name="Y" unicode="Y" horiz-adv-x="584" 
d="M209 0v2c32 43 40 68 40 125v211l-158 276c-34 59 -60 92 -97 116v2h188v-2c-30 -18 -27 -62 -2 -107l144 -257l119 202c50 85 32 134 5 162v2h142v-2c-53 -41 -72 -75 -118 -152l-141 -239v-212c0 -58 7 -82 40 -125v-2h-162z" />
    <glyph glyph-name="Z" unicode="Z" horiz-adv-x="615" 
d="M543 0h-518v11l453 705l-201 -6c-107 -4 -169 -76 -221 -162l-8 3l47 181h483v-11l-452 -706l235 7c105 4 169 76 223 173l8 -3z" />
    <glyph glyph-name="bracketleft" unicode="[" horiz-adv-x="331" 
d="M95 -130v885h212v-19h-144v-847h144v-19h-212z" />
    <glyph glyph-name="backslash" unicode="\" horiz-adv-x="398" 
d="M420 -130h-25l-383 911h26z" />
    <glyph glyph-name="bracketright" unicode="]" horiz-adv-x="331" 
d="M236 755v-885h-212v19h144v847h-144v19h212z" />
    <glyph glyph-name="asciicircum" unicode="^" horiz-adv-x="412" 
d="M373 478l-167 179l-167 -179l-9 9l173 263h6l173 -263z" />
    <glyph glyph-name="underscore" unicode="_" horiz-adv-x="493" 
d="M461 -100h-430v19h430v-19z" />
    <glyph glyph-name="grave" unicode="`" horiz-adv-x="308" 
d="M231 539l-8 -6l-185 163l61 53z" />
    <glyph glyph-name="a" unicode="a" horiz-adv-x="468" 
d="M187 29c45 0 87 20 110 42v166c-94 -17 -192 -54 -192 -135c0 -43 27 -73 82 -73zM371 -12c-47 0 -70 29 -74 66c-33 -37 -87 -69 -151 -69c-65 0 -112 33 -112 94c0 110 153 160 263 173v100c0 54 -23 95 -103 95c-47 0 -99 -15 -137 -44l-5 6c40 48 106 82 185 82
c107 0 133 -58 133 -121v-294c0 -25 11 -43 39 -43c19 0 34 9 48 21l3 -2c-11 -26 -36 -64 -89 -64z" />
    <glyph glyph-name="b" unicode="b" horiz-adv-x="540" 
d="M260 -15c-73 0 -124 25 -156 55l-36 -45h-7v642c0 47 -21 74 -44 93v2l117 47v-373h3c35 51 95 85 165 85c122 0 203 -99 203 -243c0 -139 -81 -263 -245 -263zM271 3c88 0 154 89 154 231c0 140 -70 209 -165 209c-56 -1 -103 -29 -126 -58v-209
c0 -126 71 -173 137 -173z" />
    <glyph glyph-name="c" unicode="c" horiz-adv-x="472" 
d="M434 114l6 -3c-26 -75 -92 -126 -187 -126c-131 0 -220 95 -220 242c0 160 120 264 252 264c66 0 110 -19 133 -30l10 -102l-8 -2c-36 63 -87 116 -151 116c-97 0 -161 -80 -161 -212c0 -129 64 -212 176 -212c55 0 117 19 150 65z" />
    <glyph glyph-name="d" unicode="d" horiz-adv-x="554" 
d="M272 34c57 0 104 30 134 72v249c-14 91 -71 118 -123 118c-99 0 -168 -96 -168 -229c0 -129 60 -210 157 -210zM411 86h-3c-30 -52 -87 -101 -176 -101c-119 0 -197 94 -197 234c0 143 98 272 262 272c42 0 80 -8 109 -22v167c0 48 -21 75 -44 93v2l117 48v-623
c0 -97 12 -114 45 -135v-2l-113 -31v98z" />
    <glyph glyph-name="e" unicode="e" horiz-adv-x="476" 
d="M256 473c-80 0 -131 -63 -144 -159l250 5v8c0 100 -37 146 -106 146zM445 121c-25 -78 -94 -136 -192 -136c-132 0 -220 102 -220 245c0 159 111 261 227 261s190 -100 183 -193h-333c-1 -11 -1 -22 -1 -34c0 -134 64 -215 177 -215c61 0 120 24 154 75z" />
    <glyph glyph-name="f" unicode="f" horiz-adv-x="301" 
d="M71 0v2c17 26 24 61 24 137v319h-63v18h63v84c0 137 72 219 171 219c29 0 56 -7 67 -14l12 -92l-6 -2c-30 44 -59 88 -98 88c-40 0 -73 -53 -73 -155v-128h118v-18h-118v-319c0 -75 8 -111 23 -137v-2h-120z" />
    <glyph glyph-name="g" unicode="g" horiz-adv-x="497" 
d="M230 172c73 0 106 68 106 150c0 83 -31 151 -107 151c-77 0 -106 -70 -106 -151c0 -80 33 -150 107 -150zM475 -72c-2 -87 -92 -153 -249 -153c-127 0 -214 44 -214 117c0 53 46 90 94 103c-41 12 -65 35 -65 74c0 59 56 91 108 103c-60 28 -102 85 -102 150
c0 92 81 169 182 169c48 0 93 -18 126 -47l122 64l2 -1v-76h-4l-109 2c29 -29 46 -68 46 -111c0 -91 -82 -168 -182 -168c-24 0 -48 4 -69 13c-40 -15 -60 -38 -60 -65c0 -29 25 -46 93 -48l108 -4c110 -4 174 -50 173 -122zM254 -199c109 0 171 37 171 99
c0 55 -51 79 -135 82l-110 2c-23 1 -44 3 -62 7c-20 -12 -40 -40 -40 -79c0 -73 67 -111 176 -111z" />
    <glyph glyph-name="h" unicode="h" horiz-adv-x="529" 
d="M169 0h-118v2c19 44 22 82 22 152v476c0 50 -21 80 -44 100v2l117 47v-377c48 56 105 89 172 89c92 0 140 -56 140 -146v-191c0 -71 2 -108 22 -152v-2h-117v2c19 44 22 86 22 152v175c0 62 -27 113 -102 113c-48 0 -98 -19 -137 -59v-229c0 -68 2 -108 23 -152v-2z" />
    <glyph glyph-name="i" unicode="i" horiz-adv-x="218" 
d="M157 659c0 -28 -22 -50 -49 -50s-50 22 -50 50c0 27 23 50 50 50s49 -23 49 -50zM53 0v2c16 44 22 83 22 152v186c0 49 -21 79 -44 99v4l117 53v-341c0 -69 2 -109 22 -153v-2h-117z" />
    <glyph glyph-name="j" unicode="j" horiz-adv-x="215" 
d="M157 659c0 -28 -22 -50 -49 -50s-50 22 -50 50c0 27 23 50 50 50s49 -23 49 -50zM12 -215l-2 5c44 26 65 61 65 141v409c0 49 -21 79 -44 99v4l117 53l-2 -525c0 -121 -53 -176 -134 -186z" />
    <glyph glyph-name="k" unicode="k" horiz-adv-x="456" 
d="M51 0v2c16 31 22 64 22 126v509c0 47 -21 74 -44 92v2l117 48v-650c0 -62 5 -96 23 -127v-2h-118zM456 0h-113l-180 249l130 144c25 28 34 60 8 81v2h122v-2c-54 -24 -78 -50 -114 -91l-85 -96l141 -195c34 -46 56 -71 91 -90v-2z" />
    <glyph glyph-name="l" unicode="l" horiz-adv-x="216" 
d="M51 0v2c16 31 22 64 22 126v509c0 47 -22 74 -45 92v2l118 48v-650c0 -62 4 -96 22 -127v-2h-117z" />
    <glyph glyph-name="m" unicode="m" horiz-adv-x="768" 
d="M171 2v-2h-118v2c19 43 23 81 23 150v188c0 52 -21 81 -45 102v2l114 53v-94l4 -1c37 55 91 89 157 89c69 0 103 -34 114 -89l3 -1c39 55 92 90 158 90c85 0 117 -52 117 -135v-203c0 -70 2 -108 22 -151v-2h-117v2c18 43 22 85 22 150v188c0 55 -15 102 -82 102
c-49 0 -90 -25 -120 -62v-227c0 -70 2 -108 23 -151v-2h-118v2c19 43 22 85 22 150v188c0 55 -14 102 -82 102c-49 0 -90 -24 -119 -61v-228c0 -68 2 -108 22 -151z" />
    <glyph glyph-name="n" unicode="n" horiz-adv-x="530" 
d="M170 2v-2h-117v2c19 44 22 82 22 152v187c0 51 -21 80 -44 100v2l113 53v-93l4 -1c47 56 105 89 171 89c92 0 141 -56 141 -146v-190c0 -72 1 -109 22 -153v-2h-117v2c18 44 22 86 22 152v175c0 62 -27 113 -103 113c-47 0 -97 -19 -136 -59v-228c0 -69 2 -109 22 -153z
" />
    <glyph glyph-name="o" unicode="o" horiz-adv-x="562" 
d="M281 -15c-137 0 -251 114 -251 252c1 138 115 254 251 254c137 0 251 -116 251 -254s-114 -252 -251 -252zM281 4c113 0 167 108 167 233c0 126 -55 235 -167 235s-167 -109 -167 -235c0 -125 54 -233 167 -233z" />
    <glyph glyph-name="p" unicode="p" horiz-adv-x="554" 
d="M278 3c96 0 161 89 161 230s-70 210 -162 210c-59 0 -106 -29 -129 -58v-289c26 -65 77 -93 130 -93zM170 -225h-117v2c19 44 22 82 22 151v413c0 51 -21 80 -44 100v2l113 53v-89l7 -1c35 51 94 85 166 85c119 0 202 -99 202 -243c0 -139 -81 -263 -248 -263
c-54 0 -94 13 -123 30v-86c0 -68 2 -108 22 -152v-2z" />
    <glyph glyph-name="q" unicode="q" horiz-adv-x="545" 
d="M383 -225v2c19 44 23 83 23 151v155c-30 -50 -86 -98 -174 -98c-119 0 -197 94 -197 234c0 143 98 272 262 272c60 0 111 -17 140 -42l39 38h3v-558c0 -68 2 -108 22 -152v-2h-118zM272 34c57 0 104 30 134 72v250c-13 90 -70 117 -123 117c-99 0 -168 -96 -168 -229
c0 -129 60 -210 157 -210z" />
    <glyph glyph-name="r" unicode="r" horiz-adv-x="331" 
d="M53 0v2c19 44 22 82 22 152v187c0 51 -21 80 -44 100v2l113 53v-121l5 -1c44 47 91 117 160 117l-1 -99h-3c-16 11 -57 22 -80 22c-17 0 -50 -27 -77 -62v-197c0 -69 2 -109 22 -153v-2h-117z" />
    <glyph glyph-name="s" unicode="s" horiz-adv-x="386" 
d="M324 472l10 -98l-7 -2c-44 79 -92 101 -140 101c-58 0 -96 -34 -96 -82c0 -60 60 -81 128 -109c70 -28 142 -62 142 -157c0 -91 -71 -140 -181 -140c-58 0 -105 14 -139 28l-10 114l7 2c41 -88 89 -126 156 -126c74 0 107 46 107 95c0 60 -50 84 -117 111
c-66 27 -145 59 -145 152c0 97 85 130 169 130c44 0 89 -9 116 -19z" />
    <glyph glyph-name="t" unicode="t" horiz-adv-x="322" 
d="M185 -15c-53 0 -106 25 -106 115v358h-54v4l122 105h5v-91h140v-18h-140v-358c0 -49 22 -75 72 -75c36 0 65 13 76 19l2 -4c-20 -26 -61 -55 -117 -55z" />
    <glyph glyph-name="u" unicode="u" horiz-adv-x="506" 
d="M356 -12v103c-36 -54 -84 -106 -164 -106c-86 0 -131 60 -131 154v251c0 40 -17 67 -42 84v2h115v-321c0 -74 32 -112 96 -112c57 0 96 29 121 64v283c0 39 -16 67 -44 84v2h117v-338c0 -83 13 -98 45 -116v-2z" />
    <glyph glyph-name="v" unicode="v" horiz-adv-x="428" 
d="M208 -7l-145 372c-24 62 -37 88 -61 109v2h142v-2c-16 -19 -23 -53 -3 -106l101 -266l94 248c23 62 13 104 -10 124v2h103v-2c-33 -30 -47 -53 -69 -113l-142 -368h-10z" />
    <glyph glyph-name="w" unicode="w" horiz-adv-x="651" 
d="M187 -8l-122 374c-20 61 -36 89 -57 108v2h139v-2c-10 -15 -18 -54 -3 -102l79 -258l91 249l-1 3c-20 57 -35 89 -58 108v2h136v-2c-10 -15 -17 -51 2 -109l82 -250l80 235c22 63 12 104 -11 124v2h102v-2c-33 -30 -46 -53 -67 -113l-126 -369h-11l-119 345l-125 -345
h-11z" />
    <glyph glyph-name="x" unicode="x" horiz-adv-x="446" 
d="M114 2v-2h-109v2c42 31 63 50 98 101l86 125l-87 139c-32 52 -62 88 -88 107v2h146v-2c-21 -22 -9 -48 19 -94l66 -105l59 89c36 54 30 89 14 110v2h110v-2c-42 -31 -62 -50 -97 -101l-76 -115l94 -149c32 -53 63 -87 89 -107v-2h-145v2c21 26 7 48 -22 94l-72 116
l-69 -101c-37 -52 -32 -85 -16 -109z" />
    <glyph glyph-name="y" unicode="y" horiz-adv-x="429" 
d="M31 -225l-2 74c35 0 123 15 159 111l14 37l-140 368c-23 61 -36 87 -60 109v2h141v-2c-17 -19 -23 -55 -1 -115l98 -262l97 258c21 57 12 99 -13 119v2h105v-2c-32 -30 -46 -53 -68 -113l-165 -427c-45 -117 -96 -151 -165 -159z" />
    <glyph glyph-name="z" unicode="z" horiz-adv-x="428" 
d="M368 0h-350v7l291 452l-138 -4c-50 -1 -86 -46 -126 -91l-5 2l33 110h324v-8l-289 -451l151 3c60 1 95 43 139 101l5 -2z" />
    <glyph glyph-name="braceleft" unicode="{" horiz-adv-x="311" 
d="M286 -130h-25c-112 0 -171 45 -171 124c0 72 60 144 60 223c0 62 -42 86 -108 86h-17v19h17c66 0 108 24 108 86c0 79 -60 151 -60 223c0 79 59 124 171 124h25v-19h-25c-59 0 -98 -13 -98 -100c0 -55 33 -139 33 -211c0 -83 -52 -102 -119 -111v-3
c67 -9 119 -27 119 -111c0 -73 -33 -156 -33 -211c0 -87 38 -100 98 -100h25v-19z" />
    <glyph glyph-name="bar" unicode="|" horiz-adv-x="205" 
d="M114 -130h-23v911h23v-911z" />
    <glyph glyph-name="braceright" unicode="}" horiz-adv-x="311" 
d="M50 -130h-25v19h25c60 0 98 13 98 100c0 55 -33 138 -33 211c0 84 52 102 119 111v3c-67 9 -119 28 -119 111c0 72 33 156 33 211c0 87 -39 100 -98 100h-25v19h25c112 0 171 -45 171 -124c0 -72 -60 -144 -60 -223c0 -62 42 -86 108 -86h17v-19h-17
c-66 0 -108 -24 -108 -86c0 -79 60 -151 60 -223c0 -79 -59 -124 -171 -124z" />
    <glyph glyph-name="asciitilde" unicode="~" horiz-adv-x="452" 
d="M134 329c46 0 137 -51 205 -51c40 0 58 19 68 57l9 -2c-3 -39 -20 -110 -95 -110c-57 0 -153 51 -206 51c-39 0 -59 -21 -68 -59l-10 2c3 39 24 112 97 112z" />
    <glyph glyph-name="uni00A0" unicode="&#xa0;" horiz-adv-x="159" 
 />
    <glyph glyph-name="exclamdown" unicode="&#xa1;" horiz-adv-x="223" 
d="M152 -243v-2h-80v2l32 522h15zM112 491c31 0 56 -26 56 -56c0 -32 -25 -57 -56 -57s-57 25 -57 57c0 30 26 56 57 56z" />
    <glyph glyph-name="cent" unicode="&#xa2;" horiz-adv-x="472" 
d="M265 -114h-24v99c-125 6 -208 99 -208 242c0 142 94 239 208 260v70h24v-67c6 0 13 1 20 1c66 0 110 -19 133 -30l10 -102l-8 -2c-36 63 -87 116 -151 116h-4v-423c6 -1 12 -1 19 -1c55 0 117 19 150 65l6 -3c-25 -72 -87 -121 -175 -125v-100zM108 261
c0 -112 48 -189 133 -208v417c-81 -14 -133 -90 -133 -209z" />
    <glyph glyph-name="sterling" unicode="&#xa3;" horiz-adv-x="550" 
d="M547 170l-65 -170h-474v8c90 64 125 92 142 318l3 36h-81l5 19h78l7 91c14 192 112 275 207 275c45 0 89 -18 107 -32l20 -156l-9 -3c-40 101 -89 171 -138 171c-40 0 -73 -43 -98 -237l-15 -109h141l-5 -19h-138c-24 -181 -90 -261 -136 -294h273c86 0 119 26 168 105z
" />
    <glyph glyph-name="yen" unicode="&#xa5;" horiz-adv-x="545" 
d="M187 0v2c32 43 40 68 40 125v64h-174v19h174v112h-174v19h170l-137 273c-30 61 -57 92 -92 116v2h179v-2c-30 -18 -25 -61 -3 -107l130 -262l105 207c45 89 30 134 3 162v2h143v-2c-53 -41 -77 -71 -118 -152l-121 -237h172v-19h-175v-112h175v-19h-175v-64
c0 -58 7 -82 40 -125v-2h-162z" />
    <glyph glyph-name="brokenbar" unicode="&#xa6;" horiz-adv-x="205" 
d="M114 365h-23v416h23v-416zM114 -130h-23v415h23v-415z" />
    <glyph glyph-name="section" unicode="&#xa7;" horiz-adv-x="488" 
d="M242 169c19 -10 37 -19 54 -30c54 7 92 54 92 114c0 81 -69 118 -140 156c-18 10 -36 21 -54 32c-55 -7 -94 -53 -94 -114c0 -84 70 -120 142 -158zM222 -164c-51 0 -105 13 -133 25l-8 113l6 2c41 -87 87 -121 145 -121c63 0 107 43 107 106c0 80 -71 116 -143 155
c-74 39 -148 85 -148 182c0 79 50 140 130 154c-44 33 -78 75 -78 140c0 100 77 155 180 155c39 0 80 -8 107 -17l8 -97l-6 -2c-42 73 -78 97 -130 97c-66 0 -106 -47 -106 -109c0 -80 70 -117 142 -157s145 -84 145 -181c0 -77 -49 -138 -127 -153c46 -31 80 -72 80 -140
c0 -103 -76 -152 -171 -152z" />
    <glyph glyph-name="dieresis" unicode="&#xa8;" 
d="M340 659c0 -28 -22 -50 -49 -50c-28 0 -50 22 -50 50c0 27 22 50 50 50c27 0 49 -23 49 -50zM140 659c0 -28 -22 -50 -49 -50c-28 0 -50 22 -50 50c0 27 22 50 50 50c27 0 49 -23 49 -50z" />
    <glyph glyph-name="copyright" unicode="&#xa9;" horiz-adv-x="834" 
d="M35 367c0 212 171 380 381 380c211 0 382 -168 382 -380c0 -214 -172 -381 -382 -381s-381 167 -381 381zM61 367c0 -200 159 -361 355 -361c197 0 355 161 355 361c0 199 -158 359 -355 359c-196 0 -355 -160 -355 -359zM566 198c-16 -12 -76 -41 -146 -41
c-129 0 -207 92 -207 210c0 117 86 209 217 209c55 0 106 -16 134 -27l11 -96l-5 -2c-43 71 -82 108 -147 108c-100 0 -146 -83 -146 -192c0 -111 45 -193 143 -193c79 0 119 56 151 130l6 -2z" />
    <glyph glyph-name="ordfeminine" unicode="&#xaa;" horiz-adv-x="376" 
d="M158 391c32 0 60 13 76 30v126c-70 -14 -137 -42 -137 -101c0 -32 19 -55 61 -55zM294 354c-37 0 -56 22 -58 53c-24 -29 -66 -56 -117 -56c-50 0 -86 27 -86 74c0 86 115 125 201 137v71c0 46 -18 73 -77 73c-36 0 -76 -10 -107 -33l-5 6c32 39 85 68 150 68
c83 0 107 -47 107 -97v-223c0 -23 9 -36 28 -36c14 0 24 8 31 16l3 -1c-8 -21 -29 -52 -70 -52z" />
    <glyph glyph-name="guillemotleft" unicode="&#xab;" horiz-adv-x="415" 
d="M358 58l-8 -6l-145 175v20l145 175l8 -6l-91 -179zM208 58l-8 -6l-145 175v20l145 175l8 -6l-91 -179z" />
    <glyph glyph-name="registered" unicode="&#xae;" horiz-adv-x="456" 
d="M18 541c0 116 96 206 212 206s208 -90 208 -206c0 -115 -96 -205 -211 -205c-117 0 -209 89 -209 205zM42 541c0 -104 82 -185 186 -185s186 80 186 185s-82 186 -186 186c-105 0 -186 -81 -186 -186zM149 432v2c10 15 12 23 12 44v129c0 20 -2 29 -12 44v2h89
c51 0 73 -23 73 -56c0 -27 -15 -47 -45 -56l38 -70c13 -23 18 -31 34 -37v-2h-54l-54 101h-32v-55c0 -21 2 -29 12 -44v-2h-61zM230 637h-32v-87h33c32 0 42 22 42 46s-9 41 -43 41z" />
    <glyph glyph-name="macron" unicode="&#xaf;" 
d="M48 603v42h284v-42h-284z" />
    <glyph glyph-name="degree" unicode="&#xb0;" horiz-adv-x="296" 
d="M15 615c0 73 61 132 135 132c75 0 130 -59 130 -132c0 -74 -61 -133 -134 -133c-76 0 -131 59 -131 133zM40 615c0 -64 45 -112 108 -112s108 48 108 112c0 63 -45 111 -108 111s-108 -48 -108 -111z" />
    <glyph glyph-name="acute" unicode="&#xb4;" horiz-adv-x="380" 
d="M113 544l132 205l60 -53l-184 -159z" />
    <glyph glyph-name="paragraph" unicode="&#xb6;" horiz-adv-x="467" 
d="M396 0h-59v1c12 39 15 59 15 110v510c0 50 -2 71 -15 110v1h59v-1c-12 -39 -15 -59 -15 -110v-510c0 -49 2 -71 15 -110v-1zM297 0h-59v1c12 38 15 59 15 110v271h-57c-98 0 -176 79 -176 176c0 96 78 174 176 174h101v-1c-12 -38 -15 -59 -15 -110v-510
c0 -49 2 -72 15 -110v-1z" />
    <glyph glyph-name="periodcentered" unicode="&#xb7;" horiz-adv-x="221" 
d="M110 217c-30 0 -56 26 -56 56c0 32 26 57 56 57c31 0 57 -25 57 -57c0 -30 -26 -56 -57 -56z" />
    <glyph glyph-name="cedilla" unicode="&#xb8;" horiz-adv-x="380" 
d="M118 -255l-3 8c51 20 94 44 94 88c0 49 -57 55 -80 57l-2 2s55 89 63 102h28l-39 -60c50 -11 85 -38 85 -85c0 -60 -59 -94 -146 -112z" />
    <glyph glyph-name="ordmasculine" unicode="&#xba;" horiz-adv-x="451" 
d="M226 351c-109 0 -199 90 -199 198c1 107 91 198 199 198s198 -91 198 -198c0 -108 -90 -198 -198 -198zM226 366c84 0 125 84 125 183c0 98 -41 183 -125 183c-85 0 -126 -85 -126 -183c0 -99 40 -183 126 -183z" />
    <glyph glyph-name="guillemotright" unicode="&#xbb;" horiz-adv-x="415" 
d="M215 52l-8 6l91 179l-91 179l8 6l145 -175v-20zM65 52l-8 6l91 179l-91 179l8 6l145 -175v-20z" />
    <glyph glyph-name="onequarter" unicode="&#xbc;" horiz-adv-x="615" 
d="M167 354h-122v1c23 27 28 43 28 79v226h-48v5c40 20 77 46 109 80h5v-311c0 -37 5 -52 28 -79v-1zM62 1l-16 13l520 729l18 -11zM461 0v1c18 27 22 43 22 79v20h-168v7l176 278h78l-231 -269h145v118h67v-118h49l-4 -16h-45v-20c0 -37 5 -52 23 -79v-1h-112z" />
    <glyph glyph-name="onehalf" unicode="&#xbd;" horiz-adv-x="669" 
d="M52 1l-16 13l520 729l18 -11zM621 0h-241v7c144 127 189 201 189 280c0 57 -24 91 -67 91c-42 0 -70 -40 -98 -96l-5 2l12 92c19 7 50 17 93 17c92 0 131 -45 131 -104c0 -76 -66 -144 -188 -235h102c49 0 73 26 97 62l4 -2zM167 354h-122v1c23 27 28 43 28 79v226h-48v5
c40 20 77 46 109 80h5v-311c0 -37 5 -52 28 -79v-1z" />
    <glyph glyph-name="threequarters" unicode="&#xbe;" horiz-adv-x="666" 
d="M140 346c-39 0 -80 10 -102 23l-13 89l6 1c37 -58 61 -98 110 -98c55 0 80 48 80 112c0 70 -31 103 -84 103c-29 0 -50 -10 -68 -22l-6 8l140 122h-159l17 54h222v-5l-166 -144c11 3 23 4 37 4c68 0 134 -39 134 -120c0 -77 -60 -127 -148 -127zM113 1l-16 13l520 729
l18 -11zM512 0v1c18 27 22 43 22 79v20h-168v7l176 278h78l-231 -269h145v118h67v-118h49l-4 -16h-45v-20c0 -37 5 -52 23 -79v-1h-112z" />
    <glyph glyph-name="questiondown" unicode="&#xbf;" horiz-adv-x="430" 
d="M288 279h16c-25 -167 -182 -181 -182 -377c0 -91 37 -144 113 -144c73 0 113 52 153 140l7 -2l-20 -127c-29 -11 -82 -29 -145 -29c-123 0 -192 57 -192 164c0 185 204 208 250 375zM290 491c31 0 56 -26 56 -56c0 -32 -25 -57 -56 -57s-57 25 -57 57c0 30 26 56 57 56z
" />
    <glyph glyph-name="Agrave" unicode="&#xc0;" horiz-adv-x="630" 
d="M408 296l-122 337l-124 -337h246zM124 2v-2h-122v2c42 42 54 73 80 143l221 596h24l224 -606c30 -80 43 -103 77 -133v-2h-159v2c15 23 21 70 -4 137l-50 137h-261l-41 -112c-33 -88 -10 -136 11 -162zM397 790l-4 -8l-238 108l44 69z" />
    <glyph glyph-name="Aacute" unicode="&#xc1;" horiz-adv-x="630" 
d="M408 296l-122 337l-124 -337h246zM124 2v-2h-122v2c42 42 54 73 80 143l221 596h24l224 -606c30 -80 43 -103 77 -133v-2h-159v2c15 23 21 70 -4 137l-50 137h-261l-41 -112c-33 -88 -10 -136 11 -162zM218 790l197 169l41 -69l-233 -108z" />
    <glyph glyph-name="Acircumflex" unicode="&#xc2;" horiz-adv-x="630" 
d="M408 296l-122 337l-124 -337h246zM124 2v-2h-122v2c42 42 54 73 80 143l221 596h24l224 -606c30 -80 43 -103 77 -133v-2h-159v2c15 23 21 70 -4 137l-50 137h-261l-41 -112c-33 -88 -10 -136 11 -162zM462 782l-147 88l-147 -88l-8 8l152 155h5l152 -155z" />
    <glyph glyph-name="Atilde" unicode="&#xc3;" horiz-adv-x="630" 
d="M408 296l-122 337l-124 -337h246zM124 2v-2h-122v2c42 42 54 73 80 143l221 596h24l224 -606c30 -80 43 -103 77 -133v-2h-159v2c15 23 21 70 -4 137l-50 137h-261l-41 -112c-33 -88 -10 -136 11 -162zM238 903c63 0 112 -48 173 -48c35 0 52 17 64 60l9 -1
c-3 -47 -12 -120 -89 -120c-63 0 -112 48 -172 48c-36 0 -52 -17 -65 -60l-9 1c3 47 12 120 89 120z" />
    <glyph glyph-name="Adieresis" unicode="&#xc4;" horiz-adv-x="630" 
d="M408 296l-122 337l-124 -337h246zM124 2v-2h-122v2c42 42 54 73 80 143l221 596h24l224 -606c30 -80 43 -103 77 -133v-2h-159v2c15 23 21 70 -4 137l-50 137h-261l-41 -112c-33 -88 -10 -136 11 -162zM488 868c0 -28 -22 -50 -50 -50c-27 0 -50 22 -50 50s23 50 50 50
c28 0 50 -22 50 -50zM237 868c0 -28 -22 -50 -50 -50c-27 0 -50 22 -50 50s23 50 50 50c28 0 50 -22 50 -50z" />
    <glyph glyph-name="Aring" unicode="&#xc5;" horiz-adv-x="630" 
d="M408 296l-122 337l-124 -337h246zM124 2v-2h-122v2c42 42 54 73 80 143l221 596h24l224 -606c30 -80 43 -103 77 -133v-2h-159v2c15 23 21 70 -4 137l-50 137h-261l-41 -112c-33 -88 -10 -136 11 -162zM225 866c0 49 37 85 87 85s87 -35 87 -85s-38 -84 -87 -84
s-87 34 -87 84zM258 866c0 -41 19 -66 54 -66s54 25 54 66c0 40 -19 68 -54 68s-54 -28 -54 -68z" />
    <glyph glyph-name="AE" unicode="&#xc6;" horiz-adv-x="977" 
d="M465 592c0 31 -4 57 -14 80l-212 -376h226v296zM143 2v-2h-128v2c51 42 72 73 113 145l311 548c-8 13 -19 25 -33 35v2h461l39 -160l-8 -3c-49 59 -103 138 -139 140l-211 7v-338h127c36 0 69 60 95 95h8v-204h-8c-25 30 -58 89 -95 89h-127v-342l219 7
c72 3 131 78 187 159l8 -3l-45 -179h-491v2c26 50 39 83 39 138v136h-238l-68 -121c-43 -75 -35 -126 -16 -153z" />
    <glyph glyph-name="Ccedilla" unicode="&#xc7;" horiz-adv-x="747" 
d="M312 -255l-3 8c51 20 94 44 94 88c0 49 -57 55 -80 57l-2 2s34 57 53 86c-211 15 -339 177 -339 381c0 213 157 380 393 380c101 0 195 -28 246 -49l20 -152l-8 -2c-81 130 -152 183 -266 183c-201 0 -291 -154 -291 -360c0 -207 88 -362 279 -362c146 0 222 87 282 225
l8 -3l-20 -167c-28 -21 -142 -75 -272 -75h-5l-28 -43c50 -11 85 -38 85 -85c0 -60 -59 -94 -146 -112z" />
    <glyph glyph-name="Egrave" unicode="&#xc8;" horiz-adv-x="601" 
d="M586 179l-44 -179h-491v2c26 50 39 83 39 138v452c0 56 -13 88 -39 138v2h441l39 -160l-8 -3c-50 59 -103 138 -140 140l-210 7v-338h126c37 0 69 60 96 95h8v-204h-8c-26 30 -59 89 -96 89h-126v-342l218 7c72 3 132 78 187 159zM390 790l-4 -8l-238 108l44 69z" />
    <glyph glyph-name="Eacute" unicode="&#xc9;" horiz-adv-x="601" 
d="M586 179l-44 -179h-491v2c26 50 39 83 39 138v452c0 56 -13 88 -39 138v2h441l39 -160l-8 -3c-50 59 -103 138 -140 140l-210 7v-338h126c37 0 69 60 96 95h8v-204h-8c-26 30 -59 89 -96 89h-126v-342l218 7c72 3 132 78 187 159zM202 790l197 169l41 -69l-233 -108z" />
    <glyph glyph-name="Ecircumflex" unicode="&#xca;" horiz-adv-x="601" 
d="M586 179l-44 -179h-491v2c26 50 39 83 39 138v452c0 56 -13 88 -39 138v2h441l39 -160l-8 -3c-50 59 -103 138 -140 140l-210 7v-338h126c37 0 69 60 96 95h8v-204h-8c-26 30 -59 89 -96 89h-126v-342l218 7c72 3 132 78 187 159zM449 782l-147 88l-147 -88l-8 8l152 155
h5l152 -155z" />
    <glyph glyph-name="Edieresis" unicode="&#xcb;" horiz-adv-x="601" 
d="M586 179l-44 -179h-491v2c26 50 39 83 39 138v452c0 56 -13 88 -39 138v2h441l39 -160l-8 -3c-50 59 -103 138 -140 140l-210 7v-338h126c37 0 69 60 96 95h8v-204h-8c-26 30 -59 89 -96 89h-126v-342l218 7c72 3 132 78 187 159zM467 868c0 -28 -22 -50 -50 -50
c-27 0 -50 22 -50 50s23 50 50 50c28 0 50 -22 50 -50zM216 868c0 -28 -22 -50 -50 -50c-27 0 -50 22 -50 50s23 50 50 50c28 0 50 -22 50 -50z" />
    <glyph glyph-name="Igrave" unicode="&#xcc;" horiz-adv-x="263" 
d="M51 0v2c33 51 40 80 40 148v432c0 68 -7 97 -40 148v2h162v-2c-33 -51 -40 -79 -40 -148v-432c0 -69 7 -97 40 -148v-2h-162zM207 790l-4 -8l-238 108l44 69z" />
    <glyph glyph-name="Iacute" unicode="&#xcd;" horiz-adv-x="263" 
d="M51 0v2c33 51 40 80 40 148v432c0 68 -7 97 -40 148v2h162v-2c-33 -51 -40 -79 -40 -148v-432c0 -69 7 -97 40 -148v-2h-162zM42 790l197 169l41 -69l-233 -108z" />
    <glyph glyph-name="Icircumflex" unicode="&#xce;" horiz-adv-x="263" 
d="M51 0v2c33 51 40 80 40 148v432c0 68 -7 97 -40 148v2h162v-2c-33 -51 -40 -79 -40 -148v-432c0 -69 7 -97 40 -148v-2h-162zM279 782l-147 88l-147 -88l-8 8l152 155h5l152 -155z" />
    <glyph glyph-name="Idieresis" unicode="&#xcf;" horiz-adv-x="263" 
d="M277 868c0 -28 -23 -50 -50 -50s-50 22 -50 50s23 50 50 50s50 -22 50 -50zM86 868c0 -28 -22 -50 -50 -50c-27 0 -50 22 -50 50s23 50 50 50c28 0 50 -22 50 -50zM51 0v2c33 51 40 80 40 148v432c0 68 -7 97 -40 148v2h162v-2c-33 -51 -40 -79 -40 -148v-432
c0 -69 7 -97 40 -148v-2h-162z" />
    <glyph glyph-name="Eth" unicode="&#xd0;" horiz-adv-x="742" 
d="M3 358v18h96v206c0 68 -8 97 -40 148v2c129 0 143 4 277 4c231 0 370 -130 370 -367s-137 -369 -380 -369h-267v2c32 51 40 80 40 148v208h-96zM327 716l-146 1v-341h197v-18h-197v-340l136 2c213 3 295 117 295 335c0 247 -96 360 -285 361z" />
    <glyph glyph-name="Ntilde" unicode="&#xd1;" horiz-adv-x="706" 
d="M597 -3l-487 634l4 -465c0 -75 13 -106 70 -164v-2h-148v2c45 58 55 89 55 164v455c-14 50 -37 80 -79 109v2h121l466 -606l-3 440c-1 75 -12 106 -61 164v2h138v-2c-45 -58 -55 -89 -55 -164v-566zM291 903c63 0 112 -48 173 -48c35 0 52 17 64 60l9 -1
c-3 -47 -12 -120 -89 -120c-63 0 -112 48 -172 48c-36 0 -52 -17 -65 -60l-9 1c3 47 12 120 89 120z" />
    <glyph glyph-name="Ograve" unicode="&#xd2;" horiz-adv-x="812" 
d="M405 -15c-198 0 -370 166 -370 380s172 382 370 382c199 0 372 -168 372 -382s-173 -380 -372 -380zM405 5c180 0 278 153 278 360c0 206 -98 362 -278 362c-179 0 -276 -156 -276 -362s97 -360 276 -360zM491 790l-4 -8l-238 108l44 69z" />
    <glyph glyph-name="Oacute" unicode="&#xd3;" horiz-adv-x="812" 
d="M405 -15c-198 0 -370 166 -370 380s172 382 370 382c199 0 372 -168 372 -382s-173 -380 -372 -380zM405 5c180 0 278 153 278 360c0 206 -98 362 -278 362c-179 0 -276 -156 -276 -362s97 -360 276 -360zM316 790l197 169l41 -69l-233 -108z" />
    <glyph glyph-name="Ocircumflex" unicode="&#xd4;" horiz-adv-x="812" 
d="M405 -15c-198 0 -370 166 -370 380s172 382 370 382c199 0 372 -168 372 -382s-173 -380 -372 -380zM405 5c180 0 278 153 278 360c0 206 -98 362 -278 362c-179 0 -276 -156 -276 -362s97 -360 276 -360zM553 782l-147 88l-147 -88l-8 8l152 155h5l152 -155z" />
    <glyph glyph-name="Otilde" unicode="&#xd5;" horiz-adv-x="812" 
d="M405 -15c-198 0 -370 166 -370 380s172 382 370 382c199 0 372 -168 372 -382s-173 -380 -372 -380zM405 5c180 0 278 153 278 360c0 206 -98 362 -278 362c-179 0 -276 -156 -276 -362s97 -360 276 -360zM327 903c63 0 112 -48 173 -48c35 0 52 17 64 60l9 -1
c-3 -47 -12 -120 -89 -120c-63 0 -112 48 -172 48c-36 0 -52 -17 -65 -60l-9 1c3 47 12 120 89 120z" />
    <glyph glyph-name="Odieresis" unicode="&#xd6;" horiz-adv-x="812" 
d="M405 -15c-198 0 -370 166 -370 380s172 382 370 382c199 0 372 -168 372 -382s-173 -380 -372 -380zM405 5c180 0 278 153 278 360c0 206 -98 362 -278 362c-179 0 -276 -156 -276 -362s97 -360 276 -360zM581 868c0 -28 -22 -50 -50 -50c-27 0 -50 22 -50 50
s23 50 50 50c28 0 50 -22 50 -50zM330 868c0 -28 -22 -50 -50 -50c-27 0 -50 22 -50 50s23 50 50 50c28 0 50 -22 50 -50z" />
    <glyph glyph-name="multiply" unicode="&#xd7;" horiz-adv-x="472" 
d="M406 122l-170 170l-170 -170l-15 15l170 170l-170 170l15 15l170 -170l170 170l15 -15l-170 -170l170 -170z" />
    <glyph glyph-name="Oslash" unicode="&#xd8;" horiz-adv-x="812" 
d="M129 365c0 -112 28 -208 83 -273l371 564c-45 45 -105 71 -178 71c-179 0 -276 -156 -276 -362zM405 5c180 0 278 153 278 360c0 112 -29 209 -84 274l-371 -564c44 -44 104 -70 177 -70zM405 -15c-72 0 -140 22 -198 59l-48 -73h-27l57 86c-92 69 -154 180 -154 308
c0 214 172 382 370 382c72 0 140 -22 199 -60l49 75h27l-58 -88c93 -69 155 -181 155 -309c0 -214 -173 -380 -372 -380z" />
    <glyph glyph-name="Ugrave" unicode="&#xd9;" horiz-adv-x="690" 
d="M355 -15c-148 0 -273 73 -273 253v342c0 70 -7 98 -40 150v2h162v-2c-27 -43 -40 -80 -40 -150v-339c0 -172 90 -233 209 -233c161 0 212 115 212 242v315c0 75 -13 106 -72 165v2h159l2 -2c-54 -59 -67 -90 -67 -165v-314c0 -143 -62 -266 -252 -266zM462 790l-4 -8
l-238 108l44 69z" />
    <glyph glyph-name="Uacute" unicode="&#xda;" horiz-adv-x="690" 
d="M355 -15c-148 0 -273 73 -273 253v342c0 70 -7 98 -40 150v2h162v-2c-27 -43 -40 -80 -40 -150v-339c0 -172 90 -233 209 -233c161 0 212 115 212 242v315c0 75 -13 106 -72 165v2h159l2 -2c-54 -59 -67 -90 -67 -165v-314c0 -143 -62 -266 -252 -266zM282 790l197 169
l41 -69l-233 -108z" />
    <glyph glyph-name="Ucircumflex" unicode="&#xdb;" horiz-adv-x="690" 
d="M355 -15c-148 0 -273 73 -273 253v342c0 70 -7 98 -40 150v2h162v-2c-27 -43 -40 -80 -40 -150v-339c0 -172 90 -233 209 -233c161 0 212 115 212 242v315c0 75 -13 106 -72 165v2h159l2 -2c-54 -59 -67 -90 -67 -165v-314c0 -143 -62 -266 -252 -266zM519 782l-147 88
l-147 -88l-8 8l152 155h5l152 -155z" />
    <glyph glyph-name="Udieresis" unicode="&#xdc;" horiz-adv-x="690" 
d="M355 -15c-148 0 -273 73 -273 253v342c0 70 -7 98 -40 150v2h162v-2c-27 -43 -40 -80 -40 -150v-339c0 -172 90 -233 209 -233c161 0 212 115 212 242v315c0 75 -13 106 -72 165v2h159l2 -2c-54 -59 -67 -90 -67 -165v-314c0 -143 -62 -266 -252 -266zM547 868
c0 -28 -22 -50 -50 -50c-27 0 -50 22 -50 50s23 50 50 50c28 0 50 -22 50 -50zM296 868c0 -28 -22 -50 -50 -50c-27 0 -50 22 -50 50s23 50 50 50c28 0 50 -22 50 -50z" />
    <glyph glyph-name="Yacute" unicode="&#xdd;" horiz-adv-x="584" 
d="M209 0v2c32 43 40 68 40 125v211l-158 276c-34 59 -60 92 -97 116v2h188v-2c-30 -18 -27 -62 -2 -107l144 -257l119 202c50 85 32 134 5 162v2h142v-2c-53 -41 -72 -75 -118 -152l-141 -239v-212c0 -58 7 -82 40 -125v-2h-162zM234 790l197 169l41 -69l-233 -108z" />
    <glyph glyph-name="Thorn" unicode="&#xde;" horiz-adv-x="551" 
d="M270 542c-21 0 -46 0 -97 -3v-334h101c127 0 178 76 178 178c0 127 -85 159 -182 159zM213 2v-2h-162v2c33 51 40 80 40 148v432c0 68 -7 97 -40 148v2h162v-2c-33 -51 -40 -79 -40 -148v-20h113c189 0 250 -82 250 -178c0 -120 -92 -199 -260 -199h-103v-35
c0 -69 7 -97 40 -148z" />
    <glyph glyph-name="germandbls" unicode="&#xdf;" horiz-adv-x="568" 
d="M387 -15c-57 0 -99 16 -129 30l-10 114l8 2c38 -88 75 -128 139 -128s98 41 98 93c0 134 -226 96 -226 244c0 118 146 127 146 280c0 71 -33 139 -113 139c-83 0 -132 -70 -132 -194v-565h-97v2c17 26 24 61 24 137v319h-63v18h63v46c0 154 81 257 209 257
c88 0 172 -50 172 -151c0 -137 -158 -160 -158 -251c0 -112 235 -75 235 -252c0 -95 -69 -140 -166 -140z" />
    <glyph glyph-name="agrave" unicode="&#xe0;" horiz-adv-x="468" 
d="M187 29c45 0 87 20 110 42v166c-94 -17 -192 -54 -192 -135c0 -43 27 -73 82 -73zM371 -12c-47 0 -70 29 -74 66c-33 -37 -87 -69 -151 -69c-65 0 -112 33 -112 94c0 110 153 160 263 173v100c0 54 -23 95 -103 95c-47 0 -99 -15 -137 -44l-5 6c40 48 106 82 185 82
c107 0 133 -58 133 -121v-294c0 -25 11 -43 39 -43c19 0 34 9 48 21l3 -2c-11 -26 -36 -64 -89 -64zM288 539l-8 -6l-185 163l61 53z" />
    <glyph glyph-name="aacute" unicode="&#xe1;" horiz-adv-x="468" 
d="M187 29c45 0 87 20 110 42v166c-94 -17 -192 -54 -192 -135c0 -43 27 -73 82 -73zM371 -12c-47 0 -70 29 -74 66c-33 -37 -87 -69 -151 -69c-65 0 -112 33 -112 94c0 110 153 160 263 173v100c0 54 -23 95 -103 95c-47 0 -99 -15 -137 -44l-5 6c40 48 106 82 185 82
c107 0 133 -58 133 -121v-294c0 -25 11 -43 39 -43c19 0 34 9 48 21l3 -2c-11 -26 -36 -64 -89 -64zM158 544l132 205l60 -53l-184 -159z" />
    <glyph glyph-name="acircumflex" unicode="&#xe2;" horiz-adv-x="468" 
d="M187 29c45 0 87 20 110 42v166c-94 -17 -192 -54 -192 -135c0 -43 27 -73 82 -73zM371 -12c-47 0 -70 29 -74 66c-33 -37 -87 -69 -151 -69c-65 0 -112 33 -112 94c0 110 153 160 263 173v100c0 54 -23 95 -103 95c-47 0 -99 -15 -137 -44l-5 6c40 48 106 82 185 82
c107 0 133 -58 133 -121v-294c0 -25 11 -43 39 -43c19 0 34 9 48 21l3 -2c-11 -26 -36 -64 -89 -64zM353 540l-132 100l-130 -100l-8 8l135 171h5l138 -171z" />
    <glyph glyph-name="atilde" unicode="&#xe3;" horiz-adv-x="468" 
d="M187 29c45 0 87 20 110 42v166c-94 -17 -192 -54 -192 -135c0 -43 27 -73 82 -73zM371 -12c-47 0 -70 29 -74 66c-33 -37 -87 -69 -151 -69c-65 0 -112 33 -112 94c0 110 153 160 263 173v100c0 54 -23 95 -103 95c-47 0 -99 -15 -137 -44l-5 6c40 48 106 82 185 82
c107 0 133 -58 133 -121v-294c0 -25 11 -43 39 -43c19 0 34 9 48 21l3 -2c-11 -26 -36 -64 -89 -64zM152 681c48 0 90 -38 143 -38c33 0 50 15 60 49l9 -1c-3 -36 -16 -107 -82 -107c-49 0 -91 39 -144 39c-33 0 -50 -16 -59 -49l-10 1c3 36 16 106 83 106z" />
    <glyph glyph-name="adieresis" unicode="&#xe4;" horiz-adv-x="468" 
d="M187 29c45 0 87 20 110 42v166c-94 -17 -192 -54 -192 -135c0 -43 27 -73 82 -73zM371 -12c-47 0 -70 29 -74 66c-33 -37 -87 -69 -151 -69c-65 0 -112 33 -112 94c0 110 153 160 263 173v100c0 54 -23 95 -103 95c-47 0 -99 -15 -137 -44l-5 6c40 48 106 82 185 82
c107 0 133 -58 133 -121v-294c0 -25 11 -43 39 -43c19 0 34 9 48 21l3 -2c-11 -26 -36 -64 -89 -64zM366 659c0 -28 -22 -50 -49 -50c-28 0 -50 22 -50 50c0 27 22 50 50 50c27 0 49 -23 49 -50zM166 659c0 -28 -22 -50 -49 -50c-28 0 -50 22 -50 50c0 27 22 50 50 50
c27 0 49 -23 49 -50z" />
    <glyph glyph-name="aring" unicode="&#xe5;" horiz-adv-x="468" 
d="M187 29c45 0 87 20 110 42v166c-94 -17 -192 -54 -192 -135c0 -43 27 -73 82 -73zM371 -12c-47 0 -70 29 -74 66c-33 -37 -87 -69 -151 -69c-65 0 -112 33 -112 94c0 110 153 160 263 173v100c0 54 -23 95 -103 95c-47 0 -99 -15 -137 -44l-5 6c40 48 106 82 185 82
c107 0 133 -58 133 -121v-294c0 -25 11 -43 39 -43c19 0 34 9 48 21l3 -2c-11 -26 -36 -64 -89 -64zM135 654c0 49 37 85 87 85s87 -36 87 -85c0 -50 -37 -84 -87 -84s-87 34 -87 84zM168 654c0 -41 19 -66 54 -66s54 25 54 66c0 40 -19 68 -54 68s-54 -28 -54 -68z" />
    <glyph glyph-name="ae" unicode="&#xe6;" horiz-adv-x="725" 
d="M508 -15c-85 0 -151 40 -186 110c-34 -59 -92 -110 -177 -110c-68 0 -115 33 -115 94c0 110 152 160 263 173v100c0 54 -23 95 -104 95c-46 0 -98 -15 -136 -44l-5 6c40 48 106 82 185 82c78 0 111 -33 123 -77c39 50 94 77 155 77c114 0 183 -97 177 -193h-319
c-1 -12 -2 -25 -2 -39c0 -128 62 -210 174 -210c53 0 115 19 148 65l5 -3c-24 -75 -90 -126 -186 -126zM183 30c60 0 106 36 132 80c-14 34 -22 73 -22 117v10c-93 -17 -190 -54 -190 -135c0 -42 26 -72 80 -72zM510 473c-73 0 -125 -61 -139 -159l236 5v8
c0 100 -34 146 -97 146z" />
    <glyph glyph-name="ccedilla" unicode="&#xe7;" horiz-adv-x="472" 
d="M160 -255l-3 8c51 20 94 44 94 88c0 49 -57 55 -80 57l-2 2s35 58 53 87c-114 14 -189 105 -189 240c0 160 120 264 252 264c66 0 110 -19 133 -30l10 -102l-8 -2c-36 63 -87 116 -151 116c-97 0 -161 -80 -161 -212c0 -129 64 -212 176 -212c55 0 117 19 150 65l6 -3
c-26 -75 -92 -126 -187 -126h-4l-28 -43c50 -11 85 -38 85 -85c0 -60 -59 -94 -146 -112z" />
    <glyph glyph-name="egrave" unicode="&#xe8;" horiz-adv-x="476" 
d="M256 473c-80 0 -131 -63 -144 -159l250 5v8c0 100 -37 146 -106 146zM445 121c-25 -78 -94 -136 -192 -136c-132 0 -220 102 -220 245c0 159 111 261 227 261s190 -100 183 -193h-333c-1 -11 -1 -22 -1 -34c0 -134 64 -215 177 -215c61 0 120 24 154 75zM309 539l-8 -6
l-185 163l61 53z" />
    <glyph glyph-name="eacute" unicode="&#xe9;" horiz-adv-x="476" 
d="M256 473c-80 0 -131 -63 -144 -159l250 5v8c0 100 -37 146 -106 146zM445 121c-25 -78 -94 -136 -192 -136c-132 0 -220 102 -220 245c0 159 111 261 227 261s190 -100 183 -193h-333c-1 -11 -1 -22 -1 -34c0 -134 64 -215 177 -215c61 0 120 24 154 75zM179 544l132 205
l60 -53l-184 -159z" />
    <glyph glyph-name="ecircumflex" unicode="&#xea;" horiz-adv-x="476" 
d="M256 473c-80 0 -131 -63 -144 -159l250 5v8c0 100 -37 146 -106 146zM445 121c-25 -78 -94 -136 -192 -136c-132 0 -220 102 -220 245c0 159 111 261 227 261s190 -100 183 -193h-333c-1 -11 -1 -22 -1 -34c0 -134 64 -215 177 -215c61 0 120 24 154 75zM375 540
l-132 100l-130 -100l-8 8l135 171h5l138 -171z" />
    <glyph glyph-name="edieresis" unicode="&#xeb;" horiz-adv-x="476" 
d="M256 473c-80 0 -131 -63 -144 -159l250 5v8c0 100 -37 146 -106 146zM445 121c-25 -78 -94 -136 -192 -136c-132 0 -220 102 -220 245c0 159 111 261 227 261s190 -100 183 -193h-333c-1 -11 -1 -22 -1 -34c0 -134 64 -215 177 -215c61 0 120 24 154 75zM393 659
c0 -28 -22 -50 -49 -50c-28 0 -50 22 -50 50c0 27 22 50 50 50c27 0 49 -23 49 -50zM193 659c0 -28 -22 -50 -49 -50c-28 0 -50 22 -50 50c0 27 22 50 50 50c27 0 49 -23 49 -50z" />
    <glyph glyph-name="igrave" unicode="&#xec;" horiz-adv-x="218" 
d="M53 0v2c16 44 22 83 22 152v186c0 49 -21 79 -44 99v4l117 53v-341c0 -69 2 -109 22 -153v-2h-117zM172 539l-8 -6l-185 163l61 53z" />
    <glyph glyph-name="iacute" unicode="&#xed;" horiz-adv-x="218" 
d="M53 0v2c16 44 22 83 22 152v186c0 49 -21 79 -44 99v4l117 53v-341c0 -69 2 -109 22 -153v-2h-117zM53 544l132 205l60 -53l-184 -159z" />
    <glyph glyph-name="icircumflex" unicode="&#xee;" horiz-adv-x="218" 
d="M53 0v2c16 44 22 83 22 152v186c0 49 -21 79 -44 99v4l117 53v-341c0 -69 2 -109 22 -153v-2h-117zM243 540l-132 100l-130 -100l-8 8l135 171h5l138 -171z" />
    <glyph glyph-name="idieresis" unicode="&#xef;" horiz-adv-x="218" 
d="M239 659c0 -28 -22 -50 -50 -50c-27 0 -50 22 -50 50c0 27 23 50 50 50c28 0 50 -23 50 -50zM79 659c0 -28 -22 -50 -50 -50c-27 0 -50 22 -50 50c0 27 23 50 50 50c28 0 50 -23 50 -50zM53 0v2c16 44 22 83 22 152v186c0 49 -21 79 -44 99v4l117 53v-341
c0 -69 2 -109 22 -153v-2h-117z" />
    <glyph glyph-name="eth" unicode="&#xf0;" horiz-adv-x="566" 
d="M280 -15c-138 0 -250 108 -250 257c0 143 106 240 235 240c99 0 149 -55 171 -96c-20 90 -60 181 -127 256l-120 -81l-12 16l119 80c-43 45 -96 83 -160 111l4 10c75 -26 137 -60 188 -99l113 76l11 -16l-108 -73c137 -113 189 -263 189 -386c0 -176 -107 -295 -253 -295
zM279 3c117 0 171 109 171 251c0 25 -2 51 -5 77c-37 91 -105 129 -172 129c-98 0 -161 -79 -161 -226c0 -138 59 -231 167 -231z" />
    <glyph glyph-name="ntilde" unicode="&#xf1;" horiz-adv-x="530" 
d="M170 2v-2h-117v2c19 44 22 82 22 152v187c0 51 -21 80 -44 100v2l113 53v-93l4 -1c47 56 105 89 171 89c92 0 141 -56 141 -146v-190c0 -72 1 -109 22 -153v-2h-117v2c18 44 22 86 22 152v175c0 62 -27 113 -103 113c-47 0 -97 -19 -136 -59v-228c0 -69 2 -109 22 -153z
M205 681c48 0 90 -38 143 -38c33 0 50 15 60 49l9 -1c-3 -36 -16 -107 -82 -107c-49 0 -91 39 -144 39c-33 0 -50 -16 -59 -49l-10 1c3 36 16 106 83 106z" />
    <glyph glyph-name="ograve" unicode="&#xf2;" horiz-adv-x="562" 
d="M281 -15c-137 0 -251 114 -251 252c1 138 115 254 251 254c137 0 251 -116 251 -254s-114 -252 -251 -252zM281 4c113 0 167 108 167 233c0 126 -55 235 -167 235s-167 -109 -167 -235c0 -125 54 -233 167 -233zM336 539l-8 -6l-185 163l61 53z" />
    <glyph glyph-name="oacute" unicode="&#xf3;" horiz-adv-x="562" 
d="M281 -15c-137 0 -251 114 -251 252c1 138 115 254 251 254c137 0 251 -116 251 -254s-114 -252 -251 -252zM281 4c113 0 167 108 167 233c0 126 -55 235 -167 235s-167 -109 -167 -235c0 -125 54 -233 167 -233zM228 544l132 205l60 -53l-184 -159z" />
    <glyph glyph-name="ocircumflex" unicode="&#xf4;" horiz-adv-x="562" 
d="M281 -15c-137 0 -251 114 -251 252c1 138 115 254 251 254c137 0 251 -116 251 -254s-114 -252 -251 -252zM281 4c113 0 167 108 167 233c0 126 -55 235 -167 235s-167 -109 -167 -235c0 -125 54 -233 167 -233zM412 540l-132 100l-130 -100l-8 8l135 171h5l138 -171z
" />
    <glyph glyph-name="otilde" unicode="&#xf5;" horiz-adv-x="562" 
d="M281 -15c-137 0 -251 114 -251 252c1 138 115 254 251 254c137 0 251 -116 251 -254s-114 -252 -251 -252zM281 4c113 0 167 108 167 233c0 126 -55 235 -167 235s-167 -109 -167 -235c0 -125 54 -233 167 -233zM217 681c48 0 90 -38 143 -38c33 0 50 15 60 49l9 -1
c-3 -36 -16 -107 -82 -107c-49 0 -91 39 -144 39c-33 0 -50 -16 -59 -49l-10 1c3 36 16 106 83 106z" />
    <glyph glyph-name="odieresis" unicode="&#xf6;" horiz-adv-x="562" 
d="M281 -15c-137 0 -251 114 -251 252c1 138 115 254 251 254c137 0 251 -116 251 -254s-114 -252 -251 -252zM281 4c113 0 167 108 167 233c0 126 -55 235 -167 235s-167 -109 -167 -235c0 -125 54 -233 167 -233zM431 659c0 -28 -22 -50 -49 -50c-28 0 -50 22 -50 50
c0 27 22 50 50 50c27 0 49 -23 49 -50zM231 659c0 -28 -22 -50 -49 -50c-28 0 -50 22 -50 50c0 27 22 50 50 50c27 0 49 -23 49 -50z" />
    <glyph glyph-name="divide" unicode="&#xf7;" horiz-adv-x="546" 
d="M494 298h-442v20h442v-20zM273 85c-30 0 -56 26 -56 56c0 32 26 57 56 57c31 0 57 -25 57 -57c0 -30 -26 -56 -57 -56zM273 415c-30 0 -56 26 -56 56c0 32 26 57 56 57c31 0 57 -25 57 -57c0 -30 -26 -56 -57 -56z" />
    <glyph glyph-name="oslash" unicode="&#xf8;" horiz-adv-x="562" 
d="M281 -15c-49 0 -96 15 -135 40l-63 -92h-26l72 104c-60 47 -99 119 -99 200c1 138 115 254 251 254c49 0 94 -15 133 -40l65 93h26l-73 -106c60 -47 100 -120 100 -201c0 -138 -114 -252 -251 -252zM281 4c113 0 167 108 167 233c0 63 -14 121 -42 164l-238 -345
c27 -33 64 -52 113 -52zM114 237c0 -62 13 -120 40 -163l239 346c-27 32 -65 52 -112 52c-112 0 -167 -109 -167 -235z" />
    <glyph glyph-name="ugrave" unicode="&#xf9;" horiz-adv-x="506" 
d="M356 -12v103c-36 -54 -84 -106 -164 -106c-86 0 -131 60 -131 154v251c0 40 -17 67 -42 84v2h115v-321c0 -74 32 -112 96 -112c57 0 96 29 121 64v283c0 39 -16 67 -44 84v2h117v-338c0 -83 13 -98 45 -116v-2zM300 539l-8 -6l-185 163l61 53z" />
    <glyph glyph-name="uacute" unicode="&#xfa;" horiz-adv-x="506" 
d="M356 -12v103c-36 -54 -84 -106 -164 -106c-86 0 -131 60 -131 154v251c0 40 -17 67 -42 84v2h115v-321c0 -74 32 -112 96 -112c57 0 96 29 121 64v283c0 39 -16 67 -44 84v2h117v-338c0 -83 13 -98 45 -116v-2zM192 544l132 205l60 -53l-184 -159z" />
    <glyph glyph-name="ucircumflex" unicode="&#xfb;" horiz-adv-x="506" 
d="M356 -12v103c-36 -54 -84 -106 -164 -106c-86 0 -131 60 -131 154v251c0 40 -17 67 -42 84v2h115v-321c0 -74 32 -112 96 -112c57 0 96 29 121 64v283c0 39 -16 67 -44 84v2h117v-338c0 -83 13 -98 45 -116v-2zM373 540l-132 100l-130 -100l-8 8l135 171h5l138 -171z" />
    <glyph glyph-name="udieresis" unicode="&#xfc;" horiz-adv-x="506" 
d="M356 -12v103c-36 -54 -84 -106 -164 -106c-86 0 -131 60 -131 154v251c0 40 -17 67 -42 84v2h115v-321c0 -74 32 -112 96 -112c57 0 96 29 121 64v283c0 39 -16 67 -44 84v2h117v-338c0 -83 13 -98 45 -116v-2zM389 659c0 -28 -22 -50 -49 -50c-28 0 -50 22 -50 50
c0 27 22 50 50 50c27 0 49 -23 49 -50zM189 659c0 -28 -22 -50 -49 -50c-28 0 -50 22 -50 50c0 27 22 50 50 50c27 0 49 -23 49 -50z" />
    <glyph glyph-name="yacute" unicode="&#xfd;" horiz-adv-x="429" 
d="M31 -225l-2 74c35 0 123 15 159 111l14 37l-140 368c-23 61 -36 87 -60 109v2h141v-2c-17 -19 -23 -55 -1 -115l98 -262l97 258c21 57 12 99 -13 119v2h105v-2c-32 -30 -46 -53 -68 -113l-165 -427c-45 -117 -96 -151 -165 -159zM186 544l132 205l60 -53l-184 -159z" />
    <glyph glyph-name="thorn" unicode="&#xfe;" horiz-adv-x="549" 
d="M273 3c96 0 161 89 161 230s-70 210 -162 210c-59 0 -106 -29 -129 -58v-289c26 -65 77 -93 130 -93zM165 -223v-2h-117v2c19 44 22 82 22 151v709c0 47 -21 74 -44 92v2l117 48v-373h3c35 51 94 85 166 85c119 0 202 -99 202 -243c0 -139 -81 -263 -248 -263
c-54 0 -94 13 -123 30v-86c0 -68 2 -108 22 -152z" />
    <glyph glyph-name="ydieresis" unicode="&#xff;" horiz-adv-x="429" 
d="M31 -225l-2 74c35 0 123 15 159 111l14 37l-140 368c-23 61 -36 87 -60 109v2h141v-2c-17 -19 -23 -55 -1 -115l98 -262l97 258c21 57 12 99 -13 119v2h105v-2c-32 -30 -46 -53 -68 -113l-165 -427c-45 -117 -96 -151 -165 -159zM382 659c0 -28 -22 -50 -49 -50
c-28 0 -50 22 -50 50c0 27 22 50 50 50c27 0 49 -23 49 -50zM182 659c0 -28 -22 -50 -49 -50c-28 0 -50 22 -50 50c0 27 22 50 50 50c27 0 49 -23 49 -50z" />
    <glyph glyph-name="dotlessi" unicode="&#x131;" horiz-adv-x="218" 
d="M53 0v2c16 44 22 83 22 152v186c0 49 -21 79 -44 99v4l117 53v-341c0 -69 2 -109 22 -153v-2h-117z" />
    <glyph glyph-name="Lslash" unicode="&#x141;" horiz-adv-x="571" 
d="M20 219v25l79 41v297c0 68 -8 97 -40 148v2h162v-2c-33 -51 -40 -79 -40 -148v-255l248 130v-25l-248 -130v-287l181 7c74 4 133 69 188 160l8 -3l-45 -179h-454v2c32 51 40 80 40 148v110z" />
    <glyph glyph-name="lslash" unicode="&#x142;" horiz-adv-x="239" 
d="M15 259v28l68 62v288c0 47 -22 74 -45 92v2l118 48v-364l67 61v-28l-67 -61v-258c0 -62 4 -96 22 -127v-2h-117v2c16 31 22 64 22 126v193z" />
    <glyph glyph-name="OE" unicode="&#x152;" horiz-adv-x="1042" 
d="M427 20l73 -2c20 42 30 73 30 122v452c0 51 -10 80 -32 123l-82 -1c-182 -3 -287 -112 -287 -355c0 -222 92 -333 298 -339zM1027 179l-45 -179h-564c-237 0 -383 132 -383 369c0 236 149 363 372 363h525l39 -160l-8 -3c-49 59 -103 138 -139 140l-211 7v-338h127
c36 0 69 60 95 95h8v-204h-8c-25 30 -58 89 -95 89h-127v-342l219 7c72 3 131 78 187 159z" />
    <glyph glyph-name="oe" unicode="&#x153;" horiz-adv-x="894" 
d="M676 473c-75 0 -129 -61 -143 -159l243 5v8c0 100 -34 146 -100 146zM281 3c114 0 170 108 170 232c0 125 -57 233 -170 233s-170 -108 -170 -233c0 -124 56 -232 170 -232zM864 111c-25 -75 -93 -126 -190 -126c-88 0 -155 41 -190 113c-43 -68 -118 -113 -203 -113
c-137 0 -251 113 -251 250c1 137 115 251 251 251c86 0 163 -48 207 -119c40 79 113 124 191 124c116 0 185 -97 178 -193h-326c-1 -12 -2 -25 -2 -39c0 -128 63 -210 178 -210c53 0 118 19 152 65z" />
    <glyph glyph-name="Scaron" unicode="&#x160;" horiz-adv-x="542" 
d="M440 717l20 -158l-8 -3c-54 132 -123 171 -198 171c-92 0 -135 -56 -135 -124c0 -101 91 -137 186 -181c101 -46 205 -96 205 -232c0 -147 -120 -205 -257 -205c-68 0 -138 15 -198 38l-20 162l8 3c60 -127 130 -183 234 -183c106 0 158 63 158 148
c0 109 -83 152 -174 193c-102 47 -206 92 -206 220c0 125 98 181 223 181c60 0 118 -13 162 -30zM272 782h-4l-152 155l7 8l147 -88l147 88l7 -8z" />
    <glyph glyph-name="scaron" unicode="&#x161;" horiz-adv-x="386" 
d="M324 472l10 -98l-7 -2c-44 79 -92 101 -140 101c-58 0 -96 -34 -96 -82c0 -60 60 -81 128 -109c70 -28 142 -62 142 -157c0 -91 -71 -140 -181 -140c-58 0 -105 14 -139 28l-10 114l7 2c41 -88 89 -126 156 -126c74 0 107 46 107 95c0 60 -50 84 -117 111
c-66 27 -145 59 -145 152c0 97 85 130 169 130c44 0 89 -9 116 -19zM193 540l-136 171l8 8l130 -100l132 100l8 -8l-138 -171h-4z" />
    <glyph glyph-name="Ydieresis" unicode="&#x178;" horiz-adv-x="584" 
d="M209 0v2c32 43 40 68 40 125v211l-158 276c-34 59 -60 92 -97 116v2h188v-2c-30 -18 -27 -62 -2 -107l144 -257l119 202c50 85 32 134 5 162v2h142v-2c-53 -41 -72 -75 -118 -152l-141 -239v-212c0 -58 7 -82 40 -125v-2h-162zM495 868c0 -28 -22 -50 -50 -50
c-27 0 -50 22 -50 50s23 50 50 50c28 0 50 -22 50 -50zM244 868c0 -28 -22 -50 -50 -50c-27 0 -50 22 -50 50s23 50 50 50c28 0 50 -22 50 -50z" />
    <glyph glyph-name="Zcaron" unicode="&#x17d;" horiz-adv-x="615" 
d="M543 0h-518v11l453 705l-201 -6c-107 -4 -169 -76 -221 -162l-8 3l47 181h483v-11l-452 -706l235 7c105 4 169 76 223 173l8 -3zM334 782h-4l-152 155l7 8l147 -88l147 88l7 -8z" />
    <glyph glyph-name="zcaron" unicode="&#x17e;" horiz-adv-x="428" 
d="M368 0h-350v7l291 452l-138 -4c-50 -1 -86 -46 -126 -91l-5 2l33 110h324v-8l-289 -451l151 3c60 1 95 43 139 101l5 -2zM225 540l-136 171l8 8l130 -100l132 100l8 -8l-138 -171h-4z" />
    <glyph glyph-name="circumflex" unicode="&#x2c6;" 
d="M323 540l-132 100l-130 -100l-8 8l135 171h5l138 -171z" />
    <glyph glyph-name="caron" unicode="&#x2c7;" 
d="M154 540l-136 171l8 8l130 -100l132 100l8 -8l-138 -171h-4z" />
    <glyph glyph-name="breve" unicode="&#x2d8;" 
d="M190 622c59 0 96 30 110 76h9c-2 -49 -27 -127 -120 -127c-92 0 -115 78 -117 127h9c14 -46 50 -76 109 -76z" />
    <glyph glyph-name="dotaccent" unicode="&#x2d9;" 
d="M240 659c0 -28 -22 -50 -49 -50c-28 0 -50 22 -50 50c0 27 22 50 50 50c27 0 49 -23 49 -50z" />
    <glyph glyph-name="ring" unicode="&#x2da;" horiz-adv-x="300" 
d="M63 654c0 49 37 85 87 85s87 -36 87 -85c0 -50 -37 -84 -87 -84s-87 34 -87 84zM96 654c0 -41 19 -66 54 -66s54 25 54 66c0 40 -19 68 -54 68s-54 -28 -54 -68z" />
    <glyph glyph-name="ogonek" unicode="&#x2db;" horiz-adv-x="300" 
d="M168 1h26c-67 -52 -93 -99 -93 -142c0 -40 22 -61 60 -61c31 0 60 13 92 51l8 -7c-24 -40 -62 -90 -131 -90c-56 0 -90 33 -90 82c0 61 53 108 128 167z" />
    <glyph glyph-name="tilde" unicode="&#x2dc;" 
d="M126 681c48 0 90 -38 143 -38c33 0 50 15 60 49l9 -1c-3 -36 -16 -107 -82 -107c-49 0 -91 39 -144 39c-33 0 -50 -16 -59 -49l-10 1c3 36 16 106 83 106z" />
    <glyph glyph-name="hungarumlaut" unicode="&#x2dd;" horiz-adv-x="380" 
d="M185 550l116 179l48 -49l-156 -139zM35 550l116 179l48 -49l-156 -139z" />
    <glyph glyph-name="endash" unicode="&#x2013;" horiz-adv-x="508" 
d="M478 271h-448v19h448v-19z" />
    <glyph glyph-name="emdash" unicode="&#x2014;" horiz-adv-x="758" 
d="M728 271h-698v19h698v-19z" />
    <glyph glyph-name="quoteleft" unicode="&#x2018;" horiz-adv-x="225" 
d="M168 755l6 -6c-29 -30 -52 -69 -52 -102c0 -20 22 -49 41 -68v-2l-64 -51c-23 16 -39 43 -39 70c0 67 63 126 108 159z" />
    <glyph glyph-name="quoteright" unicode="&#x2019;" horiz-adv-x="225" 
d="M57 526l-6 6c29 30 52 69 52 102c0 20 -22 49 -41 68v2l64 51c23 -16 39 -43 39 -70c0 -67 -63 -126 -108 -159z" />
    <glyph glyph-name="quotesinglbase" unicode="&#x201a;" horiz-adv-x="225" 
d="M57 -90l-6 6c29 30 52 69 52 102c0 20 -22 49 -41 68v2l64 51c23 -16 39 -43 39 -70c0 -67 -63 -126 -108 -159z" />
    <glyph glyph-name="quotedblleft" unicode="&#x201c;" horiz-adv-x="374" 
d="M169 755l5 -6c-28 -30 -52 -69 -52 -102c0 -20 22 -49 41 -68v-2l-63 -51c-23 16 -40 43 -40 70c0 68 63 127 109 159zM317 755l6 -6c-29 -30 -52 -69 -52 -102c0 -20 21 -49 41 -68v-2l-64 -51c-23 16 -40 43 -40 70c0 68 64 127 109 159z" />
    <glyph glyph-name="quotedblright" unicode="&#x201d;" horiz-adv-x="379" 
d="M211 526l-6 6c29 30 52 69 52 102c0 20 -22 49 -41 68v2l64 51c22 -16 39 -43 39 -70c0 -67 -63 -126 -108 -159zM57 526l-6 6c29 30 52 69 52 102c0 20 -22 49 -41 68v2l64 51c23 -16 39 -43 39 -70c0 -67 -63 -126 -108 -159z" />
    <glyph glyph-name="quotedblbase" unicode="&#x201e;" horiz-adv-x="379" 
d="M57 -90l-6 6c29 30 52 69 52 102c0 20 -22 49 -41 68v2l64 51c23 -16 39 -43 39 -70c0 -67 -63 -126 -108 -159zM211 -90l-6 6c29 30 52 69 52 102c0 20 -22 49 -41 68v2l64 51c23 -16 39 -43 39 -70c0 -67 -63 -126 -108 -159z" />
    <glyph glyph-name="dagger" unicode="&#x2020;" horiz-adv-x="416" 
d="M249 262l-32 -262h-18l-32 262l34 255l-166 -35v84l166 -34l-39 200h92l-39 -200l166 34v-84l-166 35z" />
    <glyph glyph-name="daggerdbl" unicode="&#x2021;" horiz-adv-x="416" 
d="M381 166l-166 34l39 -200h-92l39 200l-166 -34v84l165 -34l-31 150l31 150l-165 -34v84l166 -34l-39 200h92l-39 -200l166 34v-84l-165 34l31 -150l-31 -150l165 34v-84z" />
    <glyph glyph-name="bullet" unicode="&#x2022;" horiz-adv-x="281" 
d="M141 203c-46 0 -82 39 -82 82c0 47 36 84 82 84c44 0 81 -37 81 -84c0 -43 -37 -82 -81 -82z" />
    <glyph glyph-name="ellipsis" unicode="&#x2026;" horiz-adv-x="725" 
d="M112 -4c-30 0 -56 26 -56 56c0 32 26 57 56 57c31 0 57 -25 57 -57c0 -30 -26 -56 -57 -56zM362 -4c-30 0 -56 26 -56 56c0 32 26 57 56 57c31 0 57 -25 57 -57c0 -30 -26 -56 -57 -56zM612 -4c-30 0 -56 26 -56 56c0 32 26 57 56 57c31 0 57 -25 57 -57
c0 -30 -26 -56 -57 -56z" />
    <glyph glyph-name="perthousand" unicode="&#x2030;" horiz-adv-x="1155" 
d="M189 346c-89 0 -160 87 -160 201s70 200 160 200s164 -86 164 -200s-75 -201 -164 -201zM189 361c67 0 90 79 90 186c0 106 -23 185 -90 185c-65 0 -86 -79 -86 -185c0 -107 21 -186 86 -186zM578 -8c-88 0 -160 87 -160 201s71 200 160 200c90 0 164 -86 164 -200
s-74 -201 -164 -201zM963 -8c-89 0 -161 87 -161 201s71 200 161 200s163 -86 163 -200s-74 -201 -163 -201zM578 7c67 0 90 79 90 186c0 106 -23 185 -90 185c-65 0 -86 -79 -86 -185c0 -107 21 -186 86 -186zM963 7c66 0 89 79 89 186c0 106 -23 185 -89 185
s-87 -79 -87 -185c0 -107 21 -186 87 -186zM140 1l-16 13l520 729l18 -11z" />
    <glyph glyph-name="guilsinglleft" unicode="&#x2039;" horiz-adv-x="265" 
d="M208 58l-8 -6l-145 175v20l145 175l8 -6l-91 -179z" />
    <glyph glyph-name="guilsinglright" unicode="&#x203a;" horiz-adv-x="265" 
d="M65 52l-8 6l91 179l-91 179l8 6l145 -175v-20z" />
    <glyph glyph-name="fraction" unicode="&#x2044;" horiz-adv-x="275" 
d="M-116 1l-16 13l520 729l18 -11z" />
    <glyph glyph-name="Euro" unicode="&#x20ac;" horiz-adv-x="707" 
d="M638 60c-23 -21 -116 -75 -222 -75c-176 0 -290 130 -316 306h-93v19h91c-2 19 -3 38 -3 57s1 37 3 55h-91v19h94c28 176 156 306 338 306c80 0 155 -28 195 -49l20 -152l-8 -2c-65 130 -124 183 -216 183c-145 0 -220 -118 -237 -286h244v-19h-245c-1 -18 -2 -36 -2 -55
c0 -20 1 -39 2 -57h245v-19h-244c16 -168 88 -286 225 -286c120 0 182 87 232 225l8 -3z" />
    <glyph glyph-name="trademark" unicode="&#x2122;" horiz-adv-x="767" 
d="M232 405v-2h-93v2c15 23 18 35 18 65v250l-44 -2c-21 -1 -56 -54 -79 -89l-6 2l21 101h274l20 -101l-6 -2c-24 35 -58 88 -78 89l-45 2v-250c0 -31 4 -42 18 -65zM443 405v-2h-75v2c21 27 26 39 26 73v197c0 27 -9 38 -32 55v2h86l103 -240l105 240h83v-2
c-25 -19 -31 -30 -31 -63v-196c0 -31 3 -42 18 -66v-2h-93v2c15 24 18 35 18 66v210l-117 -269h-8l-117 269l1 -203c0 -34 7 -46 33 -73z" />
    <glyph glyph-name="minus" unicode="&#x2212;" horiz-adv-x="532" 
d="M487 298h-442v20h442v-20z" />
    <glyph glyph-name="Dcroat" unicode="&#x110;" horiz-adv-x="742" 
d="M3 358v18h96v206c0 68 -8 97 -40 148v2c129 0 143 4 277 4c231 0 370 -130 370 -367s-137 -369 -380 -369h-267v2c32 51 40 80 40 148v208h-96zM327 716l-146 1v-341h197v-18h-197v-340l136 2c213 3 295 117 295 335c0 247 -96 360 -285 361z" />
    <glyph glyph-name="Eng" unicode="&#x14a;" horiz-adv-x="704" 
d="M484 -225c-33 0 -80 7 -122 22l-21 143l8 3c63 -96 103 -148 157 -148c48 0 91 42 91 141v62l-1 -1l-487 634l4 -465c0 -75 13 -106 70 -164v-2h-148v2c45 58 55 89 55 164v456c-14 49 -37 79 -79 108v2h121l464 -603l-1 437c0 75 -12 106 -61 164v2h138v-2
c-44 -58 -55 -89 -55 -164v-622c0 -108 -35 -169 -133 -169z" />
    <glyph glyph-name="IJ" unicode="&#x132;" horiz-adv-x="639" 
d="M51 0v2c33 51 40 80 40 148v432c0 68 -7 97 -40 148v2h162v-2c-33 -51 -40 -79 -40 -148v-432c0 -69 7 -97 40 -148v-2h-162zM558 127c0 -91 -54 -142 -146 -142c-35 0 -72 7 -107 22l-18 143l8 3c54 -96 91 -148 130 -148c31 0 52 30 52 88v489c0 69 -8 97 -40 148v2
h161v-2c-32 -51 -40 -79 -40 -148v-455z" />
    <glyph glyph-name="dcroat" unicode="&#x111;" horiz-adv-x="554" 
d="M411 86h-3c-30 -52 -87 -101 -176 -101c-119 0 -197 94 -197 234c0 143 98 272 262 272c42 0 80 -8 109 -22v110h-184v19h184v38c0 48 -21 75 -44 93v2l117 48v-181h68v-19h-68v-423c0 -97 12 -114 45 -135v-2l-113 -31v98zM272 34c57 0 104 30 134 72v249
c-14 91 -71 118 -123 118c-99 0 -168 -96 -168 -229c0 -129 60 -210 157 -210z" />
    <glyph glyph-name="eng" unicode="&#x14b;" horiz-adv-x="520" 
d="M324 -215l-2 5c44 26 65 61 65 141v398c0 62 -27 113 -103 113c-47 0 -97 -19 -136 -59v-228c0 -69 2 -109 22 -153v-2h-117v2c19 44 22 82 22 152v187c0 51 -21 80 -44 100v2l113 53v-93l4 -1c47 56 105 89 171 89c92 0 141 -56 141 -146l-2 -374
c-1 -121 -53 -176 -134 -186z" />
    <glyph glyph-name="ij" unicode="&#x133;" horiz-adv-x="431" 
d="M157 659c0 -28 -22 -50 -49 -50s-50 22 -50 50c0 27 23 50 50 50s49 -23 49 -50zM53 0v2c16 44 22 83 22 152v186c0 49 -21 79 -44 99v4l117 53v-341c0 -69 2 -109 22 -153v-2h-117zM373 659c0 -28 -22 -50 -49 -50s-50 22 -50 50c0 27 23 50 50 50s49 -23 49 -50z
M228 -215l-2 5c44 26 65 61 65 141v409c0 49 -21 79 -44 99v4l117 53l-2 -525c0 -121 -53 -176 -134 -186z" />
    <glyph glyph-name="Abreve" unicode="&#x102;" horiz-adv-x="630" 
d="M408 296l-122 337l-124 -337h246zM124 2v-2h-122v2c42 42 54 73 80 143l221 596h24l224 -606c30 -80 43 -103 77 -133v-2h-159v2c15 23 21 70 -4 137l-50 137h-261l-41 -112c-33 -88 -10 -136 11 -162zM312 849c67 0 111 34 129 86h9c-4 -53 -33 -139 -139 -139
c-103 0 -131 86 -136 139h9c20 -52 61 -86 128 -86z" />
    <glyph glyph-name="Amacron" unicode="&#x100;" horiz-adv-x="630" 
d="M408 296l-122 337l-124 -337h246zM124 2v-2h-122v2c42 42 54 73 80 143l221 596h24l224 -606c30 -80 43 -103 77 -133v-2h-159v2c15 23 21 70 -4 137l-50 137h-261l-41 -112c-33 -88 -10 -136 11 -162zM160 836v42h306v-42h-306z" />
    <glyph glyph-name="Aogonek" unicode="&#x104;" horiz-adv-x="630" 
d="M429 -248c-55 0 -89 33 -89 82c0 60 51 105 111 153c25 21 32 40 32 68c0 22 -6 51 -18 84l-50 137h-261l-41 -112c-33 -88 -10 -136 11 -162v-2h-122v2c42 42 54 73 80 143l221 596h24l224 -606c30 -80 43 -103 77 -133v-2h-135c-65 -52 -91 -98 -91 -141
c0 -40 22 -61 60 -61c31 0 59 13 91 51l9 -7c-24 -40 -62 -90 -133 -90zM408 296l-122 337l-124 -337h246z" />
    <glyph glyph-name="Aringacute" unicode="&#x1fa;" horiz-adv-x="630" 
d="M408 296l-122 337l-124 -337h246zM124 2v-2h-122v2c42 42 54 73 80 143l221 596h24l224 -606c30 -80 43 -103 77 -133v-2h-159v2c15 23 21 70 -4 137l-50 137h-261l-41 -112c-33 -88 -10 -136 11 -162zM225 866c0 49 37 85 87 85s87 -35 87 -85s-38 -84 -87 -84
s-87 34 -87 84zM258 866c0 -41 19 -66 54 -66s54 25 54 66c0 40 -19 68 -54 68s-54 -28 -54 -68zM223 981l197 169l41 -69l-233 -108z" />
    <glyph glyph-name="AEacute" unicode="&#x1fc;" horiz-adv-x="977" 
d="M465 592c0 31 -4 57 -14 80l-212 -376h226v296zM143 2v-2h-128v2c51 42 72 73 113 145l311 548c-8 13 -19 25 -33 35v2h461l39 -160l-8 -3c-49 59 -103 138 -139 140l-211 7v-338h127c36 0 69 60 95 95h8v-204h-8c-25 30 -58 89 -95 89h-127v-342l219 7
c72 3 131 78 187 159l8 -3l-45 -179h-491v2c26 50 39 83 39 138v136h-238l-68 -121c-43 -75 -35 -126 -16 -153zM518 790l197 169l41 -69l-233 -108z" />
    <glyph glyph-name="Cacute" unicode="&#x106;" horiz-adv-x="747" 
d="M698 227l-20 -167c-28 -21 -142 -75 -272 -75c-230 0 -371 168 -371 382c0 213 157 380 393 380c101 0 195 -28 246 -49l20 -152l-8 -2c-81 130 -152 183 -266 183c-201 0 -291 -154 -291 -360c0 -207 88 -362 279 -362c146 0 222 87 282 225zM321 790l197 169l41 -69
l-233 -108z" />
    <glyph glyph-name="Ccaron" unicode="&#x10c;" horiz-adv-x="747" 
d="M698 227l-20 -167c-28 -21 -142 -75 -272 -75c-230 0 -371 168 -371 382c0 213 157 380 393 380c101 0 195 -28 246 -49l20 -152l-8 -2c-81 130 -152 183 -266 183c-201 0 -291 -154 -291 -360c0 -207 88 -362 279 -362c146 0 222 87 282 225zM412 782h-4l-152 155l7 8
l147 -88l147 88l7 -8z" />
    <glyph glyph-name="Ccircumflex" unicode="&#x108;" horiz-adv-x="747" 
d="M698 227l-20 -167c-28 -21 -142 -75 -272 -75c-230 0 -371 168 -371 382c0 213 157 380 393 380c101 0 195 -28 246 -49l20 -152l-8 -2c-81 130 -152 183 -266 183c-201 0 -291 -154 -291 -360c0 -207 88 -362 279 -362c146 0 222 87 282 225zM558 782l-147 88l-147 -88
l-8 8l152 155h5l152 -155z" />
    <glyph glyph-name="Cdotaccent" unicode="&#x10a;" horiz-adv-x="747" 
d="M698 227l-20 -167c-28 -21 -142 -75 -272 -75c-230 0 -371 168 -371 382c0 213 157 380 393 380c101 0 195 -28 246 -49l20 -152l-8 -2c-81 130 -152 183 -266 183c-201 0 -291 -154 -291 -360c0 -207 88 -362 279 -362c146 0 222 87 282 225zM460 868
c0 -28 -22 -50 -49 -50c-28 0 -50 22 -50 50s22 50 50 50c27 0 49 -22 49 -50z" />
    <glyph glyph-name="Dcaron" unicode="&#x10e;" horiz-adv-x="734" 
d="M51 0v2c32 51 40 80 40 148v432c0 68 -8 97 -40 148v2c129 0 143 4 277 4c231 0 370 -130 370 -367s-137 -369 -380 -369h-267zM319 716l-146 1v-699l136 2c213 3 295 117 295 335c0 247 -96 360 -285 361zM343 782h-4l-152 155l7 8l147 -88l147 88l7 -8z" />
    <glyph glyph-name="Ebreve" unicode="&#x114;" horiz-adv-x="601" 
d="M586 179l-44 -179h-491v2c26 50 39 83 39 138v452c0 56 -13 88 -39 138v2h441l39 -160l-8 -3c-50 59 -103 138 -140 140l-210 7v-338h126c37 0 69 60 96 95h8v-204h-8c-26 30 -59 89 -96 89h-126v-342l218 7c72 3 132 78 187 159zM291 849c67 0 111 34 129 86h9
c-4 -53 -33 -139 -139 -139c-103 0 -131 86 -136 139h9c20 -52 61 -86 128 -86z" />
    <glyph glyph-name="Ecaron" unicode="&#x11a;" horiz-adv-x="601" 
d="M586 179l-44 -179h-491v2c26 50 39 83 39 138v452c0 56 -13 88 -39 138v2h441l39 -160l-8 -3c-50 59 -103 138 -140 140l-210 7v-338h126c37 0 69 60 96 95h8v-204h-8c-26 30 -59 89 -96 89h-126v-342l218 7c72 3 132 78 187 159zM304 782h-4l-152 155l7 8l147 -88
l147 88l7 -8z" />
    <glyph glyph-name="Edotaccent" unicode="&#x116;" horiz-adv-x="601" 
d="M586 179l-44 -179h-491v2c26 50 39 83 39 138v452c0 56 -13 88 -39 138v2h441l39 -160l-8 -3c-50 59 -103 138 -140 140l-210 7v-338h126c37 0 69 60 96 95h8v-204h-8c-26 30 -59 89 -96 89h-126v-342l218 7c72 3 132 78 187 159zM341 868c0 -28 -22 -50 -49 -50
c-28 0 -50 22 -50 50s22 50 50 50c27 0 49 -22 49 -50z" />
    <glyph glyph-name="Emacron" unicode="&#x112;" horiz-adv-x="601" 
d="M586 179l-44 -179h-491v2c26 50 39 83 39 138v452c0 56 -13 88 -39 138v2h441l39 -160l-8 -3c-50 59 -103 138 -140 140l-210 7v-338h126c37 0 69 60 96 95h8v-204h-8c-26 30 -59 89 -96 89h-126v-342l218 7c72 3 132 78 187 159zM139 836v42h306v-42h-306z" />
    <glyph glyph-name="Eogonek" unicode="&#x118;" horiz-adv-x="601" 
d="M586 179l-44 -179h-86c-66 -51 -91 -98 -91 -141c0 -40 22 -61 60 -61c31 0 60 13 92 51l8 -7c-24 -40 -62 -90 -131 -90c-56 0 -90 33 -90 82c0 61 52 108 126 166h-379v2c26 50 39 83 39 138v452c0 56 -13 88 -39 138v2h441l39 -160l-8 -3c-50 59 -103 138 -140 140
l-210 7v-338h126c37 0 69 60 96 95h8v-204h-8c-26 30 -59 89 -96 89h-126v-342l218 7c72 3 132 78 187 159z" />
    <glyph glyph-name="Gbreve" unicode="&#x11e;" horiz-adv-x="793" 
d="M721 91c-48 -33 -138 -106 -300 -106c-237 0 -386 167 -386 381c0 213 153 381 404 381c115 0 204 -29 256 -48l20 -152l-8 -3c-73 128 -150 183 -277 183c-205 0 -301 -159 -301 -362c0 -202 83 -360 292 -360c130 0 223 54 223 159c0 88 -10 123 -46 166v2h163v-2
c-33 -46 -40 -78 -40 -157v-82zM410 849c67 0 111 34 129 86h9c-4 -53 -33 -139 -139 -139c-103 0 -131 86 -136 139h9c20 -52 61 -86 128 -86z" />
    <glyph glyph-name="Gcircumflex" unicode="&#x11c;" horiz-adv-x="793" 
d="M721 91c-48 -33 -138 -106 -300 -106c-237 0 -386 167 -386 381c0 213 153 381 404 381c115 0 204 -29 256 -48l20 -152l-8 -3c-73 128 -150 183 -277 183c-205 0 -301 -159 -301 -362c0 -202 83 -360 292 -360c130 0 223 54 223 159c0 88 -10 123 -46 166v2h163v-2
c-33 -46 -40 -78 -40 -157v-82zM558 782l-147 88l-147 -88l-8 8l152 155h5l152 -155z" />
    <glyph glyph-name="uni0122" unicode="&#x122;" horiz-adv-x="793" 
d="M721 91c-48 -33 -138 -106 -300 -106c-237 0 -386 167 -386 381c0 213 153 381 404 381c115 0 204 -29 256 -48l20 -152l-8 -3c-73 128 -150 183 -277 183c-205 0 -301 -159 -301 -362c0 -202 83 -360 292 -360c130 0 223 54 223 159c0 88 -10 123 -46 166v2h163v-2
c-33 -46 -40 -78 -40 -157v-82zM362 -233l-4 5c30 22 52 54 52 79c0 18 -19 45 -37 62v1l61 43c21 -15 36 -40 36 -66c0 -52 -63 -99 -108 -124z" />
    <glyph glyph-name="Gdotaccent" unicode="&#x120;" horiz-adv-x="793" 
d="M721 91c-48 -33 -138 -106 -300 -106c-237 0 -386 167 -386 381c0 213 153 381 404 381c115 0 204 -29 256 -48l20 -152l-8 -3c-73 128 -150 183 -277 183c-205 0 -301 -159 -301 -362c0 -202 83 -360 292 -360c130 0 223 54 223 159c0 88 -10 123 -46 166v2h163v-2
c-33 -46 -40 -78 -40 -157v-82zM460 868c0 -28 -22 -50 -49 -50c-28 0 -50 22 -50 50s22 50 50 50c27 0 49 -22 49 -50z" />
    <glyph glyph-name="Hbar" unicode="&#x126;" horiz-adv-x="749" 
d="M59 0v2c32 51 40 80 40 148v398h-96v18h96v16c0 68 -8 97 -40 148v2h162v-2c-33 -51 -40 -79 -40 -148v-16h387v16c0 68 -7 97 -40 148v2h162v-2c-32 -51 -40 -79 -40 -148v-16h96v-18h-96v-398c0 -69 8 -97 40 -148v-2h-162v2c33 51 40 80 40 148v218h-387v-218
c0 -69 7 -97 40 -148v-2h-162zM181 388h387v160h-387v-160z" />
    <glyph glyph-name="Hcircumflex" unicode="&#x124;" horiz-adv-x="733" 
d="M51 0v2c32 51 40 80 40 148v432c0 68 -8 97 -40 148v2h162v-2c-33 -51 -40 -79 -40 -148v-194h387v194c0 68 -7 97 -40 148v2h162v-2c-32 -51 -40 -79 -40 -148v-432c0 -69 8 -97 40 -148v-2h-162v2c33 51 40 80 40 148v218h-387v-218c0 -69 7 -97 40 -148v-2h-162z
M514 782l-147 88l-147 -88l-8 8l152 155h5l152 -155z" />
    <glyph glyph-name="Ibreve" unicode="&#x12c;" horiz-adv-x="263" 
d="M51 0v2c33 51 40 80 40 148v432c0 68 -7 97 -40 148v2h162v-2c-33 -51 -40 -79 -40 -148v-432c0 -69 7 -97 40 -148v-2h-162zM131 849c67 0 111 34 129 86h9c-4 -53 -33 -139 -139 -139c-103 0 -131 86 -136 139h9c20 -52 61 -86 128 -86z" />
    <glyph glyph-name="Idotaccent" unicode="&#x130;" horiz-adv-x="263" 
d="M51 0v2c33 51 40 80 40 148v432c0 68 -7 97 -40 148v2h162v-2c-33 -51 -40 -79 -40 -148v-432c0 -69 7 -97 40 -148v-2h-162zM181 868c0 -28 -22 -50 -49 -50c-28 0 -50 22 -50 50s22 50 50 50c27 0 49 -22 49 -50z" />
    <glyph glyph-name="Imacron" unicode="&#x12a;" horiz-adv-x="263" 
d="M51 0v2c33 51 40 80 40 148v432c0 68 -7 97 -40 148v2h162v-2c-33 -51 -40 -79 -40 -148v-432c0 -69 7 -97 40 -148v-2h-162zM-21 836v42h306v-42h-306z" />
    <glyph glyph-name="Iogonek" unicode="&#x12e;" horiz-adv-x="263" 
d="M51 0v2c33 51 40 80 40 148v432c0 68 -7 97 -40 148v2h162v-2c-33 -51 -40 -79 -40 -148v-432c0 -69 7 -97 40 -148v-2h-38c-66 -51 -91 -98 -91 -141c0 -40 22 -61 60 -61c31 0 60 13 92 51l8 -7c-24 -40 -62 -90 -131 -90c-56 0 -90 33 -90 82c0 61 52 108 126 166h-98
z" />
    <glyph glyph-name="Itilde" unicode="&#x128;" horiz-adv-x="263" 
d="M51 0v2c33 51 40 80 40 148v432c0 68 -7 97 -40 148v2h162v-2c-33 -51 -40 -79 -40 -148v-432c0 -69 7 -97 40 -148v-2h-162zM53 903c63 0 112 -48 173 -48c35 0 52 17 64 60l9 -1c-3 -47 -12 -120 -89 -120c-63 0 -112 48 -172 48c-36 0 -52 -17 -65 -60l-9 1
c3 47 12 120 89 120z" />
    <glyph glyph-name="Jcircumflex" unicode="&#x134;" horiz-adv-x="378" 
d="M296 127c0 -91 -54 -142 -146 -142c-35 0 -72 7 -107 22l-18 143l8 3c54 -96 91 -148 130 -148c31 0 52 30 52 88v489c0 69 -8 97 -40 148v2h161v-2c-32 -51 -40 -79 -40 -148v-455zM403 782l-147 88l-147 -88l-8 8l152 155h5l152 -155z" />
    <glyph glyph-name="uni0136" unicode="&#x136;" horiz-adv-x="627" 
d="M51 0v2c33 51 40 80 40 148v432c0 68 -8 97 -40 148v2h162v-2c-33 -51 -40 -79 -40 -148v-432c0 -69 7 -97 40 -148v-2h-162zM627 0h-134l-294 372l210 230c54 60 53 99 27 128v2h162v-2c-80 -39 -113 -77 -158 -126l-172 -187l233 -296c52 -65 78 -91 125 -119z
M275 -233l-4 5c30 22 52 54 52 79c0 18 -19 45 -37 62v1l61 43c21 -15 36 -40 36 -66c0 -52 -63 -99 -108 -124z" />
    <glyph glyph-name="Lacute" unicode="&#x139;" horiz-adv-x="563" 
d="M505 0h-454v2c32 51 40 80 40 148v432c0 68 -8 97 -40 148v2h162v-2c-33 -51 -40 -79 -40 -148v-567l181 7c74 4 133 69 188 160l8 -3zM42 790l197 169l41 -69l-233 -108z" />
    <glyph glyph-name="Lcaron" unicode="&#x13d;" horiz-adv-x="563" 
d="M505 0h-454v2c32 51 40 80 40 148v432c0 68 -8 97 -40 148v2h162v-2c-33 -51 -40 -79 -40 -148v-567l181 7c74 4 133 69 188 160l8 -3zM248 531l28 201h75l-95 -203z" />
    <glyph glyph-name="uni013B" unicode="&#x13b;" horiz-adv-x="563" 
d="M505 0h-454v2c32 51 40 80 40 148v432c0 68 -8 97 -40 148v2h162v-2c-33 -51 -40 -79 -40 -148v-567l181 7c74 4 133 69 188 160l8 -3zM251 -233l-4 5c30 22 52 54 52 79c0 18 -19 45 -37 62v1l61 43c21 -15 36 -40 36 -66c0 -52 -63 -99 -108 -124z" />
    <glyph glyph-name="Ldot" unicode="&#x13f;" horiz-adv-x="563" 
d="M505 0h-454v2c32 51 40 80 40 148v432c0 68 -8 97 -40 148v2h162v-2c-33 -51 -40 -79 -40 -148v-567l181 7c74 4 133 69 188 160l8 -3zM451 311c-30 0 -56 26 -56 56c0 32 26 57 56 57c31 0 57 -25 57 -57c0 -30 -26 -56 -57 -56z" />
    <glyph glyph-name="Nacute" unicode="&#x143;" horiz-adv-x="706" 
d="M597 -3l-487 634l4 -465c0 -75 13 -106 70 -164v-2h-148v2c45 58 55 89 55 164v455c-14 50 -37 80 -79 109v2h121l466 -606l-3 440c-1 75 -12 106 -61 164v2h138v-2c-45 -58 -55 -89 -55 -164v-566zM276 790l197 169l41 -69l-233 -108z" />
    <glyph glyph-name="Ncaron" unicode="&#x147;" horiz-adv-x="706" 
d="M597 -3l-487 634l4 -465c0 -75 13 -106 70 -164v-2h-148v2c45 58 55 89 55 164v455c-14 50 -37 80 -79 109v2h121l466 -606l-3 440c-1 75 -12 106 -61 164v2h138v-2c-45 -58 -55 -89 -55 -164v-566zM367 782h-4l-152 155l7 8l147 -88l147 88l7 -8z" />
    <glyph glyph-name="uni0145" unicode="&#x145;" horiz-adv-x="706" 
d="M597 -3l-487 634l4 -465c0 -75 13 -106 70 -164v-2h-148v2c45 58 55 89 55 164v455c-14 50 -37 80 -79 109v2h121l466 -606l-3 440c-1 75 -12 106 -61 164v2h138v-2c-45 -58 -55 -89 -55 -164v-566zM301 -233l-4 5c30 22 52 54 52 79c0 18 -19 45 -37 62v1l61 43
c21 -15 36 -40 36 -66c0 -52 -63 -99 -108 -124z" />
    <glyph glyph-name="Obreve" unicode="&#x14e;" horiz-adv-x="812" 
d="M405 -15c-198 0 -370 166 -370 380s172 382 370 382c199 0 372 -168 372 -382s-173 -380 -372 -380zM405 5c180 0 278 153 278 360c0 206 -98 362 -278 362c-179 0 -276 -156 -276 -362s97 -360 276 -360zM405 849c67 0 111 34 129 86h9c-4 -53 -33 -139 -139 -139
c-103 0 -131 86 -136 139h9c20 -52 61 -86 128 -86z" />
    <glyph glyph-name="Ohungarumlaut" unicode="&#x150;" horiz-adv-x="812" 
d="M405 -15c-198 0 -370 166 -370 380s172 382 370 382c199 0 372 -168 372 -382s-173 -380 -372 -380zM405 5c180 0 278 153 278 360c0 206 -98 362 -278 362c-179 0 -276 -156 -276 -362s97 -360 276 -360zM457 790l136 159l48 -63l-177 -104zM266 790l136 159l48 -63
l-177 -104z" />
    <glyph glyph-name="Omacron" unicode="&#x14c;" horiz-adv-x="812" 
d="M405 -15c-198 0 -370 166 -370 380s172 382 370 382c199 0 372 -168 372 -382s-173 -380 -372 -380zM405 5c180 0 278 153 278 360c0 206 -98 362 -278 362c-179 0 -276 -156 -276 -362s97 -360 276 -360zM254 836v42h306v-42h-306z" />
    <glyph glyph-name="Oslashacute" unicode="&#x1fe;" horiz-adv-x="812" 
d="M129 365c0 -112 28 -208 83 -273l371 564c-45 45 -105 71 -178 71c-179 0 -276 -156 -276 -362zM405 5c180 0 278 153 278 360c0 112 -29 209 -84 274l-371 -564c44 -44 104 -70 177 -70zM405 -15c-72 0 -140 22 -198 59l-48 -73h-27l57 86c-92 69 -154 180 -154 308
c0 214 172 382 370 382c72 0 140 -22 199 -60l49 75h27l-58 -88c93 -69 155 -181 155 -309c0 -214 -173 -380 -372 -380zM316 790l197 169l41 -69l-233 -108z" />
    <glyph glyph-name="Racute" unicode="&#x154;" horiz-adv-x="631" 
d="M291 712c-19 0 -61 0 -118 -1v-342h119c120 0 157 89 157 190c0 91 -36 153 -158 153zM51 0v2c32 51 40 80 40 148v432c0 68 -8 97 -40 148v2h256c161 0 227 -69 227 -173c0 -89 -45 -166 -142 -197l122 -232c39 -76 63 -103 112 -126v-4h-138l-181 349h-134v-199
c0 -69 7 -97 40 -148v-2h-162zM201 790l197 169l41 -69l-233 -108z" />
    <glyph glyph-name="Rcaron" unicode="&#x158;" horiz-adv-x="631" 
d="M291 712c-19 0 -61 0 -118 -1v-342h119c120 0 157 89 157 190c0 91 -36 153 -158 153zM51 0v2c32 51 40 80 40 148v432c0 68 -8 97 -40 148v2h256c161 0 227 -69 227 -173c0 -89 -45 -166 -142 -197l122 -232c39 -76 63 -103 112 -126v-4h-138l-181 349h-134v-199
c0 -69 7 -97 40 -148v-2h-162zM293 782h-4l-152 155l7 8l147 -88l147 88l7 -8z" />
    <glyph glyph-name="uni0156" unicode="&#x156;" horiz-adv-x="631" 
d="M291 712c-19 0 -61 0 -118 -1v-342h119c120 0 157 89 157 190c0 91 -36 153 -158 153zM51 0v2c32 51 40 80 40 148v432c0 68 -8 97 -40 148v2h256c161 0 227 -69 227 -173c0 -89 -45 -166 -142 -197l122 -232c39 -76 63 -103 112 -126v-4h-138l-181 349h-134v-199
c0 -69 7 -97 40 -148v-2h-162zM272 -233l-4 5c30 22 52 54 52 79c0 18 -19 45 -37 62v1l61 43c21 -15 36 -40 36 -66c0 -52 -63 -99 -108 -124z" />
    <glyph glyph-name="Sacute" unicode="&#x15a;" horiz-adv-x="542" 
d="M440 717l20 -158l-8 -3c-54 132 -123 171 -198 171c-92 0 -135 -56 -135 -124c0 -101 91 -137 186 -181c101 -46 205 -96 205 -232c0 -147 -120 -205 -257 -205c-68 0 -138 15 -198 38l-20 162l8 3c60 -127 130 -183 234 -183c106 0 158 63 158 148
c0 109 -83 152 -174 193c-102 47 -206 92 -206 220c0 125 98 181 223 181c60 0 118 -13 162 -30zM181 790l197 169l41 -69l-233 -108z" />
    <glyph glyph-name="uni015E" unicode="&#x15e;" horiz-adv-x="542" 
d="M190 -255l-3 8c51 20 94 44 94 88c0 49 -57 55 -80 57l-2 2s34 55 52 85c-67 0 -137 15 -196 38l-20 162l8 3c60 -127 130 -183 234 -183c106 0 158 63 158 148c0 109 -83 152 -174 193c-102 47 -206 92 -206 220c0 125 98 181 223 181c60 0 118 -13 162 -30l20 -158
l-8 -3c-54 132 -123 171 -198 171c-92 0 -135 -56 -135 -124c0 -101 91 -137 186 -181c101 -46 205 -96 205 -232c0 -138 -105 -197 -231 -204l-28 -44c50 -11 85 -38 85 -85c0 -60 -59 -94 -146 -112z" />
    <glyph glyph-name="Scircumflex" unicode="&#x15c;" horiz-adv-x="542" 
d="M440 717l20 -158l-8 -3c-54 132 -123 171 -198 171c-92 0 -135 -56 -135 -124c0 -101 91 -137 186 -181c101 -46 205 -96 205 -232c0 -147 -120 -205 -257 -205c-68 0 -138 15 -198 38l-20 162l8 3c60 -127 130 -183 234 -183c106 0 158 63 158 148
c0 109 -83 152 -174 193c-102 47 -206 92 -206 220c0 125 98 181 223 181c60 0 118 -13 162 -30zM418 782l-147 88l-147 -88l-8 8l152 155h5l152 -155z" />
    <glyph glyph-name="uni0218" unicode="&#x218;" horiz-adv-x="542" 
d="M440 717l20 -158l-8 -3c-54 132 -123 171 -198 171c-92 0 -135 -56 -135 -124c0 -101 91 -137 186 -181c101 -46 205 -96 205 -232c0 -147 -120 -205 -257 -205c-68 0 -138 15 -198 38l-20 162l8 3c60 -127 130 -183 234 -183c106 0 158 63 158 148
c0 109 -83 152 -174 193c-102 47 -206 92 -206 220c0 125 98 181 223 181c60 0 118 -13 162 -30zM222 -233l-4 5c30 22 52 54 52 79c0 18 -19 45 -37 62v1l61 43c21 -15 36 -40 36 -66c0 -52 -63 -99 -108 -124z" />
    <glyph glyph-name="Tcaron" unicode="&#x164;" horiz-adv-x="671" 
d="M417 2v-2h-162v2c33 51 40 80 40 148v564l-133 -4c-37 -1 -96 -102 -139 -168l-8 3l38 187h565l39 -187l-8 -3c-44 66 -103 167 -140 168l-132 4v-564c0 -69 7 -97 40 -148zM337 782h-4l-152 155l7 8l147 -88l147 88l7 -8z" />
    <glyph glyph-name="Tcommaaccent" unicode="&#x162;" horiz-adv-x="671" 
d="M417 2v-2h-162v2c33 51 40 80 40 148v564l-133 -4c-37 -1 -96 -102 -139 -168l-8 3l38 187h565l39 -187l-8 -3c-44 66 -103 167 -140 168l-132 4v-564c0 -69 7 -97 40 -148zM272 -233l-4 5c30 22 52 54 52 79c0 18 -19 45 -37 62v1l61 43c21 -15 36 -40 36 -66
c0 -52 -63 -99 -108 -124z" />
    <glyph glyph-name="uni021A" unicode="&#x21a;" horiz-adv-x="671" 
d="M417 2v-2h-162v2c33 51 40 80 40 148v564l-133 -4c-37 -1 -96 -102 -139 -168l-8 3l38 187h565l39 -187l-8 -3c-44 66 -103 167 -140 168l-132 4v-564c0 -69 7 -97 40 -148zM272 -233l-4 5c30 22 52 54 52 79c0 18 -19 45 -37 62v1l61 43c21 -15 36 -40 36 -66
c0 -52 -63 -99 -108 -124z" />
    <glyph glyph-name="Tbar" unicode="&#x166;" horiz-adv-x="671" 
d="M125 357v20h170v337l-133 -4c-37 -1 -96 -102 -139 -168l-8 3l38 187h565l39 -187l-8 -3c-44 66 -103 167 -140 168l-132 4v-337h170v-20h-170v-207c0 -69 7 -97 40 -148v-2h-162v2c33 51 40 80 40 148v207h-170z" />
    <glyph glyph-name="Ubreve" unicode="&#x16c;" horiz-adv-x="690" 
d="M355 -15c-148 0 -273 73 -273 253v342c0 70 -7 98 -40 150v2h162v-2c-27 -43 -40 -80 -40 -150v-339c0 -172 90 -233 209 -233c161 0 212 115 212 242v315c0 75 -13 106 -72 165v2h159l2 -2c-54 -59 -67 -90 -67 -165v-314c0 -143 -62 -266 -252 -266zM376 849
c67 0 111 34 129 86h9c-4 -53 -33 -139 -139 -139c-103 0 -131 86 -136 139h9c20 -52 61 -86 128 -86z" />
    <glyph glyph-name="Uhungarumlaut" unicode="&#x170;" horiz-adv-x="690" 
d="M355 -15c-148 0 -273 73 -273 253v342c0 70 -7 98 -40 150v2h162v-2c-27 -43 -40 -80 -40 -150v-339c0 -172 90 -233 209 -233c161 0 212 115 212 242v315c0 75 -13 106 -72 165v2h159l2 -2c-54 -59 -67 -90 -67 -165v-314c0 -143 -62 -266 -252 -266zM423 790l136 159
l48 -63l-177 -104zM232 790l136 159l48 -63l-177 -104z" />
    <glyph glyph-name="Umacron" unicode="&#x16a;" horiz-adv-x="690" 
d="M355 -15c-148 0 -273 73 -273 253v342c0 70 -7 98 -40 150v2h162v-2c-27 -43 -40 -80 -40 -150v-339c0 -172 90 -233 209 -233c161 0 212 115 212 242v315c0 75 -13 106 -72 165v2h159l2 -2c-54 -59 -67 -90 -67 -165v-314c0 -143 -62 -266 -252 -266zM220 836v42h306
v-42h-306z" />
    <glyph glyph-name="Uogonek" unicode="&#x172;" horiz-adv-x="690" 
d="M376 -248c-56 0 -90 33 -90 82c0 56 50 109 119 154c-14 -2 -33 -3 -50 -3c-148 0 -273 73 -273 253v342c0 70 -7 98 -40 150v2h162v-2c-27 -43 -40 -80 -40 -150v-339c0 -172 90 -233 209 -233c161 0 212 115 212 242v315c0 75 -13 106 -72 165v2h159l2 -2
c-54 -59 -67 -90 -67 -165v-314c0 -109 -36 -206 -141 -248c-31 -13 -60 -32 -79 -53c-26 -28 -40 -58 -40 -91c0 -41 22 -61 60 -61c31 0 60 13 92 51l8 -7c-24 -40 -62 -90 -131 -90z" />
    <glyph glyph-name="Uring" unicode="&#x16e;" horiz-adv-x="690" 
d="M355 -15c-148 0 -273 73 -273 253v342c0 70 -7 98 -40 150v2h162v-2c-27 -43 -40 -80 -40 -150v-339c0 -172 90 -233 209 -233c161 0 212 115 212 242v315c0 75 -13 106 -72 165v2h159l2 -2c-54 -59 -67 -90 -67 -165v-314c0 -143 -62 -266 -252 -266zM285 861
c0 49 37 85 87 85s87 -35 87 -85s-38 -84 -87 -84s-87 34 -87 84zM318 861c0 -41 19 -66 54 -66s54 25 54 66c0 40 -19 68 -54 68s-54 -28 -54 -68z" />
    <glyph glyph-name="Utilde" unicode="&#x168;" horiz-adv-x="690" 
d="M355 -15c-148 0 -273 73 -273 253v342c0 70 -7 98 -40 150v2h162v-2c-27 -43 -40 -80 -40 -150v-339c0 -172 90 -233 209 -233c161 0 212 115 212 242v315c0 75 -13 106 -72 165v2h159l2 -2c-54 -59 -67 -90 -67 -165v-314c0 -143 -62 -266 -252 -266zM293 903
c63 0 112 -48 173 -48c35 0 52 17 64 60l9 -1c-3 -47 -12 -120 -89 -120c-63 0 -112 48 -172 48c-36 0 -52 -17 -65 -60l-9 1c3 47 12 120 89 120z" />
    <glyph glyph-name="Wacute" unicode="&#x1e82;" horiz-adv-x="970" 
d="M290 -9h-24l-188 606c-24 76 -37 103 -71 133v2h171v-2c-16 -24 -35 -66 -13 -137l146 -476l163 435l-16 45c-26 76 -40 103 -74 133v2h175v-2c-17 -23 -39 -64 -14 -137l165 -474l134 434c29 97 6 149 -13 177v2h132v-2c-47 -42 -65 -80 -91 -162l-179 -577h-24
l-184 529zM375 790l197 169l41 -69l-233 -108z" />
    <glyph glyph-name="Wcircumflex" unicode="&#x174;" horiz-adv-x="970" 
d="M290 -9h-24l-188 606c-24 76 -37 103 -71 133v2h171v-2c-16 -24 -35 -66 -13 -137l146 -476l163 435l-16 45c-26 76 -40 103 -74 133v2h175v-2c-17 -23 -39 -64 -14 -137l165 -474l134 434c29 97 6 149 -13 177v2h132v-2c-47 -42 -65 -80 -91 -162l-179 -577h-24
l-184 529zM631 782l-147 88l-147 -88l-8 8l152 155h5l152 -155z" />
    <glyph glyph-name="Wdieresis" unicode="&#x1e84;" horiz-adv-x="970" 
d="M290 -9h-24l-188 606c-24 76 -37 103 -71 133v2h171v-2c-16 -24 -35 -66 -13 -137l146 -476l163 435l-16 45c-26 76 -40 103 -74 133v2h175v-2c-17 -23 -39 -64 -14 -137l165 -474l134 434c29 97 6 149 -13 177v2h132v-2c-47 -42 -65 -80 -91 -162l-179 -577h-24
l-184 529zM654 868c0 -28 -22 -50 -50 -50c-27 0 -50 22 -50 50s23 50 50 50c28 0 50 -22 50 -50zM403 868c0 -28 -22 -50 -50 -50c-27 0 -50 22 -50 50s23 50 50 50c28 0 50 -22 50 -50z" />
    <glyph glyph-name="Wgrave" unicode="&#x1e80;" horiz-adv-x="970" 
d="M290 -9h-24l-188 606c-24 76 -37 103 -71 133v2h171v-2c-16 -24 -35 -66 -13 -137l146 -476l163 435l-16 45c-26 76 -40 103 -74 133v2h175v-2c-17 -23 -39 -64 -14 -137l165 -474l134 434c29 97 6 149 -13 177v2h132v-2c-47 -42 -65 -80 -91 -162l-179 -577h-24
l-184 529zM568 790l-4 -8l-238 108l44 69z" />
    <glyph glyph-name="Ycircumflex" unicode="&#x176;" horiz-adv-x="584" 
d="M209 0v2c32 43 40 68 40 125v211l-158 276c-34 59 -60 92 -97 116v2h188v-2c-30 -18 -27 -62 -2 -107l144 -257l119 202c50 85 32 134 5 162v2h142v-2c-53 -41 -72 -75 -118 -152l-141 -239v-212c0 -58 7 -82 40 -125v-2h-162zM467 782l-147 88l-147 -88l-8 8l152 155h5
l152 -155z" />
    <glyph glyph-name="Ygrave" unicode="&#x1ef2;" horiz-adv-x="584" 
d="M209 0v2c32 43 40 68 40 125v211l-158 276c-34 59 -60 92 -97 116v2h188v-2c-30 -18 -27 -62 -2 -107l144 -257l119 202c50 85 32 134 5 162v2h142v-2c-53 -41 -72 -75 -118 -152l-141 -239v-212c0 -58 7 -82 40 -125v-2h-162zM404 790l-4 -8l-238 108l44 69z" />
    <glyph glyph-name="Zacute" unicode="&#x179;" horiz-adv-x="615" 
d="M543 0h-518v11l453 705l-201 -6c-107 -4 -169 -76 -221 -162l-8 3l47 181h483v-11l-452 -706l235 7c105 4 169 76 223 173l8 -3zM242 790l197 169l41 -69l-233 -108z" />
    <glyph glyph-name="Zdotaccent" unicode="&#x17b;" horiz-adv-x="615" 
d="M543 0h-518v11l453 705l-201 -6c-107 -4 -169 -76 -221 -162l-8 3l47 181h483v-11l-452 -706l235 7c105 4 169 76 223 173l8 -3zM381 868c0 -28 -22 -50 -49 -50c-28 0 -50 22 -50 50s22 50 50 50c27 0 49 -22 49 -50z" />
    <glyph glyph-name="abreve" unicode="&#x103;" horiz-adv-x="468" 
d="M187 29c45 0 87 20 110 42v166c-94 -17 -192 -54 -192 -135c0 -43 27 -73 82 -73zM371 -12c-47 0 -70 29 -74 66c-33 -37 -87 -69 -151 -69c-65 0 -112 33 -112 94c0 110 153 160 263 173v100c0 54 -23 95 -103 95c-47 0 -99 -15 -137 -44l-5 6c40 48 106 82 185 82
c107 0 133 -58 133 -121v-294c0 -25 11 -43 39 -43c19 0 34 9 48 21l3 -2c-11 -26 -36 -64 -89 -64zM217 622c59 0 96 30 110 76h9c-2 -49 -27 -127 -120 -127c-92 0 -115 78 -117 127h9c14 -46 50 -76 109 -76z" />
    <glyph glyph-name="amacron" unicode="&#x101;" horiz-adv-x="468" 
d="M187 29c45 0 87 20 110 42v166c-94 -17 -192 -54 -192 -135c0 -43 27 -73 82 -73zM371 -12c-47 0 -70 29 -74 66c-33 -37 -87 -69 -151 -69c-65 0 -112 33 -112 94c0 110 153 160 263 173v100c0 54 -23 95 -103 95c-47 0 -99 -15 -137 -44l-5 6c40 48 106 82 185 82
c107 0 133 -58 133 -121v-294c0 -25 11 -43 39 -43c19 0 34 9 48 21l3 -2c-11 -26 -36 -64 -89 -64zM80 603v42h284v-42h-284z" />
    <glyph glyph-name="aogonek" unicode="&#x105;" horiz-adv-x="468" 
d="M333 -248c-57 0 -90 33 -90 82c0 57 51 112 119 155c-44 3 -62 34 -64 66c-33 -37 -87 -70 -152 -70s-112 33 -112 94c0 110 153 160 263 173v100c0 54 -23 95 -103 95c-47 0 -99 -15 -137 -44l-5 6c40 48 106 82 185 82c107 0 133 -58 133 -121v-294
c0 -25 11 -43 39 -43c19 0 34 9 48 21l3 -2c-5 -13 -14 -30 -34 -46c-18 -13 -36 -19 -54 -31c-33 -21 -68 -62 -68 -114c0 -42 22 -63 60 -63c31 0 60 13 91 51l9 -7c-24 -40 -62 -90 -131 -90zM189 30c43 0 85 19 108 41v166c-93 -17 -190 -54 -190 -135
c0 -42 27 -72 82 -72z" />
    <glyph glyph-name="aringacute" unicode="&#x1fb;" horiz-adv-x="468" 
d="M187 29c45 0 87 20 110 42v166c-94 -17 -192 -54 -192 -135c0 -43 27 -73 82 -73zM371 -12c-47 0 -70 29 -74 66c-33 -37 -87 -69 -151 -69c-65 0 -112 33 -112 94c0 110 153 160 263 173v100c0 54 -23 95 -103 95c-47 0 -99 -15 -137 -44l-5 6c40 48 106 82 185 82
c107 0 133 -58 133 -121v-294c0 -25 11 -43 39 -43c19 0 34 9 48 21l3 -2c-11 -26 -36 -64 -89 -64zM135 654c0 49 37 85 87 85s87 -36 87 -85c0 -50 -37 -84 -87 -84s-87 34 -87 84zM168 654c0 -41 19 -66 54 -66s54 25 54 66c0 40 -19 68 -54 68s-54 -28 -54 -68zM132 781
l197 169l41 -69l-233 -108z" />
    <glyph glyph-name="aeacute" unicode="&#x1fd;" horiz-adv-x="725" 
d="M508 -15c-85 0 -151 40 -186 110c-34 -59 -92 -110 -177 -110c-68 0 -115 33 -115 94c0 110 152 160 263 173v100c0 54 -23 95 -104 95c-46 0 -98 -15 -136 -44l-5 6c40 48 106 82 185 82c78 0 111 -33 123 -77c39 50 94 77 155 77c114 0 183 -97 177 -193h-319
c-1 -12 -2 -25 -2 -39c0 -128 62 -210 174 -210c53 0 115 19 148 65l5 -3c-24 -75 -90 -126 -186 -126zM183 30c60 0 106 36 132 80c-14 34 -22 73 -22 117v10c-93 -17 -190 -54 -190 -135c0 -42 26 -72 80 -72zM510 473c-73 0 -125 -61 -139 -159l236 5v8
c0 100 -34 146 -97 146zM310 544l132 205l60 -53l-184 -159z" />
    <glyph glyph-name="cacute" unicode="&#x107;" horiz-adv-x="472" 
d="M434 114l6 -3c-26 -75 -92 -126 -187 -126c-131 0 -220 95 -220 242c0 160 120 264 252 264c66 0 110 -19 133 -30l10 -102l-8 -2c-36 63 -87 116 -151 116c-97 0 -161 -80 -161 -212c0 -129 64 -212 176 -212c55 0 117 19 150 65zM189 544l132 205l60 -53l-184 -159z
" />
    <glyph glyph-name="ccaron" unicode="&#x10d;" horiz-adv-x="472" 
d="M434 114l6 -3c-26 -75 -92 -126 -187 -126c-131 0 -220 95 -220 242c0 160 120 264 252 264c66 0 110 -19 133 -30l10 -102l-8 -2c-36 63 -87 116 -151 116c-97 0 -161 -80 -161 -212c0 -129 64 -212 176 -212c55 0 117 19 150 65zM249 540l-136 171l8 8l130 -100
l132 100l8 -8l-138 -171h-4z" />
    <glyph glyph-name="ccircumflex" unicode="&#x109;" horiz-adv-x="472" 
d="M434 114l6 -3c-26 -75 -92 -126 -187 -126c-131 0 -220 95 -220 242c0 160 120 264 252 264c66 0 110 -19 133 -30l10 -102l-8 -2c-36 63 -87 116 -151 116c-97 0 -161 -80 -161 -212c0 -129 64 -212 176 -212c55 0 117 19 150 65zM384 540l-132 100l-130 -100l-8 8
l135 171h5l138 -171z" />
    <glyph glyph-name="cdotaccent" unicode="&#x10b;" horiz-adv-x="472" 
d="M434 114l6 -3c-26 -75 -92 -126 -187 -126c-131 0 -220 95 -220 242c0 160 120 264 252 264c66 0 110 -19 133 -30l10 -102l-8 -2c-36 63 -87 116 -151 116c-97 0 -161 -80 -161 -212c0 -129 64 -212 176 -212c55 0 117 19 150 65zM302 659c0 -28 -22 -50 -49 -50
c-28 0 -50 22 -50 50c0 27 22 50 50 50c27 0 49 -23 49 -50z" />
    <glyph glyph-name="dcaron" unicode="&#x10f;" horiz-adv-x="554" 
d="M272 34c57 0 104 30 134 72v249c-14 91 -71 118 -123 118c-99 0 -168 -96 -168 -229c0 -129 60 -210 157 -210zM411 86h-3c-30 -52 -87 -101 -176 -101c-119 0 -197 94 -197 234c0 143 98 272 262 272c42 0 80 -8 109 -22v167c0 48 -21 75 -44 93v2l117 48v-623
c0 -97 12 -114 45 -135v-2l-113 -31v98zM520 574l28 201h75l-95 -203z" />
    <glyph glyph-name="ebreve" unicode="&#x115;" horiz-adv-x="476" 
d="M256 473c-80 0 -131 -63 -144 -159l250 5v8c0 100 -37 146 -106 146zM445 121c-25 -78 -94 -136 -192 -136c-132 0 -220 102 -220 245c0 159 111 261 227 261s190 -100 183 -193h-333c-1 -11 -1 -22 -1 -34c0 -134 64 -215 177 -215c61 0 120 24 154 75zM238 622
c59 0 96 30 110 76h9c-2 -49 -27 -127 -120 -127c-92 0 -115 78 -117 127h9c14 -46 50 -76 109 -76z" />
    <glyph glyph-name="ecaron" unicode="&#x11b;" horiz-adv-x="476" 
d="M256 473c-80 0 -131 -63 -144 -159l250 5v8c0 100 -37 146 -106 146zM445 121c-25 -78 -94 -136 -192 -136c-132 0 -220 102 -220 245c0 159 111 261 227 261s190 -100 183 -193h-333c-1 -11 -1 -22 -1 -34c0 -134 64 -215 177 -215c61 0 120 24 154 75zM240 540
l-136 171l8 8l130 -100l132 100l8 -8l-138 -171h-4z" />
    <glyph glyph-name="edotaccent" unicode="&#x117;" horiz-adv-x="476" 
d="M256 473c-80 0 -131 -63 -144 -159l250 5v8c0 100 -37 146 -106 146zM445 121c-25 -78 -94 -136 -192 -136c-132 0 -220 102 -220 245c0 159 111 261 227 261s190 -100 183 -193h-333c-1 -11 -1 -22 -1 -34c0 -134 64 -215 177 -215c61 0 120 24 154 75zM293 659
c0 -28 -22 -50 -49 -50c-28 0 -50 22 -50 50c0 27 22 50 50 50c27 0 49 -23 49 -50z" />
    <glyph glyph-name="emacron" unicode="&#x113;" horiz-adv-x="476" 
d="M256 473c-80 0 -131 -63 -144 -159l250 5v8c0 100 -37 146 -106 146zM445 121c-25 -78 -94 -136 -192 -136c-132 0 -220 102 -220 245c0 159 111 261 227 261s190 -100 183 -193h-333c-1 -11 -1 -22 -1 -34c0 -134 64 -215 177 -215c61 0 120 24 154 75zM102 603v42h284
v-42h-284z" />
    <glyph glyph-name="eogonek" unicode="&#x119;" horiz-adv-x="476" 
d="M255 473c-75 0 -129 -61 -143 -159l244 5v8c0 100 -35 146 -101 146zM393 -158c-24 -40 -62 -90 -130 -90c-57 0 -90 32 -90 83c0 62 51 112 117 152c-8 -1 -27 -2 -37 -2c-134 0 -220 94 -220 242c0 164 107 264 225 264c116 0 185 -97 178 -193h-326
c-1 -12 -2 -25 -2 -39c0 -128 63 -210 178 -210c54 0 118 19 152 65l5 -3c-13 -37 -36 -68 -68 -92c-23 -16 -39 -24 -61 -37c-47 -29 -81 -70 -81 -121c0 -42 23 -63 61 -63c30 0 59 13 91 51z" />
    <glyph glyph-name="gbreve" unicode="&#x11f;" horiz-adv-x="497" 
d="M230 172c73 0 106 68 106 150c0 83 -31 151 -107 151c-77 0 -106 -70 -106 -151c0 -80 33 -150 107 -150zM475 -72c-2 -87 -92 -153 -249 -153c-127 0 -214 44 -214 117c0 53 46 90 94 103c-41 12 -65 35 -65 74c0 59 56 91 108 103c-60 28 -102 85 -102 150
c0 92 81 169 182 169c48 0 93 -18 126 -47l122 64l2 -1v-76h-4l-109 2c29 -29 46 -68 46 -111c0 -91 -82 -168 -182 -168c-24 0 -48 4 -69 13c-40 -15 -60 -38 -60 -65c0 -29 25 -46 93 -48l108 -4c110 -4 174 -50 173 -122zM254 -199c109 0 171 37 171 99
c0 55 -51 79 -135 82l-110 2c-23 1 -44 3 -62 7c-20 -12 -40 -40 -40 -79c0 -73 67 -111 176 -111zM235 622c59 0 96 30 110 76h9c-2 -49 -27 -127 -120 -127c-92 0 -115 78 -117 127h9c14 -46 50 -76 109 -76z" />
    <glyph glyph-name="gcircumflex" unicode="&#x11d;" horiz-adv-x="497" 
d="M230 172c73 0 106 68 106 150c0 83 -31 151 -107 151c-77 0 -106 -70 -106 -151c0 -80 33 -150 107 -150zM475 -72c-2 -87 -92 -153 -249 -153c-127 0 -214 44 -214 117c0 53 46 90 94 103c-41 12 -65 35 -65 74c0 59 56 91 108 103c-60 28 -102 85 -102 150
c0 92 81 169 182 169c48 0 93 -18 126 -47l122 64l2 -1v-76h-4l-109 2c29 -29 46 -68 46 -111c0 -91 -82 -168 -182 -168c-24 0 -48 4 -69 13c-40 -15 -60 -38 -60 -65c0 -29 25 -46 93 -48l108 -4c110 -4 174 -50 173 -122zM254 -199c109 0 171 37 171 99
c0 55 -51 79 -135 82l-110 2c-23 1 -44 3 -62 7c-20 -12 -40 -40 -40 -79c0 -73 67 -111 176 -111zM364 540l-132 100l-130 -100l-8 8l135 171h5l138 -171z" />
    <glyph glyph-name="uni0123" unicode="&#x123;" horiz-adv-x="497" 
d="M230 172c73 0 106 68 106 150c0 83 -31 151 -107 151c-77 0 -106 -70 -106 -151c0 -80 33 -150 107 -150zM475 -72c-2 -87 -92 -153 -249 -153c-127 0 -214 44 -214 117c0 53 46 90 94 103c-41 12 -65 35 -65 74c0 59 56 91 108 103c-60 28 -102 85 -102 150
c0 92 81 169 182 169c48 0 93 -18 126 -47l122 64l2 -1v-76h-4l-109 2c29 -29 46 -68 46 -111c0 -91 -82 -168 -182 -168c-24 0 -48 4 -69 13c-40 -15 -60 -38 -60 -65c0 -29 25 -46 93 -48l108 -4c110 -4 174 -50 173 -122zM254 -199c109 0 171 37 171 99
c0 55 -51 79 -135 82l-110 2c-23 1 -44 3 -62 7c-20 -12 -40 -40 -40 -79c0 -73 67 -111 176 -111zM299 772l4 -5c-30 -22 -52 -54 -52 -79c0 -18 19 -45 37 -62v-1l-61 -43c-21 15 -36 40 -36 66c0 52 63 99 108 124z" />
    <glyph glyph-name="gdotaccent" unicode="&#x121;" horiz-adv-x="497" 
d="M230 172c73 0 106 68 106 150c0 83 -31 151 -107 151c-77 0 -106 -70 -106 -151c0 -80 33 -150 107 -150zM475 -72c-2 -87 -92 -153 -249 -153c-127 0 -214 44 -214 117c0 53 46 90 94 103c-41 12 -65 35 -65 74c0 59 56 91 108 103c-60 28 -102 85 -102 150
c0 92 81 169 182 169c48 0 93 -18 126 -47l122 64l2 -1v-76h-4l-109 2c29 -29 46 -68 46 -111c0 -91 -82 -168 -182 -168c-24 0 -48 4 -69 13c-40 -15 -60 -38 -60 -65c0 -29 25 -46 93 -48l108 -4c110 -4 174 -50 173 -122zM254 -199c109 0 171 37 171 99
c0 55 -51 79 -135 82l-110 2c-23 1 -44 3 -62 7c-20 -12 -40 -40 -40 -79c0 -73 67 -111 176 -111zM283 659c0 -28 -22 -50 -49 -50c-28 0 -50 22 -50 50c0 27 22 50 50 50c27 0 49 -23 49 -50z" />
    <glyph glyph-name="hbar" unicode="&#x127;" horiz-adv-x="529" 
d="M167 0h-118v2c19 44 22 82 22 152v425h-66v19h66v32c0 50 -21 80 -44 100v2l117 47v-181h186v-19h-186v-177c48 56 105 89 172 89c92 0 140 -56 140 -146v-191c0 -71 2 -108 22 -152v-2h-117v2c19 44 22 86 22 152v175c0 62 -27 113 -102 113c-48 0 -98 -19 -137 -59
v-229c0 -68 2 -108 23 -152v-2z" />
    <glyph glyph-name="hcircumflex" unicode="&#x125;" horiz-adv-x="529" 
d="M169 0h-118v2c19 44 22 82 22 152v476c0 50 -21 80 -44 100v2l117 47v-377c48 56 105 89 172 89c92 0 140 -56 140 -146v-191c0 -71 2 -108 22 -152v-2h-117v2c19 44 22 86 22 152v175c0 62 -27 113 -102 113c-48 0 -98 -19 -137 -59v-229c0 -68 2 -108 23 -152v-2z
M421 807l-147 88l-147 -88l-8 8l152 155h5l152 -155z" />
    <glyph glyph-name="ibreve" unicode="&#x12d;" horiz-adv-x="218" 
d="M53 0v2c16 44 22 83 22 152v186c0 49 -21 79 -44 99v4l117 53v-341c0 -69 2 -109 22 -153v-2h-117zM107 622c59 0 96 30 110 76h9c-2 -49 -27 -127 -120 -127c-92 0 -115 78 -117 127h9c14 -46 50 -76 109 -76z" />
    <glyph glyph-name="idotaccent" horiz-adv-x="218" 
d="M157 659c0 -28 -22 -50 -49 -50s-50 22 -50 50c0 27 23 50 50 50s49 -23 49 -50zM53 0v2c16 44 22 83 22 152v186c0 49 -21 79 -44 99v4l117 53v-341c0 -69 2 -109 22 -153v-2h-117z" />
    <glyph glyph-name="imacron" unicode="&#x12b;" horiz-adv-x="218" 
d="M-2 603v42h203v-42h-203zM53 0v2c16 44 22 83 22 152v186c0 49 -21 79 -44 99v4l117 53v-341c0 -69 2 -109 22 -153v-2h-117z" />
    <glyph glyph-name="iogonek" unicode="&#x12f;" horiz-adv-x="218" 
d="M53 0v2c16 44 22 83 22 152v186c0 49 -21 79 -44 99v4l117 53v-341c0 -69 2 -109 22 -153v-2h-21c-66 -51 -91 -98 -91 -141c0 -40 22 -61 60 -61c31 0 60 13 92 51l8 -7c-24 -40 -62 -90 -131 -90c-56 0 -90 33 -90 82c0 61 52 108 126 166h-70zM157 659
c0 -28 -22 -50 -49 -50s-50 22 -50 50c0 27 23 50 50 50s49 -23 49 -50z" />
    <glyph glyph-name="itilde" unicode="&#x129;" horiz-adv-x="218" 
d="M53 0v2c16 44 22 83 22 152v186c0 49 -21 79 -44 99v4l117 53v-341c0 -69 2 -109 22 -153v-2h-117zM38 681c48 0 90 -38 143 -38c33 0 50 15 60 49l9 -1c-3 -36 -16 -107 -82 -107c-49 0 -91 39 -144 39c-33 0 -50 -16 -59 -49l-10 1c3 36 16 106 83 106z" />
    <glyph glyph-name="jcircumflex" unicode="&#x135;" horiz-adv-x="215" 
d="M14 -243l-2 5c44 26 65 61 65 141v437c0 49 -22 79 -45 99v4l118 53l-2 -553c0 -121 -53 -176 -134 -186zM243 540l-132 100l-130 -100l-8 8l135 171h5l138 -171z" />
    <glyph glyph-name="uni0137" unicode="&#x137;" horiz-adv-x="456" 
d="M51 0v2c16 31 22 64 22 126v509c0 47 -21 74 -44 92v2l117 48v-650c0 -62 5 -96 23 -127v-2h-118zM456 0h-113l-180 249l130 144c25 28 34 60 8 81v2h122v-2c-54 -24 -78 -50 -114 -91l-85 -96l141 -195c34 -46 56 -71 91 -90v-2zM182 -233l-4 5c30 22 52 54 52 79
c0 18 -19 45 -37 62v1l61 43c21 -15 36 -40 36 -66c0 -52 -63 -99 -108 -124z" />
    <glyph glyph-name="lacute" unicode="&#x13a;" horiz-adv-x="216" 
d="M51 0v2c16 31 22 64 22 126v509c0 47 -22 74 -45 92v2l118 48v-650c0 -62 4 -96 22 -127v-2h-117zM12 790l197 169l41 -69l-233 -108z" />
    <glyph glyph-name="lcaron" unicode="&#x13e;" horiz-adv-x="216" 
d="M51 0v2c16 31 22 64 22 126v509c0 47 -22 74 -45 92v2l118 48v-650c0 -62 4 -96 22 -127v-2h-117zM187 574l28 201h75l-95 -203z" />
    <glyph glyph-name="uni013C" unicode="&#x13c;" horiz-adv-x="216" 
d="M51 0v2c16 31 22 64 22 126v509c0 47 -22 74 -45 92v2l118 48v-650c0 -62 4 -96 22 -127v-2h-117zM47 -233l-4 5c30 22 52 54 52 79c0 18 -19 45 -37 62v1l61 43c21 -15 36 -40 36 -66c0 -52 -63 -99 -108 -124z" />
    <glyph glyph-name="ldot" unicode="&#x140;" horiz-adv-x="314" 
d="M51 0v2c16 31 22 64 22 126v509c0 47 -22 74 -45 92v2l118 48v-650c0 -62 4 -96 22 -127v-2h-117zM264 306c-30 0 -56 26 -56 56c0 32 26 57 56 57c31 0 57 -25 57 -57c0 -30 -26 -56 -57 -56z" />
    <glyph glyph-name="nacute" unicode="&#x144;" horiz-adv-x="530" 
d="M170 2v-2h-117v2c19 44 22 82 22 152v187c0 51 -21 80 -44 100v2l113 53v-93l4 -1c47 56 105 89 171 89c92 0 141 -56 141 -146v-190c0 -72 1 -109 22 -153v-2h-117v2c18 44 22 86 22 152v175c0 62 -27 113 -103 113c-47 0 -97 -19 -136 -59v-228c0 -69 2 -109 22 -153z
M205 544l132 205l60 -53l-184 -159z" />
    <glyph glyph-name="napostrophe" unicode="&#x149;" horiz-adv-x="530" 
d="M170 2v-2h-117v2c19 44 22 82 22 152v187c0 51 -21 80 -44 100v2l113 53v-93l4 -1c47 56 105 89 171 89c92 0 141 -56 141 -146v-190c0 -72 1 -109 22 -153v-2h-117v2c18 44 22 86 22 152v175c0 62 -27 113 -103 113c-47 0 -97 -19 -136 -59v-228c0 -69 2 -109 22 -153z
M-21 526l-6 6c29 30 52 69 52 102c0 20 -22 49 -41 68v2l64 51c23 -16 39 -43 39 -70c0 -67 -63 -126 -108 -159z" />
    <glyph glyph-name="ncaron" unicode="&#x148;" horiz-adv-x="530" 
d="M170 2v-2h-117v2c19 44 22 82 22 152v187c0 51 -21 80 -44 100v2l113 53v-93l4 -1c47 56 105 89 171 89c92 0 141 -56 141 -146v-190c0 -72 1 -109 22 -153v-2h-117v2c18 44 22 86 22 152v175c0 62 -27 113 -103 113c-47 0 -97 -19 -136 -59v-228c0 -69 2 -109 22 -153z
M266 540l-136 171l8 8l130 -100l132 100l8 -8l-138 -171h-4z" />
    <glyph glyph-name="uni0146" unicode="&#x146;" horiz-adv-x="530" 
d="M170 2v-2h-117v2c19 44 22 82 22 152v187c0 51 -21 80 -44 100v2l113 53v-93l4 -1c47 56 105 89 171 89c92 0 141 -56 141 -146v-190c0 -72 1 -109 22 -153v-2h-117v2c18 44 22 86 22 152v175c0 62 -27 113 -103 113c-47 0 -97 -19 -136 -59v-228c0 -69 2 -109 22 -153z
M213 -233l-4 5c30 22 52 54 52 79c0 18 -19 45 -37 62v1l61 43c21 -15 36 -40 36 -66c0 -52 -63 -99 -108 -124z" />
    <glyph glyph-name="obreve" unicode="&#x14f;" horiz-adv-x="562" 
d="M281 -15c-137 0 -251 114 -251 252c1 138 115 254 251 254c137 0 251 -116 251 -254s-114 -252 -251 -252zM281 4c113 0 167 108 167 233c0 126 -55 235 -167 235s-167 -109 -167 -235c0 -125 54 -233 167 -233zM281 622c59 0 96 30 110 76h9c-2 -49 -27 -127 -120 -127
c-92 0 -115 78 -117 127h9c14 -46 50 -76 109 -76z" />
    <glyph glyph-name="ohungarumlaut" unicode="&#x151;" horiz-adv-x="562" 
d="M281 -15c-137 0 -251 114 -251 252c1 138 115 254 251 254c137 0 251 -116 251 -254s-114 -252 -251 -252zM281 4c113 0 167 108 167 233c0 126 -55 235 -167 235s-167 -109 -167 -235c0 -125 54 -233 167 -233zM325 550l116 179l48 -49l-156 -139zM175 550l116 179
l48 -49l-156 -139z" />
    <glyph glyph-name="omacron" unicode="&#x14d;" horiz-adv-x="562" 
d="M281 -15c-137 0 -251 114 -251 252c1 138 115 254 251 254c137 0 251 -116 251 -254s-114 -252 -251 -252zM281 4c113 0 167 108 167 233c0 126 -55 235 -167 235s-167 -109 -167 -235c0 -125 54 -233 167 -233zM140 603v42h284v-42h-284z" />
    <glyph glyph-name="oslashacute" unicode="&#x1ff;" horiz-adv-x="562" 
d="M281 -15c-49 0 -96 15 -135 40l-63 -92h-26l72 104c-60 47 -99 119 -99 200c1 138 115 254 251 254c49 0 94 -15 133 -40l65 93h26l-73 -106c60 -47 100 -120 100 -201c0 -138 -114 -252 -251 -252zM281 4c113 0 167 108 167 233c0 63 -14 121 -42 164l-238 -345
c27 -33 64 -52 113 -52zM114 237c0 -62 13 -120 40 -163l239 346c-27 32 -65 52 -112 52c-112 0 -167 -109 -167 -235zM228 544l132 205l60 -53l-184 -159z" />
    <glyph glyph-name="racute" unicode="&#x155;" horiz-adv-x="331" 
d="M53 0v2c19 44 22 82 22 152v187c0 51 -21 80 -44 100v2l113 53v-121l5 -1c44 47 91 117 160 117l-1 -99h-3c-16 11 -57 22 -80 22c-17 0 -50 -27 -77 -62v-197c0 -69 2 -109 22 -153v-2h-117zM129 544l132 205l60 -53l-184 -159z" />
    <glyph glyph-name="rcaron" unicode="&#x159;" horiz-adv-x="331" 
d="M53 0v2c19 44 22 82 22 152v187c0 51 -21 80 -44 100v2l113 53v-121l5 -1c44 47 91 117 160 117l-1 -99h-3c-16 11 -57 22 -80 22c-17 0 -50 -27 -77 -62v-197c0 -69 2 -109 22 -153v-2h-117zM195 540l-136 171l8 8l130 -100l132 100l8 -8l-138 -171h-4z" />
    <glyph glyph-name="uni0157" unicode="&#x157;" horiz-adv-x="331" 
d="M53 0v2c19 44 22 82 22 152v187c0 51 -21 80 -44 100v2l113 53v-121l5 -1c44 47 91 117 160 117l-1 -99h-3c-16 11 -57 22 -80 22c-17 0 -50 -27 -77 -62v-197c0 -69 2 -109 22 -153v-2h-117zM47 -233l-4 5c30 22 52 54 52 79c0 18 -19 45 -37 62v1l61 43
c21 -15 36 -40 36 -66c0 -52 -63 -99 -108 -124z" />
    <glyph glyph-name="sacute" unicode="&#x15b;" horiz-adv-x="386" 
d="M324 472l10 -98l-7 -2c-44 79 -92 101 -140 101c-58 0 -96 -34 -96 -82c0 -60 60 -81 128 -109c70 -28 142 -62 142 -157c0 -91 -71 -140 -181 -140c-58 0 -105 14 -139 28l-10 114l7 2c41 -88 89 -126 156 -126c74 0 107 46 107 95c0 60 -50 84 -117 111
c-66 27 -145 59 -145 152c0 97 85 130 169 130c44 0 89 -9 116 -19zM137 544l132 205l60 -53l-184 -159z" />
    <glyph glyph-name="uni015F" unicode="&#x15f;" horiz-adv-x="386" 
d="M113 -255l-3 8c51 20 94 44 94 88c0 49 -57 55 -80 57l-2 2s34 55 52 85c-55 1 -100 15 -133 28l-10 114l7 2c41 -88 89 -126 156 -126c74 0 107 46 107 95c0 60 -50 84 -117 111c-66 27 -145 59 -145 152c0 97 85 130 169 130c44 0 89 -9 116 -19l10 -98l-7 -2
c-44 79 -92 101 -140 101c-58 0 -96 -34 -96 -82c0 -60 60 -81 128 -109c70 -28 142 -62 142 -157c0 -85 -62 -132 -159 -139l-28 -44c50 -11 85 -38 85 -85c0 -60 -59 -94 -146 -112z" />
    <glyph glyph-name="scircumflex" unicode="&#x15d;" horiz-adv-x="386" 
d="M324 472l10 -98l-7 -2c-44 79 -92 101 -140 101c-58 0 -96 -34 -96 -82c0 -60 60 -81 128 -109c70 -28 142 -62 142 -157c0 -91 -71 -140 -181 -140c-58 0 -105 14 -139 28l-10 114l7 2c41 -88 89 -126 156 -126c74 0 107 46 107 95c0 60 -50 84 -117 111
c-66 27 -145 59 -145 152c0 97 85 130 169 130c44 0 89 -9 116 -19zM322 540l-132 100l-130 -100l-8 8l135 171h5l138 -171z" />
    <glyph glyph-name="uni0219" unicode="&#x219;" horiz-adv-x="386" 
d="M324 472l10 -98l-7 -2c-44 79 -92 101 -140 101c-58 0 -96 -34 -96 -82c0 -60 60 -81 128 -109c70 -28 142 -62 142 -157c0 -91 -71 -140 -181 -140c-58 0 -105 14 -139 28l-10 114l7 2c41 -88 89 -126 156 -126c74 0 107 46 107 95c0 60 -50 84 -117 111
c-66 27 -145 59 -145 152c0 97 85 130 169 130c44 0 89 -9 116 -19zM134 -233l-4 5c30 22 52 54 52 79c0 18 -19 45 -37 62v1l61 43c21 -15 36 -40 36 -66c0 -52 -63 -99 -108 -124z" />
    <glyph glyph-name="tbar" unicode="&#x167;" horiz-adv-x="322" 
d="M190 -15c-53 0 -106 25 -106 115v209h-59v17h59v132h-54v4l122 105h5v-91h140v-18h-140v-132h135v-17h-135v-209c0 -49 22 -75 72 -75c36 0 65 13 76 19l2 -4c-20 -26 -61 -55 -117 -55z" />
    <glyph glyph-name="tcaron" unicode="&#x165;" horiz-adv-x="322" 
d="M185 -15c-53 0 -106 25 -106 115v358h-54v4l122 105h5v-91h140v-18h-140v-358c0 -49 22 -75 72 -75c36 0 65 13 76 19l2 -4c-20 -26 -61 -55 -117 -55zM228 574l28 201h75l-95 -203z" />
    <glyph glyph-name="tcommaaccent" unicode="&#x163;" horiz-adv-x="322" 
d="M185 -15c-53 0 -106 25 -106 115v358h-54v4l122 105h5v-91h140v-18h-140v-358c0 -49 22 -75 72 -75c36 0 65 13 76 19l2 -4c-20 -26 -61 -55 -117 -55zM109 -233l-4 5c30 22 52 54 52 79c0 18 -19 45 -37 62v1l61 43c21 -15 36 -40 36 -66c0 -52 -63 -99 -108 -124z" />
    <glyph glyph-name="uni021B" unicode="&#x21b;" horiz-adv-x="322" 
d="M185 -15c-53 0 -106 25 -106 115v358h-54v4l122 105h5v-91h140v-18h-140v-358c0 -49 22 -75 72 -75c36 0 65 13 76 19l2 -4c-20 -26 -61 -55 -117 -55zM109 -233l-4 5c30 22 52 54 52 79c0 18 -19 45 -37 62v1l61 43c21 -15 36 -40 36 -66c0 -52 -63 -99 -108 -124z" />
    <glyph glyph-name="ubreve" unicode="&#x16d;" horiz-adv-x="506" 
d="M356 -12v103c-36 -54 -84 -106 -164 -106c-86 0 -131 60 -131 154v251c0 40 -17 67 -42 84v2h115v-321c0 -74 32 -112 96 -112c57 0 96 29 121 64v283c0 39 -16 67 -44 84v2h117v-338c0 -83 13 -98 45 -116v-2zM240 622c59 0 96 30 110 76h9c-2 -49 -27 -127 -120 -127
c-92 0 -115 78 -117 127h9c14 -46 50 -76 109 -76z" />
    <glyph glyph-name="uhungarumlaut" unicode="&#x171;" horiz-adv-x="506" 
d="M356 -12v103c-36 -54 -84 -106 -164 -106c-86 0 -131 60 -131 154v251c0 40 -17 67 -42 84v2h115v-321c0 -74 32 -112 96 -112c57 0 96 29 121 64v283c0 39 -16 67 -44 84v2h117v-338c0 -83 13 -98 45 -116v-2zM285 550l116 179l48 -49l-156 -139zM135 550l116 179
l48 -49l-156 -139z" />
    <glyph glyph-name="umacron" unicode="&#x16b;" horiz-adv-x="506" 
d="M356 -12v103c-36 -54 -84 -106 -164 -106c-86 0 -131 60 -131 154v251c0 40 -17 67 -42 84v2h115v-321c0 -74 32 -112 96 -112c57 0 96 29 121 64v283c0 39 -16 67 -44 84v2h117v-338c0 -83 13 -98 45 -116v-2zM98 603v42h284v-42h-284z" />
    <glyph glyph-name="uogonek" unicode="&#x173;" horiz-adv-x="506" 
d="M316 -248c-56 0 -90 32 -90 82c0 63 51 114 130 167v90c-36 -54 -84 -106 -164 -106c-86 0 -131 60 -131 154v251c0 40 -17 67 -42 84v2h115v-321c0 -74 32 -112 96 -112c57 0 96 29 121 64v283c0 39 -16 67 -44 84v2h117v-338c0 -83 13 -98 45 -116v-2
c-33 -9 -68 -18 -93 -31c-57 -33 -89 -82 -89 -129c0 -41 23 -62 61 -62c30 0 59 13 91 51l8 -7c-24 -40 -62 -90 -131 -90z" />
    <glyph glyph-name="uring" unicode="&#x16f;" horiz-adv-x="506" 
d="M356 -12v103c-36 -54 -84 -106 -164 -106c-86 0 -131 60 -131 154v251c0 40 -17 67 -42 84v2h115v-321c0 -74 32 -112 96 -112c57 0 96 29 121 64v283c0 39 -16 67 -44 84v2h117v-338c0 -83 13 -98 45 -116v-2zM157 654c0 49 37 85 87 85s87 -36 87 -85
c0 -50 -37 -84 -87 -84s-87 34 -87 84zM190 654c0 -41 19 -66 54 -66s54 25 54 66c0 40 -19 68 -54 68s-54 -28 -54 -68z" />
    <glyph glyph-name="utilde" unicode="&#x169;" horiz-adv-x="506" 
d="M356 -12v103c-36 -54 -84 -106 -164 -106c-86 0 -131 60 -131 154v251c0 40 -17 67 -42 84v2h115v-321c0 -74 32 -112 96 -112c57 0 96 29 121 64v283c0 39 -16 67 -44 84v2h117v-338c0 -83 13 -98 45 -116v-2zM175 681c48 0 90 -38 143 -38c33 0 50 15 60 49l9 -1
c-3 -36 -16 -107 -82 -107c-49 0 -91 39 -144 39c-33 0 -50 -16 -59 -49l-10 1c3 36 16 106 83 106z" />
    <glyph glyph-name="wacute" unicode="&#x1e83;" horiz-adv-x="651" 
d="M187 -8l-122 374c-20 61 -36 89 -57 108v2h139v-2c-10 -15 -18 -54 -3 -102l79 -258l91 249l-1 3c-20 57 -35 89 -58 108v2h136v-2c-10 -15 -17 -51 2 -109l82 -250l80 235c22 63 12 104 -11 124v2h102v-2c-33 -30 -46 -53 -67 -113l-126 -369h-11l-119 345l-125 -345
h-11zM273 544l132 205l60 -53l-184 -159z" />
    <glyph glyph-name="wcircumflex" unicode="&#x175;" horiz-adv-x="651" 
d="M187 -8l-122 374c-20 61 -36 89 -57 108v2h139v-2c-10 -15 -18 -54 -3 -102l79 -258l91 249l-1 3c-20 57 -35 89 -58 108v2h136v-2c-10 -15 -17 -51 2 -109l82 -250l80 235c22 63 12 104 -11 124v2h102v-2c-33 -30 -46 -53 -67 -113l-126 -369h-11l-119 345l-125 -345
h-11zM469 540l-132 100l-130 -100l-8 8l135 171h5l138 -171z" />
    <glyph glyph-name="wdieresis" unicode="&#x1e85;" horiz-adv-x="651" 
d="M187 -8l-122 374c-20 61 -36 89 -57 108v2h139v-2c-10 -15 -18 -54 -3 -102l79 -258l91 249l-1 3c-20 57 -35 89 -58 108v2h136v-2c-10 -15 -17 -51 2 -109l82 -250l80 235c22 63 12 104 -11 124v2h102v-2c-33 -30 -46 -53 -67 -113l-126 -369h-11l-119 345l-125 -345
h-11zM487 659c0 -28 -22 -50 -49 -50c-28 0 -50 22 -50 50c0 27 22 50 50 50c27 0 49 -23 49 -50zM287 659c0 -28 -22 -50 -49 -50c-28 0 -50 22 -50 50c0 27 22 50 50 50c27 0 49 -23 49 -50z" />
    <glyph glyph-name="wgrave" unicode="&#x1e81;" horiz-adv-x="651" 
d="M187 -8l-122 374c-20 61 -36 89 -57 108v2h139v-2c-10 -15 -18 -54 -3 -102l79 -258l91 249l-1 3c-20 57 -35 89 -58 108v2h136v-2c-10 -15 -17 -51 2 -109l82 -250l80 235c22 63 12 104 -11 124v2h102v-2c-33 -30 -46 -53 -67 -113l-126 -369h-11l-119 345l-125 -345
h-11zM392 539l-8 -6l-185 163l61 53z" />
    <glyph glyph-name="ycircumflex" unicode="&#x177;" horiz-adv-x="429" 
d="M31 -225l-2 74c35 0 123 15 159 111l14 37l-140 368c-23 61 -36 87 -60 109v2h141v-2c-17 -19 -23 -55 -1 -115l98 -262l97 258c21 57 12 99 -13 119v2h105v-2c-32 -30 -46 -53 -68 -113l-165 -427c-45 -117 -96 -151 -165 -159zM366 540l-132 100l-130 -100l-8 8
l135 171h5l138 -171z" />
    <glyph glyph-name="ygrave" unicode="&#x1ef3;" horiz-adv-x="429" 
d="M31 -225l-2 74c35 0 123 15 159 111l14 37l-140 368c-23 61 -36 87 -60 109v2h141v-2c-17 -19 -23 -55 -1 -115l98 -262l97 258c21 57 12 99 -13 119v2h105v-2c-32 -30 -46 -53 -68 -113l-165 -427c-45 -117 -96 -151 -165 -159zM293 539l-8 -6l-185 163l61 53z" />
    <glyph glyph-name="zacute" unicode="&#x17a;" horiz-adv-x="428" 
d="M368 0h-350v7l291 452l-138 -4c-50 -1 -86 -46 -126 -91l-5 2l33 110h324v-8l-289 -451l151 3c60 1 95 43 139 101l5 -2zM164 544l132 205l60 -53l-184 -159z" />
    <glyph glyph-name="zdotaccent" unicode="&#x17c;" horiz-adv-x="428" 
d="M368 0h-350v7l291 452l-138 -4c-50 -1 -86 -46 -126 -91l-5 2l33 110h324v-8l-289 -451l151 3c60 1 95 43 139 101l5 -2zM277 659c0 -28 -22 -50 -49 -50c-28 0 -50 22 -50 50c0 27 22 50 50 50c27 0 49 -23 49 -50z" />
    <glyph glyph-name="space_uni0326" 
d="M133 -233l-4 5c30 22 52 54 52 79c0 18 -19 45 -37 62v1l61 43c21 -15 36 -40 36 -66c0 -52 -63 -99 -108 -124z" />
    <glyph glyph-name="oneeighth" unicode="&#x215b;" horiz-adv-x="638" 
d="M167 354h-122v1c23 27 28 43 28 79v226h-48v5c40 20 77 46 109 80h5v-311c0 -37 5 -52 28 -79v-1zM52 1l-16 13l520 729l18 -11zM480 -8c-71 0 -130 37 -130 99c0 42 27 80 88 98c-51 28 -69 61 -69 98c0 63 48 106 116 106c64 0 114 -36 114 -90c0 -31 -16 -68 -75 -85
c69 -34 94 -74 94 -116c0 -67 -60 -110 -138 -110zM419 317c0 -42 31 -65 93 -93c30 21 40 48 40 79c0 48 -25 75 -66 75s-67 -26 -67 -61zM481 7c50 0 84 28 84 71c0 48 -38 71 -115 105c-37 -22 -53 -54 -53 -91c0 -53 32 -85 84 -85z" />
    <glyph glyph-name="onethird" unicode="&#x2153;" horiz-adv-x="678" 
d="M167 354h-122v1c23 27 28 43 28 79v226h-48v5c40 20 77 46 109 80h5v-311c0 -37 5 -52 28 -79v-1zM62 1l-16 13l520 729l18 -11zM508 -8c-39 0 -80 10 -102 23l-13 89l6 1c37 -58 61 -98 110 -98c55 0 80 48 80 112c0 70 -31 103 -84 103c-29 0 -50 -10 -68 -22l-6 8
l140 122h-159l17 54h222v-5l-166 -144c11 3 23 4 37 4c68 0 134 -39 134 -120c0 -77 -60 -127 -148 -127z" />
    <glyph glyph-name="threeeighths" unicode="&#x215c;" horiz-adv-x="699" 
d="M140 346c-39 0 -80 10 -102 23l-13 89l6 1c37 -58 61 -98 110 -98c55 0 80 48 80 112c0 70 -31 103 -84 103c-29 0 -50 -10 -68 -22l-6 8l140 122h-159l17 54h222v-5l-166 -144c11 3 23 4 37 4c68 0 134 -39 134 -120c0 -77 -60 -127 -148 -127zM113 1l-16 13l520 729
l18 -11zM541 -8c-71 0 -130 37 -130 99c0 42 27 80 88 98c-51 28 -69 61 -69 98c0 63 48 106 116 106c64 0 114 -36 114 -90c0 -31 -16 -68 -75 -85c69 -34 94 -74 94 -116c0 -67 -60 -110 -138 -110zM480 317c0 -42 31 -65 93 -93c30 21 40 48 40 79c0 48 -25 75 -66 75
s-67 -26 -67 -61zM542 7c50 0 84 28 84 71c0 48 -38 71 -115 105c-37 -22 -53 -54 -53 -91c0 -53 32 -85 84 -85z" />
    <glyph glyph-name="fiveeighths" unicode="&#x215d;" horiz-adv-x="696" 
d="M127 346c-40 0 -73 10 -92 23l-13 87l5 1c29 -54 58 -96 104 -96s78 38 78 109c0 74 -33 115 -92 115c-23 0 -44 -6 -64 -22l-6 4l29 172h192l-10 -54h-175l-17 -102c20 12 42 18 69 18c71 0 139 -41 139 -127c0 -85 -68 -128 -147 -128zM110 1l-16 13l520 729l18 -11z
M538 -8c-71 0 -130 37 -130 99c0 42 27 80 88 98c-51 28 -69 61 -69 98c0 63 48 106 116 106c64 0 114 -36 114 -90c0 -31 -16 -68 -75 -85c69 -34 94 -74 94 -116c0 -67 -60 -110 -138 -110zM477 317c0 -42 31 -65 93 -93c30 21 40 48 40 79c0 48 -25 75 -66 75
s-67 -26 -67 -61zM539 7c50 0 84 28 84 71c0 48 -38 71 -115 105c-37 -22 -53 -54 -53 -91c0 -53 32 -85 84 -85z" />
    <glyph glyph-name="twothirds" unicode="&#x2154;" horiz-adv-x="739" 
d="M253 354h-241v7c144 127 189 201 189 280c0 57 -24 91 -67 91c-42 0 -70 -40 -98 -96l-5 2l12 92c19 7 50 17 93 17c92 0 131 -45 131 -104c0 -76 -66 -144 -188 -235h102c49 0 73 26 97 62l4 -2zM125 1l-16 13l520 729l18 -11zM569 -8c-39 0 -80 10 -102 23l-13 89l6 1
c37 -58 61 -98 110 -98c55 0 80 48 80 112c0 70 -31 103 -84 103c-29 0 -50 -10 -68 -22l-6 8l140 122h-159l17 54h222v-5l-166 -144c11 3 23 4 37 4c68 0 134 -39 134 -120c0 -77 -60 -127 -148 -127z" />
    <glyph glyph-name="seveneighths" unicode="&#x215e;" horiz-adv-x="634" 
d="M133 354h-72c38 134 107 243 175 329h-203l11 56h240v-5c-63 -99 -126 -226 -151 -380zM48 1l-16 13l520 729l18 -11zM476 -8c-71 0 -130 37 -130 99c0 42 27 80 88 98c-51 28 -69 61 -69 98c0 63 48 106 116 106c64 0 114 -36 114 -90c0 -31 -16 -68 -75 -85
c69 -34 94 -74 94 -116c0 -67 -60 -110 -138 -110zM415 317c0 -42 31 -65 93 -93c30 21 40 48 40 79c0 48 -25 75 -66 75s-67 -26 -67 -61zM477 7c50 0 84 28 84 71c0 48 -38 71 -115 105c-37 -22 -53 -54 -53 -91c0 -53 32 -85 84 -85z" />
    <glyph glyph-name="uni24C5" unicode="&#x24c5;" horiz-adv-x="834" 
d="M35 367c0 212 171 380 381 380c211 0 382 -168 382 -380c0 -214 -172 -381 -382 -381s-381 167 -381 381zM61 367c0 -200 159 -361 355 -361c197 0 355 161 355 361c0 199 -158 359 -355 359c-196 0 -355 -160 -355 -359zM297 153v2c18 28 22 43 22 80v240
c0 37 -4 51 -22 79v2h135c105 0 138 -50 138 -112c0 -76 -52 -126 -146 -126h-52v-83c0 -38 4 -52 22 -80v-2h-97zM423 539c-9 0 -19 0 -51 -1v-202h51c66 0 93 50 93 108c0 77 -43 95 -93 95z" />
    <glyph glyph-name="five.num" horiz-adv-x="291" 
d="M122 346c-40 0 -73 10 -92 23l-13 87l5 1c29 -54 58 -96 104 -96s78 38 78 109c0 74 -33 115 -92 115c-23 0 -44 -6 -64 -22l-6 4l29 172h192l-10 -54h-175l-17 -102c20 12 42 18 69 18c71 0 139 -41 139 -127c0 -85 -68 -128 -147 -128z" />
    <glyph glyph-name="zero.num" horiz-adv-x="369" 
d="M184 346c-89 0 -161 87 -161 201s71 200 161 200c89 0 163 -86 163 -200s-74 -201 -163 -201zM184 361c66 0 89 79 89 186c0 106 -23 185 -89 185s-87 -79 -87 -185c0 -107 21 -186 87 -186z" />
    <glyph glyph-name="one.num" horiz-adv-x="194" 
d="M162 354h-122v1c23 27 28 43 28 79v226h-48v5c40 20 77 46 109 80h5v-311c0 -37 5 -52 28 -79v-1z" />
    <glyph glyph-name="two.num" horiz-adv-x="304" 
d="M248 354h-241v7c144 127 189 201 189 280c0 57 -24 91 -67 91c-42 0 -70 -40 -98 -96l-5 2l12 92c19 7 50 17 93 17c92 0 131 -45 131 -104c0 -76 -66 -144 -188 -235h102c49 0 73 26 97 62l4 -2z" />
    <glyph glyph-name="three.num" horiz-adv-x="303" 
d="M135 346c-39 0 -80 10 -102 23l-13 89l6 1c37 -58 61 -98 110 -98c55 0 80 48 80 112c0 70 -31 103 -84 103c-29 0 -50 -10 -68 -22l-6 8l140 122h-159l17 54h222v-5l-166 -144c11 3 23 4 37 4c68 0 134 -39 134 -120c0 -77 -60 -127 -148 -127z" />
    <glyph glyph-name="four.num" horiz-adv-x="317" 
d="M158 354v1c18 27 22 43 22 79v20h-168v7l176 278h78l-231 -269h145v118h67v-118h49l-4 -16h-45v-20c0 -37 5 -52 23 -79v-1h-112z" />
    <glyph glyph-name="six.num" horiz-adv-x="328" 
d="M165 346c-85 0 -141 65 -141 156c0 90 53 197 218 245l4 -10c-83 -33 -126 -102 -144 -171c13 23 39 44 83 44c66 0 121 -48 121 -125c0 -82 -64 -139 -141 -139zM167 361c43 0 71 42 71 116c0 76 -29 106 -73 106c-28 0 -57 -13 -69 -43c-3 -18 -4 -35 -4 -52
c0 -65 23 -127 75 -127z" />
    <glyph glyph-name="seven.num" horiz-adv-x="275" 
d="M122 354h-72c38 134 107 243 175 329h-203l11 56h240v-5c-63 -99 -126 -226 -151 -380z" />
    <glyph glyph-name="eight.num" horiz-adv-x="302" 
d="M147 346c-71 0 -130 37 -130 99c0 42 27 80 88 98c-51 28 -69 61 -69 98c0 63 48 106 116 106c64 0 114 -36 114 -90c0 -31 -16 -68 -75 -85c69 -34 94 -74 94 -116c0 -67 -60 -110 -138 -110zM86 671c0 -42 31 -65 93 -93c30 21 40 48 40 79c0 48 -25 75 -66 75
s-67 -26 -67 -61zM148 361c50 0 84 28 84 71c0 48 -38 71 -115 105c-37 -22 -53 -54 -53 -91c0 -53 32 -85 84 -85z" />
    <glyph glyph-name="nine.num" horiz-adv-x="328" 
d="M79 356c82 32 126 102 144 171c-13 -23 -40 -44 -83 -44c-66 0 -121 48 -121 125c0 82 64 139 141 139c85 0 141 -65 141 -156c0 -90 -53 -197 -218 -245zM160 510c27 0 56 12 68 43c3 17 5 35 5 52c0 65 -23 127 -75 127c-43 0 -71 -42 -71 -116c0 -76 29 -106 73 -106z
" />
    <glyph glyph-name="five.den" horiz-adv-x="291" 
d="M122 -8c-40 0 -73 10 -92 23l-13 87l5 1c29 -54 58 -96 104 -96s78 38 78 109c0 74 -33 115 -92 115c-23 0 -44 -6 -64 -22l-6 4l29 172h192l-10 -54h-175l-17 -102c20 12 42 18 69 18c71 0 139 -41 139 -127c0 -85 -68 -128 -147 -128z" />
    <glyph glyph-name="zero.den" horiz-adv-x="368" 
d="M183 -8c-89 0 -161 87 -161 201s71 200 161 200c89 0 163 -86 163 -200s-74 -201 -163 -201zM183 7c66 0 89 79 89 186c0 106 -23 185 -89 185s-87 -79 -87 -185c0 -107 21 -186 87 -186z" />
    <glyph glyph-name="one.den" horiz-adv-x="194" 
d="M162 0h-122v1c23 27 28 43 28 79v226h-48v5c40 20 77 46 109 80h5v-311c0 -37 5 -52 28 -79v-1z" />
    <glyph glyph-name="two.den" horiz-adv-x="304" 
d="M248 0h-241v7c144 127 189 201 189 280c0 57 -24 91 -67 91c-42 0 -70 -40 -98 -96l-5 2l12 92c19 7 50 17 93 17c92 0 131 -45 131 -104c0 -76 -66 -144 -188 -235h102c49 0 73 26 97 62l4 -2z" />
    <glyph glyph-name="three.den" horiz-adv-x="303" 
d="M135 -8c-39 0 -80 10 -102 23l-13 89l6 1c37 -58 61 -98 110 -98c55 0 80 48 80 112c0 70 -31 103 -84 103c-29 0 -50 -10 -68 -22l-6 8l140 122h-159l17 54h222v-5l-166 -144c11 3 23 4 37 4c68 0 134 -39 134 -120c0 -77 -60 -127 -148 -127z" />
    <glyph glyph-name="four.den" horiz-adv-x="317" 
d="M158 0v1c18 27 22 43 22 79v20h-168v7l176 278h78l-231 -269h145v118h67v-118h49l-4 -16h-45v-20c0 -37 5 -52 23 -79v-1h-112z" />
    <glyph glyph-name="six.den" horiz-adv-x="328" 
d="M165 -8c-85 0 -141 65 -141 156c0 90 53 197 218 245l4 -10c-83 -33 -126 -102 -144 -171c13 23 39 44 83 44c66 0 121 -48 121 -125c0 -82 -64 -139 -141 -139zM167 7c43 0 71 42 71 116c0 76 -29 106 -73 106c-28 0 -57 -13 -69 -43c-3 -18 -4 -35 -4 -52
c0 -65 23 -127 75 -127z" />
    <glyph glyph-name="seven.den" horiz-adv-x="275" 
d="M122 0h-72c38 134 107 243 175 329h-203l11 56h240v-5c-63 -99 -126 -226 -151 -380z" />
    <glyph glyph-name="eight.den" horiz-adv-x="302" 
d="M147 -8c-71 0 -130 37 -130 99c0 42 27 80 88 98c-51 28 -69 61 -69 98c0 63 48 106 116 106c64 0 114 -36 114 -90c0 -31 -16 -68 -75 -85c69 -34 94 -74 94 -116c0 -67 -60 -110 -138 -110zM86 317c0 -42 31 -65 93 -93c30 21 40 48 40 79c0 48 -25 75 -66 75
s-67 -26 -67 -61zM148 7c50 0 84 28 84 71c0 48 -38 71 -115 105c-37 -22 -53 -54 -53 -91c0 -53 32 -85 84 -85z" />
    <glyph glyph-name="nine.den" horiz-adv-x="328" 
d="M79 2c82 32 126 102 144 171c-13 -23 -40 -44 -83 -44c-66 0 -121 48 -121 125c0 82 64 139 141 139c85 0 141 -65 141 -156c0 -90 -53 -197 -218 -245zM160 156c27 0 56 12 68 43c3 17 5 35 5 52c0 65 -23 127 -75 127c-43 0 -71 -42 -71 -116c0 -76 29 -106 73 -106z
" />
    <glyph glyph-name="five.sub" horiz-adv-x="291" 
d="M122 -88c-40 0 -73 10 -92 23l-13 87l5 1c29 -54 58 -96 104 -96s78 38 78 109c0 74 -33 115 -92 115c-23 0 -44 -6 -64 -22l-6 4l29 172h192l-10 -54h-175l-17 -102c20 12 42 18 69 18c71 0 139 -41 139 -127c0 -85 -68 -128 -147 -128z" />
    <glyph glyph-name="zero.sub" horiz-adv-x="369" 
d="M184 -88c-89 0 -161 87 -161 201s71 200 161 200c89 0 163 -86 163 -200s-74 -201 -163 -201zM184 -73c66 0 89 79 89 186c0 106 -23 185 -89 185s-87 -79 -87 -185c0 -107 21 -186 87 -186z" />
    <glyph glyph-name="one.sub" horiz-adv-x="194" 
d="M162 -80h-122v1c23 27 28 43 28 79v226h-48v5c40 20 77 46 109 80h5v-311c0 -37 5 -52 28 -79v-1z" />
    <glyph glyph-name="two.sub" horiz-adv-x="304" 
d="M248 -80h-241v7c144 127 189 201 189 280c0 57 -24 91 -67 91c-42 0 -70 -40 -98 -96l-5 2l12 92c19 7 50 17 93 17c92 0 131 -45 131 -104c0 -76 -66 -144 -188 -235h102c49 0 73 26 97 62l4 -2z" />
    <glyph glyph-name="three.sub" horiz-adv-x="303" 
d="M135 -88c-39 0 -80 10 -102 23l-13 89l6 1c37 -58 61 -98 110 -98c55 0 80 48 80 112c0 70 -31 103 -84 103c-29 0 -50 -10 -68 -22l-6 8l140 122h-159l17 54h222v-5l-166 -144c11 3 23 4 37 4c68 0 134 -39 134 -120c0 -77 -60 -127 -148 -127z" />
    <glyph glyph-name="four.sub" horiz-adv-x="317" 
d="M158 -80v1c18 27 22 43 22 79v20h-168v7l176 278h78l-231 -269h145v118h67v-118h49l-4 -16h-45v-20c0 -37 5 -52 23 -79v-1h-112z" />
    <glyph glyph-name="six.sub" horiz-adv-x="328" 
d="M165 -88c-85 0 -141 65 -141 156c0 90 53 197 218 245l4 -10c-83 -33 -126 -102 -144 -171c13 23 39 44 83 44c66 0 121 -48 121 -125c0 -82 -64 -139 -141 -139zM167 -73c43 0 71 42 71 116c0 76 -29 106 -73 106c-28 0 -57 -13 -69 -43c-3 -18 -4 -35 -4 -52
c0 -65 23 -127 75 -127z" />
    <glyph glyph-name="seven.sub" horiz-adv-x="275" 
d="M122 -80h-72c38 134 107 243 175 329h-203l11 56h240v-5c-63 -99 -126 -226 -151 -380z" />
    <glyph glyph-name="eight.sub" horiz-adv-x="302" 
d="M147 -88c-71 0 -130 37 -130 99c0 42 27 80 88 98c-51 28 -69 61 -69 98c0 63 48 106 116 106c64 0 114 -36 114 -90c0 -31 -16 -68 -75 -85c69 -34 94 -74 94 -116c0 -67 -60 -110 -138 -110zM86 237c0 -42 31 -65 93 -93c30 21 40 48 40 79c0 48 -25 75 -66 75
s-67 -26 -67 -61zM148 -73c50 0 84 28 84 71c0 48 -38 71 -115 105c-37 -22 -53 -54 -53 -91c0 -53 32 -85 84 -85z" />
    <glyph glyph-name="nine.sub" horiz-adv-x="328" 
d="M160 313c85 0 141 -65 141 -156c0 -90 -53 -197 -218 -245l-4 10c83 33 126 102 144 171c-13 -23 -39 -44 -83 -44c-66 0 -121 48 -121 125c0 82 64 139 141 139zM158 298c-43 0 -71 -42 -71 -116c0 -76 29 -106 73 -106c28 0 57 13 69 43c3 18 4 35 4 52
c0 65 -23 127 -75 127z" />
    <glyph glyph-name="plus.sub" horiz-adv-x="315" 
d="M290 106h-123v-123h-20v123h-122v18h122v123h20v-123h123v-18z" />
    <glyph glyph-name="minus.sub" horiz-adv-x="315" 
d="M290 106h-265v18h265v-18z" />
    <glyph glyph-name="five.sup" horiz-adv-x="291" 
d="M122 426c-40 0 -73 10 -92 23l-13 87l5 1c29 -54 58 -96 104 -96s78 38 78 109c0 74 -33 115 -92 115c-23 0 -44 -6 -64 -22l-6 4l29 172h192l-10 -54h-175l-17 -102c20 12 42 18 69 18c71 0 139 -41 139 -127c0 -85 -68 -128 -147 -128z" />
    <glyph glyph-name="zero.sup" horiz-adv-x="369" 
d="M184 426c-89 0 -161 87 -161 201s71 200 161 200c89 0 163 -86 163 -200s-74 -201 -163 -201zM184 441c66 0 89 79 89 186c0 106 -23 185 -89 185s-87 -79 -87 -185c0 -107 21 -186 87 -186z" />
    <glyph glyph-name="one.sup" horiz-adv-x="194" 
d="M162 434h-122v1c23 27 28 43 28 79v226h-48v5c40 20 77 46 109 80h5v-311c0 -37 5 -52 28 -79v-1z" />
    <glyph glyph-name="two.sup" horiz-adv-x="304" 
d="M248 434h-241v7c144 127 189 201 189 280c0 57 -24 91 -67 91c-42 0 -70 -40 -98 -96l-5 2l12 92c19 7 50 17 93 17c92 0 131 -45 131 -104c0 -76 -66 -144 -188 -235h102c49 0 73 26 97 62l4 -2z" />
    <glyph glyph-name="three.sup" horiz-adv-x="303" 
d="M135 426c-39 0 -80 10 -102 23l-13 89l6 1c37 -58 61 -98 110 -98c55 0 80 48 80 112c0 70 -31 103 -84 103c-29 0 -50 -10 -68 -22l-6 8l140 122h-159l17 54h222v-5l-166 -144c11 3 23 4 37 4c68 0 134 -39 134 -120c0 -77 -60 -127 -148 -127z" />
    <glyph glyph-name="four.sup" horiz-adv-x="317" 
d="M158 434v1c18 27 22 43 22 79v20h-168v7l176 278h78l-231 -269h145v118h67v-118h49l-4 -16h-45v-20c0 -37 5 -52 23 -79v-1h-112z" />
    <glyph glyph-name="six.sup" horiz-adv-x="328" 
d="M165 426c-85 0 -141 65 -141 156c0 90 53 197 218 245l4 -10c-83 -33 -126 -102 -144 -171c13 23 39 44 83 44c66 0 121 -48 121 -125c0 -82 -64 -139 -141 -139zM167 441c43 0 71 42 71 116c0 76 -29 106 -73 106c-28 0 -57 -13 -69 -43c-3 -18 -4 -35 -4 -52
c0 -65 23 -127 75 -127z" />
    <glyph glyph-name="seven.sup" horiz-adv-x="275" 
d="M122 434h-72c38 134 107 243 175 329h-203l11 56h240v-5c-63 -99 -126 -226 -151 -380z" />
    <glyph glyph-name="eight.sup" horiz-adv-x="302" 
d="M147 426c-71 0 -130 37 -130 99c0 42 27 80 88 98c-51 28 -69 61 -69 98c0 63 48 106 116 106c64 0 114 -36 114 -90c0 -31 -16 -68 -75 -85c69 -34 94 -74 94 -116c0 -67 -60 -110 -138 -110zM86 751c0 -42 31 -65 93 -93c30 21 40 48 40 79c0 48 -25 75 -66 75
s-67 -26 -67 -61zM148 441c50 0 84 28 84 71c0 48 -38 71 -115 105c-37 -22 -53 -54 -53 -91c0 -53 32 -85 84 -85z" />
    <glyph glyph-name="nine.sup" horiz-adv-x="328" 
d="M79 436c82 32 126 102 144 171c-13 -23 -40 -44 -83 -44c-66 0 -121 48 -121 125c0 82 64 139 141 139c85 0 141 -65 141 -156c0 -90 -53 -197 -218 -245zM160 590c27 0 56 12 68 43c3 17 5 35 5 52c0 65 -23 127 -75 127c-43 0 -71 -42 -71 -116c0 -76 29 -106 73 -106z
" />
    <glyph glyph-name="plus.sup" horiz-adv-x="315" 
d="M290 616h-123v-123h-20v123h-122v18h122v123h20v-123h123v-18z" />
    <glyph glyph-name="minus.sup" horiz-adv-x="315" 
d="M290 616h-265v18h265v-18z" />
    <glyph glyph-name="space_uni0326.alt" 
d="M219 772l4 -5c-30 -22 -52 -54 -52 -79c0 -18 19 -45 37 -62v-1l-61 -43c-21 15 -36 40 -36 66c0 52 63 99 108 124z" />
    <glyph glyph-name="caron.alt" horiz-adv-x="380" 
d="M69 574l28 201h75l-95 -203z" />
    <glyph glyph-name="space.uc" horiz-adv-x="191" 
 />
    <glyph glyph-name="questiondown.uc" horiz-adv-x="430" 
d="M286 524h16c-25 -167 -182 -181 -182 -377c0 -91 37 -144 113 -144c73 0 113 52 153 140l7 -2l-20 -127c-29 -11 -82 -29 -145 -29c-123 0 -192 57 -192 164c0 185 204 208 250 375zM288 736c31 0 56 -26 56 -56c0 -32 -25 -57 -56 -57s-57 25 -57 57c0 30 26 56 57 56z
" />
    <glyph glyph-name="exclamdown.uc" horiz-adv-x="223" 
d="M152 2v-2h-80v2l32 522h15zM112 736c31 0 56 -26 56 -56c0 -32 -25 -57 -56 -57s-57 25 -57 57c0 30 26 56 57 56z" />
    <glyph glyph-name="hyphen.uc" horiz-adv-x="281" 
d="M251 352h-221v44h221v-44z" />
    <glyph glyph-name="endash.uc" horiz-adv-x="508" 
d="M478 362h-448v19h448v-19z" />
    <glyph glyph-name="emdash.uc" horiz-adv-x="758" 
d="M728 362h-698v19h698v-19z" />
    <glyph glyph-name="guilsinglleft.uc" horiz-adv-x="278" 
d="M208 129l-8 -6l-145 175v20l145 175l8 -6l-91 -179z" />
    <glyph glyph-name="guilsinglright.uc" horiz-adv-x="278" 
d="M78 134l-8 6l91 179l-91 179l8 6l145 -175v-20z" />
    <glyph glyph-name="guillemotleft.uc" horiz-adv-x="415" 
d="M358 129l-8 -6l-145 175v20l145 175l8 -6l-91 -179zM208 129l-8 -6l-145 175v20l145 175l8 -6l-91 -179z" />
    <glyph glyph-name="guillemotright.uc" horiz-adv-x="415" 
d="M215 123l-8 6l91 179l-91 179l8 6l145 -175v-20zM65 123l-8 6l91 179l-91 179l8 6l145 -175v-20z" />
    <glyph glyph-name="parenleft.uc" horiz-adv-x="308" 
d="M278 -80l-8 -10c-119 98 -193 252 -193 442s74 345 193 443l8 -10c-78 -99 -131 -250 -131 -433s53 -333 131 -432z" />
    <glyph glyph-name="parenright.uc" horiz-adv-x="308" 
d="M38 -90l-8 10c78 99 131 249 131 432s-53 334 -131 433l8 10c119 -98 193 -253 193 -443s-74 -344 -193 -442z" />
    <glyph glyph-name="bracketleft.uc" horiz-adv-x="331" 
d="M95 -90v885h212v-19h-144v-847h144v-19h-212z" />
    <glyph glyph-name="bracketright.uc" horiz-adv-x="331" 
d="M236 795v-885h-212v19h144v847h-144v19h212z" />
    <glyph glyph-name="braceleft.uc" horiz-adv-x="311" 
d="M286 -90h-25c-112 0 -171 45 -171 124c0 72 60 144 60 223c0 62 -42 86 -108 86h-17v19h17c66 0 108 24 108 86c0 79 -60 151 -60 223c0 79 59 124 171 124h25v-19h-25c-59 0 -98 -13 -98 -100c0 -55 33 -139 33 -211c0 -83 -52 -102 -119 -111v-3
c67 -9 119 -27 119 -111c0 -73 -33 -156 -33 -211c0 -87 38 -100 98 -100h25v-19z" />
    <glyph glyph-name="braceright.uc" horiz-adv-x="311" 
d="M50 -90h-25v19h25c60 0 98 13 98 100c0 55 -33 138 -33 211c0 84 52 102 119 111v3c-67 9 -119 28 -119 111c0 72 33 156 33 211c0 87 -39 100 -98 100h-25v19h25c112 0 171 -45 171 -124c0 -72 -60 -144 -60 -223c0 -62 42 -86 108 -86h17v-19h-17
c-66 0 -108 -24 -108 -86c0 -79 60 -151 60 -223c0 -79 -59 -124 -171 -124z" />
    <glyph glyph-name="slash.uc" horiz-adv-x="398" 
d="M-5 -90l382 911h26l-383 -911h-25z" />
    <glyph glyph-name="backslash.uc" horiz-adv-x="398" 
d="M403 -90h-25l-383 911h26z" />
    <glyph glyph-name="bar.uc" horiz-adv-x="205" 
d="M114 -89h-23v911h23v-911z" />
    <glyph glyph-name="at.uc" horiz-adv-x="853" 
d="M417 -41c-218 0 -382 135 -382 360c0 236 184 437 448 437c203 0 334 -115 334 -310c0 -160 -90 -294 -223 -294c-113 0 -124 98 -105 174l1 6c-43 -100 -105 -187 -173 -187c-47 0 -79 41 -79 115c0 150 117 315 265 315c30 0 56 -6 75 -16l32 16h6l-64 -241
c-24 -90 -26 -163 52 -163c104 0 172 131 172 275c0 188 -119 290 -297 290c-242 0 -392 -196 -392 -418c0 -212 137 -339 334 -339c78 0 158 21 214 60l8 -16c-60 -42 -139 -64 -226 -64zM350 197c60 0 117 120 154 209l32 121c-9 17 -26 29 -53 29
c-100 0 -176 -166 -176 -283c0 -60 19 -76 43 -76z" />
    <glyph glyph-name="grave.uc" horiz-adv-x="380" 
d="M299 790l-4 -8l-238 108l44 69z" />
    <glyph glyph-name="dieresis.uc" 
d="M366 868c0 -28 -22 -50 -50 -50c-27 0 -50 22 -50 50s23 50 50 50c28 0 50 -22 50 -50zM115 868c0 -28 -22 -50 -50 -50c-27 0 -50 22 -50 50s23 50 50 50c28 0 50 -22 50 -50z" />
    <glyph glyph-name="macron.uc" horiz-adv-x="308" 
d="M1 836v42h306v-42h-306z" />
    <glyph glyph-name="acute.uc" horiz-adv-x="380" 
d="M65 790l197 169l41 -69l-233 -108z" />
    <glyph glyph-name="circumflex.uc" 
d="M338 782l-147 88l-147 -88l-8 8l152 155h5l152 -155z" />
    <glyph glyph-name="caron.uc" 
d="M158 782h-4l-152 155l7 8l147 -88l147 88l7 -8z" />
    <glyph glyph-name="breve.uc" 
d="M190 849c67 0 111 34 129 86h9c-4 -53 -33 -139 -139 -139c-103 0 -131 86 -136 139h9c20 -52 61 -86 128 -86z" />
    <glyph glyph-name="dotaccent.uc" 
d="M240 868c0 -28 -22 -50 -49 -50c-28 0 -50 22 -50 50s22 50 50 50c27 0 49 -22 49 -50z" />
    <glyph glyph-name="ring.uc" horiz-adv-x="300" 
d="M63 866c0 49 37 85 87 85s87 -35 87 -85s-38 -84 -87 -84s-87 34 -87 84zM96 866c0 -41 19 -66 54 -66s54 25 54 66c0 40 -19 68 -54 68s-54 -28 -54 -68z" />
    <glyph glyph-name="tilde.uc" 
d="M112 903c63 0 112 -48 173 -48c35 0 52 17 64 60l9 -1c-3 -47 -12 -120 -89 -120c-63 0 -112 48 -172 48c-36 0 -52 -17 -65 -60l-9 1c3 47 12 120 89 120z" />
    <glyph glyph-name="hungarumlaut.uc" horiz-adv-x="380" 
d="M202 790l136 159l48 -63l-177 -104zM11 790l136 159l48 -63l-177 -104z" />
    <glyph glyph-name="Cacute.pl" horiz-adv-x="747" 
d="M698 227l-20 -167c-28 -21 -142 -75 -272 -75c-230 0 -371 168 -371 382c0 213 157 380 393 380c101 0 195 -28 246 -49l20 -152l-8 -2c-81 130 -152 183 -266 183c-201 0 -291 -154 -291 -360c0 -207 88 -362 279 -362c146 0 222 87 282 225zM368 787l87 174l62 -43
l-141 -136z" />
    <glyph glyph-name="Nacute.pl" horiz-adv-x="706" 
d="M597 -3l-487 634l4 -465c0 -75 13 -106 70 -164v-2h-148v2c45 58 55 89 55 164v455c-14 50 -37 80 -79 109v2h121l466 -606l-3 440c-1 75 -12 106 -61 164v2h138v-2c-45 -58 -55 -89 -55 -164v-566zM318 787l87 174l62 -43l-141 -136z" />
    <glyph glyph-name="Oacute.pl" horiz-adv-x="812" 
d="M405 -15c-198 0 -370 166 -370 380s172 382 370 382c199 0 372 -168 372 -382s-173 -380 -372 -380zM405 5c180 0 278 153 278 360c0 206 -98 362 -278 362c-179 0 -276 -156 -276 -362s97 -360 276 -360zM364 787l87 174l62 -43l-141 -136z" />
    <glyph glyph-name="Sacute.pl" horiz-adv-x="542" 
d="M440 717l20 -158l-8 -3c-54 132 -123 171 -198 171c-92 0 -135 -56 -135 -124c0 -101 91 -137 186 -181c101 -46 205 -96 205 -232c0 -147 -120 -205 -257 -205c-68 0 -138 15 -198 38l-20 162l8 3c60 -127 130 -183 234 -183c106 0 158 63 158 148
c0 109 -83 152 -174 193c-102 47 -206 92 -206 220c0 125 98 181 223 181c60 0 118 -13 162 -30zM228 787l87 174l62 -43l-141 -136z" />
    <glyph glyph-name="Zacute.pl" horiz-adv-x="615" 
d="M543 0h-518v11l453 705l-201 -6c-107 -4 -169 -76 -221 -162l-8 3l47 181h483v-11l-452 -706l235 7c105 4 169 76 223 173l8 -3zM290 787l87 174l62 -43l-141 -136z" />
    <glyph glyph-name="acute.pl" horiz-adv-x="300" 
d="M96 547l71 202l67 -37l-131 -169z" />
    <glyph glyph-name="acute.ucpl" horiz-adv-x="300" 
d="M120 787l87 174l62 -43l-141 -136z" />
    <glyph glyph-name="cacute.pl" horiz-adv-x="472" 
d="M434 114l6 -3c-26 -75 -92 -126 -187 -126c-131 0 -220 95 -220 242c0 160 120 264 252 264c66 0 110 -19 133 -30l10 -102l-8 -2c-36 63 -87 116 -151 116c-97 0 -161 -80 -161 -212c0 -129 64 -212 176 -212c55 0 117 19 150 65zM222 547l71 202l67 -37l-131 -169z" />
    <glyph glyph-name="divide.osf" horiz-adv-x="546" 
d="M494 233h-442v20h442v-20zM273 20c-30 0 -56 26 -56 56c0 32 26 57 56 57c31 0 57 -25 57 -57c0 -30 -26 -56 -57 -56zM273 350c-30 0 -56 26 -56 56c0 32 26 57 56 57c31 0 57 -25 57 -57c0 -30 -26 -56 -57 -56z" />
    <glyph glyph-name="eight.osf" horiz-adv-x="465" 
d="M231 -10c-119 0 -200 77 -200 176c0 94 74 166 154 201c-71 47 -136 101 -136 198c0 110 81 182 188 182c104 0 181 -74 181 -164c0 -69 -44 -135 -140 -176c79 -51 155 -113 155 -227c0 -125 -94 -190 -202 -190zM231 9c82 0 132 64 132 146c0 98 -74 145 -150 194
l-16 10c-62 -44 -99 -98 -99 -186c0 -95 43 -164 133 -164zM257 420l10 -6c79 49 91 116 91 165c0 89 -42 149 -124 149c-77 0 -124 -56 -124 -130c0 -88 71 -130 147 -178z" />
    <glyph glyph-name="equal.osf" horiz-adv-x="532" 
d="M487 313h-442v21h442v-21zM487 172h-442v21h442v-21z" />
    <glyph glyph-name="f.short" horiz-adv-x="301" 
d="M71 0v2c17 26 24 61 24 137v319h-63v18h63v84c0 137 51 219 131 219c26 0 51 -9 63 -14l12 -92l-6 -2c-36 54 -59 88 -79 88c-28 0 -48 -53 -48 -155v-128h109v-18h-109v-319c0 -75 8 -111 23 -137v-2h-120z" />
    <glyph glyph-name="f_f.short" horiz-adv-x="555" 
d="M71 0v2c17 26 24 61 24 137v319h-63v18h63v64c0 137 70 219 164 219c27 0 51 -7 60 -14l12 -92l-6 -2c-29 44 -60 88 -91 88c-36 0 -66 -53 -66 -155v-108h181v84c0 137 47 219 124 219c27 0 54 -9 65 -14l12 -92l-6 -2c-34 54 -57 88 -77 88c-27 0 -45 -53 -45 -155
v-128h109v-18h-109v-319c0 -75 8 -111 23 -137v-2h-120v2c17 26 24 61 24 137v319h-181v-319c0 -75 8 -111 23 -137v-2h-120z" />
    <glyph glyph-name="five.osf" horiz-adv-x="446" 
d="M157 -245c-77 0 -136 33 -154 50l-18 137l8 2c50 -113 101 -170 178 -170c90 0 136 77 136 171c0 132 -84 232 -239 275l109 277h262l-25 -70h-243l-54 -138c146 -41 258 -144 258 -303c0 -137 -90 -231 -218 -231z" />
    <glyph glyph-name="four.osf" horiz-adv-x="478" 
d="M280 -195v195h-279v10l352 491h8v-447h104l-11 -54h-93v-195h-81zM280 54v310l-220 -310h220z" />
    <glyph glyph-name="four.osfalt" horiz-adv-x="478" 
d="M280 -195v195h-283v10l309 467h107l-389 -454h256v157h81v-157h100l-5 -23h-95v-195h-81z" />
    <glyph glyph-name="greater.osf" horiz-adv-x="530" 
d="M485 228l-430 -208v25l409 196l-409 196v25l430 -208v-26z" />
    <glyph glyph-name="less.osf" horiz-adv-x="530" 
d="M475 20l-430 208v26l430 208v-25l-409 -196l409 -196v-25z" />
    <glyph glyph-name="minus.osf" horiz-adv-x="532" 
d="M487 233h-442v20h442v-20z" />
    <glyph glyph-name="multiply.osf" horiz-adv-x="472" 
d="M406 57l-170 170l-170 -170l-15 15l170 170l-170 170l15 15l170 -170l170 170l15 -15l-170 -170l170 -170z" />
    <glyph glyph-name="nacute.pl" horiz-adv-x="530" 
d="M170 2v-2h-117v2c19 44 22 82 22 152v187c0 51 -21 80 -44 100v2l113 53v-93l4 -1c47 56 105 89 171 89c92 0 141 -56 141 -146v-190c0 -72 1 -109 22 -153v-2h-117v2c18 44 22 86 22 152v175c0 62 -27 113 -103 113c-47 0 -97 -19 -136 -59v-228c0 -69 2 -109 22 -153z
M244 547l71 202l67 -37l-131 -169z" />
    <glyph glyph-name="nine.osf" horiz-adv-x="525" 
d="M258 509c142 0 231 -131 231 -284c0 -172 -117 -382 -423 -478l-3 9c160 62 258 177 307 301c-26 -28 -64 -50 -123 -50c-136 0 -213 114 -213 246c0 136 97 256 224 256zM259 490c-95 0 -142 -95 -142 -244c0 -157 53 -220 141 -220c49 0 92 19 122 60
c18 55 26 111 26 165c0 118 -37 239 -147 239z" />
    <glyph glyph-name="oacute.pl" horiz-adv-x="562" 
d="M281 -15c-137 0 -251 114 -251 252c1 138 115 254 251 254c137 0 251 -116 251 -254s-114 -252 -251 -252zM281 4c113 0 167 108 167 233c0 126 -55 235 -167 235s-167 -109 -167 -235c0 -125 54 -233 167 -233zM256 547l71 202l67 -37l-131 -169z" />
    <glyph glyph-name="one.osf" horiz-adv-x="254" 
d="M217 0h-174v2c37 40 46 62 46 134v293h-83v11l161 67h2v-371c0 -73 10 -94 48 -134v-2z" />
    <glyph glyph-name="plus.osf" horiz-adv-x="532" 
d="M487 233h-210v-210h-22v210h-210v20h210v210h22v-210h210v-20z" />
    <glyph glyph-name="sacute.pl" horiz-adv-x="386" 
d="M324 472l10 -98l-7 -2c-44 79 -92 101 -140 101c-58 0 -96 -34 -96 -82c0 -60 60 -81 128 -109c70 -28 142 -62 142 -157c0 -91 -71 -140 -181 -140c-58 0 -105 14 -139 28l-10 114l7 2c41 -88 89 -126 156 -126c74 0 107 46 107 95c0 60 -50 84 -117 111
c-66 27 -145 59 -145 152c0 97 85 130 169 130c44 0 89 -9 116 -19zM165 547l71 202l67 -37l-131 -169z" />
    <glyph glyph-name="seven.osf" horiz-adv-x="440" 
d="M102 -245h-86c111 283 252 496 370 672h-348l16 70h382v-10c-114 -193 -233 -427 -334 -732z" />
    <glyph glyph-name="six.osf" horiz-adv-x="525" 
d="M267 -10c-142 0 -231 131 -231 284c0 172 117 382 423 478l3 -9c-160 -62 -258 -177 -307 -301c26 28 64 50 123 50c136 0 213 -114 213 -246c0 -136 -97 -256 -224 -256zM266 9c95 0 142 95 142 244c0 157 -53 220 -141 220c-49 0 -92 -19 -122 -60
c-18 -55 -26 -111 -26 -165c0 -118 37 -239 147 -239z" />
    <glyph glyph-name="three.osf" horiz-adv-x="452" 
d="M188 -245c-73 0 -134 24 -159 46l-21 141l8 2c53 -108 101 -170 183 -170c89 0 137 72 137 158c0 123 -90 195 -203 216v5c119 33 191 109 191 210c0 75 -38 125 -97 125c-64 0 -111 -60 -157 -142l-7 2l19 127c21 11 83 32 150 32c105 0 170 -55 170 -141
c0 -78 -49 -143 -146 -182c88 -30 159 -106 159 -215c0 -125 -95 -214 -227 -214z" />
    <glyph glyph-name="three.osfalt" horiz-adv-x="452" 
d="M188 -245c-73 0 -134 24 -159 46l-21 141l8 2c53 -108 101 -170 183 -170c89 0 137 72 137 158c0 123 -90 195 -203 216v5c135 39 184 107 184 186c0 73 -40 123 -121 123c-39 0 -89 -12 -123 -39l-5 6c41 46 98 78 171 78c100 0 162 -59 162 -143
c0 -73 -46 -139 -145 -181c89 -30 159 -105 159 -214c0 -125 -95 -214 -227 -214z" />
    <glyph glyph-name="two.osf" horiz-adv-x="470" 
d="M395 0h-367v8c201 122 268 236 268 347c0 85 -42 133 -102 133c-58 0 -102 -47 -144 -138l-7 2l21 122c26 15 74 33 138 33c116 0 179 -60 179 -152c0 -106 -79 -199 -238 -283h187c58 0 75 16 101 59l7 -3z" />
    <glyph glyph-name="two.osfalt" horiz-adv-x="470" 
d="M395 0h-367v8c201 122 271 230 271 327c0 78 -44 127 -129 127c-42 0 -86 -12 -120 -39l-5 6c41 46 100 78 175 78c105 0 169 -62 169 -154c0 -109 -87 -197 -247 -281h188c58 0 75 16 101 59l7 -3z" />
    <glyph glyph-name="uni0192" unicode="&#x192;" horiz-adv-x="536" 
d="M32 -190c-28 0 -60 8 -72 14l-15 115l8 2c29 -58 58 -111 95 -111c40 0 65 59 103 231l67 306h-83l5 20h82l21 94c38 178 109 266 200 266c28 0 58 -8 70 -14l7 -130l-8 -2c-27 66 -52 126 -87 126c-38 0 -63 -57 -96 -204l-30 -136h108l-4 -20h-109l-57 -256
c-48 -213 -115 -301 -205 -301z" />
    <glyph glyph-name="uni0237" unicode="&#x237;" horiz-adv-x="230" 
d="M14 -243l-2 5c44 26 65 61 65 141v437c0 49 -22 79 -45 99v4l118 53l-2 -553c0 -121 -53 -176 -134 -186z" />
    <glyph glyph-name="zacute.pl" horiz-adv-x="428" 
d="M368 0h-350v7l291 452l-138 -4c-50 -1 -86 -46 -126 -91l-5 2l33 110h324v-8l-289 -451l151 3c60 1 95 43 139 101l5 -2zM203 547l71 202l67 -37l-131 -169z" />
    <glyph glyph-name="zero.osf" horiz-adv-x="533" 
d="M266 -10c-129 0 -236 121 -235 258s108 259 235 259c129 0 235 -122 235 -259s-106 -258 -235 -258zM266 9c106 0 147 116 147 239s-42 240 -147 240s-147 -117 -147 -240s41 -239 147 -239z" />
    <glyph glyph-name="A" unicode="A" horiz-adv-x="630" 
d="M408 296l-122 337l-124 -337h246zM124 2v-2h-122v2c42 42 54 73 80 143l221 596h24l224 -606c30 -80 43 -103 77 -133v-2h-159v2c15 23 21 70 -4 137l-50 137h-261l-41 -112c-33 -88 -10 -136 11 -162z" />
    </font>
</defs>
</svg>
